<?xml version="1.0" standalone="no"?>
<!DOCTYPE svg PUBLIC "-//W3C//DTD SVG 1.1//EN" "http://www.w3.org/Graphics/SVG/1.1/DTD/svg11.dtd" >
<svg xmlns="http://www.w3.org/2000/svg" xmlns:xlink="http://www.w3.org/1999/xlink" version="1.1">
<metadata>
Created by FontForge 20190801 at Wed Mar 24 01:31:37 2021
 By Unknown
</metadata>
<defs>
<font id="CodeliaLigatures" horiz-adv-x="620" >
  <font-face 
    font-family="Codelia Ligatures"
    font-weight="700"
    font-stretch="normal"
    units-per-em="1000"
    panose-1="0 0 0 0 0 0 0 0 0 0"
    ascent="800"
    descent="-200"
    x-height="532"
    cap-height="697"
    bbox="-10 -225 1005 1019"
    underline-thickness="50"
    underline-position="-175"
    unicode-range="U+0020-2013"
  />
<missing-glyph 
 />
    <glyph glyph-name=".notdef" 
 />
    <glyph glyph-name=".null" horiz-adv-x="0" 
 />
    <glyph glyph-name="nonmarkingreturn" 
 />
    <glyph glyph-name="space" unicode=" " 
 />
    <glyph glyph-name="exclam" unicode="!" 
d="M224 9q-24 19 -24 63t24 63t86 19t86 -19t24 -63t-24 -63t-86 -19t-86 19zM244.5 727.5q19.5 8.5 65.5 8.5q48 0 66.5 -8.5t18.5 -27.5l-26 -387q-2 -19 -14 -27t-45 -8q-32 0 -44.5 8t-14.5 27l-26 387q0 19 19.5 27.5z" />
    <glyph glyph-name="dollar" unicode="$" 
d="M262 -83q0 32 5 69q-90 5 -156 34q-20 7 -29 17t-9 28q0 26 14.5 54t32.5 28q3 0 9 -2q69 -31 131 -38q-4 41 -4 94q0 45 3 91q-86 22 -133 68t-47 143q0 92 48.5 143.5t139.5 62.5q-5 33 -5 62q0 21 48 21t48 -21q0 -29 -5 -60q79 -6 132 -30q23 -9 32.5 -19.5
t9.5 -26.5q0 -25 -15.5 -53t-34.5 -28q-7 0 -10 2q-57 30 -106 37q3 -42 3 -85q0 -47 -5 -105q99 -26 143 -72t44 -132q0 -93 -49.5 -146t-143.5 -65q5 -38 5 -71q0 -22 -48 -22t-48 22zM230 447.5q24 -19.5 73 -31.5q-4 41 -4 92q0 44 3 87q-96 -7 -96 -89q0 -39 24 -58.5z
M419 191q0 34 -22 53t-79 34q3 -39 3 -77q0 -54 -4 -95q102 6 102 85z" />
    <glyph glyph-name="ampersand" unicode="&#x26;" 
d="M435 69q-83 -81 -197 -81q-96 0 -151.5 52t-55.5 143q0 61 27.5 111t81.5 84q-34 79 -34 148q0 86 55.5 133.5t152.5 47.5q56 0 103 -14t62 -34q12 -15 21 -63.5t9 -84.5q0 -17 -27 -28t-67 -11q-11 0 -16.5 5.5t-8.5 19.5l-11 95q-29 12 -65 12q-45 0 -66 -19.5
t-21 -69.5q0 -52 16 -125q86 -77 178 -169l35 109q6 16 35 16q31 0 58.5 -15.5t20.5 -36.5q-14 -41 -29.5 -74.5t-39.5 -66.5q40 -25 90 -66q6 -6 6 -15q0 -15 -11 -34.5t-27.5 -33.5t-30.5 -14q-8 0 -16 6q-48 39 -77 73zM173 128q27 -25 81 -25q61 0 104 36
q-49 39 -92.5 83.5t-69.5 80.5q-50 -41 -50 -102q0 -48 27 -73z" />
    <glyph glyph-name="comma" unicode="," 
d="M202 -203q-26 0 -49.5 18t-23.5 41q0 14 14 29q46 50 113 102q-26 37 -41.5 79t-15.5 70q0 33 25 49.5t86 16.5t86 -16.5t25 -49.5q0 -36 -23 -91.5t-65.5 -117.5t-97.5 -117q-13 -13 -33 -13z" />
    <glyph glyph-name="hyphen" unicode="-" 
d="M93.5 274q-6.5 16 -6.5 55q0 40 6.5 55.5t21.5 15.5h390q15 0 21.5 -15.5t6.5 -55.5q0 -39 -6.5 -55t-21.5 -16h-390q-15 0 -21.5 16z" />
    <glyph glyph-name="period" unicode="." 
d="M212.5 14.5q-27.5 24.5 -27.5 81.5t27.5 81.5t97.5 24.5t97.5 -24.5t27.5 -81.5t-27.5 -81.5t-97.5 -24.5t-97.5 24.5z" />
    <glyph glyph-name="zero" unicode="0" 
d="M115.5 72.5q-60.5 84.5 -60.5 246.5q0 390 269 390q121 0 181 -84t60 -247q0 -390 -268 -390q-121 0 -181.5 84.5zM182 240q49 68 115 146t126 139q-14 35 -39.5 51t-65.5 16q-52 0 -82.5 -25.5t-44.5 -82.5t-14 -155q0 -58 5 -89zM235 122q26 -17 66 -17q53 0 83.5 25.5
t44.5 82.5t14 156q0 50 -5 95q-48 -67 -114 -144.5t-129 -142.5q14 -38 40 -55z" />
    <glyph glyph-name="one" unicode="1" 
d="M109.5 14.5q-5.5 14.5 -5.5 49.5q0 37 5.5 50.5t18.5 13.5q71 0 145 -7q-6 108 -6 215q0 90 5 202h-17q-64 -49 -146 -74q-15 -5 -28.5 9.5t-22 38.5t-8.5 46q0 13 6 19.5t19 12.5q49 17 101 43.5t96 57.5q10 7 18.5 10.5t25.5 3.5q39 0 63.5 -10t24.5 -24
q0 -366 -7 -550q70 7 127 7q13 0 18.5 -13.5t5.5 -50.5q0 -35 -5.5 -49.5t-18.5 -14.5h-396q-13 0 -18.5 14.5z" />
    <glyph glyph-name="two" unicode="2" 
d="M74 15q-6 15 -6 51q0 25 6.5 42.5t23.5 33.5q112 100 171.5 158t93.5 109t34 94q0 37 -24 56.5t-67 19.5q-77 0 -159 -50q-3 -2 -9 -2q-18 0 -36 31t-18 58q0 18 10 25q47 33 104 49.5t117 16.5q105 0 162 -49t57 -134q0 -102 -80.5 -195.5t-222.5 -192.5v-15q98 7 296 7
q13 0 18.5 -13.5t5.5 -50.5q0 -35 -6 -49.5t-18 -14.5h-435q-12 0 -18 15z" />
    <glyph glyph-name="three" unicode="3" 
d="M197.5 -5.5q-49.5 9.5 -86.5 24.5q-20 9 -29 18.5t-9 23.5q0 24 15 57.5t32 33.5q7 0 30 -10q34 -15 68 -25t77 -10q58 0 87.5 23t29.5 64q0 34 -24 58.5t-76 41.5q-56 -7 -108 -7q-16 0 -25 16t-9 48q0 61 32 61q19 0 53 -3.5t61 -7.5q40 29 57.5 56t17.5 56
q0 70 -100 70q-37 0 -74 -8t-64 -22q-12 -6 -23.5 6t-19 33t-7.5 41q0 26 16 35q37 17 87.5 27.5t101.5 10.5q100 0 155 -41.5t55 -118.5q0 -109 -109 -176v-15q137 -45 137 -172q0 -93 -65.5 -145.5t-182.5 -52.5q-51 0 -100.5 9.5z" />
    <glyph glyph-name="four" unicode="4" 
d="M365.5 -1.5q-14.5 6.5 -14.5 21.5q0 75 7 156q-96 -7 -287 -7q-17 0 -24 14.5t-7 47.5q0 28 5.5 48.5t19.5 43.5q47 77 116.5 174t131.5 172q19 22 38 29.5t56 7.5q40 0 57 -7t17 -25q0 -260 -7 -390q48 6 81 6q13 0 19 -13.5t6 -47.5q0 -35 -6 -47.5t-19 -12.5
q-33 0 -80 6q6 -81 6 -155q0 -15 -14.5 -21.5t-50.5 -6.5t-50.5 6.5zM260 288q54 0 97 -4q-3 48 -3 114q0 98 6 168h-15q-49 -60 -100 -133t-87 -135v-15q57 5 102 5z" />
    <glyph glyph-name="five" unicode="5" 
d="M196.5 -6q-49.5 9 -84.5 25q-20 9 -29.5 18.5t-9.5 23.5q0 25 15 58.5t32 33.5q7 0 29 -10q37 -15 70 -24t77 -9q58 0 87 24.5t29 68.5q0 37 -24.5 61t-80 39t-152.5 25q-28 4 -40 14t-12 33q0 11 3 26l44 254q8 42 35 42h312q12 0 18 -13.5t6 -47.5t-5.5 -47.5
t-18.5 -13.5q-117 0 -232 6q-7 -75 -26 -160q115 -9 182 -35t96 -70t29 -111q0 -107 -65 -163.5t-184 -56.5q-51 0 -100.5 9z" />
    <glyph glyph-name="six" unicode="6" 
d="M124 63.5q-68 78.5 -68 259.5q0 197 91 293t259 96q46 0 81 -7q19 -4 27 -14t8 -31q0 -32 -12.5 -59t-34.5 -22q-40 9 -78 9q-97 0 -151 -52t-70 -160l13 -4q71 62 170 62q98 0 151.5 -54.5t53.5 -157.5q0 -113 -62 -175t-178 -62q-132 0 -200 78.5zM223.5 151
q30.5 -46 93.5 -46q53 0 82 31t29 87q0 54 -29 82t-83 28q-32 0 -65 -9t-62 -26q4 -101 34.5 -147z" />
    <glyph glyph-name="seven" unicode="7" 
d="M198.5 -2q-15.5 6 -15.5 19q0 11 7 36q83 280 217 508v15q-70 -5 -152.5 -6t-161.5 -1q-13 0 -18.5 13.5t-5.5 50.5q0 35 6 49.5t18 14.5h433q13 0 19 -14.5t6 -50.5q0 -24 -4.5 -42t-15.5 -39q-66 -123 -120 -260t-89 -270q-4 -17 -18.5 -23t-48.5 -6q-41 0 -56.5 6z
" />
    <glyph glyph-name="eight" unicode="8" 
d="M120.5 33q-65.5 48 -65.5 135q0 104 102 161v16q-39 26 -62.5 69t-23.5 101q0 96 64.5 146.5t182.5 50.5q114 0 173.5 -44t59.5 -125q0 -57 -27.5 -97t-77.5 -64v-14q60 -31 89.5 -75t29.5 -107q0 -97 -67 -149t-188 -52q-124 0 -189.5 48zM217 125q32 -25 97 -25
q61 0 91 23.5t30 65.5q0 63 -66 108q-45 3 -116 13q-34 -26 -51 -56.5t-17 -61.5q0 -42 32 -67zM210 457q11 -25 30 -44q37 -7 113 -16q32 23 51.5 55t19.5 64q0 39 -27.5 60.5t-83.5 21.5t-85 -24t-29 -65q0 -27 11 -52z" />
    <glyph glyph-name="nine" unicode="9" 
d="M178 -12q-23 0 -41 28t-18 60q0 28 23 35q181 59 252 150l-4 13q-36 -9 -84 -9q-119 0 -184.5 56.5t-65.5 163.5q0 105 62.5 166t175.5 61q80 0 141 -32.5t95 -96.5t34 -156q0 -145 -91 -259t-285 -178q-8 -2 -10 -2zM362 360q37 0 66 4q3 24 3 49q0 86 -33.5 132.5
t-97.5 46.5q-51 0 -79.5 -29.5t-28.5 -80.5q0 -122 170 -122z" />
    <glyph glyph-name="colon" unicode=":" 
d="M212.5 357.5q-27.5 24.5 -27.5 81.5t27.5 81.5t97.5 24.5t97.5 -24.5t27.5 -81.5t-27.5 -81.5t-97.5 -24.5t-97.5 24.5zM212.5 11.5q-27.5 24.5 -27.5 81.5t27.5 81.5t97.5 24.5t97.5 -24.5t27.5 -81.5t-27.5 -81.5t-97.5 -24.5t-97.5 24.5z" />
    <glyph glyph-name="semicolon" unicode=";" 
d="M212.5 357.5q-27.5 24.5 -27.5 81.5t27.5 81.5t97.5 24.5t97.5 -24.5t27.5 -81.5t-27.5 -81.5t-97.5 -24.5t-97.5 24.5zM202 -203q-26 0 -49.5 18t-23.5 41q0 14 14 29q46 50 113 102q-26 37 -41.5 79t-15.5 70q0 33 25 49.5t86 16.5t86 -16.5t25 -49.5q0 -36 -23 -91.5
t-65.5 -117.5t-97.5 -117q-13 -13 -33 -13z" />
    <glyph glyph-name="question" unicode="?" 
d="M314 409.5q44 22.5 61 40.5t17 38q0 49 -78.5 71.5t-190.5 28.5q-17 1 -23 18.5t-6 48.5q0 36 8 56t28 20q75 0 166 -20t160.5 -72t69.5 -140q0 -59 -36 -102t-100.5 -75.5t-166.5 -66.5q-19 -6 -34.5 19t-15.5 52q0 25 15 30q82 31 126 53.5zM171 135q24 19 86 19
t86 -18.5t24 -63.5t-24 -63.5t-86 -18.5t-86 19t-24 63t24 63z" />
    <glyph glyph-name="A" unicode="A" 
d="M54.5 -2q-16.5 6 -16.5 19q0 4 5 42q54 306 159 606q8 23 30 32t78 9q57 0 79 -9t29 -32q105 -300 159 -606q5 -38 5 -42q0 -13 -16.5 -19t-53.5 -6q-35 0 -49.5 6t-17.5 25q-15 80 -22 145q-63 -5 -113 -5t-113 5q-7 -65 -22 -145q-3 -19 -17.5 -25t-49.5 -6
q-37 0 -53.5 6zM310 279q49 0 98 -3q-17 58 -33 122q-45 162 -56 197h-18q-11 -35 -56 -197q-16 -64 -33 -122q50 3 98 3z" />
    <glyph glyph-name="B" unicode="B" 
d="M188 -1q-50 7 -80 19q-19 7 -26 17t-7 29v301q0 91 6 131t20 64v16q-19 -5 -35 -5q-15 0 -20.5 11.5t-5.5 44.5q0 29 6.5 40.5t26.5 17.5q77 20 212 20q251 0 251 -183q0 -54 -23.5 -91.5t-71.5 -64.5v-16q60 -16 92.5 -56t32.5 -104q0 -96 -71 -147t-209 -51
q-48 0 -98 7zM212 194q0 -42 -3 -84q29 -12 79 -12q70 0 105.5 25.5t35.5 75.5q0 48 -33.5 74t-96.5 26q-47 0 -91 -6q4 -66 4 -99zM331 391q68 45 68 118q0 90 -113 90q-37 0 -77 -5q3 -49 3 -99q0 -37 -4 -109q70 8 123 5z" />
    <glyph glyph-name="C" unicode="C" 
d="M124.5 67.5q-68.5 78.5 -68.5 260.5q0 185 78 282.5t224 97.5q62 0 109 -16t66 -41q12 -14 21 -63.5t9 -79.5q0 -23 -29 -34.5t-65 -11.5q-18 0 -25 5.5t-9 22.5q-6 39 -9 78q-12 8 -33 12.5t-44 4.5q-157 0 -157 -246q0 -83 16.5 -132t49.5 -69.5t85 -20.5q76 0 167 44
q6 2 9 2q19 0 33.5 -32.5t14.5 -59.5q0 -20 -17 -28q-42 -24 -102.5 -39t-118.5 -15q-136 0 -204.5 78.5z" />
    <glyph glyph-name="D" unicode="D" 
d="M169.5 -1.5q-41.5 6.5 -67.5 17.5q-19 8 -26 18t-7 29v290q0 91 6 131.5t21 63.5v16q-20 -5 -36 -5q-15 0 -20.5 12.5t-5.5 49.5q0 33 6.5 45.5t27.5 18.5q76 20 200 20q151 0 228 -90.5t77 -266.5t-80 -266t-237 -90q-45 0 -86.5 6.5zM207 349q0 -108 -6 -221
q24 -7 60 -7q90 0 132.5 55.5t42.5 171.5q0 117 -42.5 172.5t-132.5 55.5q-37 0 -61 -4q7 -106 7 -223z" />
    <glyph glyph-name="E" unicode="E" 
d="M116 11.5q-11 11.5 -11 31.5v323q0 91 6 131t20 64v16q-24 -3 -36 -3q-13 0 -19 13.5t-6 48.5q0 34 6 47.5t19 13.5h424q13 0 19 -13.5t6 -47.5q0 -35 -6 -48.5t-19 -13.5q-127 0 -281 7q4 -40 4 -86t-4 -86q141 6 242 6q13 0 19 -13.5t6 -45.5q0 -34 -6 -46t-19 -12
q-101 0 -242 5q4 -41 4 -93q0 -50 -4 -94q156 7 286 7q13 0 18.5 -13.5t5.5 -48.5t-5.5 -48t-18.5 -13h-376q-21 0 -32 11.5z" />
    <glyph glyph-name="F" unicode="F" 
d="M135 -1.5q-15 6.5 -15 21.5v346q0 92 6 132t20 63v16q-25 -3 -37 -3q-13 0 -19 13.5t-6 48.5q0 34 6 47.5t19 13.5h425q12 0 18 -14t6 -50q0 -37 -5.5 -51t-18.5 -14q-131 0 -281 7q4 -44 4 -100t-4 -104q137 6 242 6q13 0 18.5 -13.5t5.5 -48.5q0 -36 -5.5 -48.5
t-18.5 -12.5q-105 0 -244 5q6 -83 6 -239q0 -15 -15.5 -21.5t-53.5 -6.5t-53 6.5z" />
    <glyph glyph-name="G" unicode="G" 
d="M118.5 68q-70.5 79 -70.5 260q0 185 78 282.5t224 97.5q62 0 108 -15t65 -36q13 -13 21.5 -50t8.5 -69q0 -20 -30.5 -30t-74.5 -10q-13 0 -18.5 5t-6.5 16l-7 54q-28 18 -76 18q-76 0 -115.5 -65t-39.5 -193q0 -87 17 -136.5t49 -70t82 -20.5q52 0 92 19q-3 32 -3 63
q0 24 4 72q-50 -4 -91 -4q-13 0 -18.5 12t-5.5 44t5.5 44t18.5 12h181q21 0 32 -11.5t11 -32.5v-230q0 -26 -12 -41.5t-39 -26.5q-42 -18 -90 -27.5t-95 -9.5q-134 0 -204.5 79z" />
    <glyph glyph-name="H" unicode="H" 
d="M82 -1.5q-15 6.5 -15 21.5v657q0 15 15 21.5t53 6.5q39 0 54 -6.5t15 -21.5q0 -124 -7 -260q63 5 113 5t113 -5q-7 136 -7 260q0 15 15 21.5t54 6.5q38 0 53 -6.5t15 -21.5v-657q0 -15 -15 -21.5t-53 -6.5q-39 0 -54 6.5t-15 21.5q0 134 7 279q-51 -4 -113 -4t-113 4
q7 -145 7 -279q0 -15 -15 -21.5t-54 -6.5q-38 0 -53 6.5z" />
    <glyph glyph-name="I" unicode="I" 
d="M113 14.5q-6 14.5 -6 49.5q0 37 6 51t19 14q50 0 113 -7q-4 154 -4 225q0 70 4 228q-63 -7 -113 -7q-13 0 -19 14t-6 51q0 35 6 49.5t19 14.5h356q13 0 19 -14.5t6 -49.5q0 -37 -6 -51t-19 -14q-50 0 -113 7q4 -105 4 -228q0 -122 -4 -225q63 7 113 7q13 0 19 -14t6 -51
q0 -35 -6 -49.5t-19 -14.5h-356q-13 0 -19 14.5z" />
    <glyph glyph-name="J" unicode="J" 
d="M73 35q-22 18 -22 38q0 27 19 57.5t41 30.5q7 0 15 -5q25 -20 50.5 -29.5t57.5 -9.5q53 0 82 27t36 93q5 50 5 167q0 66 -5 171q-104 -7 -195 -7q-13 0 -18.5 14t-5.5 51q0 36 5.5 50t18.5 14h283q21 0 32.5 -11.5t13.5 -31.5q8 -163 8 -277q0 -120 -11 -192
q-16 -98 -77.5 -147.5t-174.5 -49.5q-105 0 -158 47z" />
    <glyph glyph-name="K" unicode="K" 
d="M445 -1.5q-7 6.5 -14 24.5q-30 69 -72.5 138.5t-93.5 130.5q-36 -4 -62 -5q7 -148 7 -267q0 -15 -15 -21.5t-54 -6.5q-38 0 -53 6.5t-15 21.5v657q0 15 15 21.5t53 6.5q39 0 54 -6.5t15 -21.5q0 -118 -7 -262q32 2 62 6q85 122 144 254q9 17 15.5 23.5t17.5 6.5
q36 0 73 -15.5t37 -34.5q0 -13 -13 -39q-29 -56 -77 -128.5t-97 -126.5q58 -62 111.5 -139.5t83.5 -139.5q14 -28 14 -41q0 -19 -38 -34t-74 -15q-10 0 -17 6.5z" />
    <glyph glyph-name="L" unicode="L" 
d="M101 11.5q-11 11.5 -11 31.5v634q0 15 15 21.5t53 6.5q39 0 54 -6.5t15 -21.5q0 -365 -7 -555q71 4 202 7l11 77q2 17 9 22.5t25 5.5q36 0 65 -11.5t29 -34.5q0 -32 -14 -90t-29 -81q-12 -17 -31 -17h-355q-20 0 -31 11.5z" />
    <glyph glyph-name="M" unicode="M" 
d="M58.5 -0.5q-14.5 7.5 -14.5 21.5q0 150 6.5 330t17.5 315q2 22 23 31t68 9q42 0 60 -9t22 -32q38 -155 61 -320h16q23 165 61 320q4 23 22 32t60 9q47 0 68 -9t23 -31q11 -135 17.5 -315t6.5 -330q0 -14 -14.5 -21.5t-48.5 -7.5t-48 6.5t-14 21.5q5 155 5 288
q0 93 -4 265h-16q-39 -153 -65 -312q-2 -17 -16 -25t-45 -8t-45 8t-16 25q-24 143 -65 312h-16q-4 -172 -4 -265q0 -133 5 -288q0 -15 -14 -21.5t-48 -6.5t-48.5 7.5z" />
    <glyph glyph-name="N" unicode="N" 
d="M76 -1.5q-15 6.5 -15 21.5v650q0 19 21 27t70 8q45 0 61.5 -9.5t27.5 -38.5q125 -314 190 -514h16q-11 100 -18.5 264.5t-7.5 269.5q0 28 69 28q39 0 54 -6.5t15 -21.5v-650q0 -19 -21 -27t-70 -8q-44 0 -61 9t-28 39q-126 320 -190 514h-16q11 -100 18.5 -264.5
t7.5 -269.5q0 -15 -15.5 -21.5t-53.5 -6.5q-39 0 -54 6.5z" />
    <glyph glyph-name="O" unicode="O" 
d="M100 66.5q-61 78.5 -61 252.5q0 138 29.5 223.5t92 126t163.5 40.5q135 0 196 -78.5t61 -252.5q0 -138 -29.5 -223.5t-92 -126t-162.5 -40.5q-136 0 -197 78.5zM189 199.5q12 -47.5 39 -68t74 -20.5q54 0 84.5 24.5t43.5 79.5t13 153q0 83 -12 130t-39 67.5t-75 20.5
q-53 0 -83.5 -24.5t-43.5 -79.5t-13 -152q0 -83 12 -130.5z" />
    <glyph glyph-name="P" unicode="P" 
d="M101 -1.5q-15 6.5 -15 21.5v333q0 91 6 131t20 64v16q-19 -5 -35 -5q-15 0 -20.5 12.5t-5.5 49.5q0 33 6.5 45.5t26.5 18.5q77 20 213 20q270 0 270 -256q0 -126 -66 -191.5t-194 -65.5q-41 0 -89 10q5 -102 5 -182q0 -15 -15 -21.5t-54 -6.5q-38 0 -53 6.5zM299 309
q68 0 98.5 33.5t30.5 106.5t-30 106t-99 33q-42 0 -79 -8q3 -55 3 -122q0 -77 -3 -140q39 -9 79 -9z" />
    <glyph glyph-name="Q" unicode="Q" 
d="M114.5 78.5q-75.5 85.5 -75.5 264.5q0 189 68 277.5t217 88.5q135 0 196 -77.5t61 -248.5q0 -183 -84 -323q65 -46 118 -74q13 -7 19 -14.5t6 -17.5q0 -16 -11.5 -38t-29 -38t-32.5 -16q-9 0 -15.5 3t-18.5 12q-64 46 -124 124q-42 -8 -84 -8q-135 0 -210.5 85.5z
M220.5 164.5q43.5 -55.5 126.5 -55.5q32 0 54 6q21 51 31.5 119t10.5 139q0 80 -12 126t-39 66.5t-75 20.5q-53 0 -83.5 -23t-43.5 -73t-13 -136q0 -134 43.5 -189.5z" />
    <glyph glyph-name="R" unicode="R" 
d="M98 -1.5q-15 6.5 -15 21.5v345q0 91 6 131.5t21 63.5v16q-20 -5 -36 -5q-15 0 -20.5 11.5t-5.5 44.5q0 29 6.5 40.5t27.5 17.5q76 20 209 20q129 0 196 -56.5t67 -163.5q0 -144 -120 -221q40 -44 75.5 -92.5t58.5 -89.5q16 -28 16 -39q0 -19 -38 -35t-68 -16q-16 0 -24 8
t-20 33q-43 87 -109 180q-45 -3 -110 6q5 -106 5 -199q0 -15 -15 -21.5t-53 -6.5q-39 0 -54 6.5zM300 333q28 0 42 1q75 61 75 145q0 109 -124 109q-41 0 -76 -6q3 -54 3 -117q0 -69 -3 -126q42 -6 83 -6z" />
    <glyph glyph-name="S" unicode="S" 
d="M197 -6q-48 9 -86 26q-20 7 -29 17t-9 28q0 26 14.5 54t32.5 28q3 0 9 -2q90 -40 168 -40q116 0 116 86q0 35 -25 53.5t-91 32.5q-68 14 -114 35t-75 65.5t-29 119.5q0 108 62 161.5t179 53.5q57 0 109 -12t68 -28q13 -13 21.5 -49.5t8.5 -68.5q0 -20 -28 -30t-71 -10
q-12 0 -17.5 4.5t-7.5 16.5l-6 48q-34 13 -76 13q-109 0 -109 -90q0 -43 27 -62.5t85 -32.5q79 -17 127 -42.5t71.5 -66t23.5 -103.5q0 -106 -65 -160t-186 -54q-50 0 -98 9z" />
    <glyph glyph-name="T" unicode="T" 
d="M256.5 -1.5q-15.5 6.5 -15.5 21.5q0 182 1.5 305t6.5 250q-102 -7 -185 -7q-13 0 -18.5 14t-5.5 51q0 35 6 49.5t18 14.5h492q12 0 18 -14.5t6 -49.5q0 -37 -5.5 -51t-18.5 -14q-66 0 -185 7q5 -127 6.5 -250t1.5 -305q0 -15 -15 -21.5t-54 -6.5q-38 0 -53.5 6.5z" />
    <glyph glyph-name="U" unicode="U" 
d="M148 36q-58 48 -74 143q-11 72 -11 198q0 135 9 300q2 15 16 21.5t52 6.5q40 0 55 -7.5t13 -26.5q-8 -129 -8 -267q0 -123 5 -173q6 -63 32 -88.5t73 -25.5t73 25.5t32 88.5q6 48 6 173q0 122 -9 267q-2 19 13 26.5t55 7.5q38 0 52 -6.5t16 -21.5q9 -141 9 -300
q0 -126 -11 -198q-31 -191 -236 -191q-104 0 -162 48z" />
    <glyph glyph-name="V" unicode="V" 
d="M232 1.5q-22 9.5 -30 32.5q-111 298 -159 605q-5 38 -5 43q0 12 16.5 18t53.5 6q35 0 49.5 -6t17.5 -25q18 -139 51 -287t75 -272h18q42 124 75 272t51 287q3 19 17.5 25t49.5 6q37 0 53.5 -6t16.5 -18q0 -5 -5 -43q-48 -307 -159 -605q-7 -23 -29 -32.5t-79 -9.5
q-56 0 -78 9.5z" />
    <glyph glyph-name="W" unicode="W" 
d="M127 3.5q-13 10.5 -20 46.5q-26 114 -46 276t-29 302l-2 50q0 14 15 21t50 7t49.5 -6.5t15.5 -22.5q0 -275 32 -557h16q38 117 55 227q-9 96 -9 144q0 32 56 32t56 -32q0 -48 -9 -144q17 -110 55 -227h16q32 282 32 557q1 16 15.5 22.5t49.5 6.5t50 -7t15 -21l-2 -50
q-9 -140 -29 -302t-46 -276q-7 -36 -20 -46.5t-51 -10.5q-40 0 -54 9.5t-22 37.5q-34 124 -48 253h-16q-14 -129 -48 -253q-8 -28 -22 -37.5t-54 -9.5q-38 0 -51 10.5z" />
    <glyph glyph-name="X" unicode="X" 
d="M73.5 3.5q-34.5 15.5 -34.5 34.5q0 15 12 40q28 64 74.5 143.5t93.5 143.5q-41 59 -83 130t-66 123q-13 26 -13 40q0 19 33.5 35t66.5 16q13 0 20.5 -7.5t15.5 -28.5q49 -120 107 -221h20q58 101 107 221q8 21 16 28.5t20 7.5q33 0 66.5 -16t33.5 -35q0 -14 -13 -40
q-24 -52 -66 -123t-83 -130q47 -64 93.5 -143.5t74.5 -143.5q12 -25 12 -40q0 -19 -34.5 -34.5t-66.5 -15.5q-12 0 -19.5 7.5t-15.5 29.5q-50 130 -125 252h-20q-73 -117 -124 -252q-8 -22 -16 -29.5t-20 -7.5q-32 0 -66.5 15.5z" />
    <glyph glyph-name="Y" unicode="Y" 
d="M241 20q0 106 7 245q-117 166 -195 371q-6 17 -6 26q0 17 31 30.5t66 13.5q18 0 27 -8t14 -26q48 -150 117 -280h16q69 130 117 280q5 18 14 26t27 8q35 0 66 -13.5t31 -30.5q0 -9 -6 -26q-76 -205 -195 -371q7 -139 7 -245q0 -28 -69 -28t-69 28z" />
    <glyph glyph-name="Z" unicode="Z" 
d="M57 14.5q-8 14.5 -8 45.5t7.5 50t27.5 48q98 141 161.5 228t134.5 174v15q-160 -7 -286 -7q-25 0 -25 65q0 64 25 64h423q17 0 24.5 -15t7.5 -46q0 -30 -7.5 -49.5t-27.5 -47.5q-90 -131 -156.5 -222.5t-139.5 -179.5v-15q174 7 327 7q25 0 25 -65q0 -64 -25 -64h-464
q-16 0 -24 14.5z" />
    <glyph glyph-name="a" unicode="a" 
d="M476 2q-40 16 -87 46q-77 -59 -170 -59q-77 0 -118 41t-41 114q0 79 50 122t152 43q61 0 124 -15v16q0 68 -20.5 94.5t-72.5 26.5q-35 0 -73 -8.5t-70 -22.5q-7 -3 -14 -3q-20 0 -32.5 23.5t-12.5 49.5q0 14 5.5 21t19.5 14q41 17 94.5 28.5t105.5 11.5q103 0 153 -51
t50 -168q0 -97 -23 -195q40 -8 58 -14.5t23 -13t5 -17.5q0 -34 -14 -67t-32 -33q-20 0 -60 16zM268 92q49 0 102 25q10 76 12 105q-38 7 -78 7q-62 0 -85.5 -16t-23.5 -51q0 -70 73 -70z" />
    <glyph glyph-name="b" unicode="b" 
d="M147 6.5q-66 18.5 -66 52.5v421q0 83 -3 197q-1 14 -1 29t14.5 21.5t52.5 6.5q37 0 52 -6.5t15 -21.5q0 -171 -5 -245h17q38 41 84 62t91 21q81 0 123.5 -64.5t42.5 -189.5q0 -152 -68 -227t-207 -75q-76 0 -142 18.5zM293 102q73 0 105.5 41t32.5 131q0 144 -91 144
q-30 0 -65 -15t-64 -41q3 -60 3 -121q0 -64 -3 -129q35 -10 82 -10z" />
    <glyph glyph-name="c" unicode="c" 
d="M136.5 48q-59.5 60 -59.5 200q0 145 69.5 220.5t200.5 75.5q56 0 100.5 -13t65.5 -35q16 -16 25 -54.5t9 -72.5q0 -19 -27.5 -29.5t-65.5 -10.5q-16 0 -23 4.5t-10 18.5q-1 6 -8 54q-12 8 -32.5 13t-43.5 5q-63 0 -95 -41.5t-32 -123.5q0 -80 29.5 -112.5t92.5 -32.5
q76 0 155 36q6 3 12 3q21 0 35 -30.5t14 -57.5q0 -12 -6 -20t-21 -15q-39 -18 -93.5 -30t-113.5 -12q-118 0 -177.5 60z" />
    <glyph glyph-name="d" unicode="d" 
d="M98.5 52.5q-42.5 64.5 -42.5 189.5q0 152 63.5 227t193.5 75q56 0 99 -12q-3 50 -3 174q0 15 14.5 21.5t52.5 6.5q37 0 51.5 -6.5t14.5 -21.5t-1 -29q0 -26 -1 -73.5t-1 -123.5v-237q0 -82 3 -196q1 -15 1 -31q0 -14 -14.5 -20.5t-52.5 -6.5q-37 0 -51.5 6.5t-14.5 20.5
q0 7 4 55h-16q-39 -41 -84 -62t-91 -21q-82 0 -124.5 64.5zM280 114q30 0 64.5 16t64.5 44q-3 57 -3 114q0 73 4 130q-34 12 -88 12q-70 0 -101 -41t-31 -131q0 -144 90 -144z" />
    <glyph glyph-name="e" unicode="e" 
d="M123 50q-61 62 -61 190q0 147 72 225.5t205 78.5q109 0 164 -53t55 -149q0 -47 -14.5 -73t-48.5 -31q-81 -12 -182 -12q-68 0 -117 5q3 -70 33.5 -99.5t100.5 -29.5q41 0 81 9t86 28l8 2q19 0 32 -28.5t13 -54.5q0 -10 -4.5 -16.5t-18.5 -12.5q-39 -18 -94 -29.5
t-116 -11.5q-133 0 -194 62zM275 310q81 0 151 9q4 12 4 33q0 91 -98 91q-57 0 -89.5 -32.5t-42.5 -98.5q25 -2 75 -2z" />
    <glyph glyph-name="f" unicode="f" 
d="M202.5 -1.5q-14.5 6.5 -14.5 21.5q0 153 7 346q-63 -6 -120 -6q-13 0 -19 13.5t-6 48.5t6 49t19 14q56 0 116 -6q-5 38 -5 69q0 67 26.5 108t93.5 61.5t188 20.5q15 0 22 -15.5t7 -48.5q0 -53 -25 -53q-80 0 -120.5 -10t-54.5 -30.5t-14 -59.5q0 -14 2 -42q109 6 208 6
q13 0 19.5 -14t6.5 -49t-6.5 -48.5t-19.5 -13.5q-97 0 -205 6q7 -192 7 -346q0 -15 -14.5 -21.5t-52.5 -6.5q-37 0 -51.5 6.5z" />
    <glyph glyph-name="g" unicode="g" 
d="M116 -164.5q-58 38.5 -58 103.5q0 66 53 103q-14 14 -23 33.5t-9 43.5q0 27 12.5 51.5t34.5 43.5q-28 27 -43.5 66.5t-15.5 83.5q0 87 59.5 132.5t173.5 45.5q91 0 145 -27q73 58 97 58q17 0 27.5 -24.5t10.5 -53.5q0 -15 -3.5 -22t-13.5 -10q-12 -4 -66 -18
q20 -37 20 -89q0 -81 -58.5 -128.5t-163.5 -47.5q-57 0 -91 10q-16 -22 -16 -44q0 -17 8 -28q34 -7 142 -11q20 0 60 -2q168 -10 168 -137q0 -80 -66.5 -125.5t-200.5 -45.5q-125 0 -183 38.5zM207.5 -93q29.5 -17 104.5 -17q128 0 128 64q0 23 -17 34.5t-49 13.5
q-51 4 -85 5q-70 4 -91 8q-20 -22 -20 -55q0 -36 29.5 -53zM198 315q5 -21 14 -33q30 -9 76 -9q55 0 81.5 23.5t26.5 71.5q0 36 -9 63q-34 12 -79 12q-58 0 -86.5 -20.5t-28.5 -64.5q0 -22 5 -43z" />
    <glyph glyph-name="h" unicode="h" 
d="M421 -0.5q-15 7.5 -13 26.5q10 103 10 204q0 81 -7 117q-6 37 -26 53.5t-55 16.5q-73 0 -124 -54q7 -190 7 -343q0 -15 -14.5 -21.5t-52.5 -6.5q-37 0 -52 6.5t-15 21.5v354q0 110 -3 284q-1 24 -1 49q0 15 14.5 21t52.5 6t52.5 -6t14.5 -21q0 -136 -8 -247h17
q65 84 165 84q134 0 159 -145q9 -55 9 -143q0 -115 -10 -236q-2 -15 -15.5 -21.5t-50.5 -6.5q-39 0 -54 7.5z" />
    <glyph glyph-name="i" unicode="i" 
d="M111.5 14q-6.5 14 -6.5 49t6.5 48.5t19.5 13.5q62 0 127 -7q-4 65 -4 142q0 78 4 142q-59 -7 -109 -7q-13 0 -19 13.5t-6 49.5q0 35 6 49t19 14h204q19 0 26.5 -7.5t7.5 -27.5q0 -92 -1 -189t-6 -179q73 7 130 7q13 0 19 -13.5t6 -48.5q0 -36 -6 -49.5t-19 -13.5h-379
q-13 0 -19.5 14zM230.5 646.5q-22.5 17.5 -22.5 58.5t22.5 58.5t79.5 17.5t79.5 -17.5t22.5 -58.5t-22.5 -58.5t-79.5 -17.5t-79.5 17.5z" />
    <glyph glyph-name="j" unicode="j" 
d="M98 -179q-10 26 -10 61q0 23 5.5 32t19.5 10q72 8 114.5 24t64.5 47t27 85q9 78 9 183q0 56 -4 138q-114 -6 -215 -6q-13 0 -19 14t-6 49t6 49t19 14h304q22 0 31 -9t10 -32q8 -98 8 -216q0 -111 -10 -207q-14 -125 -92.5 -183.5t-228.5 -75.5q-23 -3 -33 23z
M271.5 646.5q-22.5 17.5 -22.5 58.5t22.5 58.5t79.5 17.5t79.5 -17.5t22.5 -58.5t-22.5 -58.5t-79.5 -17.5t-79.5 17.5z" />
    <glyph glyph-name="k" unicode="k" 
d="M428.5 -4q-6.5 5 -13.5 19q-60 105 -153 197q-31 -6 -54 -7q11 -107 11 -185q0 -15 -14.5 -21.5t-52.5 -6.5q-37 0 -52 6.5t-15 21.5v354q0 110 -3 284q-1 24 -1 49q0 14 15 20.5t52 6.5q38 0 52.5 -6.5t14.5 -20.5q0 -155 -8 -378q36 4 55 8q69 76 132 179q8 14 15 19
t18 5q38 0 76.5 -13.5t38.5 -30.5q0 -8 -13 -30q-30 -44 -74 -96t-90 -92q54 -44 103.5 -102.5t82.5 -111.5q12 -20 12 -30q0 -17 -39.5 -30t-77.5 -13q-11 0 -17.5 5z" />
    <glyph glyph-name="l" unicode="l" 
d="M287 10.5q-42 22.5 -61.5 79.5t-19.5 165q0 169 7 351q-82 -6 -146 -6q-13 0 -19 14t-6 49q0 34 6 48t19 14h238q23 0 31.5 -8.5t8.5 -31.5q-6 -174 -6 -390q0 -75 9 -114t28.5 -53t55.5 -14q40 0 80 19q6 2 9 2q18 0 31 -27.5t13 -55.5q0 -12 -4 -19.5t-14 -13.5
q-25 -13 -62.5 -22t-80.5 -9q-75 0 -117 22.5z" />
    <glyph glyph-name="m" unicode="m" 
d="M457 -1q-14 7 -13 21q10 111 10 218q0 60 -3 108q-3 41 -12.5 56.5t-28.5 15.5q-33 0 -55 -34q2 -88 2 -142q0 -116 -7 -222q-1 -15 -11 -21.5t-34 -6.5q-46 0 -45 28q7 109 7 218q0 76 -3 108q-2 41 -11.5 56.5t-28.5 15.5q-34 0 -59 -39q7 -166 7 -359q0 -28 -58 -28
t-58 28v298q0 88 -2 141t-2 59q0 21 57 21t57 -21q0 -15 -5 -42h17q36 68 97 68q30 0 48 -16.5t27 -53.5h15q22 36 47.5 53t57.5 17q44 0 66.5 -32.5t27.5 -102.5q5 -65 5 -167q0 -95 -10 -222q-1 -15 -14.5 -21.5t-43.5 -6.5t-44 7z" />
    <glyph glyph-name="n" unicode="n" 
d="M421 -0.5q-15 7.5 -13 26.5q10 103 10 204q0 81 -7 117q-6 37 -26 53.5t-55 16.5q-71 0 -124 -53q7 -191 7 -344q0 -15 -14.5 -21.5t-52.5 -6.5q-37 0 -52 6.5t-15 21.5v354q0 43 -3 118l-1 20q0 15 14.5 21t51.5 6t51.5 -6t14.5 -21q0 -20 -4 -51h16q65 83 164 83
q134 0 159 -145q9 -55 9 -143q0 -115 -10 -236q-2 -15 -15.5 -21.5t-50.5 -6.5q-39 0 -54 7.5z" />
    <glyph glyph-name="o" unicode="o" 
d="M117.5 52.5q-61.5 64.5 -61.5 190.5q0 149 67.5 225t199.5 76q118 0 179.5 -64.5t61.5 -189.5q0 -150 -67.5 -226t-199.5 -76q-118 0 -179.5 64.5zM216 137.5q27 -35.5 87 -35.5q67 0 97.5 42.5t30.5 136.5q0 79 -27 114t-87 35q-67 0 -97.5 -42.5t-30.5 -136.5
q0 -78 27 -113.5z" />
    <glyph glyph-name="p" unicode="p" 
d="M208 0q3 -76 3 -173q0 -15 -14.5 -21.5t-52.5 -6.5q-37 0 -51.5 6.5t-14.5 21.5t1 29q0 26 1 73.5t1 123.5v256q0 73 -3 178q-1 14 -1 29q0 14 14.5 20.5t52.5 6.5q37 0 52 -6.5t15 -20.5q0 -22 -5 -55h16q38 41 84.5 62t91.5 21q81 0 123.5 -64.5t42.5 -189.5
q0 -152 -63.5 -227t-193.5 -75q-55 0 -99 12zM298 102q70 0 101.5 41t31.5 131q0 144 -91 144q-31 0 -65 -15.5t-63 -44.5q2 -38 2 -114q0 -65 -3 -130q35 -12 87 -12z" />
    <glyph glyph-name="q" unicode="q" 
d="M423.5 -194.5q-14.5 6.5 -14.5 21.5q0 135 4 241h-11q-39 -39 -86 -59.5t-93 -20.5q-82 0 -124.5 64.5t-42.5 189.5q0 152 68 227t207 75q73 0 140.5 -16.5t67.5 -42.5v-424q0 -78 1 -127t1 -76q1 -15 1 -31q0 -15 -14 -21.5t-52 -6.5t-52.5 6.5zM280 114q30 0 65 14.5
t64 40.5q-3 62 -3 126t3 125q-35 10 -81 10q-73 0 -106 -41t-33 -131q0 -144 91 -144z" />
    <glyph glyph-name="r" unicode="r" 
d="M123.5 -1q-14.5 6 -14.5 21v323q-44 131 -44 154q0 18 37 31.5t66 13.5q13 0 19.5 -4t10.5 -15q12 -33 26 -113h10q77 134 203 134q29 0 55.5 -7.5t38.5 -19.5q15 -16 28 -73.5t13 -105.5q0 -20 -25 -29t-64 -9q-24 0 -33.5 4.5t-12.5 15.5q-10 61 -13 93q-12 2 -18 2
q-108 0 -171 -137q7 -129 7 -258q0 -15 -14 -21t-52 -6t-52.5 6z" />
    <glyph glyph-name="s" unicode="s" 
d="M197.5 -2.5q-51.5 9.5 -85.5 25.5q-13 6 -17.5 12.5t-4.5 16.5q0 29 15.5 57.5t34.5 20.5q86 -35 168 -35q50 0 73 14t23 42q0 25 -20.5 37.5t-77.5 21.5q-70 11 -113 26t-69.5 48t-26.5 91q0 85 59 127.5t168 42.5q101 0 172 -34q13 -6 17.5 -12.5t4.5 -15.5
q0 -27 -13 -53.5t-32 -26.5q-3 0 -9 2q-80 35 -149 35q-46 0 -67 -14t-21 -42q0 -27 21 -38t75 -19q112 -19 161.5 -57t49.5 -112q0 -86 -59 -128t-171 -42q-55 0 -106.5 9.5z" />
    <glyph glyph-name="t" unicode="t" 
d="M227 25.5q-41 37.5 -53 120.5q-9 66 -9 143q0 69 7 124q-58 -6 -111 -6q-13 0 -19.5 13.5t-6.5 48.5t6.5 49t19.5 14q54 0 112 -6q-1 17 -1 50q0 47 3 92q2 14 16 20.5t51 6.5q39 0 53.5 -7.5t12.5 -26.5l-1 -23q-4 -77 -9 -112q100 6 216 6q13 0 19.5 -14t6.5 -49
t-6.5 -48.5t-19.5 -13.5q-117 0 -219 7l3 -73q2 -98 7 -143q5 -48 22.5 -66t58.5 -18q55 0 119 21q20 6 32.5 -25t12.5 -58q0 -13 -4 -20.5t-14 -11.5q-38 -15 -85.5 -23.5t-91.5 -8.5q-87 0 -128 37.5z" />
    <glyph glyph-name="u" unicode="u" 
d="M199 532.5q15 -7.5 13 -26.5q-10 -103 -10 -204q0 -81 7 -117q6 -37 26 -53.5t55 -16.5q71 0 124 53q-7 191 -7 344q0 15 14.5 21.5t52.5 6.5q37 0 52 -6.5t15 -21.5v-354q0 -43 3 -118l1 -20q0 -15 -14.5 -21t-51.5 -6t-51.5 6t-14.5 21q0 20 4 51h-16q-65 -83 -164 -83
q-134 0 -159 145q-9 56 -9 143q0 115 10 236q2 15 15.5 21.5t50.5 6.5q39 0 54 -7.5z" />
    <glyph glyph-name="v" unicode="v" 
d="M238 1.5q-21 7.5 -27 25.5q-96 232 -144 456q-5 27 -5 30q0 14 15.5 20t50.5 6q37 0 51.5 -6t17.5 -22q37 -207 105 -399h16q68 192 105 399q3 16 18 22t51 6q35 0 50.5 -6t15.5 -20q0 -3 -5 -30q-44 -214 -143 -456q-7 -18 -28 -25.5t-72 -7.5t-72 7.5z" />
    <glyph glyph-name="w" unicode="w" 
d="M126.5 4.5q-13.5 10.5 -20.5 45.5q-20 85 -36.5 201.5t-22.5 216.5l-2 44q0 14 14.5 21t47.5 7t46.5 -6.5t13.5 -22.5q0 -199 25 -394h16q37 79 55 158q-7 89 -7 112q0 17 13 25t41 8t41 -8t13 -25q0 -23 -7 -112q18 -79 55 -158h16q25 195 25 394q0 16 13.5 22.5
t46.5 6.5t47.5 -7t14.5 -21l-2 -44q-6 -100 -22.5 -216.5t-36.5 -201.5q-7 -35 -20.5 -45.5t-51.5 -10.5q-39 0 -53.5 9.5t-23.5 38.5q-31 82 -47 171h-16q-16 -89 -47 -171q-9 -29 -23.5 -38.5t-53.5 -9.5q-38 0 -51.5 10.5z" />
    <glyph glyph-name="x" unicode="x" 
d="M435 -3.5q-7 5.5 -12 18.5q-39 90 -102 186h-22q-63 -96 -102 -186q-5 -13 -12 -18.5t-18 -5.5q-36 0 -73 13t-37 30q0 11 10 30q27 50 67.5 109t80.5 105q-35 43 -71 96.5t-60 94.5q-11 18 -11 30q0 17 36.5 30.5t72.5 13.5q11 0 18 -5.5t13 -18.5q41 -88 86 -162h22
q45 74 86 162q6 13 13 18.5t18 5.5q36 0 72.5 -13.5t36.5 -30.5q0 -12 -11 -30q-24 -41 -60 -94.5t-71 -96.5q41 -47 82 -106t66 -108q10 -19 10 -30q0 -17 -37 -30t-73 -13q-11 0 -18 5.5z" />
    <glyph glyph-name="y" unicode="y" 
d="M88 -172q-16 32 -16 63q0 14 6.5 21t24.5 13q50 18 99.5 47t88.5 64l-3 11q-13 -4 -27 -4q-13 0 -23 9t-24 33q-42 74 -90.5 183t-72.5 185q-9 31 -9 45q0 19 34 32.5t67 13.5q18 0 26 -7.5t13 -28.5q22 -82 57.5 -176.5t77.5 -183.5h19q36 79 63.5 178.5t38.5 182.5
q2 20 13.5 27.5t41.5 7.5q41 0 62.5 -10t21.5 -27q0 -3 -4 -33q-15 -95 -54 -212t-88 -206q-98 -178 -248 -244q-39 -16 -57 -16q-22 0 -38 32z" />
    <glyph glyph-name="z" unicode="z" 
d="M80.5 13.5q-6.5 13.5 -6.5 44.5q0 25 7 41.5t35 47.5q139 160 242 259v14q-125 -7 -239 -7q-25 0 -25 59q0 60 25 60h374q18 0 25 -14.5t7 -49.5q0 -21 -7 -37.5t-34 -45.5q-123 -145 -243 -259v-14q141 7 279 7q26 0 26 -59q0 -60 -26 -60h-414q-19 0 -25.5 13.5z" />
    <glyph glyph-name="uni00A0" unicode="&#xa0;" 
 />
    <glyph glyph-name="Agrave" unicode="&#xc0;" 
d="M54.5 -2q-16.5 6 -16.5 19q0 4 5 42q54 306 159 606q8 23 30 32t78 9q57 0 79 -9t29 -32q105 -300 159 -606q5 -38 5 -42q0 -13 -16.5 -19t-53.5 -6q-35 0 -49.5 6t-17.5 25q-15 80 -22 145q-63 -5 -113 -5t-113 5q-7 -65 -22 -145q-3 -19 -17.5 -25t-49.5 -6
q-37 0 -53.5 6zM310 279q49 0 98 -3q-17 58 -33 122q-45 162 -56 197h-18q-11 -35 -56 -197q-16 -64 -33 -122q50 3 98 3zM136 893q-4 5 -4 11q0 13 15 30t36 29t38 12q12 0 19 -7l157 -148l7 -7t6.5 -8t1.5 -6q0 -14 -21 -31.5t-39 -17.5q-9 0 -14 4l-186 127q-12 7 -16 12
z" />
    <glyph glyph-name="Aacute" unicode="&#xc1;" 
d="M54.5 -2q-16.5 6 -16.5 19q0 4 5 42q54 306 159 606q8 23 30 32t78 9q57 0 79 -9t29 -32q105 -300 159 -606q5 -38 5 -42q0 -13 -16.5 -19t-53.5 -6q-35 0 -49.5 6t-17.5 25q-15 80 -22 145q-63 -5 -113 -5t-113 5q-7 -65 -22 -145q-3 -19 -17.5 -25t-49.5 -6
q-37 0 -53.5 6zM310 279q49 0 98 -3q-17 58 -33 122q-45 162 -56 197h-18q-11 -35 -56 -197q-16 -64 -33 -122q50 3 98 3zM230 750q-18 0 -38.5 17t-20.5 32q0 5 3.5 9.5t10.5 11.5l157 148q7 7 19 7q17 0 38 -12t36 -29t15 -30q0 -6 -4 -11t-16 -12l-186 -127q-5 -4 -14 -4
z" />
    <glyph glyph-name="Acircumflex" unicode="&#xc2;" 
d="M54.5 -2q-16.5 6 -16.5 19q0 4 5 42q54 306 159 606q8 23 30 32t78 9q57 0 79 -9t29 -32q105 -300 159 -606q5 -38 5 -42q0 -13 -16.5 -19t-53.5 -6q-35 0 -49.5 6t-17.5 25q-15 80 -22 145q-63 -5 -113 -5t-113 5q-7 -65 -22 -145q-3 -19 -17.5 -25t-49.5 -6
q-37 0 -53.5 6zM310 279q49 0 98 -3q-17 58 -33 122q-45 162 -56 197h-18q-11 -35 -56 -197q-16 -64 -33 -122q50 3 98 3zM519 797q0 -15 -21 -30.5t-41 -15.5q-10 0 -18 6l-128 112l-128 -112q-7 -6 -18 -6q-20 0 -41 15.5t-21 30.5q0 4 11 15l129 136q9 10 28 15.5t40 5.5
q22 0 40.5 -5.5t27.5 -15.5l129 -136q11 -10 11 -15z" />
    <glyph glyph-name="Atilde" unicode="&#xc3;" 
d="M54.5 -2q-16.5 6 -16.5 19q0 4 5 42q54 306 159 606q8 23 30 32t78 9q57 0 79 -9t29 -32q105 -300 159 -606q5 -38 5 -42q0 -13 -16.5 -19t-53.5 -6q-35 0 -49.5 6t-17.5 25q-15 80 -22 145q-63 -5 -113 -5t-113 5q-7 -65 -22 -145q-3 -19 -17.5 -25t-49.5 -6
q-37 0 -53.5 6zM310 279q49 0 98 -3q-17 58 -33 122q-45 162 -56 197h-18q-11 -35 -56 -197q-16 -64 -33 -122q50 3 98 3zM339.5 780q-29.5 18 -62.5 50q-21 20 -34 29t-26 9q-19 0 -31 -22.5t-19 -68.5q-1 -9 -13.5 -14t-30.5 -5q-23 0 -41 7t-17 19q7 93 45 139.5t99 46.5
q42 0 71.5 -18t62.5 -50q22 -21 34.5 -30t26.5 -9q19 0 31 22.5t19 68.5q1 10 14 15t31 5q23 0 40.5 -7.5t16.5 -19.5q-6 -93 -44.5 -139t-100.5 -46q-42 0 -71.5 18z" />
    <glyph glyph-name="Adieresis" unicode="&#xc4;" 
d="M54.5 -2q-16.5 6 -16.5 19q0 4 5 42q54 306 159 606q8 23 30 32t78 9q57 0 79 -9t29 -32q105 -300 159 -606q5 -38 5 -42q0 -13 -16.5 -19t-53.5 -6q-35 0 -49.5 6t-17.5 25q-15 80 -22 145q-63 -5 -113 -5t-113 5q-7 -65 -22 -145q-3 -19 -17.5 -25t-49.5 -6
q-37 0 -53.5 6zM310 279q49 0 98 -3q-17 58 -33 122q-45 162 -56 197h-18q-11 -35 -56 -197q-16 -64 -33 -122q50 3 98 3zM105 789.5q-20 15.5 -20 52.5q0 36 20 51.5t73 15.5t73.5 -15.5t20.5 -51.5q0 -37 -20.5 -52.5t-73.5 -15.5t-73 15.5zM369.5 893.5
q20.5 15.5 72.5 15.5q53 0 73.5 -15.5t20.5 -51.5q0 -37 -20.5 -52.5t-73.5 -15.5q-52 0 -72.5 15.5t-20.5 52.5q0 36 20.5 51.5z" />
    <glyph glyph-name="Aring" unicode="&#xc5;" 
d="M54.5 -2q-16.5 6 -16.5 19q0 4 5 42q54 306 159 606q8 23 30 32t78 9q57 0 79 -9t29 -32q105 -300 159 -606q5 -38 5 -42q0 -13 -16.5 -19t-53.5 -6q-35 0 -49.5 6t-17.5 25q-15 80 -22 145q-63 -5 -113 -5t-113 5q-7 -65 -22 -145q-3 -19 -17.5 -25t-49.5 -6
q-37 0 -53.5 6zM310 279q49 0 98 -3q-17 58 -33 122q-45 162 -56 197h-18q-11 -35 -56 -197q-16 -64 -33 -122q50 3 98 3zM199.5 787q-43.5 38 -43.5 97q0 38 20 69t55 48.5t79 17.5t79.5 -17.5t55.5 -48.5t20 -69q0 -58 -44 -96.5t-111 -38.5t-110.5 38zM252.5 835.5
q22.5 -18.5 57.5 -18.5t57.5 18.5t22.5 48.5q0 29 -22.5 47.5t-57.5 18.5t-57.5 -18.5t-22.5 -47.5q0 -30 22.5 -48.5z" />
    <glyph glyph-name="AE" unicode="&#xc6;" 
d="M42 -2q-14 6 -14 19q0 15 4 35q55 283 160 604q7 22 25.5 31.5t59.5 9.5h271q14 0 19.5 -12.5t5.5 -45.5q0 -34 -6 -46.5t-19 -12.5q-75 0 -149 5q4 -39 4 -89q0 -49 -4 -89q65 6 119 6q13 0 19 -13.5t6 -45.5q0 -34 -6 -46t-19 -12q-54 0 -119 5q4 -41 4 -94
q0 -52 -4 -95q76 5 155 5q12 0 18 -13t6 -46t-5.5 -45.5t-18.5 -12.5h-220q-21 0 -29 8.5t-8 28.5q0 72 6 129q-33 -3 -66 -3t-68 3q-6 -48 -26 -152q-2 -12 -14.5 -17t-40.5 -5q-32 0 -46 6zM248 279q28 0 55 -3q-6 122 -6 304h-19l-42 -148q-10 -33 -20.5 -72t-24.5 -84
q29 3 57 3z" />
    <glyph glyph-name="Ccedilla" unicode="&#xc7;" 
d="M134 610.5q78 97.5 224 97.5q62 0 109 -16t66 -41q12 -14 21 -63.5t9 -79.5q0 -23 -29 -34.5t-65 -11.5q-18 0 -25 5.5t-9 22.5q-6 39 -9 78q-12 8 -33 12.5t-44 4.5q-157 0 -157 -246q0 -83 16.5 -132t49.5 -69.5t85 -20.5q76 0 167 44q6 2 9 2q19 0 33.5 -32.5
t14.5 -59.5q0 -20 -17 -28q-35 -20 -83 -34t-98 -18l-1 -8l-30 -160q-1 -12 -15.5 -18t-34.5 -6q-26 0 -47.5 9t-21.5 23q0 8 7 27l53 134q-111 13 -167 92.5t-56 243.5q0 185 78 282.5z" />
    <glyph glyph-name="Egrave" unicode="&#xc8;" 
d="M116 11.5q-11 11.5 -11 31.5v323q0 91 6 131t20 64v16q-24 -3 -36 -3q-13 0 -19 13.5t-6 48.5q0 34 6 47.5t19 13.5h424q13 0 19 -13.5t6 -47.5q0 -35 -6 -48.5t-19 -13.5q-127 0 -281 7q4 -40 4 -86t-4 -86q141 6 242 6q13 0 19 -13.5t6 -45.5q0 -34 -6 -46t-19 -12
q-101 0 -242 5q4 -41 4 -93q0 -50 -4 -94q156 7 286 7q13 0 18.5 -13.5t5.5 -48.5t-5.5 -48t-18.5 -13h-376q-21 0 -32 11.5zM136 893q-4 5 -4 11q0 13 15 30t36 29t38 12q12 0 19 -7l157 -148l7 -7t6.5 -8t1.5 -6q0 -14 -21 -31.5t-39 -17.5q-9 0 -14 4l-186 127
q-12 7 -16 12z" />
    <glyph glyph-name="Eacute" unicode="&#xc9;" 
d="M116 11.5q-11 11.5 -11 31.5v323q0 91 6 131t20 64v16q-24 -3 -36 -3q-13 0 -19 13.5t-6 48.5q0 34 6 47.5t19 13.5h424q13 0 19 -13.5t6 -47.5q0 -35 -6 -48.5t-19 -13.5q-127 0 -281 7q4 -40 4 -86t-4 -86q141 6 242 6q13 0 19 -13.5t6 -45.5q0 -34 -6 -46t-19 -12
q-101 0 -242 5q4 -41 4 -93q0 -50 -4 -94q156 7 286 7q13 0 18.5 -13.5t5.5 -48.5t-5.5 -48t-18.5 -13h-376q-21 0 -32 11.5zM230 750q-18 0 -38.5 17t-20.5 32q0 5 3.5 9.5t10.5 11.5l157 148q7 7 19 7q17 0 38 -12t36 -29t15 -30q0 -6 -4 -11t-16 -12l-186 -127
q-5 -4 -14 -4z" />
    <glyph glyph-name="Ecircumflex" unicode="&#xca;" 
d="M116 11.5q-11 11.5 -11 31.5v323q0 91 6 131t20 64v16q-24 -3 -36 -3q-13 0 -19 13.5t-6 48.5q0 34 6 47.5t19 13.5h424q13 0 19 -13.5t6 -47.5q0 -35 -6 -48.5t-19 -13.5q-127 0 -281 7q4 -40 4 -86t-4 -86q141 6 242 6q13 0 19 -13.5t6 -45.5q0 -34 -6 -46t-19 -12
q-101 0 -242 5q4 -41 4 -93q0 -50 -4 -94q156 7 286 7q13 0 18.5 -13.5t5.5 -48.5t-5.5 -48t-18.5 -13h-376q-21 0 -32 11.5zM519 797q0 -15 -21 -30.5t-41 -15.5q-10 0 -18 6l-128 112l-128 -112q-7 -6 -18 -6q-20 0 -41 15.5t-21 30.5q0 4 11 15l129 136q9 10 28 15.5
t40 5.5q22 0 40.5 -5.5t27.5 -15.5l129 -136q11 -10 11 -15z" />
    <glyph glyph-name="Edieresis" unicode="&#xcb;" 
d="M116 11.5q-11 11.5 -11 31.5v323q0 91 6 131t20 64v16q-24 -3 -36 -3q-13 0 -19 13.5t-6 48.5q0 34 6 47.5t19 13.5h424q13 0 19 -13.5t6 -47.5q0 -35 -6 -48.5t-19 -13.5q-127 0 -281 7q4 -40 4 -86t-4 -86q141 6 242 6q13 0 19 -13.5t6 -45.5q0 -34 -6 -46t-19 -12
q-101 0 -242 5q4 -41 4 -93q0 -50 -4 -94q156 7 286 7q13 0 18.5 -13.5t5.5 -48.5t-5.5 -48t-18.5 -13h-376q-21 0 -32 11.5zM105 789.5q-20 15.5 -20 52.5q0 36 20 51.5t73 15.5t73.5 -15.5t20.5 -51.5q0 -37 -20.5 -52.5t-73.5 -15.5t-73 15.5zM369.5 893.5
q20.5 15.5 72.5 15.5q53 0 73.5 -15.5t20.5 -51.5q0 -37 -20.5 -52.5t-73.5 -15.5q-52 0 -72.5 15.5t-20.5 52.5q0 36 20.5 51.5z" />
    <glyph glyph-name="Igrave" unicode="&#xcc;" 
d="M113 14.5q-6 14.5 -6 49.5q0 37 6 51t19 14q50 0 113 -7q-4 154 -4 225q0 70 4 228q-63 -7 -113 -7q-13 0 -19 14t-6 51q0 35 6 49.5t19 14.5h356q13 0 19 -14.5t6 -49.5q0 -37 -6 -51t-19 -14q-50 0 -113 7q4 -105 4 -228q0 -122 -4 -225q63 7 113 7q13 0 19 -14t6 -51
q0 -35 -6 -49.5t-19 -14.5h-356q-13 0 -19 14.5zM136 893q-4 5 -4 11q0 13 15 30t36 29t38 12q12 0 19 -7l157 -148l7 -7t6.5 -8t1.5 -6q0 -14 -21 -31.5t-39 -17.5q-9 0 -14 4l-186 127q-12 7 -16 12z" />
    <glyph glyph-name="Iacute" unicode="&#xcd;" 
d="M113 14.5q-6 14.5 -6 49.5q0 37 6 51t19 14q50 0 113 -7q-4 154 -4 225q0 70 4 228q-63 -7 -113 -7q-13 0 -19 14t-6 51q0 35 6 49.5t19 14.5h356q13 0 19 -14.5t6 -49.5q0 -37 -6 -51t-19 -14q-50 0 -113 7q4 -105 4 -228q0 -122 -4 -225q63 7 113 7q13 0 19 -14t6 -51
q0 -35 -6 -49.5t-19 -14.5h-356q-13 0 -19 14.5zM230 750q-18 0 -38.5 17t-20.5 32q0 5 3.5 9.5t10.5 11.5l157 148q7 7 19 7q17 0 38 -12t36 -29t15 -30q0 -6 -4 -11t-16 -12l-186 -127q-5 -4 -14 -4z" />
    <glyph glyph-name="Icircumflex" unicode="&#xce;" 
d="M113 14.5q-6 14.5 -6 49.5q0 37 6 51t19 14q50 0 113 -7q-4 154 -4 225q0 70 4 228q-63 -7 -113 -7q-13 0 -19 14t-6 51q0 35 6 49.5t19 14.5h356q13 0 19 -14.5t6 -49.5q0 -37 -6 -51t-19 -14q-50 0 -113 7q4 -105 4 -228q0 -122 -4 -225q63 7 113 7q13 0 19 -14t6 -51
q0 -35 -6 -49.5t-19 -14.5h-356q-13 0 -19 14.5zM519 797q0 -15 -21 -30.5t-41 -15.5q-10 0 -18 6l-128 112l-128 -112q-7 -6 -18 -6q-20 0 -41 15.5t-21 30.5q0 4 11 15l129 136q9 10 28 15.5t40 5.5q22 0 40.5 -5.5t27.5 -15.5l129 -136q11 -10 11 -15z" />
    <glyph glyph-name="Ntilde" unicode="&#xd1;" 
d="M76 -1.5q-15 6.5 -15 21.5v650q0 19 21 27t70 8q45 0 61.5 -9.5t27.5 -38.5q125 -314 190 -514h16q-11 100 -18.5 264.5t-7.5 269.5q0 28 69 28q39 0 54 -6.5t15 -21.5v-650q0 -19 -21 -27t-70 -8q-44 0 -61 9t-28 39q-126 320 -190 514h-16q11 -100 18.5 -264.5
t7.5 -269.5q0 -15 -15.5 -21.5t-53.5 -6.5q-39 0 -54 6.5zM339.5 780q-29.5 18 -62.5 50q-21 20 -34 29t-26 9q-19 0 -31 -22.5t-19 -68.5q-1 -9 -13.5 -14t-30.5 -5q-23 0 -41 7t-17 19q7 93 45 139.5t99 46.5q42 0 71.5 -18t62.5 -50q22 -21 34.5 -30t26.5 -9
q19 0 31 22.5t19 68.5q1 10 14 15t31 5q23 0 40.5 -7.5t16.5 -19.5q-6 -93 -44.5 -139t-100.5 -46q-42 0 -71.5 18z" />
    <glyph glyph-name="Ograve" unicode="&#xd2;" 
d="M100 66.5q-61 78.5 -61 252.5q0 138 29.5 223.5t92 126t163.5 40.5q135 0 196 -78.5t61 -252.5q0 -138 -29.5 -223.5t-92 -126t-162.5 -40.5q-136 0 -197 78.5zM189 199.5q12 -47.5 39 -68t74 -20.5q54 0 84.5 24.5t43.5 79.5t13 153q0 83 -12 130t-39 67.5t-75 20.5
q-53 0 -83.5 -24.5t-43.5 -79.5t-13 -152q0 -83 12 -130.5zM136 893q-4 5 -4 11q0 13 15 30t36 29t38 12q12 0 19 -7l157 -148l7 -7t6.5 -8t1.5 -6q0 -14 -21 -31.5t-39 -17.5q-9 0 -14 4l-186 127q-12 7 -16 12z" />
    <glyph glyph-name="Oacute" unicode="&#xd3;" 
d="M100 66.5q-61 78.5 -61 252.5q0 138 29.5 223.5t92 126t163.5 40.5q135 0 196 -78.5t61 -252.5q0 -138 -29.5 -223.5t-92 -126t-162.5 -40.5q-136 0 -197 78.5zM189 199.5q12 -47.5 39 -68t74 -20.5q54 0 84.5 24.5t43.5 79.5t13 153q0 83 -12 130t-39 67.5t-75 20.5
q-53 0 -83.5 -24.5t-43.5 -79.5t-13 -152q0 -83 12 -130.5zM230 750q-18 0 -38.5 17t-20.5 32q0 5 3.5 9.5t10.5 11.5l157 148q7 7 19 7q17 0 38 -12t36 -29t15 -30q0 -6 -4 -11t-16 -12l-186 -127q-5 -4 -14 -4z" />
    <glyph glyph-name="Ocircumflex" unicode="&#xd4;" 
d="M100 66.5q-61 78.5 -61 252.5q0 138 29.5 223.5t92 126t163.5 40.5q135 0 196 -78.5t61 -252.5q0 -138 -29.5 -223.5t-92 -126t-162.5 -40.5q-136 0 -197 78.5zM189 199.5q12 -47.5 39 -68t74 -20.5q54 0 84.5 24.5t43.5 79.5t13 153q0 83 -12 130t-39 67.5t-75 20.5
q-53 0 -83.5 -24.5t-43.5 -79.5t-13 -152q0 -83 12 -130.5zM519 797q0 -15 -21 -30.5t-41 -15.5q-10 0 -18 6l-128 112l-128 -112q-7 -6 -18 -6q-20 0 -41 15.5t-21 30.5q0 4 11 15l129 136q9 10 28 15.5t40 5.5q22 0 40.5 -5.5t27.5 -15.5l129 -136q11 -10 11 -15z" />
    <glyph glyph-name="Otilde" unicode="&#xd5;" 
d="M100 66.5q-61 78.5 -61 252.5q0 138 29.5 223.5t92 126t163.5 40.5q135 0 196 -78.5t61 -252.5q0 -138 -29.5 -223.5t-92 -126t-162.5 -40.5q-136 0 -197 78.5zM189 199.5q12 -47.5 39 -68t74 -20.5q54 0 84.5 24.5t43.5 79.5t13 153q0 83 -12 130t-39 67.5t-75 20.5
q-53 0 -83.5 -24.5t-43.5 -79.5t-13 -152q0 -83 12 -130.5zM339.5 780q-29.5 18 -62.5 50q-21 20 -34 29t-26 9q-19 0 -31 -22.5t-19 -68.5q-1 -9 -13.5 -14t-30.5 -5q-23 0 -41 7t-17 19q7 93 45 139.5t99 46.5q42 0 71.5 -18t62.5 -50q22 -21 34.5 -30t26.5 -9
q19 0 31 22.5t19 68.5q1 10 14 15t31 5q23 0 40.5 -7.5t16.5 -19.5q-6 -93 -44.5 -139t-100.5 -46q-42 0 -71.5 18z" />
    <glyph glyph-name="Odieresis" unicode="&#xd6;" 
d="M100 66.5q-61 78.5 -61 252.5q0 138 29.5 223.5t92 126t163.5 40.5q135 0 196 -78.5t61 -252.5q0 -138 -29.5 -223.5t-92 -126t-162.5 -40.5q-136 0 -197 78.5zM189 199.5q12 -47.5 39 -68t74 -20.5q54 0 84.5 24.5t43.5 79.5t13 153q0 83 -12 130t-39 67.5t-75 20.5
q-53 0 -83.5 -24.5t-43.5 -79.5t-13 -152q0 -83 12 -130.5zM105 789.5q-20 15.5 -20 52.5q0 36 20 51.5t73 15.5t73.5 -15.5t20.5 -51.5q0 -37 -20.5 -52.5t-73.5 -15.5t-73 15.5zM369.5 893.5q20.5 15.5 72.5 15.5q53 0 73.5 -15.5t20.5 -51.5q0 -37 -20.5 -52.5
t-73.5 -15.5q-52 0 -72.5 15.5t-20.5 52.5q0 36 20.5 51.5z" />
    <glyph glyph-name="Ugrave" unicode="&#xd9;" 
d="M148 36q-58 48 -74 143q-11 72 -11 198q0 135 9 300q2 15 16 21.5t52 6.5q40 0 55 -7.5t13 -26.5q-8 -129 -8 -267q0 -123 5 -173q6 -63 32 -88.5t73 -25.5t73 25.5t32 88.5q6 48 6 173q0 122 -9 267q-2 19 13 26.5t55 7.5q38 0 52 -6.5t16 -21.5q9 -141 9 -300
q0 -126 -11 -198q-31 -191 -236 -191q-104 0 -162 48zM136 893q-4 5 -4 11q0 13 15 30t36 29t38 12q12 0 19 -7l157 -148l7 -7t6.5 -8t1.5 -6q0 -14 -21 -31.5t-39 -17.5q-9 0 -14 4l-186 127q-12 7 -16 12z" />
    <glyph glyph-name="Uacute" unicode="&#xda;" 
d="M148 36q-58 48 -74 143q-11 72 -11 198q0 135 9 300q2 15 16 21.5t52 6.5q40 0 55 -7.5t13 -26.5q-8 -129 -8 -267q0 -123 5 -173q6 -63 32 -88.5t73 -25.5t73 25.5t32 88.5q6 48 6 173q0 122 -9 267q-2 19 13 26.5t55 7.5q38 0 52 -6.5t16 -21.5q9 -141 9 -300
q0 -126 -11 -198q-31 -191 -236 -191q-104 0 -162 48zM230 750q-18 0 -38.5 17t-20.5 32q0 5 3.5 9.5t10.5 11.5l157 148q7 7 19 7q17 0 38 -12t36 -29t15 -30q0 -6 -4 -11t-16 -12l-186 -127q-5 -4 -14 -4z" />
    <glyph glyph-name="Ucircumflex" unicode="&#xdb;" 
d="M148 36q-58 48 -74 143q-11 72 -11 198q0 135 9 300q2 15 16 21.5t52 6.5q40 0 55 -7.5t13 -26.5q-8 -129 -8 -267q0 -123 5 -173q6 -63 32 -88.5t73 -25.5t73 25.5t32 88.5q6 48 6 173q0 122 -9 267q-2 19 13 26.5t55 7.5q38 0 52 -6.5t16 -21.5q9 -141 9 -300
q0 -126 -11 -198q-31 -191 -236 -191q-104 0 -162 48zM519 797q0 -15 -21 -30.5t-41 -15.5q-10 0 -18 6l-128 112l-128 -112q-7 -6 -18 -6q-20 0 -41 15.5t-21 30.5q0 4 11 15l129 136q9 10 28 15.5t40 5.5q22 0 40.5 -5.5t27.5 -15.5l129 -136q11 -10 11 -15z" />
    <glyph glyph-name="Udieresis" unicode="&#xdc;" 
d="M148 36q-58 48 -74 143q-11 72 -11 198q0 135 9 300q2 15 16 21.5t52 6.5q40 0 55 -7.5t13 -26.5q-8 -129 -8 -267q0 -123 5 -173q6 -63 32 -88.5t73 -25.5t73 25.5t32 88.5q6 48 6 173q0 122 -9 267q-2 19 13 26.5t55 7.5q38 0 52 -6.5t16 -21.5q9 -141 9 -300
q0 -126 -11 -198q-31 -191 -236 -191q-104 0 -162 48zM105 789.5q-20 15.5 -20 52.5q0 36 20 51.5t73 15.5t73.5 -15.5t20.5 -51.5q0 -37 -20.5 -52.5t-73.5 -15.5t-73 15.5zM369.5 893.5q20.5 15.5 72.5 15.5q53 0 73.5 -15.5t20.5 -51.5q0 -37 -20.5 -52.5t-73.5 -15.5
q-52 0 -72.5 15.5t-20.5 52.5q0 36 20.5 51.5z" />
    <glyph glyph-name="Yacute" unicode="&#xdd;" 
d="M241 20q0 106 7 245q-117 166 -195 371q-6 17 -6 26q0 17 31 30.5t66 13.5q18 0 27 -8t14 -26q48 -150 117 -280h16q69 130 117 280q5 18 14 26t27 8q35 0 66 -13.5t31 -30.5q0 -9 -6 -26q-76 -205 -195 -371q7 -139 7 -245q0 -28 -69 -28t-69 28zM230 750
q-18 0 -38.5 17t-20.5 32q0 5 3.5 9.5t10.5 11.5l157 148q7 7 19 7q17 0 38 -12t36 -29t15 -30q0 -6 -4 -11t-16 -12l-186 -127q-5 -4 -14 -4z" />
    <glyph glyph-name="germandbls" unicode="&#xdf;" 
d="M293 -2q-12 4 -17.5 12.5t-5.5 27.5q0 27 8 51t25 20q23 -5 45 -5q37 0 56.5 19.5t19.5 56.5q0 45 -29 71t-101 57q-11 5 -16 18t-5 40q0 28 3.5 39t13.5 20q42 36 59.5 62t17.5 58q0 39 -21 59t-63 20q-43 0 -61.5 -24.5t-18.5 -79.5v-500q0 -15 -14.5 -21.5t-52.5 -6.5
q-37 0 -52 6.5t-15 21.5v494q0 224 214 224q97 0 154 -43t57 -124q0 -55 -28.5 -98.5t-86.5 -83.5v-9q99 -40 138.5 -87t39.5 -117q0 -89 -50 -138.5t-139 -49.5q-45 0 -75 10z" />
    <glyph glyph-name="agrave" unicode="&#xe0;" 
d="M476 2q-40 16 -87 46q-77 -59 -170 -59q-77 0 -118 41t-41 114q0 79 50 122t152 43q61 0 124 -15v16q0 68 -20.5 94.5t-72.5 26.5q-35 0 -73 -8.5t-70 -22.5q-7 -3 -14 -3q-20 0 -32.5 23.5t-12.5 49.5q0 14 5.5 21t19.5 14q41 17 94.5 28.5t105.5 11.5q103 0 153 -51
t50 -168q0 -97 -23 -195q40 -8 58 -14.5t23 -13t5 -17.5q0 -34 -14 -67t-32 -33q-20 0 -60 16zM268 92q49 0 102 25q10 76 12 105q-38 7 -78 7q-62 0 -85.5 -16t-23.5 -51q0 -70 73 -70zM141.5 728q-3.5 5 -3.5 11q0 13 13.5 30t33 29t34.5 12q11 0 17 -7l143 -148
q6 -7 9.5 -11.5t3.5 -9.5q0 -15 -18.5 -32t-35.5 -17q-8 0 -13 4l-169 127q-11 7 -14.5 12z" />
    <glyph glyph-name="aacute" unicode="&#xe1;" 
d="M476 2q-40 16 -87 46q-77 -59 -170 -59q-77 0 -118 41t-41 114q0 79 50 122t152 43q61 0 124 -15v16q0 68 -20.5 94.5t-72.5 26.5q-35 0 -73 -8.5t-70 -22.5q-7 -3 -14 -3q-20 0 -32.5 23.5t-12.5 49.5q0 14 5.5 21t19.5 14q41 17 94.5 28.5t105.5 11.5q103 0 153 -51
t50 -168q0 -97 -23 -195q40 -8 58 -14.5t23 -13t5 -17.5q0 -34 -14 -67t-32 -33q-20 0 -60 16zM268 92q49 0 102 25q10 76 12 105q-38 7 -78 7q-62 0 -85.5 -16t-23.5 -51q0 -70 73 -70zM262 585q-17 0 -35.5 17t-18.5 32q0 5 3.5 9.5t9.5 11.5l143 148q6 7 17 7
q15 0 34.5 -12t33 -29t13.5 -30q0 -6 -3.5 -11t-14.5 -12l-169 -127q-5 -4 -13 -4z" />
    <glyph glyph-name="acircumflex" unicode="&#xe2;" 
d="M476 2q-40 16 -87 46q-77 -59 -170 -59q-77 0 -118 41t-41 114q0 79 50 122t152 43q61 0 124 -15v16q0 68 -20.5 94.5t-72.5 26.5q-35 0 -73 -8.5t-70 -22.5q-7 -3 -14 -3q-20 0 -32.5 23.5t-12.5 49.5q0 14 5.5 21t19.5 14q41 17 94.5 28.5t105.5 11.5q103 0 153 -51
t50 -168q0 -97 -23 -195q40 -8 58 -14.5t23 -13t5 -17.5q0 -34 -14 -67t-32 -33q-20 0 -60 16zM268 92q49 0 102 25q10 76 12 105q-38 7 -78 7q-62 0 -85.5 -16t-23.5 -51q0 -70 73 -70zM499 635q0 -15 -19.5 -30.5t-37.5 -15.5q-10 0 -16 6l-116 112l-116 -112
q-6 -6 -16 -6q-18 0 -37.5 15.5t-19.5 30.5q0 3 2.5 6.5t7.5 8.5l117 136q9 10 25.5 15.5t36.5 5.5t36.5 -5.5t25.5 -15.5l117 -136q10 -10 10 -15z" />
    <glyph glyph-name="atilde" unicode="&#xe3;" 
d="M476 2q-40 16 -87 46q-77 -59 -170 -59q-77 0 -118 41t-41 114q0 79 50 122t152 43q61 0 124 -15v16q0 68 -20.5 94.5t-72.5 26.5q-35 0 -73 -8.5t-70 -22.5q-7 -3 -14 -3q-20 0 -32.5 23.5t-12.5 49.5q0 14 5.5 21t19.5 14q41 17 94.5 28.5t105.5 11.5q103 0 153 -51
t50 -168q0 -97 -23 -195q40 -8 58 -14.5t23 -13t5 -17.5q0 -34 -14 -67t-32 -33q-20 0 -60 16zM268 92q49 0 102 25q10 76 12 105q-38 7 -78 7q-62 0 -85.5 -16t-23.5 -51q0 -70 73 -70zM337 620q-27 18 -57 50q-21 21 -31.5 29.5t-23.5 8.5q-33 0 -45 -91q-1 -9 -12.5 -14
t-27.5 -5q-21 0 -37.5 7t-15.5 19q6 93 41 139.5t90 46.5q38 0 64 -17.5t58 -50.5q20 -21 31 -30t24 -9q18 0 29 22.5t17 68.5q1 10 13 15t28 5q20 0 36.5 -7.5t15.5 -19.5q-6 -93 -41 -139t-91 -46q-38 0 -65 18z" />
    <glyph glyph-name="adieresis" unicode="&#xe4;" 
d="M476 2q-40 16 -87 46q-77 -59 -170 -59q-77 0 -118 41t-41 114q0 79 50 122t152 43q61 0 124 -15v16q0 68 -20.5 94.5t-72.5 26.5q-35 0 -73 -8.5t-70 -22.5q-7 -3 -14 -3q-20 0 -32.5 23.5t-12.5 49.5q0 14 5.5 21t19.5 14q41 17 94.5 28.5t105.5 11.5q103 0 153 -51
t50 -168q0 -97 -23 -195q40 -8 58 -14.5t23 -13t5 -17.5q0 -34 -14 -67t-32 -33q-20 0 -60 16zM268 92q49 0 102 25q10 76 12 105q-38 7 -78 7q-62 0 -85.5 -16t-23.5 -51q0 -70 73 -70zM123.5 634.5q-18.5 15.5 -18.5 52.5q0 36 18.5 51.5t66.5 15.5t66.5 -15.5t18.5 -51.5
q0 -37 -18.5 -52.5t-66.5 -15.5t-66.5 15.5zM363.5 738.5q18.5 15.5 66.5 15.5t66.5 -15.5t18.5 -51.5q0 -37 -18.5 -52.5t-66.5 -15.5t-66.5 15.5t-18.5 52.5q0 36 18.5 51.5z" />
    <glyph glyph-name="aring" unicode="&#xe5;" 
d="M476 2q-40 16 -87 46q-77 -59 -170 -59q-77 0 -118 41t-41 114q0 79 50 122t152 43q61 0 124 -15v16q0 68 -20.5 94.5t-72.5 26.5q-35 0 -73 -8.5t-70 -22.5q-7 -3 -14 -3q-20 0 -32.5 23.5t-12.5 49.5q0 14 5.5 21t19.5 14q41 17 94.5 28.5t105.5 11.5q103 0 153 -51
t50 -168q0 -97 -23 -195q40 -8 58 -14.5t23 -13t5 -17.5q0 -34 -14 -67t-32 -33q-20 0 -60 16zM268 92q49 0 102 25q10 76 12 105q-38 7 -78 7q-62 0 -85.5 -16t-23.5 -51q0 -70 73 -70zM209.5 622q-39.5 38 -39.5 97q0 58 39.5 96.5t100.5 38.5t101 -38.5t40 -96.5
t-40 -96.5t-101 -38.5t-100.5 38zM257.5 670.5q20.5 -18.5 52.5 -18.5t52.5 18.5t20.5 48.5q0 29 -20.5 47.5t-52.5 18.5t-52.5 -18.5t-20.5 -47.5q0 -30 20.5 -48.5z" />
    <glyph glyph-name="ae" unicode="&#xe6;" 
d="M297 48q-62 -59 -133 -59q-60 0 -93 41.5t-33 116.5q0 80 38 124t117 44q41 0 76 -7v56q0 37 -13 52t-44 15q-23 0 -50 -8t-48 -20q-14 -8 -28 24t-14 59q0 16 13 23q67 36 140 36q72 0 101 -43q41 40 107 40q75 0 112 -53t37 -152q0 -49 -10 -74t-33 -28q-31 -4 -102 -4
q-40 0 -81 3v-78q0 -30 20 -46.5t59 -16.5q42 0 86 22q16 7 20 7q14 0 25 -26.5t11 -50.5q0 -9 -3 -14.5t-13 -10.5q-24 -15 -57.5 -23.5t-70.5 -8.5q-91 0 -136 60zM208 93q31 0 61 20v121q-19 3 -39 3q-46 0 -62 -17t-16 -56q0 -71 56 -71zM410 313q29 0 57 3q2 18 2 33
q0 100 -58 100q-25 0 -40 -19t-15 -50v-65q36 -2 54 -2z" />
    <glyph glyph-name="ccedilla" unicode="&#xe7;" 
d="M146.5 468.5q69.5 75.5 200.5 75.5q56 0 100.5 -13t65.5 -35q16 -16 25 -54.5t9 -72.5q0 -19 -27.5 -29.5t-65.5 -10.5q-16 0 -23 4.5t-10 18.5q-1 6 -8 54q-12 8 -32.5 13t-43.5 5q-63 0 -95 -41.5t-32 -123.5q0 -80 29.5 -112.5t92.5 -32.5q76 0 155 36q6 3 12 3
q21 0 35 -30.5t14 -57.5q0 -12 -6 -20t-21 -15q-70 -31 -152 -39l-1 -8l-30 -160q-1 -12 -15.5 -18t-34.5 -6q-26 0 -47.5 9t-21.5 23q0 8 7 27l52 131q-100 9 -150.5 69.5t-50.5 189.5q0 145 69.5 220.5z" />
    <glyph glyph-name="egrave" unicode="&#xe8;" 
d="M123 50q-61 62 -61 190q0 147 72 225.5t205 78.5q109 0 164 -53t55 -149q0 -47 -14.5 -73t-48.5 -31q-81 -12 -182 -12q-68 0 -117 5q3 -70 33.5 -99.5t100.5 -29.5q41 0 81 9t86 28l8 2q19 0 32 -28.5t13 -54.5q0 -10 -4.5 -16.5t-18.5 -12.5q-39 -18 -94 -29.5
t-116 -11.5q-133 0 -194 62zM275 310q81 0 151 9q4 12 4 33q0 91 -98 91q-57 0 -89.5 -32.5t-42.5 -98.5q25 -2 75 -2zM141.5 728q-3.5 5 -3.5 11q0 13 13.5 30t33 29t34.5 12q11 0 17 -7l143 -148q6 -7 9.5 -11.5t3.5 -9.5q0 -15 -18.5 -32t-35.5 -17q-8 0 -13 4l-169 127
q-11 7 -14.5 12z" />
    <glyph glyph-name="eacute" unicode="&#xe9;" 
d="M123 50q-61 62 -61 190q0 147 72 225.5t205 78.5q109 0 164 -53t55 -149q0 -47 -14.5 -73t-48.5 -31q-81 -12 -182 -12q-68 0 -117 5q3 -70 33.5 -99.5t100.5 -29.5q41 0 81 9t86 28l8 2q19 0 32 -28.5t13 -54.5q0 -10 -4.5 -16.5t-18.5 -12.5q-39 -18 -94 -29.5
t-116 -11.5q-133 0 -194 62zM275 310q81 0 151 9q4 12 4 33q0 91 -98 91q-57 0 -89.5 -32.5t-42.5 -98.5q25 -2 75 -2zM262 585q-17 0 -35.5 17t-18.5 32q0 5 3.5 9.5t9.5 11.5l143 148q6 7 17 7q15 0 34.5 -12t33 -29t13.5 -30q0 -6 -3.5 -11t-14.5 -12l-169 -127
q-5 -4 -13 -4z" />
    <glyph glyph-name="ecircumflex" unicode="&#xea;" 
d="M123 50q-61 62 -61 190q0 147 72 225.5t205 78.5q109 0 164 -53t55 -149q0 -47 -14.5 -73t-48.5 -31q-81 -12 -182 -12q-68 0 -117 5q3 -70 33.5 -99.5t100.5 -29.5q41 0 81 9t86 28l8 2q19 0 32 -28.5t13 -54.5q0 -10 -4.5 -16.5t-18.5 -12.5q-39 -18 -94 -29.5
t-116 -11.5q-133 0 -194 62zM275 310q81 0 151 9q4 12 4 33q0 91 -98 91q-57 0 -89.5 -32.5t-42.5 -98.5q25 -2 75 -2zM499 635q0 -15 -19.5 -30.5t-37.5 -15.5q-10 0 -16 6l-116 112l-116 -112q-6 -6 -16 -6q-18 0 -37.5 15.5t-19.5 30.5q0 3 2.5 6.5t7.5 8.5l117 136
q9 10 25.5 15.5t36.5 5.5t36.5 -5.5t25.5 -15.5l117 -136q10 -10 10 -15z" />
    <glyph glyph-name="edieresis" unicode="&#xeb;" 
d="M123 50q-61 62 -61 190q0 147 72 225.5t205 78.5q109 0 164 -53t55 -149q0 -47 -14.5 -73t-48.5 -31q-81 -12 -182 -12q-68 0 -117 5q3 -70 33.5 -99.5t100.5 -29.5q41 0 81 9t86 28l8 2q19 0 32 -28.5t13 -54.5q0 -10 -4.5 -16.5t-18.5 -12.5q-39 -18 -94 -29.5
t-116 -11.5q-133 0 -194 62zM275 310q81 0 151 9q4 12 4 33q0 91 -98 91q-57 0 -89.5 -32.5t-42.5 -98.5q25 -2 75 -2zM123.5 634.5q-18.5 15.5 -18.5 52.5q0 36 18.5 51.5t66.5 15.5t66.5 -15.5t18.5 -51.5q0 -37 -18.5 -52.5t-66.5 -15.5t-66.5 15.5zM363.5 738.5
q18.5 15.5 66.5 15.5t66.5 -15.5t18.5 -51.5q0 -37 -18.5 -52.5t-66.5 -15.5t-66.5 15.5t-18.5 52.5q0 36 18.5 51.5z" />
    <glyph glyph-name="igrave" unicode="&#xec;" 
d="M111.5 14q-6.5 14 -6.5 49t6.5 48.5t19.5 13.5q62 0 127 -7q-4 65 -4 142q0 78 4 142q-59 -7 -109 -7q-13 0 -19 13.5t-6 49.5q0 35 6 49t19 14h204q19 0 26.5 -7.5t7.5 -27.5q0 -92 -1 -189t-6 -179q73 7 130 7q13 0 19 -13.5t6 -48.5q0 -36 -6 -49.5t-19 -13.5h-379
q-13 0 -19.5 14zM141.5 728q-3.5 5 -3.5 11q0 13 13.5 30t33 29t34.5 12q11 0 17 -7l143 -148q6 -7 9.5 -11.5t3.5 -9.5q0 -15 -18.5 -32t-35.5 -17q-8 0 -13 4l-169 127q-11 7 -14.5 12z" />
    <glyph glyph-name="iacute" unicode="&#xed;" 
d="M111.5 14q-6.5 14 -6.5 49t6.5 48.5t19.5 13.5q62 0 127 -7q-4 65 -4 142q0 78 4 142q-59 -7 -109 -7q-13 0 -19 13.5t-6 49.5q0 35 6 49t19 14h204q19 0 26.5 -7.5t7.5 -27.5q0 -92 -1 -189t-6 -179q73 7 130 7q13 0 19 -13.5t6 -48.5q0 -36 -6 -49.5t-19 -13.5h-379
q-13 0 -19.5 14zM262 585q-17 0 -35.5 17t-18.5 32q0 5 3.5 9.5t9.5 11.5l143 148q6 7 17 7q15 0 34.5 -12t33 -29t13.5 -30q0 -6 -3.5 -11t-14.5 -12l-169 -127q-5 -4 -13 -4z" />
    <glyph glyph-name="icircumflex" unicode="&#xee;" 
d="M111.5 14q-6.5 14 -6.5 49t6.5 48.5t19.5 13.5q62 0 127 -7q-4 65 -4 142q0 78 4 142q-59 -7 -109 -7q-13 0 -19 13.5t-6 49.5q0 35 6 49t19 14h204q19 0 26.5 -7.5t7.5 -27.5q0 -92 -1 -189t-6 -179q73 7 130 7q13 0 19 -13.5t6 -48.5q0 -36 -6 -49.5t-19 -13.5h-379
q-13 0 -19.5 14zM499 635q0 -15 -19.5 -30.5t-37.5 -15.5q-10 0 -16 6l-116 112l-116 -112q-6 -6 -16 -6q-18 0 -37.5 15.5t-19.5 30.5q0 3 2.5 6.5t7.5 8.5l117 136q9 10 25.5 15.5t36.5 5.5t36.5 -5.5t25.5 -15.5l117 -136q10 -10 10 -15z" />
    <glyph glyph-name="idieresis" unicode="&#xef;" 
d="M111.5 14q-6.5 14 -6.5 49t6.5 48.5t19.5 13.5q62 0 127 -7q-4 65 -4 142q0 78 4 142q-59 -7 -109 -7q-13 0 -19 13.5t-6 49.5q0 35 6 49t19 14h204q19 0 26.5 -7.5t7.5 -27.5q0 -92 -1 -189t-6 -179q73 7 130 7q13 0 19 -13.5t6 -48.5q0 -36 -6 -49.5t-19 -13.5h-379
q-13 0 -19.5 14zM123.5 634.5q-18.5 15.5 -18.5 52.5q0 36 18.5 51.5t66.5 15.5t66.5 -15.5t18.5 -51.5q0 -37 -18.5 -52.5t-66.5 -15.5t-66.5 15.5zM363.5 738.5q18.5 15.5 66.5 15.5t66.5 -15.5t18.5 -51.5q0 -37 -18.5 -52.5t-66.5 -15.5t-66.5 15.5t-18.5 52.5
q0 36 18.5 51.5z" />
    <glyph glyph-name="ntilde" unicode="&#xf1;" 
d="M421 -0.5q-15 7.5 -13 26.5q10 103 10 204q0 81 -7 117q-6 37 -26 53.5t-55 16.5q-71 0 -124 -53q7 -191 7 -344q0 -15 -14.5 -21.5t-52.5 -6.5q-37 0 -52 6.5t-15 21.5v354q0 43 -3 118l-1 20q0 15 14.5 21t51.5 6t51.5 -6t14.5 -21q0 -20 -4 -51h16q65 83 164 83
q134 0 159 -145q9 -55 9 -143q0 -115 -10 -236q-2 -15 -15.5 -21.5t-50.5 -6.5q-39 0 -54 7.5zM337 620q-27 18 -57 50q-21 21 -31.5 29.5t-23.5 8.5q-33 0 -45 -91q-1 -9 -12.5 -14t-27.5 -5q-21 0 -37.5 7t-15.5 19q6 93 41 139.5t90 46.5q38 0 64 -17.5t58 -50.5
q20 -21 31 -30t24 -9q18 0 29 22.5t17 68.5q1 10 13 15t28 5q20 0 36.5 -7.5t15.5 -19.5q-6 -93 -41 -139t-91 -46q-38 0 -65 18z" />
    <glyph glyph-name="ograve" unicode="&#xf2;" 
d="M117.5 52.5q-61.5 64.5 -61.5 190.5q0 149 67.5 225t199.5 76q118 0 179.5 -64.5t61.5 -189.5q0 -150 -67.5 -226t-199.5 -76q-118 0 -179.5 64.5zM216 137.5q27 -35.5 87 -35.5q67 0 97.5 42.5t30.5 136.5q0 79 -27 114t-87 35q-67 0 -97.5 -42.5t-30.5 -136.5
q0 -78 27 -113.5zM141.5 728q-3.5 5 -3.5 11q0 13 13.5 30t33 29t34.5 12q11 0 17 -7l143 -148q6 -7 9.5 -11.5t3.5 -9.5q0 -15 -18.5 -32t-35.5 -17q-8 0 -13 4l-169 127q-11 7 -14.5 12z" />
    <glyph glyph-name="oacute" unicode="&#xf3;" 
d="M117.5 52.5q-61.5 64.5 -61.5 190.5q0 149 67.5 225t199.5 76q118 0 179.5 -64.5t61.5 -189.5q0 -150 -67.5 -226t-199.5 -76q-118 0 -179.5 64.5zM216 137.5q27 -35.5 87 -35.5q67 0 97.5 42.5t30.5 136.5q0 79 -27 114t-87 35q-67 0 -97.5 -42.5t-30.5 -136.5
q0 -78 27 -113.5zM262 585q-17 0 -35.5 17t-18.5 32q0 5 3.5 9.5t9.5 11.5l143 148q6 7 17 7q15 0 34.5 -12t33 -29t13.5 -30q0 -6 -3.5 -11t-14.5 -12l-169 -127q-5 -4 -13 -4z" />
    <glyph glyph-name="ocircumflex" unicode="&#xf4;" 
d="M117.5 52.5q-61.5 64.5 -61.5 190.5q0 149 67.5 225t199.5 76q118 0 179.5 -64.5t61.5 -189.5q0 -150 -67.5 -226t-199.5 -76q-118 0 -179.5 64.5zM216 137.5q27 -35.5 87 -35.5q67 0 97.5 42.5t30.5 136.5q0 79 -27 114t-87 35q-67 0 -97.5 -42.5t-30.5 -136.5
q0 -78 27 -113.5zM499 635q0 -15 -19.5 -30.5t-37.5 -15.5q-10 0 -16 6l-116 112l-116 -112q-6 -6 -16 -6q-18 0 -37.5 15.5t-19.5 30.5q0 3 2.5 6.5t7.5 8.5l117 136q9 10 25.5 15.5t36.5 5.5t36.5 -5.5t25.5 -15.5l117 -136q10 -10 10 -15z" />
    <glyph glyph-name="otilde" unicode="&#xf5;" 
d="M117.5 52.5q-61.5 64.5 -61.5 190.5q0 149 67.5 225t199.5 76q118 0 179.5 -64.5t61.5 -189.5q0 -150 -67.5 -226t-199.5 -76q-118 0 -179.5 64.5zM216 137.5q27 -35.5 87 -35.5q67 0 97.5 42.5t30.5 136.5q0 79 -27 114t-87 35q-67 0 -97.5 -42.5t-30.5 -136.5
q0 -78 27 -113.5zM337 620q-27 18 -57 50q-21 21 -31.5 29.5t-23.5 8.5q-33 0 -45 -91q-1 -9 -12.5 -14t-27.5 -5q-21 0 -37.5 7t-15.5 19q6 93 41 139.5t90 46.5q38 0 64 -17.5t58 -50.5q20 -21 31 -30t24 -9q18 0 29 22.5t17 68.5q1 10 13 15t28 5q20 0 36.5 -7.5
t15.5 -19.5q-6 -93 -41 -139t-91 -46q-38 0 -65 18z" />
    <glyph glyph-name="odieresis" unicode="&#xf6;" 
d="M117.5 52.5q-61.5 64.5 -61.5 190.5q0 149 67.5 225t199.5 76q118 0 179.5 -64.5t61.5 -189.5q0 -150 -67.5 -226t-199.5 -76q-118 0 -179.5 64.5zM216 137.5q27 -35.5 87 -35.5q67 0 97.5 42.5t30.5 136.5q0 79 -27 114t-87 35q-67 0 -97.5 -42.5t-30.5 -136.5
q0 -78 27 -113.5zM123.5 634.5q-18.5 15.5 -18.5 52.5q0 36 18.5 51.5t66.5 15.5t66.5 -15.5t18.5 -51.5q0 -37 -18.5 -52.5t-66.5 -15.5t-66.5 15.5zM363.5 738.5q18.5 15.5 66.5 15.5t66.5 -15.5t18.5 -51.5q0 -37 -18.5 -52.5t-66.5 -15.5t-66.5 15.5t-18.5 52.5
q0 36 18.5 51.5z" />
    <glyph glyph-name="ugrave" unicode="&#xf9;" 
d="M199 532.5q15 -7.5 13 -26.5q-10 -103 -10 -204q0 -81 7 -117q6 -37 26 -53.5t55 -16.5q71 0 124 53q-7 191 -7 344q0 15 14.5 21.5t52.5 6.5q37 0 52 -6.5t15 -21.5v-354q0 -43 3 -118l1 -20q0 -15 -14.5 -21t-51.5 -6t-51.5 6t-14.5 21q0 20 4 51h-16q-65 -83 -164 -83
q-134 0 -159 145q-9 56 -9 143q0 115 10 236q2 15 15.5 21.5t50.5 6.5q39 0 54 -7.5zM141.5 728q-3.5 5 -3.5 11q0 13 13.5 30t33 29t34.5 12q11 0 17 -7l143 -148q6 -7 9.5 -11.5t3.5 -9.5q0 -15 -18.5 -32t-35.5 -17q-8 0 -13 4l-169 127q-11 7 -14.5 12z" />
    <glyph glyph-name="uacute" unicode="&#xfa;" 
d="M199 532.5q15 -7.5 13 -26.5q-10 -103 -10 -204q0 -81 7 -117q6 -37 26 -53.5t55 -16.5q71 0 124 53q-7 191 -7 344q0 15 14.5 21.5t52.5 6.5q37 0 52 -6.5t15 -21.5v-354q0 -43 3 -118l1 -20q0 -15 -14.5 -21t-51.5 -6t-51.5 6t-14.5 21q0 20 4 51h-16q-65 -83 -164 -83
q-134 0 -159 145q-9 56 -9 143q0 115 10 236q2 15 15.5 21.5t50.5 6.5q39 0 54 -7.5zM262 585q-17 0 -35.5 17t-18.5 32q0 5 3.5 9.5t9.5 11.5l143 148q6 7 17 7q15 0 34.5 -12t33 -29t13.5 -30q0 -6 -3.5 -11t-14.5 -12l-169 -127q-5 -4 -13 -4z" />
    <glyph glyph-name="ucircumflex" unicode="&#xfb;" 
d="M199 532.5q15 -7.5 13 -26.5q-10 -103 -10 -204q0 -81 7 -117q6 -37 26 -53.5t55 -16.5q71 0 124 53q-7 191 -7 344q0 15 14.5 21.5t52.5 6.5q37 0 52 -6.5t15 -21.5v-354q0 -43 3 -118l1 -20q0 -15 -14.5 -21t-51.5 -6t-51.5 6t-14.5 21q0 20 4 51h-16q-65 -83 -164 -83
q-134 0 -159 145q-9 56 -9 143q0 115 10 236q2 15 15.5 21.5t50.5 6.5q39 0 54 -7.5zM499 635q0 -15 -19.5 -30.5t-37.5 -15.5q-10 0 -16 6l-116 112l-116 -112q-6 -6 -16 -6q-18 0 -37.5 15.5t-19.5 30.5q0 3 2.5 6.5t7.5 8.5l117 136q9 10 25.5 15.5t36.5 5.5t36.5 -5.5
t25.5 -15.5l117 -136q10 -10 10 -15z" />
    <glyph glyph-name="udieresis" unicode="&#xfc;" 
d="M199 532.5q15 -7.5 13 -26.5q-10 -103 -10 -204q0 -81 7 -117q6 -37 26 -53.5t55 -16.5q71 0 124 53q-7 191 -7 344q0 15 14.5 21.5t52.5 6.5q37 0 52 -6.5t15 -21.5v-354q0 -43 3 -118l1 -20q0 -15 -14.5 -21t-51.5 -6t-51.5 6t-14.5 21q0 20 4 51h-16q-65 -83 -164 -83
q-134 0 -159 145q-9 56 -9 143q0 115 10 236q2 15 15.5 21.5t50.5 6.5q39 0 54 -7.5zM123.5 634.5q-18.5 15.5 -18.5 52.5q0 36 18.5 51.5t66.5 15.5t66.5 -15.5t18.5 -51.5q0 -37 -18.5 -52.5t-66.5 -15.5t-66.5 15.5zM363.5 738.5q18.5 15.5 66.5 15.5t66.5 -15.5
t18.5 -51.5q0 -37 -18.5 -52.5t-66.5 -15.5t-66.5 15.5t-18.5 52.5q0 36 18.5 51.5z" />
    <glyph glyph-name="yacute" unicode="&#xfd;" 
d="M88 -172q-16 32 -16 63q0 14 6.5 21t24.5 13q50 18 99.5 47t88.5 64l-3 11q-13 -4 -27 -4q-13 0 -23 9t-24 33q-42 74 -90.5 183t-72.5 185q-9 31 -9 45q0 19 34 32.5t67 13.5q18 0 26 -7.5t13 -28.5q22 -82 57.5 -176.5t77.5 -183.5h19q36 79 63.5 178.5t38.5 182.5
q2 20 13.5 27.5t41.5 7.5q41 0 62.5 -10t21.5 -27q0 -3 -4 -33q-15 -95 -54 -212t-88 -206q-98 -178 -248 -244q-39 -16 -57 -16q-22 0 -38 32zM262 585q-17 0 -35.5 17t-18.5 32q0 5 3.5 9.5t9.5 11.5l143 148q6 7 17 7q15 0 34.5 -12t33 -29t13.5 -30q0 -6 -3.5 -11
t-14.5 -12l-169 -127q-5 -4 -13 -4z" />
    <glyph glyph-name="Amacron" unicode="&#x100;" 
d="M54.5 -2q-16.5 6 -16.5 19q0 4 5 42q54 306 159 606q8 23 30 32t78 9q57 0 79 -9t29 -32q105 -300 159 -606q5 -38 5 -42q0 -13 -16.5 -19t-53.5 -6q-35 0 -49.5 6t-17.5 25q-15 80 -22 145q-63 -5 -113 -5t-113 5q-7 -65 -22 -145q-3 -19 -17.5 -25t-49.5 -6
q-37 0 -53.5 6zM310 279q49 0 98 -3q-17 58 -33 122q-45 162 -56 197h-18q-11 -35 -56 -197q-16 -64 -33 -122q50 3 98 3zM116.5 807q-7.5 15 -7.5 36t8 36.5t21 15.5h344q14 0 21.5 -15.5t7.5 -36.5t-7.5 -36t-21.5 -15h-344q-14 0 -21.5 15z" />
    <glyph glyph-name="amacron" unicode="&#x101;" 
d="M476 2q-40 16 -87 46q-77 -59 -170 -59q-77 0 -118 41t-41 114q0 79 50 122t152 43q61 0 124 -15v16q0 68 -20.5 94.5t-72.5 26.5q-35 0 -73 -8.5t-70 -22.5q-7 -3 -14 -3q-20 0 -32.5 23.5t-12.5 49.5q0 14 5.5 21t19.5 14q41 17 94.5 28.5t105.5 11.5q103 0 153 -51
t50 -168q0 -97 -23 -195q40 -8 58 -14.5t23 -13t5 -17.5q0 -34 -14 -67t-32 -33q-20 0 -60 16zM268 92q49 0 102 25q10 76 12 105q-38 7 -78 7q-62 0 -85.5 -16t-23.5 -51q0 -70 73 -70zM135 652q-7 15 -7 36t7 36.5t19 15.5h313q13 0 19.5 -15.5t6.5 -36.5t-6.5 -36
t-19.5 -15h-313q-12 0 -19 15z" />
    <glyph glyph-name="Abreve" unicode="&#x102;" 
d="M54.5 -2q-16.5 6 -16.5 19q0 4 5 42q54 306 159 606q8 23 30 32t78 9q57 0 79 -9t29 -32q105 -300 159 -606q5 -38 5 -42q0 -13 -16.5 -19t-53.5 -6q-35 0 -49.5 6t-17.5 25q-15 80 -22 145q-63 -5 -113 -5t-113 5q-7 -65 -22 -145q-3 -19 -17.5 -25t-49.5 -6
q-37 0 -53.5 6zM310 279q49 0 98 -3q-17 58 -33 122q-45 162 -56 197h-18q-11 -35 -56 -197q-16 -64 -33 -122q50 3 98 3zM181.5 793q-51.5 41 -74.5 111q-5 15 21.5 28t51.5 13q18 0 22 -9q15 -44 40 -66t68 -22t68 22t40 66q5 9 23 9q25 0 51.5 -13t22.5 -28
q-24 -71 -76 -111.5t-129 -40.5t-128.5 41z" />
    <glyph glyph-name="abreve" unicode="&#x103;" 
d="M476 2q-40 16 -87 46q-77 -59 -170 -59q-77 0 -118 41t-41 114q0 79 50 122t152 43q61 0 124 -15v16q0 68 -20.5 94.5t-72.5 26.5q-35 0 -73 -8.5t-70 -22.5q-7 -3 -14 -3q-20 0 -32.5 23.5t-12.5 49.5q0 14 5.5 21t19.5 14q41 17 94.5 28.5t105.5 11.5q103 0 153 -51
t50 -168q0 -97 -23 -195q40 -8 58 -14.5t23 -13t5 -17.5q0 -34 -14 -67t-32 -33q-20 0 -60 16zM268 92q49 0 102 25q10 76 12 105q-38 7 -78 7q-62 0 -85.5 -16t-23.5 -51q0 -70 73 -70zM193 627.5q-47 40.5 -68 111.5q-5 15 19 28t48 13q17 0 20 -9q13 -44 36 -66t62 -22
t62 22t36 66q3 9 21 9q23 0 47 -13t20 -28q-22 -71 -69 -111.5t-117 -40.5t-117 40.5z" />
    <glyph glyph-name="Cacute" unicode="&#x106;" 
d="M124.5 67.5q-68.5 78.5 -68.5 260.5q0 185 78 282.5t224 97.5q62 0 109 -16t66 -41q12 -14 21 -63.5t9 -79.5q0 -23 -29 -34.5t-65 -11.5q-18 0 -25 5.5t-9 22.5q-6 39 -9 78q-12 8 -33 12.5t-44 4.5q-157 0 -157 -246q0 -83 16.5 -132t49.5 -69.5t85 -20.5q76 0 167 44
q6 2 9 2q19 0 33.5 -32.5t14.5 -59.5q0 -20 -17 -28q-42 -24 -102.5 -39t-118.5 -15q-136 0 -204.5 78.5zM230 750q-18 0 -38.5 17t-20.5 32q0 5 3.5 9.5t10.5 11.5l157 148q7 7 19 7q17 0 38 -12t36 -29t15 -30q0 -6 -4 -11t-16 -12l-186 -127q-5 -4 -14 -4z" />
    <glyph glyph-name="cacute" unicode="&#x107;" 
d="M136.5 48q-59.5 60 -59.5 200q0 145 69.5 220.5t200.5 75.5q56 0 100.5 -13t65.5 -35q16 -16 25 -54.5t9 -72.5q0 -19 -27.5 -29.5t-65.5 -10.5q-16 0 -23 4.5t-10 18.5q-1 6 -8 54q-12 8 -32.5 13t-43.5 5q-63 0 -95 -41.5t-32 -123.5q0 -80 29.5 -112.5t92.5 -32.5
q76 0 155 36q6 3 12 3q21 0 35 -30.5t14 -57.5q0 -12 -6 -20t-21 -15q-39 -18 -93.5 -30t-113.5 -12q-118 0 -177.5 60zM262 585q-17 0 -35.5 17t-18.5 32q0 5 3.5 9.5t9.5 11.5l143 148q6 7 17 7q15 0 34.5 -12t33 -29t13.5 -30q0 -6 -3.5 -11t-14.5 -12l-169 -127
q-5 -4 -13 -4z" />
    <glyph glyph-name="Itilde" unicode="&#x128;" 
d="M113 14.5q-6 14.5 -6 49.5q0 37 6 51t19 14q50 0 113 -7q-4 154 -4 225q0 70 4 228q-63 -7 -113 -7q-13 0 -19 14t-6 51q0 35 6 49.5t19 14.5h356q13 0 19 -14.5t6 -49.5q0 -37 -6 -51t-19 -14q-50 0 -113 7q4 -105 4 -228q0 -122 -4 -225q63 7 113 7q13 0 19 -14t6 -51
q0 -35 -6 -49.5t-19 -14.5h-356q-13 0 -19 14.5zM339.5 780q-29.5 18 -62.5 50q-21 20 -34 29t-26 9q-19 0 -31 -22.5t-19 -68.5q-1 -9 -13.5 -14t-30.5 -5q-23 0 -41 7t-17 19q7 93 45 139.5t99 46.5q42 0 71.5 -18t62.5 -50q22 -21 34.5 -30t26.5 -9q19 0 31 22.5t19 68.5
q1 10 14 15t31 5q23 0 40.5 -7.5t16.5 -19.5q-6 -93 -44.5 -139t-100.5 -46q-42 0 -71.5 18z" />
    <glyph glyph-name="itilde" unicode="&#x129;" 
d="M111.5 14q-6.5 14 -6.5 49t6.5 48.5t19.5 13.5q62 0 127 -7q-4 65 -4 142q0 78 4 142q-59 -7 -109 -7q-13 0 -19 13.5t-6 49.5q0 35 6 49t19 14h204q19 0 26.5 -7.5t7.5 -27.5q0 -92 -1 -189t-6 -179q73 7 130 7q13 0 19 -13.5t6 -48.5q0 -36 -6 -49.5t-19 -13.5h-379
q-13 0 -19.5 14zM337 620q-27 18 -57 50q-21 21 -31.5 29.5t-23.5 8.5q-33 0 -45 -91q-1 -9 -12.5 -14t-27.5 -5q-21 0 -37.5 7t-15.5 19q6 93 41 139.5t90 46.5q38 0 64 -17.5t58 -50.5q20 -21 31 -30t24 -9q18 0 29 22.5t17 68.5q1 10 13 15t28 5q20 0 36.5 -7.5
t15.5 -19.5q-6 -93 -41 -139t-91 -46q-38 0 -65 18z" />
    <glyph glyph-name="dotlessi" unicode="&#x131;" 
d="M111.5 14q-6.5 14 -6.5 49t6.5 48.5t19.5 13.5q62 0 127 -7q-4 65 -4 142q0 78 4 142q-59 -7 -109 -7q-13 0 -19 13.5t-6 49.5q0 35 6 49t19 14h204q19 0 26.5 -7.5t7.5 -27.5q0 -92 -1 -189t-6 -179q73 7 130 7q13 0 19 -13.5t6 -48.5q0 -36 -6 -49.5t-19 -13.5h-379
q-13 0 -19.5 14z" />
    <glyph glyph-name="Nacute" unicode="&#x143;" 
d="M76 -1.5q-15 6.5 -15 21.5v650q0 19 21 27t70 8q45 0 61.5 -9.5t27.5 -38.5q125 -314 190 -514h16q-11 100 -18.5 264.5t-7.5 269.5q0 28 69 28q39 0 54 -6.5t15 -21.5v-650q0 -19 -21 -27t-70 -8q-44 0 -61 9t-28 39q-126 320 -190 514h-16q11 -100 18.5 -264.5
t7.5 -269.5q0 -15 -15.5 -21.5t-53.5 -6.5q-39 0 -54 6.5zM230 750q-18 0 -38.5 17t-20.5 32q0 5 3.5 9.5t10.5 11.5l157 148q7 7 19 7q17 0 38 -12t36 -29t15 -30q0 -6 -4 -11t-16 -12l-186 -127q-5 -4 -14 -4z" />
    <glyph glyph-name="nacute" unicode="&#x144;" 
d="M421 -0.5q-15 7.5 -13 26.5q10 103 10 204q0 81 -7 117q-6 37 -26 53.5t-55 16.5q-71 0 -124 -53q7 -191 7 -344q0 -15 -14.5 -21.5t-52.5 -6.5q-37 0 -52 6.5t-15 21.5v354q0 43 -3 118l-1 20q0 15 14.5 21t51.5 6t51.5 -6t14.5 -21q0 -20 -4 -51h16q65 83 164 83
q134 0 159 -145q9 -55 9 -143q0 -115 -10 -236q-2 -15 -15.5 -21.5t-50.5 -6.5q-39 0 -54 7.5zM262 585q-17 0 -35.5 17t-18.5 32q0 5 3.5 9.5t9.5 11.5l143 148q6 7 17 7q15 0 34.5 -12t33 -29t13.5 -30q0 -6 -3.5 -11t-14.5 -12l-169 -127q-5 -4 -13 -4z" />
    <glyph glyph-name="Ncaron" unicode="&#x147;" 
d="M76 -1.5q-15 6.5 -15 21.5v650q0 19 21 27t70 8q45 0 61.5 -9.5t27.5 -38.5q125 -314 190 -514h16q-11 100 -18.5 264.5t-7.5 269.5q0 28 69 28q39 0 54 -6.5t15 -21.5v-650q0 -19 -21 -27t-70 -8q-44 0 -61 9t-28 39q-126 320 -190 514h-16q11 -100 18.5 -264.5
t7.5 -269.5q0 -15 -15.5 -21.5t-53.5 -6.5q-39 0 -54 6.5zM102 922q0 15 21 30.5t41 15.5q11 0 18 -6l128 -112l128 112q8 6 18 6q20 0 41 -15.5t21 -30.5q0 -4 -11 -15l-129 -136q-9 -10 -27.5 -15.5t-40.5 -5.5q-21 0 -40 5.5t-28 15.5l-129 136q-11 10 -11 15z" />
    <glyph glyph-name="ncaron" unicode="&#x148;" 
d="M421 -0.5q-15 7.5 -13 26.5q10 103 10 204q0 81 -7 117q-6 37 -26 53.5t-55 16.5q-71 0 -124 -53q7 -191 7 -344q0 -15 -14.5 -21.5t-52.5 -6.5q-37 0 -52 6.5t-15 21.5v354q0 43 -3 118l-1 20q0 15 14.5 21t51.5 6t51.5 -6t14.5 -21q0 -20 -4 -51h16q65 83 164 83
q134 0 159 -145q9 -55 9 -143q0 -115 -10 -236q-2 -15 -15.5 -21.5t-50.5 -6.5q-39 0 -54 7.5zM121 757q0 15 19.5 30.5t37.5 15.5q10 0 16 -6l116 -112l116 112q6 6 16 6q18 0 37.5 -15.5t19.5 -30.5q0 -3 -2.5 -6.5t-7.5 -8.5l-117 -136q-9 -10 -25.5 -15.5t-36.5 -5.5
t-36.5 5.5t-25.5 15.5l-117 136q-10 10 -10 15z" />
    <glyph glyph-name="Racute" unicode="&#x154;" 
d="M98 -1.5q-15 6.5 -15 21.5v345q0 91 6 131.5t21 63.5v16q-20 -5 -36 -5q-15 0 -20.5 11.5t-5.5 44.5q0 29 6.5 40.5t27.5 17.5q76 20 209 20q129 0 196 -56.5t67 -163.5q0 -144 -120 -221q40 -44 75.5 -92.5t58.5 -89.5q16 -28 16 -39q0 -19 -38 -35t-68 -16q-16 0 -24 8
t-20 33q-43 87 -109 180q-45 -3 -110 6q5 -106 5 -199q0 -15 -15 -21.5t-53 -6.5q-39 0 -54 6.5zM300 333q28 0 42 1q75 61 75 145q0 109 -124 109q-41 0 -76 -6q3 -54 3 -117q0 -69 -3 -126q42 -6 83 -6zM230 750q-18 0 -38.5 17t-20.5 32q0 5 3.5 9.5t10.5 11.5l157 148
q7 7 19 7q17 0 38 -12t36 -29t15 -30q0 -6 -4 -11t-16 -12l-186 -127q-5 -4 -14 -4z" />
    <glyph glyph-name="racute" unicode="&#x155;" 
d="M123.5 -1q-14.5 6 -14.5 21v323q-44 131 -44 154q0 18 37 31.5t66 13.5q13 0 19.5 -4t10.5 -15q12 -33 26 -113h10q77 134 203 134q29 0 55.5 -7.5t38.5 -19.5q15 -16 28 -73.5t13 -105.5q0 -20 -25 -29t-64 -9q-24 0 -33.5 4.5t-12.5 15.5q-10 61 -13 93q-12 2 -18 2
q-108 0 -171 -137q7 -129 7 -258q0 -15 -14 -21t-52 -6t-52.5 6zM262 585q-17 0 -35.5 17t-18.5 32q0 5 3.5 9.5t9.5 11.5l143 148q6 7 17 7q15 0 34.5 -12t33 -29t13.5 -30q0 -6 -3.5 -11t-14.5 -12l-169 -127q-5 -4 -13 -4z" />
    <glyph glyph-name="Rcaron" unicode="&#x158;" 
d="M98 -1.5q-15 6.5 -15 21.5v345q0 91 6 131.5t21 63.5v16q-20 -5 -36 -5q-15 0 -20.5 11.5t-5.5 44.5q0 29 6.5 40.5t27.5 17.5q76 20 209 20q129 0 196 -56.5t67 -163.5q0 -144 -120 -221q40 -44 75.5 -92.5t58.5 -89.5q16 -28 16 -39q0 -19 -38 -35t-68 -16q-16 0 -24 8
t-20 33q-43 87 -109 180q-45 -3 -110 6q5 -106 5 -199q0 -15 -15 -21.5t-53 -6.5q-39 0 -54 6.5zM300 333q28 0 42 1q75 61 75 145q0 109 -124 109q-41 0 -76 -6q3 -54 3 -117q0 -69 -3 -126q42 -6 83 -6zM102 922q0 15 21 30.5t41 15.5q11 0 18 -6l128 -112l128 112
q8 6 18 6q20 0 41 -15.5t21 -30.5q0 -4 -11 -15l-129 -136q-9 -10 -27.5 -15.5t-40.5 -5.5q-21 0 -40 5.5t-28 15.5l-129 136q-11 10 -11 15z" />
    <glyph glyph-name="rcaron" unicode="&#x159;" 
d="M123.5 -1q-14.5 6 -14.5 21v323q-44 131 -44 154q0 18 37 31.5t66 13.5q13 0 19.5 -4t10.5 -15q12 -33 26 -113h10q77 134 203 134q29 0 55.5 -7.5t38.5 -19.5q15 -16 28 -73.5t13 -105.5q0 -20 -25 -29t-64 -9q-24 0 -33.5 4.5t-12.5 15.5q-10 61 -13 93q-12 2 -18 2
q-108 0 -171 -137q7 -129 7 -258q0 -15 -14 -21t-52 -6t-52.5 6zM121 757q0 15 19.5 30.5t37.5 15.5q10 0 16 -6l116 -112l116 112q6 6 16 6q18 0 37.5 -15.5t19.5 -30.5q0 -3 -2.5 -6.5t-7.5 -8.5l-117 -136q-9 -10 -25.5 -15.5t-36.5 -5.5t-36.5 5.5t-25.5 15.5l-117 136
q-10 10 -10 15z" />
    <glyph glyph-name="Sacute" unicode="&#x15a;" 
d="M197 -6q-48 9 -86 26q-20 7 -29 17t-9 28q0 26 14.5 54t32.5 28q3 0 9 -2q90 -40 168 -40q116 0 116 86q0 35 -25 53.5t-91 32.5q-68 14 -114 35t-75 65.5t-29 119.5q0 108 62 161.5t179 53.5q57 0 109 -12t68 -28q13 -13 21.5 -49.5t8.5 -68.5q0 -20 -28 -30t-71 -10
q-12 0 -17.5 4.5t-7.5 16.5l-6 48q-34 13 -76 13q-109 0 -109 -90q0 -43 27 -62.5t85 -32.5q79 -17 127 -42.5t71.5 -66t23.5 -103.5q0 -106 -65 -160t-186 -54q-50 0 -98 9zM230 750q-18 0 -38.5 17t-20.5 32q0 5 3.5 9.5t10.5 11.5l157 148q7 7 19 7q17 0 38 -12t36 -29
t15 -30q0 -6 -4 -11t-16 -12l-186 -127q-5 -4 -14 -4z" />
    <glyph glyph-name="sacute" unicode="&#x15b;" 
d="M197.5 -2.5q-51.5 9.5 -85.5 25.5q-13 6 -17.5 12.5t-4.5 16.5q0 29 15.5 57.5t34.5 20.5q86 -35 168 -35q50 0 73 14t23 42q0 25 -20.5 37.5t-77.5 21.5q-70 11 -113 26t-69.5 48t-26.5 91q0 85 59 127.5t168 42.5q101 0 172 -34q13 -6 17.5 -12.5t4.5 -15.5
q0 -27 -13 -53.5t-32 -26.5q-3 0 -9 2q-80 35 -149 35q-46 0 -67 -14t-21 -42q0 -27 21 -38t75 -19q112 -19 161.5 -57t49.5 -112q0 -86 -59 -128t-171 -42q-55 0 -106.5 9.5zM262 585q-17 0 -35.5 17t-18.5 32q0 5 3.5 9.5t9.5 11.5l143 148q6 7 17 7q15 0 34.5 -12t33 -29
t13.5 -30q0 -6 -3.5 -11t-14.5 -12l-169 -127q-5 -4 -13 -4z" />
    <glyph glyph-name="Scircumflex" unicode="&#x15c;" 
d="M197 -6q-48 9 -86 26q-20 7 -29 17t-9 28q0 26 14.5 54t32.5 28q3 0 9 -2q90 -40 168 -40q116 0 116 86q0 35 -25 53.5t-91 32.5q-68 14 -114 35t-75 65.5t-29 119.5q0 108 62 161.5t179 53.5q57 0 109 -12t68 -28q13 -13 21.5 -49.5t8.5 -68.5q0 -20 -28 -30t-71 -10
q-12 0 -17.5 4.5t-7.5 16.5l-6 48q-34 13 -76 13q-109 0 -109 -90q0 -43 27 -62.5t85 -32.5q79 -17 127 -42.5t71.5 -66t23.5 -103.5q0 -106 -65 -160t-186 -54q-50 0 -98 9zM519 797q0 -15 -21 -30.5t-41 -15.5q-10 0 -18 6l-128 112l-128 -112q-7 -6 -18 -6
q-20 0 -41 15.5t-21 30.5q0 4 11 15l129 136q9 10 28 15.5t40 5.5q22 0 40.5 -5.5t27.5 -15.5l129 -136q11 -10 11 -15z" />
    <glyph glyph-name="scircumflex" unicode="&#x15d;" 
d="M197.5 -2.5q-51.5 9.5 -85.5 25.5q-13 6 -17.5 12.5t-4.5 16.5q0 29 15.5 57.5t34.5 20.5q86 -35 168 -35q50 0 73 14t23 42q0 25 -20.5 37.5t-77.5 21.5q-70 11 -113 26t-69.5 48t-26.5 91q0 85 59 127.5t168 42.5q101 0 172 -34q13 -6 17.5 -12.5t4.5 -15.5
q0 -27 -13 -53.5t-32 -26.5q-3 0 -9 2q-80 35 -149 35q-46 0 -67 -14t-21 -42q0 -27 21 -38t75 -19q112 -19 161.5 -57t49.5 -112q0 -86 -59 -128t-171 -42q-55 0 -106.5 9.5zM499 635q0 -15 -19.5 -30.5t-37.5 -15.5q-10 0 -16 6l-116 112l-116 -112q-6 -6 -16 -6
q-18 0 -37.5 15.5t-19.5 30.5q0 3 2.5 6.5t7.5 8.5l117 136q9 10 25.5 15.5t36.5 5.5t36.5 -5.5t25.5 -15.5l117 -136q10 -10 10 -15z" />
    <glyph glyph-name="Scedilla" unicode="&#x15e;" 
d="M87.5 119q14.5 28 32.5 28q3 0 9 -2q90 -40 168 -40q116 0 116 86q0 35 -25 53.5t-91 32.5q-68 14 -114 35t-75 65.5t-29 119.5q0 108 62 161.5t179 53.5q57 0 109 -12t68 -28q13 -13 21.5 -49.5t8.5 -68.5q0 -20 -28 -30t-71 -10q-12 0 -17.5 4.5t-7.5 16.5l-6 48
q-34 13 -76 13q-109 0 -109 -90q0 -43 27 -62.5t85 -32.5q79 -17 127 -42.5t71.5 -66t23.5 -103.5q0 -94 -50 -147t-146 -64l-1 -5l-30 -160q-1 -12 -15.5 -18t-34.5 -6q-26 0 -47.5 9t-21.5 23q0 8 7 27l51 128q-84 6 -147 34q-20 7 -29 17t-9 28q0 26 14.5 54z" />
    <glyph glyph-name="scedilla" unicode="&#x15f;" 
d="M105.5 109.5q15.5 28.5 34.5 20.5q86 -35 168 -35q50 0 73 14t23 42q0 25 -20.5 37.5t-77.5 21.5q-70 11 -113 26t-69.5 48t-26.5 91q0 85 59 127.5t168 42.5q101 0 172 -34q13 -6 17.5 -12.5t4.5 -15.5q0 -27 -13 -53.5t-32 -26.5q-3 0 -9 2q-80 35 -149 35
q-46 0 -67 -14t-21 -42q0 -27 21 -38t75 -19q112 -19 161.5 -57t49.5 -112q0 -151 -184 -168l-1 -7l-30 -160q-1 -12 -15.5 -18t-34.5 -6q-26 0 -47.5 9t-21.5 23q0 8 7 27l52 132q-88 6 -147 33q-13 6 -17.5 12.5t-4.5 16.5q0 29 15.5 57.5z" />
    <glyph glyph-name="Utilde" unicode="&#x168;" 
d="M148 36q-58 48 -74 143q-11 72 -11 198q0 135 9 300q2 15 16 21.5t52 6.5q40 0 55 -7.5t13 -26.5q-8 -129 -8 -267q0 -123 5 -173q6 -63 32 -88.5t73 -25.5t73 25.5t32 88.5q6 48 6 173q0 122 -9 267q-2 19 13 26.5t55 7.5q38 0 52 -6.5t16 -21.5q9 -141 9 -300
q0 -126 -11 -198q-31 -191 -236 -191q-104 0 -162 48zM339.5 780q-29.5 18 -62.5 50q-21 20 -34 29t-26 9q-19 0 -31 -22.5t-19 -68.5q-1 -9 -13.5 -14t-30.5 -5q-23 0 -41 7t-17 19q7 93 45 139.5t99 46.5q42 0 71.5 -18t62.5 -50q22 -21 34.5 -30t26.5 -9q19 0 31 22.5
t19 68.5q1 10 14 15t31 5q23 0 40.5 -7.5t16.5 -19.5q-6 -93 -44.5 -139t-100.5 -46q-42 0 -71.5 18z" />
    <glyph glyph-name="utilde" unicode="&#x169;" 
d="M199 532.5q15 -7.5 13 -26.5q-10 -103 -10 -204q0 -81 7 -117q6 -37 26 -53.5t55 -16.5q71 0 124 53q-7 191 -7 344q0 15 14.5 21.5t52.5 6.5q37 0 52 -6.5t15 -21.5v-354q0 -43 3 -118l1 -20q0 -15 -14.5 -21t-51.5 -6t-51.5 6t-14.5 21q0 20 4 51h-16q-65 -83 -164 -83
q-134 0 -159 145q-9 56 -9 143q0 115 10 236q2 15 15.5 21.5t50.5 6.5q39 0 54 -7.5zM337 620q-27 18 -57 50q-21 21 -31.5 29.5t-23.5 8.5q-33 0 -45 -91q-1 -9 -12.5 -14t-27.5 -5q-21 0 -37.5 7t-15.5 19q6 93 41 139.5t90 46.5q38 0 64 -17.5t58 -50.5q20 -21 31 -30
t24 -9q18 0 29 22.5t17 68.5q1 10 13 15t28 5q20 0 36.5 -7.5t15.5 -19.5q-6 -93 -41 -139t-91 -46q-38 0 -65 18z" />
    <glyph glyph-name="Wcircumflex" unicode="&#x174;" 
d="M127 3.5q-13 10.5 -20 46.5q-26 114 -46 276t-29 302l-2 50q0 14 15 21t50 7t49.5 -6.5t15.5 -22.5q0 -275 32 -557h16q38 117 55 227q-9 96 -9 144q0 32 56 32t56 -32q0 -48 -9 -144q17 -110 55 -227h16q32 282 32 557q1 16 15.5 22.5t49.5 6.5t50 -7t15 -21l-2 -50
q-9 -140 -29 -302t-46 -276q-7 -36 -20 -46.5t-51 -10.5q-40 0 -54 9.5t-22 37.5q-34 124 -48 253h-16q-14 -129 -48 -253q-8 -28 -22 -37.5t-54 -9.5q-38 0 -51 10.5zM519 797q0 -15 -21 -30.5t-41 -15.5q-10 0 -18 6l-128 112l-128 -112q-7 -6 -18 -6q-20 0 -41 15.5
t-21 30.5q0 4 11 15l129 136q9 10 28 15.5t40 5.5q22 0 40.5 -5.5t27.5 -15.5l129 -136q11 -10 11 -15z" />
    <glyph glyph-name="wcircumflex" unicode="&#x175;" 
d="M126.5 4.5q-13.5 10.5 -20.5 45.5q-20 85 -36.5 201.5t-22.5 216.5l-2 44q0 14 14.5 21t47.5 7t46.5 -6.5t13.5 -22.5q0 -199 25 -394h16q37 79 55 158q-7 89 -7 112q0 17 13 25t41 8t41 -8t13 -25q0 -23 -7 -112q18 -79 55 -158h16q25 195 25 394q0 16 13.5 22.5
t46.5 6.5t47.5 -7t14.5 -21l-2 -44q-6 -100 -22.5 -216.5t-36.5 -201.5q-7 -35 -20.5 -45.5t-51.5 -10.5q-39 0 -53.5 9.5t-23.5 38.5q-31 82 -47 171h-16q-16 -89 -47 -171q-9 -29 -23.5 -38.5t-53.5 -9.5q-38 0 -51.5 10.5zM499 635q0 -15 -19.5 -30.5t-37.5 -15.5
q-10 0 -16 6l-116 112l-116 -112q-6 -6 -16 -6q-18 0 -37.5 15.5t-19.5 30.5q0 3 2.5 6.5t7.5 8.5l117 136q9 10 25.5 15.5t36.5 5.5t36.5 -5.5t25.5 -15.5l117 -136q10 -10 10 -15z" />
    <glyph glyph-name="Ycircumflex" unicode="&#x176;" 
d="M241 20q0 106 7 245q-117 166 -195 371q-6 17 -6 26q0 17 31 30.5t66 13.5q18 0 27 -8t14 -26q48 -150 117 -280h16q69 130 117 280q5 18 14 26t27 8q35 0 66 -13.5t31 -30.5q0 -9 -6 -26q-76 -205 -195 -371q7 -139 7 -245q0 -28 -69 -28t-69 28zM519 797
q0 -15 -21 -30.5t-41 -15.5q-10 0 -18 6l-128 112l-128 -112q-7 -6 -18 -6q-20 0 -41 15.5t-21 30.5q0 4 11 15l129 136q9 10 28 15.5t40 5.5q22 0 40.5 -5.5t27.5 -15.5l129 -136q11 -10 11 -15z" />
    <glyph glyph-name="Zacute" unicode="&#x179;" 
d="M57 14.5q-8 14.5 -8 45.5t7.5 50t27.5 48q98 141 161.5 228t134.5 174v15q-160 -7 -286 -7q-25 0 -25 65q0 64 25 64h423q17 0 24.5 -15t7.5 -46q0 -30 -7.5 -49.5t-27.5 -47.5q-90 -131 -156.5 -222.5t-139.5 -179.5v-15q174 7 327 7q25 0 25 -65q0 -64 -25 -64h-464
q-16 0 -24 14.5zM230 750q-18 0 -38.5 17t-20.5 32q0 5 3.5 9.5t10.5 11.5l157 148q7 7 19 7q17 0 38 -12t36 -29t15 -30q0 -6 -4 -11t-16 -12l-186 -127q-5 -4 -14 -4z" />
    <glyph glyph-name="zacute" unicode="&#x17a;" 
d="M80.5 13.5q-6.5 13.5 -6.5 44.5q0 25 7 41.5t35 47.5q139 160 242 259v14q-125 -7 -239 -7q-25 0 -25 59q0 60 25 60h374q18 0 25 -14.5t7 -49.5q0 -21 -7 -37.5t-34 -45.5q-123 -145 -243 -259v-14q141 7 279 7q26 0 26 -59q0 -60 -26 -60h-414q-19 0 -25.5 13.5z
M262 585q-17 0 -35.5 17t-18.5 32q0 5 3.5 9.5t9.5 11.5l143 148q6 7 17 7q15 0 34.5 -12t33 -29t13.5 -30q0 -6 -3.5 -11t-14.5 -12l-169 -127q-5 -4 -13 -4z" />
    <glyph glyph-name="Zdotaccent" unicode="&#x17b;" 
d="M57 14.5q-8 14.5 -8 45.5t7.5 50t27.5 48q98 141 161.5 228t134.5 174v15q-160 -7 -286 -7q-25 0 -25 65q0 64 25 64h423q17 0 24.5 -15t7.5 -46q0 -30 -7.5 -49.5t-27.5 -47.5q-90 -131 -156.5 -222.5t-139.5 -179.5v-15q174 7 327 7q25 0 25 -65q0 -64 -25 -64h-464
q-16 0 -24 14.5zM232 789.5q-22 15.5 -22 52.5q0 36 22 51.5t78 15.5t78 -15.5t22 -51.5q0 -37 -21.5 -52.5t-78.5 -15.5q-56 0 -78 15.5z" />
    <glyph glyph-name="zcaron" unicode="&#x17e;" 
d="M80.5 13.5q-6.5 13.5 -6.5 44.5q0 25 7 41.5t35 47.5q139 160 242 259v14q-125 -7 -239 -7q-25 0 -25 59q0 60 25 60h374q18 0 25 -14.5t7 -49.5q0 -21 -7 -37.5t-34 -45.5q-123 -145 -243 -259v-14q141 7 279 7q26 0 26 -59q0 -60 -26 -60h-414q-19 0 -25.5 13.5z
M121 757q0 15 19.5 30.5t37.5 15.5q10 0 16 -6l116 -112l116 112q6 6 16 6q18 0 37.5 -15.5t19.5 -30.5q0 -3 -2.5 -6.5t-7.5 -8.5l-117 -136q-9 -10 -25.5 -15.5t-36.5 -5.5t-36.5 5.5t-25.5 15.5l-117 136q-10 10 -10 15z" />
    <glyph glyph-name="uni0401" unicode="&#x401;" 
d="M116 11.5q-11 11.5 -11 31.5v323q0 91 6 131t20 64v16q-24 -3 -36 -3q-13 0 -19 13.5t-6 48.5q0 34 6 47.5t19 13.5h424q13 0 19 -13.5t6 -47.5q0 -35 -6 -48.5t-19 -13.5q-127 0 -281 7q4 -40 4 -86t-4 -86q141 6 242 6q13 0 19 -13.5t6 -45.5q0 -34 -6 -46t-19 -12
q-101 0 -242 5q4 -41 4 -93q0 -50 -4 -94q156 7 286 7q13 0 18.5 -13.5t5.5 -48.5t-5.5 -48t-18.5 -13h-376q-21 0 -32 11.5zM105 789.5q-20 15.5 -20 52.5q0 36 20 51.5t73 15.5t73.5 -15.5t20.5 -51.5q0 -37 -20.5 -52.5t-73.5 -15.5t-73 15.5zM369.5 893.5
q20.5 15.5 72.5 15.5q53 0 73.5 -15.5t20.5 -51.5q0 -37 -20.5 -52.5t-73.5 -15.5q-52 0 -72.5 15.5t-20.5 52.5q0 36 20.5 51.5z" />
    <glyph glyph-name="uni040E" unicode="&#x40e;" 
d="M73 1q-6 6 -7.5 16.5t-1.5 34.5q0 37 6 50.5t18 13.5q6 0 19 -1.5t24 -1.5q58 0 95 23.5t64 75.5l-3 9q-37 -8 -58 -8q-10 0 -17 7t-15 23q-39 78 -83.5 187.5t-66.5 180.5q-9 32 -9 49q0 18 36 31.5t74 13.5q11 0 17.5 -8t11.5 -28q21 -82 56 -178.5t76 -186.5h20
q60 167 108 365q4 21 11 28.5t20 7.5q37 0 73.5 -14t36.5 -31q0 -11 -7 -32q-22 -77 -59 -184.5t-69 -186.5q-53 -145 -124.5 -207t-177.5 -62q-55 0 -68 13zM189 794.5q-48 42.5 -64 117.5q-3 13 21 24t48 11q22 0 25 -11q10 -49 30 -72t61 -23t61 23t30 72q3 11 25 11
q24 0 48 -11t21 -24q-16 -75 -64 -117.5t-121 -42.5t-121 42.5z" />
    <glyph glyph-name="uni0410" unicode="&#x410;" 
d="M54.5 -2q-16.5 6 -16.5 19q0 4 5 42q54 306 159 606q8 23 30 32t78 9q57 0 79 -9t29 -32q105 -300 159 -606q5 -38 5 -42q0 -13 -16.5 -19t-53.5 -6q-35 0 -49.5 6t-17.5 25q-15 80 -22 145q-63 -5 -113 -5t-113 5q-7 -65 -22 -145q-3 -19 -17.5 -25t-49.5 -6
q-37 0 -53.5 6zM310 279q49 0 98 -3q-17 58 -33 122q-45 162 -56 197h-18q-11 -35 -56 -197q-16 -64 -33 -122q50 3 98 3z" />
    <glyph glyph-name="uni0411" unicode="&#x411;" 
d="M201.5 -1.5q-52.5 6.5 -83.5 18.5q-19 7 -25.5 16t-6.5 29v304q0 91 6 131t20 64v16q-24 -3 -36 -3q-13 0 -19 13.5t-6 48.5q0 34 6 47.5t19 13.5h423q13 0 19 -13.5t6 -50.5q0 -36 -6 -50.5t-19 -14.5q-138 0 -279 7q4 -37 4 -81q0 -42 -4 -77q46 11 99 11
q122 0 185 -55.5t63 -163.5q0 -217 -264 -217q-49 0 -101.5 6.5zM223 210q0 -29 -2 -89q33 -12 84 -12q65 0 94 25.5t29 81.5t-29 81.5t-94 25.5q-49 0 -85 -10q3 -51 3 -103z" />
    <glyph glyph-name="uni0412" unicode="&#x412;" 
d="M188 -1q-50 7 -80 19q-19 7 -26 17t-7 29v301q0 91 6 131t20 64v16q-19 -5 -35 -5q-15 0 -20.5 11.5t-5.5 44.5q0 29 6.5 40.5t26.5 17.5q77 20 212 20q251 0 251 -183q0 -54 -23.5 -91.5t-71.5 -64.5v-16q60 -16 92.5 -56t32.5 -104q0 -96 -71 -147t-209 -51
q-48 0 -98 7zM212 194q0 -42 -3 -84q29 -12 79 -12q70 0 105.5 25.5t35.5 75.5q0 48 -33.5 74t-96.5 26q-47 0 -91 -6q4 -66 4 -99zM331 391q68 45 68 118q0 90 -113 90q-37 0 -77 -5q3 -49 3 -99q0 -37 -4 -109q70 8 123 5z" />
    <glyph glyph-name="uni0413" unicode="&#x413;" 
d="M135 -1.5q-15 6.5 -15 21.5v346q0 91 6 131.5t21 63.5v16q-25 -3 -37 -3q-13 0 -19 13.5t-6 48.5q0 34 6 47.5t19 13.5h415q13 0 19 -13.5t6 -50.5q0 -36 -6 -50.5t-19 -14.5q-130 0 -275 7q7 -190 7 -555q0 -15 -15 -21.5t-54 -6.5q-38 0 -53 6.5z" />
    <glyph glyph-name="uni0414" unicode="&#x414;" 
d="M41.5 -152.5q-15.5 6.5 -15.5 20.5v217q0 21 11 32.5t32 11.5h5q40 52 58.5 151t18.5 291q-18 -3 -30 -3q-13 0 -19 13.5t-6 51.5q0 36 6 50t19 14h377q21 0 32 -11.5t11 -31.5q0 -202 -4.5 -316.5t-18.5 -208.5h33q21 0 32 -11.5t11 -32.5v-217q0 -14 -15.5 -20.5
t-53.5 -6.5t-53 6.5t-15 20.5q0 67 7 137q-87 -5 -154 -5q-66 0 -154 5q7 -70 7 -137q0 -14 -15 -20.5t-53 -6.5t-53.5 6.5zM302 129q60 0 107 -4q-5 118 -5 205q0 96 7 241q-37 -3 -75 -3t-76 3q3 -31 3 -63q0 -150 -19 -240.5t-58 -143.5q65 5 116 5z" />
    <glyph glyph-name="uni0415" unicode="&#x415;" 
d="M116 11.5q-11 11.5 -11 31.5v323q0 91 6 131t20 64v16q-24 -3 -36 -3q-13 0 -19 13.5t-6 48.5q0 34 6 47.5t19 13.5h424q13 0 19 -13.5t6 -47.5q0 -35 -6 -48.5t-19 -13.5q-127 0 -281 7q4 -40 4 -86t-4 -86q141 6 242 6q13 0 19 -13.5t6 -45.5q0 -34 -6 -46t-19 -12
q-101 0 -242 5q4 -41 4 -93q0 -50 -4 -94q156 7 286 7q13 0 18.5 -13.5t5.5 -48.5t-5.5 -48t-18.5 -13h-376q-21 0 -32 11.5z" />
    <glyph glyph-name="uni0416" unicode="&#x416;" 
d="M488 -1.5q-7 6.5 -11 24.5q-33 146 -91 275q-8 -1 -30 -1q14 -176 14 -277q0 -15 -13.5 -21.5t-46.5 -6.5t-46.5 6.5t-13.5 21.5q0 101 14 277q-22 0 -30 1q-58 -129 -91 -275q-4 -18 -11 -24.5t-22 -6.5q-30 0 -60 10.5t-30 28.5q0 15 11 52q20 65 52 144.5t65 139.5
q-30 51 -60.5 122t-47.5 126q-10 36 -10 52q0 18 25.5 28t52.5 10q18 0 26.5 -7t11.5 -24q34 -137 88 -259q18 -2 30 -2q-14 171 -14 264q0 15 13.5 21.5t46.5 6.5q34 0 47 -6.5t13 -21.5q0 -93 -14 -264q14 0 30 2q54 122 88 259q3 17 11.5 24t26.5 7q27 0 52.5 -10
t25.5 -28q0 -16 -10 -52q-17 -55 -47.5 -126t-60.5 -122q33 -60 65 -139.5t52 -144.5q11 -37 11 -52q0 -18 -30 -28.5t-60 -10.5q-15 0 -22 6.5z" />
    <glyph glyph-name="uni0417" unicode="&#x417;" 
d="M197.5 -5.5q-49.5 9.5 -86.5 24.5q-20 9 -29 18.5t-9 23.5q0 24 15 57.5t32 33.5q7 0 30 -10q34 -15 68 -25t77 -10q58 0 87.5 23t29.5 64q0 34 -24 58.5t-76 41.5q-56 -7 -108 -7q-16 0 -25 16t-9 48q0 61 32 61q20 0 56.5 -4t65.5 -9q41 30 59 57t18 57q0 70 -107 70
q-39 0 -75 -12l-6 -44q-2 -11 -7.5 -16t-17.5 -5q-42 0 -70 10t-28 31q0 32 8.5 68.5t21.5 49.5q15 16 69.5 28.5t113.5 12.5q108 0 166.5 -41.5t58.5 -118.5q0 -108 -109 -178v-15q64 -25 95.5 -66.5t31.5 -103.5q0 -93 -65.5 -145.5t-182.5 -52.5q-51 0 -100.5 9.5z" />
    <glyph glyph-name="uni0418" unicode="&#x418;" 
d="M183.5 698.5q15.5 -6.5 15.5 -21.5q0 -105 -7.5 -269.5t-18.5 -264.5h16q64 194 190 514q11 30 28 39t61 9q49 0 70 -8t21 -27v-650q0 -15 -15 -21.5t-54 -6.5q-69 0 -69 28q0 105 7.5 269.5t18.5 264.5h-16q-65 -200 -190 -514q-11 -29 -27.5 -38.5t-61.5 -9.5
q-49 0 -70 8t-21 27v650q0 15 15 21.5t54 6.5q38 0 53.5 -6.5z" />
    <glyph glyph-name="uni0419" unicode="&#x419;" 
d="M183.5 698.5q15.5 -6.5 15.5 -21.5q0 -105 -7.5 -269.5t-18.5 -264.5h16q64 194 190 514q11 30 28 39t61 9q49 0 70 -8t21 -27v-650q0 -15 -15 -21.5t-54 -6.5q-69 0 -69 28q0 105 7.5 269.5t18.5 264.5h-16q-65 -200 -190 -514q-11 -29 -27.5 -38.5t-61.5 -9.5
q-49 0 -70 8t-21 27v650q0 15 15 21.5t54 6.5q38 0 53.5 -6.5zM189 794.5q-48 42.5 -64 117.5q-3 13 21 24t48 11q22 0 25 -11q10 -49 30 -72t61 -23t61 23t30 72q3 11 25 11q24 0 48 -11t21 -24q-16 -75 -64 -117.5t-121 -42.5t-121 42.5z" />
    <glyph glyph-name="uni041A" unicode="&#x41a;" 
d="M445 -1.5q-7 6.5 -14 24.5q-30 69 -72.5 138.5t-93.5 130.5q-36 -4 -62 -5q7 -148 7 -267q0 -15 -15 -21.5t-54 -6.5q-38 0 -53 6.5t-15 21.5v657q0 15 15 21.5t53 6.5q39 0 54 -6.5t15 -21.5q0 -118 -7 -262q32 2 62 6q85 122 144 254q9 17 15.5 23.5t17.5 6.5
q36 0 73 -15.5t37 -34.5q0 -13 -13 -39q-29 -56 -77 -128.5t-97 -126.5q58 -62 111.5 -139.5t83.5 -139.5q14 -28 14 -41q0 -19 -38 -34t-74 -15q-10 0 -17 6.5z" />
    <glyph glyph-name="uni041B" unicode="&#x41b;" 
d="M67 7.5q-20 15.5 -34 37t-14 36.5q0 16 17 27q42 32 68 81.5t41 140t18 241.5q-18 -3 -30 -3q-13 0 -19 13.5t-6 51.5q0 36 6 50t19 14h377q21 0 32 -11.5t11 -31.5v-634q0 -15 -15 -21.5t-53 -6.5q-39 0 -54 6.5t-15 21.5q0 367 7 551q-37 -3 -75 -3t-76 3q3 -42 3 -86
q0 -144 -17 -238.5t-49.5 -152t-83.5 -94.5q-11 -8 -21 -8q-17 0 -37 15.5z" />
    <glyph glyph-name="uni041C" unicode="&#x41c;" 
d="M58.5 -0.5q-14.5 7.5 -14.5 21.5q0 150 6.5 330t17.5 315q2 22 23 31t68 9q42 0 60 -9t22 -32q38 -155 61 -320h16q23 165 61 320q4 23 22 32t60 9q47 0 68 -9t23 -31q11 -135 17.5 -315t6.5 -330q0 -14 -14.5 -21.5t-48.5 -7.5t-48 6.5t-14 21.5q5 155 5 288
q0 93 -4 265h-16q-39 -153 -65 -312q-2 -17 -16 -25t-45 -8t-45 8t-16 25q-24 143 -65 312h-16q-4 -172 -4 -265q0 -133 5 -288q0 -15 -14 -21.5t-48 -6.5t-48.5 7.5z" />
    <glyph glyph-name="uni041D" unicode="&#x41d;" 
d="M82 -1.5q-15 6.5 -15 21.5v657q0 15 15 21.5t53 6.5q39 0 54 -6.5t15 -21.5q0 -124 -7 -260q63 5 113 5t113 -5q-7 136 -7 260q0 15 15 21.5t54 6.5q38 0 53 -6.5t15 -21.5v-657q0 -15 -15 -21.5t-53 -6.5q-39 0 -54 6.5t-15 21.5q0 134 7 279q-51 -4 -113 -4t-113 4
q7 -145 7 -279q0 -15 -15 -21.5t-54 -6.5q-38 0 -53 6.5z" />
    <glyph glyph-name="uni041E" unicode="&#x41e;" 
d="M100 66.5q-61 78.5 -61 252.5q0 138 29.5 223.5t92 126t163.5 40.5q135 0 196 -78.5t61 -252.5q0 -138 -29.5 -223.5t-92 -126t-162.5 -40.5q-136 0 -197 78.5zM189 199.5q12 -47.5 39 -68t74 -20.5q54 0 84.5 24.5t43.5 79.5t13 153q0 83 -12 130t-39 67.5t-75 20.5
q-53 0 -83.5 -24.5t-43.5 -79.5t-13 -152q0 -83 12 -130.5z" />
    <glyph glyph-name="uni041F" unicode="&#x41f;" 
d="M82 -1.5q-15 6.5 -15 21.5v346q0 92 6 132t20 63v16q-25 -3 -37 -3q-13 0 -19 13.5t-6 48.5q0 34 6 47.5t19 13.5h454q21 0 32 -11.5t11 -31.5v-634q0 -15 -15 -21.5t-53 -6.5q-39 0 -54 6.5t-15 21.5q0 365 7 552q-76 -4 -113 -4t-113 4q7 -187 7 -552q0 -15 -15 -21.5
t-54 -6.5q-38 0 -53 6.5z" />
    <glyph glyph-name="uni0420" unicode="&#x420;" 
d="M101 -1.5q-15 6.5 -15 21.5v333q0 91 6 131t20 64v16q-19 -5 -35 -5q-15 0 -20.5 12.5t-5.5 49.5q0 33 6.5 45.5t26.5 18.5q77 20 213 20q270 0 270 -256q0 -126 -66 -191.5t-194 -65.5q-41 0 -89 10q5 -102 5 -182q0 -15 -15 -21.5t-54 -6.5q-38 0 -53 6.5zM299 309
q68 0 98.5 33.5t30.5 106.5t-30 106t-99 33q-42 0 -79 -8q3 -55 3 -122q0 -77 -3 -140q39 -9 79 -9z" />
    <glyph glyph-name="uni0421" unicode="&#x421;" 
d="M124.5 67.5q-68.5 78.5 -68.5 260.5q0 185 78 282.5t224 97.5q62 0 109 -16t66 -41q12 -14 21 -63.5t9 -79.5q0 -23 -29 -34.5t-65 -11.5q-18 0 -25 5.5t-9 22.5q-6 39 -9 78q-12 8 -33 12.5t-44 4.5q-157 0 -157 -246q0 -83 16.5 -132t49.5 -69.5t85 -20.5q76 0 167 44
q6 2 9 2q19 0 33.5 -32.5t14.5 -59.5q0 -20 -17 -28q-42 -24 -102.5 -39t-118.5 -15q-136 0 -204.5 78.5z" />
    <glyph glyph-name="uni0422" unicode="&#x422;" 
d="M256.5 -1.5q-15.5 6.5 -15.5 21.5q0 182 1.5 305t6.5 250q-102 -7 -185 -7q-13 0 -18.5 14t-5.5 51q0 35 6 49.5t18 14.5h492q12 0 18 -14.5t6 -49.5q0 -37 -5.5 -51t-18.5 -14q-66 0 -185 7q5 -127 6.5 -250t1.5 -305q0 -15 -15 -21.5t-54 -6.5q-38 0 -53.5 6.5z" />
    <glyph glyph-name="uni0423" unicode="&#x423;" 
d="M73 1q-6 6 -7.5 16.5t-1.5 34.5q0 37 6 50.5t18 13.5q6 0 19 -1.5t24 -1.5q58 0 95 23.5t64 75.5l-3 9q-37 -8 -58 -8q-10 0 -17 7t-15 23q-39 78 -83.5 187.5t-66.5 180.5q-9 32 -9 49q0 18 36 31.5t74 13.5q11 0 17.5 -8t11.5 -28q21 -82 56 -178.5t76 -186.5h20
q60 167 108 365q4 21 11 28.5t20 7.5q37 0 73.5 -14t36.5 -31q0 -11 -7 -32q-22 -77 -59 -184.5t-69 -186.5q-53 -145 -124.5 -207t-177.5 -62q-55 0 -68 13z" />
    <glyph glyph-name="uni0424" unicode="&#x424;" 
d="M256.5 -8.5q-15.5 6.5 -15.5 20.5q0 32 5 62q-114 10 -165.5 73t-51.5 188q0 132 52 200.5t165 84.5q-5 42 -5 65q0 14 15.5 20.5t53.5 6.5t53.5 -6.5t15.5 -20.5q0 -32 -5 -62q113 -10 165 -73t52 -188q0 -133 -52 -201.5t-165 -83.5q5 -42 5 -65q0 -14 -15.5 -20.5
t-53.5 -6.5t-53.5 6.5zM174 221q25 -36 89 -42q-4 75 -4 170q0 94 4 167q-64 -9 -89 -49t-25 -127q0 -83 25 -119zM446 231q25 40 25 127q0 82 -25 117.5t-89 42.5q4 -75 4 -168q0 -94 -4 -169q64 10 89 50z" />
    <glyph glyph-name="uni0425" unicode="&#x425;" 
d="M73.5 3.5q-34.5 15.5 -34.5 34.5q0 15 12 40q28 64 74.5 143.5t93.5 143.5q-41 59 -83 130t-66 123q-13 26 -13 40q0 19 33.5 35t66.5 16q13 0 20.5 -7.5t15.5 -28.5q49 -120 107 -221h20q58 101 107 221q8 21 16 28.5t20 7.5q33 0 66.5 -16t33.5 -35q0 -14 -13 -40
q-24 -52 -66 -123t-83 -130q47 -64 93.5 -143.5t74.5 -143.5q12 -25 12 -40q0 -19 -34.5 -34.5t-66.5 -15.5q-12 0 -19.5 7.5t-15.5 29.5q-50 130 -125 252h-20q-73 -117 -124 -252q-8 -22 -16 -29.5t-20 -7.5q-32 0 -66.5 15.5z" />
    <glyph glyph-name="uni0426" unicode="&#x426;" 
d="M470.5 -152.5q-15.5 6.5 -15.5 20.5q0 67 8 139q-123 -7 -353 -7q-21 0 -32 11.5t-11 31.5v634q0 15 15 21.5t53 6.5q39 0 54 -6.5t15 -21.5q0 -365 -7 -551q56 3 113 3q51 0 105 -3q-6 184 -6 551q0 15 15 21.5t53 6.5t53.5 -6.5t15.5 -21.5q0 -220 -4.5 -343
t-17.5 -207q16 2 33 2t26.5 -11.5t9.5 -32.5v-217q0 -14 -15.5 -20.5t-53.5 -6.5t-53.5 6.5z" />
    <glyph glyph-name="uni0427" unicode="&#x427;" 
d="M412 -1.5q-15 6.5 -15 21.5q0 127 7 265q-66 -23 -137 -23q-105 0 -159.5 57.5t-54.5 167.5q0 95 7 190q2 15 16 21.5t52 6.5q40 0 55.5 -7.5t13.5 -26.5q-5 -98 -5 -168q0 -59 25.5 -85.5t82.5 -26.5q52 0 104 16q-7 141 -7 270q0 15 15 21.5t54 6.5q38 0 53 -6.5
t15 -21.5v-657q0 -15 -15 -21.5t-53 -6.5q-39 0 -54 6.5z" />
    <glyph glyph-name="uni0428" unicode="&#x428;" 
d="M65 11.5q-11 11.5 -11 31.5v634q0 15 13.5 21.5t45.5 6.5q33 0 46 -6.5t13 -21.5q0 -370 -7 -553q34 2 102 4q-7 183 -7 549q0 15 11 21.5t39 6.5t39.5 -6.5t11.5 -21.5q0 -366 -7 -549q66 -2 101 -4q-7 183 -7 553q0 15 13 21.5t46 6.5q32 0 45.5 -6.5t13.5 -21.5v-634
q0 -20 -11 -31.5t-32 -11.5h-426q-21 0 -32 11.5z" />
    <glyph glyph-name="uni0429" unicode="&#x429;" 
d="M472 -152.5q-15 6.5 -15 20.5q0 67 7 139q-127 -7 -367 -7q-21 0 -32 11.5t-11 31.5v634q0 15 13.5 21.5t45.5 6.5q33 0 46 -6.5t13 -21.5q0 -140 -1 -287t-6 -266q32 2 96 4q-7 183 -7 549q0 15 11 21.5t37 6.5t36.5 -6.5t10.5 -21.5q0 -366 -7 -549q47 0 95 -3
q-6 185 -6 552q0 15 13 21.5t46 6.5q32 0 45.5 -6.5t13.5 -21.5q0 -219 -4.5 -342t-17.5 -207q11 1 24 1q21 0 32 -11.5t11 -32.5v-217q0 -14 -15.5 -20.5t-53.5 -6.5t-53 6.5z" />
    <glyph glyph-name="uni042A" unicode="&#x42a;" 
d="M263 -2q-40 6 -65 16q-19 8 -26 18t-7 29q0 169 1.5 283t6.5 231q-56 -7 -109 -7q-12 0 -18 14.5t-6 50.5q0 37 5.5 50.5t18.5 13.5h184q21 0 32 -11.5t11 -31.5q0 -93 -8 -189q30 10 74 10q215 0 215 -242q0 -120 -56.5 -180.5t-175.5 -60.5q-37 0 -77 6zM291 227
q0 -54 -3 -107q27 -11 60 -11q49 0 73.5 30t24.5 94q0 65 -24.5 95t-75.5 30q-32 0 -59 -9q4 -82 4 -122z" />
    <glyph glyph-name="uni042B" unicode="&#x42b;" 
d="M466 -1.5q-13 6.5 -13 21.5l-8 657q0 15 14 21.5t49 6.5t49 -6.5t14 -21.5v-657q0 -15 -13.5 -21.5t-45.5 -6.5q-33 0 -46 6.5zM49 677q0 15 14 21.5t49 6.5q34 0 48.5 -6.5t14.5 -21.5q0 -132 -8 -211q27 9 61 9q100 0 144 -60t44 -182t-47.5 -181.5t-157.5 -59.5
q-33 0 -70 6t-59 16q-19 8 -26 18t-7 29v616zM169 227q0 -54 -3 -108q22 -10 48 -10q46 0 67 30t21 94q0 65 -21 95t-67 30q-25 0 -49 -9q4 -80 4 -122z" />
    <glyph glyph-name="uni042C" unicode="&#x42c;" 
d="M199 -1.5q-51 6.5 -81 18.5q-19 7 -25.5 16t-6.5 29v615q0 15 15 21.5t53 6.5q39 0 54 -6.5t15 -21.5q0 -93 -7 -212q50 10 91 10q128 0 194 -61.5t66 -180.5q0 -241 -270 -241q-47 0 -98 6.5zM223 232q0 -66 -4 -111q38 -12 80 -12q69 0 99 29.5t30 94.5t-30.5 95
t-98.5 30q-42 0 -80 -9q4 -70 4 -117z" />
    <glyph glyph-name="uni042D" unicode="&#x42d;" 
d="M153 1.5q-48 12.5 -83 32.5q-17 10 -17 28q0 27 15 60t34 33l8 -2q76 -36 143 -36q80 0 122 40t51 137q-114 -6 -220 -6q-13 0 -19 12t-6 46q0 32 6 45.5t19 13.5q107 0 220 -6q-15 186 -155 186q-23 0 -44 -4.5t-33 -12.5l-7 -60q-2 -17 -9 -22.5t-25 -5.5
q-37 0 -65.5 11.5t-28.5 34.5q0 26 9 69t19 56q19 25 70.5 41t118.5 16q136 0 212 -90.5t76 -259.5q0 -197 -80 -283t-238 -86q-45 0 -93 12.5z" />
    <glyph glyph-name="uni042E" unicode="&#x42e;" 
d="M294 20q-33 32 -48 97.5t-17 175.5h-52q10 -203 10 -273q0 -15 -14 -21.5t-49 -6.5q-34 0 -48 6.5t-14 21.5v657q0 15 14 21.5t48 6.5q35 0 49 -6.5t14 -21.5q0 -52 -9 -256h53q5 102 23 164.5t54 93t96 30.5q62 0 99.5 -32t55.5 -104.5t18 -194.5q0 -143 -19.5 -228.5
t-61.5 -123.5t-111 -38q-58 0 -91 32zM335.5 187.5q5.5 -49.5 18.5 -69t35 -19.5q26 0 40.5 23.5t21 81t6.5 165.5q0 92 -6 141t-18.5 68.5t-35.5 19.5q-26 0 -40.5 -23t-20.5 -80.5t-6 -165.5q0 -92 5.5 -141.5z" />
    <glyph glyph-name="uni042F" unicode="&#x42f;" 
d="M415 -1.5q-15 6.5 -15 21.5q0 93 5 199q-67 -9 -112 -6q-60 -88 -104 -181q-11 -25 -19 -33t-24 -8q-31 0 -70.5 16t-39.5 35q0 11 16 39q22 40 55.5 87.5t71.5 89.5q-113 69 -113 201q0 119 69 182.5t204 63.5q43 0 89 -6.5t76 -17.5q19 -7 26 -16.5t7 -28.5v-616
q0 -15 -15 -21.5t-54 -6.5q-38 0 -53 6.5zM262 335q38 -2 57 -2q41 0 86 6q-6 57 -6 126q0 56 5 116q-35 7 -67 7q-68 0 -101 -31t-33 -92q0 -76 59 -130z" />
    <glyph glyph-name="uni0430" unicode="&#x430;" 
d="M476 2q-40 16 -87 46q-77 -59 -170 -59q-77 0 -118 41t-41 114q0 79 50 122t152 43q61 0 124 -15v16q0 68 -20.5 94.5t-72.5 26.5q-35 0 -73 -8.5t-70 -22.5q-7 -3 -14 -3q-20 0 -32.5 23.5t-12.5 49.5q0 14 5.5 21t19.5 14q41 17 94.5 28.5t105.5 11.5q103 0 153 -51
t50 -168q0 -97 -23 -195q40 -8 58 -14.5t23 -13t5 -17.5q0 -34 -14 -67t-32 -33q-20 0 -60 16zM268 92q49 0 102 25q10 76 12 105q-38 7 -78 7q-62 0 -85.5 -16t-23.5 -51q0 -70 73 -70z" />
    <glyph glyph-name="uni0431" unicode="&#x431;" 
d="M87.5 534.5q33.5 80.5 95.5 117.5q61 36 155 58t171 23q18 0 27 -20.5t9 -57.5q0 -50 -32 -53q-115 -8 -175.5 -21t-92.5 -31q-29 -17 -48.5 -53.5t-26.5 -85.5l14 -5q75 67 181 67q95 0 146.5 -57t51.5 -166q0 -125 -65.5 -193.5t-185.5 -68.5q-126 0 -192 81.5
t-66 266.5q0 118 33.5 198.5zM217 158.5q32 -56.5 98 -56.5q54 0 84 38t30 105q0 65 -29.5 98.5t-83.5 33.5q-68 0 -131 -38q0 -124 32 -180.5z" />
    <glyph glyph-name="uni0432" unicode="&#x432;" 
d="M191.5 -0.5q-51.5 5.5 -81.5 14.5q-21 6 -27.5 14.5t-6.5 25.5v426q0 16 7 25t25 14q33 9 82 15t95 6q130 0 190.5 -37.5t60.5 -105.5q0 -37 -20.5 -65t-61.5 -49v-15q111 -34 111 -118q0 -76 -69.5 -116t-205.5 -40q-47 0 -98.5 5.5zM210 156q0 -20 -2 -58q28 -7 84 -7
q140 0 140 68q0 32 -34 49t-99 17q-47 0 -92 -3q3 -33 3 -66zM306 308q33 0 48 -1q48 30 48 73q0 62 -110 62q-54 0 -84 -9q2 -40 2 -60q0 -33 -3 -68q51 3 99 3z" />
    <glyph glyph-name="uni0433" unicode="&#x433;" 
d="M139 -1.5q-15 6.5 -15 21.5v472q0 22 9 31t31 9h353q13 0 19 -14t6 -49q0 -34 -6 -48t-19 -14q-127 0 -266 7q7 -216 7 -394q0 -15 -14.5 -21.5t-52.5 -6.5q-37 0 -52 6.5z" />
    <glyph glyph-name="uni0434" unicode="&#x434;" 
d="M47.5 -152.5q-14.5 6.5 -14.5 20.5v211q0 22 9 31t31 9h10q31 29 45.5 80.5t14.5 141.5v151q0 22 9 31t31 9h310q22 0 31 -9t9 -31q0 -142 -5 -227.5t-19 -147.5q17 2 38 2q22 0 31 -9t9 -31v-211q0 -14 -14.5 -20.5t-52.5 -6.5t-52.5 6.5t-14.5 20.5q0 70 7 136
q-102 -4 -150 -4t-150 4q7 -66 7 -136q0 -14 -14.5 -20.5t-52.5 -6.5t-52.5 6.5zM307 120q48 0 97 -3q-5 87 -4 146q0 82 4 153q-48 -4 -72 -4t-72 4q2 -20 2 -54q0 -87 -12.5 -146t-38.5 -99q48 3 96 3z" />
    <glyph glyph-name="uni0435" unicode="&#x435;" 
d="M123 50q-61 62 -61 190q0 147 72 225.5t205 78.5q109 0 164 -53t55 -149q0 -47 -14.5 -73t-48.5 -31q-81 -12 -182 -12q-68 0 -117 5q3 -70 33.5 -99.5t100.5 -29.5q41 0 81 9t86 28l8 2q19 0 32 -28.5t13 -54.5q0 -10 -4.5 -16.5t-18.5 -12.5q-39 -18 -94 -29.5
t-116 -11.5q-133 0 -194 62zM275 310q81 0 151 9q4 12 4 33q0 91 -98 91q-57 0 -89.5 -32.5t-42.5 -98.5q25 -2 75 -2z" />
    <glyph glyph-name="uni0436" unicode="&#x436;" 
d="M490.5 -1q-7.5 5 -11.5 19q-31 108 -86 199q-11 -1 -37 -1q12 -121 12 -197q0 -13 -13 -19.5t-45 -6.5t-45 6.5t-13 19.5q0 79 13 197q-27 0 -38 1q-59 -102 -86 -199q-4 -14 -11.5 -19t-21.5 -5q-30 0 -58.5 9t-28.5 25q0 19 10 44q18 47 49.5 106.5t63.5 104.5
q-28 35 -58 86.5t-45 89.5q-11 29 -11 46t24.5 25.5t51.5 8.5q19 0 27 -5.5t11 -19.5q35 -102 83 -186q11 -1 38 -1q-13 113 -13 187q0 13 12.5 19t45.5 6t45.5 -6t12.5 -19q0 -71 -12 -187q26 0 37 1q51 92 83 186q3 14 11.5 19.5t26.5 5.5q27 0 51.5 -8.5t24.5 -25.5
t-11 -46q-16 -37 -45 -88.5t-58 -87.5q32 -43 62.5 -102t50.5 -109q10 -25 10 -44q0 -16 -28 -25t-58 -9q-15 0 -22.5 5z" />
    <glyph glyph-name="uni0437" unicode="&#x437;" 
d="M197.5 -4.5q-48.5 7.5 -85.5 20.5q-20 7 -29 14t-9 20q0 29 13 58t33 29q3 0 9 -2q86 -33 166 -33q59 0 89.5 16t30.5 42q0 44 -80 62q-59 -7 -118 -7q-31 0 -31 55q0 53 31 53q56 0 118 -13q33 18 47.5 34t14.5 34q0 22 -26.5 35t-78.5 13q-39 0 -77 -6t-65 -16
q-18 -6 -33 19t-15 53t15 35q36 14 86.5 22t98.5 8q106 0 164 -34.5t58 -96.5q0 -76 -95 -121v-15q60 -17 88 -49t28 -80q0 -71 -65.5 -114t-181.5 -43q-52 0 -100.5 7.5z" />
    <glyph glyph-name="uni0438" unicode="&#x438;" 
d="M91 0q-18 8 -18 25v487q0 15 14.5 21t52.5 6t52.5 -6t14.5 -21q0 -70 -7 -185.5t-17 -192.5h16q54 115 156 320l23 46q11 24 28 31.5t59 7.5q47 0 64.5 -7.5t17.5 -23.5v-488q0 -15 -14.5 -21.5t-52.5 -6.5q-37 0 -52 6.5t-15 21.5q0 67 7 183.5t17 194.5h-16
q-32 -71 -116 -239q-21 -40 -63 -126q-11 -25 -27.5 -33t-59.5 -8q-46 0 -64 8z" />
    <glyph glyph-name="uni0439" unicode="&#x439;" 
d="M91 0q-18 8 -18 25v487q0 15 14.5 21t52.5 6t52.5 -6t14.5 -21q0 -70 -7 -185.5t-17 -192.5h16q54 115 156 320l23 46q11 24 28 31.5t59 7.5q47 0 64.5 -7.5t17.5 -23.5v-488q0 -15 -14.5 -21.5t-52.5 -6.5q-37 0 -52 6.5t-15 21.5q0 67 7 183.5t17 194.5h-16
q-32 -71 -116 -239q-21 -40 -63 -126q-11 -25 -27.5 -33t-59.5 -8q-46 0 -64 8zM189 629.5q-48 42.5 -64 117.5q-3 13 21 24t48 11q22 0 25 -11q10 -49 30 -72t61 -23t61 23t30 72q3 11 25 11q24 0 48 -11t21 -24q-16 -75 -64 -117.5t-121 -42.5t-121 42.5z" />
    <glyph glyph-name="uni043A" unicode="&#x43a;" 
d="M428.5 -4q-6.5 5 -13.5 19q-60 105 -153 197q-31 -6 -54 -7q11 -107 11 -185q0 -15 -14.5 -21.5t-52.5 -6.5q-37 0 -52 6.5t-15 21.5v492q0 15 14.5 21t52.5 6t52.5 -6t14.5 -21q0 -78 -11 -183q36 4 54 8q69 76 132 179q8 14 15 19t18 5q38 0 76.5 -13.5t38.5 -30.5
q0 -8 -13 -30q-30 -44 -74 -96t-90 -92q54 -44 103.5 -102.5t82.5 -111.5q12 -20 12 -30q0 -17 -39.5 -30t-77.5 -13q-11 0 -17.5 5z" />
    <glyph glyph-name="uni043B" unicode="&#x43b;" 
d="M66.5 5.5q-19.5 15.5 -33 36.5t-13.5 35q0 17 18 27q56 37 80 97.5t24 180.5v110q0 22 9 31t31 9h317q22 0 31 -9t9 -31v-472q0 -15 -15 -21.5t-52 -6.5q-38 0 -52.5 6.5t-14.5 21.5q0 258 7 390q-48 -4 -73 -4q-23 0 -73 4q1 -16 1 -42q0 -150 -33.5 -238.5
t-109.5 -132.5q-10 -7 -21 -7q-17 0 -36.5 15.5z" />
    <glyph glyph-name="uni043C" unicode="&#x43c;" 
d="M58 -0.5q-14 7.5 -14 21.5q0 111 6.5 245t17.5 234q3 22 23.5 31t67.5 9q42 0 59.5 -9t22.5 -31q40 -131 61 -240h16q21 109 61 240q5 22 22.5 31t59.5 9q47 0 67.5 -9t23.5 -31q11 -100 17.5 -234t6.5 -245q0 -14 -14 -21.5t-48 -7.5q-33 0 -46.5 6.5t-13.5 21.5
q4 122 4 188q0 106 -6 206h-16q-38 -107 -65 -229q-2 -18 -16 -26t-45 -8t-45 8t-16 26q-27 122 -65 229h-16q-6 -100 -6 -206q0 -66 4 -188q0 -15 -13.5 -21.5t-46.5 -6.5q-34 0 -48 7.5z" />
    <glyph glyph-name="uni043D" unicode="&#x43d;" 
d="M94 -1.5q-15 6.5 -15 21.5v492q0 15 15 21.5t52 6.5q38 0 52.5 -6.5t14.5 -21.5q0 -87 -7 -182q44 4 104 4q61 0 104 -4q-7 95 -7 182q0 15 14.5 21.5t52.5 6.5q37 0 52 -6.5t15 -21.5v-492q0 -15 -15 -21.5t-52 -6.5q-38 0 -52.5 6.5t-14.5 21.5q0 90 7 191
q-48 -3 -104 -3q-54 0 -104 3q7 -101 7 -191q0 -15 -14.5 -21.5t-52.5 -6.5q-37 0 -52 6.5z" />
    <glyph glyph-name="uni043E" unicode="&#x43e;" 
d="M117.5 52.5q-61.5 64.5 -61.5 190.5q0 149 67.5 225t199.5 76q118 0 179.5 -64.5t61.5 -189.5q0 -150 -67.5 -226t-199.5 -76q-118 0 -179.5 64.5zM216 137.5q27 -35.5 87 -35.5q67 0 97.5 42.5t30.5 136.5q0 79 -27 114t-87 35q-67 0 -97.5 -42.5t-30.5 -136.5
q0 -78 27 -113.5z" />
    <glyph glyph-name="uni043F" unicode="&#x43f;" 
d="M94 -1.5q-15 6.5 -15 21.5v472q0 22 9 31t31 9h382q22 0 31 -9t9 -31v-472q0 -15 -15 -21.5t-52 -6.5q-38 0 -52.5 6.5t-14.5 21.5q0 178 7 391q-64 -4 -104 -4t-104 4q7 -213 7 -391q0 -15 -14.5 -21.5t-52.5 -6.5q-37 0 -52 6.5z" />
    <glyph glyph-name="uni0440" unicode="&#x440;" 
d="M208 0q3 -76 3 -173q0 -15 -14.5 -21.5t-52.5 -6.5q-37 0 -51.5 6.5t-14.5 21.5t1 29q0 26 1 73.5t1 123.5v256q0 73 -3 178q-1 14 -1 29q0 14 14.5 20.5t52.5 6.5q37 0 52 -6.5t15 -20.5q0 -22 -5 -55h16q38 41 84.5 62t91.5 21q81 0 123.5 -64.5t42.5 -189.5
q0 -152 -63.5 -227t-193.5 -75q-55 0 -99 12zM298 102q70 0 101.5 41t31.5 131q0 144 -91 144q-31 0 -65 -15.5t-63 -44.5q2 -38 2 -114q0 -65 -3 -130q35 -12 87 -12z" />
    <glyph glyph-name="uni0441" unicode="&#x441;" 
d="M136.5 48q-59.5 60 -59.5 200q0 145 69.5 220.5t200.5 75.5q56 0 100.5 -13t65.5 -35q16 -16 25 -54.5t9 -72.5q0 -19 -27.5 -29.5t-65.5 -10.5q-16 0 -23 4.5t-10 18.5q-1 6 -8 54q-12 8 -32.5 13t-43.5 5q-63 0 -95 -41.5t-32 -123.5q0 -80 29.5 -112.5t92.5 -32.5
q76 0 155 36q6 3 12 3q21 0 35 -30.5t14 -57.5q0 -12 -6 -20t-21 -15q-39 -18 -93.5 -30t-113.5 -12q-118 0 -177.5 60z" />
    <glyph glyph-name="uni0442" unicode="&#x442;" 
d="M555.5 518q6.5 -14 6.5 -49q0 -34 -6.5 -48t-19.5 -14q-81 0 -166 7q7 -216 7 -394q0 -15 -14.5 -21.5t-52.5 -6.5t-52.5 6.5t-14.5 21.5q0 178 7 394q-85 -7 -166 -7q-13 0 -19.5 14t-6.5 48q0 35 6.5 49t19.5 14h452q13 0 19.5 -14z" />
    <glyph glyph-name="uni0443" unicode="&#x443;" 
d="M88 -172q-16 32 -16 63q0 14 6.5 21t24.5 13q50 18 99.5 47t88.5 64l-3 11q-13 -4 -27 -4q-13 0 -23 9t-24 33q-42 74 -90.5 183t-72.5 185q-9 31 -9 45q0 19 34 32.5t67 13.5q18 0 26 -7.5t13 -28.5q22 -82 57.5 -176.5t77.5 -183.5h19q36 79 63.5 178.5t38.5 182.5
q2 20 13.5 27.5t41.5 7.5q41 0 62.5 -10t21.5 -27q0 -3 -4 -33q-15 -95 -54 -212t-88 -206q-98 -178 -248 -244q-39 -16 -57 -16q-22 0 -38 32z" />
    <glyph glyph-name="uni0444" unicode="&#x444;" 
d="M258 -194.5q-15 6.5 -15 21.5q0 73 9 166q-110 11 -164 74t-54 184q0 129 53.5 199t164.5 86q-9 93 -9 170q0 15 15 21.5t52 6.5t52 -6.5t15 -21.5q0 -77 -9 -167q110 -11 164 -74t54 -184q0 -129 -54 -199t-165 -86q10 -91 10 -169q0 -15 -14.5 -21.5t-52.5 -6.5
q-37 0 -52 6.5zM178 140.5q26 -36.5 87 -43.5q-5 95 -5 171q0 73 5 165q-61 -10 -87 -51.5t-26 -126.5q0 -78 26 -114.5zM442 150.5q26 41.5 26 126.5q0 78 -26 114.5t-87 43.5q5 -90 5 -163q0 -76 -5 -173q61 10 87 51.5z" />
    <glyph glyph-name="uni0445" unicode="&#x445;" 
d="M435 -3.5q-7 5.5 -12 18.5q-39 90 -102 186h-22q-63 -96 -102 -186q-5 -13 -12 -18.5t-18 -5.5q-36 0 -73 13t-37 30q0 11 10 30q27 50 67.5 109t80.5 105q-35 43 -71 96.5t-60 94.5q-11 18 -11 30q0 17 36.5 30.5t72.5 13.5q11 0 18 -5.5t13 -18.5q41 -88 86 -162h22
q45 74 86 162q6 13 13 18.5t18 5.5q36 0 72.5 -13.5t36.5 -30.5q0 -12 -11 -30q-24 -41 -60 -94.5t-71 -96.5q41 -47 82 -106t66 -108q10 -19 10 -30q0 -17 -37 -30t-73 -13q-11 0 -18 5.5z" />
    <glyph glyph-name="uni0446" unicode="&#x446;" 
d="M473.5 -152.5q-14.5 6.5 -14.5 20.5q0 71 7 139q-119 -7 -344 -7q-21 0 -32 11.5t-11 31.5v469q0 15 14.5 21t52.5 6t52.5 -6t14.5 -21q0 -245 -7 -387q68 4 101 4q54 0 97 -4q-5 128 -5 387q0 15 14.5 21t52.5 6t52.5 -6t14.5 -21q0 -155 -4.5 -243t-14.5 -143
q16 3 38 3q20 0 30.5 -11.5t10.5 -32.5v-217q0 -14 -15.5 -20.5t-52.5 -6.5t-51.5 6.5z" />
    <glyph glyph-name="uni0447" unicode="&#x447;" 
d="M415 -0.5q-15 6.5 -15 19.5q0 86 6 178q-61 -23 -135 -23q-107 0 -162.5 47.5t-55.5 138.5q0 68 5 153q1 14 16 20.5t52 6.5q38 0 52.5 -6.5t13.5 -20.5q-5 -73 -5 -133q0 -41 26.5 -61t90.5 -20q58 0 103 16q-7 111 -7 198q0 14 14.5 20.5t52.5 6.5q37 0 52 -6.5
t15 -20.5v-494q0 -13 -15 -19.5t-52 -6.5t-52 6.5z" />
    <glyph glyph-name="uni0448" unicode="&#x448;" 
d="M65 11.5q-11 11.5 -11 31.5v469q0 14 13 20.5t46 6.5t45.5 -6t12.5 -21q0 -100 -1 -204.5t-6 -193.5q68 4 103 5q-7 131 -7 393q0 15 11 21t39 6q27 0 38.5 -6.5t11.5 -20.5q0 -262 -7 -393q35 -1 103 -5q-5 89 -6 193.5t-1 204.5q0 15 12.5 21t45.5 6t46 -6.5t13 -20.5
v-469q0 -20 -11 -31.5t-32 -11.5h-426q-21 0 -32 11.5z" />
    <glyph glyph-name="uni0449" unicode="&#x449;" 
d="M475 -152.5q-15 6.5 -15 20.5q0 71 7 139q-128 -7 -370 -7q-21 0 -32 11.5t-11 31.5v469q0 14 13 20.5t46 6.5t45.5 -6t12.5 -21q0 -264 -7 -395q64 4 96 5q-6 130 -6 390q0 15 10.5 21t37.5 6q26 0 36.5 -6.5t10.5 -20.5q0 -260 -7 -390q64 -2 96 -5q-5 88 -6 192
t-1 203q0 14 13 20.5t46 6.5t46 -6.5t13 -20.5q0 -169 -5.5 -253.5t-17.5 -137.5q11 2 25 2q21 0 32 -11.5t11 -32.5v-211q0 -14 -15 -20.5t-52 -6.5t-52 6.5z" />
    <glyph glyph-name="uni044A" unicode="&#x44a;" 
d="M257 -0.5q-37 5.5 -63 13.5q-21 6 -28 14.5t-7 25.5q0 236 7 361q-57 -7 -111 -7q-13 0 -19.5 14t-6.5 48q0 35 6.5 49t19.5 14h198q22 0 31 -9t9 -31q0 -53 -8 -116q44 16 104 16q92 0 138.5 -47t46.5 -138q0 -107 -60 -160t-188 -53q-32 0 -69 5.5zM293 186
q0 -39 -3 -80q26 -6 47 -6q54 0 78.5 24t24.5 77q0 85 -74 85q-39 0 -77 -13q4 -58 4 -87z" />
    <glyph glyph-name="uni044B" unicode="&#x44b;" 
d="M146.5 -1q-34.5 5 -56.5 13q-19 7 -25.5 15t-6.5 24v461q0 15 13 21t47 6t47.5 -6t13.5 -21q0 -56 -7 -121q22 6 58 6q170 0 170 -190q0 -107 -45.5 -160t-143.5 -53q-30 0 -64.5 5zM174 191q0 -43 -3 -85q24 -6 43 -6q43 0 62 23t19 73q0 51 -19.5 73t-61.5 22
q-27 0 -44 -4q4 -62 4 -96zM453 533q13 6 47 6t47.5 -6t13.5 -21v-492q0 -15 -12.5 -21.5t-44.5 -6.5q-31 0 -44 6.5t-13 21.5l-7 492q0 15 13 21z" />
    <glyph glyph-name="uni044C" unicode="&#x44c;" 
d="M193 -0.5q-45 5.5 -73 13.5q-21 6 -28.5 14t-7.5 25v460q0 15 14.5 21t52.5 6t52.5 -6t14.5 -21q0 -66 -7 -136q58 16 125 16q112 0 169 -47t57 -138q0 -106 -70 -159.5t-213 -53.5q-41 0 -86 5.5zM218 184q0 -39 -3 -77q35 -7 73 -7q69 0 104 24.5t35 76.5
q0 44 -27.5 64.5t-82.5 20.5q-45 0 -103 -14q4 -58 4 -88z" />
    <glyph glyph-name="uni044D" unicode="&#x44d;" 
d="M477 484q61 -60 61 -200q0 -144 -70 -220t-201 -76q-100 0 -172 35q-14 6 -18.5 12.5t-4.5 16.5q0 28 13.5 56.5t32.5 28.5q3 0 9 -2q75 -33 137 -33q122 0 137 129q-116 -6 -219 -6q-13 0 -19 10t-6 35t6 34.5t19 9.5q103 0 221 -6q-6 66 -35 94t-85 28q-72 0 -135 -31
q-7 -3 -13 -3q-21 0 -34.5 26t-13.5 50q0 13 5.5 20.5t21.5 14.5q33 16 81 26.5t100 10.5q121 0 182 -60z" />
    <glyph glyph-name="uni044E" unicode="&#x44e;" 
d="M68.5 -1.5q-13.5 6.5 -13.5 21.5v493q0 14 13.5 20.5t47.5 6.5t47.5 -6.5t13.5 -20.5q0 -91 -14 -200h60q9 121 54.5 174.5t133.5 53.5q85 0 125.5 -64t40.5 -197q0 -149 -46 -220.5t-143 -71.5q-82 0 -122 53.5t-44 176.5h-59q14 -111 14 -198q0 -15 -13.5 -21.5
t-47.5 -6.5t-47.5 6.5zM330.5 128q15.5 -36 51.5 -36q42 0 59.5 41.5t17.5 142.5q0 89 -15.5 125t-51.5 36q-42 0 -59.5 -41.5t-17.5 -142.5q0 -89 15.5 -125z" />
    <glyph glyph-name="uni044F" unicode="&#x44f;" 
d="M415.5 -0.5q-13.5 6.5 -13.5 19.5q0 63 7 133q-68 -4 -102 -4q-24 0 -36 1q-52 -68 -84 -122q-12 -21 -20 -27.5t-23 -6.5q-31 0 -68.5 15.5t-37.5 34.5q0 11 14 30q39 54 106 118q-45 28 -68 69t-23 92q0 91 62.5 139.5t182.5 48.5q49 0 103.5 -6t87.5 -16
q20 -6 26.5 -14.5t6.5 -24.5v-460q0 -13 -14 -19.5t-53 -6.5q-40 0 -53.5 6.5zM251 259q44 -2 68 -2q43 0 89 3q-6 42 -6 84q0 33 5 73q-42 10 -96 10q-110 0 -110 -81q0 -52 50 -87z" />
    <glyph glyph-name="uni0451" unicode="&#x451;" 
d="M123 50q-61 62 -61 190q0 147 72 225.5t205 78.5q109 0 164 -53t55 -149q0 -47 -14.5 -73t-48.5 -31q-81 -12 -182 -12q-68 0 -117 5q3 -70 33.5 -99.5t100.5 -29.5q41 0 81 9t86 28l8 2q19 0 32 -28.5t13 -54.5q0 -10 -4.5 -16.5t-18.5 -12.5q-39 -18 -94 -29.5
t-116 -11.5q-133 0 -194 62zM275 310q81 0 151 9q4 12 4 33q0 91 -98 91q-57 0 -89.5 -32.5t-42.5 -98.5q25 -2 75 -2zM123.5 634.5q-18.5 15.5 -18.5 52.5q0 36 18.5 51.5t66.5 15.5t66.5 -15.5t18.5 -51.5q0 -37 -18.5 -52.5t-66.5 -15.5t-66.5 15.5zM363.5 738.5
q18.5 15.5 66.5 15.5t66.5 -15.5t18.5 -51.5q0 -37 -18.5 -52.5t-66.5 -15.5t-66.5 15.5t-18.5 52.5q0 36 18.5 51.5z" />
    <glyph glyph-name="uni045E" unicode="&#x45e;" 
d="M88 -172q-16 32 -16 63q0 14 6.5 21t24.5 13q50 18 99.5 47t88.5 64l-3 11q-13 -4 -27 -4q-13 0 -23 9t-24 33q-42 74 -90.5 183t-72.5 185q-9 31 -9 45q0 19 34 32.5t67 13.5q18 0 26 -7.5t13 -28.5q22 -82 57.5 -176.5t77.5 -183.5h19q36 79 63.5 178.5t38.5 182.5
q2 20 13.5 27.5t41.5 7.5q41 0 62.5 -10t21.5 -27q0 -3 -4 -33q-15 -95 -54 -212t-88 -206q-98 -178 -248 -244q-39 -16 -57 -16q-22 0 -38 32zM189 629.5q-48 42.5 -64 117.5q-3 13 21 24t48 11q22 0 25 -11q10 -49 30 -72t61 -23t61 23t30 72q3 11 25 11q24 0 48 -11
t21 -24q-16 -75 -64 -117.5t-121 -42.5t-121 42.5z" />
    <glyph glyph-name="uni0490" unicode="&#x490;" 
d="M135 -1.5q-15 6.5 -15 21.5v346q0 91 6 131.5t21 63.5v16q-25 -3 -37 -3q-13 0 -19 13.5t-6 48.5q0 34 6 47.5t19 13.5q201 0 310 -7q-8 56 -8 113q0 14 15.5 20.5t53.5 6.5t53.5 -6.5t15.5 -20.5v-191q0 -21 -11 -32.5t-32 -11.5q-122 0 -257 7q7 -190 7 -555
q0 -15 -15 -21.5t-54 -6.5q-38 0 -53 6.5z" />
    <glyph glyph-name="Wgrave" unicode="&#x1e80;" 
d="M127 3.5q-13 10.5 -20 46.5q-26 114 -46 276t-29 302l-2 50q0 14 15 21t50 7t49.5 -6.5t15.5 -22.5q0 -275 32 -557h16q38 117 55 227q-9 96 -9 144q0 32 56 32t56 -32q0 -48 -9 -144q17 -110 55 -227h16q32 282 32 557q1 16 15.5 22.5t49.5 6.5t50 -7t15 -21l-2 -50
q-9 -140 -29 -302t-46 -276q-7 -36 -20 -46.5t-51 -10.5q-40 0 -54 9.5t-22 37.5q-34 124 -48 253h-16q-14 -129 -48 -253q-8 -28 -22 -37.5t-54 -9.5q-38 0 -51 10.5zM136 893q-4 5 -4 11q0 13 15 30t36 29t38 12q12 0 19 -7l157 -148l7 -7t6.5 -8t1.5 -6q0 -14 -21 -31.5
t-39 -17.5q-9 0 -14 4l-186 127q-12 7 -16 12z" />
    <glyph glyph-name="wgrave" unicode="&#x1e81;" 
d="M126.5 4.5q-13.5 10.5 -20.5 45.5q-20 85 -36.5 201.5t-22.5 216.5l-2 44q0 14 14.5 21t47.5 7t46.5 -6.5t13.5 -22.5q0 -199 25 -394h16q37 79 55 158q-7 89 -7 112q0 17 13 25t41 8t41 -8t13 -25q0 -23 -7 -112q18 -79 55 -158h16q25 195 25 394q0 16 13.5 22.5
t46.5 6.5t47.5 -7t14.5 -21l-2 -44q-6 -100 -22.5 -216.5t-36.5 -201.5q-7 -35 -20.5 -45.5t-51.5 -10.5q-39 0 -53.5 9.5t-23.5 38.5q-31 82 -47 171h-16q-16 -89 -47 -171q-9 -29 -23.5 -38.5t-53.5 -9.5q-38 0 -51.5 10.5zM141.5 728q-3.5 5 -3.5 11q0 13 13.5 30t33 29
t34.5 12q11 0 17 -7l143 -148q6 -7 9.5 -11.5t3.5 -9.5q0 -15 -18.5 -32t-35.5 -17q-8 0 -13 4l-169 127q-11 7 -14.5 12z" />
    <glyph glyph-name="Wacute" unicode="&#x1e82;" 
d="M127 3.5q-13 10.5 -20 46.5q-26 114 -46 276t-29 302l-2 50q0 14 15 21t50 7t49.5 -6.5t15.5 -22.5q0 -275 32 -557h16q38 117 55 227q-9 96 -9 144q0 32 56 32t56 -32q0 -48 -9 -144q17 -110 55 -227h16q32 282 32 557q1 16 15.5 22.5t49.5 6.5t50 -7t15 -21l-2 -50
q-9 -140 -29 -302t-46 -276q-7 -36 -20 -46.5t-51 -10.5q-40 0 -54 9.5t-22 37.5q-34 124 -48 253h-16q-14 -129 -48 -253q-8 -28 -22 -37.5t-54 -9.5q-38 0 -51 10.5zM230 750q-18 0 -38.5 17t-20.5 32q0 5 3.5 9.5t10.5 11.5l157 148q7 7 19 7q17 0 38 -12t36 -29t15 -30
q0 -6 -4 -11t-16 -12l-186 -127q-5 -4 -14 -4z" />
    <glyph glyph-name="wacute" unicode="&#x1e83;" 
d="M126.5 4.5q-13.5 10.5 -20.5 45.5q-20 85 -36.5 201.5t-22.5 216.5l-2 44q0 14 14.5 21t47.5 7t46.5 -6.5t13.5 -22.5q0 -199 25 -394h16q37 79 55 158q-7 89 -7 112q0 17 13 25t41 8t41 -8t13 -25q0 -23 -7 -112q18 -79 55 -158h16q25 195 25 394q0 16 13.5 22.5
t46.5 6.5t47.5 -7t14.5 -21l-2 -44q-6 -100 -22.5 -216.5t-36.5 -201.5q-7 -35 -20.5 -45.5t-51.5 -10.5q-39 0 -53.5 9.5t-23.5 38.5q-31 82 -47 171h-16q-16 -89 -47 -171q-9 -29 -23.5 -38.5t-53.5 -9.5q-38 0 -51.5 10.5zM262 585q-17 0 -35.5 17t-18.5 32q0 5 3.5 9.5
t9.5 11.5l143 148q6 7 17 7q15 0 34.5 -12t33 -29t13.5 -30q0 -6 -3.5 -11t-14.5 -12l-169 -127q-5 -4 -13 -4z" />
    <glyph glyph-name="Wdieresis" unicode="&#x1e84;" 
d="M127 3.5q-13 10.5 -20 46.5q-26 114 -46 276t-29 302l-2 50q0 14 15 21t50 7t49.5 -6.5t15.5 -22.5q0 -275 32 -557h16q38 117 55 227q-9 96 -9 144q0 32 56 32t56 -32q0 -48 -9 -144q17 -110 55 -227h16q32 282 32 557q1 16 15.5 22.5t49.5 6.5t50 -7t15 -21l-2 -50
q-9 -140 -29 -302t-46 -276q-7 -36 -20 -46.5t-51 -10.5q-40 0 -54 9.5t-22 37.5q-34 124 -48 253h-16q-14 -129 -48 -253q-8 -28 -22 -37.5t-54 -9.5q-38 0 -51 10.5zM105 789.5q-20 15.5 -20 52.5q0 36 20 51.5t73 15.5t73.5 -15.5t20.5 -51.5q0 -37 -20.5 -52.5
t-73.5 -15.5t-73 15.5zM369.5 893.5q20.5 15.5 72.5 15.5q53 0 73.5 -15.5t20.5 -51.5q0 -37 -20.5 -52.5t-73.5 -15.5q-52 0 -72.5 15.5t-20.5 52.5q0 36 20.5 51.5z" />
    <glyph glyph-name="wdieresis" unicode="&#x1e85;" 
d="M126.5 4.5q-13.5 10.5 -20.5 45.5q-20 85 -36.5 201.5t-22.5 216.5l-2 44q0 14 14.5 21t47.5 7t46.5 -6.5t13.5 -22.5q0 -199 25 -394h16q37 79 55 158q-7 89 -7 112q0 17 13 25t41 8t41 -8t13 -25q0 -23 -7 -112q18 -79 55 -158h16q25 195 25 394q0 16 13.5 22.5
t46.5 6.5t47.5 -7t14.5 -21l-2 -44q-6 -100 -22.5 -216.5t-36.5 -201.5q-7 -35 -20.5 -45.5t-51.5 -10.5q-39 0 -53.5 9.5t-23.5 38.5q-31 82 -47 171h-16q-16 -89 -47 -171q-9 -29 -23.5 -38.5t-53.5 -9.5q-38 0 -51.5 10.5zM123.5 634.5q-18.5 15.5 -18.5 52.5
q0 36 18.5 51.5t66.5 15.5t66.5 -15.5t18.5 -51.5q0 -37 -18.5 -52.5t-66.5 -15.5t-66.5 15.5zM363.5 738.5q18.5 15.5 66.5 15.5t66.5 -15.5t18.5 -51.5q0 -37 -18.5 -52.5t-66.5 -15.5t-66.5 15.5t-18.5 52.5q0 36 18.5 51.5z" />
    <glyph glyph-name="ygrave" unicode="&#x1ef3;" 
d="M88 -172q-16 32 -16 63q0 14 6.5 21t24.5 13q50 18 99.5 47t88.5 64l-3 11q-13 -4 -27 -4q-13 0 -23 9t-24 33q-42 74 -90.5 183t-72.5 185q-9 31 -9 45q0 19 34 32.5t67 13.5q18 0 26 -7.5t13 -28.5q22 -82 57.5 -176.5t77.5 -183.5h19q36 79 63.5 178.5t38.5 182.5
q2 20 13.5 27.5t41.5 7.5q41 0 62.5 -10t21.5 -27q0 -3 -4 -33q-15 -95 -54 -212t-88 -206q-98 -178 -248 -244q-39 -16 -57 -16q-22 0 -38 32zM141.5 728q-3.5 5 -3.5 11q0 13 13.5 30t33 29t34.5 12q11 0 17 -7l143 -148q6 -7 9.5 -11.5t3.5 -9.5q0 -15 -18.5 -32
t-35.5 -17q-8 0 -13 4l-169 127q-11 7 -14.5 12z" />
    <glyph glyph-name="endash" unicode="&#x2013;" 
d="M54.5 284.5q-6.5 12.5 -6.5 44.5t6.5 44.5t21.5 12.5h468q15 0 21.5 -12.5t6.5 -44.5t-6.5 -44.5t-21.5 -12.5h-468q-15 0 -21.5 12.5z" />
    <glyph glyph-name="glyph31" 
d="M73 35q-22 18 -22 38q0 27 19 57.5t41 30.5q7 0 15 -5q25 -20 50.5 -29.5t57.5 -9.5q53 0 82 27t36 93q5 50 5 167q0 66 -5 171q-104 -7 -195 -7q-13 0 -18.5 14t-5.5 51q0 36 5.5 50t18.5 14h283q21 0 32.5 -11.5t13.5 -31.5q8 -163 8 -277q0 -120 -11 -192
q-16 -98 -77.5 -147.5t-174.5 -49.5q-105 0 -158 47zM230 750q-18 0 -38.5 17t-20.5 32q0 5 3.5 9.5t10.5 11.5l157 148q7 7 19 7q17 0 38 -12t36 -29t15 -30q0 -6 -4 -11t-16 -12l-186 -127q-5 -4 -14 -4z" />
    <glyph glyph-name="Scedilla.locl" 
d="M197 -6q-48 9 -86 26q-20 7 -29 17t-9 28q0 26 14.5 54t32.5 28q3 0 9 -2q90 -40 168 -40q116 0 116 86q0 35 -25 53.5t-91 32.5q-68 14 -114 35t-75 65.5t-29 119.5q0 108 62 161.5t179 53.5q57 0 109 -12t68 -28q13 -13 21.5 -49.5t8.5 -68.5q0 -20 -28 -30t-71 -10
q-12 0 -17.5 4.5t-7.5 16.5l-6 48q-34 13 -76 13q-109 0 -109 -90q0 -43 27 -62.5t85 -32.5q79 -17 127 -42.5t71.5 -66t23.5 -103.5q0 -106 -65 -160t-186 -54q-50 0 -98 9zM199 -208q-12 17 -12 35q0 14 10 21l107 77q30 22 47 22q15 0 28 -13t21 -30.5t8 -29.5
q0 -9 -7 -15.5t-32 -17.5l-108 -55q-22 -11 -37 -11q-13 0 -25 17z" />
    <glyph glyph-name="i.locl" 
d="M111.5 14q-6.5 14 -6.5 49t6.5 48.5t19.5 13.5q62 0 127 -7q-4 65 -4 142q0 78 4 142q-59 -7 -109 -7q-13 0 -19 13.5t-6 49.5q0 35 6 49t19 14h204q19 0 26.5 -7.5t7.5 -27.5q0 -92 -1 -189t-6 -179q73 7 130 7q13 0 19 -13.5t6 -48.5q0 -36 -6 -49.5t-19 -13.5h-379
q-13 0 -19.5 14zM230.5 646.5q-22.5 17.5 -22.5 58.5t22.5 58.5t79.5 17.5t79.5 -17.5t22.5 -58.5t-22.5 -58.5t-79.5 -17.5t-79.5 17.5z" />
    <glyph glyph-name="glyph107" 
d="M98 -179q-10 26 -10 61q0 23 5.5 32t19.5 10q72 8 114.5 24t64.5 47t27 85q9 78 9 183q0 56 -4 138q-114 -6 -215 -6q-13 0 -19 14t-6 49t6 49t19 14h304q22 0 31 -9t10 -32q8 -98 8 -216q0 -111 -10 -207q-14 -125 -92.5 -183.5t-228.5 -75.5q-23 -3 -33 23z" />
    <glyph glyph-name="glyph108" 
d="M98 -179q-10 26 -10 61q0 23 5.5 32t19.5 10q72 8 114.5 24t64.5 47t27 85q9 78 9 183q0 56 -4 138q-114 -6 -215 -6q-13 0 -19 14t-6 49t6 49t19 14h304q22 0 31 -9t10 -32q8 -98 8 -216q0 -111 -10 -207q-14 -125 -92.5 -183.5t-228.5 -75.5q-23 -3 -33 23zM303 585
q-17 0 -35.5 17t-18.5 32q0 5 3.5 9.5t9.5 11.5l143 148q6 7 17 7q15 0 34.5 -12t33 -29t13.5 -30q0 -6 -3.5 -11t-14.5 -12l-169 -127q-5 -4 -13 -4z" />
    <glyph glyph-name="glyph110" 
d="M428.5 -4q-6.5 5 -13.5 19q-60 105 -153 197q-31 -6 -54 -7q11 -107 11 -185q0 -15 -14.5 -21.5t-52.5 -6.5q-37 0 -52 6.5t-15 21.5v492q0 15 14.5 21t52.5 6t52.5 -6t14.5 -21q0 -78 -11 -183q36 4 54 8q69 76 132 179q8 14 15 19t18 5q38 0 76.5 -13.5t38.5 -30.5
q0 -8 -13 -30q-30 -44 -74 -96t-90 -92q54 -44 103.5 -102.5t82.5 -111.5q12 -20 12 -30q0 -17 -39.5 -30t-77.5 -13q-11 0 -17.5 5z" />
    <glyph glyph-name="scedilla.locl" 
d="M197.5 -2.5q-51.5 9.5 -85.5 25.5q-13 6 -17.5 12.5t-4.5 16.5q0 29 15.5 57.5t34.5 20.5q86 -35 168 -35q50 0 73 14t23 42q0 25 -20.5 37.5t-77.5 21.5q-70 11 -113 26t-69.5 48t-26.5 91q0 85 59 127.5t168 42.5q101 0 172 -34q13 -6 17.5 -12.5t4.5 -15.5
q0 -27 -13 -53.5t-32 -26.5q-3 0 -9 2q-80 35 -149 35q-46 0 -67 -14t-21 -42q0 -27 21 -38t75 -19q112 -19 161.5 -57t49.5 -112q0 -86 -59 -128t-171 -42q-55 0 -106.5 9.5zM199 -208q-12 17 -12 35q0 14 10 21l107 77q30 22 47 22q15 0 28 -13t21 -30.5t8 -29.5
q0 -9 -7 -15.5t-32 -17.5l-108 -55q-22 -11 -37 -11q-13 0 -25 17z" />
    <glyph glyph-name="glyph240" 
d="M212.5 420.5q-27.5 24.5 -27.5 81.5t27.5 81.5t97.5 24.5t97.5 -24.5t27.5 -81.5t-27.5 -81.5t-97.5 -24.5t-97.5 24.5zM212.5 74.5q-27.5 24.5 -27.5 81.5t27.5 81.5t97.5 24.5t97.5 -24.5t27.5 -81.5t-27.5 -81.5t-97.5 -24.5t-97.5 24.5z" />
    <glyph glyph-name="glyph241" 
d="M782.5 420.5q-27.5 24.5 -27.5 81.5t27.5 81.5t97.5 24.5t97.5 -24.5t27.5 -81.5t-27.5 -81.5t-97.5 -24.5t-97.5 24.5zM782.5 74.5q-27.5 24.5 -27.5 81.5t27.5 81.5t97.5 24.5t97.5 -24.5t27.5 -81.5t-27.5 -81.5t-97.5 -24.5t-97.5 24.5zM262.5 420.5
q-27.5 24.5 -27.5 81.5t27.5 81.5t97.5 24.5t97.5 -24.5t27.5 -81.5t-27.5 -81.5t-97.5 -24.5t-97.5 24.5zM262.5 74.5q-27.5 24.5 -27.5 81.5t27.5 81.5t97.5 24.5t97.5 -24.5t27.5 -81.5t-27.5 -81.5t-97.5 -24.5t-97.5 24.5z" />
    <glyph glyph-name="glyph244" 
d="M526.5 384q6.5 -16 6.5 -55q0 -40 -6.5 -55.5t-21.5 -15.5h-331q-68 0 -106.5 10.5t-57.5 32.5h-20v56h20q19 22 57.5 32.5t106.5 10.5h331q15 0 21.5 -16z" />
    <glyph glyph-name="glyph245" 
d="M93.5 274q-6.5 16 -6.5 55q0 40 6.5 55.5t21.5 15.5h331q68 0 106.5 -10.5t57.5 -32.5h20v-56h-20q-19 -22 -57.5 -32.5t-106.5 -10.5h-331q-15 0 -21.5 16z" />
    <glyph glyph-name="glyph246" 
d="M67.5 268.5q-38.5 10.5 -57.5 32.5h-20v56h20q19 22 57.5 32.5t106.5 10.5h272q68 0 106.5 -10.5t57.5 -32.5h20v-56h-20q-19 -22 -57.5 -32.5t-106.5 -10.5h-272q-68 0 -106.5 10.5z" />
    <glyph glyph-name="glyph248" 
d="M435 69q-83 -81 -197 -81q-96 0 -151.5 52t-55.5 143q0 61 27.5 111t81.5 84q-34 79 -34 148q0 86 55.5 133.5t152.5 47.5q56 0 103 -14t62 -34q12 -15 21 -63.5t9 -84.5q0 -17 -27 -28t-67 -11q-11 0 -16.5 5.5t-8.5 19.5l-11 95q-29 12 -65 12q-45 0 -66 -19.5
t-21 -69.5q0 -52 16 -126q63 -60 159 -143.5t189 -158.5q6 -6 6 -15q0 -15 -11 -34.5t-27.5 -33.5t-30.5 -14q-8 0 -16 6q-48 39 -77 73zM173 128q27 -25 81 -25q61 0 104 36q-49 39 -92.5 83.5t-69.5 80.5q-50 -41 -50 -102q0 -48 27 -73z" />
    <glyph glyph-name="glyph250" 
d="M189 629.5q-48 42.5 -64 117.5q-3 13 21 24t48 11q22 0 25 -11q10 -49 30 -72t61 -23t61 23t30 72q3 11 25 11q24 0 48 -11t21 -24q-16 -75 -64 -117.5t-121 -42.5t-121 42.5z" />
    <glyph glyph-name="glyph251" 
d="M123.5 634.5q-18.5 15.5 -18.5 52.5q0 36 18.5 51.5t66.5 15.5t66.5 -15.5t18.5 -51.5q0 -37 -18.5 -52.5t-66.5 -15.5t-66.5 15.5zM363.5 738.5q18.5 15.5 66.5 15.5t66.5 -15.5t18.5 -51.5q0 -37 -18.5 -52.5t-66.5 -15.5t-66.5 15.5t-18.5 52.5q0 36 18.5 51.5z" />
    <glyph glyph-name="glyph252" 
d="M166.5 728q-3.5 5 -3.5 11q0 13 13.5 30t33 29t34.5 12q11 0 17 -7l143 -148q6 -7 9.5 -11.5t3.5 -9.5q0 -15 -18.5 -32t-35.5 -17q-8 0 -13 4l-169 127q-11 7 -14.5 12z" />
    <glyph glyph-name="glyph253" 
d="M237 585q-17 0 -35.5 17t-18.5 32q0 5 3.5 9.5t9.5 11.5l143 148q6 7 17 7q15 0 34.5 -12t33 -29t13.5 -30q0 -6 -3.5 -11t-14.5 -12l-169 -127q-5 -4 -13 -4z" />
    <glyph glyph-name="glyph254" 
d="M499 635q0 -15 -19.5 -30.5t-37.5 -15.5q-10 0 -16 6l-116 112l-116 -112q-6 -6 -16 -6q-18 0 -37.5 15.5t-19.5 30.5q0 3 2.5 6.5t7.5 8.5l117 136q9 10 25.5 15.5t36.5 5.5t36.5 -5.5t25.5 -15.5l117 -136q10 -10 10 -15z" />
    <glyph glyph-name="glyph255" 
d="M121 757q0 15 19.5 30.5t37.5 15.5q10 0 16 -6l116 -112l116 112q6 6 16 6q18 0 37.5 -15.5t19.5 -30.5q0 -3 -2.5 -6.5t-7.5 -8.5l-117 -136q-9 -10 -25.5 -15.5t-36.5 -5.5t-36.5 5.5t-25.5 15.5l-117 136q-10 10 -10 15z" />
    <glyph glyph-name="glyph256" 
d="M193 627.5q-47 40.5 -68 111.5q-5 15 19 28t48 13q17 0 20 -9q13 -44 36 -66t62 -22t62 22t36 66q3 9 21 9q23 0 47 -13t20 -28q-22 -71 -69 -111.5t-117 -40.5t-117 40.5z" />
    <glyph glyph-name="glyph257" 
d="M209.5 622q-39.5 38 -39.5 97q0 58 39.5 96.5t100.5 38.5t101 -38.5t40 -96.5t-40 -96.5t-101 -38.5t-100.5 38zM257.5 670.5q20.5 -18.5 52.5 -18.5t52.5 18.5t20.5 48.5q0 29 -20.5 47.5t-52.5 18.5t-52.5 -18.5t-20.5 -47.5q0 -30 20.5 -48.5z" />
    <glyph glyph-name="glyph258" 
d="M337 620q-27 18 -57 50q-21 21 -31.5 29.5t-23.5 8.5q-33 0 -45 -91q-1 -9 -12.5 -14t-27.5 -5q-21 0 -37.5 7t-15.5 19q6 93 41 139.5t90 46.5q38 0 64 -17.5t58 -50.5q20 -21 31 -30t24 -9q18 0 29 22.5t17 68.5q1 10 13 15t28 5q20 0 36.5 -7.5t15.5 -19.5
q-6 -93 -41 -139t-91 -46q-38 0 -65 18z" />
    <glyph glyph-name="glyph259" 
d="M135 652q-7 15 -7 36t7 36.5t19 15.5h313q13 0 19.5 -15.5t6.5 -36.5t-6.5 -36t-19.5 -15h-313q-12 0 -19 15z" />
    <glyph glyph-name="glyph260" 
d="M211 -208q-12 17 -12 35q0 14 10 21l107 77q30 22 47 22q15 0 28 -13t21 -30.5t8 -29.5q0 -9 -7 -15.5t-32 -17.5l-108 -55q-22 -11 -37 -11q-13 0 -25 17z" />
    <glyph glyph-name="glyph261" 
d="M105 789.5q-20 15.5 -20 52.5q0 36 20 51.5t73 15.5t73.5 -15.5t20.5 -51.5q0 -37 -20.5 -52.5t-73.5 -15.5t-73 15.5zM369.5 893.5q20.5 15.5 72.5 15.5q53 0 73.5 -15.5t20.5 -51.5q0 -37 -20.5 -52.5t-73.5 -15.5q-52 0 -72.5 15.5t-20.5 52.5q0 36 20.5 51.5z" />
    <glyph glyph-name="glyph262" 
d="M232 789.5q-22 15.5 -22 52.5q0 36 22 51.5t78 15.5t78 -15.5t22 -51.5q0 -37 -21.5 -52.5t-78.5 -15.5q-56 0 -78 15.5z" />
    <glyph glyph-name="glyph263" 
d="M135 893q-4 5 -4 11q0 13 15 30t36 29t38 12q12 0 19 -7l157 -148l7 -7t6.5 -8t1.5 -6q0 -14 -21 -31.5t-39 -17.5q-9 0 -14 4l-186 127q-12 7 -16 12z" />
    <glyph glyph-name="glyph264" 
d="M229 750q-18 0 -38.5 17t-20.5 32q0 5 3.5 9.5t10.5 11.5l157 148q7 7 19 7q17 0 38 -12t36 -29t15 -30q0 -6 -4 -11t-16 -12l-186 -127q-5 -4 -14 -4z" />
    <glyph glyph-name="glyph265" 
d="M519 797q0 -15 -21 -30.5t-41 -15.5q-10 0 -18 6l-128 112l-128 -112q-7 -6 -18 -6q-20 0 -41 15.5t-21 30.5q0 4 11 15l129 136q9 10 28 15.5t40 5.5q22 0 40.5 -5.5t27.5 -15.5l129 -136q11 -10 11 -15z" />
    <glyph glyph-name="glyph266" 
d="M102 922q0 15 21 30.5t41 15.5q11 0 18 -6l128 -112l128 112q8 6 18 6q20 0 41 -15.5t21 -30.5q0 -4 -11 -15l-129 -136q-9 -10 -27.5 -15.5t-40.5 -5.5q-21 0 -40 5.5t-28 15.5l-129 136q-11 10 -11 15z" />
    <glyph glyph-name="glyph267" 
d="M181.5 793q-51.5 41 -74.5 111q-5 15 21.5 28t51.5 13q18 0 22 -9q15 -44 40 -66t68 -22t68 22t40 66q5 9 23 9q25 0 51.5 -13t22.5 -28q-24 -71 -76 -111.5t-129 -40.5t-128.5 41z" />
    <glyph glyph-name="glyph268" 
d="M199.5 787q-43.5 38 -43.5 97q0 38 20 69t55 48.5t79 17.5t79.5 -17.5t55.5 -48.5t20 -69q0 -58 -44 -96.5t-111 -38.5t-110.5 38zM252.5 835.5q22.5 -18.5 57.5 -18.5t57.5 18.5t22.5 48.5q0 29 -22.5 47.5t-57.5 18.5t-57.5 -18.5t-22.5 -47.5q0 -30 22.5 -48.5z" />
    <glyph glyph-name="glyph269" 
d="M339.5 780q-29.5 18 -62.5 50q-21 20 -34 29t-26 9q-19 0 -31 -22.5t-19 -68.5q-1 -9 -13.5 -14t-30.5 -5q-23 0 -41 7t-17 19q7 93 45 139.5t99 46.5q42 0 71.5 -18t62.5 -50q22 -21 34.5 -30t26.5 -9q19 0 31 22.5t19 68.5q1 10 14 15t31 5q23 0 40.5 -7.5t16.5 -19.5
q-6 -93 -44.5 -139t-100.5 -46q-42 0 -71.5 18z" />
    <glyph glyph-name="glyph270" 
d="M117.5 807q-7.5 15 -7.5 36t8 36.5t21 15.5h344q14 0 21.5 -15.5t7.5 -36.5t-7.5 -36t-21.5 -15h-344q-14 0 -21.5 15z" />
    <glyph glyph-name="glyph271" 
d="M230.5 646.5q-22.5 17.5 -22.5 58.5t22.5 58.5t79.5 17.5t79.5 -17.5t22.5 -58.5t-22.5 -58.5t-79.5 -17.5t-79.5 17.5z" />
    <glyph glyph-name="glyph272" 
 />
  </font>
</defs>
</svg>
