<?xml version="1.0" standalone="no"?>
<!DOCTYPE svg PUBLIC "-//W3C//DTD SVG 1.1//EN" "http://www.w3.org/Graphics/SVG/1.1/DTD/svg11.dtd" >
<svg xmlns="http://www.w3.org/2000/svg" xmlns:xlink="http://www.w3.org/1999/xlink" version="1.1">
<metadata>
Created by FontForge 20190801 at Wed Mar 24 01:31:56 2021
 By Unknown
</metadata>
<defs>
<font id="CodeliaLigaturesLight" horiz-adv-x="620" >
  <font-face 
    font-family="Codelia Ligatures Light"
    font-weight="300"
    font-style="italic"
    font-stretch="normal"
    units-per-em="1000"
    panose-1="0 0 0 0 0 0 0 0 0 0"
    ascent="800"
    descent="-200"
    x-height="517"
    cap-height="697"
    bbox="-35.2727 -224 1021 1021"
    underline-thickness="50"
    underline-position="-175"
    slope="-9.46199"
    unicode-range="U+0020-2013"
  />
<missing-glyph 
 />
    <glyph glyph-name=".notdef" 
 />
    <glyph glyph-name=".null" horiz-adv-x="0" 
 />
    <glyph glyph-name="nonmarkingreturn" 
 />
    <glyph glyph-name="space" unicode=" " 
 />
    <glyph glyph-name="exclam" unicode="!" 
d="M216 0q-15 10 -15 33q0 10 1 16q5 32 24 45.5t59 13.5q34 0 49 -10t15 -33q0 -10 -1 -16q-5 -31 -24.5 -45t-58.5 -14q-34 0 -49 10zM348 713q2 12 11.5 17.5t30.5 5.5t28.5 -5.5t5.5 -17.5l-86 -434q-2 -11 -8 -15.5t-20 -4.5t-18.5 4.5t-3.5 15.5z" />
    <glyph glyph-name="dollar" unicode="$" 
d="M226 -87q1 5 5 25.5t10 47.5q-81 3 -153 32q-14 6 -19.5 11t-5.5 13q0 15 11 28t20 9q36 -19 73.5 -28t82.5 -10q22 157 47 281q-75 23 -115 62.5t-40 120.5q0 88 57 144t162 61q3 26 5.5 43.5t3.5 21.5q3 17 29 17q14 0 19 -4t4 -13q-2 -15 -13 -65q76 -4 140 -39
q14 -8 20.5 -14.5t6.5 -14.5q0 -13 -13.5 -26.5t-23.5 -7.5q-32 21 -64.5 33t-74.5 14q-16 -131 -49 -285q87 -25 126.5 -66t39.5 -113q0 -87 -61.5 -141.5t-166.5 -62.5q-7 -56 -11 -74q-3 -18 -29 -18t-23 18zM228.5 426.5q28.5 -28.5 84.5 -45.5q16 124 46 274
q-82 -4 -120.5 -45t-38.5 -102q0 -53 28.5 -81.5zM414 88.5q45 38.5 45 101.5q0 47 -28 73t-94 47q-23 -159 -45 -268q77 8 122 46.5z" />
    <glyph glyph-name="ampersand" unicode="&#x26;" 
d="M415 85q-91 -97 -203 -97q-88 0 -137 45.5t-49 127.5q0 68 39 123.5t107 93.5q-12 57 -12 106q0 105 57 164t155 59q55 0 98 -13.5t55 -32.5q7 -11 7 -63q0 -51 -6 -81q-1 -9 -10.5 -14.5t-22.5 -5.5q-24 0 -24 16q4 48 4 116q-17 9 -43 15t-58 6q-85 0 -120.5 -44
t-35.5 -147q0 -21 2 -75q75 -88 197 -226q51 71 94 158q4 10 20 10q15 0 27 -8.5t7 -19.5q-58 -112 -113 -174q34 -30 97 -91q4 -5 -1 -15.5t-14.5 -19.5t-18.5 -9q-5 0 -8 3q-55 52 -90 93zM114.5 75q32.5 -30 96.5 -30q95 0 171 74q-61 61 -109.5 118.5t-75.5 100.5
q-115 -72 -115 -176q0 -57 32.5 -87z" />
    <glyph glyph-name="comma" unicode="," 
d="M123 -204q-11 0 -19.5 8.5t-8.5 18.5q0 7 11 18q65 65 132 125q-15 27 -22.5 59t-7.5 58q0 34 21 46.5t63 12.5q69 0 69 -35q0 -24 -31 -77t-83 -115.5t-112 -113.5q-7 -5 -12 -5z" />
    <glyph glyph-name="hyphen" unicode="-" 
d="M110.5 301q-2.5 5 -2.5 16q0 14 5.5 29.5t16.5 15.5h394q6 0 8.5 -5t2.5 -16q0 -14 -5.5 -29.5t-16.5 -15.5h-394q-6 0 -8.5 5z" />
    <glyph glyph-name="period" unicode="." 
d="M201 3q-20 13 -20 42q0 7 2 21q7 40 32 58t76 18q44 0 64 -13.5t20 -42.5q0 -6 -2 -20q-7 -40 -32 -58t-76 -18q-44 0 -64 13z" />
    <glyph glyph-name="zero" unicode="0" 
d="M131.5 51.5q-44.5 63.5 -44.5 204.5q0 99 27 202.5t92 177t172 73.5q97 0 141.5 -63.5t44.5 -204.5q0 -99 -27 -202.5t-92 -177t-172 -73.5q-97 0 -141.5 63.5zM150 198q150 162 345 343q-11 59 -40.5 86t-79.5 27q-79 0 -130 -64t-74 -156t-23 -178q0 -24 2 -58z
M195.5 71q29.5 -28 80.5 -28q79 0 130 64t74 156t23 178q0 36 -3 64q-157 -169 -345 -344q11 -62 40.5 -90z" />
    <glyph glyph-name="one" unicode="1" 
d="M80 13q0 13 5 27t15 14q82 0 168 -3q38 263 96 576h-12q-101 -61 -212 -93q-11 -3 -17.5 9t-6.5 28q0 13 21 20q59 19 124 46.5t115 58.5q12 8 22 8q16 0 25 -4.5t8 -12.5q-65 -397 -109 -636q82 3 152 3q11 0 11 -13t-5 -27t-15 -14h-374q-11 0 -11 13z" />
    <glyph glyph-name="two" unicode="2" 
d="M34 18q0 34 26 56q170 129 256.5 201.5t137 139t50.5 128.5q0 54 -33.5 82t-94.5 28q-48 0 -96.5 -14t-87.5 -38q-11 -6 -20 6t-9 27q0 9 7 13q44 28 97.5 44t112.5 16q86 0 135 -42t49 -122q0 -78 -60 -156t-149 -149t-243 -179l-2 -8q129 3 385 3q11 0 11 -13t-5 -27
t-15 -14h-441q-11 0 -11 18z" />
    <glyph glyph-name="three" unicode="3" 
d="M79 20q-14 6 -20 12t-6 14q0 11 8.5 23.5t16.5 12.5q6 0 20 -8q32 -15 65 -25t84 -10q93 0 151 38.5t58 102.5q0 48 -30.5 82t-95.5 57q-31 -1 -110 -1q-19 0 -19 21q0 14 6 26t19 12q61 0 121 -9q143 81 143 184q0 98 -139 98q-41 0 -82 -9t-74 -24q-11 -5 -18 8t-7 26
q0 7 3 11t9 7q35 16 81.5 25.5t91.5 9.5q94 0 145 -38.5t51 -108.5q0 -122 -151 -210l-2 -8q57 -22 87.5 -59.5t30.5 -98.5q0 -60 -35 -104t-96.5 -68t-137.5 -24q-94 0 -168 35z" />
    <glyph glyph-name="four" unicode="4" 
d="M348 10q7 46 33 188q-110 -3 -329 -3q-11 0 -11 16q0 17 5 31.5t18 31.5q71 91 169 200.5t196 208.5q14 13 24 17.5t28 4.5q20 0 31 -5t10 -14q-40 -248 -76 -440q63 3 109 3q12 0 12 -15q0 -14 -5 -26.5t-16 -12.5q-46 0 -108 3q-11 -83 -23 -155l-5 -33q-3 -17 -34 -17
t-28 17zM253 249q77 0 137 -4q11 86 32 201t39 194h-9q-87 -86 -178.5 -189.5t-164.5 -196.5l-1 -9q96 4 145 4z" />
    <glyph glyph-name="five" unicode="5" 
d="M162 -6q-45 9 -77 25q-16 8 -22.5 14t-6.5 13q0 10 9 23t17 13q3 0 27.5 -12t61.5 -21.5t87 -9.5q59 0 104.5 20t70.5 55t25 80q0 72 -67 110.5t-216 51.5q-30 3 -30 21q0 6 3 13l93 276q5 17 12.5 24t18.5 7h299q12 0 12 -17q0 -12 -5 -24.5t-16 -12.5q-144 0 -272 3
q-37 -123 -84 -246q163 -10 237 -59.5t74 -145.5q0 -61 -33.5 -109t-93 -74.5t-136.5 -26.5q-47 0 -92 9z" />
    <glyph glyph-name="six" unicode="6" 
d="M134 42.5q-55 57.5 -55 183.5q0 122 40.5 233t126 182t212.5 71q50 0 92 -8q12 -2 17 -6.5t5 -13.5q0 -15 -7.5 -28.5t-16.5 -10.5q-40 13 -94 13q-113 0 -193 -74.5t-116 -226.5l5 -1q88 65 185 65t148.5 -48.5t51.5 -142.5q0 -69 -29 -125t-83.5 -88t-129.5 -32
q-104 0 -159 57.5zM175.5 85q38.5 -46 115.5 -46q58 0 100 25.5t63.5 68.5t21.5 95q0 69 -38.5 104.5t-111.5 35.5q-45 0 -93 -14.5t-90 -40.5q-6 -44 -6 -85q0 -97 38.5 -143z" />
    <glyph glyph-name="seven" unicode="7" 
d="M164 7q0 5 6 18t9 18q139 296 357 595l2 8q-128 -3 -383 -3q-11 0 -11 14q0 12 5.5 26t14.5 14h437q11 0 11 -17q0 -13 -5.5 -30t-16.5 -32q-220 -306 -358 -607q-5 -10 -12.5 -14t-20.5 -4q-35 0 -35 14z" />
    <glyph glyph-name="eight" unicode="8" 
d="M118 30.5q-57 45.5 -57 128.5q0 63 35.5 113t103.5 91l2 8q-29 27 -46.5 67.5t-17.5 86.5q0 88 65 137.5t170 49.5q100 0 152 -41.5t52 -118.5q0 -64 -37.5 -116.5t-101.5 -85.5l-1 -8q92 -63 92 -166q0 -90 -68 -140.5t-176 -50.5q-110 0 -167 45.5zM163.5 73
q41.5 -34 125.5 -34q82 0 131 36t49 99q0 87 -80 143q-80 7 -147 21q-63 -45 -91.5 -84.5t-28.5 -85.5q0 -61 41.5 -95zM242 394q65 -13 155 -22q54 35 86.5 80.5t32.5 90.5q0 55 -37 85t-111 30q-81 0 -125.5 -37.5t-44.5 -98.5q0 -72 44 -128z" />
    <glyph glyph-name="nine" unicode="9" 
d="M104.5 -2q-8.5 10 -8.5 26q0 15 16 21q247 82 345 231l-2 8q-47 -11 -105 -11q-112 0 -173 51.5t-61 151.5q0 65 28.5 119t82 85.5t125.5 31.5q107 0 165 -61t58 -171q0 -115 -58 -211.5t-159.5 -167t-232.5 -110.5q-12 -3 -20.5 7zM228 365.5q52 -39.5 150 -39.5
q59 0 109 10q30 73 30 140q0 86 -40.5 134t-121.5 48q-54 0 -95 -23.5t-62.5 -64t-21.5 -88.5q0 -77 52 -116.5z" />
    <glyph glyph-name="colon" unicode=":" 
d="M265 387q-20 13 -20 42q0 7 2 21q7 40 32 58t76 18q44 0 64 -13.5t20 -42.5q0 -6 -2 -20q-7 -40 -32 -58t-76 -18q-44 0 -64 13zM201 4q-20 13 -20 42q0 7 2 21q7 40 32 58t76 18q44 0 64 -13.5t20 -42.5q0 -6 -2 -20q-7 -40 -32 -58t-76 -18q-44 0 -64 13z" />
    <glyph glyph-name="semicolon" unicode=";" 
d="M123 -204q-11 0 -19.5 8.5t-8.5 18.5q0 7 11 18q65 65 132 125q-15 27 -22.5 59t-7.5 58q0 34 21 46.5t63 12.5q69 0 69 -35q0 -24 -31 -77t-83 -115.5t-112 -113.5q-7 -5 -12 -5zM265 387q-20 13 -20 42q0 7 2 21q7 40 32 58t76 18q44 0 64 -13.5t20 -42.5q0 -6 -2 -20
q-7 -40 -32 -58t-76 -18q-44 0 -64 13z" />
    <glyph glyph-name="question" unicode="?" 
d="M219.5 275.5q-8.5 11.5 -8.5 25.5q0 11 10 15q109 45 166.5 76.5t82 60.5t24.5 66q0 47 -46 78.5t-114 46.5t-137 17q-17 1 -17 28q0 15 6.5 28.5t22.5 13.5q63 0 143 -20.5t139.5 -67.5t59.5 -121q0 -55 -28.5 -94.5t-94.5 -75.5t-191 -84q-9 -4 -17.5 7.5zM173 94.5
q19 13.5 59 13.5q34 0 49 -10t15 -33q0 -10 -1 -16q-5 -31 -24.5 -45t-58.5 -14q-34 0 -49 10.5t-15 32.5q0 10 1 16q5 32 24 45.5z" />
    <glyph glyph-name="A" unicode="A" 
d="M16 8q0 3 4 15t7 20q132 338 300 634q8 16 19.5 22t37.5 6t35.5 -6t13.5 -22q67 -286 88 -634q0 -28 -1 -34q-1 -16 -34 -16q-13 0 -19 4.5t-7 17.5l-9 198q-65 -4 -147 -4t-146 4q-40 -109 -76 -198q-6 -13 -13.5 -17.5t-20.5 -4.5q-32 0 -32 15zM313 264q45 0 135 -2
l-11 70q-31 217 -53 319h-10q-59 -107 -145 -285l-52 -104q92 2 136 2z" />
    <glyph glyph-name="B" unicode="B" 
d="M164 -1q-48 7 -74 20q-14 5 -19 12.5t-3 20.5l65 385q18 105 26.5 139t18.5 51l2 10q-28 -6 -37 -6q-17 0 -13 27q2 14 8 19.5t22 9.5q37 8 87 13t95 5q210 0 210 -161q0 -118 -121 -188l-2 -8q50 -17 76.5 -55t26.5 -98q0 -99 -73.5 -151t-196.5 -52q-50 0 -98 7z
M186.5 52q35.5 -5 75.5 -5q93 0 151.5 36.5t58.5 109.5q0 62 -40.5 94t-122.5 32q-71 0 -139 -9q-13 -116 -40 -243q21 -10 56.5 -15zM320 371q19 0 51 -2q121 70 121 172q0 109 -155 109q-58 0 -112 -8q-16 -137 -47 -280q74 9 142 9z" />
    <glyph glyph-name="C" unicode="C" 
d="M134 50.5q-55 61.5 -55 198.5q0 98 31.5 203.5t106.5 180.5t197 75q66 0 115 -17t61 -42q7 -13 7 -57q0 -32 -4 -60q-4 -22 -32 -22q-15 0 -20.5 4t-4.5 15q3 38 3 92q-17 14 -51.5 23t-75.5 9q-100 0 -161 -67t-86.5 -159t-25.5 -175q0 -112 40.5 -160t123.5 -48
q44 0 87.5 10.5t94.5 33.5q11 6 18.5 -5.5t7.5 -26.5q0 -18 -18 -26q-41 -19 -93 -30t-101 -11q-110 0 -165 61.5z" />
    <glyph glyph-name="D" unicode="D" 
d="M144.5 -1.5q-42.5 6.5 -67.5 17.5q-13 5 -17.5 12.5t-2.5 20.5l65 388q18 105 26.5 139t18.5 51l2 10q-28 -6 -37 -6q-17 0 -13 27q2 14 8 19.5t22 9.5q81 18 164 18q255 0 255 -290q0 -106 -33 -202t-107.5 -158.5t-192.5 -62.5q-48 0 -90.5 6.5zM167 51.5
q30 -4.5 62 -4.5q110 0 172 61t84 144t22 162q0 120 -48.5 178t-149.5 58q-52 0 -95 -8q-36 -248 -96 -579q19 -7 49 -11.5z" />
    <glyph glyph-name="E" unicode="E" 
d="M89 6.5q-5 6.5 -3 22.5l69 416q17 104 26 138.5t20 51.5l1 10l-38 -2q-13 0 -13 18q0 12 5.5 24t16.5 12h409q13 0 13 -18q0 -12 -5.5 -24t-16.5 -12q-146 0 -327 3q-14 -127 -45 -266q170 3 289 3q13 0 13 -18q0 -12 -5.5 -24t-16.5 -12q-119 0 -288 3
q-14 -132 -47 -281q184 3 332 3q13 0 13 -18q0 -12 -5.5 -24t-16.5 -12h-359q-16 0 -21 6.5z" />
    <glyph glyph-name="F" unicode="F" 
d="M105 10l72 435q17 104 26 138.5t20 51.5l1 10l-38 -2q-13 0 -13 18q0 12 5.5 24t16.5 12h410q13 0 13 -18q0 -12 -5.5 -24.5t-16.5 -12.5q-157 0 -328 3q-16 -138 -47 -287q158 3 289 3q13 0 13 -18q0 -12 -5.5 -24.5t-16.5 -12.5q-131 0 -289 3q-13 -95 -46 -299
q-3 -17 -34 -17q-30 0 -27 17z" />
    <glyph glyph-name="G" unicode="G" 
d="M132 52q-57 63 -57 201q0 116 37 220t112 169.5t183 65.5q63 0 110.5 -14t61.5 -35q7 -11 7 -54q0 -28 -4 -56q-2 -11 -10 -16t-25 -5q-12 0 -17 4t-4 12q3 40 1 80q-17 13 -50 21t-72 8q-89 0 -150 -59t-90 -151t-29 -191q0 -113 40 -160.5t123 -47.5q82 0 152 31
q8 95 35 207q-77 -3 -134 -3q-13 0 -13 18q0 12 5.5 24.5t16.5 12.5h163q14 0 19.5 -4.5t5.5 -14.5q0 -7 -1 -11l-39 -229q-3 -18 -10 -28.5t-21 -18.5q-87 -39 -178 -39q-111 0 -168 63z" />
    <glyph glyph-name="H" unicode="H" 
d="M46 10l112 677q3 17 34 17t28 -17q-13 -88 -53 -304q84 3 164 3q82 0 164 -3q16 109 37 240l10 64q3 17 34 17t28 -17l-112 -677q-3 -17 -34 -17t-28 17q15 101 57 324q-84 -3 -165 -3q-80 0 -163 3l-38 -240l-13 -84q-3 -17 -34 -17t-28 17z" />
    <glyph glyph-name="I" unicode="I" 
d="M88 18q0 12 5.5 24.5t16.5 12.5q61 0 139 -3q43 303 98 593q-78 -3 -139 -3q-13 0 -13 18q0 12 5.5 24.5t16.5 12.5h332q13 0 13 -18q0 -12 -5.5 -24.5t-16.5 -12.5q-61 0 -139 3q-43 -303 -98 -593q78 3 139 3q13 0 13 -18q0 -12 -5.5 -24.5t-16.5 -12.5h-332
q-13 0 -13 18z" />
    <glyph glyph-name="J" unicode="J" 
d="M119.5 0q-34.5 12 -58.5 38q-15 17 -15 27q0 9 7.5 18t17 13t14.5 -1q24 -28 50.5 -40t67.5 -12q74 0 118 36t70 129q19 71 39 199.5t32 237.5q-127 -3 -225 -3q-13 0 -13 18q0 12 5.5 24.5t16.5 12.5h254q16 0 22 -6.5t4 -22.5q-39 -332 -80 -479q-30 -107 -90 -154
t-154 -47q-48 0 -82.5 12z" />
    <glyph glyph-name="K" unicode="K" 
d="M453.5 -1.5q-4.5 5.5 -11.5 22.5q-30 77 -75.5 156.5t-104.5 151.5q-43 -4 -91 -6l-36 -229l-13 -84q-3 -17 -34 -17t-28 17l112 677q3 17 34 17t28 -17q-25 -150 -54 -309q44 0 87 6q132 128 254 295q11 15 17.5 20t14.5 5q15 0 28 -6t13 -15q0 -11 -20 -36
q-51 -68 -124 -150t-140 -144q57 -65 107 -147t77 -150q12 -31 12 -39t-14 -16t-26 -8q-8 0 -12.5 5.5z" />
    <glyph glyph-name="L" unicode="L" 
d="M70 6.5q-5 6.5 -3 22.5l109 658q3 17 33 17q31 0 28 -17q-67 -407 -108 -635q149 3 305 3q17 39 34 95q4 12 8.5 16.5t12.5 4.5q16 0 25 -5.5t9 -14.5q0 -19 -23.5 -71t-38.5 -70q-8 -10 -20 -10h-350q-16 0 -21 6.5z" />
    <glyph glyph-name="M" unicode="M" 
d="M23 10q26 158 62.5 335.5t75.5 333.5q5 14 15 19.5t34 5.5t33.5 -5.5t11.5 -20.5q41 -202 54 -376h12q78 189 180 376q7 15 18.5 20.5t36.5 5.5t34 -5.5t9 -19.5q-12 -153 -34.5 -330t-49.5 -339q-3 -17 -34 -17t-28 17q60 366 89 631h-10q-89 -161 -180 -376
q-5 -13 -15 -19t-30 -6t-28.5 6t-8.5 19q-18 200 -54 376h-10q-60 -260 -121 -631q-3 -17 -34 -17t-28 17z" />
    <glyph glyph-name="N" unicode="N" 
d="M46 10l112 672q4 22 40 22q21 0 30.5 -7.5t16.5 -29.5q83 -233 196 -607h8q12 98 40.5 288t52.5 339q3 17 34 17t28 -17l-112 -672q-4 -22 -40 -22q-21 0 -30.5 7.5t-16.5 29.5q-69 193 -196 607h-8q-12 -98 -40.5 -288t-52.5 -339q-3 -17 -34 -17t-28 17z" />
    <glyph glyph-name="O" unicode="O" 
d="M117.5 51.5q-48.5 63.5 -48.5 204.5q0 99 28.5 202.5t97.5 177t183 73.5q107 0 155.5 -63.5t48.5 -204.5q0 -99 -28.5 -202.5t-97.5 -177t-183 -73.5q-107 0 -155.5 63.5zM164.5 92.5q34.5 -49.5 111.5 -49.5q85 0 140 64t80 156t25 178q0 114 -34.5 163.5t-111.5 49.5
q-85 0 -140 -64t-80 -156t-25 -178q0 -114 34.5 -163.5z" />
    <glyph glyph-name="P" unicode="P" 
d="M79 10l71 427q17 103 25.5 138t19.5 52l2 10q-28 -6 -37 -6q-17 0 -13 27q2 14 8 19.5t22 9.5q90 18 174 18q115 0 174 -51t59 -152q0 -72 -28.5 -135t-93.5 -103.5t-166 -40.5q-66 0 -122 14q-23 -161 -34 -227q-3 -17 -34 -17q-30 0 -27 17zM300 278q118 0 170.5 65.5
t52.5 160.5q0 74 -42.5 110t-128.5 36q-63 0 -110 -9q-20 -170 -59 -351q53 -12 117 -12z" />
    <glyph glyph-name="Q" unicode="Q" 
d="M132 57.5q-63 64.5 -63 198.5q0 99 28.5 202.5t97.5 177t183 73.5q107 0 155.5 -63.5t48.5 -204.5q0 -94 -36 -206t-107 -206q56 -48 121 -86q9 -6 12 -10t3 -9q0 -12 -13.5 -27t-22.5 -15q-4 0 -9 3t-13 8q-61 44 -120 109q-37 -9 -83 -9q-119 0 -182 64.5zM179 94.5
q49 -49.5 143 -49.5q44 0 75 6q60 85 92 196.5t32 193.5q0 114 -34.5 163.5t-111.5 49.5q-85 0 -140 -64t-80 -156t-25 -178q0 -112 49 -161.5z" />
    <glyph glyph-name="R" unicode="R" 
d="M65 10l71 427q17 103 25.5 138t19.5 52l2 10q-28 -6 -37 -6q-17 0 -13 27q2 14 8 19.5t22 9.5q36 8 83 13t91 5q114 0 172 -45.5t58 -132.5q0 -80 -45.5 -143.5t-128.5 -109.5q37 -53 69.5 -113.5t51.5 -109.5q9 -24 9 -32q0 -10 -16 -18t-26 -8q-9 0 -13 6t-12 26
q-42 113 -125 238q-36 -2 -54 -2q-52 0 -111 8l-33 -214l-7 -45q-3 -17 -34 -17q-30 0 -27 17zM298 315q39 0 59 2q149 86 149 211q0 61 -41 91.5t-126 30.5q-63 0 -111 -9q-19 -147 -53 -318q53 -8 123 -8z" />
    <glyph glyph-name="S" unicode="S" 
d="M88 18q-14 6 -19.5 11t-5.5 13q0 15 11 28t20 9q38 -20 77.5 -29t87.5 -9q91 0 145.5 39.5t54.5 109.5q0 49 -31.5 76t-107.5 49q-57 16 -94.5 35.5t-60.5 57t-23 97.5q0 93 63 149.5t178 56.5q56 0 104.5 -13.5t61.5 -29.5q9 -10 9 -54q0 -27 -4 -55q-2 -11 -10 -16
t-25 -5q-12 0 -17 4t-4 12q4 45 2 78q-51 24 -121 24q-92 0 -135.5 -42t-43.5 -106q0 -41 17.5 -67t47.5 -41t78 -28q91 -26 132.5 -67t41.5 -114q0 -61 -32 -107.5t-90.5 -72t-136.5 -25.5q-93 0 -170 32z" />
    <glyph glyph-name="T" unicode="T" 
d="M238 10q68 411 109 635q-120 -3 -219 -3q-13 0 -13 18q0 12 5.5 24.5t16.5 12.5h492q13 0 13 -18q0 -12 -5.5 -24.5t-16.5 -12.5q-99 0 -219 3q-25 -170 -56.5 -364.5t-40.5 -248.5q-2 -8 -4 -22q-3 -17 -34 -17t-28 17z" />
    <glyph glyph-name="U" unicode="U" 
d="M128.5 33.5q-47.5 45.5 -47.5 149.5q0 71 26.5 220t55.5 284q6 17 34 17q31 0 27 -19q-29 -123 -56.5 -279.5t-27.5 -230.5q0 -73 32 -102.5t101 -29.5q75 0 119 37t69 133q20 73 44 225.5t33 246.5q1 19 33 19q30 0 28 -17q-14 -124 -35.5 -265.5t-46.5 -232.5
q-29 -107 -88.5 -154t-153.5 -47q-99 0 -146.5 45.5z" />
    <glyph glyph-name="V" unicode="V" 
d="M230.5 -1q-9.5 6 -13.5 22q-77 309 -88 654q-1 16 6 23t29 7q13 0 19 -4.5t7 -18.5q3 -161 22 -323t54 -311h10q171 295 292 634q6 14 13.5 18.5t20.5 4.5q32 0 32 -13q0 -6 -11 -37q-125 -335 -300 -634q-8 -16 -19.5 -22t-37.5 -6t-35.5 6z" />
    <glyph glyph-name="W" unicode="W" 
d="M114.5 2q-8.5 7 -10.5 29q-16 146 -16 343q0 195 15 316q3 15 32 15q15 0 21.5 -4.5t5.5 -16.5q-19 -180 -19 -378q0 -133 9 -258h10q75 141 136 314q12 104 16 126q3 19 36 19t30 -19q-5 -33 -26 -126q5 -173 32 -314h10q62 154 114.5 318t87.5 318q3 12 11.5 16.5
t23.5 4.5q31 0 28 -15q-27 -129 -94.5 -328t-126.5 -331q-10 -22 -20.5 -29t-32.5 -7t-30 5.5t-10 22.5q-25 142 -25 281h-8q-47 -142 -117 -281q-8 -16 -19 -22t-33 -6t-30.5 7z" />
    <glyph glyph-name="X" unicode="X" 
d="M22 -1q-12 7 -12 17q0 6 5 15.5t15 23.5q47 72 118 159t140 157q-39 65 -76 140.5t-59 135.5q-9 24 -9 34q0 9 13 16.5t24 7.5q9 0 14 -5.5t11 -21.5q51 -148 123 -273h10q120 138 207 273q11 16 17.5 21.5t15.5 5.5q13 0 24.5 -8t11.5 -19q0 -5 -5.5 -14.5t-14.5 -22.5
q-44 -65 -106.5 -143.5t-121.5 -141.5q46 -69 88.5 -153.5t66.5 -153.5q8 -25 8 -32q0 -10 -12 -17.5t-24 -7.5q-9 0 -15 5.5t-12 22.5q-21 73 -58.5 151t-83.5 149h-9q-67 -71 -128.5 -149t-106.5 -151q-11 -17 -18 -22.5t-16 -5.5q-13 0 -25 7z" />
    <glyph glyph-name="Y" unicode="Y" 
d="M238 10q17 108 49 274q-91 175 -148 379q-4 14 -4 21q0 9 12.5 15t26.5 6q9 0 13.5 -5t7.5 -17q21 -79 53.5 -168.5t68.5 -165.5h8q62 75 124.5 163.5t112.5 170.5q8 13 13 17.5t14 4.5q15 0 26.5 -5.5t11.5 -14.5q0 -7 -10 -24q-127 -207 -275 -377q-12 -84 -23 -155.5
t-15 -95.5l-4 -23q-3 -17 -34 -17t-28 17z" />
    <glyph glyph-name="Z" unicode="Z" 
d="M17 19q0 9 1 14q2 15 6.5 23.5t20.5 27.5q304 351 489 553l1 8q-208 -3 -377 -3q-13 0 -13 18q0 12 5.5 24.5t16.5 12.5h427q17 0 17 -19q0 -8 -1 -13q-2 -15 -7 -24.5t-20 -27.5q-304 -351 -489 -553l-1 -8q222 3 420 3q13 0 13 -18q0 -12 -5.5 -24.5t-16.5 -12.5h-470
q-17 0 -17 19z" />
    <glyph glyph-name="a" unicode="a" 
d="M476.5 -8.5q-4.5 5.5 -9.5 23.5q-14 47 -37 139h-8q-67 -83 -125 -124.5t-111 -41.5q-56 0 -87.5 46t-31.5 142q0 101 33.5 180.5t98 125.5t153.5 46q103 0 160 -51q9 -7 12.5 -13t3.5 -15q0 -8 -1 -13l-8 -41q-20 -122 -47 -208q25 -64 56 -152q5 -16 5 -24
q0 -9 -15 -17t-29 -8q-8 0 -12.5 5.5zM146.5 75q19.5 -35 53.5 -35q43 0 101 46t121 131q23 76 47 221q-25 19 -57.5 28.5t-67.5 9.5q-105 0 -161 -81.5t-56 -211.5q0 -73 19.5 -108z" />
    <glyph glyph-name="b" unicode="b" 
d="M103 40q-8 7 -11.5 13t-3.5 15q0 8 1 13l66 397q6 38 31 207l4 31q5 17 33 17t25 -17q-35 -221 -63 -357h9q65 85 123.5 127.5t112.5 42.5q56 0 87.5 -46.5t31.5 -141.5q0 -101 -33.5 -180.5t-98 -125.5t-154.5 -46q-97 0 -160 51zM201.5 51.5q33.5 -10.5 70.5 -10.5
q105 0 160.5 81.5t55.5 211.5q0 73 -19.5 108t-53.5 35q-45 0 -106.5 -51t-132.5 -150q-12 -85 -32 -193q24 -21 57.5 -31.5z" />
    <glyph glyph-name="c" unicode="c" 
d="M134.5 30.5q-41.5 42.5 -41.5 136.5q0 90 29.5 172.5t93 136t159.5 53.5q51 0 87.5 -11.5t53.5 -30.5q7 -8 10.5 -41t3.5 -60q0 -10 -9.5 -16t-24.5 -6q-21 0 -21 14v74q-17 11 -46 18t-60 7q-80 0 -128.5 -50t-68.5 -118.5t-20 -130.5q0 -75 27.5 -106.5t83.5 -31.5
q48 0 98.5 23t109.5 68q5 3 8 3q10 0 18.5 -12t8.5 -23q0 -8 -10 -15q-54 -44 -116.5 -70t-120.5 -26q-83 0 -124.5 42.5z" />
    <glyph glyph-name="d" unicode="d" 
d="M98.5 34q-31.5 46 -31.5 142q0 101 32.5 180.5t95.5 125.5t151 46q72 0 135 -30q9 61 35 218q3 17 32 17q15 0 20.5 -3.5t5.5 -11.5q0 -7 -11 -67q-19 -106 -27 -157l-48 -293q36 -145 41 -166q4 -17 4 -23q0 -13 -14 -19.5t-28 -6.5q-10 0 -15 6t-8 24q-15 94 -24 156
h-9q-70 -92 -131.5 -138t-117.5 -46t-87.5 46zM146.5 75q19.5 -35 53.5 -35q46 0 107 50.5t131 149.5q13 95 35 204q-61 32 -129 32q-105 0 -161 -81.5t-56 -211.5q0 -73 19.5 -108z" />
    <glyph glyph-name="e" unicode="e" 
d="M134.5 33q-44.5 45 -44.5 143q0 96 35.5 176.5t99.5 128t144 47.5q51 0 91 -18t62 -49.5t22 -69.5q0 -46 -36 -76.5t-113.5 -57t-245.5 -72.5v-5q0 -76 30.5 -108t101.5 -32q93 0 196 73q9 6 20 -6.5t11 -23.5q0 -7 -4 -12.5t-15 -12.5q-106 -70 -214 -70
q-96 0 -140.5 45zM366.5 294.5q64.5 21.5 93.5 43t29 52.5q0 39 -33.5 64.5t-88.5 25.5q-60 0 -106 -33.5t-73.5 -90t-35.5 -125.5q150 42 214.5 63.5z" />
    <glyph glyph-name="f" unicode="f" 
d="M44 -202q-14 0 -14 26q0 15 3.5 21t13.5 8q64 15 98.5 35.5t51.5 52.5t26 88q9 58 14.5 132.5t10.5 180.5q4 67 5 95q-80 -3 -149 -3q-13 0 -13 17q0 12 5.5 23.5t15.5 11.5q66 0 140 -3q1 98 26 152t89.5 78t186.5 25q17 2 17 -28q0 -26 -15 -28q-108 -2 -159 -17.5
t-71 -56t-22 -125.5q132 3 248 3q13 0 13 -17q0 -12 -5.5 -23.5t-15.5 -11.5q-113 0 -239 3q-4 -293 -24 -417q-16 -100 -70 -151.5t-164 -70.5h-3z" />
    <glyph glyph-name="g" unicode="g" 
d="M8 -94q0 36 23 71t77 77q-34 52 -34 137q0 98 34 174t98.5 119.5t152.5 43.5q99 0 160 -51q9 -7 12.5 -13t3.5 -16q0 -8 -1 -13q-26 -156 -67 -258q27 -95 27 -173q0 -209 -282 -209q-204 0 -204 111zM214 -153q113 0 167 38t54 126q0 63 -16 142q-62 -48 -136 -77
t-145 -36q-39 -42 -57 -70.5t-18 -50.5q0 -72 151 -72zM152 100q63 4 133 30t138 75q17 55 28.5 108t24.5 124q-25 20 -57.5 29.5t-67.5 9.5q-70 0 -119 -36.5t-73.5 -99t-24.5 -142.5q0 -60 18 -98z" />
    <glyph glyph-name="h" unicode="h" 
d="M408 12q30 110 47 194.5t17 146.5q0 61 -16.5 88.5t-51.5 27.5q-50 0 -114.5 -53.5t-125.5 -155.5q-16 -121 -37 -250q-3 -17 -32 -17q-30 0 -27 17l81 484q20 118 29 189q2 19 5 33q3 17 32 17q30 0 27 -17q-30 -187 -64 -359h8q58 87 118 129.5t111 42.5
q116 0 116 -169q0 -124 -65 -350q-5 -17 -31 -17q-31 0 -27 19z" />
    <glyph glyph-name="i" unicode="i" 
d="M249.5 18.5q-26.5 30.5 -26.5 90.5q0 54 18.5 157t44.5 202q-93 -3 -170 -3q-13 0 -13 17q0 12 5.5 23.5t15.5 11.5h200q15 0 20 -6t3 -21q-28 -118 -45.5 -217t-17.5 -150q0 -41 12.5 -60t40.5 -19q38 0 78 22.5t78 60.5q5 3 8 3q9 0 18 -10.5t9 -19.5q0 -6 -2 -10
t-8 -10q-42 -42 -92 -67t-99 -25q-51 0 -77.5 30.5zM303 671q-14 9 -14 30q0 8 1 13q5 27 22.5 39t52.5 12q32 0 46 -9t14 -29q0 -8 -1 -13q-4 -28 -22 -40t-54 -12q-31 0 -45 9z" />
    <glyph glyph-name="j" unicode="j" 
d="M29 -173q0 21 14 22q84 10 137.5 30.5t85.5 58.5t50 101q24 89 45.5 209.5t31.5 219.5q-130 -3 -243 -3q-12 0 -12 16q0 18 6 27t15 9h269q14 0 19 -4.5t5 -15.5q-1 -50 -27 -209.5t-54 -266.5q-20 -75 -60 -120.5t-103.5 -69.5t-160.5 -34q-18 -1 -18 30zM370 671
q-14 9 -14 30q0 8 1 13q5 27 22.5 39t52.5 12q32 0 46 -9t14 -29q0 -8 -1 -13q-4 -28 -22 -40t-54 -12q-31 0 -45 9z" />
    <glyph glyph-name="k" unicode="k" 
d="M351.5 67q-65.5 65 -122.5 134q-6 7 0 18t16.5 17.5t16.5 -0.5l37 -41q98 36 139.5 82.5t41.5 105.5q0 39 -16.5 62.5t-47.5 23.5q-56 0 -123 -54t-129 -157q-15 -116 -37 -248q-3 -17 -32 -17q-30 0 -27 17l81 484q20 118 29 189q2 19 5 33q3 17 32 17q30 0 27 -17
q-30 -187 -64 -359h9q59 86 123 129t122 43q49 0 75.5 -37.5t26.5 -100.5q0 -74 -47 -130t-155 -100q92 -93 182 -161q4 -3 4 -9q0 -14 -13.5 -29.5t-24.5 -7.5q-63 48 -128.5 113z" />
    <glyph glyph-name="l" unicode="l" 
d="M250.5 16.5q-26.5 28.5 -26.5 83.5q0 80 28.5 249.5t65.5 327.5q-95 -3 -172 -3q-12 0 -12 15q0 13 5 25t16 12h200q23 0 23 -17q0 -6 -1 -10q-38 -173 -66 -341.5t-28 -240.5q0 -38 12.5 -55.5t42.5 -17.5q71 0 156 83q5 3 8 3q9 0 18 -10.5t9 -19.5q0 -6 -2.5 -10.5
t-7.5 -9.5q-43 -42 -92.5 -67t-99.5 -25t-76.5 28.5z" />
    <glyph glyph-name="m" unicode="m" 
d="M28 10l54 326q15 90 25 170q3 17 30 17q24 0 24 -13q0 -5 -18 -95h7q62 114 138 114q33 0 50 -26t20 -79h7q30 53 65 79t71 26t55 -26.5t19 -79.5q0 -55 -22.5 -182t-47.5 -231q-5 -17 -31 -17q-28 0 -25 17q21 86 44 211t23 182q0 41 -8 57.5t-25 16.5q-26 0 -60 -31.5
t-71 -94.5q-10 -72 -29 -174t-33 -167q-2 -9 -8.5 -13t-19.5 -4q-28 0 -23 17q20 86 42 212.5t22 180.5q0 41 -8 57.5t-25 16.5q-26 0 -60 -33.5t-73 -100.5l-53 -333q-3 -17 -31 -17t-25 17z" />
    <glyph glyph-name="n" unicode="n" 
d="M408 12q30 110 47 194.5t17 146.5q0 61 -16.5 88.5t-51.5 27.5q-50 0 -114.5 -53.5t-125.5 -155.5q-16 -121 -37 -250q-3 -17 -32 -17q-30 0 -27 17l48 292q26 161 31 204q3 17 32 17q30 0 27 -17q-14 -78 -28 -149h8q58 87 118 129.5t111 42.5q116 0 116 -169
q0 -124 -65 -350q-5 -17 -31 -17q-31 0 -27 19z" />
    <glyph glyph-name="o" unicode="o" 
d="M126 46q-50 58 -50 172q0 88 32 158.5t93.5 111.5t146.5 41q97 0 147 -58t50 -171q0 -88 -32 -159t-93 -112t-146 -41q-98 0 -148 58zM169.5 84q35.5 -44 109.5 -44q69 0 116 34.5t70 93.5t23 132q0 90 -35.5 133.5t-109.5 43.5q-68 0 -115.5 -34.5t-70.5 -93.5t-23 -131
q0 -90 35.5 -134z" />
    <glyph glyph-name="p" unicode="p" 
d="M134 20q-16 -114 -33 -203q-3 -17 -33 -17q-28 0 -25 17l38 222l42 248q23 133 33 222q3 17 33 17q15 0 21 -4t5 -13q-5 -29 -13.5 -75.5t-15.5 -74.5h8q65 85 123.5 127.5t112.5 42.5q56 0 87.5 -46t31.5 -142q0 -101 -32.5 -180.5t-95.5 -125.5t-151 -46q-74 0 -136 31
zM272 41q105 0 161 81.5t56 211.5q0 73 -20 108t-54 35q-45 0 -106.5 -51t-131.5 -149q-13 -95 -35 -204q61 -32 130 -32z" />
    <glyph glyph-name="q" unicode="q" 
d="M372 -183q29 177 59 333h-8q-65 -81 -122 -121.5t-110 -40.5q-56 0 -88 46t-32 142q0 101 33.5 180.5t98 125.5t154.5 46q99 0 160 -51q9 -7 12.5 -13t3.5 -15q0 -8 -1 -13l-66 -397q-13 -73 -30 -185l-6 -37q-2 -9 -9 -13t-22 -4q-30 0 -27 17zM151.5 75
q19.5 -35 53.5 -35q45 0 106 50.5t132 149.5q14 101 33 196q-25 20 -58 30t-69 10q-105 0 -161 -81.5t-56 -211.5q0 -73 19.5 -108z" />
    <glyph glyph-name="r" unicode="r" 
d="M106 10l52 313q-24 174 -24 184q0 7 10 12t25 5q12 0 16 -2.5t5 -8.5q5 -42 12 -153h8q64 85 129 127t138 42q29 0 52.5 -7t32.5 -19q6 -9 10 -37t4 -60q0 -28 -4 -56q-1 -10 -10.5 -15t-22.5 -5q-16 0 -21.5 3t-5.5 11l1 119q-17 11 -47 11q-133 0 -260 -183
q-8 -54 -37 -243l-6 -38q-3 -16 -31 -16q-29 0 -26 16z" />
    <glyph glyph-name="s" unicode="s" 
d="M180 -2q-49 10 -88 28q-10 6 -10 16q0 14 9 27t20 9q77 -38 174 -38q72 0 114.5 24t42.5 74q0 38 -29 59.5t-103 36.5q-55 11 -89 22.5t-58.5 38.5t-24.5 73q0 78 59 120t156 42q99 0 168 -35q11 -6 11 -16q0 -14 -9 -26.5t-20 -8.5q-76 34 -153 34q-72 0 -114 -26
t-42 -76q0 -29 16.5 -45.5t43.5 -25t77 -18.5q89 -18 128.5 -50t39.5 -91q0 -78 -59.5 -118t-157.5 -40q-53 0 -102 10z" />
    <glyph glyph-name="t" unicode="t" 
d="M182 113q0 52 14.5 151.5t37.5 203.5q-68 -3 -133 -3q-13 0 -13 17q0 12 5.5 23.5t15.5 11.5q67 0 134 -3q13 88 31 164q2 9 9.5 13t22.5 4q16 0 22 -4.5t4 -14.5q-27 -120 -37 -162q134 3 261 3q13 0 13 -17q0 -12 -5.5 -23.5t-15.5 -11.5q-128 0 -262 3l-11 -74
q-34 -208 -34 -263q0 -45 16 -66t51 -21q44 0 90 23t86 60q5 3 8 3q9 0 18 -10.5t9 -19.5q0 -6 -2.5 -10.5t-7.5 -9.5q-44 -41 -100 -66.5t-110 -25.5q-117 0 -117 125z" />
    <glyph glyph-name="u" unicode="u" 
d="M212 505q-30 -110 -47 -194.5t-17 -146.5q0 -61 16.5 -88.5t51.5 -27.5q50 0 114.5 53.5t125.5 155.5q16 121 37 250q3 17 32 17q30 0 27 -17l-48 -292q-26 -161 -31 -204q-3 -17 -32 -17q-30 0 -27 17q14 78 28 149h-8q-58 -87 -118 -129.5t-111 -42.5q-116 0 -116 169
q0 124 65 350q5 17 31 17q31 0 27 -19z" />
    <glyph glyph-name="v" unicode="v" 
d="M236.5 -0.5q-8.5 4.5 -11.5 16.5q-34 117 -63 251.5t-43 239.5q-1 9 8.5 13t22.5 4t19 -3.5t7 -13.5q29 -211 91 -456h10q213 178 213 354q0 17 -5 42.5t-13 55.5q-2 10 8 17t28 7q10 0 15 -4.5t8 -15.5q7 -21 10.5 -46t3.5 -45q-1 -108 -62 -209t-168 -191
q-15 -12 -24.5 -16.5t-25.5 -4.5q-20 0 -28.5 4.5z" />
    <glyph glyph-name="w" unicode="w" 
d="M114.5 1q-8.5 7 -10.5 29q-18 128 -18 288q0 95 5 155l4 36q2 15 30 15q15 0 21 -4.5t5 -15.5q-10 -104 -10 -222q0 -117 11 -235h10q68 105 123 238q7 63 12 91q3 22 35 22t29 -22q-6 -37 -20 -91q12 -130 45 -238h10q100 233 153 457q1 11 9 15.5t23 4.5q28 0 28 -14
q0 -6 -2.5 -15t-5.5 -22q-28 -105 -71.5 -225.5t-89.5 -217.5q-10 -22 -20.5 -29t-32.5 -7q-21 0 -28.5 5.5t-11.5 23.5q-28 96 -36 213h-8q-41 -104 -106 -213q-10 -17 -20 -23t-32 -6t-30.5 7z" />
    <glyph glyph-name="x" unicode="x" 
d="M456.5 -2q-4.5 4 -9.5 18q-49 109 -136 219h-10q-122 -114 -198 -219q-10 -13 -16 -17.5t-15 -4.5q-13 0 -24.5 6.5t-11.5 15.5q0 4 4.5 11.5t13.5 17.5q40 53 100.5 116.5t119.5 114.5q-36 46 -70.5 100.5t-57.5 100.5q-9 19 -9 26q0 8 13 14.5t24 6.5q9 0 14 -4.5
t9 -16.5q47 -104 114 -199h12q92 93 172 199q9 13 15 17t14 4q13 0 25 -7t12 -17q0 -6 -19 -28q-38 -48 -90 -104t-102 -101q44 -52 84 -113.5t64 -113.5q8 -18 8 -26t-12 -14t-24 -6q-9 0 -13.5 4z" />
    <glyph glyph-name="y" unicode="y" 
d="M47.5 -190.5q-9.5 13.5 -9.5 27.5q0 6 4 10t16 11q105 61 210 144l-1 7q-8 0 -14 6.5t-12 20.5q-41 98 -79 221t-54 211q-5 28 -5 40q0 9 13 14t25 5t16 -7t7 -29q15 -96 52.5 -220t84.5 -234h8q181 171 181 338q0 35 -18 128q-2 12 6.5 18t26.5 6q12 0 18 -4.5t8 -15.5
q7 -28 10.5 -61.5t3.5 -59.5q-1 -152 -119.5 -298.5t-338.5 -282.5q-14 -9 -22 -9t-17.5 13.5z" />
    <glyph glyph-name="z" unicode="z" 
d="M274.5 -24q-86.5 26 -149.5 73l-57 -56q-8 -7 -21 3t-13 23q0 6 5.5 13t17.5 18l413 412v3h-330q-13 0 -13 17q0 12 5.5 23.5t15.5 11.5h384q10 0 14 -4t4 -14q0 -16 -6.5 -28t-22.5 -28l-356 -355v-4q61 -39 138 -59t160 -20h2q11 49 17 115q1 16 24 16q32 0 32 -18
q0 -20 -9.5 -61.5t-20.5 -70.5q-8 -21 -20.5 -28.5t-38.5 -7.5q-88 0 -174.5 26z" />
    <glyph glyph-name="uni00A0" unicode="&#xa0;" 
 />
    <glyph glyph-name="Agrave" unicode="&#xc0;" 
d="M16 8q0 3 4 15t7 20q132 338 300 634q8 16 19.5 22t37.5 6t35.5 -6t13.5 -22q67 -286 88 -634q0 -28 -1 -34q-1 -16 -34 -16q-13 0 -19 4.5t-7 17.5l-9 198q-65 -4 -147 -4t-146 4q-40 -109 -76 -198q-6 -13 -13.5 -17.5t-20.5 -4.5q-32 0 -32 15zM313 264q45 0 135 -2
l-11 70q-31 217 -53 319h-10q-59 -107 -145 -285l-52 -104q92 2 136 2zM314 931q0 12 16.5 23t30.5 11q8 0 11 -4l139 -151q4 -4 5 -6.5t1 -5.5q0 -7 -8.5 -15.5t-18.5 -12t-14 1.5l-154 146q-8 8 -8 13z" />
    <glyph glyph-name="Aacute" unicode="&#xc1;" 
d="M16 8q0 3 4 15t7 20q132 338 300 634q8 16 19.5 22t37.5 6t35.5 -6t13.5 -22q67 -286 88 -634q0 -28 -1 -34q-1 -16 -34 -16q-13 0 -19 4.5t-7 17.5l-9 198q-65 -4 -147 -4t-146 4q-40 -109 -76 -198q-6 -13 -13.5 -17.5t-20.5 -4.5q-32 0 -32 15zM313 264q45 0 135 -2
l-11 70q-31 217 -53 319h-10q-59 -107 -145 -285l-52 -104q92 2 136 2zM312 771.5q-9 4.5 -16.5 13t-7.5 14.5t13 16l188 146q4 4 11 4q14 0 29 -11.5t15 -22.5q0 -8 -14 -18l-202 -141q-7 -5 -16 -0.5z" />
    <glyph glyph-name="Acircumflex" unicode="&#xc2;" 
d="M16 8q0 3 4 15t7 20q132 338 300 634q8 16 19.5 22t37.5 6t35.5 -6t13.5 -22q67 -286 88 -634q0 -28 -1 -34q-1 -16 -34 -16q-13 0 -19 4.5t-7 17.5l-9 198q-65 -4 -147 -4t-146 4q-40 -109 -76 -198q-6 -13 -13.5 -17.5t-20.5 -4.5q-32 0 -32 15zM313 264q45 0 135 -2
l-11 70q-31 217 -53 319h-10q-59 -107 -145 -285l-52 -104q92 2 136 2zM585 788q0 -7 -11 -13.5t-20 -6.5q-7 0 -10 4l-120 141l-173 -141q-3 -3 -9 -3q-9 0 -19 8.5t-10 16.5q0 5 12 15l165 146q13 13 38 13q24 0 34 -13l116 -153q7 -10 7 -14z" />
    <glyph glyph-name="Atilde" unicode="&#xc3;" 
d="M16 8q0 3 4 15t7 20q132 338 300 634q8 16 19.5 22t37.5 6t35.5 -6t13.5 -22q67 -286 88 -634q0 -28 -1 -34q-1 -16 -34 -16q-13 0 -19 4.5t-7 17.5l-9 198q-65 -4 -147 -4t-146 4q-40 -109 -76 -198q-6 -13 -13.5 -17.5t-20.5 -4.5q-32 0 -32 15zM313 264q45 0 135 -2
l-11 70q-31 217 -53 319h-10q-59 -107 -145 -285l-52 -104q92 2 136 2zM440.5 802q-23.5 19 -48.5 54q-19 28 -34.5 41.5t-38.5 13.5q-30 0 -54.5 -31.5t-41.5 -87.5q-1 -6 -8.5 -9t-17.5 -3q-12 0 -20.5 4.5t-7.5 11.5q19 76 59 121t94 45q39 0 62.5 -19t49.5 -55
q20 -28 35.5 -41.5t36.5 -13.5q61 0 98 119q3 12 26 12q12 0 20.5 -4.5t7.5 -11.5q-20 -76 -60.5 -120.5t-94.5 -44.5q-39 0 -62.5 19z" />
    <glyph glyph-name="Adieresis" unicode="&#xc4;" 
d="M16 8q0 3 4 15t7 20q132 338 300 634q8 16 19.5 22t37.5 6t35.5 -6t13.5 -22q67 -286 88 -634q0 -28 -1 -34q-1 -16 -34 -16q-13 0 -19 4.5t-7 17.5l-9 198q-65 -4 -147 -4t-146 4q-40 -109 -76 -198q-6 -13 -13.5 -17.5t-20.5 -4.5q-32 0 -32 15zM313 264q45 0 135 -2
l-11 70q-31 217 -53 319h-10q-59 -107 -145 -285l-52 -104q92 2 136 2zM236 803q-12 7 -12 23q0 28 15.5 40.5t51.5 12.5q27 0 39 -7.5t12 -23.5q0 -6 -1 -10q-4 -22 -19 -32t-47 -10q-27 0 -39 7zM492 869q15 10 47 10q31 0 42.5 -9.5t8.5 -31.5q-5 -22 -19.5 -32
t-46.5 -10q-27 0 -39.5 7.5t-12.5 23.5q0 7 1 11q4 21 19 31z" />
    <glyph glyph-name="Aring" unicode="&#xc5;" 
d="M16 8q0 3 4 15t7 20q132 338 300 634q8 16 19.5 22t37.5 6t35.5 -6t13.5 -22q67 -286 88 -634q0 -28 -1 -34q-1 -16 -34 -16q-13 0 -19 4.5t-7 17.5l-9 198q-65 -4 -147 -4t-146 4q-40 -109 -76 -198q-6 -13 -13.5 -17.5t-20.5 -4.5q-32 0 -32 15zM313 264q45 0 135 -2
l-11 70q-31 217 -53 319h-10q-59 -107 -145 -285l-52 -104q92 2 136 2zM347 785q-32 17 -50.5 46t-18.5 64t18.5 64t50.5 45.5t70 16.5t70 -16.5t50.5 -45.5t18.5 -64t-18.5 -64t-50.5 -46t-70 -17t-70 17zM348.5 833q27.5 -25 68.5 -25q40 0 67.5 25t27.5 62t-27.5 62
t-67.5 25q-41 0 -68.5 -25t-27.5 -62t27.5 -62z" />
    <glyph glyph-name="AE" unicode="&#xc6;" 
d="M-10 8q0 4 4.5 15t7.5 17q121 293 310 629q9 16 20.5 22t37.5 6h257q13 0 13 -18q0 -12 -5.5 -24t-16.5 -12q-104 0 -187 3q-18 -150 -46 -271q74 3 157 3q13 0 13 -18q0 -12 -5.5 -24t-16.5 -12q-83 0 -156 3q-15 -138 -46 -276q86 3 193 3q13 0 13 -18q0 -12 -5.5 -24
t-16.5 -12h-216q-14 0 -19.5 4t-5.5 14q0 7 1 11q14 88 33 182q-56 -2 -86 -2q-29 0 -85 2q-32 -74 -49 -111l-40 -93q-6 -14 -31 -14q-27 0 -27 15zM236 264q40 0 80 -3q21 138 61 382h-19q-83 -151 -197 -382q38 3 75 3z" />
    <glyph glyph-name="Ccedilla" unicode="&#xc7;" 
d="M110.5 452.5q31.5 105.5 106.5 180.5t197 75q66 0 115 -17t61 -42q7 -13 7 -57q0 -32 -4 -60q-4 -22 -32 -22q-15 0 -20.5 4t-4.5 15q3 38 3 92q-17 14 -51.5 23t-75.5 9q-100 0 -161 -67t-86.5 -159t-25.5 -175q0 -112 40.5 -160t123.5 -48q44 0 87.5 10.5t94.5 33.5
q11 6 18.5 -5.5t7.5 -26.5q0 -18 -18 -26q-40 -19 -91.5 -30t-100.5 -11l-4 -10l-63 -160q-3 -7 -12.5 -11t-20.5 -4q-12 0 -20 4t-8 11q0 6 7 19l78 153q-89 11 -134 73t-45 185q0 98 31.5 203.5z" />
    <glyph glyph-name="Egrave" unicode="&#xc8;" 
d="M89 6.5q-5 6.5 -3 22.5l69 416q17 104 26 138.5t20 51.5l1 10l-38 -2q-13 0 -13 18q0 12 5.5 24t16.5 12h409q13 0 13 -18q0 -12 -5.5 -24t-16.5 -12q-146 0 -327 3q-14 -127 -45 -266q170 3 289 3q13 0 13 -18q0 -12 -5.5 -24t-16.5 -12q-119 0 -288 3
q-14 -132 -47 -281q184 3 332 3q13 0 13 -18q0 -12 -5.5 -24t-16.5 -12h-359q-16 0 -21 6.5zM314 931q0 12 16.5 23t30.5 11q8 0 11 -4l139 -151q4 -4 5 -6.5t1 -5.5q0 -7 -8.5 -15.5t-18.5 -12t-14 1.5l-154 146q-8 8 -8 13z" />
    <glyph glyph-name="Eacute" unicode="&#xc9;" 
d="M89 6.5q-5 6.5 -3 22.5l69 416q17 104 26 138.5t20 51.5l1 10l-38 -2q-13 0 -13 18q0 12 5.5 24t16.5 12h409q13 0 13 -18q0 -12 -5.5 -24t-16.5 -12q-146 0 -327 3q-14 -127 -45 -266q170 3 289 3q13 0 13 -18q0 -12 -5.5 -24t-16.5 -12q-119 0 -288 3
q-14 -132 -47 -281q184 3 332 3q13 0 13 -18q0 -12 -5.5 -24t-16.5 -12h-359q-16 0 -21 6.5zM312 771.5q-9 4.5 -16.5 13t-7.5 14.5t13 16l188 146q4 4 11 4q14 0 29 -11.5t15 -22.5q0 -8 -14 -18l-202 -141q-7 -5 -16 -0.5z" />
    <glyph glyph-name="Ecircumflex" unicode="&#xca;" 
d="M89 6.5q-5 6.5 -3 22.5l69 416q17 104 26 138.5t20 51.5l1 10l-38 -2q-13 0 -13 18q0 12 5.5 24t16.5 12h409q13 0 13 -18q0 -12 -5.5 -24t-16.5 -12q-146 0 -327 3q-14 -127 -45 -266q170 3 289 3q13 0 13 -18q0 -12 -5.5 -24t-16.5 -12q-119 0 -288 3
q-14 -132 -47 -281q184 3 332 3q13 0 13 -18q0 -12 -5.5 -24t-16.5 -12h-359q-16 0 -21 6.5zM585 788q0 -7 -11 -13.5t-20 -6.5q-7 0 -10 4l-120 141l-173 -141q-3 -3 -9 -3q-9 0 -19 8.5t-10 16.5q0 5 12 15l165 146q13 13 38 13q24 0 34 -13l116 -153q7 -10 7 -14z" />
    <glyph glyph-name="Edieresis" unicode="&#xcb;" 
d="M89 6.5q-5 6.5 -3 22.5l69 416q17 104 26 138.5t20 51.5l1 10l-38 -2q-13 0 -13 18q0 12 5.5 24t16.5 12h409q13 0 13 -18q0 -12 -5.5 -24t-16.5 -12q-146 0 -327 3q-14 -127 -45 -266q170 3 289 3q13 0 13 -18q0 -12 -5.5 -24t-16.5 -12q-119 0 -288 3
q-14 -132 -47 -281q184 3 332 3q13 0 13 -18q0 -12 -5.5 -24t-16.5 -12h-359q-16 0 -21 6.5zM236 803q-12 7 -12 23q0 28 15.5 40.5t51.5 12.5q27 0 39 -7.5t12 -23.5q0 -6 -1 -10q-4 -22 -19 -32t-47 -10q-27 0 -39 7zM492 869q15 10 47 10q31 0 42.5 -9.5t8.5 -31.5
q-5 -22 -19.5 -32t-46.5 -10q-27 0 -39.5 7.5t-12.5 23.5q0 7 1 11q4 21 19 31z" />
    <glyph glyph-name="Igrave" unicode="&#xcc;" 
d="M88 18q0 12 5.5 24.5t16.5 12.5q61 0 139 -3q43 303 98 593q-78 -3 -139 -3q-13 0 -13 18q0 12 5.5 24.5t16.5 12.5h332q13 0 13 -18q0 -12 -5.5 -24.5t-16.5 -12.5q-61 0 -139 3q-43 -303 -98 -593q78 3 139 3q13 0 13 -18q0 -12 -5.5 -24.5t-16.5 -12.5h-332
q-13 0 -13 18zM314 931q0 12 16.5 23t30.5 11q8 0 11 -4l139 -151q4 -4 5 -6.5t1 -5.5q0 -7 -8.5 -15.5t-18.5 -12t-14 1.5l-154 146q-8 8 -8 13z" />
    <glyph glyph-name="Iacute" unicode="&#xcd;" 
d="M88 18q0 12 5.5 24.5t16.5 12.5q61 0 139 -3q43 303 98 593q-78 -3 -139 -3q-13 0 -13 18q0 12 5.5 24.5t16.5 12.5h332q13 0 13 -18q0 -12 -5.5 -24.5t-16.5 -12.5q-61 0 -139 3q-43 -303 -98 -593q78 3 139 3q13 0 13 -18q0 -12 -5.5 -24.5t-16.5 -12.5h-332
q-13 0 -13 18zM312 771.5q-9 4.5 -16.5 13t-7.5 14.5t13 16l188 146q4 4 11 4q14 0 29 -11.5t15 -22.5q0 -8 -14 -18l-202 -141q-7 -5 -16 -0.5z" />
    <glyph glyph-name="Icircumflex" unicode="&#xce;" 
d="M88 18q0 12 5.5 24.5t16.5 12.5q61 0 139 -3q43 303 98 593q-78 -3 -139 -3q-13 0 -13 18q0 12 5.5 24.5t16.5 12.5h332q13 0 13 -18q0 -12 -5.5 -24.5t-16.5 -12.5q-61 0 -139 3q-43 -303 -98 -593q78 3 139 3q13 0 13 -18q0 -12 -5.5 -24.5t-16.5 -12.5h-332
q-13 0 -13 18zM585 788q0 -7 -11 -13.5t-20 -6.5q-7 0 -10 4l-120 141l-173 -141q-3 -3 -9 -3q-9 0 -19 8.5t-10 16.5q0 5 12 15l165 146q13 13 38 13q24 0 34 -13l116 -153q7 -10 7 -14z" />
    <glyph glyph-name="Ntilde" unicode="&#xd1;" 
d="M46 10l112 672q4 22 40 22q21 0 30.5 -7.5t16.5 -29.5q83 -233 196 -607h8q12 98 40.5 288t52.5 339q3 17 34 17t28 -17l-112 -672q-4 -22 -40 -22q-21 0 -30.5 7.5t-16.5 29.5q-69 193 -196 607h-8q-12 -98 -40.5 -288t-52.5 -339q-3 -17 -34 -17t-28 17zM440.5 802
q-23.5 19 -48.5 54q-19 28 -34.5 41.5t-38.5 13.5q-30 0 -54.5 -31.5t-41.5 -87.5q-1 -6 -8.5 -9t-17.5 -3q-12 0 -20.5 4.5t-7.5 11.5q19 76 59 121t94 45q39 0 62.5 -19t49.5 -55q20 -28 35.5 -41.5t36.5 -13.5q61 0 98 119q3 12 26 12q12 0 20.5 -4.5t7.5 -11.5
q-20 -76 -60.5 -120.5t-94.5 -44.5q-39 0 -62.5 19z" />
    <glyph glyph-name="Ograve" unicode="&#xd2;" 
d="M117.5 51.5q-48.5 63.5 -48.5 204.5q0 99 28.5 202.5t97.5 177t183 73.5q107 0 155.5 -63.5t48.5 -204.5q0 -99 -28.5 -202.5t-97.5 -177t-183 -73.5q-107 0 -155.5 63.5zM164.5 92.5q34.5 -49.5 111.5 -49.5q85 0 140 64t80 156t25 178q0 114 -34.5 163.5t-111.5 49.5
q-85 0 -140 -64t-80 -156t-25 -178q0 -114 34.5 -163.5zM314 931q0 12 16.5 23t30.5 11q8 0 11 -4l139 -151q4 -4 5 -6.5t1 -5.5q0 -7 -8.5 -15.5t-18.5 -12t-14 1.5l-154 146q-8 8 -8 13z" />
    <glyph glyph-name="Oacute" unicode="&#xd3;" 
d="M117.5 51.5q-48.5 63.5 -48.5 204.5q0 99 28.5 202.5t97.5 177t183 73.5q107 0 155.5 -63.5t48.5 -204.5q0 -99 -28.5 -202.5t-97.5 -177t-183 -73.5q-107 0 -155.5 63.5zM164.5 92.5q34.5 -49.5 111.5 -49.5q85 0 140 64t80 156t25 178q0 114 -34.5 163.5t-111.5 49.5
q-85 0 -140 -64t-80 -156t-25 -178q0 -114 34.5 -163.5zM312 771.5q-9 4.5 -16.5 13t-7.5 14.5t13 16l188 146q4 4 11 4q14 0 29 -11.5t15 -22.5q0 -8 -14 -18l-202 -141q-7 -5 -16 -0.5z" />
    <glyph glyph-name="Ocircumflex" unicode="&#xd4;" 
d="M117.5 51.5q-48.5 63.5 -48.5 204.5q0 99 28.5 202.5t97.5 177t183 73.5q107 0 155.5 -63.5t48.5 -204.5q0 -99 -28.5 -202.5t-97.5 -177t-183 -73.5q-107 0 -155.5 63.5zM164.5 92.5q34.5 -49.5 111.5 -49.5q85 0 140 64t80 156t25 178q0 114 -34.5 163.5t-111.5 49.5
q-85 0 -140 -64t-80 -156t-25 -178q0 -114 34.5 -163.5zM585 788q0 -7 -11 -13.5t-20 -6.5q-7 0 -10 4l-120 141l-173 -141q-3 -3 -9 -3q-9 0 -19 8.5t-10 16.5q0 5 12 15l165 146q13 13 38 13q24 0 34 -13l116 -153q7 -10 7 -14z" />
    <glyph glyph-name="Otilde" unicode="&#xd5;" 
d="M117.5 51.5q-48.5 63.5 -48.5 204.5q0 99 28.5 202.5t97.5 177t183 73.5q107 0 155.5 -63.5t48.5 -204.5q0 -99 -28.5 -202.5t-97.5 -177t-183 -73.5q-107 0 -155.5 63.5zM164.5 92.5q34.5 -49.5 111.5 -49.5q85 0 140 64t80 156t25 178q0 114 -34.5 163.5t-111.5 49.5
q-85 0 -140 -64t-80 -156t-25 -178q0 -114 34.5 -163.5zM440.5 802q-23.5 19 -48.5 54q-19 28 -34.5 41.5t-38.5 13.5q-30 0 -54.5 -31.5t-41.5 -87.5q-1 -6 -8.5 -9t-17.5 -3q-12 0 -20.5 4.5t-7.5 11.5q19 76 59 121t94 45q39 0 62.5 -19t49.5 -55q20 -28 35.5 -41.5
t36.5 -13.5q61 0 98 119q3 12 26 12q12 0 20.5 -4.5t7.5 -11.5q-20 -76 -60.5 -120.5t-94.5 -44.5q-39 0 -62.5 19z" />
    <glyph glyph-name="Odieresis" unicode="&#xd6;" 
d="M117.5 51.5q-48.5 63.5 -48.5 204.5q0 99 28.5 202.5t97.5 177t183 73.5q107 0 155.5 -63.5t48.5 -204.5q0 -99 -28.5 -202.5t-97.5 -177t-183 -73.5q-107 0 -155.5 63.5zM164.5 92.5q34.5 -49.5 111.5 -49.5q85 0 140 64t80 156t25 178q0 114 -34.5 163.5t-111.5 49.5
q-85 0 -140 -64t-80 -156t-25 -178q0 -114 34.5 -163.5zM236 803q-12 7 -12 23q0 28 15.5 40.5t51.5 12.5q27 0 39 -7.5t12 -23.5q0 -6 -1 -10q-4 -22 -19 -32t-47 -10q-27 0 -39 7zM492 869q15 10 47 10q31 0 42.5 -9.5t8.5 -31.5q-5 -22 -19.5 -32t-46.5 -10
q-27 0 -39.5 7.5t-12.5 23.5q0 7 1 11q4 21 19 31z" />
    <glyph glyph-name="Ugrave" unicode="&#xd9;" 
d="M128.5 33.5q-47.5 45.5 -47.5 149.5q0 71 26.5 220t55.5 284q6 17 34 17q31 0 27 -19q-29 -123 -56.5 -279.5t-27.5 -230.5q0 -73 32 -102.5t101 -29.5q75 0 119 37t69 133q20 73 44 225.5t33 246.5q1 19 33 19q30 0 28 -17q-14 -124 -35.5 -265.5t-46.5 -232.5
q-29 -107 -88.5 -154t-153.5 -47q-99 0 -146.5 45.5zM314 931q0 12 16.5 23t30.5 11q8 0 11 -4l139 -151q4 -4 5 -6.5t1 -5.5q0 -7 -8.5 -15.5t-18.5 -12t-14 1.5l-154 146q-8 8 -8 13z" />
    <glyph glyph-name="Uacute" unicode="&#xda;" 
d="M128.5 33.5q-47.5 45.5 -47.5 149.5q0 71 26.5 220t55.5 284q6 17 34 17q31 0 27 -19q-29 -123 -56.5 -279.5t-27.5 -230.5q0 -73 32 -102.5t101 -29.5q75 0 119 37t69 133q20 73 44 225.5t33 246.5q1 19 33 19q30 0 28 -17q-14 -124 -35.5 -265.5t-46.5 -232.5
q-29 -107 -88.5 -154t-153.5 -47q-99 0 -146.5 45.5zM312 771.5q-9 4.5 -16.5 13t-7.5 14.5t13 16l188 146q4 4 11 4q14 0 29 -11.5t15 -22.5q0 -8 -14 -18l-202 -141q-7 -5 -16 -0.5z" />
    <glyph glyph-name="Ucircumflex" unicode="&#xdb;" 
d="M128.5 33.5q-47.5 45.5 -47.5 149.5q0 71 26.5 220t55.5 284q6 17 34 17q31 0 27 -19q-29 -123 -56.5 -279.5t-27.5 -230.5q0 -73 32 -102.5t101 -29.5q75 0 119 37t69 133q20 73 44 225.5t33 246.5q1 19 33 19q30 0 28 -17q-14 -124 -35.5 -265.5t-46.5 -232.5
q-29 -107 -88.5 -154t-153.5 -47q-99 0 -146.5 45.5zM585 788q0 -7 -11 -13.5t-20 -6.5q-7 0 -10 4l-120 141l-173 -141q-3 -3 -9 -3q-9 0 -19 8.5t-10 16.5q0 5 12 15l165 146q13 13 38 13q24 0 34 -13l116 -153q7 -10 7 -14z" />
    <glyph glyph-name="Udieresis" unicode="&#xdc;" 
d="M128.5 33.5q-47.5 45.5 -47.5 149.5q0 71 26.5 220t55.5 284q6 17 34 17q31 0 27 -19q-29 -123 -56.5 -279.5t-27.5 -230.5q0 -73 32 -102.5t101 -29.5q75 0 119 37t69 133q20 73 44 225.5t33 246.5q1 19 33 19q30 0 28 -17q-14 -124 -35.5 -265.5t-46.5 -232.5
q-29 -107 -88.5 -154t-153.5 -47q-99 0 -146.5 45.5zM236 803q-12 7 -12 23q0 28 15.5 40.5t51.5 12.5q27 0 39 -7.5t12 -23.5q0 -6 -1 -10q-4 -22 -19 -32t-47 -10q-27 0 -39 7zM492 869q15 10 47 10q31 0 42.5 -9.5t8.5 -31.5q-5 -22 -19.5 -32t-46.5 -10q-27 0 -39.5 7.5
t-12.5 23.5q0 7 1 11q4 21 19 31z" />
    <glyph glyph-name="Yacute" unicode="&#xdd;" 
d="M238 10q17 108 49 274q-91 175 -148 379q-4 14 -4 21q0 9 12.5 15t26.5 6q9 0 13.5 -5t7.5 -17q21 -79 53.5 -168.5t68.5 -165.5h8q62 75 124.5 163.5t112.5 170.5q8 13 13 17.5t14 4.5q15 0 26.5 -5.5t11.5 -14.5q0 -7 -10 -24q-127 -207 -275 -377q-12 -84 -23 -155.5
t-15 -95.5l-4 -23q-3 -17 -34 -17t-28 17zM312 771.5q-9 4.5 -16.5 13t-7.5 14.5t13 16l188 146q4 4 11 4q14 0 29 -11.5t15 -22.5q0 -8 -14 -18l-202 -141q-7 -5 -16 -0.5z" />
    <glyph glyph-name="germandbls" unicode="&#xdf;" 
d="M243 -1q-7 2 -10 5t-3 8q0 12 7.5 26t17.5 11q32 -9 65 -9q73 0 108 38t35 94q0 54 -37 89t-124 73q-8 3 -8 18q0 11 3.5 22t11.5 16q50 35 80 60t50.5 58.5t20.5 74.5q0 51 -26 77t-78 26q-64 0 -99.5 -39t-49.5 -125l-85 -512q-3 -17 -32 -17t-26 17l87 524
q34 204 206 204q76 0 118.5 -38.5t42.5 -111.5q0 -68 -44.5 -119.5t-123.5 -99.5v-5q90 -40 129.5 -84.5t39.5 -108.5q0 -51 -23.5 -92.5t-68.5 -66t-107 -24.5q-46 0 -77 11z" />
    <glyph glyph-name="agrave" unicode="&#xe0;" 
d="M476.5 -8.5q-4.5 5.5 -9.5 23.5q-14 47 -37 139h-8q-67 -83 -125 -124.5t-111 -41.5q-56 0 -87.5 46t-31.5 142q0 101 33.5 180.5t98 125.5t153.5 46q103 0 160 -51q9 -7 12.5 -13t3.5 -15q0 -8 -1 -13l-8 -41q-20 -122 -47 -208q25 -64 56 -152q5 -16 5 -24
q0 -9 -15 -17t-29 -8q-8 0 -12.5 5.5zM146.5 75q19.5 -35 53.5 -35q43 0 101 46t121 131q23 76 47 221q-25 19 -57.5 28.5t-67.5 9.5q-105 0 -161 -81.5t-56 -211.5q0 -73 19.5 -108zM259 751q0 12 15 23t28 11q7 0 10 -4l126 -151q4 -4 5 -6.5t1 -5.5q0 -7 -7.5 -15.5
t-17 -12t-13.5 1.5l-140 146q-7 8 -7 13z" />
    <glyph glyph-name="aacute" unicode="&#xe1;" 
d="M476.5 -8.5q-4.5 5.5 -9.5 23.5q-14 47 -37 139h-8q-67 -83 -125 -124.5t-111 -41.5q-56 0 -87.5 46t-31.5 142q0 101 33.5 180.5t98 125.5t153.5 46q103 0 160 -51q9 -7 12.5 -13t3.5 -15q0 -8 -1 -13l-8 -41q-20 -122 -47 -208q25 -64 56 -152q5 -16 5 -24
q0 -9 -15 -17t-29 -8q-8 0 -12.5 5.5zM146.5 75q19.5 -35 53.5 -35q43 0 101 46t121 131q23 76 47 221q-25 19 -57.5 28.5t-67.5 9.5q-105 0 -161 -81.5t-56 -211.5q0 -73 19.5 -108zM306 591.5q-9 4.5 -15.5 13t-6.5 14.5q0 5 12 16l171 146q4 4 11 4q12 0 25.5 -11.5
t13.5 -22.5q0 -8 -13 -18l-183 -141q-6 -5 -15 -0.5z" />
    <glyph glyph-name="acircumflex" unicode="&#xe2;" 
d="M476.5 -8.5q-4.5 5.5 -9.5 23.5q-14 47 -37 139h-8q-67 -83 -125 -124.5t-111 -41.5q-56 0 -87.5 46t-31.5 142q0 101 33.5 180.5t98 125.5t153.5 46q103 0 160 -51q9 -7 12.5 -13t3.5 -15q0 -8 -1 -13l-8 -41q-20 -122 -47 -208q25 -64 56 -152q5 -16 5 -24
q0 -9 -15 -17t-29 -8q-8 0 -12.5 5.5zM146.5 75q19.5 -35 53.5 -35q43 0 101 46t121 131q23 76 47 221q-25 19 -57.5 28.5t-67.5 9.5q-105 0 -161 -81.5t-56 -211.5q0 -73 19.5 -108zM533 608q0 -7 -10 -13.5t-19 -6.5q-6 0 -9 4l-109 141l-157 -141q-3 -3 -8 -3
q-9 0 -18 8.5t-9 16.5q0 4 11 15l150 146q13 13 35 13t31 -13l105 -153q7 -10 7 -14z" />
    <glyph glyph-name="atilde" unicode="&#xe3;" 
d="M476.5 -8.5q-4.5 5.5 -9.5 23.5q-14 47 -37 139h-8q-67 -83 -125 -124.5t-111 -41.5q-56 0 -87.5 46t-31.5 142q0 101 33.5 180.5t98 125.5t153.5 46q103 0 160 -51q9 -7 12.5 -13t3.5 -15q0 -8 -1 -13l-8 -41q-20 -122 -47 -208q25 -64 56 -152q5 -16 5 -24
q0 -9 -15 -17t-29 -8q-8 0 -12.5 5.5zM146.5 75q19.5 -35 53.5 -35q43 0 101 46t121 131q23 76 47 221q-25 19 -57.5 28.5t-67.5 9.5q-105 0 -161 -81.5t-56 -211.5q0 -73 19.5 -108zM403.5 633.5q-21.5 18.5 -44.5 54.5q-17 27 -31.5 41t-34.5 14q-27 0 -49.5 -31.5
t-37.5 -87.5q-1 -6 -8 -9t-16 -3q-11 0 -18.5 4.5t-6.5 11.5q17 76 53.5 121t85.5 45q35 0 56.5 -19t45.5 -55q19 -28 32.5 -41.5t32.5 -13.5q55 0 89 119q3 12 24 12q11 0 18.5 -4.5t6.5 -11.5q-18 -76 -54.5 -120.5t-86.5 -44.5q-35 0 -56.5 18.5z" />
    <glyph glyph-name="adieresis" unicode="&#xe4;" 
d="M476.5 -8.5q-4.5 5.5 -9.5 23.5q-14 47 -37 139h-8q-67 -83 -125 -124.5t-111 -41.5q-56 0 -87.5 46t-31.5 142q0 101 33.5 180.5t98 125.5t153.5 46q103 0 160 -51q9 -7 12.5 -13t3.5 -15q0 -8 -1 -13l-8 -41q-20 -122 -47 -208q25 -64 56 -152q5 -16 5 -24
q0 -9 -15 -17t-29 -8q-8 0 -12.5 5.5zM146.5 75q19.5 -35 53.5 -35q43 0 101 46t121 131q23 76 47 221q-25 19 -57.5 28.5t-67.5 9.5q-105 0 -161 -81.5t-56 -211.5q0 -73 19.5 -108zM220 648.5q-11 7.5 -11 23.5q0 27 14.5 39.5t46.5 12.5q29 0 39 -9.5t7 -31.5
q-4 -22 -17.5 -32t-42.5 -10q-25 0 -36 7.5zM449.5 711.5q14.5 12.5 46.5 12.5q29 0 39 -9.5t7 -31.5q-4 -22 -17.5 -32t-42.5 -10q-25 0 -36 7.5t-11 23.5q0 27 14.5 39.5z" />
    <glyph glyph-name="aring" unicode="&#xe5;" 
d="M476.5 -8.5q-4.5 5.5 -9.5 23.5q-14 47 -37 139h-8q-67 -83 -125 -124.5t-111 -41.5q-56 0 -87.5 46t-31.5 142q0 101 33.5 180.5t98 125.5t153.5 46q103 0 160 -51q9 -7 12.5 -13t3.5 -15q0 -8 -1 -13l-8 -41q-20 -122 -47 -208q25 -64 56 -152q5 -16 5 -24
q0 -9 -15 -17t-29 -8q-8 0 -12.5 5.5zM146.5 75q19.5 -35 53.5 -35q43 0 101 46t121 131q23 76 47 221q-25 19 -57.5 28.5t-67.5 9.5q-105 0 -161 -81.5t-56 -211.5q0 -73 19.5 -108zM291.5 625q-36.5 37 -36.5 90t36.5 89.5t89.5 36.5t90 -36.5t37 -89.5t-37 -90t-90 -37
t-89.5 37zM319 653q25 -25 62 -25t62 25t25 62t-25 62t-62 25t-62 -25t-25 -62t25 -62z" />
    <glyph glyph-name="ae" unicode="&#xe6;" 
d="M322.5 6q-31.5 18 -44.5 51q-62 -68 -132 -68q-58 0 -87.5 34.5t-29.5 99.5q0 81 43 132.5t126 51.5q47 0 98 -13l17 99q3 18 3 32q0 29 -14.5 41t-45.5 12q-29 0 -63 -11t-61 -26q-12 -5 -18.5 5t-6.5 25t12 21q74 38 142 38q75 0 93 -48q44 47 111 47q122 0 122 -146
q0 -40 -12 -85.5t-37 -48.5q-46 -5 -114 -5q-50 0 -89 4l-21 -129q-1 -5 -1 -13q0 -30 24.5 -48t68.5 -18q29 0 49.5 7t37.5 16t20 9q7 0 14 -10t7 -21q0 -7 -3 -11t-11 -9q-24 -15 -55 -24t-62 -9q-49 0 -80.5 18zM150 45q58 0 114 53l26 154q-44 10 -83 10q-72 0 -97 -36
t-25 -92q0 -89 65 -89zM424 290q53 0 99 6q12 46 12 83q0 102 -75 102q-39 0 -66 -22t-34 -61l-17 -104q54 -4 81 -4z" />
    <glyph glyph-name="ccedilla" unicode="&#xe7;" 
d="M122.5 339.5q29.5 82.5 93 136t159.5 53.5q51 0 87.5 -11.5t53.5 -30.5q7 -8 10.5 -41t3.5 -60q0 -10 -9.5 -16t-24.5 -6q-21 0 -21 14v74q-17 11 -46 18t-60 7q-80 0 -128.5 -50t-68.5 -118.5t-20 -130.5q0 -75 27.5 -106.5t83.5 -31.5q48 0 98.5 23t109.5 68q5 3 8 3
q10 0 18.5 -12t8.5 -23q0 -8 -10 -15q-45 -36 -95 -60.5t-99 -31.5l-5 -13l-63 -160q-3 -7 -12.5 -11t-20.5 -4q-12 0 -20 4t-8 11q0 6 7 19l77 150q-82 1 -123 43t-41 136q0 90 29.5 172.5z" />
    <glyph glyph-name="egrave" unicode="&#xe8;" 
d="M134.5 33q-44.5 45 -44.5 143q0 96 35.5 176.5t99.5 128t144 47.5q51 0 91 -18t62 -49.5t22 -69.5q0 -46 -36 -76.5t-113.5 -57t-245.5 -72.5v-5q0 -76 30.5 -108t101.5 -32q93 0 196 73q9 6 20 -6.5t11 -23.5q0 -7 -4 -12.5t-15 -12.5q-106 -70 -214 -70
q-96 0 -140.5 45zM366.5 294.5q64.5 21.5 93.5 43t29 52.5q0 39 -33.5 64.5t-88.5 25.5q-60 0 -106 -33.5t-73.5 -90t-35.5 -125.5q150 42 214.5 63.5zM265 751q0 12 15 23t28 11q7 0 10 -4l126 -151q4 -4 5 -6.5t1 -5.5q0 -7 -7.5 -15.5t-17 -12t-13.5 1.5l-140 146
q-7 8 -7 13z" />
    <glyph glyph-name="eacute" unicode="&#xe9;" 
d="M134.5 33q-44.5 45 -44.5 143q0 96 35.5 176.5t99.5 128t144 47.5q51 0 91 -18t62 -49.5t22 -69.5q0 -46 -36 -76.5t-113.5 -57t-245.5 -72.5v-5q0 -76 30.5 -108t101.5 -32q93 0 196 73q9 6 20 -6.5t11 -23.5q0 -7 -4 -12.5t-15 -12.5q-106 -70 -214 -70
q-96 0 -140.5 45zM366.5 294.5q64.5 21.5 93.5 43t29 52.5q0 39 -33.5 64.5t-88.5 25.5q-60 0 -106 -33.5t-73.5 -90t-35.5 -125.5q150 42 214.5 63.5zM312 591.5q-9 4.5 -15.5 13t-6.5 14.5q0 5 12 16l171 146q4 4 11 4q12 0 25.5 -11.5t13.5 -22.5q0 -8 -13 -18l-183 -141
q-6 -5 -15 -0.5z" />
    <glyph glyph-name="ecircumflex" unicode="&#xea;" 
d="M134.5 33q-44.5 45 -44.5 143q0 96 35.5 176.5t99.5 128t144 47.5q51 0 91 -18t62 -49.5t22 -69.5q0 -46 -36 -76.5t-113.5 -57t-245.5 -72.5v-5q0 -76 30.5 -108t101.5 -32q93 0 196 73q9 6 20 -6.5t11 -23.5q0 -7 -4 -12.5t-15 -12.5q-106 -70 -214 -70
q-96 0 -140.5 45zM366.5 294.5q64.5 21.5 93.5 43t29 52.5q0 39 -33.5 64.5t-88.5 25.5q-60 0 -106 -33.5t-73.5 -90t-35.5 -125.5q150 42 214.5 63.5zM539 608q0 -7 -10 -13.5t-19 -6.5q-6 0 -9 4l-109 141l-157 -141q-3 -3 -8 -3q-9 0 -18 8.5t-9 16.5q0 4 11 15l150 146
q13 13 35 13t31 -13l105 -153q7 -10 7 -14z" />
    <glyph glyph-name="edieresis" unicode="&#xeb;" 
d="M134.5 33q-44.5 45 -44.5 143q0 96 35.5 176.5t99.5 128t144 47.5q51 0 91 -18t62 -49.5t22 -69.5q0 -46 -36 -76.5t-113.5 -57t-245.5 -72.5v-5q0 -76 30.5 -108t101.5 -32q93 0 196 73q9 6 20 -6.5t11 -23.5q0 -7 -4 -12.5t-15 -12.5q-106 -70 -214 -70
q-96 0 -140.5 45zM366.5 294.5q64.5 21.5 93.5 43t29 52.5q0 39 -33.5 64.5t-88.5 25.5q-60 0 -106 -33.5t-73.5 -90t-35.5 -125.5q150 42 214.5 63.5zM226 648.5q-11 7.5 -11 23.5q0 27 14.5 39.5t46.5 12.5q29 0 39 -9.5t7 -31.5q-4 -22 -17.5 -32t-42.5 -10
q-25 0 -36 7.5zM455.5 711.5q14.5 12.5 46.5 12.5q29 0 39 -9.5t7 -31.5q-4 -22 -17.5 -32t-42.5 -10q-25 0 -36 7.5t-11 23.5q0 27 14.5 39.5z" />
    <glyph glyph-name="igrave" unicode="&#xec;" 
d="M249.5 18.5q-26.5 30.5 -26.5 90.5q0 54 18.5 157t44.5 202q-93 -3 -170 -3q-13 0 -13 17q0 12 5.5 23.5t15.5 11.5h200q15 0 20 -6t3 -21q-28 -118 -45.5 -217t-17.5 -150q0 -41 12.5 -60t40.5 -19q38 0 78 22.5t78 60.5q5 3 8 3q9 0 18 -10.5t9 -19.5q0 -6 -2 -10
t-8 -10q-42 -42 -92 -67t-99 -25q-51 0 -77.5 30.5zM235 751q0 12 15 23t28 11q7 0 10 -4l126 -151q4 -4 5 -6.5t1 -5.5q0 -7 -7.5 -15.5t-17 -12t-13.5 1.5l-140 146q-7 8 -7 13z" />
    <glyph glyph-name="iacute" unicode="&#xed;" 
d="M249.5 18.5q-26.5 30.5 -26.5 90.5q0 54 18.5 157t44.5 202q-93 -3 -170 -3q-13 0 -13 17q0 12 5.5 23.5t15.5 11.5h200q15 0 20 -6t3 -21q-28 -118 -45.5 -217t-17.5 -150q0 -41 12.5 -60t40.5 -19q38 0 78 22.5t78 60.5q5 3 8 3q9 0 18 -10.5t9 -19.5q0 -6 -2 -10
t-8 -10q-42 -42 -92 -67t-99 -25q-51 0 -77.5 30.5zM282 591.5q-9 4.5 -15.5 13t-6.5 14.5q0 5 12 16l171 146q4 4 11 4q12 0 25.5 -11.5t13.5 -22.5q0 -8 -13 -18l-183 -141q-6 -5 -15 -0.5z" />
    <glyph glyph-name="icircumflex" unicode="&#xee;" 
d="M249.5 18.5q-26.5 30.5 -26.5 90.5q0 54 18.5 157t44.5 202q-93 -3 -170 -3q-13 0 -13 17q0 12 5.5 23.5t15.5 11.5h200q15 0 20 -6t3 -21q-28 -118 -45.5 -217t-17.5 -150q0 -41 12.5 -60t40.5 -19q38 0 78 22.5t78 60.5q5 3 8 3q9 0 18 -10.5t9 -19.5q0 -6 -2 -10
t-8 -10q-42 -42 -92 -67t-99 -25q-51 0 -77.5 30.5zM509 608q0 -7 -10 -13.5t-19 -6.5q-6 0 -9 4l-109 141l-157 -141q-3 -3 -8 -3q-9 0 -18 8.5t-9 16.5q0 4 11 15l150 146q13 13 35 13t31 -13l105 -153q7 -10 7 -14z" />
    <glyph glyph-name="idieresis" unicode="&#xef;" 
d="M249.5 18.5q-26.5 30.5 -26.5 90.5q0 54 18.5 157t44.5 202q-93 -3 -170 -3q-13 0 -13 17q0 12 5.5 23.5t15.5 11.5h200q15 0 20 -6t3 -21q-28 -118 -45.5 -217t-17.5 -150q0 -41 12.5 -60t40.5 -19q38 0 78 22.5t78 60.5q5 3 8 3q9 0 18 -10.5t9 -19.5q0 -6 -2 -10
t-8 -10q-42 -42 -92 -67t-99 -25q-51 0 -77.5 30.5zM196 648.5q-11 7.5 -11 23.5q0 27 14.5 39.5t46.5 12.5q29 0 39 -9.5t7 -31.5q-4 -22 -17.5 -32t-42.5 -10q-25 0 -36 7.5zM425.5 711.5q14.5 12.5 46.5 12.5q29 0 39 -9.5t7 -31.5q-4 -22 -17.5 -32t-42.5 -10
q-25 0 -36 7.5t-11 23.5q0 27 14.5 39.5z" />
    <glyph glyph-name="ntilde" unicode="&#xf1;" 
d="M408 12q30 110 47 194.5t17 146.5q0 61 -16.5 88.5t-51.5 27.5q-50 0 -114.5 -53.5t-125.5 -155.5q-16 -121 -37 -250q-3 -17 -32 -17q-30 0 -27 17l48 292q26 161 31 204q3 17 32 17q30 0 27 -17q-14 -78 -28 -149h8q58 87 118 129.5t111 42.5q116 0 116 -169
q0 -124 -65 -350q-5 -17 -31 -17q-31 0 -27 19zM409.5 633.5q-21.5 18.5 -44.5 54.5q-17 27 -31.5 41t-34.5 14q-27 0 -49.5 -31.5t-37.5 -87.5q-1 -6 -8 -9t-16 -3q-11 0 -18.5 4.5t-6.5 11.5q17 76 53.5 121t85.5 45q35 0 56.5 -19t45.5 -55q19 -28 32.5 -41.5t32.5 -13.5
q55 0 89 119q3 12 24 12q11 0 18.5 -4.5t6.5 -11.5q-18 -76 -54.5 -120.5t-86.5 -44.5q-35 0 -56.5 18.5z" />
    <glyph glyph-name="ograve" unicode="&#xf2;" 
d="M126 46q-50 58 -50 172q0 88 32 158.5t93.5 111.5t146.5 41q97 0 147 -58t50 -171q0 -88 -32 -159t-93 -112t-146 -41q-98 0 -148 58zM169.5 84q35.5 -44 109.5 -44q69 0 116 34.5t70 93.5t23 132q0 90 -35.5 133.5t-109.5 43.5q-68 0 -115.5 -34.5t-70.5 -93.5t-23 -131
q0 -90 35.5 -134zM265 751q0 12 15 23t28 11q7 0 10 -4l126 -151q4 -4 5 -6.5t1 -5.5q0 -7 -7.5 -15.5t-17 -12t-13.5 1.5l-140 146q-7 8 -7 13z" />
    <glyph glyph-name="oacute" unicode="&#xf3;" 
d="M126 46q-50 58 -50 172q0 88 32 158.5t93.5 111.5t146.5 41q97 0 147 -58t50 -171q0 -88 -32 -159t-93 -112t-146 -41q-98 0 -148 58zM169.5 84q35.5 -44 109.5 -44q69 0 116 34.5t70 93.5t23 132q0 90 -35.5 133.5t-109.5 43.5q-68 0 -115.5 -34.5t-70.5 -93.5t-23 -131
q0 -90 35.5 -134zM312 591.5q-9 4.5 -15.5 13t-6.5 14.5q0 5 12 16l171 146q4 4 11 4q12 0 25.5 -11.5t13.5 -22.5q0 -8 -13 -18l-183 -141q-6 -5 -15 -0.5z" />
    <glyph glyph-name="ocircumflex" unicode="&#xf4;" 
d="M126 46q-50 58 -50 172q0 88 32 158.5t93.5 111.5t146.5 41q97 0 147 -58t50 -171q0 -88 -32 -159t-93 -112t-146 -41q-98 0 -148 58zM169.5 84q35.5 -44 109.5 -44q69 0 116 34.5t70 93.5t23 132q0 90 -35.5 133.5t-109.5 43.5q-68 0 -115.5 -34.5t-70.5 -93.5t-23 -131
q0 -90 35.5 -134zM539 608q0 -7 -10 -13.5t-19 -6.5q-6 0 -9 4l-109 141l-157 -141q-3 -3 -8 -3q-9 0 -18 8.5t-9 16.5q0 4 11 15l150 146q13 13 35 13t31 -13l105 -153q7 -10 7 -14z" />
    <glyph glyph-name="otilde" unicode="&#xf5;" 
d="M126 46q-50 58 -50 172q0 88 32 158.5t93.5 111.5t146.5 41q97 0 147 -58t50 -171q0 -88 -32 -159t-93 -112t-146 -41q-98 0 -148 58zM169.5 84q35.5 -44 109.5 -44q69 0 116 34.5t70 93.5t23 132q0 90 -35.5 133.5t-109.5 43.5q-68 0 -115.5 -34.5t-70.5 -93.5t-23 -131
q0 -90 35.5 -134zM409.5 633.5q-21.5 18.5 -44.5 54.5q-17 27 -31.5 41t-34.5 14q-27 0 -49.5 -31.5t-37.5 -87.5q-1 -6 -8 -9t-16 -3q-11 0 -18.5 4.5t-6.5 11.5q17 76 53.5 121t85.5 45q35 0 56.5 -19t45.5 -55q19 -28 32.5 -41.5t32.5 -13.5q55 0 89 119q3 12 24 12
q11 0 18.5 -4.5t6.5 -11.5q-18 -76 -54.5 -120.5t-86.5 -44.5q-35 0 -56.5 18.5z" />
    <glyph glyph-name="odieresis" unicode="&#xf6;" 
d="M126 46q-50 58 -50 172q0 88 32 158.5t93.5 111.5t146.5 41q97 0 147 -58t50 -171q0 -88 -32 -159t-93 -112t-146 -41q-98 0 -148 58zM169.5 84q35.5 -44 109.5 -44q69 0 116 34.5t70 93.5t23 132q0 90 -35.5 133.5t-109.5 43.5q-68 0 -115.5 -34.5t-70.5 -93.5t-23 -131
q0 -90 35.5 -134zM226 648.5q-11 7.5 -11 23.5q0 27 14.5 39.5t46.5 12.5q29 0 39 -9.5t7 -31.5q-4 -22 -17.5 -32t-42.5 -10q-25 0 -36 7.5zM455.5 711.5q14.5 12.5 46.5 12.5q29 0 39 -9.5t7 -31.5q-4 -22 -17.5 -32t-42.5 -10q-25 0 -36 7.5t-11 23.5q0 27 14.5 39.5z
" />
    <glyph glyph-name="ugrave" unicode="&#xf9;" 
d="M212 505q-30 -110 -47 -194.5t-17 -146.5q0 -61 16.5 -88.5t51.5 -27.5q50 0 114.5 53.5t125.5 155.5q16 121 37 250q3 17 32 17q30 0 27 -17l-48 -292q-26 -161 -31 -204q-3 -17 -32 -17q-30 0 -27 17q14 78 28 149h-8q-58 -87 -118 -129.5t-111 -42.5q-116 0 -116 169
q0 124 65 350q5 17 31 17q31 0 27 -19zM264 751q0 12 15 23t28 11q7 0 10 -4l126 -151q4 -4 5 -6.5t1 -5.5q0 -7 -7.5 -15.5t-17 -12t-13.5 1.5l-140 146q-7 8 -7 13z" />
    <glyph glyph-name="uacute" unicode="&#xfa;" 
d="M212 505q-30 -110 -47 -194.5t-17 -146.5q0 -61 16.5 -88.5t51.5 -27.5q50 0 114.5 53.5t125.5 155.5q16 121 37 250q3 17 32 17q30 0 27 -17l-48 -292q-26 -161 -31 -204q-3 -17 -32 -17q-30 0 -27 17q14 78 28 149h-8q-58 -87 -118 -129.5t-111 -42.5q-116 0 -116 169
q0 124 65 350q5 17 31 17q31 0 27 -19zM311 591.5q-9 4.5 -15.5 13t-6.5 14.5q0 5 12 16l171 146q4 4 11 4q12 0 25.5 -11.5t13.5 -22.5q0 -8 -13 -18l-183 -141q-6 -5 -15 -0.5z" />
    <glyph glyph-name="ucircumflex" unicode="&#xfb;" 
d="M212 505q-30 -110 -47 -194.5t-17 -146.5q0 -61 16.5 -88.5t51.5 -27.5q50 0 114.5 53.5t125.5 155.5q16 121 37 250q3 17 32 17q30 0 27 -17l-48 -292q-26 -161 -31 -204q-3 -17 -32 -17q-30 0 -27 17q14 78 28 149h-8q-58 -87 -118 -129.5t-111 -42.5q-116 0 -116 169
q0 124 65 350q5 17 31 17q31 0 27 -19zM538 608q0 -7 -10 -13.5t-19 -6.5q-6 0 -9 4l-109 141l-157 -141q-3 -3 -8 -3q-9 0 -18 8.5t-9 16.5q0 4 11 15l150 146q13 13 35 13t31 -13l105 -153q7 -10 7 -14z" />
    <glyph glyph-name="udieresis" unicode="&#xfc;" 
d="M212 505q-30 -110 -47 -194.5t-17 -146.5q0 -61 16.5 -88.5t51.5 -27.5q50 0 114.5 53.5t125.5 155.5q16 121 37 250q3 17 32 17q30 0 27 -17l-48 -292q-26 -161 -31 -204q-3 -17 -32 -17q-30 0 -27 17q14 78 28 149h-8q-58 -87 -118 -129.5t-111 -42.5q-116 0 -116 169
q0 124 65 350q5 17 31 17q31 0 27 -19zM225 648.5q-11 7.5 -11 23.5q0 27 14.5 39.5t46.5 12.5q29 0 39 -9.5t7 -31.5q-4 -22 -17.5 -32t-42.5 -10q-25 0 -36 7.5zM454.5 711.5q14.5 12.5 46.5 12.5q29 0 39 -9.5t7 -31.5q-4 -22 -17.5 -32t-42.5 -10q-25 0 -36 7.5
t-11 23.5q0 27 14.5 39.5z" />
    <glyph glyph-name="yacute" unicode="&#xfd;" 
d="M47.5 -190.5q-9.5 13.5 -9.5 27.5q0 6 4 10t16 11q105 61 210 144l-1 7q-8 0 -14 6.5t-12 20.5q-41 98 -79 221t-54 211q-5 28 -5 40q0 9 13 14t25 5t16 -7t7 -29q15 -96 52.5 -220t84.5 -234h8q181 171 181 338q0 35 -18 128q-2 12 6.5 18t26.5 6q12 0 18 -4.5t8 -15.5
q7 -28 10.5 -61.5t3.5 -59.5q-1 -152 -119.5 -298.5t-338.5 -282.5q-14 -9 -22 -9t-17.5 13.5zM311 591.5q-9 4.5 -15.5 13t-6.5 14.5q0 5 12 16l171 146q4 4 11 4q12 0 25.5 -11.5t13.5 -22.5q0 -8 -13 -18l-183 -141q-6 -5 -15 -0.5z" />
    <glyph glyph-name="Amacron" unicode="&#x100;" 
d="M16 8q0 3 4 15t7 20q132 338 300 634q8 16 19.5 22t37.5 6t35.5 -6t13.5 -22q67 -286 88 -634q0 -28 -1 -34q-1 -16 -34 -16q-13 0 -19 4.5t-7 17.5l-9 198q-65 -4 -147 -4t-146 4q-40 -109 -76 -198q-6 -13 -13.5 -17.5t-20.5 -4.5q-32 0 -32 15zM313 264q45 0 135 -2
l-11 70q-31 217 -53 319h-10q-59 -107 -145 -285l-52 -104q92 2 136 2zM217 836q0 12 5.5 24t15.5 12h350q6 0 9.5 -5.5t3.5 -13.5q0 -11 -6 -23t-17 -12h-350q-11 0 -11 18z" />
    <glyph glyph-name="amacron" unicode="&#x101;" 
d="M476.5 -8.5q-4.5 5.5 -9.5 23.5q-14 47 -37 139h-8q-67 -83 -125 -124.5t-111 -41.5q-56 0 -87.5 46t-31.5 142q0 101 33.5 180.5t98 125.5t153.5 46q103 0 160 -51q9 -7 12.5 -13t3.5 -15q0 -8 -1 -13l-8 -41q-20 -122 -47 -208q25 -64 56 -152q5 -16 5 -24
q0 -9 -15 -17t-29 -8q-8 0 -12.5 5.5zM146.5 75q19.5 -35 53.5 -35q43 0 101 46t121 131q23 76 47 221q-25 19 -57.5 28.5t-67.5 9.5q-105 0 -161 -81.5t-56 -211.5q0 -73 19.5 -108zM203 681q0 11 5 23.5t14 12.5h318q12 0 12 -19q0 -11 -5.5 -23t-15.5 -12h-318
q-10 0 -10 18z" />
    <glyph glyph-name="Abreve" unicode="&#x102;" 
d="M16 8q0 3 4 15t7 20q132 338 300 634q8 16 19.5 22t37.5 6t35.5 -6t13.5 -22q67 -286 88 -634q0 -28 -1 -34q-1 -16 -34 -16q-13 0 -19 4.5t-7 17.5l-9 198q-65 -4 -147 -4t-146 4q-40 -109 -76 -198q-6 -13 -13.5 -17.5t-20.5 -4.5q-32 0 -32 15zM313 264q45 0 135 -2
l-11 70q-31 217 -53 319h-10q-59 -107 -145 -285l-52 -104q92 2 136 2zM279.5 812.5q-41.5 39.5 -47.5 109.5q-1 9 12.5 16.5t26.5 7.5q11 0 12 -6q11 -115 116 -115t162 115q2 6 14 6q14 0 27 -7.5t9 -16.5q-34 -70 -89.5 -109.5t-127.5 -39.5q-73 0 -114.5 39.5z" />
    <glyph glyph-name="abreve" unicode="&#x103;" 
d="M476.5 -8.5q-4.5 5.5 -9.5 23.5q-14 47 -37 139h-8q-67 -83 -125 -124.5t-111 -41.5q-56 0 -87.5 46t-31.5 142q0 101 33.5 180.5t98 125.5t153.5 46q103 0 160 -51q9 -7 12.5 -13t3.5 -15q0 -8 -1 -13l-8 -41q-20 -122 -47 -208q25 -64 56 -152q5 -16 5 -24
q0 -9 -15 -17t-29 -8q-8 0 -12.5 5.5zM146.5 75q19.5 -35 53.5 -35q43 0 101 46t121 131q23 76 47 221q-25 19 -57.5 28.5t-67.5 9.5q-105 0 -161 -81.5t-56 -211.5q0 -73 19.5 -108zM257 632.5q-38 39.5 -43 109.5q-1 9 11.5 16.5t23.5 7.5q10 0 11 -6q5 -56 30.5 -85.5
t75.5 -29.5q95 0 147 115q2 6 13 6q12 0 24 -7.5t9 -16.5q-31 -70 -81.5 -109.5t-116.5 -39.5t-104 39.5z" />
    <glyph glyph-name="Cacute" unicode="&#x106;" 
d="M134 50.5q-55 61.5 -55 198.5q0 98 31.5 203.5t106.5 180.5t197 75q66 0 115 -17t61 -42q7 -13 7 -57q0 -32 -4 -60q-4 -22 -32 -22q-15 0 -20.5 4t-4.5 15q3 38 3 92q-17 14 -51.5 23t-75.5 9q-100 0 -161 -67t-86.5 -159t-25.5 -175q0 -112 40.5 -160t123.5 -48
q44 0 87.5 10.5t94.5 33.5q11 6 18.5 -5.5t7.5 -26.5q0 -18 -18 -26q-41 -19 -93 -30t-101 -11q-110 0 -165 61.5zM312 771.5q-9 4.5 -16.5 13t-7.5 14.5t13 16l188 146q4 4 11 4q14 0 29 -11.5t15 -22.5q0 -8 -14 -18l-202 -141q-7 -5 -16 -0.5z" />
    <glyph glyph-name="cacute" unicode="&#x107;" 
d="M134.5 30.5q-41.5 42.5 -41.5 136.5q0 90 29.5 172.5t93 136t159.5 53.5q51 0 87.5 -11.5t53.5 -30.5q7 -8 10.5 -41t3.5 -60q0 -10 -9.5 -16t-24.5 -6q-21 0 -21 14v74q-17 11 -46 18t-60 7q-80 0 -128.5 -50t-68.5 -118.5t-20 -130.5q0 -75 27.5 -106.5t83.5 -31.5
q48 0 98.5 23t109.5 68q5 3 8 3q10 0 18.5 -12t8.5 -23q0 -8 -10 -15q-54 -44 -116.5 -70t-120.5 -26q-83 0 -124.5 42.5zM311 591.5q-9 4.5 -15.5 13t-6.5 14.5q0 5 12 16l171 146q4 4 11 4q12 0 25.5 -11.5t13.5 -22.5q0 -8 -13 -18l-183 -141q-6 -5 -15 -0.5z" />
    <glyph glyph-name="Itilde" unicode="&#x128;" 
d="M88 18q0 12 5.5 24.5t16.5 12.5q61 0 139 -3q43 303 98 593q-78 -3 -139 -3q-13 0 -13 18q0 12 5.5 24.5t16.5 12.5h332q13 0 13 -18q0 -12 -5.5 -24.5t-16.5 -12.5q-61 0 -139 3q-43 -303 -98 -593q78 3 139 3q13 0 13 -18q0 -12 -5.5 -24.5t-16.5 -12.5h-332
q-13 0 -13 18zM440.5 802q-23.5 19 -48.5 54q-19 28 -34.5 41.5t-38.5 13.5q-30 0 -54.5 -31.5t-41.5 -87.5q-1 -6 -8.5 -9t-17.5 -3q-12 0 -20.5 4.5t-7.5 11.5q19 76 59 121t94 45q39 0 62.5 -19t49.5 -55q20 -28 35.5 -41.5t36.5 -13.5q61 0 98 119q3 12 26 12
q12 0 20.5 -4.5t7.5 -11.5q-20 -76 -60.5 -120.5t-94.5 -44.5q-39 0 -62.5 19z" />
    <glyph glyph-name="itilde" unicode="&#x129;" 
d="M249.5 18.5q-26.5 30.5 -26.5 90.5q0 54 18.5 157t44.5 202q-93 -3 -170 -3q-13 0 -13 17q0 12 5.5 23.5t15.5 11.5h200q15 0 20 -6t3 -21q-28 -118 -45.5 -217t-17.5 -150q0 -41 12.5 -60t40.5 -19q38 0 78 22.5t78 60.5q5 3 8 3q9 0 18 -10.5t9 -19.5q0 -6 -2 -10
t-8 -10q-42 -42 -92 -67t-99 -25q-51 0 -77.5 30.5zM379.5 633.5q-21.5 18.5 -44.5 54.5q-17 27 -31.5 41t-34.5 14q-27 0 -49.5 -31.5t-37.5 -87.5q-1 -6 -8 -9t-16 -3q-11 0 -18.5 4.5t-6.5 11.5q17 76 53.5 121t85.5 45q35 0 56.5 -19t45.5 -55q19 -28 32.5 -41.5
t32.5 -13.5q55 0 89 119q3 12 24 12q11 0 18.5 -4.5t6.5 -11.5q-18 -76 -54.5 -120.5t-86.5 -44.5q-35 0 -56.5 18.5z" />
    <glyph glyph-name="dotlessi" unicode="&#x131;" 
d="M249.5 18.5q-26.5 30.5 -26.5 90.5q0 54 18.5 157t44.5 202q-93 -3 -170 -3q-13 0 -13 17q0 12 5.5 23.5t15.5 11.5h200q15 0 20 -6t3 -21q-28 -118 -45.5 -217t-17.5 -150q0 -41 12.5 -60t40.5 -19q38 0 78 22.5t78 60.5q5 3 8 3q9 0 18 -10.5t9 -19.5q0 -6 -2 -10
t-8 -10q-42 -42 -92 -67t-99 -25q-51 0 -77.5 30.5z" />
    <glyph glyph-name="Nacute" unicode="&#x143;" 
d="M46 10l112 672q4 22 40 22q21 0 30.5 -7.5t16.5 -29.5q83 -233 196 -607h8q12 98 40.5 288t52.5 339q3 17 34 17t28 -17l-112 -672q-4 -22 -40 -22q-21 0 -30.5 7.5t-16.5 29.5q-69 193 -196 607h-8q-12 -98 -40.5 -288t-52.5 -339q-3 -17 -34 -17t-28 17zM312 771.5
q-9 4.5 -16.5 13t-7.5 14.5t13 16l188 146q4 4 11 4q14 0 29 -11.5t15 -22.5q0 -8 -14 -18l-202 -141q-7 -5 -16 -0.5z" />
    <glyph glyph-name="nacute" unicode="&#x144;" 
d="M408 12q30 110 47 194.5t17 146.5q0 61 -16.5 88.5t-51.5 27.5q-50 0 -114.5 -53.5t-125.5 -155.5q-16 -121 -37 -250q-3 -17 -32 -17q-30 0 -27 17l48 292q26 161 31 204q3 17 32 17q30 0 27 -17q-14 -78 -28 -149h8q58 87 118 129.5t111 42.5q116 0 116 -169
q0 -124 -65 -350q-5 -17 -31 -17q-31 0 -27 19zM312 591.5q-9 4.5 -15.5 13t-6.5 14.5q0 5 12 16l171 146q4 4 11 4q12 0 25.5 -11.5t13.5 -22.5q0 -8 -13 -18l-183 -141q-6 -5 -15 -0.5z" />
    <glyph glyph-name="Ncaron" unicode="&#x147;" 
d="M46 10l112 672q4 22 40 22q21 0 30.5 -7.5t16.5 -29.5q83 -233 196 -607h8q12 98 40.5 288t52.5 339q3 17 34 17t28 -17l-112 -672q-4 -22 -40 -22q-21 0 -30.5 7.5t-16.5 29.5q-69 193 -196 607h-8q-12 -98 -40.5 -288t-52.5 -339q-3 -17 -34 -17t-28 17zM240 948
q0 7 11 13.5t20 6.5q7 0 10 -4l120 -141l173 141q3 3 9 3q9 0 19 -8.5t10 -16.5q0 -4 -12 -15l-165 -146q-13 -13 -38 -13q-24 0 -34 13l-116 153q-7 10 -7 14z" />
    <glyph glyph-name="ncaron" unicode="&#x148;" 
d="M408 12q30 110 47 194.5t17 146.5q0 61 -16.5 88.5t-51.5 27.5q-50 0 -114.5 -53.5t-125.5 -155.5q-16 -121 -37 -250q-3 -17 -32 -17q-30 0 -27 17l48 292q26 161 31 204q3 17 32 17q30 0 27 -17q-14 -78 -28 -149h8q58 87 118 129.5t111 42.5q116 0 116 -169
q0 -124 -65 -350q-5 -17 -31 -17q-31 0 -27 19zM226 768q0 7 10 13.5t19 6.5q6 0 9 -4l109 -141l157 141q3 3 8 3q9 0 18 -8.5t9 -16.5q0 -4 -11 -15l-150 -146q-13 -13 -35 -13t-31 13l-105 153q-7 10 -7 14z" />
    <glyph glyph-name="Racute" unicode="&#x154;" 
d="M65 10l71 427q17 103 25.5 138t19.5 52l2 10q-28 -6 -37 -6q-17 0 -13 27q2 14 8 19.5t22 9.5q36 8 83 13t91 5q114 0 172 -45.5t58 -132.5q0 -80 -45.5 -143.5t-128.5 -109.5q37 -53 69.5 -113.5t51.5 -109.5q9 -24 9 -32q0 -10 -16 -18t-26 -8q-9 0 -13 6t-12 26
q-42 113 -125 238q-36 -2 -54 -2q-52 0 -111 8l-33 -214l-7 -45q-3 -17 -34 -17q-30 0 -27 17zM298 315q39 0 59 2q149 86 149 211q0 61 -41 91.5t-126 30.5q-63 0 -111 -9q-19 -147 -53 -318q53 -8 123 -8zM312 771.5q-9 4.5 -16.5 13t-7.5 14.5t13 16l188 146q4 4 11 4
q14 0 29 -11.5t15 -22.5q0 -8 -14 -18l-202 -141q-7 -5 -16 -0.5z" />
    <glyph glyph-name="racute" unicode="&#x155;" 
d="M106 10l52 313q-24 174 -24 184q0 7 10 12t25 5q12 0 16 -2.5t5 -8.5q5 -42 12 -153h8q64 85 129 127t138 42q29 0 52.5 -7t32.5 -19q6 -9 10 -37t4 -60q0 -28 -4 -56q-1 -10 -10.5 -15t-22.5 -5q-16 0 -21.5 3t-5.5 11l1 119q-17 11 -47 11q-133 0 -260 -183
q-8 -54 -37 -243l-6 -38q-3 -16 -31 -16q-29 0 -26 16zM312 591.5q-9 4.5 -15.5 13t-6.5 14.5q0 5 12 16l171 146q4 4 11 4q12 0 25.5 -11.5t13.5 -22.5q0 -8 -13 -18l-183 -141q-6 -5 -15 -0.5z" />
    <glyph glyph-name="Rcaron" unicode="&#x158;" 
d="M65 10l71 427q17 103 25.5 138t19.5 52l2 10q-28 -6 -37 -6q-17 0 -13 27q2 14 8 19.5t22 9.5q36 8 83 13t91 5q114 0 172 -45.5t58 -132.5q0 -80 -45.5 -143.5t-128.5 -109.5q37 -53 69.5 -113.5t51.5 -109.5q9 -24 9 -32q0 -10 -16 -18t-26 -8q-9 0 -13 6t-12 26
q-42 113 -125 238q-36 -2 -54 -2q-52 0 -111 8l-33 -214l-7 -45q-3 -17 -34 -17q-30 0 -27 17zM298 315q39 0 59 2q149 86 149 211q0 61 -41 91.5t-126 30.5q-63 0 -111 -9q-19 -147 -53 -318q53 -8 123 -8zM240 948q0 7 11 13.5t20 6.5q7 0 10 -4l120 -141l173 141q3 3 9 3
q9 0 19 -8.5t10 -16.5q0 -4 -12 -15l-165 -146q-13 -13 -38 -13q-24 0 -34 13l-116 153q-7 10 -7 14z" />
    <glyph glyph-name="rcaron" unicode="&#x159;" 
d="M106 10l52 313q-24 174 -24 184q0 7 10 12t25 5q12 0 16 -2.5t5 -8.5q5 -42 12 -153h8q64 85 129 127t138 42q29 0 52.5 -7t32.5 -19q6 -9 10 -37t4 -60q0 -28 -4 -56q-1 -10 -10.5 -15t-22.5 -5q-16 0 -21.5 3t-5.5 11l1 119q-17 11 -47 11q-133 0 -260 -183
q-8 -54 -37 -243l-6 -38q-3 -16 -31 -16q-29 0 -26 16zM226 768q0 7 10 13.5t19 6.5q6 0 9 -4l109 -141l157 141q3 3 8 3q9 0 18 -8.5t9 -16.5q0 -4 -11 -15l-150 -146q-13 -13 -35 -13t-31 13l-105 153q-7 10 -7 14z" />
    <glyph glyph-name="Sacute" unicode="&#x15a;" 
d="M88 18q-14 6 -19.5 11t-5.5 13q0 15 11 28t20 9q38 -20 77.5 -29t87.5 -9q91 0 145.5 39.5t54.5 109.5q0 49 -31.5 76t-107.5 49q-57 16 -94.5 35.5t-60.5 57t-23 97.5q0 93 63 149.5t178 56.5q56 0 104.5 -13.5t61.5 -29.5q9 -10 9 -54q0 -27 -4 -55q-2 -11 -10 -16
t-25 -5q-12 0 -17 4t-4 12q4 45 2 78q-51 24 -121 24q-92 0 -135.5 -42t-43.5 -106q0 -41 17.5 -67t47.5 -41t78 -28q91 -26 132.5 -67t41.5 -114q0 -61 -32 -107.5t-90.5 -72t-136.5 -25.5q-93 0 -170 32zM312 771.5q-9 4.5 -16.5 13t-7.5 14.5t13 16l188 146q4 4 11 4
q14 0 29 -11.5t15 -22.5q0 -8 -14 -18l-202 -141q-7 -5 -16 -0.5z" />
    <glyph glyph-name="sacute" unicode="&#x15b;" 
d="M180 -2q-49 10 -88 28q-10 6 -10 16q0 14 9 27t20 9q77 -38 174 -38q72 0 114.5 24t42.5 74q0 38 -29 59.5t-103 36.5q-55 11 -89 22.5t-58.5 38.5t-24.5 73q0 78 59 120t156 42q99 0 168 -35q11 -6 11 -16q0 -14 -9 -26.5t-20 -8.5q-76 34 -153 34q-72 0 -114 -26
t-42 -76q0 -29 16.5 -45.5t43.5 -25t77 -18.5q89 -18 128.5 -50t39.5 -91q0 -78 -59.5 -118t-157.5 -40q-53 0 -102 10zM312 591.5q-9 4.5 -15.5 13t-6.5 14.5q0 5 12 16l171 146q4 4 11 4q12 0 25.5 -11.5t13.5 -22.5q0 -8 -13 -18l-183 -141q-6 -5 -15 -0.5z" />
    <glyph glyph-name="Scircumflex" unicode="&#x15c;" 
d="M88 18q-14 6 -19.5 11t-5.5 13q0 15 11 28t20 9q38 -20 77.5 -29t87.5 -9q91 0 145.5 39.5t54.5 109.5q0 49 -31.5 76t-107.5 49q-57 16 -94.5 35.5t-60.5 57t-23 97.5q0 93 63 149.5t178 56.5q56 0 104.5 -13.5t61.5 -29.5q9 -10 9 -54q0 -27 -4 -55q-2 -11 -10 -16
t-25 -5q-12 0 -17 4t-4 12q4 45 2 78q-51 24 -121 24q-92 0 -135.5 -42t-43.5 -106q0 -41 17.5 -67t47.5 -41t78 -28q91 -26 132.5 -67t41.5 -114q0 -61 -32 -107.5t-90.5 -72t-136.5 -25.5q-93 0 -170 32zM585 788q0 -7 -11 -13.5t-20 -6.5q-7 0 -10 4l-120 141l-173 -141
q-3 -3 -9 -3q-9 0 -19 8.5t-10 16.5q0 5 12 15l165 146q13 13 38 13q24 0 34 -13l116 -153q7 -10 7 -14z" />
    <glyph glyph-name="scircumflex" unicode="&#x15d;" 
d="M180 -2q-49 10 -88 28q-10 6 -10 16q0 14 9 27t20 9q77 -38 174 -38q72 0 114.5 24t42.5 74q0 38 -29 59.5t-103 36.5q-55 11 -89 22.5t-58.5 38.5t-24.5 73q0 78 59 120t156 42q99 0 168 -35q11 -6 11 -16q0 -14 -9 -26.5t-20 -8.5q-76 34 -153 34q-72 0 -114 -26
t-42 -76q0 -29 16.5 -45.5t43.5 -25t77 -18.5q89 -18 128.5 -50t39.5 -91q0 -78 -59.5 -118t-157.5 -40q-53 0 -102 10zM539 608q0 -7 -10 -13.5t-19 -6.5q-6 0 -9 4l-109 141l-157 -141q-3 -3 -8 -3q-9 0 -18 8.5t-9 16.5q0 4 11 15l150 146q13 13 35 13t31 -13l105 -153
q7 -10 7 -14z" />
    <glyph glyph-name="Scedilla" unicode="&#x15e;" 
d="M74 70q11 13 20 9q38 -20 77.5 -29t87.5 -9q91 0 145.5 39.5t54.5 109.5q0 49 -31.5 76t-107.5 49q-57 16 -94.5 35.5t-60.5 57t-23 97.5q0 93 63 149.5t178 56.5q56 0 104.5 -13.5t61.5 -29.5q9 -10 9 -54q0 -27 -4 -55q-2 -11 -10 -16t-25 -5q-12 0 -17 4t-4 12
q4 45 2 78q-51 24 -121 24q-92 0 -135.5 -42t-43.5 -106q0 -41 17.5 -67t47.5 -41t78 -28q91 -26 132.5 -67t41.5 -114q0 -88 -64 -143.5t-172 -60.5l-3 -8l-63 -160q-3 -7 -12.5 -11t-20.5 -4q-12 0 -20 4t-8 11q0 6 7 19l76 148q-82 4 -149 32q-14 6 -19.5 11t-5.5 13
q0 15 11 28z" />
    <glyph glyph-name="scedilla" unicode="&#x15f;" 
d="M91 69q9 13 20 9q77 -38 174 -38q72 0 114.5 24t42.5 74q0 38 -29 59.5t-103 36.5q-55 11 -89 22.5t-58.5 38.5t-24.5 73q0 78 59 120t156 42q99 0 168 -35q11 -6 11 -16q0 -14 -9 -26.5t-20 -8.5q-76 34 -153 34q-72 0 -114 -26t-42 -76q0 -29 16.5 -45.5t43.5 -25
t77 -18.5q89 -18 128.5 -50t39.5 -91q0 -78 -59.5 -118t-156.5 -40l-4 -9l-63 -160q-3 -7 -12.5 -11t-20.5 -4q-12 0 -20 4t-8 11q0 6 7 19l78 152q-81 6 -148 36q-10 6 -10 16q0 14 9 27z" />
    <glyph glyph-name="Utilde" unicode="&#x168;" 
d="M128.5 33.5q-47.5 45.5 -47.5 149.5q0 71 26.5 220t55.5 284q6 17 34 17q31 0 27 -19q-29 -123 -56.5 -279.5t-27.5 -230.5q0 -73 32 -102.5t101 -29.5q75 0 119 37t69 133q20 73 44 225.5t33 246.5q1 19 33 19q30 0 28 -17q-14 -124 -35.5 -265.5t-46.5 -232.5
q-29 -107 -88.5 -154t-153.5 -47q-99 0 -146.5 45.5zM440.5 802q-23.5 19 -48.5 54q-19 28 -34.5 41.5t-38.5 13.5q-30 0 -54.5 -31.5t-41.5 -87.5q-1 -6 -8.5 -9t-17.5 -3q-12 0 -20.5 4.5t-7.5 11.5q19 76 59 121t94 45q39 0 62.5 -19t49.5 -55q20 -28 35.5 -41.5
t36.5 -13.5q61 0 98 119q3 12 26 12q12 0 20.5 -4.5t7.5 -11.5q-20 -76 -60.5 -120.5t-94.5 -44.5q-39 0 -62.5 19z" />
    <glyph glyph-name="utilde" unicode="&#x169;" 
d="M212 505q-30 -110 -47 -194.5t-17 -146.5q0 -61 16.5 -88.5t51.5 -27.5q50 0 114.5 53.5t125.5 155.5q16 121 37 250q3 17 32 17q30 0 27 -17l-48 -292q-26 -161 -31 -204q-3 -17 -32 -17q-30 0 -27 17q14 78 28 149h-8q-58 -87 -118 -129.5t-111 -42.5q-116 0 -116 169
q0 124 65 350q5 17 31 17q31 0 27 -19zM408.5 633.5q-21.5 18.5 -44.5 54.5q-17 27 -31.5 41t-34.5 14q-27 0 -49.5 -31.5t-37.5 -87.5q-1 -6 -8 -9t-16 -3q-11 0 -18.5 4.5t-6.5 11.5q17 76 53.5 121t85.5 45q35 0 56.5 -19t45.5 -55q19 -28 32.5 -41.5t32.5 -13.5
q55 0 89 119q3 12 24 12q11 0 18.5 -4.5t6.5 -11.5q-18 -76 -54.5 -120.5t-86.5 -44.5q-35 0 -56.5 18.5z" />
    <glyph glyph-name="Wcircumflex" unicode="&#x174;" 
d="M114.5 2q-8.5 7 -10.5 29q-16 146 -16 343q0 195 15 316q3 15 32 15q15 0 21.5 -4.5t5.5 -16.5q-19 -180 -19 -378q0 -133 9 -258h10q75 141 136 314q12 104 16 126q3 19 36 19t30 -19q-5 -33 -26 -126q5 -173 32 -314h10q62 154 114.5 318t87.5 318q3 12 11.5 16.5
t23.5 4.5q31 0 28 -15q-27 -129 -94.5 -328t-126.5 -331q-10 -22 -20.5 -29t-32.5 -7t-30 5.5t-10 22.5q-25 142 -25 281h-8q-47 -142 -117 -281q-8 -16 -19 -22t-33 -6t-30.5 7zM585 788q0 -7 -11 -13.5t-20 -6.5q-7 0 -10 4l-120 141l-173 -141q-3 -3 -9 -3q-9 0 -19 8.5
t-10 16.5q0 5 12 15l165 146q13 13 38 13q24 0 34 -13l116 -153q7 -10 7 -14z" />
    <glyph glyph-name="wcircumflex" unicode="&#x175;" 
d="M114.5 1q-8.5 7 -10.5 29q-18 128 -18 288q0 95 5 155l4 36q2 15 30 15q15 0 21 -4.5t5 -15.5q-10 -104 -10 -222q0 -117 11 -235h10q68 105 123 238q7 63 12 91q3 22 35 22t29 -22q-6 -37 -20 -91q12 -130 45 -238h10q100 233 153 457q1 11 9 15.5t23 4.5q28 0 28 -14
q0 -6 -2.5 -15t-5.5 -22q-28 -105 -71.5 -225.5t-89.5 -217.5q-10 -22 -20.5 -29t-32.5 -7q-21 0 -28.5 5.5t-11.5 23.5q-28 96 -36 213h-8q-41 -104 -106 -213q-10 -17 -20 -23t-32 -6t-30.5 7zM538 608q0 -7 -10 -13.5t-19 -6.5q-6 0 -9 4l-109 141l-157 -141q-3 -3 -8 -3
q-9 0 -18 8.5t-9 16.5q0 4 11 15l150 146q13 13 35 13t31 -13l105 -153q7 -10 7 -14z" />
    <glyph glyph-name="Ycircumflex" unicode="&#x176;" 
d="M238 10q17 108 49 274q-91 175 -148 379q-4 14 -4 21q0 9 12.5 15t26.5 6q9 0 13.5 -5t7.5 -17q21 -79 53.5 -168.5t68.5 -165.5h8q62 75 124.5 163.5t112.5 170.5q8 13 13 17.5t14 4.5q15 0 26.5 -5.5t11.5 -14.5q0 -7 -10 -24q-127 -207 -275 -377q-12 -84 -23 -155.5
t-15 -95.5l-4 -23q-3 -17 -34 -17t-28 17zM585 788q0 -7 -11 -13.5t-20 -6.5q-7 0 -10 4l-120 141l-173 -141q-3 -3 -9 -3q-9 0 -19 8.5t-10 16.5q0 5 12 15l165 146q13 13 38 13q24 0 34 -13l116 -153q7 -10 7 -14z" />
    <glyph glyph-name="Zacute" unicode="&#x179;" 
d="M17 19q0 9 1 14q2 15 6.5 23.5t20.5 27.5q304 351 489 553l1 8q-208 -3 -377 -3q-13 0 -13 18q0 12 5.5 24.5t16.5 12.5h427q17 0 17 -19q0 -8 -1 -13q-2 -15 -7 -24.5t-20 -27.5q-304 -351 -489 -553l-1 -8q222 3 420 3q13 0 13 -18q0 -12 -5.5 -24.5t-16.5 -12.5h-470
q-17 0 -17 19zM312 771.5q-9 4.5 -16.5 13t-7.5 14.5t13 16l188 146q4 4 11 4q14 0 29 -11.5t15 -22.5q0 -8 -14 -18l-202 -141q-7 -5 -16 -0.5z" />
    <glyph glyph-name="zacute" unicode="&#x17a;" 
d="M274.5 -24q-86.5 26 -149.5 73l-57 -56q-8 -7 -21 3t-13 23q0 6 5.5 13t17.5 18l413 412v3h-330q-13 0 -13 17q0 12 5.5 23.5t15.5 11.5h384q10 0 14 -4t4 -14q0 -16 -6.5 -28t-22.5 -28l-356 -355v-4q61 -39 138 -59t160 -20h2q11 49 17 115q1 16 24 16q32 0 32 -18
q0 -20 -9.5 -61.5t-20.5 -70.5q-8 -21 -20.5 -28.5t-38.5 -7.5q-88 0 -174.5 26zM312 591.5q-9 4.5 -15.5 13t-6.5 14.5q0 5 12 16l171 146q4 4 11 4q12 0 25.5 -11.5t13.5 -22.5q0 -8 -13 -18l-183 -141q-6 -5 -15 -0.5z" />
    <glyph glyph-name="Zdotaccent" unicode="&#x17b;" 
d="M17 19q0 9 1 14q2 15 6.5 23.5t20.5 27.5q304 351 489 553l1 8q-208 -3 -377 -3q-13 0 -13 18q0 12 5.5 24.5t16.5 12.5h427q17 0 17 -19q0 -8 -1 -13q-2 -15 -7 -24.5t-20 -27.5q-304 -351 -489 -553l-1 -8q222 3 420 3q13 0 13 -18q0 -12 -5.5 -24.5t-16.5 -12.5h-470
q-17 0 -17 19zM348 827q0 27 16 39.5t51 12.5q27 0 39 -7.5t12 -22.5q0 -7 -1 -11q-4 -22 -19 -32t-47 -10q-51 0 -51 31z" />
    <glyph glyph-name="zcaron" unicode="&#x17e;" 
d="M274.5 -24q-86.5 26 -149.5 73l-57 -56q-8 -7 -21 3t-13 23q0 6 5.5 13t17.5 18l413 412v3h-330q-13 0 -13 17q0 12 5.5 23.5t15.5 11.5h384q10 0 14 -4t4 -14q0 -16 -6.5 -28t-22.5 -28l-356 -355v-4q61 -39 138 -59t160 -20h2q11 49 17 115q1 16 24 16q32 0 32 -18
q0 -20 -9.5 -61.5t-20.5 -70.5q-8 -21 -20.5 -28.5t-38.5 -7.5q-88 0 -174.5 26zM226 768q0 7 10 13.5t19 6.5q6 0 9 -4l109 -141l157 141q3 3 8 3q9 0 18 -8.5t9 -16.5q0 -4 -11 -15l-150 -146q-13 -13 -35 -13t-31 13l-105 153q-7 10 -7 14z" />
    <glyph glyph-name="uni0401" unicode="&#x401;" 
d="M89 6.5q-5 6.5 -3 22.5l69 416q17 104 26 138.5t20 51.5l1 10l-38 -2q-13 0 -13 18q0 12 5.5 24t16.5 12h409q13 0 13 -18q0 -12 -5.5 -24t-16.5 -12q-146 0 -327 3q-14 -127 -45 -266q170 3 289 3q13 0 13 -18q0 -12 -5.5 -24t-16.5 -12q-119 0 -288 3
q-14 -132 -47 -281q184 3 332 3q13 0 13 -18q0 -12 -5.5 -24t-16.5 -12h-359q-16 0 -21 6.5zM236 803q-12 7 -12 23q0 28 15.5 40.5t51.5 12.5q27 0 39 -7.5t12 -23.5q0 -6 -1 -10q-4 -22 -19 -32t-47 -10q-27 0 -39 7zM492 869q15 10 47 10q31 0 42.5 -9.5t8.5 -31.5
q-5 -22 -19.5 -32t-46.5 -10q-27 0 -39.5 7.5t-12.5 23.5q0 7 1 11q4 21 19 31z" />
    <glyph glyph-name="uni040E" unicode="&#x40e;" 
d="M45 -6q-9 3 -9 20q0 13 3.5 22.5t11.5 9.5q6 0 20.5 -2t27.5 -2q56 0 102.5 34.5t97.5 109.5l-1 3q-14 -2 -20 -2q-8 0 -14 7.5t-13 24.5q-33 84 -63 183.5t-48.5 178t-18.5 98.5q0 11 12 18t29 7q10 0 14 -7t7 -28q15 -95 51 -218.5t79 -229.5h8q7 11 32 54
q111 197 203 395q9 21 14.5 27.5t15.5 6.5q14 0 27.5 -6t13.5 -15q0 -3 -13 -31q-42 -86 -100.5 -196t-108.5 -197q-56 -99 -104 -158t-97 -86t-107 -27q-34 0 -52 6zM290.5 812.5q-36.5 39.5 -41.5 113.5q-1 8 11.5 14.5t24.5 6.5t12 -7q2 -58 26.5 -88.5t77.5 -30.5
t87 30.5t57 88.5q3 7 15 7q13 0 24.5 -6.5t8.5 -14.5q-30 -74 -79.5 -113.5t-117.5 -39.5q-69 0 -105.5 39.5z" />
    <glyph glyph-name="uni0410" unicode="&#x410;" 
d="M16 8q0 3 4 15t7 20q132 338 300 634q8 16 19.5 22t37.5 6t35.5 -6t13.5 -22q67 -286 88 -634q0 -28 -1 -34q-1 -16 -34 -16q-13 0 -19 4.5t-7 17.5l-9 198q-65 -4 -147 -4t-146 4q-40 -109 -76 -198q-6 -13 -13.5 -17.5t-20.5 -4.5q-32 0 -32 15zM313 264q45 0 135 -2
l-11 70q-31 217 -53 319h-10q-59 -107 -145 -285l-52 -104q92 2 136 2z" />
    <glyph glyph-name="uni0411" unicode="&#x411;" 
d="M176.5 -1q-43.5 7 -70.5 17q-13 5 -17.5 12.5t-2.5 20.5l65 396q17 104 26 138.5t20 51.5l1 10l-38 -2q-12 0 -12 18q0 12 5 24t16 12h395q13 0 13 -18q0 -12 -5.5 -24.5t-16.5 -12.5q-149 0 -313 3q-13 -118 -39 -236q58 9 103 9q116 0 175.5 -45.5t59.5 -134.5
q0 -64 -28.5 -119.5t-91.5 -91t-163 -35.5q-38 0 -81.5 7zM262 47q115 0 166 55.5t51 136.5q0 63 -43 93.5t-130 30.5q-49 0 -111 -8q-21 -154 -49 -293q60 -15 116 -15z" />
    <glyph glyph-name="uni0412" unicode="&#x412;" 
d="M164 -1q-48 7 -74 20q-14 5 -19 12.5t-3 20.5l65 385q18 105 26.5 139t18.5 51l2 10q-28 -6 -37 -6q-17 0 -13 27q2 14 8 19.5t22 9.5q37 8 87 13t95 5q210 0 210 -161q0 -118 -121 -188l-2 -8q50 -17 76.5 -55t26.5 -98q0 -99 -73.5 -151t-196.5 -52q-50 0 -98 7z
M186.5 52q35.5 -5 75.5 -5q93 0 151.5 36.5t58.5 109.5q0 62 -40.5 94t-122.5 32q-71 0 -139 -9q-13 -116 -40 -243q21 -10 56.5 -15zM320 371q19 0 51 -2q121 70 121 172q0 109 -155 109q-58 0 -112 -8q-16 -137 -47 -280q74 9 142 9z" />
    <glyph glyph-name="uni0413" unicode="&#x413;" 
d="M94 10l72 435q17 104 26 138.5t20 51.5l1 10l-38 -2q-13 0 -13 18q0 12 5.5 24t16.5 12h409q13 0 13 -18q0 -12 -5.5 -24.5t-16.5 -12.5q-156 0 -327 3q-29 -192 -97 -608l-5 -27q-3 -17 -34 -17q-30 0 -27 17z" />
    <glyph glyph-name="uni0414" unicode="&#x414;" 
d="M-35 -139l27 164q3 17 10.5 23.5t23.5 6.5h18q46 45 79 108t63 177t62 305l-33 -2q-13 0 -13 18q0 12 5.5 24t16.5 12h352q14 0 20 -4.5t6 -14.5q0 -6 -1 -10q-43 -262 -65.5 -383.5t-47.5 -229.5h38q14 0 19.5 -4.5t5.5 -14.5q0 -7 -1 -11l-27 -164q-3 -17 -33 -17
q-31 0 -28 17q18 101 26 142q-111 -3 -221 -3t-221 3q-11 -93 -20 -142q-3 -17 -34 -17q-30 0 -27 17zM268 55q87 0 172 -3q46 307 98 593q-60 -3 -120 -3q-59 0 -121 3q-2 -29 -10 -82q-36 -212 -80.5 -328.5t-107.5 -182.5q84 3 169 3z" />
    <glyph glyph-name="uni0415" unicode="&#x415;" 
d="M89 6.5q-5 6.5 -3 22.5l69 416q17 104 26 138.5t20 51.5l1 10l-38 -2q-13 0 -13 18q0 12 5.5 24t16.5 12h409q13 0 13 -18q0 -12 -5.5 -24t-16.5 -12q-146 0 -327 3q-14 -127 -45 -266q170 3 289 3q13 0 13 -18q0 -12 -5.5 -24t-16.5 -12q-119 0 -288 3
q-14 -132 -47 -281q184 3 332 3q13 0 13 -18q0 -12 -5.5 -24t-16.5 -12h-359q-16 0 -21 6.5z" />
    <glyph glyph-name="uni0416" unicode="&#x416;" 
d="M504 -2q-3 5 -8 24q-39 166 -106 307q-22 -2 -42 -2q-16 -119 -42 -278l-6 -39q-3 -17 -34 -17t-28 17q22 139 56 317q-18 0 -40 2q-112 -140 -202 -307q-10 -18 -15.5 -23.5t-13.5 -5.5q-13 0 -26 7t-13 16q0 6 8.5 21.5t10.5 19.5q44 77 100 162t109 149
q-50 110 -98 280q-6 24 -6 34q0 9 14 15.5t28 6.5q8 0 11.5 -5t7.5 -21q37 -160 94 -294q22 -2 41 -2q11 79 38 252l8 53q3 17 34 17t28 -17q-21 -136 -54 -305q19 0 41 2q92 128 184 294q9 15 14 20.5t13 5.5q15 0 28.5 -6t13.5 -15q0 -10 -17 -38q-112 -186 -194 -290
q34 -67 62.5 -148.5t45.5 -152.5q8 -32 7 -40t-15 -14.5t-26 -6.5q-8 0 -11 5z" />
    <glyph glyph-name="uni0417" unicode="&#x417;" 
d="M79 20q-14 6 -20 12t-6 14q0 11 8.5 24t16.5 13q6 0 20 -8q29 -15 63.5 -25.5t85.5 -10.5q93 0 151 38.5t58 102.5q0 48 -30.5 82t-95.5 57q-31 -1 -110 -1q-19 0 -19 21q0 14 6 26t19 12q62 0 122 -9q152 82 152 184q0 98 -139 98q-68 0 -127 -22q-20 -57 -25 -81
q-4 -16 -19 -16q-36 0 -36 19q0 16 16 61t27 55q17 15 64.5 26.5t98.5 11.5q96 0 148.5 -38.5t52.5 -108.5q0 -122 -161 -210l-2 -8q57 -22 87.5 -59.5t30.5 -98.5q0 -60 -35 -104t-96.5 -68t-137.5 -24q-94 0 -168 35z" />
    <glyph glyph-name="uni0418" unicode="&#x418;" 
d="M221 687q-27 -157 -61.5 -345t-54.5 -282h8l33 52q118 187 199 314.5t159 240.5q15 22 27.5 29.5t33.5 7.5q42 0 38 -22l-112 -672q-2 -17 -33 -17t-29 17q27 157 61.5 345t54.5 282h-8q-249 -399 -391 -607q-15 -22 -27.5 -29.5t-33.5 -7.5q-42 0 -38 22l112 672
q2 17 33 17t29 -17z" />
    <glyph glyph-name="uni0419" unicode="&#x419;" 
d="M221 687q-27 -157 -61.5 -345t-54.5 -282h8l33 52q118 187 199 314.5t159 240.5q15 22 27.5 29.5t33.5 7.5q42 0 38 -22l-112 -672q-2 -17 -33 -17t-29 17q27 157 61.5 345t54.5 282h-8q-249 -399 -391 -607q-15 -22 -27.5 -29.5t-33.5 -7.5q-42 0 -38 22l112 672
q2 17 33 17t29 -17zM290.5 812.5q-36.5 39.5 -41.5 113.5q-1 8 11.5 14.5t24.5 6.5t12 -7q2 -58 26.5 -88.5t77.5 -30.5t87 30.5t57 88.5q3 7 15 7q13 0 24.5 -6.5t8.5 -14.5q-30 -74 -79.5 -113.5t-117.5 -39.5q-69 0 -105.5 39.5z" />
    <glyph glyph-name="uni041A" unicode="&#x41a;" 
d="M453.5 -1.5q-4.5 5.5 -11.5 22.5q-30 77 -75.5 156.5t-104.5 151.5q-43 -4 -91 -6l-36 -229l-13 -84q-3 -17 -34 -17t-28 17l112 677q3 17 34 17t28 -17q-25 -150 -54 -309q44 0 87 6q132 128 254 295q11 15 17.5 20t14.5 5q15 0 28 -6t13 -15q0 -11 -20 -36
q-51 -68 -124 -150t-140 -144q57 -65 107 -147t77 -150q12 -31 12 -39t-14 -16t-26 -8q-8 0 -12.5 5.5z" />
    <glyph glyph-name="uni041B" unicode="&#x41b;" 
d="M6 6.5q-11 14.5 -11 25.5q0 6 11 14q59 45 99.5 106.5t75 177.5t67.5 315l-33 -2q-13 0 -13 18q0 12 5.5 24t16.5 12h352q16 0 21.5 -6.5t3.5 -22.5l-109 -658q-3 -17 -34 -17t-28 17q68 411 108 635q-60 -3 -120 -3q-59 0 -121 3q-5 -51 -12 -95q-27 -163 -62.5 -269.5
t-78.5 -171t-100 -108.5q-10 -9 -16 -9q-11 0 -22 14.5z" />
    <glyph glyph-name="uni041C" unicode="&#x41c;" 
d="M23 10q26 158 62.5 335.5t75.5 333.5q5 14 15 19.5t34 5.5t33.5 -5.5t11.5 -20.5q41 -202 54 -376h12q78 189 180 376q7 15 18.5 20.5t36.5 5.5t34 -5.5t9 -19.5q-12 -153 -34.5 -330t-49.5 -339q-3 -17 -34 -17t-28 17q60 366 89 631h-10q-89 -161 -180 -376
q-5 -13 -15 -19t-30 -6t-28.5 6t-8.5 19q-18 200 -54 376h-10q-60 -260 -121 -631q-3 -17 -34 -17t-28 17z" />
    <glyph glyph-name="uni041D" unicode="&#x41d;" 
d="M46 10l112 677q3 17 34 17t28 -17q-13 -88 -53 -304q84 3 164 3q82 0 164 -3q16 109 37 240l10 64q3 17 34 17t28 -17l-112 -677q-3 -17 -34 -17t-28 17q15 101 57 324q-84 -3 -165 -3q-80 0 -163 3l-38 -240l-13 -84q-3 -17 -34 -17t-28 17z" />
    <glyph glyph-name="uni041E" unicode="&#x41e;" 
d="M117.5 51.5q-48.5 63.5 -48.5 204.5q0 99 28.5 202.5t97.5 177t183 73.5q107 0 155.5 -63.5t48.5 -204.5q0 -99 -28.5 -202.5t-97.5 -177t-183 -73.5q-107 0 -155.5 63.5zM164.5 92.5q34.5 -49.5 111.5 -49.5q85 0 140 64t80 156t25 178q0 114 -34.5 163.5t-111.5 49.5
q-85 0 -140 -64t-80 -156t-25 -178q0 -114 34.5 -163.5z" />
    <glyph glyph-name="uni041F" unicode="&#x41f;" 
d="M46 10l72 435q17 104 26 138.5t20 51.5l1 10l-38 -2q-13 0 -13 18q0 12 5.5 24t16.5 12h440q16 0 21.5 -6.5t3.5 -22.5l-109 -658q-3 -17 -34 -17t-28 17q67 407 108 635q-82 -3 -164 -3q-80 0 -164 3q-29 -192 -97 -608l-5 -27q-3 -17 -34 -17t-28 17z" />
    <glyph glyph-name="uni0420" unicode="&#x420;" 
d="M79 10l71 427q17 103 25.5 138t19.5 52l2 10q-28 -6 -37 -6q-17 0 -13 27q2 14 8 19.5t22 9.5q90 18 174 18q115 0 174 -51t59 -152q0 -72 -28.5 -135t-93.5 -103.5t-166 -40.5q-66 0 -122 14q-23 -161 -34 -227q-3 -17 -34 -17q-30 0 -27 17zM300 278q118 0 170.5 65.5
t52.5 160.5q0 74 -42.5 110t-128.5 36q-63 0 -110 -9q-20 -170 -59 -351q53 -12 117 -12z" />
    <glyph glyph-name="uni0421" unicode="&#x421;" 
d="M134 50.5q-55 61.5 -55 198.5q0 98 31.5 203.5t106.5 180.5t197 75q66 0 115 -17t61 -42q7 -13 7 -57q0 -32 -4 -60q-4 -22 -32 -22q-15 0 -20.5 4t-4.5 15q3 38 3 92q-17 14 -51.5 23t-75.5 9q-100 0 -161 -67t-86.5 -159t-25.5 -175q0 -112 40.5 -160t123.5 -48
q44 0 87.5 10.5t94.5 33.5q11 6 18.5 -5.5t7.5 -26.5q0 -18 -18 -26q-41 -19 -93 -30t-101 -11q-110 0 -165 61.5z" />
    <glyph glyph-name="uni0422" unicode="&#x422;" 
d="M238 10q68 411 109 635q-120 -3 -219 -3q-13 0 -13 18q0 12 5.5 24.5t16.5 12.5h492q13 0 13 -18q0 -12 -5.5 -24.5t-16.5 -12.5q-99 0 -219 3q-25 -170 -56.5 -364.5t-40.5 -248.5q-2 -8 -4 -22q-3 -17 -34 -17t-28 17z" />
    <glyph glyph-name="uni0423" unicode="&#x423;" 
d="M45 -6q-9 3 -9 20q0 13 3.5 22.5t11.5 9.5q6 0 20.5 -2t27.5 -2q56 0 102.5 34.5t97.5 109.5l-1 3q-14 -2 -20 -2q-8 0 -14 7.5t-13 24.5q-33 84 -63 183.5t-48.5 178t-18.5 98.5q0 11 12 18t29 7q10 0 14 -7t7 -28q15 -95 51 -218.5t79 -229.5h8q7 11 32 54
q111 197 203 395q9 21 14.5 27.5t15.5 6.5q14 0 27.5 -6t13.5 -15q0 -3 -13 -31q-42 -86 -100.5 -196t-108.5 -197q-56 -99 -104 -158t-97 -86t-107 -27q-34 0 -52 6z" />
    <glyph glyph-name="uni0424" unicode="&#x424;" 
d="M236 -1q0 16 17 80q-107 7 -155.5 58t-48.5 158q0 138 65.5 228t227.5 96q5 52 10 76q3 17 34 17q28 0 28 -14q0 -16 -17 -80q107 -7 155.5 -58t48.5 -157q0 -138 -65.5 -228.5t-227.5 -96.5q-5 -52 -10 -76q-3 -17 -34 -17q-28 0 -28 14zM145 176.5q36 -37.5 117 -42.5
q27 207 71 429q-128 -8 -176 -82t-48 -187q0 -80 36 -117.5zM492.5 216.5q48.5 74.5 48.5 187.5q0 79 -36 116.5t-117 42.5q-28 -214 -72 -429q128 8 176.5 82.5z" />
    <glyph glyph-name="uni0425" unicode="&#x425;" 
d="M22 -1q-12 7 -12 17q0 6 5 15.5t15 23.5q47 72 118 159t140 157q-39 65 -76 140.5t-59 135.5q-9 24 -9 34q0 9 13 16.5t24 7.5q9 0 14 -5.5t11 -21.5q51 -148 123 -273h10q120 138 207 273q11 16 17.5 21.5t15.5 5.5q13 0 24.5 -8t11.5 -19q0 -5 -5.5 -14.5t-14.5 -22.5
q-44 -65 -106.5 -143.5t-121.5 -141.5q46 -69 88.5 -153.5t66.5 -153.5q8 -25 8 -32q0 -10 -12 -17.5t-24 -7.5q-9 0 -15 5.5t-12 22.5q-21 73 -58.5 151t-83.5 149h-9q-67 -71 -128.5 -149t-106.5 -151q-11 -17 -18 -22.5t-16 -5.5q-13 0 -25 7z" />
    <glyph glyph-name="uni0426" unicode="&#x426;" 
d="M459 -139q18 101 26 142q-139 -3 -411 -3q-14 0 -20 4.5t-6 14.5q0 6 1 10l109 658q3 17 34 17t28 -17q-67 -407 -108 -635q83 3 165 3q79 0 160 -3q24 162 78 486l24 149q3 17 33 17q31 0 28 -17q-53 -318 -76 -445t-39 -189q18 2 37 2q14 0 20 -4.5t6 -15.5
q0 -6 -1 -10l-27 -164q-3 -17 -34 -17q-30 0 -27 17z" />
    <glyph glyph-name="uni0427" unicode="&#x427;" 
d="M398 10q10 68 54 307q-73 -24 -158 -24q-91 0 -138 41.5t-47 123.5q0 50 40 229q5 17 33 17q32 0 28 -19q-13 -55 -26 -126t-13 -96q0 -115 130 -115q86 0 160 25q38 245 46 293l3 21q3 17 34 17q30 0 27 -17l-112 -677q-3 -17 -33 -17q-31 0 -28 17z" />
    <glyph glyph-name="uni0428" unicode="&#x428;" 
d="M38 4.5q-6 4.5 -6 14.5q0 6 1 10l109 658q3 17 34 17q30 0 27 -17q-68 -411 -108 -635q77 3 154 3q25 159 77 477l25 155q3 17 33 17q31 0 28 -17q-61 -375 -107 -632q76 0 152 -3q24 161 55.5 352t41.5 251l5 32q3 17 33 17q31 0 28 -17l-109 -658q-3 -16 -11 -22.5
t-24 -6.5h-418q-14 0 -20 4.5z" />
    <glyph glyph-name="uni0429" unicode="&#x429;" 
d="M462 -139q18 101 26 142q-145 -3 -430 -3q-14 0 -20 4.5t-6 14.5q0 6 1 10l109 658q3 17 34 17q30 0 27 -17q-68 -411 -108 -635q74 3 147 3q25 159 77 477l25 155q3 17 34 17q30 0 27 -17q-61 -375 -107 -632q73 0 146 -3q24 162 78 486l24 149q3 17 34 17q30 0 27 -17
q-50 -304 -74 -436t-41 -197q15 1 34 1q14 0 19.5 -4.5t5.5 -14.5q0 -7 -1 -11l-27 -164q-3 -17 -33 -17q-31 0 -28 17z" />
    <glyph glyph-name="uni042A" unicode="&#x42a;" 
d="M235 -1q-39 7 -63 17q-13 5 -17.5 12.5t-2.5 20.5q24 140 32 190l70 406q-68 -3 -128 -3q-13 0 -13 18q0 12 5.5 24.5t16.5 12.5h157q14 0 19.5 -4t5.5 -14q0 -7 -1 -11q-19 -113 -41 -231q42 7 73 7q105 0 158 -48t53 -143q0 -67 -25 -126.5t-81.5 -97t-144.5 -37.5
q-34 0 -73 7zM312 47q99 0 142.5 60t43.5 148q0 68 -37 101t-112 33q-45 0 -83 -8q-22 -168 -53 -318q49 -16 99 -16z" />
    <glyph glyph-name="uni042B" unicode="&#x42b;" 
d="M121 -1q-37 7 -60 17q-13 6 -17.5 13.5t-2.5 19.5l106 638q3 17 34 17t28 -17q-19 -120 -45 -250q39 7 67 7q95 0 143 -48t48 -143q0 -67 -23 -126.5t-75 -97t-133 -37.5q-33 0 -70 7zM195 47q88 0 127 60t39 148q0 68 -32 101t-97 33q-42 0 -77 -8q-22 -168 -53 -318
q47 -16 93 -16zM553 687q3 17 34 17t28 -17l-112 -677q-3 -17 -34 -17t-28 17z" />
    <glyph glyph-name="uni042C" unicode="&#x42c;" 
d="M176.5 -1q-43.5 7 -70.5 17q-13 5 -17.5 12.5t-2.5 20.5l105 638q3 17 33 17q31 0 28 -17q-9 -62 -44 -251q51 8 100 8q116 0 175.5 -48.5t59.5 -142.5q0 -67 -28.5 -126.5t-92.5 -97t-164 -37.5q-38 0 -81.5 7zM262 47q116 0 168 60t52 148q0 68 -43 101t-130 33
q-63 0 -110 -9q-22 -168 -53 -317q58 -16 116 -16z" />
    <glyph glyph-name="uni042D" unicode="&#x42d;" 
d="M126.5 0q-43.5 11 -75.5 29q-7 3 -9 7.5t-2 10.5q0 14 10.5 27.5t19.5 8.5q68 -39 145 -39q134 0 200 81.5t85 196.5q-140 -3 -280 -3q-13 0 -13 18q0 12 5.5 24t16.5 12q139 0 277 -3q2 38 2 51q0 115 -47.5 173.5t-140.5 58.5q-33 0 -63.5 -7t-53.5 -19l-28 -96
q-4 -12 -8.5 -16.5t-13.5 -4.5q-17 0 -26.5 6.5t-7.5 17.5q4 24 18.5 67t24.5 55q19 22 65.5 37t94.5 15q120 0 183 -72t63 -211q0 -108 -33.5 -207t-112.5 -164t-208 -65q-44 0 -87.5 11z" />
    <glyph glyph-name="uni042E" unicode="&#x42e;" 
d="M248.5 33q-32.5 45 -32.5 141q0 71 14 154h-87q-20 -135 -49 -318q-3 -17 -34 -17q-30 0 -27 17l112 677q3 17 33 17q31 0 28 -17q-15 -93 -54 -304h88q22 117 50.5 187.5t70 104.5t101.5 34q70 0 103 -43t33 -138q0 -61 -16 -163q-24 -139 -53 -220.5t-71.5 -119
t-106.5 -37.5q-70 0 -102.5 45zM294 71.5q19 -28.5 59 -28.5q43 0 73 32t53 102.5t43 192.5q17 104 17 161q0 65 -19.5 94t-60.5 29q-43 0 -73 -32t-52 -102t-42 -192q-17 -105 -17 -164q0 -64 19 -92.5z" />
    <glyph glyph-name="uni042F" unicode="&#x42f;" 
d="M412 10q14 96 46 259q-61 -8 -113 -8q-19 0 -57 2q-109 -114 -192 -241q-13 -20 -19.5 -26t-15.5 -6q-12 0 -27.5 8.5t-15.5 19.5q0 7 18 33q35 52 89.5 116.5t107.5 117.5q-100 68 -100 183q0 72 33.5 126t94 82.5t140.5 28.5q41 0 85.5 -6.5t72.5 -16.5
q14 -5 18.5 -12.5t2.5 -20.5l-107 -639q-3 -17 -33 -17q-31 0 -28 17zM215 386.5q20 -37.5 62 -69.5q22 -2 66 -2q68 0 125 8q18 155 51 311q-47 16 -118 16q-104 0 -155 -50t-51 -130q0 -46 20 -83.5z" />
    <glyph glyph-name="uni0430" unicode="&#x430;" 
d="M476.5 -8.5q-4.5 5.5 -9.5 23.5q-14 47 -37 139h-8q-67 -83 -125 -124.5t-111 -41.5q-56 0 -87.5 46t-31.5 142q0 101 33.5 180.5t98 125.5t153.5 46q103 0 160 -51q9 -7 12.5 -13t3.5 -15q0 -8 -1 -13l-8 -41q-20 -122 -47 -208q25 -64 56 -152q5 -16 5 -24
q0 -9 -15 -17t-29 -8q-8 0 -12.5 5.5zM146.5 75q19.5 -35 53.5 -35q43 0 101 46t121 131q23 76 47 221q-25 19 -57.5 28.5t-67.5 9.5q-105 0 -161 -81.5t-56 -211.5q0 -73 19.5 -108z" />
    <glyph glyph-name="uni0431" unicode="&#x431;" 
d="M76 220q0 73 18.5 161t62.5 165t114 110q60 28 155 50.5t161 25.5q9 0 12.5 -6t3.5 -21q0 -28 -16 -30q-94 -6 -173.5 -25.5t-123.5 -42.5q-97 -50 -139 -192l6 -2q88 61 192 61q94 0 144 -52t50 -152q0 -73 -29 -137.5t-87.5 -104.5t-141.5 -40q-209 0 -209 232zM285 40
q64 0 109.5 32.5t68.5 85.5t23 112q0 77 -39 116.5t-112 39.5q-47 0 -95.5 -17t-93.5 -50q-14 -72 -14 -137q0 -182 153 -182z" />
    <glyph glyph-name="uni0432" unicode="&#x432;" 
d="M98 197q0 84 27.5 158.5t86.5 121.5t150 47q80 0 124 -32.5t44 -88.5q0 -44 -23 -77t-71 -61l-2 -8q91 -31 91 -108q0 -78 -61.5 -116.5t-160.5 -38.5q-205 0 -205 203zM192 80.5q36 -38.5 110 -38.5q70 0 118 25t48 83q0 43 -43 65.5t-129 22.5q-69 0 -139 -5
q-1 -12 -1 -35q0 -79 36 -117.5zM288 280q57 0 92 -4q39 23 64.5 54t25.5 66q0 38 -31 59t-83 21q-83 0 -131.5 -54.5t-62.5 -145.5q90 4 126 4z" />
    <glyph glyph-name="uni0433" unicode="&#x433;" 
d="M129.5 20q-48.5 32 -48.5 96q0 79 56 118t164 55q61 9 93.5 18t54 30.5t21.5 61.5q0 79 -129 79q-82 0 -164 -37q-12 -5 -20 6t-8 25q0 8 4 12.5t14 8.5q79 37 174 37q88 0 135.5 -32.5t47.5 -96.5q0 -55 -25.5 -88.5t-73 -51t-121.5 -27.5q-55 -8 -89.5 -18t-57 -33
t-22.5 -64q0 -79 133 -79q93 0 184 40q12 5 20 -7t8 -25t-17 -21q-43 -18 -93.5 -28.5t-100.5 -10.5q-91 0 -139.5 32z" />
    <glyph glyph-name="uni0434" unicode="&#x434;" 
d="M119.5 39.5q-52.5 51.5 -52.5 152.5q0 72 29 138.5t91 109.5t154 43q84 0 148 -35l3 2q-25 110 -90.5 166.5t-193.5 68.5q-5 0 -8 6.5t-3 15.5q0 12 4.5 22t11.5 9q161 -11 251 -106t90 -282q0 -93 -26 -174.5t-88.5 -134.5t-165.5 -53q-102 0 -154.5 51.5zM274 38
q127 0 175.5 96.5t48.5 231.5q0 23 -1 33q-63 37 -158 37q-77 0 -125.5 -37.5t-69.5 -93.5t-21 -114q0 -153 151 -153z" />
    <glyph glyph-name="uni0435" unicode="&#x435;" 
d="M134.5 33q-44.5 45 -44.5 143q0 96 35.5 176.5t99.5 128t144 47.5q51 0 91 -18t62 -49.5t22 -69.5q0 -46 -36 -76.5t-113.5 -57t-245.5 -72.5v-5q0 -76 30.5 -108t101.5 -32q93 0 196 73q9 6 20 -6.5t11 -23.5q0 -7 -4 -12.5t-15 -12.5q-106 -70 -214 -70
q-96 0 -140.5 45zM366.5 294.5q64.5 21.5 93.5 43t29 52.5q0 39 -33.5 64.5t-88.5 25.5q-60 0 -106 -33.5t-73.5 -90t-35.5 -125.5q150 42 214.5 63.5z" />
    <glyph glyph-name="uni0436" unicode="&#x436;" 
d="M506.5 -1q-3.5 4 -8.5 18q-38 119 -106 223q-17 -2 -59 -2q-10 -78 -30 -196l-5 -32q-3 -16 -32 -16q-16 0 -22 4t-4 12q16 103 41 228q-42 0 -59 2q-100 -108 -172 -223q-9 -14 -14 -18t-13 -4q-13 0 -26 5t-13 13q0 6 18 33q32 51 83 115.5t99 113.5q-49 77 -98 200
q-7 18 -7 26q0 10 12.5 16t26.5 6q8 0 12 -4t8 -16q39 -116 92 -213q17 -2 59 -2q15 109 33 218q3 17 32 17t26 -17q-23 -138 -39 -218q42 0 59 2q81 96 156 213q7 11 12.5 15.5t13.5 4.5q15 0 28 -5t13 -13q0 -7 -17 -30q-34 -49 -80 -108t-87 -103q32 -45 60.5 -104.5
t48.5 -113.5q8 -23 6 -32q-1 -8 -13.5 -13.5t-23.5 -5.5q-7 0 -10.5 4z" />
    <glyph glyph-name="uni0437" unicode="&#x437;" 
d="M89 16q-14 5 -20.5 9.5t-6.5 11.5q0 13 9 27.5t17 10.5q87 -34 170 -34q78 0 136 24t58 72q0 34 -26 57.5t-82 39.5l-136 -1q-15 0 -15 18q0 17 6.5 26t17.5 9q61 0 135 -9q59 29 86 57.5t27 59.5q0 78 -131 78q-46 0 -89 -8t-76 -24q-8 -3 -16 9t-8 26q0 8 2.5 12t9.5 7
q34 14 81.5 22.5t93.5 8.5q90 0 140.5 -32.5t50.5 -90.5q0 -43 -30 -77.5t-92 -62.5l-2 -8q52 -16 81 -45.5t29 -73.5q0 -48 -35.5 -81t-93 -49t-122.5 -16q-96 0 -169 27z" />
    <glyph glyph-name="uni0438" unicode="&#x438;" 
d="M212 505q-30 -110 -47 -194.5t-17 -146.5q0 -61 16.5 -88.5t51.5 -27.5q50 0 114.5 53.5t125.5 155.5q16 121 37 250q3 17 32 17q30 0 27 -17l-48 -292q-26 -161 -31 -204q-3 -17 -32 -17q-30 0 -27 17q14 78 28 149h-8q-58 -87 -118 -129.5t-111 -42.5q-116 0 -116 169
q0 124 65 350q5 17 31 17q31 0 27 -19z" />
    <glyph glyph-name="uni0439" unicode="&#x439;" 
d="M212 505q-30 -110 -47 -194.5t-17 -146.5q0 -61 16.5 -88.5t51.5 -27.5q50 0 114.5 53.5t125.5 155.5q16 121 37 250q3 17 32 17q30 0 27 -17l-48 -292q-26 -161 -31 -204q-3 -17 -32 -17q-30 0 -27 17q14 78 28 149h-8q-58 -87 -118 -129.5t-111 -42.5q-116 0 -116 169
q0 124 65 350q5 17 31 17q31 0 27 -19zM260.5 632.5q-36.5 39.5 -41.5 113.5q-1 8 11.5 14.5t24.5 6.5t12 -7q2 -58 26.5 -88.5t77.5 -30.5t87 30.5t57 88.5q3 7 15 7q13 0 24.5 -6.5t8.5 -14.5q-30 -74 -79.5 -113.5t-117.5 -39.5q-69 0 -105.5 39.5z" />
    <glyph glyph-name="uni043A" unicode="&#x43a;" 
d="M442 -2q-5 4 -12 16q-75 122 -194 227q-33 -5 -65 -8q-14 -129 -30 -223q-3 -17 -33 -17q-29 0 -26 17l82 496q3 17 32 17q30 0 27 -17q-17 -104 -43 -221q44 4 65 8q123 92 238 212q12 12 17.5 15.5t13.5 3.5q15 0 27.5 -5t12.5 -13q0 -3 -5 -10t-14 -17
q-51 -51 -117 -109.5t-128 -105.5q54 -47 106.5 -108.5t86.5 -116.5q10 -17 10 -25q0 -7 -13.5 -13.5t-24.5 -6.5q-8 0 -13 4z" />
    <glyph glyph-name="uni043B" unicode="&#x43b;" 
d="M6.5 6.5q-10.5 13.5 -10.5 23.5q0 9 10 15q63 37 103.5 90t66.5 137t45 218q2 15 9 21t22 6h277q14 0 19.5 -6t3.5 -21l-80 -480q-3 -17 -33 -17q-29 0 -26 17q49 296 79 458q-76 -4 -113 -4q-36 0 -110 4q-25 -183 -75.5 -298t-151.5 -171q-10 -6 -15 -6
q-10 0 -20.5 13.5z" />
    <glyph glyph-name="uni043C" unicode="&#x43c;" 
d="M23 10q20 118 48 247.5t60 242.5q5 15 14.5 20t33.5 5q22 0 31 -5.5t14 -20.5q49 -147 70 -286h12q69 143 164 286q9 15 21 20.5t35 5.5q25 0 34 -5.5t9 -19.5q-6 -114 -20.5 -244t-33.5 -246q-3 -17 -31 -17t-25 17q22 137 36 247t18 214h-10q-85 -127 -164 -284
q-7 -14 -16 -20t-29 -6t-27.5 6t-9.5 20q-27 158 -70 284h-10q-54 -191 -98 -461q-3 -17 -31 -17t-25 17z" />
    <glyph glyph-name="uni043D" unicode="&#x43d;" 
d="M67 10l82 497q3 17 33 17q29 0 26 -17q-14 -92 -40 -223q65 4 147 4t145 -4q16 108 27 175l7 48q3 17 32 17q30 0 27 -17l-82 -497q-3 -17 -33 -17q-29 0 -26 17q10 70 41 229q-72 -3 -147 -3q-73 0 -145 3q-16 -108 -27 -175l-8 -54q-3 -17 -32 -17q-30 0 -27 17z" />
    <glyph glyph-name="uni043E" unicode="&#x43e;" 
d="M126 46q-50 58 -50 172q0 88 32 158.5t93.5 111.5t146.5 41q97 0 147 -58t50 -171q0 -88 -32 -159t-93 -112t-146 -41q-98 0 -148 58zM169.5 84q35.5 -44 109.5 -44q69 0 116 34.5t70 93.5t23 132q0 90 -35.5 133.5t-109.5 43.5q-68 0 -115.5 -34.5t-70.5 -93.5t-23 -131
q0 -90 35.5 -134z" />
    <glyph glyph-name="uni043F" unicode="&#x43f;" 
d="M408 12q30 110 47 194.5t17 146.5q0 61 -16.5 88.5t-51.5 27.5q-50 0 -114.5 -53.5t-125.5 -155.5q-16 -121 -37 -250q-3 -17 -32 -17q-30 0 -27 17l48 292q26 161 31 204q3 17 32 17q30 0 27 -17q-14 -78 -28 -149h8q58 87 118 129.5t111 42.5q116 0 116 -169
q0 -124 -65 -350q-5 -17 -31 -17q-31 0 -27 19z" />
    <glyph glyph-name="uni0440" unicode="&#x440;" 
d="M134 20q-16 -114 -33 -203q-3 -17 -33 -17q-28 0 -25 17l38 222l42 248q23 133 33 222q3 17 33 17q15 0 21 -4t5 -13q-5 -29 -13.5 -75.5t-15.5 -74.5h8q65 85 123.5 127.5t112.5 42.5q56 0 87.5 -46t31.5 -142q0 -101 -32.5 -180.5t-95.5 -125.5t-151 -46q-74 0 -136 31
zM272 41q105 0 161 81.5t56 211.5q0 73 -20 108t-54 35q-45 0 -106.5 -51t-131.5 -149q-13 -95 -35 -204q61 -32 130 -32z" />
    <glyph glyph-name="uni0441" unicode="&#x441;" 
d="M134.5 30.5q-41.5 42.5 -41.5 136.5q0 90 29.5 172.5t93 136t159.5 53.5q51 0 87.5 -11.5t53.5 -30.5q7 -8 10.5 -41t3.5 -60q0 -10 -9.5 -16t-24.5 -6q-21 0 -21 14v74q-17 11 -46 18t-60 7q-80 0 -128.5 -50t-68.5 -118.5t-20 -130.5q0 -75 27.5 -106.5t83.5 -31.5
q48 0 98.5 23t109.5 68q5 3 8 3q10 0 18.5 -12t8.5 -23q0 -8 -10 -15q-54 -44 -116.5 -70t-120.5 -26q-83 0 -124.5 42.5z" />
    <glyph glyph-name="uni0442" unicode="&#x442;" 
d="M28 10l54 326q15 90 25 170q3 17 30 17q24 0 24 -13q0 -5 -18 -95h7q62 114 138 114q33 0 50 -26t20 -79h7q30 53 65 79t71 26t55 -26.5t19 -79.5q0 -55 -22.5 -182t-47.5 -231q-5 -17 -31 -17q-28 0 -25 17q21 86 44 211t23 182q0 41 -8 57.5t-25 16.5q-26 0 -60 -31.5
t-71 -94.5q-10 -72 -29 -174t-33 -167q-2 -9 -8.5 -13t-19.5 -4q-28 0 -23 17q20 86 42 212.5t22 180.5q0 41 -8 57.5t-25 16.5q-26 0 -60 -33.5t-73 -100.5l-53 -333q-3 -17 -31 -17t-25 17z" />
    <glyph glyph-name="uni0443" unicode="&#x443;" 
d="M47.5 -190.5q-9.5 13.5 -9.5 27.5q0 6 4 10t16 11q105 61 210 144l-1 7q-8 0 -14 6.5t-12 20.5q-41 98 -79 221t-54 211q-5 28 -5 40q0 9 13 14t25 5t16 -7t7 -29q15 -96 52.5 -220t84.5 -234h8q181 171 181 338q0 35 -18 128q-2 12 6.5 18t26.5 6q12 0 18 -4.5t8 -15.5
q7 -28 10.5 -61.5t3.5 -59.5q-1 -152 -119.5 -298.5t-338.5 -282.5q-14 -9 -22 -9t-17.5 13.5z" />
    <glyph glyph-name="uni0444" unicode="&#x444;" 
d="M207 -183l8 47l24 126q-95 8 -144 65.5t-49 162.5q0 84 33 153t97 111t152 47q3 24 22 142l7 45q3 17 32 17t26 -17q-10 -70 -33 -188q95 -9 144 -66.5t49 -161.5q0 -85 -33 -154.5t-97 -111.5t-153 -46q-16 -117 -27 -171q-2 -17 -31 -17t-27 17zM139 92.5
q35 -43.5 108 -50.5q31 226 73 434q-70 -5 -119 -40.5t-73 -92.5t-24 -125q0 -82 35 -125.5zM462.5 119.5q55.5 72.5 55.5 180.5q0 82 -36 125.5t-110 50.5q-25 -193 -72 -435q107 6 162.5 78.5z" />
    <glyph glyph-name="uni0445" unicode="&#x445;" 
d="M456.5 -2q-4.5 4 -9.5 18q-49 109 -136 219h-10q-122 -114 -198 -219q-10 -13 -16 -17.5t-15 -4.5q-13 0 -24.5 6.5t-11.5 15.5q0 4 4.5 11.5t13.5 17.5q40 53 100.5 116.5t119.5 114.5q-36 46 -70.5 100.5t-57.5 100.5q-9 19 -9 26q0 8 13 14.5t24 6.5q9 0 14 -4.5
t9 -16.5q47 -104 114 -199h12q92 93 172 199q9 13 15 17t14 4q13 0 25 -7t12 -17q0 -6 -19 -28q-38 -48 -90 -104t-102 -101q44 -52 84 -113.5t64 -113.5q8 -18 8 -26t-12 -14t-24 -6q-9 0 -13.5 4z" />
    <glyph glyph-name="uni0446" unicode="&#x446;" 
d="M89 157q0 124 65 350q5 17 31 17q31 0 27 -19q-30 -110 -47 -194.5t-17 -146.5q0 -61 16.5 -88.5t51.5 -27.5q50 0 114.5 53.5t125.5 155.5q16 121 37 250q3 17 32 17q30 0 27 -17q-35 -214 -52 -309t-29 -145q23 2 50 2q14 0 20 -4.5t6 -15.5q0 -6 -1 -10l-27 -164
q-3 -17 -33 -17q-29 0 -26 17q16 88 26 139h-45q-15 0 -21 4t-5 13q20 108 27 143h-8q-58 -87 -118 -129.5t-111 -42.5q-116 0 -116 169z" />
    <glyph glyph-name="uni0447" unicode="&#x447;" 
d="M398 8q19 117 54 290h-6q-61 -61 -123 -90.5t-116 -29.5q-116 0 -116 139q0 65 33 190q5 17 31 17q31 0 27 -19q-32 -123 -32 -181q0 -46 16.5 -66t51.5 -20q51 0 115 32t127 94q5 37 21 143q3 17 33 17q29 0 26 -17l-83 -499q-2 -13 -31 -13q-30 0 -28 13z" />
    <glyph glyph-name="uni0448" unicode="&#x448;" 
d="M592 507l-54 -326q-15 -90 -25 -170q-3 -17 -30 -17q-24 0 -24 13q0 5 18 95h-7q-62 -114 -138 -114q-33 0 -50 26t-20 79h-7q-30 -53 -65 -79t-71 -26t-55 26.5t-19 79.5q0 55 22.5 182t47.5 231q5 17 31 17q28 0 25 -17q-21 -86 -44 -211t-23 -182q0 -41 8 -57.5
t25 -16.5q26 0 60 31.5t71 94.5q10 72 29 174t33 167q2 9 8.5 13t19.5 4q28 0 23 -17q-20 -86 -42 -212.5t-22 -180.5q0 -41 8 -57.5t25 -16.5q26 0 60 33.5t73 100.5l53 333q3 17 31 17t25 -17z" />
    <glyph glyph-name="uni0449" unicode="&#x449;" 
d="M49 14.5q-19 26.5 -19 79.5q0 55 22.5 182t47.5 231q5 17 31 17q28 0 25 -17q-21 -86 -44 -211t-23 -182q0 -41 8 -57.5t25 -16.5q26 0 60 31.5t71 94.5q10 72 29 174t33 167q2 9 8.5 13t19.5 4q28 0 23 -17q-20 -86 -42 -212.5t-22 -180.5q0 -41 8 -57.5t25 -16.5
q26 0 60 33.5t73 100.5l53 333q3 17 31 17t25 -17q-58 -357 -80 -454q12 2 28 2q14 0 20 -4.5t6 -15.5q0 -6 -1 -10l-27 -164q-3 -17 -33 -17q-29 0 -26 17q16 88 26 139h-19q-26 0 -26 14q0 7 17 88h-7q-62 -114 -138 -114q-33 0 -50 26t-20 79h-7q-30 -53 -65 -79t-71 -26
t-55 26.5z" />
    <glyph glyph-name="uni044A" unicode="&#x44a;" 
d="M214 25.5q-39 31.5 -39 87.5q0 73 55 356q-72 -4 -137 -4q-12 0 -12 16q0 18 6 27t15 9h165q14 0 19.5 -6t3.5 -21q-9 -53 -29 -147q54 16 101 16q86 0 132.5 -41.5t46.5 -119.5q0 -96 -58.5 -150t-154.5 -54q-75 0 -114 31.5zM255.5 63q22.5 -19 70.5 -19
q72 0 114.5 40.5t42.5 115.5q0 54 -32.5 81.5t-93.5 27.5q-48 0 -105 -18q-8 -53 -13.5 -98t-5.5 -72q0 -39 22.5 -58z" />
    <glyph glyph-name="uni044B" unicode="&#x44b;" 
d="M101 24q-38 30 -38 83q0 40 14 127l45 272q3 17 32 17q15 0 21 -4t5 -13q-5 -37 -30 -163q51 16 95 16q76 0 117.5 -41.5t41.5 -119.5q0 -96 -53 -150t-140 -54q-72 0 -110 30zM142 61.5q21 -17.5 67 -17.5q63 0 100 40.5t37 115.5q0 54 -27 81.5t-79 27.5q-45 0 -99 -18
q-11 -70 -15.5 -108.5t-4.5 -67.5q0 -36 21 -53.5zM522 506q3 17 32 17q15 0 21 -4t5 -13l-82 -496q-3 -17 -32 -17t-26 17z" />
    <glyph glyph-name="uni044C" unicode="&#x44c;" 
d="M145 30q-49 36 -49 101q0 40 14 127l41 248q3 17 32 17q15 0 21 -4t5 -13q-6 -42 -30 -167q67 20 141 20q99 0 153.5 -43t54.5 -124q0 -93 -65.5 -145.5t-175.5 -52.5q-93 0 -142 36zM186 67.5q32 -23.5 99 -23.5q85 0 135 38.5t50 111.5q0 57 -39.5 86t-115.5 29
q-67 0 -145 -21l-3 -25q-13 -88 -13 -124q0 -48 32 -71.5z" />
    <glyph glyph-name="uni044D" unicode="&#x44d;" 
d="M461 480.5q48 -48.5 48 -158.5q0 -83 -28.5 -159t-90.5 -125.5t-156 -49.5q-87 0 -153 39q-6 4 -8 7.5t-2 8.5q0 12 11 25t20 7q68 -35 134 -35q89 0 139 58t68 141q-127 -3 -242 -3q-12 0 -12 15q0 18 5.5 27.5t15.5 9.5q115 0 240 -3q2 28 2 38q0 83 -34.5 118.5
t-105.5 35.5q-68 0 -154 -40q-10 -4 -18.5 7t-8.5 25t17 22q35 17 80.5 27.5t87.5 10.5q97 0 145 -48.5z" />
    <glyph glyph-name="uni044E" unicode="&#x44e;" 
d="M32 10l83 498q3 17 31 17q29 0 27 -17q-23 -136 -39 -215h77q23 116 74.5 176t130.5 60q148 0 148 -183q0 -44 -9 -100q-21 -127 -73.5 -192.5t-135.5 -65.5q-73 0 -110.5 46t-37.5 137q0 28 5 70h-78q-8 -60 -17 -118t-12 -77l-6 -36q-3 -17 -32 -17t-26 17zM277.5 71.5
q23.5 -31.5 71.5 -31.5q59 0 95 53t55 164q9 53 9 93q0 64 -23.5 95.5t-70.5 31.5q-59 0 -95.5 -53.5t-55.5 -163.5q-9 -52 -9 -93q0 -64 23.5 -95.5z" />
    <glyph glyph-name="uni044F" unicode="&#x44f;" 
d="M414 10q10 70 33 182q-62 -5 -141 -5q-42 0 -63 1q-92 -91 -151 -169q-14 -18 -18 -22t-12 -4q-14 0 -28 8.5t-14 17.5q0 6 15 25q28 36 71.5 82.5t85.5 85.5q-79 50 -79 134q0 85 62.5 131.5t169.5 46.5q106 0 182 -21q15 -4 20.5 -10t3.5 -15l-78 -468q-3 -17 -33 -17
q-29 0 -26 17zM237 237q50 -2 75 -2q68 0 143 6q15 126 37 218q-56 14 -146 14q-81 0 -128 -31.5t-47 -93.5q0 -66 66 -111z" />
    <glyph glyph-name="uni0451" unicode="&#x451;" 
d="M134.5 33q-44.5 45 -44.5 143q0 96 35.5 176.5t99.5 128t144 47.5q51 0 91 -18t62 -49.5t22 -69.5q0 -46 -36 -76.5t-113.5 -57t-245.5 -72.5v-5q0 -76 30.5 -108t101.5 -32q93 0 196 73q9 6 20 -6.5t11 -23.5q0 -7 -4 -12.5t-15 -12.5q-106 -70 -214 -70
q-96 0 -140.5 45zM366.5 294.5q64.5 21.5 93.5 43t29 52.5q0 39 -33.5 64.5t-88.5 25.5q-60 0 -106 -33.5t-73.5 -90t-35.5 -125.5q150 42 214.5 63.5zM226 648.5q-11 7.5 -11 23.5q0 27 14.5 39.5t46.5 12.5q29 0 39 -9.5t7 -31.5q-4 -22 -17.5 -32t-42.5 -10
q-25 0 -36 7.5zM455.5 711.5q14.5 12.5 46.5 12.5q29 0 39 -9.5t7 -31.5q-4 -22 -17.5 -32t-42.5 -10q-25 0 -36 7.5t-11 23.5q0 27 14.5 39.5z" />
    <glyph glyph-name="uni045E" unicode="&#x45e;" 
d="M47.5 -190.5q-9.5 13.5 -9.5 27.5q0 6 4 10t16 11q105 61 210 144l-1 7q-8 0 -14 6.5t-12 20.5q-41 98 -79 221t-54 211q-5 28 -5 40q0 9 13 14t25 5t16 -7t7 -29q15 -96 52.5 -220t84.5 -234h8q181 171 181 338q0 35 -18 128q-2 12 6.5 18t26.5 6q12 0 18 -4.5t8 -15.5
q7 -28 10.5 -61.5t3.5 -59.5q-1 -152 -119.5 -298.5t-338.5 -282.5q-14 -9 -22 -9t-17.5 13.5zM260.5 632.5q-36.5 39.5 -41.5 113.5q-1 8 11.5 14.5t24.5 6.5t12 -7q2 -58 26.5 -88.5t77.5 -30.5t87 30.5t57 88.5q3 7 15 7q13 0 24.5 -6.5t8.5 -14.5q-30 -74 -79.5 -113.5
t-117.5 -39.5q-69 0 -105.5 39.5z" />
    <glyph glyph-name="uni0490" unicode="&#x490;" 
d="M94 10l72 435q17 104 26 138.5t20 51.5l1 10l-38 -2q-13 0 -13 18q0 12 5.5 24t16.5 12q241 0 365 -3q5 41 17 124q3 16 34 16t28 -16l-24 -146q-3 -17 -11 -23.5t-24 -6.5q-149 0 -312 3q-29 -192 -97 -608l-5 -27q-3 -17 -34 -17q-30 0 -27 17z" />
    <glyph glyph-name="Wgrave" unicode="&#x1e80;" 
d="M114.5 2q-8.5 7 -10.5 29q-16 146 -16 343q0 195 15 316q3 15 32 15q15 0 21.5 -4.5t5.5 -16.5q-19 -180 -19 -378q0 -133 9 -258h10q75 141 136 314q12 104 16 126q3 19 36 19t30 -19q-5 -33 -26 -126q5 -173 32 -314h10q62 154 114.5 318t87.5 318q3 12 11.5 16.5
t23.5 4.5q31 0 28 -15q-27 -129 -94.5 -328t-126.5 -331q-10 -22 -20.5 -29t-32.5 -7t-30 5.5t-10 22.5q-25 142 -25 281h-8q-47 -142 -117 -281q-8 -16 -19 -22t-33 -6t-30.5 7zM314 931q0 12 16.5 23t30.5 11q8 0 11 -4l139 -151q4 -4 5 -6.5t1 -5.5q0 -7 -8.5 -15.5
t-18.5 -12t-14 1.5l-154 146q-8 8 -8 13z" />
    <glyph glyph-name="wgrave" unicode="&#x1e81;" 
d="M114.5 1q-8.5 7 -10.5 29q-18 128 -18 288q0 95 5 155l4 36q2 15 30 15q15 0 21 -4.5t5 -15.5q-10 -104 -10 -222q0 -117 11 -235h10q68 105 123 238q7 63 12 91q3 22 35 22t29 -22q-6 -37 -20 -91q12 -130 45 -238h10q100 233 153 457q1 11 9 15.5t23 4.5q28 0 28 -14
q0 -6 -2.5 -15t-5.5 -22q-28 -105 -71.5 -225.5t-89.5 -217.5q-10 -22 -20.5 -29t-32.5 -7q-21 0 -28.5 5.5t-11.5 23.5q-28 96 -36 213h-8q-41 -104 -106 -213q-10 -17 -20 -23t-32 -6t-30.5 7zM264 751q0 12 15 23t28 11q7 0 10 -4l126 -151q4 -4 5 -6.5t1 -5.5
q0 -7 -7.5 -15.5t-17 -12t-13.5 1.5l-140 146q-7 8 -7 13z" />
    <glyph glyph-name="Wacute" unicode="&#x1e82;" 
d="M114.5 2q-8.5 7 -10.5 29q-16 146 -16 343q0 195 15 316q3 15 32 15q15 0 21.5 -4.5t5.5 -16.5q-19 -180 -19 -378q0 -133 9 -258h10q75 141 136 314q12 104 16 126q3 19 36 19t30 -19q-5 -33 -26 -126q5 -173 32 -314h10q62 154 114.5 318t87.5 318q3 12 11.5 16.5
t23.5 4.5q31 0 28 -15q-27 -129 -94.5 -328t-126.5 -331q-10 -22 -20.5 -29t-32.5 -7t-30 5.5t-10 22.5q-25 142 -25 281h-8q-47 -142 -117 -281q-8 -16 -19 -22t-33 -6t-30.5 7zM312 771.5q-9 4.5 -16.5 13t-7.5 14.5t13 16l188 146q4 4 11 4q14 0 29 -11.5t15 -22.5
q0 -8 -14 -18l-202 -141q-7 -5 -16 -0.5z" />
    <glyph glyph-name="wacute" unicode="&#x1e83;" 
d="M114.5 1q-8.5 7 -10.5 29q-18 128 -18 288q0 95 5 155l4 36q2 15 30 15q15 0 21 -4.5t5 -15.5q-10 -104 -10 -222q0 -117 11 -235h10q68 105 123 238q7 63 12 91q3 22 35 22t29 -22q-6 -37 -20 -91q12 -130 45 -238h10q100 233 153 457q1 11 9 15.5t23 4.5q28 0 28 -14
q0 -6 -2.5 -15t-5.5 -22q-28 -105 -71.5 -225.5t-89.5 -217.5q-10 -22 -20.5 -29t-32.5 -7q-21 0 -28.5 5.5t-11.5 23.5q-28 96 -36 213h-8q-41 -104 -106 -213q-10 -17 -20 -23t-32 -6t-30.5 7zM311 591.5q-9 4.5 -15.5 13t-6.5 14.5q0 5 12 16l171 146q4 4 11 4
q12 0 25.5 -11.5t13.5 -22.5q0 -8 -13 -18l-183 -141q-6 -5 -15 -0.5z" />
    <glyph glyph-name="Wdieresis" unicode="&#x1e84;" 
d="M114.5 2q-8.5 7 -10.5 29q-16 146 -16 343q0 195 15 316q3 15 32 15q15 0 21.5 -4.5t5.5 -16.5q-19 -180 -19 -378q0 -133 9 -258h10q75 141 136 314q12 104 16 126q3 19 36 19t30 -19q-5 -33 -26 -126q5 -173 32 -314h10q62 154 114.5 318t87.5 318q3 12 11.5 16.5
t23.5 4.5q31 0 28 -15q-27 -129 -94.5 -328t-126.5 -331q-10 -22 -20.5 -29t-32.5 -7t-30 5.5t-10 22.5q-25 142 -25 281h-8q-47 -142 -117 -281q-8 -16 -19 -22t-33 -6t-30.5 7zM236 803q-12 7 -12 23q0 28 15.5 40.5t51.5 12.5q27 0 39 -7.5t12 -23.5q0 -6 -1 -10
q-4 -22 -19 -32t-47 -10q-27 0 -39 7zM492 869q15 10 47 10q31 0 42.5 -9.5t8.5 -31.5q-5 -22 -19.5 -32t-46.5 -10q-27 0 -39.5 7.5t-12.5 23.5q0 7 1 11q4 21 19 31z" />
    <glyph glyph-name="wdieresis" unicode="&#x1e85;" 
d="M114.5 1q-8.5 7 -10.5 29q-18 128 -18 288q0 95 5 155l4 36q2 15 30 15q15 0 21 -4.5t5 -15.5q-10 -104 -10 -222q0 -117 11 -235h10q68 105 123 238q7 63 12 91q3 22 35 22t29 -22q-6 -37 -20 -91q12 -130 45 -238h10q100 233 153 457q1 11 9 15.5t23 4.5q28 0 28 -14
q0 -6 -2.5 -15t-5.5 -22q-28 -105 -71.5 -225.5t-89.5 -217.5q-10 -22 -20.5 -29t-32.5 -7q-21 0 -28.5 5.5t-11.5 23.5q-28 96 -36 213h-8q-41 -104 -106 -213q-10 -17 -20 -23t-32 -6t-30.5 7zM225 648.5q-11 7.5 -11 23.5q0 27 14.5 39.5t46.5 12.5q29 0 39 -9.5t7 -31.5
q-4 -22 -17.5 -32t-42.5 -10q-25 0 -36 7.5zM454.5 711.5q14.5 12.5 46.5 12.5q29 0 39 -9.5t7 -31.5q-4 -22 -17.5 -32t-42.5 -10q-25 0 -36 7.5t-11 23.5q0 27 14.5 39.5z" />
    <glyph glyph-name="ygrave" unicode="&#x1ef3;" 
d="M47.5 -190.5q-9.5 13.5 -9.5 27.5q0 6 4 10t16 11q105 61 210 144l-1 7q-8 0 -14 6.5t-12 20.5q-41 98 -79 221t-54 211q-5 28 -5 40q0 9 13 14t25 5t16 -7t7 -29q15 -96 52.5 -220t84.5 -234h8q181 171 181 338q0 35 -18 128q-2 12 6.5 18t26.5 6q12 0 18 -4.5t8 -15.5
q7 -28 10.5 -61.5t3.5 -59.5q-1 -152 -119.5 -298.5t-338.5 -282.5q-14 -9 -22 -9t-17.5 13.5zM264 751q0 12 15 23t28 11q7 0 10 -4l126 -151q4 -4 5 -6.5t1 -5.5q0 -7 -7.5 -15.5t-17 -12t-13.5 1.5l-140 146q-7 8 -7 13z" />
    <glyph glyph-name="endash" unicode="&#x2013;" 
d="M69 320q0 12 5.5 23.5t15.5 11.5h472q13 0 13 -17q0 -12 -5.5 -23.5t-15.5 -11.5h-472q-13 0 -13 17z" />
    <glyph glyph-name="glyph31" 
d="M119.5 0q-34.5 12 -58.5 38q-15 17 -15 27q0 9 7.5 18t17 13t14.5 -1q24 -28 50.5 -40t67.5 -12q74 0 118 36t70 129q19 71 39 199.5t32 237.5q-127 -3 -225 -3q-13 0 -13 18q0 12 5.5 24.5t16.5 12.5h254q16 0 22 -6.5t4 -22.5q-39 -332 -80 -479q-30 -107 -90 -154
t-154 -47q-48 0 -82.5 12zM312 771.5q-9 4.5 -16.5 13t-7.5 14.5t13 16l188 146q4 4 11 4q14 0 29 -11.5t15 -22.5q0 -8 -14 -18l-202 -141q-7 -5 -16 -0.5z" />
    <glyph glyph-name="Scedilla.locl" 
d="M88 18q-14 6 -19.5 11t-5.5 13q0 15 11 28t20 9q38 -20 77.5 -29t87.5 -9q91 0 145.5 39.5t54.5 109.5q0 49 -31.5 76t-107.5 49q-57 16 -94.5 35.5t-60.5 57t-23 97.5q0 93 63 149.5t178 56.5q56 0 104.5 -13.5t61.5 -29.5q9 -10 9 -54q0 -27 -4 -55q-2 -11 -10 -16
t-25 -5q-12 0 -17 4t-4 12q4 45 2 78q-51 24 -121 24q-92 0 -135.5 -42t-43.5 -106q0 -41 17.5 -67t47.5 -41t78 -28q91 -26 132.5 -67t41.5 -114q0 -61 -32 -107.5t-90.5 -72t-136.5 -25.5q-93 0 -170 32zM142.5 -215.5q-8.5 8.5 -8.5 18.5q0 6 5 11l108 100q19 18 32 18
q16 0 28.5 -14.5t12.5 -27.5q0 -5 -4.5 -10t-18.5 -15l-113 -80q-13 -9 -24 -9q-9 0 -17.5 8.5z" />
    <glyph glyph-name="i.locl" 
d="M249.5 18.5q-26.5 30.5 -26.5 90.5q0 54 18.5 157t44.5 202q-93 -3 -170 -3q-13 0 -13 17q0 12 5.5 23.5t15.5 11.5h200q15 0 20 -6t3 -21q-28 -118 -45.5 -217t-17.5 -150q0 -41 12.5 -60t40.5 -19q38 0 78 22.5t78 60.5q5 3 8 3q9 0 18 -10.5t9 -19.5q0 -6 -2 -10
t-8 -10q-42 -42 -92 -67t-99 -25q-51 0 -77.5 30.5zM303 671q-14 9 -14 30q0 8 1 13q5 27 22.5 39t52.5 12q32 0 46 -9t14 -29q0 -8 -1 -13q-4 -28 -22 -40t-54 -12q-31 0 -45 9z" />
    <glyph glyph-name="glyph107" 
d="M29 -173q0 21 14 22q84 10 137.5 30.5t85.5 58.5t50 101q24 89 45.5 209.5t31.5 219.5q-130 -3 -243 -3q-12 0 -12 16q0 18 6 27t15 9h269q14 0 19 -4.5t5 -15.5q-1 -50 -27 -209.5t-54 -266.5q-20 -75 -60 -120.5t-103.5 -69.5t-160.5 -34q-18 -1 -18 30z" />
    <glyph glyph-name="glyph108" 
d="M29 -173q0 21 14 22q84 10 137.5 30.5t85.5 58.5t50 101q24 89 45.5 209.5t31.5 219.5q-130 -3 -243 -3q-12 0 -12 16q0 18 6 27t15 9h269q14 0 19 -4.5t5 -15.5q-1 -50 -27 -209.5t-54 -266.5q-20 -75 -60 -120.5t-103.5 -69.5t-160.5 -34q-18 -1 -18 30zM349 591.5
q-9 4.5 -15.5 13t-6.5 14.5q0 5 12 16l171 146q4 4 11 4q12 0 25.5 -11.5t13.5 -22.5q0 -8 -13 -18l-183 -141q-6 -5 -15 -0.5z" />
    <glyph glyph-name="scedilla.locl" 
d="M180 -2q-49 10 -88 28q-10 6 -10 16q0 14 9 27t20 9q77 -38 174 -38q72 0 114.5 24t42.5 74q0 38 -29 59.5t-103 36.5q-55 11 -89 22.5t-58.5 38.5t-24.5 73q0 78 59 120t156 42q99 0 168 -35q11 -6 11 -16q0 -14 -9 -26.5t-20 -8.5q-76 34 -153 34q-72 0 -114 -26
t-42 -76q0 -29 16.5 -45.5t43.5 -25t77 -18.5q89 -18 128.5 -50t39.5 -91q0 -78 -59.5 -118t-157.5 -40q-53 0 -102 10zM143.5 -215.5q-8.5 8.5 -8.5 18.5q0 6 5 11l108 100q19 18 32 18q16 0 28.5 -14.5t12.5 -27.5q0 -5 -4.5 -10t-18.5 -15l-113 -80q-13 -9 -24 -9
q-9 0 -17.5 8.5z" />
    <glyph glyph-name="glyph239" 
d="M265 457q-20 13 -20 42q0 7 2 21q7 40 32 58t76 18q44 0 64 -13.5t20 -42.5q0 -6 -2 -20q-7 -40 -32 -58t-76 -18q-44 0 -64 13zM201 74q-20 13 -20 42q0 7 2 21q7 40 32 58t76 18q44 0 64 -13.5t20 -42.5q0 -6 -2 -20q-7 -40 -32 -58t-76 -18q-44 0 -64 13z" />
    <glyph glyph-name="glyph240" 
d="M847 457q-20 13 -20 42q0 7 2 21q7 40 32 58t76 18q44 0 64 -13.5t20 -42.5q0 -6 -2 -20q-7 -40 -32 -58t-76 -18q-44 0 -64 13zM783 74q-20 13 -20 42q0 7 2 21q7 40 32 58t76 18q44 0 64 -13.5t20 -42.5q0 -6 -2 -20q-7 -40 -32 -58t-76 -18q-44 0 -64 13zM327 457
q-20 13 -20 42q0 7 2 21q7 40 32 58t76 18q44 0 64 -13.5t20 -42.5q0 -6 -2 -20q-7 -40 -32 -58t-76 -18q-44 0 -64 13zM263 74q-20 13 -20 42q0 7 2 21q7 40 32 58t76 18q44 0 64 -13.5t20 -42.5q0 -6 -2 -20q-7 -40 -32 -58t-76 -18q-44 0 -64 13z" />
    <glyph glyph-name="glyph243" 
d="M532.5 356.5q2.5 -5.5 2.5 -16.5q0 -14 -5.5 -29t-16.5 -15h-340q-70 0 -104 5.5t-49 17.5h-20l3 20h20q19 12 55 17.5t106 5.5h340q6 0 8.5 -5.5z" />
    <glyph glyph-name="glyph244" 
d="M110.5 301.5q-2.5 5.5 -2.5 16.5q0 14 5.5 29t16.5 15h340q70 0 104 -5.5t49 -17.5h20l-3 -20h-20q-19 -12 -55 -17.5t-106 -5.5h-340q-6 0 -8.5 5.5z" />
    <glyph glyph-name="glyph245" 
d="M69 301.5q-34 5.5 -49 17.5h-20l3 20h20q19 12 55 17.5t106 5.5h286q70 0 104 -5.5t49 -17.5h20l-3 -20h-20q-19 -12 -55 -17.5t-106 -5.5h-286q-70 0 -104 5.5z" />
    <glyph glyph-name="glyph247" 
d="M415 85q-91 -97 -203 -97q-88 0 -137 45.5t-49 127.5q0 68 39 123.5t107 93.5q-12 57 -12 106q0 105 57 164t155 59q55 0 98 -13.5t55 -32.5q7 -11 7 -63q0 -51 -6 -81q-1 -9 -10.5 -14.5t-22.5 -5.5q-24 0 -24 16q4 48 4 116q-17 9 -43 15t-58 6q-85 0 -120.5 -44
t-35.5 -147q0 -21 2 -75q62 -74 151.5 -170.5t177.5 -180.5q4 -5 -1 -15.5t-14.5 -19.5t-18.5 -9q-5 0 -8 3q-55 52 -90 93zM114.5 75q32.5 -30 96.5 -30q95 0 171 74q-61 61 -109.5 118.5t-75.5 100.5q-115 -72 -115 -176q0 -57 32.5 -87z" />
    <glyph glyph-name="glyph249" 
d="M260.5 632.5q-36.5 39.5 -41.5 113.5q-1 8 11.5 14.5t24.5 6.5t12 -7q2 -58 26.5 -88.5t77.5 -30.5t87 30.5t57 88.5q3 7 15 7q13 0 24.5 -6.5t8.5 -14.5q-30 -74 -79.5 -113.5t-117.5 -39.5q-69 0 -105.5 39.5z" />
    <glyph glyph-name="glyph250" 
d="M225 648.5q-11 7.5 -11 23.5q0 27 14.5 39.5t46.5 12.5q29 0 39 -9.5t7 -31.5q-4 -22 -17.5 -32t-42.5 -10q-25 0 -36 7.5zM454.5 711.5q14.5 12.5 46.5 12.5q29 0 39 -9.5t7 -31.5q-4 -22 -17.5 -32t-42.5 -10q-25 0 -36 7.5t-11 23.5q0 27 14.5 39.5z" />
    <glyph glyph-name="glyph251" 
d="M288 751q0 12 15 23t28 11q7 0 10 -4l126 -151q4 -4 5 -6.5t1 -5.5q0 -7 -7.5 -15.5t-17 -12t-13.5 1.5l-140 146q-7 8 -7 13z" />
    <glyph glyph-name="glyph252" 
d="M287 591.5q-9 4.5 -15.5 13t-6.5 14.5q0 5 12 16l171 146q4 4 11 4q12 0 25.5 -11.5t13.5 -22.5q0 -8 -13 -18l-183 -141q-6 -5 -15 -0.5z" />
    <glyph glyph-name="glyph253" 
d="M538 608q0 -7 -10 -13.5t-19 -6.5q-6 0 -9 4l-109 141l-157 -141q-3 -3 -8 -3q-9 0 -18 8.5t-9 16.5q0 4 11 15l150 146q13 13 35 13t31 -13l105 -153q7 -10 7 -14z" />
    <glyph glyph-name="glyph254" 
d="M225 768q0 7 10 13.5t19 6.5q6 0 9 -4l109 -141l157 141q3 3 8 3q9 0 18 -8.5t9 -16.5q0 -4 -11 -15l-150 -146q-13 -13 -35 -13t-31 13l-105 153q-7 10 -7 14z" />
    <glyph glyph-name="glyph255" 
d="M262 632.5q-38 39.5 -43 109.5q-1 9 11.5 16.5t23.5 7.5q10 0 11 -6q5 -56 30.5 -85.5t75.5 -29.5q95 0 147 115q2 6 13 6q12 0 24 -7.5t9 -16.5q-31 -70 -81.5 -109.5t-116.5 -39.5t-104 39.5z" />
    <glyph glyph-name="glyph256" 
d="M296.5 625q-36.5 37 -36.5 90t36.5 89.5t89.5 36.5t90 -36.5t37 -89.5t-37 -90t-90 -37t-89.5 37zM324 653q25 -25 62 -25t62 25t25 62t-25 62t-62 25t-62 -25t-25 -62t25 -62z" />
    <glyph glyph-name="glyph257" 
d="M409.5 633.5q-21.5 18.5 -44.5 54.5q-17 27 -31.5 41t-34.5 14q-27 0 -49.5 -31.5t-37.5 -87.5q-1 -6 -8 -9t-16 -3q-11 0 -18.5 4.5t-6.5 11.5q17 76 53.5 121t85.5 45q35 0 56.5 -19t45.5 -55q19 -28 32.5 -41.5t32.5 -13.5q55 0 89 119q3 12 24 12q11 0 18.5 -4.5
t6.5 -11.5q-18 -76 -54.5 -120.5t-86.5 -44.5q-35 0 -56.5 18.5z" />
    <glyph glyph-name="glyph258" 
d="M208 681q0 11 5 23.5t14 12.5h318q12 0 12 -19q0 -11 -5.5 -23t-15.5 -12h-318q-10 0 -10 18z" />
    <glyph glyph-name="glyph259" 
d="M156.5 -215.5q-8.5 8.5 -8.5 18.5q0 6 5 11l108 100q19 18 32 18q16 0 28.5 -14.5t12.5 -27.5q0 -5 -4.5 -10t-18.5 -15l-113 -80q-13 -9 -24 -9q-9 0 -17.5 8.5z" />
    <glyph glyph-name="glyph260" 
d="M237 803q-12 7 -12 23q0 28 15.5 40.5t51.5 12.5q27 0 39 -7.5t12 -23.5q0 -6 -1 -10q-4 -22 -19 -32t-47 -10q-27 0 -39 7zM493 869q15 10 47 10q31 0 42.5 -9.5t8.5 -31.5q-5 -22 -19.5 -32t-46.5 -10q-27 0 -39.5 7.5t-12.5 23.5q0 7 1 11q4 21 19 31z" />
    <glyph glyph-name="glyph261" 
d="M349 827q0 27 16 39.5t51 12.5q27 0 39 -7.5t12 -22.5q0 -7 -1 -11q-4 -22 -19 -32t-47 -10q-51 0 -51 31z" />
    <glyph glyph-name="glyph262" 
d="M310 931q0 12 16.5 23t30.5 11q8 0 11 -4l139 -151q4 -4 5 -6.5t1 -5.5q0 -7 -8.5 -15.5t-18.5 -12t-14 1.5l-154 146q-8 8 -8 13z" />
    <glyph glyph-name="glyph263" 
d="M309 771.5q-9 4.5 -16.5 13t-7.5 14.5t13 16l188 146q4 4 11 4q14 0 29 -11.5t15 -22.5q0 -8 -14 -18l-202 -141q-7 -5 -16 -0.5z" />
    <glyph glyph-name="glyph264" 
d="M585 788q0 -7 -11 -13.5t-20 -6.5q-7 0 -10 4l-120 141l-173 -141q-3 -3 -9 -3q-9 0 -19 8.5t-10 16.5q0 5 12 15l165 146q13 13 38 13q24 0 34 -13l116 -153q7 -10 7 -14z" />
    <glyph glyph-name="glyph265" 
d="M240 948q0 7 11 13.5t20 6.5q7 0 10 -4l120 -141l173 141q3 3 9 3q9 0 19 -8.5t10 -16.5q0 -4 -12 -15l-165 -146q-13 -13 -38 -13q-24 0 -34 13l-116 153q-7 10 -7 14z" />
    <glyph glyph-name="glyph266" 
d="M279.5 812.5q-41.5 39.5 -47.5 109.5q-1 9 12.5 16.5t26.5 7.5q11 0 12 -6q11 -115 116 -115t162 115q2 6 14 6q14 0 27 -7.5t9 -16.5q-34 -70 -89.5 -109.5t-127.5 -39.5q-73 0 -114.5 39.5z" />
    <glyph glyph-name="glyph267" 
d="M347 785q-32 17 -50.5 46t-18.5 64t18.5 64t50.5 45.5t70 16.5t70 -16.5t50.5 -45.5t18.5 -64t-18.5 -64t-50.5 -46t-70 -17t-70 17zM348.5 833q27.5 -25 68.5 -25q40 0 67.5 25t27.5 62t-27.5 62t-67.5 25q-41 0 -68.5 -25t-27.5 -62t27.5 -62z" />
    <glyph glyph-name="glyph268" 
d="M440.5 802q-23.5 19 -48.5 54q-19 28 -34.5 41.5t-38.5 13.5q-30 0 -54.5 -31.5t-41.5 -87.5q-1 -6 -8.5 -9t-17.5 -3q-12 0 -20.5 4.5t-7.5 11.5q19 76 59 121t94 45q39 0 62.5 -19t49.5 -55q20 -28 35.5 -41.5t36.5 -13.5q61 0 98 119q3 12 26 12q12 0 20.5 -4.5
t7.5 -11.5q-20 -76 -60.5 -120.5t-94.5 -44.5q-39 0 -62.5 19z" />
    <glyph glyph-name="glyph269" 
d="M217 836q0 12 5.5 24t15.5 12h350q6 0 9.5 -5.5t3.5 -13.5q0 -11 -6 -23t-17 -12h-350q-11 0 -11 18z" />
    <glyph glyph-name="glyph270" 
d="M332 671q-14 9 -14 30q0 8 1 13q5 27 22.5 39t52.5 12q32 0 46 -9t14 -29q0 -8 -1 -13q-4 -28 -22 -40t-54 -12q-31 0 -45 9z" />
    <glyph glyph-name="glyph271" 
 />
  </font>
</defs>
</svg>
