<?xml version="1.0" standalone="no"?>
<!DOCTYPE svg PUBLIC "-//W3C//DTD SVG 1.1//EN" "http://www.w3.org/Graphics/SVG/1.1/DTD/svg11.dtd" >
<svg xmlns="http://www.w3.org/2000/svg" xmlns:xlink="http://www.w3.org/1999/xlink" version="1.1">
<metadata>
Created by FontForge 20190801 at Wed Mar 24 01:32:08 2021
 By Unknown
</metadata>
<defs>
<font id="CodeliaLigaturesBlack" horiz-adv-x="620" >
  <font-face 
    font-family="Codelia Ligatures Black"
    font-weight="900"
    font-style="italic"
    font-stretch="normal"
    units-per-em="1000"
    panose-1="0 0 0 0 0 0 0 0 0 0"
    ascent="800"
    descent="-200"
    x-height="542"
    cap-height="697"
    bbox="-43.4091 -225 1066 1017"
    underline-thickness="50"
    underline-position="-175"
    slope="-9.46199"
    unicode-range="U+0020-2013"
  />
<missing-glyph 
 />
    <glyph glyph-name=".notdef" 
 />
    <glyph glyph-name=".null" horiz-adv-x="0" 
 />
    <glyph glyph-name="nonmarkingreturn" 
 />
    <glyph glyph-name="space" unicode=" " 
 />
    <glyph glyph-name="exclam" unicode="!" 
d="M169.5 6.5q-27.5 16.5 -27.5 53.5q0 17 2 27q9 53 42 75t110 22q66 0 93.5 -16t27.5 -53q0 -13 -3 -28q-8 -53 -41 -75t-110 -22q-66 0 -93.5 16.5zM264 692q4 24 31.5 34t91.5 10q66 0 89.5 -10t19.5 -34l-93 -357q-6 -24 -25 -34t-65 -10q-44 0 -60 10t-14 34z" />
    <glyph glyph-name="dollar" unicode="$" 
d="M190 -84q0 6 3.5 24.5t13.5 46.5q-76 8 -133 33q-20 9 -27.5 18.5t-7.5 25.5q0 26 10.5 55.5t26 49t30.5 19.5q2 0 8 -2q50 -25 107 -34q3 60 22 129q-65 25 -101.5 69t-36.5 127q0 100 59 161t163 72q-1 35 4 58q3 24 66 24q30 0 44 -5.5t14 -16.5q0 -18 -16 -62
q54 -6 98 -22q22 -8 31.5 -18.5t9.5 -25.5q0 -19 -10.5 -48.5t-26.5 -51.5t-32 -22q-6 0 -9 2q-37 19 -73 28q-6 -67 -27 -135q74 -31 109.5 -76.5t35.5 -116.5q0 -97 -60 -158t-166 -75q0 -29 -5 -69q-4 -25 -67 -25q-57 0 -57 21zM292 460q14 -11 44 -22q5 61 19 117
q-77 -6 -77 -63q0 -21 14 -32zM349 162q22 13 22 37q0 19 -13.5 32.5t-47.5 26.5q-4 -53 -20 -111q37 2 59 15z" />
    <glyph glyph-name="ampersand" unicode="&#x26;" 
d="M400 58q-82 -70 -179 -70q-98 0 -153 49t-55 137q0 65 36.5 119t101.5 90q-13 55 -13 101q0 104 65 163.5t173 59.5q65 0 116 -18t66 -43q10 -16 10 -74q0 -41 -5 -78q-3 -16 -30.5 -27t-65.5 -11q-37 0 -51 7t-14 24q0 40 4 80q-16 6 -38 6q-41 0 -58.5 -31t-17.5 -102
v-44q58 -53 121 -133q6 25 15 48.5t11 28.5q9 19 50 19q37 0 70 -15t33 -38q0 -8 -4 -15q-15 -32 -32.5 -60.5t-46.5 -60.5q34 -23 61 -47q5 -4 5 -14q0 -19 -19.5 -47t-46 -49t-46.5 -21q-11 0 -19 8q-24 24 -44 58zM253 141q32 0 56 14q-31 26 -58 61.5t-42 66.5
q-38 -32 -38 -74q0 -68 82 -68z" />
    <glyph glyph-name="comma" unicode="," 
d="M128 -201q-34 0 -62.5 24t-28.5 53q0 24 27 47q56 48 121 88q-30 63 -30 123q0 61 37.5 84.5t112.5 23.5q66 0 94 -16t28 -48q0 -63 -73.5 -167t-177.5 -195q-20 -17 -48 -17z" />
    <glyph glyph-name="hyphen" unicode="-" 
d="M85 276q0 45 14.5 97.5t42.5 52.5h389q24 0 24 -44q0 -45 -14.5 -97.5t-42.5 -52.5h-389q-24 0 -24 44z" />
    <glyph glyph-name="period" unicode="." 
d="M164 10q-29 20 -29 66q0 20 4 40q8 46 25.5 73t51 40t89.5 13q70 0 99 -20t29 -66q0 -20 -4 -40q-8 -46 -25.5 -73t-51 -40t-89.5 -13q-70 0 -99 20z" />
    <glyph glyph-name="zero" unicode="0" 
d="M112.5 62q-58.5 74 -58.5 230q0 104 28.5 198.5t96 156.5t177.5 62q120 0 178.5 -74t58.5 -230q0 -104 -28.5 -198.5t-96 -156.5t-177.5 -62q-120 0 -178.5 74zM425 495q-10 29 -28.5 42t-48.5 13q-68 0 -101 -78.5t-34 -183.5q96 105 212 207zM249 161.5
q19 -14.5 50 -14.5q69 0 102 80.5t33 186.5v3q-95 -104 -213 -209q9 -32 28 -46.5z" />
    <glyph glyph-name="one" unicode="1" 
d="M62.5 7.5q-5.5 7.5 -5.5 26.5q0 17 5.5 52t17 63.5t29.5 28.5q64 0 127 -10q11 160 51 308h-20q-61 -42 -116 -59q-3 -1 -8 -1q-27 0 -44.5 43t-17.5 84q0 19 8.5 30t31.5 20q104 36 199 96q14 8 26.5 12t35.5 4q54 0 86.5 -13t29.5 -31q-52 -315 -92 -493q65 10 114 10
q11 0 16.5 -7.5t5.5 -26.5q0 -17 -5.5 -52t-17 -63.5t-29.5 -28.5h-411q-11 0 -16.5 7.5z" />
    <glyph glyph-name="two" unicode="2" 
d="M33.5 8.5q-5.5 8.5 -5.5 27.5q0 104 60 151q157 116 229.5 182.5t72.5 109.5q0 25 -16 37.5t-45 12.5q-57 0 -135 -39q-7 -3 -14 -3q-25 0 -43.5 37t-18.5 77q0 30 20 43q52 32 111 47.5t116 15.5q108 0 162 -52t54 -140q0 -97 -83 -182.5t-201 -144.5l-3 -20
q49 7 97 8.5t119 1.5q11 0 16.5 -7.5t5.5 -26.5q0 -17 -5.5 -52t-17 -63.5t-29.5 -28.5h-430q-11 0 -16.5 8.5z" />
    <glyph glyph-name="three" unicode="3" 
d="M160 -6q-50 9 -86 25q-20 9 -28 18.5t-8 23.5q0 26 10 58.5t25.5 55t30.5 22.5q8 0 35 -12q33 -15 61.5 -23.5t65.5 -8.5q96 0 96 57q0 41 -54 68q-62 -11 -109 -11q-30 0 -30 48q0 38 14 79t44 41q17 0 50.5 -4t58.5 -9q30 18 43 34t13 34q0 25 -17 37t-54 12
q-30 0 -61 -6t-52 -17q-8 -4 -17 -4q-25 0 -41.5 35.5t-16.5 69.5q0 42 32 54q38 16 89.5 26t99.5 10q106 0 162 -41t56 -116q0 -54 -29.5 -102.5t-83.5 -81.5l-3 -20q46 -23 66.5 -56t20.5 -79q0 -67 -35.5 -118.5t-99 -79.5t-144.5 -28q-54 0 -104 9z" />
    <glyph glyph-name="four" unicode="4" 
d="M302 -1.5q-19 6.5 -19 21.5q0 9 8 46.5t25 93.5q-59 -6 -116.5 -7.5t-143.5 -1.5q-16 0 -23.5 10.5t-7.5 31.5q0 44 12.5 91t31.5 72q51 67 129 155.5t138 148.5q27 28 54 37.5t77 9.5q55 0 79.5 -9t20.5 -32q-21 -123 -35.5 -200.5t-33.5 -155.5q39 8 64 8q11 0 16.5 -8
t5.5 -28q0 -37 -12 -84t-38 -47q-24 0 -60 8q-5 -83 -14 -133q-3 -18 -23.5 -26t-69.5 -8q-46 0 -65 6.5zM271 314q31 0 68 -5q4 43 14.5 102.5t22.5 104.5h-19q-95 -100 -158 -188l-3 -20q38 6 75 6z" />
    <glyph glyph-name="five" unicode="5" 
d="M157.5 -4.5q-51.5 10.5 -87.5 27.5q-19 10 -27 19t-8 23q0 17 13.5 50t32 59t33.5 26q8 0 35 -12q35 -14 63 -22.5t65 -8.5q39 0 62.5 14t23.5 43q0 26 -19.5 43.5t-64 30t-121.5 22.5q-29 4 -42 14t-13 30t12 54l82 239q17 50 50 50h320q22 0 22 -35q0 -41 -12.5 -86.5
t-37.5 -45.5q-98 0 -202 9q-13 -55 -34 -105q90 -12 143 -38t76 -67.5t23 -102.5t-27.5 -115.5t-90.5 -90t-163 -35.5q-55 0 -106.5 10.5z" />
    <glyph glyph-name="six" unicode="6" 
d="M110.5 45q-64.5 60 -64.5 199q0 123 38.5 228.5t127 172.5t230.5 67q61 0 107 -9q18 -4 26.5 -15.5t8.5 -33.5q0 -26 -9.5 -56.5t-26 -50t-35.5 -15.5q-41 9 -81 9q-81 0 -128 -37t-76 -115l12 -4q65 57 148 57q89 0 136 -47.5t47 -139.5q0 -76 -32 -137.5t-93 -97
t-146 -35.5q-125 0 -189.5 60zM248 174.5q19 -25.5 59 -25.5q35 0 56 26.5t21 63.5q0 35 -19 53t-55 18t-79 -20q-2 -30 -2 -36q0 -54 19 -79.5z" />
    <glyph glyph-name="seven" unicode="7" 
d="M147.5 -1.5q-20.5 6.5 -20.5 19.5q0 15 12 42q120 264 250 449l3 20q-58 -7 -114.5 -8.5t-141.5 -1.5q-11 0 -16.5 7.5t-5.5 26.5q0 20 5.5 54.5t17 62t29.5 27.5h430q11 0 16.5 -8t5.5 -28q0 -36 -11.5 -77t-35.5 -78q-129 -197 -243 -478q-9 -22 -29 -29t-69 -7
q-62 0 -82.5 6.5z" />
    <glyph glyph-name="eight" unicode="8" 
d="M90 30.5q-65 45.5 -65 128.5q0 55 32.5 99.5t91.5 68.5l4 20q-58 44 -58 136q0 107 75 168t201 61q117 0 177.5 -42t60.5 -120q0 -52 -31.5 -98t-96.5 -68l-3 -19q44 -25 66 -60.5t22 -89.5q0 -72 -36.5 -124t-101 -79t-147.5 -27q-126 0 -191 45.5zM231 157
q22 -17 70 -17q45 0 66.5 18t21.5 50q0 39 -25 76q-45 3 -93 9q-29 -19 -45.5 -43.5t-16.5 -45.5q0 -30 22 -47zM280 425q36 -6 82 -12q30 18 49 42t19 46q0 27 -19 42t-59 15q-42 0 -62.5 -19.5t-20.5 -50.5q0 -40 11 -63z" />
    <glyph glyph-name="nine" unicode="9" 
d="M152 -13q-32 0 -52.5 34t-20.5 77q0 46 40 57q146 42 232 96l-2 16q-29 -7 -73 -7q-96 0 -147.5 50.5t-51.5 147.5q0 72 32.5 129.5t93.5 91t143 33.5q118 0 187.5 -64t69.5 -188q0 -116 -56 -211t-154.5 -161t-227.5 -99q-10 -2 -13 -2zM377 382q23 0 35 1q6 36 6 59
q0 53 -20.5 79.5t-59.5 26.5q-35 0 -55 -25t-20 -58q0 -83 114 -83z" />
    <glyph glyph-name="colon" unicode=":" 
d="M218 325q-29 20 -29 66q0 20 4 40q8 46 25.5 73t51 40t89.5 13q70 0 99 -20t29 -66q0 -20 -4 -40q-8 -46 -25.5 -73t-51 -40t-89.5 -13q-70 0 -99 20zM164 5q-29 20 -29 66q0 20 4 40q8 46 25.5 73t51 40t89.5 13q70 0 99 -20t29 -66q0 -20 -4 -40q-8 -46 -25.5 -73
t-51 -40t-89.5 -13q-70 0 -99 20z" />
    <glyph glyph-name="semicolon" unicode=";" 
d="M128 -201q-34 0 -62.5 24t-28.5 53q0 24 27 47q56 48 121 88q-30 63 -30 123q0 61 37.5 84.5t112.5 23.5q66 0 94 -16t28 -48q0 -63 -73.5 -167t-177.5 -195q-20 -17 -48 -17zM218 325q-29 20 -29 66q0 20 4 40q8 46 25.5 73t51 40t89.5 13q70 0 99 -20t29 -66
q0 -20 -4 -40q-8 -46 -25.5 -73t-51 -40t-89.5 -13q-70 0 -99 20z" />
    <glyph glyph-name="question" unicode="?" 
d="M215 245q-23 0 -38 30.5t-15 67.5q0 14 7.5 25t21.5 15q110 31 151.5 49.5t41.5 37.5q0 35 -55.5 48t-160.5 21q-29 3 -29 73q0 20 6 48t20 49.5t37 21.5q74 0 158 -18.5t148 -69t64 -140.5q0 -91 -86 -153.5t-262 -103.5q-3 -1 -9 -1zM133 162q33 22 110 22
q67 0 94 -15.5t27 -52.5q0 -14 -3 -29q-8 -53 -40.5 -75t-110.5 -22q-66 0 -93.5 16.5t-27.5 53.5q0 17 2 27q9 53 42 75z" />
    <glyph glyph-name="A" unicode="A" 
d="M5.5 -1.5q-21.5 6.5 -21.5 20.5q0 7 3.5 19t9.5 32q85 281 232 587q14 27 45.5 38.5t108.5 11.5q53 0 81.5 -5.5t40.5 -16t14 -28.5q39 -268 39 -511q0 -51 -1 -76q-1 -30 -3 -47q-3 -16 -25 -23.5t-73 -7.5q-47 0 -65 6.5t-18 26.5q0 59 9 113q-46 -6 -91 -6
q-44 0 -89 6q-8 -44 -27 -109q-7 -23 -27.5 -30t-71.5 -7q-49 0 -70.5 6.5zM317 290q23 0 73 -4q-6 76 -10 174l-5 98h-22q-12 -28 -53 -132q-29 -75 -57 -140q50 4 74 4z" />
    <glyph glyph-name="B" unicode="B" 
d="M145.5 0.5q-59.5 8.5 -93.5 23.5q-16 7 -23 15t-7 22q0 4 2 18l40 238q14 83 29.5 127t38.5 71l3 20q-20 -4 -36 -4q-13 0 -18.5 6t-5.5 23q0 21 5 47q7 40 17 54.5t35 21.5q38 11 93 16.5t113 5.5q258 0 258 -169q0 -116 -106 -171l-4 -20q40 -15 61 -47.5t21 -80.5
q0 -75 -40 -125.5t-107.5 -75t-150.5 -24.5q-65 0 -124.5 8.5zM273 132q49 0 79 22.5t30 63.5q0 33 -21 50.5t-60 17.5q-27 0 -59 -5q-6 -72 -22 -140q18 -9 53 -9zM340 406q28 16 46 42t18 54q0 63 -77 63q-11 0 -37 -2q-7 -73 -28 -161q36 4 78 4z" />
    <glyph glyph-name="C" unicode="C" 
d="M119 54.5q-67 65.5 -67 213.5q0 110 37 210.5t115.5 165t196.5 64.5q75 0 129.5 -17.5t70.5 -44.5q12 -20 12 -99q0 -47 -4 -68q-4 -25 -34.5 -37t-76.5 -12q-38 0 -53.5 7.5t-15.5 25.5q0 19 4 69q-18 8 -54 8q-49 0 -79.5 -40.5t-44 -97t-13.5 -107.5q0 -70 23 -99.5
t70 -29.5q60 0 140 33q9 3 16 3q28 0 44.5 -35t16.5 -74q0 -21 -5.5 -34.5t-21.5 -21.5q-41 -21 -99 -34.5t-111 -13.5q-129 0 -196 65.5z" />
    <glyph glyph-name="D" unicode="D" 
d="M132 0.5q-51 8.5 -82 22.5q-16 8 -23 16t-7 22q0 4 2 18l36 218q14 82 30 126.5t38 71.5l4 20q-20 -4 -36 -4q-13 0 -18.5 6.5t-5.5 25.5q0 18 6 54q8 45 18.5 62t35.5 24q79 22 186 22q142 0 214.5 -75t72.5 -223q0 -109 -37 -203t-118.5 -153t-209.5 -59
q-55 0 -106 8.5zM259 170q88 0 122.5 71t34.5 152q0 68 -28.5 101t-88.5 33q-15 0 -22 -1q-17 -185 -58 -351q14 -5 40 -5z" />
    <glyph glyph-name="E" unicode="E" 
d="M64 14.5q-12 14.5 -8 38.5l43 261q14 83 29.5 127t38.5 71l3 20q-24 -4 -36 -4q-11 0 -16 9t-5 29q0 39 12.5 85t36.5 46h434q11 0 16 -9t5 -29q0 -39 -12.5 -85t-36.5 -46q-113 0 -248 10q-1 -53 -18 -109q124 7 212 7q11 0 16 -8.5t5 -27.5q0 -37 -12 -80t-36 -43
q-87 0 -209 7q-3 -63 -21 -125q140 10 257 10q11 0 16 -9t5 -29q0 -39 -12.5 -85t-36.5 -46h-386q-24 0 -36 14.5z" />
    <glyph glyph-name="F" unicode="F" 
d="M77 0q-19 8 -16 26l48 288q14 83 29.5 127t38.5 71l3 20q-24 -4 -36 -4q-22 0 -22 38q0 39 13 85t37 46h434q22 0 22 -40q0 -41 -13 -89.5t-39 -48.5q-113 0 -247 10q-4 -70 -25 -149q124 7 211 7q22 0 22 -38t-13 -84t-37 -46q-87 0 -211 7q-5 -73 -27 -200
q-3 -18 -24.5 -26t-74.5 -8q-54 0 -73 8z" />
    <glyph glyph-name="G" unicode="G" 
d="M110.5 55.5q-68.5 66.5 -68.5 215.5q0 109 37.5 209t116 164t196.5 64q77 0 130 -16.5t73 -40.5q8 -10 12.5 -31.5t4.5 -47.5q0 -19 -4 -47q-4 -25 -39 -36t-87 -11q-35 0 -46.5 6t-11.5 22q0 17 3 33q-19 11 -57 11q-39 0 -70.5 -34.5t-49.5 -94t-18 -130.5
q0 -80 24 -112t72 -32q22 0 40 5q2 51 17 94q-35 -5 -65 -5q-11 0 -15.5 8t-4.5 26q0 34 11.5 74.5t33.5 40.5h195q24 0 35.5 -14t7.5 -38l-38 -231q-5 -32 -20.5 -52.5t-45.5 -32.5q-84 -33 -174 -33q-126 0 -194.5 66.5z" />
    <glyph glyph-name="H" unicode="H" 
d="M28.5 0q-19.5 8 -16.5 26l108 645q3 18 24.5 26t74.5 8t72 -8t17 -26q-18 -105 -49 -231q34 5 80 5t78 -5q10 118 29 231q2 18 23.5 26t75.5 8q53 0 72.5 -8t16.5 -26l-108 -645q-3 -18 -24.5 -26t-74.5 -8q-54 0 -73 8t-16 26q20 120 52 250q-45 -5 -80 -5t-78 5
q-11 -126 -32 -250q-3 -18 -24.5 -26t-74.5 -8t-72.5 8z" />
    <glyph glyph-name="I" unicode="I" 
d="M58 40q0 41 13 89.5t39 48.5q43 0 96 -10q20 168 60 361q-57 -10 -100 -10q-22 0 -22 40q0 41 13 89.5t39 48.5h371q22 0 22 -40q0 -41 -13 -89.5t-39 -48.5q-43 0 -94 10q-23 -180 -60 -361q54 10 98 10q22 0 22 -40q0 -41 -13 -89.5t-39 -48.5h-371q-22 0 -22 40z" />
    <glyph glyph-name="J" unicode="J" 
d="M93 4q-47 16 -74 43q-17 16 -17 34q0 19 14.5 49t36 52.5t41.5 22.5q11 0 19 -7q40 -32 91 -32q43 0 71.5 21t41.5 69q13 47 26.5 125.5t21.5 146.5q-90 -9 -178 -9q-22 0 -22 40q0 41 13 89.5t39 48.5h303q24 0 36 -14.5t10 -38.5q-40 -346 -82 -462q-70 -194 -285 -194
q-59 0 -106 16z" />
    <glyph glyph-name="K" unicode="K" 
d="M380.5 -1.5q-7.5 6.5 -11.5 25.5q-25 126 -87 244q-27 -4 -52 -5q-14 -151 -30 -237q-3 -18 -24.5 -26t-74.5 -8t-72 8t-16 26l108 645q3 18 24 26t74 8t72 -8t17 -26q-25 -132 -48 -230q32 2 46 4q75 114 130 227q9 18 19.5 25.5t28.5 7.5q31 0 65.5 -9t58 -23.5
t23.5 -30.5q0 -15 -18 -47q-28 -52 -81.5 -124t-103.5 -123q42 -59 77 -127.5t49 -120.5q5 -22 5 -36q0 -20 -26.5 -36.5t-63 -26t-63.5 -9.5q-18 0 -25.5 6.5z" />
    <glyph glyph-name="L" unicode="L" 
d="M51 14.5q-11 14.5 -7 38.5l103 618q3 18 24.5 26t74.5 8t72 -8t17 -26q-6 -30 -8 -49q-5 -27 -30 -171.5t-56 -282.5q84 8 133 10q12 48 18 65q7 20 17 26.5t34 6.5q48 0 85 -14t37 -40t-28 -99.5t-50 -100.5q-19 -22 -43 -22h-358q-24 0 -35 14.5z" />
    <glyph glyph-name="M" unicode="M" 
d="M5.5 1.5q-17.5 9.5 -14.5 27.5q26 152 61 331t65 297q7 27 36.5 38.5t91.5 11.5q54 0 74.5 -11.5t19.5 -38.5q-5 -123 -24 -284h20q16 71 33.5 146t36.5 138q8 27 33.5 38.5t80.5 11.5q63 0 88.5 -11.5t23.5 -38.5q-10 -122 -34 -303.5t-48 -324.5q-3 -18 -23.5 -27.5
t-66.5 -9.5q-45 0 -62.5 8t-14.5 26q47 211 96 501h-20q-39 -124 -75 -268q-5 -20 -24 -29.5t-57 -9.5t-54 9.5t-15 29.5q7 76 13 229l2 39h-20q-45 -268 -72 -501q-3 -18 -22.5 -26t-64.5 -8q-46 0 -63.5 9.5z" />
    <glyph glyph-name="N" unicode="N" 
d="M19 0q-19 8 -16 26l106 636q4 24 32.5 33.5t95.5 9.5q42 0 62.5 -4.5t29 -15.5t11.5 -35q48 -292 51 -451h20q1 99 15.5 245.5t28.5 226.5q4 34 99 34q54 0 73 -8t16 -26l-106 -636q-4 -24 -32.5 -33.5t-95.5 -9.5q-42 0 -62 4.5t-28.5 15.5t-12.5 35q-47 294 -51 451
h-20q-2 -99 -16.5 -245t-27.5 -227q-3 -18 -24.5 -26t-74.5 -8q-54 0 -73 8z" />
    <glyph glyph-name="O" unicode="O" 
d="M100.5 62q-62.5 74 -62.5 230q0 104 30 198.5t101 156.5t188 62q127 0 189.5 -74t62.5 -230q0 -104 -30 -198.5t-101 -156.5t-188 -62q-127 0 -189.5 74zM243.5 186q20.5 -29 65.5 -29q58 0 86.5 76.5t28.5 177.5q0 71 -20.5 100t-65.5 29q-58 0 -86.5 -76.5
t-28.5 -177.5q0 -71 20.5 -100z" />
    <glyph glyph-name="P" unicode="P" 
d="M38.5 0q-19.5 8 -16.5 26l45 271q14 82 30 126.5t38 71.5l4 20q-20 -4 -36 -4q-13 0 -18.5 6.5t-5.5 25.5q0 18 6 54q8 45 18.5 62t35.5 24q38 11 94.5 16.5t115.5 5.5q258 0 258 -235q0 -78 -30.5 -145.5t-98.5 -110t-173 -42.5q-37 0 -76 7q-9 -101 -19 -153
q-3 -18 -24.5 -26t-74.5 -8t-72.5 8zM311 330q108 0 108 131q0 46 -19 65.5t-63 19.5q-22 0 -44 -5q-3 -40 -13.5 -100.5t-20.5 -104.5q23 -6 52 -6z" />
    <glyph glyph-name="Q" unicode="Q" 
d="M106.5 66.5q-68.5 73.5 -68.5 225.5q0 104 30 198.5t101 156.5t188 62q127 0 189.5 -74t62.5 -230q0 -82 -29 -172.5t-92 -172.5q50 -36 84 -57q14 -8 18.5 -15.5t4.5 -16.5q0 -20 -19.5 -49.5t-46 -51.5t-46.5 -22q-11 0 -18.5 3.5t-19.5 13.5q-27 24 -50.5 59.5
t-39.5 73.5q-35 -5 -64 -5q-116 0 -184.5 73.5zM249.5 182q26.5 -30 77.5 -30q19 0 35 3q28 58 45 131t17 125q0 71 -19 100t-62 29q-61 0 -90.5 -76.5t-29.5 -177.5q0 -74 26.5 -104z" />
    <glyph glyph-name="R" unicode="R" 
d="M43 0q-19 8 -16 26l49 291q14 83 29.5 127t38.5 71l3 20q-20 -4 -36 -4q-13 0 -18.5 6t-5.5 23q0 21 5 47q7 40 17 54.5t35 21.5q78 22 205 22q126 0 190.5 -58.5t64.5 -168.5q0 -68 -34.5 -131t-105.5 -107q57 -68 88 -137q11 -25 11 -40q0 -18 -26.5 -34.5t-63 -26.5
t-61.5 -10q-21 0 -29.5 9t-17.5 37q-21 71 -57 142q-35 0 -73 6q-7 -86 -20 -160q-3 -18 -24.5 -26t-74.5 -8q-54 0 -73 8zM325 345q24 0 36 1q56 58 56 125q0 75 -82 75q-19 0 -37 -3q-4 -41 -13.5 -98.5t-19.5 -95.5q27 -4 60 -4z" />
    <glyph glyph-name="S" unicode="S" 
d="M158.5 -6q-48.5 9 -84.5 26q-20 9 -27.5 18.5t-7.5 25.5q0 26 10.5 55.5t26 49t30.5 19.5q2 0 8 -2q37 -18 79.5 -28.5t84.5 -10.5q38 0 60.5 13t22.5 39q0 18 -16.5 31t-60.5 27q-56 18 -94 39.5t-62.5 62.5t-24.5 108q0 116 73 180.5t198 64.5q60 0 115.5 -13t68.5 -29
q7 -9 11 -32.5t4 -50.5q0 -25 -3 -42q-4 -25 -34.5 -36t-78.5 -11q-35 0 -46.5 6t-11.5 22q0 18 1 26q-15 4 -37 4q-36 0 -55.5 -16t-19.5 -48q0 -24 15.5 -36.5t48.5 -22.5q99 -32 146 -81t47 -130q0 -110 -76.5 -173.5t-209.5 -63.5q-52 0 -100.5 9z" />
    <glyph glyph-name="T" unicode="T" 
d="M191.5 0q-19.5 8 -16.5 26q6 30 8 49q5 27 30 171.5t56 282.5q-92 -10 -160 -10q-22 0 -22 40q0 41 13 89.5t39 48.5h484q22 0 22 -40q0 -41 -13 -89.5t-39 -48.5q-58 0 -156 10q-21 -193 -74 -503q-3 -18 -24.5 -26t-74.5 -8t-72.5 8z" />
    <glyph glyph-name="U" unicode="U" 
d="M106.5 43.5q-56.5 55.5 -56.5 161.5q0 134 75 466q5 18 25.5 26t73.5 8q49 0 68.5 -7t19.5 -25l-2 -12q-23 -90 -50 -231.5t-28 -196.5q0 -66 56 -66q29 0 50 18.5t32 60.5q18 63 38 183t32 232q2 25 23 34.5t77 9.5q53 0 71 -8t18 -26q-14 -135 -37.5 -282t-52.5 -229
t-95.5 -127t-170.5 -45q-110 0 -166.5 55.5z" />
    <glyph glyph-name="V" unicode="V" 
d="M159 3.5q-28 11.5 -32 38.5q-40 248 -40 478q0 67 3 139q1 20 9.5 30t29.5 14t61 4q48 0 65 -7t16 -30q-9 -108 -9 -236q0 -160 14 -273h22q48 108 94.5 247.5t76.5 261.5q7 22 28 29.5t73 7.5q49 0 70.5 -6.5t21.5 -20.5q0 -10 -12 -51q-82 -284 -233 -587
q-13 -27 -44.5 -38.5t-108.5 -11.5t-105 11.5z" />
    <glyph glyph-name="W" unicode="W" 
d="M73.5 -2q-15.5 6 -20.5 21.5t-5 50.5q0 114 16.5 314t31.5 286q3 18 25 27.5t70 9.5t66 -8.5t15 -26.5q-62 -292 -94 -504h20q36 80 64 169q4 93 14 156q6 40 78 40q36 0 51.5 -10t12.5 -30q-7 -45 -38 -156l-1 -35q0 -68 9 -134h20q44 253 74 504q3 18 24 26.5t69 8.5
t66 -9.5t15 -27.5q-17 -98 -67 -299t-87 -309q-10 -31 -20.5 -45t-27.5 -19.5t-50 -5.5q-36 0 -53 5t-23.5 17t-8.5 38q-2 46 -2 72q0 72 7 161h-20q-31 -127 -71 -233q-11 -26 -21.5 -38t-30 -17t-57.5 -5q-35 0 -50.5 6z" />
    <glyph glyph-name="X" unicode="X" 
d="M73 -4q-33 10 -55 26t-22 34q0 16 17 46q39 68 91.5 144.5t99.5 131.5q-26 54 -52 118.5t-40 110.5q-5 23 -5 32q0 22 24 38.5t58 25t61 8.5q16 0 23.5 -8.5t11.5 -33.5q19 -101 47 -186h21q52 93 94 186q12 25 23 33.5t26 8.5q31 0 64 -9.5t54.5 -26t21.5 -34.5
q0 -13 -18 -46q-31 -52 -80.5 -123t-90.5 -121q31 -58 58.5 -130.5t42.5 -130.5q5 -23 5 -32q0 -22 -25 -38.5t-60.5 -25t-62.5 -8.5q-14 0 -21 9t-11 34q-18 113 -55 220h-20q-69 -115 -115 -221q-12 -25 -22 -33.5t-24 -8.5q-31 0 -64 10z" />
    <glyph glyph-name="Y" unicode="Y" 
d="M175 26q21 120 46 228q-45 85 -76 179t-46 187q-2 13 -2 22q0 15 22 30t54.5 25t62.5 10q23 0 33 -10.5t11 -32.5q6 -126 35 -243h20q65 112 115 243q8 22 22.5 32.5t38.5 10.5q52 0 94 -16.5t42 -39.5q0 -13 -10 -31q-102 -205 -245 -367q-14 -143 -29 -227
q-6 -34 -99 -34q-95 0 -89 34z" />
    <glyph glyph-name="Z" unicode="Z" 
d="M10 43q0 14 3 35q7 48 21.5 79t45.5 67q135 158 279 284l4 21q-130 -10 -225 -10q-22 0 -22 40q0 41 13 89.5t39 48.5h418q29 0 29 -43q0 -18 -4 -38q-7 -46 -21 -76.5t-45 -66.5q-126 -150 -281 -285l-3 -20q144 10 266 10q22 0 22 -40q0 -41 -13 -89.5t-39 -48.5h-458
q-29 0 -29 43z" />
    <glyph glyph-name="a" unicode="a" 
d="M408.5 -5q-10.5 9 -16.5 36q-6 29 -9 72h-17q-51 -61 -97.5 -88t-97.5 -27q-141 0 -141 197q0 111 37 194.5t109 129t176 45.5q60 0 114.5 -15.5t93.5 -43.5q31 -22 25 -58q-13 -78 -25.5 -137.5t-31.5 -119.5q22 -48 31 -71q14 -34 14 -52t-21 -34.5t-52 -26.5t-58 -10
q-23 0 -33.5 9zM229.5 179q8.5 -16 26.5 -16q21 0 48.5 20t59.5 60q14 55 28 145q-28 11 -60 11q-52 0 -81.5 -50t-29.5 -120q0 -34 8.5 -50z" />
    <glyph glyph-name="b" unicode="b" 
d="M147 3.5q-54 15.5 -93 43.5q-31 22 -25 58l62 374q14 80 27 180l6 41q3 19 24 26.5t74 7.5t71 -7.5t15 -26.5q-25 -157 -45 -245h20q42 53 80 76t82 23q139 0 139 -197q0 -111 -37 -194.5t-109 -129t-176 -45.5q-61 0 -115 15.5zM282 143q52 0 81.5 50t29.5 120
q0 34 -8.5 50t-26.5 16q-23 0 -54 -27t-66 -82q-5 -52 -20 -115q29 -12 64 -12z" />
    <glyph glyph-name="c" unicode="c" 
d="M108 41q-59 53 -59 172q0 88 34 165.5t107 126.5t184 49q63 0 113.5 -13.5t70.5 -35.5q13 -15 19.5 -56t6.5 -90q0 -26 -31 -40t-82 -14q-35 0 -52.5 8.5t-17.5 26.5q0 15 2 43q-15 6 -41 6q-65 0 -96.5 -45t-31.5 -106q0 -39 17 -57t50 -18q69 0 145 59q9 8 22 8
q20 0 40 -21t33 -49.5t13 -47.5q0 -11 -6 -20t-21 -20q-55 -39 -119.5 -61.5t-132.5 -22.5q-108 0 -167 53z" />
    <glyph glyph-name="d" unicode="d" 
d="M30 185q0 111 34.5 194.5t102.5 129t165 45.5q52 0 95 -12q15 110 23 158q3 18 24 26t74 8q52 0 70.5 -8t15.5 -26l-6 -32q-21 -99 -37 -198l-47 -289l21 -82q8 -32 8 -52q0 -15 -21.5 -29t-53 -23t-56.5 -9q-23 0 -34 9.5t-14 35.5q-3 35 -5 84h-20q-53 -68 -99.5 -97.5
t-98.5 -29.5q-141 0 -141 197zM229.5 179q8.5 -16 26.5 -16q23 0 54 27t66 82q6 55 20 115q-28 12 -64 12q-52 0 -81.5 -50t-29.5 -120q0 -34 8.5 -50z" />
    <glyph glyph-name="e" unicode="e" 
d="M101 43q-58 55 -58 167q0 100 40 178t114 122t173 44q71 0 119.5 -21t71.5 -55.5t23 -75.5q0 -50 -36.5 -85.5t-114 -62t-207.5 -47.5q5 -35 23.5 -49.5t55.5 -14.5q39 0 78.5 12.5t89.5 39.5q3 2 9 2q13 0 28 -17.5t25 -42.5t10 -46q0 -14 -5 -23t-21 -18
q-49 -30 -109.5 -46t-126.5 -16q-124 0 -182 55zM370 344.5q36 16.5 37 36.5q0 16 -15.5 26.5t-43.5 10.5q-46 0 -75.5 -31t-41.5 -82q103 23 139 39.5z" />
    <glyph glyph-name="f" unicode="f" 
d="M36.5 -182q-15.5 22 -15.5 72q0 73 45 77q58 6 81 28.5t30 69.5q8 57 14 113q12 102 19 140q-67 -8 -127 -8q-12 0 -17 9t-5 30q0 40 13 87.5t38 47.5q49 0 102 -8q-3 91 25 147t102 84.5t211 30.5q21 1 30 -18.5t9 -59.5q0 -41 -11 -62t-28 -21q-75 0 -113 -9.5
t-52 -30.5t-15 -61q97 8 186 8q12 0 17 -9t5 -30q0 -40 -13 -87.5t-38 -47.5q-76 0 -157 8q1 -66 -4 -143t-15 -140q-12 -79 -43 -126.5t-86.5 -72.5t-147.5 -37q-24 -3 -39.5 19z" />
    <glyph glyph-name="g" unicode="g" 
d="M35 -171.5q-60 33.5 -60 100.5q0 36 22 68.5t78 77.5q-39 44 -39 140q0 159 84 249t237 90q61 0 115 -15.5t93 -43.5q25 -17 25 -49q0 -5 -2 -19q-29 -168 -81 -289q16 -45 21.5 -74.5t5.5 -57.5q0 -97 -78.5 -154t-237.5 -57q-123 0 -183 33.5zM159 -38q24 -11 70 -11
q62 0 91.5 23t29.5 64q0 20 -5 70q-79 -39 -176 -55q-34 -35 -34 -59q0 -21 24 -32zM233 202q57 3 127 24q22 71 38 162q-30 11 -61 11q-51 0 -80.5 -42.5t-29.5 -104.5q0 -27 6 -50z" />
    <glyph glyph-name="h" unicode="h" 
d="M354.5 -1q-19.5 7 -19.5 24q0 3 2 13q22 74 37 148t15 115q0 66 -40 66q-24 0 -53 -25t-56 -70q-14 -124 -34 -244q-3 -18 -24 -26t-74 -8q-52 0 -70.5 8t-15.5 26l74 444q12 75 29 202l4 28q3 18 24.5 26t73.5 8q50 0 69.5 -8t16.5 -26q-22 -135 -48 -244h20
q44 51 89 74.5t87 23.5q117 0 117 -179q0 -130 -60 -349q-6 -18 -26 -26t-71 -8q-47 0 -66.5 7z" />
    <glyph glyph-name="i" unicode="i" 
d="M189.5 24.5q-37.5 36.5 -37.5 107.5q0 41 10.5 103t27.5 120q-56 -6 -97 -6q-12 0 -17 9t-5 30q0 40 13 87.5t38 47.5h233q23 0 33 -7.5t10 -25.5l-2 -16q-48 -192 -48 -266q0 -26 5 -35.5t17 -9.5q34 0 91 42q8 5 14 5q16 0 32 -17.5t26.5 -42.5t10.5 -45q0 -15 -7 -25
t-24 -23q-43 -32 -99.5 -50.5t-115.5 -18.5q-71 0 -108.5 36.5zM249.5 622.5q-25.5 15.5 -25.5 50.5q0 17 2 26q8 50 39 71t102 21q61 0 86.5 -15.5t25.5 -49.5q0 -12 -3 -27q-8 -50 -38.5 -71t-101.5 -21q-61 0 -86.5 15.5z" />
    <glyph glyph-name="j" unicode="j" 
d="M27.5 -175.5q-12.5 28.5 -12.5 74.5q0 39 9.5 56t33.5 20q71 9 112 24t64.5 43t37.5 77q29 101 44 236q-106 -7 -198 -7q-23 0 -23 39q0 16 5 49q9 49 20 68t27 19h327q24 0 33.5 -8t9.5 -27q0 -41 -22.5 -184t-50.5 -243q-34 -125 -127.5 -185.5t-246.5 -76.5
q-30 -3 -42.5 25.5zM322.5 622.5q-25.5 15.5 -25.5 50.5q0 17 2 26q8 50 39 71t102 21q61 0 86.5 -15.5t25.5 -49.5q0 -12 -3 -27q-8 -50 -38.5 -71t-101.5 -21q-61 0 -86.5 15.5z" />
    <glyph glyph-name="k" unicode="k" 
d="M254 124q-8 10 -8 24q0 21 14 47.5t34 44.5t37 18q10 0 17 -6l8 -6q47 51 47 103q0 18 -6.5 29t-17.5 11q-33 0 -74 -45.5t-80 -120.5q-14 -132 -25 -197q-3 -18 -24 -26t-74 -8q-52 0 -70.5 8t-15.5 26l74 444q12 75 29 202l4 28q3 18 24.5 26t73.5 8q50 0 69.5 -8
t16.5 -26q-25 -159 -54 -280h18q87 134 189 134q52 0 82 -43t30 -109q0 -136 -137 -215q55 -39 111 -70q13 -7 13 -31t-13 -55.5t-33.5 -53.5t-39.5 -22q-8 0 -15 4q-129 77 -204 165z" />
    <glyph glyph-name="l" unicode="l" 
d="M202 19.5q-36 31.5 -36 94.5q0 72 22.5 206.5t47.5 236.5q-74 -6 -128 -6q-23 0 -23 38q0 39 12.5 87.5t39.5 48.5h263q23 0 32.5 -7.5t9.5 -24.5q0 -5 -2 -17q-34 -147 -57 -285.5t-23 -197.5q0 -18 4 -24t15 -6q34 0 91 42q8 5 14 5q16 0 32 -17.5t26.5 -42.5t10.5 -45
q0 -15 -7 -25t-24 -23q-43 -32 -99.5 -50.5t-115.5 -18.5q-69 0 -105 31.5z" />
    <glyph glyph-name="m" unicode="m" 
d="M23.5 0.5q-17.5 8.5 -14.5 25.5l46 280q16 96 23 154.5t8 65.5q2 12 21 18t59 6q73 0 73 -21q0 -16 -13 -53h20q56 78 110 78q28 0 39.5 -18.5t10.5 -67.5h20q55 86 112 86q32 0 47.5 -23t15.5 -71q0 -58 -25.5 -202t-48.5 -232q-4 -18 -23 -26t-59 -8q-41 0 -58.5 8.5
t-13.5 25.5q19 75 39.5 179.5t20.5 148.5q0 25 -12 25q-19 0 -38 -34q-29 -192 -61 -319q-4 -18 -18.5 -26t-44.5 -8q-60 0 -53 34q20 82 39 183.5t19 144.5q0 25 -12 25q-21 0 -46 -47q-16 -153 -42 -306q-3 -17 -23 -25.5t-60 -8.5t-57.5 8.5z" />
    <glyph glyph-name="n" unicode="n" 
d="M354.5 -1q-19.5 7 -19.5 24q0 3 2 13q22 74 37 148t15 115q0 66 -40 66q-24 0 -53 -25t-56 -70q-14 -124 -34 -244q-3 -18 -24 -26t-74 -8q-52 0 -70.5 8t-15.5 26l43 261q21 123 29 202l4 27q3 18 24.5 26t73.5 8q49 0 68 -6.5t19 -21.5q0 -16 -14 -66h16q44 51 89 74.5
t87 23.5q117 0 117 -179q0 -130 -60 -349q-6 -18 -26 -26t-71 -8q-47 0 -66.5 7z" />
    <glyph glyph-name="o" unicode="o" 
d="M104 50q-63 62 -63 184q0 93 34.5 165.5t99.5 113.5t155 41q123 0 186 -62t63 -185q0 -93 -34.5 -165t-100 -113t-154.5 -41q-123 0 -186 62zM241 164q18 -21 57 -21q52 0 75.5 48t23.5 118q0 48 -18.5 69t-57.5 21q-51 0 -74.5 -48t-23.5 -118q0 -48 18 -69z" />
    <glyph glyph-name="p" unicode="p" 
d="M187 0q-10 -92 -24 -167q-3 -18 -24 -26t-74 -8q-52 0 -70.5 8t-15.5 26l7 36q17 85 36 194l38 227q12 72 31 208l3 22q3 18 24 26t74 8q48 0 67 -7t19 -22q-1 -11 -6.5 -35.5t-8.5 -34.5h20q42 53 79.5 76t80.5 23q141 0 141 -197q0 -111 -34.5 -194.5t-102.5 -129
t-165 -45.5q-51 0 -95 12zM282 143q52 0 81.5 50t29.5 120q0 34 -8.5 50t-26.5 16q-23 0 -54 -27t-67 -83q-4 -51 -19 -114q29 -12 64 -12z" />
    <glyph glyph-name="q" unicode="q" 
d="M326 -193.5q-18 7.5 -15 26.5q17 109 45 238h-20q-41 -44 -79 -63.5t-81 -19.5q-141 0 -141 197q0 111 37 194.5t109 129t176 45.5q61 0 115 -15.5t93 -43.5q31 -22 25 -58l-62 -374q-12 -75 -29 -202l-4 -28q-3 -19 -24 -26.5t-74 -7.5t-71 7.5zM234.5 179
q8.5 -16 26.5 -16q23 0 54 27t67 83q7 62 19 114q-28 12 -64 12q-52 0 -81.5 -50t-29.5 -120q0 -34 8.5 -50z" />
    <glyph glyph-name="r" unicode="r" 
d="M62.5 0q-18.5 8 -15.5 26l55 331q-18 88 -18 143q0 22 36.5 38t80.5 16q27 0 41 -5.5t15 -18.5q3 -27 6 -86h12q86 110 216 110q30 0 56 -7.5t36 -20.5q9 -12 14 -43.5t5 -71.5q0 -42 -6 -81q-8 -50 -111 -50q-38 0 -53 5.5t-16 18.5q-2 22 3 71h-6q-90 0 -151 -105
q-10 -115 -31 -244q-3 -18 -23.5 -26t-73.5 -8t-71.5 8z" />
    <glyph glyph-name="s" unicode="s" 
d="M85 18q-13 6 -18 13.5t-5 22.5q0 20 9 48.5t23.5 47.5t30.5 13q80 -31 154 -31q35 0 50.5 7t15.5 21q0 12 -11.5 18.5t-43.5 14.5q-65 16 -103.5 32.5t-62 49.5t-23.5 89q0 94 67 142.5t177 48.5q103 0 176 -29q13 -6 17.5 -13.5t4.5 -23.5q0 -20 -8 -46t-22 -44.5
t-29 -18.5q-7 0 -10 2q-70 32 -136 32q-30 0 -43 -6.5t-13 -20.5t12 -20.5t41 -13.5q100 -23 146 -62t46 -113q0 -94 -69 -142t-185 -48t-188 30z" />
    <glyph glyph-name="t" unicode="t" 
d="M179.5 28.5q-43.5 40.5 -43.5 121.5q0 39 9 98.5t26 126.5q-52 -7 -98 -7q-12 0 -17 9t-5 30q0 40 13 87.5t38 47.5q47 0 98 -7q2 49 20 126q6 18 26 26t72 8q48 0 67 -7t19 -25l-2 -12q-17 -76 -31 -117q81 8 190 8q12 0 17 -9t5 -30q0 -40 -13 -87.5t-38 -47.5
q-112 0 -191 9q-2 -25 -4 -44t-3 -34q-5 -53 -5 -81q0 -32 8.5 -43.5t29.5 -11.5q39 0 103 42q8 5 14 5q16 0 32 -17.5t26.5 -42.5t10.5 -45q0 -15 -7 -25t-24 -23q-43 -32 -99.5 -50.5t-115.5 -18.5q-84 0 -127.5 40.5z" />
    <glyph glyph-name="u" unicode="u" 
d="M265.5 543q19.5 -7 19.5 -24q0 -3 -2 -13q-22 -74 -37 -148t-15 -115q0 -66 40 -66q24 0 53 25t56 70q14 124 34 244q3 18 24 26t74 8q52 0 70.5 -8t15.5 -26l-43 -261q-21 -122 -29 -202l-4 -27q-3 -18 -24.5 -26t-73.5 -8q-49 0 -68 6.5t-19 21.5q0 16 14 66h-16
q-44 -51 -89 -74.5t-87 -23.5q-117 0 -117 179q0 130 60 349q6 18 26 26t71 8q47 0 66.5 -7z" />
    <glyph glyph-name="v" unicode="v" 
d="M163 3.5q-24 9.5 -27 30.5q-45 267 -45 474q0 22 22.5 31.5t71.5 9.5q50 0 68 -8t17 -28q-2 -102 -2 -153q0 -127 5 -208h19q57 57 89 121.5t32 133.5q0 40 -16 92q-7 24 30.5 40.5t93.5 16.5q29 0 41.5 -8t17.5 -28q10 -43 10 -89q0 -198 -200 -398q-21 -21 -49 -30
t-87 -9q-67 0 -91 9.5z" />
    <glyph glyph-name="w" unicode="w" 
d="M72.5 1q-15.5 7 -20 24.5t-4.5 60.5q0 75 7.5 180t17.5 198q7 56 6 50q3 18 23.5 27.5t66.5 9.5q45 0 62 -8.5t14 -26.5q-46 -194 -70 -352h20q33 51 54 105q5 89 12 126q3 20 21 30t53 10t50 -10t12 -30q-10 -54 -30 -126q3 -54 18 -105h20q31 166 50 352
q3 18 23.5 26.5t65.5 8.5q78 0 78 -31q0 -14 -11 -56q-21 -100 -51 -213t-56 -187q-11 -31 -21.5 -45t-27.5 -19.5t-50 -5.5q-36 0 -53.5 5t-24 17t-10.5 38q-8 58 -8 113l1 30h-20q-21 -72 -55 -143q-12 -26 -23.5 -38t-30.5 -17t-56 -5t-52.5 7z" />
    <glyph glyph-name="x" unicode="x" 
d="M351 15q-18 91 -44 164h-20q-42 -74 -83 -164q-12 -26 -36 -26q-33 0 -70.5 8t-63 21t-25.5 27q0 12 14 36q28 48 73 108.5t87 105.5q-24 40 -48 88t-36 81q-5 15 -5 26q0 21 28.5 35.5t66 22.5t61.5 8q14 0 21 -6t10 -21q17 -75 37 -136h19q38 68 68 136q7 15 16 21
t23 6q53 0 104.5 -17.5t51.5 -39.5q0 -13 -15 -36q-23 -37 -64.5 -93.5t-77.5 -98.5q28 -45 53 -98t38 -93q4 -13 4 -23q0 -22 -28.5 -37.5t-66 -23t-64.5 -7.5q-25 0 -28 26z" />
    <glyph glyph-name="y" unicode="y" 
d="M58 -183.5q-19 20.5 -31 50.5t-12 58q0 18 10 27.5t38 20.5q81 32 153 74l-4 17q-6 -1 -15 -1q-16 0 -27 10.5t-22 41.5q-24 65 -48.5 168t-31.5 173q-3 27 -3 45q0 22 47 38.5t97 16.5q24 0 32.5 -8t9.5 -29q12 -178 61 -375h20q81 113 81 233q0 42 -16 122
q-5 24 32 40.5t92 16.5q29 0 42.5 -8t16.5 -28q10 -46 10 -109q0 -175 -104.5 -325t-314.5 -263q-51 -27 -75 -27q-19 0 -38 20.5z" />
    <glyph glyph-name="z" unicode="z" 
d="M286.5 -27q-81.5 23 -136.5 58l-39 -36q-8 -8 -22 -8q-24 0 -47 23.5t-23 50.5q0 16 11.5 31t43.5 45l248 229v12h-209q-12 0 -17 9t-5 30q0 37 12.5 81t36.5 44h400q16 0 23 -10t7 -33q0 -37 -8 -61.5t-23.5 -44t-46.5 -47.5l-213 -197l-1 -12q80 -15 151 -18l5 64
q2 29 59 29q33 0 56.5 -9.5t21.5 -31.5q-2 -26 -14 -75.5t-24 -81.5q-14 -36 -34.5 -50t-65.5 -14q-65 0 -146.5 23z" />
    <glyph glyph-name="uni00A0" unicode="&#xa0;" 
 />
    <glyph glyph-name="Agrave" unicode="&#xc0;" 
d="M5.5 -1.5q-21.5 6.5 -21.5 20.5q0 7 3.5 19t9.5 32q85 281 232 587q14 27 45.5 38.5t108.5 11.5q53 0 81.5 -5.5t40.5 -16t14 -28.5q39 -268 39 -511q0 -51 -1 -76q-1 -30 -3 -47q-3 -16 -25 -23.5t-73 -7.5q-47 0 -65 6.5t-18 26.5q0 59 9 113q-46 -6 -91 -6
q-44 0 -89 6q-8 -44 -27 -109q-7 -23 -27.5 -30t-71.5 -7q-49 0 -70.5 6.5zM317 290q23 0 73 -4q-6 76 -10 174l-5 98h-22q-12 -28 -53 -132q-29 -75 -57 -140q50 4 74 4zM271 869.5q-4 5.5 -4 13.5q0 14 19 38t45 42t47 18q13 0 21 -8l153 -147q14 -14 14 -21
q0 -13 -12.5 -29t-30.5 -27t-33 -11q-10 0 -15 4l-187 114q-13 8 -17 13.5z" />
    <glyph glyph-name="Aacute" unicode="&#xc1;" 
d="M5.5 -1.5q-21.5 6.5 -21.5 20.5q0 7 3.5 19t9.5 32q85 281 232 587q14 27 45.5 38.5t108.5 11.5q53 0 81.5 -5.5t40.5 -16t14 -28.5q39 -268 39 -511q0 -51 -1 -76q-1 -30 -3 -47q-3 -16 -25 -23.5t-73 -7.5q-47 0 -65 6.5t-18 26.5q0 59 9 113q-46 -6 -91 -6
q-44 0 -89 6q-8 -44 -27 -109q-7 -23 -27.5 -30t-71.5 -7q-49 0 -70.5 6.5zM317 290q23 0 73 -4q-6 76 -10 174l-5 98h-22q-12 -28 -53 -132q-29 -75 -57 -140q50 4 74 4zM322 739q-16 0 -32 12t-26 28.5t-10 29.5q0 7 4.5 12.5t18.5 16.5l181 135q8 7 21 7q20 0 44.5 -17
t41.5 -42t17 -45q0 -10 -6 -16.5t-24 -15.5l-214 -102q-7 -3 -16 -3z" />
    <glyph glyph-name="Acircumflex" unicode="&#xc2;" 
d="M5.5 -1.5q-21.5 6.5 -21.5 20.5q0 7 3.5 19t9.5 32q85 281 232 587q14 27 45.5 38.5t108.5 11.5q53 0 81.5 -5.5t40.5 -16t14 -28.5q39 -268 39 -511q0 -51 -1 -76q-1 -30 -3 -47q-3 -16 -25 -23.5t-73 -7.5q-47 0 -65 6.5t-18 26.5q0 59 9 113q-46 -6 -91 -6
q-44 0 -89 6q-8 -44 -27 -109q-7 -23 -27.5 -30t-71.5 -7q-49 0 -70.5 6.5zM317 290q23 0 73 -4q-6 76 -10 174l-5 98h-22q-12 -28 -53 -132q-29 -75 -57 -140q50 4 74 4zM619 796q0 -11 -14.5 -25t-36 -23.5t-38.5 -9.5q-12 0 -22 8l-98 93l-131 -93q-10 -7 -24 -7
q-17 0 -35.5 10t-31 25t-12.5 28q0 4 4 9t11 11l138 120q14 13 40 20t54 7q29 0 52.5 -7t33.5 -20l102 -131q8 -9 8 -15z" />
    <glyph glyph-name="Atilde" unicode="&#xc3;" 
d="M5.5 -1.5q-21.5 6.5 -21.5 20.5q0 7 3.5 19t9.5 32q85 281 232 587q14 27 45.5 38.5t108.5 11.5q53 0 81.5 -5.5t40.5 -16t14 -28.5q39 -268 39 -511q0 -51 -1 -76q-1 -30 -3 -47q-3 -16 -25 -23.5t-73 -7.5q-47 0 -65 6.5t-18 26.5q0 59 9 113q-46 -6 -91 -6
q-44 0 -89 6q-8 -44 -27 -109q-7 -23 -27.5 -30t-71.5 -7q-49 0 -70.5 6.5zM317 290q23 0 73 -4q-6 76 -10 174l-5 98h-22q-12 -28 -53 -132q-29 -75 -57 -140q50 4 74 4zM428 765q-28 17 -57 46q-14 14 -22.5 21t-17.5 7q-11 0 -21.5 -16.5t-24.5 -54.5q-4 -12 -22.5 -18.5
t-42.5 -6.5q-31 0 -54 9.5t-19 24.5q50 198 188 198q45 0 74 -17t56 -46q14 -14 22.5 -21t17.5 -7q12 0 22.5 16.5t23.5 55.5q5 12 23.5 18t42.5 6q31 0 54 -9t19 -25q-50 -198 -189 -198q-45 0 -73 17z" />
    <glyph glyph-name="Adieresis" unicode="&#xc4;" 
d="M5.5 -1.5q-21.5 6.5 -21.5 20.5q0 7 3.5 19t9.5 32q85 281 232 587q14 27 45.5 38.5t108.5 11.5q53 0 81.5 -5.5t40.5 -16t14 -28.5q39 -268 39 -511q0 -51 -1 -76q-1 -30 -3 -47q-3 -16 -25 -23.5t-73 -7.5q-47 0 -65 6.5t-18 26.5q0 59 9 113q-46 -6 -91 -6
q-44 0 -89 6q-8 -44 -27 -109q-7 -23 -27.5 -30t-71.5 -7q-49 0 -70.5 6.5zM317 290q23 0 73 -4q-6 76 -10 174l-5 98h-22q-12 -28 -53 -132q-29 -75 -57 -140q50 4 74 4zM183.5 773q-23.5 14 -23.5 45q0 11 3 26q8 46 36.5 65.5t95.5 19.5q56 0 80 -14t24 -46q0 -11 -3 -25
q-8 -46 -37.5 -65.5t-95.5 -19.5q-56 0 -79.5 14zM474.5 909.5q28.5 19.5 95.5 19.5q56 0 80 -14t24 -46q0 -11 -3 -25q-8 -46 -37.5 -65.5t-95.5 -19.5q-56 0 -79.5 14t-23.5 45q0 11 3 26q8 46 36.5 65.5z" />
    <glyph glyph-name="Aring" unicode="&#xc5;" 
d="M5.5 -1.5q-21.5 6.5 -21.5 20.5q0 7 3.5 19t9.5 32q85 281 232 587q14 27 45.5 38.5t108.5 11.5q53 0 81.5 -5.5t40.5 -16t14 -28.5q39 -268 39 -511q0 -51 -1 -76q-1 -30 -3 -47q-3 -16 -25 -23.5t-73 -7.5q-47 0 -65 6.5t-18 26.5q0 59 9 113q-46 -6 -91 -6
q-44 0 -89 6q-8 -44 -27 -109q-7 -23 -27.5 -30t-71.5 -7q-49 0 -70.5 6.5zM317 290q23 0 73 -4q-6 76 -10 174l-5 98h-22q-12 -28 -53 -132q-29 -75 -57 -140q50 4 74 4zM303 775q-46 39 -46 101t46 101.5t119 39.5q72 0 118.5 -39.5t46.5 -101.5q0 -61 -46.5 -100.5
t-118.5 -39.5q-73 0 -119 39zM371 837q19 -14 51 -14t50.5 14t18.5 39t-18.5 39t-50.5 14t-51 -14t-19 -39t19 -39z" />
    <glyph glyph-name="AE" unicode="&#xc6;" 
d="M0.5 -1.5q-16.5 6.5 -16.5 20.5q0 10 9 41q95 294 222 588q12 26 38 37.5t76 11.5h287q11 0 16 -8.5t5 -27.5q0 -37 -12 -80t-36 -43q-56 0 -122 7q-3 -61 -20 -116q60 7 96 7q11 0 16 -8.5t5 -27.5q0 -37 -12 -80t-36 -43q-35 0 -93 7q-3 -68 -22 -132q71 7 131 7
q11 0 16 -8.5t5 -27.5q0 -37 -12 -80t-36 -43h-222q-19 0 -27.5 6.5t-8.5 21.5q0 10 1 15q10 57 23 92q-25 -3 -51 -3t-50 3q-6 -41 -28 -116q-5 -16 -22.5 -21.5t-59.5 -5.5q-43 0 -59.5 6.5zM261 290q18 0 36 -3q8 94 34 251h-20q-59 -171 -91 -251q20 3 41 3z" />
    <glyph glyph-name="Ccedilla" unicode="&#xc7;" 
d="M89 478.5q37 100.5 115.5 165t196.5 64.5q75 0 129.5 -17.5t70.5 -44.5q12 -20 12 -99q0 -47 -4 -68q-4 -25 -34.5 -37t-76.5 -12q-38 0 -53.5 7.5t-15.5 25.5q0 19 4 69q-18 8 -54 8q-49 0 -79.5 -40.5t-44 -97t-13.5 -107.5q0 -70 23 -99.5t70 -29.5q60 0 140 33
q9 3 16 3q28 0 44.5 -35t16.5 -74q0 -21 -5.5 -34.5t-21.5 -21.5q-37 -19 -88 -32t-100 -15l-1 -5l-50 -159q-5 -16 -23.5 -23.5t-43.5 -7.5q-34 0 -62 11.5t-28 28.5q0 10 16 37l76 127q-83 21 -126 86t-43 183q0 110 37 210.5z" />
    <glyph glyph-name="Egrave" unicode="&#xc8;" 
d="M64 14.5q-12 14.5 -8 38.5l43 261q14 83 29.5 127t38.5 71l3 20q-24 -4 -36 -4q-11 0 -16 9t-5 29q0 39 12.5 85t36.5 46h434q11 0 16 -9t5 -29q0 -39 -12.5 -85t-36.5 -46q-113 0 -248 10q-1 -53 -18 -109q124 7 212 7q11 0 16 -8.5t5 -27.5q0 -37 -12 -80t-36 -43
q-87 0 -209 7q-3 -63 -21 -125q140 10 257 10q11 0 16 -9t5 -29q0 -39 -12.5 -85t-36.5 -46h-386q-24 0 -36 14.5zM271 869.5q-4 5.5 -4 13.5q0 14 19 38t45 42t47 18q13 0 21 -8l153 -147q14 -14 14 -21q0 -13 -12.5 -29t-30.5 -27t-33 -11q-10 0 -15 4l-187 114
q-13 8 -17 13.5z" />
    <glyph glyph-name="Eacute" unicode="&#xc9;" 
d="M64 14.5q-12 14.5 -8 38.5l43 261q14 83 29.5 127t38.5 71l3 20q-24 -4 -36 -4q-11 0 -16 9t-5 29q0 39 12.5 85t36.5 46h434q11 0 16 -9t5 -29q0 -39 -12.5 -85t-36.5 -46q-113 0 -248 10q-1 -53 -18 -109q124 7 212 7q11 0 16 -8.5t5 -27.5q0 -37 -12 -80t-36 -43
q-87 0 -209 7q-3 -63 -21 -125q140 10 257 10q11 0 16 -9t5 -29q0 -39 -12.5 -85t-36.5 -46h-386q-24 0 -36 14.5zM322 739q-16 0 -32 12t-26 28.5t-10 29.5q0 7 4.5 12.5t18.5 16.5l181 135q8 7 21 7q20 0 44.5 -17t41.5 -42t17 -45q0 -10 -6 -16.5t-24 -15.5l-214 -102
q-7 -3 -16 -3z" />
    <glyph glyph-name="Ecircumflex" unicode="&#xca;" 
d="M64 14.5q-12 14.5 -8 38.5l43 261q14 83 29.5 127t38.5 71l3 20q-24 -4 -36 -4q-11 0 -16 9t-5 29q0 39 12.5 85t36.5 46h434q11 0 16 -9t5 -29q0 -39 -12.5 -85t-36.5 -46q-113 0 -248 10q-1 -53 -18 -109q124 7 212 7q11 0 16 -8.5t5 -27.5q0 -37 -12 -80t-36 -43
q-87 0 -209 7q-3 -63 -21 -125q140 10 257 10q11 0 16 -9t5 -29q0 -39 -12.5 -85t-36.5 -46h-386q-24 0 -36 14.5zM619 796q0 -11 -14.5 -25t-36 -23.5t-38.5 -9.5q-12 0 -22 8l-98 93l-131 -93q-10 -7 -24 -7q-17 0 -35.5 10t-31 25t-12.5 28q0 4 4 9t11 11l138 120
q14 13 40 20t54 7q29 0 52.5 -7t33.5 -20l102 -131q8 -9 8 -15z" />
    <glyph glyph-name="Edieresis" unicode="&#xcb;" 
d="M64 14.5q-12 14.5 -8 38.5l43 261q14 83 29.5 127t38.5 71l3 20q-24 -4 -36 -4q-11 0 -16 9t-5 29q0 39 12.5 85t36.5 46h434q11 0 16 -9t5 -29q0 -39 -12.5 -85t-36.5 -46q-113 0 -248 10q-1 -53 -18 -109q124 7 212 7q11 0 16 -8.5t5 -27.5q0 -37 -12 -80t-36 -43
q-87 0 -209 7q-3 -63 -21 -125q140 10 257 10q11 0 16 -9t5 -29q0 -39 -12.5 -85t-36.5 -46h-386q-24 0 -36 14.5zM183.5 773q-23.5 14 -23.5 45q0 11 3 26q8 46 36.5 65.5t95.5 19.5q56 0 80 -14t24 -46q0 -11 -3 -25q-8 -46 -37.5 -65.5t-95.5 -19.5q-56 0 -79.5 14z
M474.5 909.5q28.5 19.5 95.5 19.5q56 0 80 -14t24 -46q0 -11 -3 -25q-8 -46 -37.5 -65.5t-95.5 -19.5q-56 0 -79.5 14t-23.5 45q0 11 3 26q8 46 36.5 65.5z" />
    <glyph glyph-name="Igrave" unicode="&#xcc;" 
d="M58 40q0 41 13 89.5t39 48.5q43 0 96 -10q20 168 60 361q-57 -10 -100 -10q-22 0 -22 40q0 41 13 89.5t39 48.5h371q22 0 22 -40q0 -41 -13 -89.5t-39 -48.5q-43 0 -94 10q-23 -180 -60 -361q54 10 98 10q22 0 22 -40q0 -41 -13 -89.5t-39 -48.5h-371q-22 0 -22 40z
M271 869.5q-4 5.5 -4 13.5q0 14 19 38t45 42t47 18q13 0 21 -8l153 -147q14 -14 14 -21q0 -13 -12.5 -29t-30.5 -27t-33 -11q-10 0 -15 4l-187 114q-13 8 -17 13.5z" />
    <glyph glyph-name="Iacute" unicode="&#xcd;" 
d="M58 40q0 41 13 89.5t39 48.5q43 0 96 -10q20 168 60 361q-57 -10 -100 -10q-22 0 -22 40q0 41 13 89.5t39 48.5h371q22 0 22 -40q0 -41 -13 -89.5t-39 -48.5q-43 0 -94 10q-23 -180 -60 -361q54 10 98 10q22 0 22 -40q0 -41 -13 -89.5t-39 -48.5h-371q-22 0 -22 40z
M322 739q-16 0 -32 12t-26 28.5t-10 29.5q0 7 4.5 12.5t18.5 16.5l181 135q8 7 21 7q20 0 44.5 -17t41.5 -42t17 -45q0 -10 -6 -16.5t-24 -15.5l-214 -102q-7 -3 -16 -3z" />
    <glyph glyph-name="Icircumflex" unicode="&#xce;" 
d="M58 40q0 41 13 89.5t39 48.5q43 0 96 -10q20 168 60 361q-57 -10 -100 -10q-22 0 -22 40q0 41 13 89.5t39 48.5h371q22 0 22 -40q0 -41 -13 -89.5t-39 -48.5q-43 0 -94 10q-23 -180 -60 -361q54 10 98 10q22 0 22 -40q0 -41 -13 -89.5t-39 -48.5h-371q-22 0 -22 40z
M619 796q0 -11 -14.5 -25t-36 -23.5t-38.5 -9.5q-12 0 -22 8l-98 93l-131 -93q-10 -7 -24 -7q-17 0 -35.5 10t-31 25t-12.5 28q0 4 4 9t11 11l138 120q14 13 40 20t54 7q29 0 52.5 -7t33.5 -20l102 -131q8 -9 8 -15z" />
    <glyph glyph-name="Ntilde" unicode="&#xd1;" 
d="M19 0q-19 8 -16 26l106 636q4 24 32.5 33.5t95.5 9.5q42 0 62.5 -4.5t29 -15.5t11.5 -35q48 -292 51 -451h20q1 99 15.5 245.5t28.5 226.5q4 34 99 34q54 0 73 -8t16 -26l-106 -636q-4 -24 -32.5 -33.5t-95.5 -9.5q-42 0 -62 4.5t-28.5 15.5t-12.5 35q-47 294 -51 451
h-20q-2 -99 -16.5 -245t-27.5 -227q-3 -18 -24.5 -26t-74.5 -8q-54 0 -73 8zM428 765q-28 17 -57 46q-14 14 -22.5 21t-17.5 7q-11 0 -21.5 -16.5t-24.5 -54.5q-4 -12 -22.5 -18.5t-42.5 -6.5q-31 0 -54 9.5t-19 24.5q50 198 188 198q45 0 74 -17t56 -46q14 -14 22.5 -21
t17.5 -7q12 0 22.5 16.5t23.5 55.5q5 12 23.5 18t42.5 6q31 0 54 -9t19 -25q-50 -198 -189 -198q-45 0 -73 17z" />
    <glyph glyph-name="Ograve" unicode="&#xd2;" 
d="M100.5 62q-62.5 74 -62.5 230q0 104 30 198.5t101 156.5t188 62q127 0 189.5 -74t62.5 -230q0 -104 -30 -198.5t-101 -156.5t-188 -62q-127 0 -189.5 74zM243.5 186q20.5 -29 65.5 -29q58 0 86.5 76.5t28.5 177.5q0 71 -20.5 100t-65.5 29q-58 0 -86.5 -76.5
t-28.5 -177.5q0 -71 20.5 -100zM271 869.5q-4 5.5 -4 13.5q0 14 19 38t45 42t47 18q13 0 21 -8l153 -147q14 -14 14 -21q0 -13 -12.5 -29t-30.5 -27t-33 -11q-10 0 -15 4l-187 114q-13 8 -17 13.5z" />
    <glyph glyph-name="Oacute" unicode="&#xd3;" 
d="M100.5 62q-62.5 74 -62.5 230q0 104 30 198.5t101 156.5t188 62q127 0 189.5 -74t62.5 -230q0 -104 -30 -198.5t-101 -156.5t-188 -62q-127 0 -189.5 74zM243.5 186q20.5 -29 65.5 -29q58 0 86.5 76.5t28.5 177.5q0 71 -20.5 100t-65.5 29q-58 0 -86.5 -76.5
t-28.5 -177.5q0 -71 20.5 -100zM322 739q-16 0 -32 12t-26 28.5t-10 29.5q0 7 4.5 12.5t18.5 16.5l181 135q8 7 21 7q20 0 44.5 -17t41.5 -42t17 -45q0 -10 -6 -16.5t-24 -15.5l-214 -102q-7 -3 -16 -3z" />
    <glyph glyph-name="Ocircumflex" unicode="&#xd4;" 
d="M100.5 62q-62.5 74 -62.5 230q0 104 30 198.5t101 156.5t188 62q127 0 189.5 -74t62.5 -230q0 -104 -30 -198.5t-101 -156.5t-188 -62q-127 0 -189.5 74zM243.5 186q20.5 -29 65.5 -29q58 0 86.5 76.5t28.5 177.5q0 71 -20.5 100t-65.5 29q-58 0 -86.5 -76.5
t-28.5 -177.5q0 -71 20.5 -100zM619 796q0 -11 -14.5 -25t-36 -23.5t-38.5 -9.5q-12 0 -22 8l-98 93l-131 -93q-10 -7 -24 -7q-17 0 -35.5 10t-31 25t-12.5 28q0 4 4 9t11 11l138 120q14 13 40 20t54 7q29 0 52.5 -7t33.5 -20l102 -131q8 -9 8 -15z" />
    <glyph glyph-name="Otilde" unicode="&#xd5;" 
d="M100.5 62q-62.5 74 -62.5 230q0 104 30 198.5t101 156.5t188 62q127 0 189.5 -74t62.5 -230q0 -104 -30 -198.5t-101 -156.5t-188 -62q-127 0 -189.5 74zM243.5 186q20.5 -29 65.5 -29q58 0 86.5 76.5t28.5 177.5q0 71 -20.5 100t-65.5 29q-58 0 -86.5 -76.5
t-28.5 -177.5q0 -71 20.5 -100zM428 765q-28 17 -57 46q-14 14 -22.5 21t-17.5 7q-11 0 -21.5 -16.5t-24.5 -54.5q-4 -12 -22.5 -18.5t-42.5 -6.5q-31 0 -54 9.5t-19 24.5q50 198 188 198q45 0 74 -17t56 -46q14 -14 22.5 -21t17.5 -7q12 0 22.5 16.5t23.5 55.5
q5 12 23.5 18t42.5 6q31 0 54 -9t19 -25q-50 -198 -189 -198q-45 0 -73 17z" />
    <glyph glyph-name="Odieresis" unicode="&#xd6;" 
d="M100.5 62q-62.5 74 -62.5 230q0 104 30 198.5t101 156.5t188 62q127 0 189.5 -74t62.5 -230q0 -104 -30 -198.5t-101 -156.5t-188 -62q-127 0 -189.5 74zM243.5 186q20.5 -29 65.5 -29q58 0 86.5 76.5t28.5 177.5q0 71 -20.5 100t-65.5 29q-58 0 -86.5 -76.5
t-28.5 -177.5q0 -71 20.5 -100zM183.5 773q-23.5 14 -23.5 45q0 11 3 26q8 46 36.5 65.5t95.5 19.5q56 0 80 -14t24 -46q0 -11 -3 -25q-8 -46 -37.5 -65.5t-95.5 -19.5q-56 0 -79.5 14zM474.5 909.5q28.5 19.5 95.5 19.5q56 0 80 -14t24 -46q0 -11 -3 -25
q-8 -46 -37.5 -65.5t-95.5 -19.5q-56 0 -79.5 14t-23.5 45q0 11 3 26q8 46 36.5 65.5z" />
    <glyph glyph-name="Ugrave" unicode="&#xd9;" 
d="M106.5 43.5q-56.5 55.5 -56.5 161.5q0 134 75 466q5 18 25.5 26t73.5 8q49 0 68.5 -7t19.5 -25l-2 -12q-23 -90 -50 -231.5t-28 -196.5q0 -66 56 -66q29 0 50 18.5t32 60.5q18 63 38 183t32 232q2 25 23 34.5t77 9.5q53 0 71 -8t18 -26q-14 -135 -37.5 -282t-52.5 -229
t-95.5 -127t-170.5 -45q-110 0 -166.5 55.5zM271 869.5q-4 5.5 -4 13.5q0 14 19 38t45 42t47 18q13 0 21 -8l153 -147q14 -14 14 -21q0 -13 -12.5 -29t-30.5 -27t-33 -11q-10 0 -15 4l-187 114q-13 8 -17 13.5z" />
    <glyph glyph-name="Uacute" unicode="&#xda;" 
d="M106.5 43.5q-56.5 55.5 -56.5 161.5q0 134 75 466q5 18 25.5 26t73.5 8q49 0 68.5 -7t19.5 -25l-2 -12q-23 -90 -50 -231.5t-28 -196.5q0 -66 56 -66q29 0 50 18.5t32 60.5q18 63 38 183t32 232q2 25 23 34.5t77 9.5q53 0 71 -8t18 -26q-14 -135 -37.5 -282t-52.5 -229
t-95.5 -127t-170.5 -45q-110 0 -166.5 55.5zM322 739q-16 0 -32 12t-26 28.5t-10 29.5q0 7 4.5 12.5t18.5 16.5l181 135q8 7 21 7q20 0 44.5 -17t41.5 -42t17 -45q0 -10 -6 -16.5t-24 -15.5l-214 -102q-7 -3 -16 -3z" />
    <glyph glyph-name="Ucircumflex" unicode="&#xdb;" 
d="M106.5 43.5q-56.5 55.5 -56.5 161.5q0 134 75 466q5 18 25.5 26t73.5 8q49 0 68.5 -7t19.5 -25l-2 -12q-23 -90 -50 -231.5t-28 -196.5q0 -66 56 -66q29 0 50 18.5t32 60.5q18 63 38 183t32 232q2 25 23 34.5t77 9.5q53 0 71 -8t18 -26q-14 -135 -37.5 -282t-52.5 -229
t-95.5 -127t-170.5 -45q-110 0 -166.5 55.5zM619 796q0 -11 -14.5 -25t-36 -23.5t-38.5 -9.5q-12 0 -22 8l-98 93l-131 -93q-10 -7 -24 -7q-17 0 -35.5 10t-31 25t-12.5 28q0 4 4 9t11 11l138 120q14 13 40 20t54 7q29 0 52.5 -7t33.5 -20l102 -131q8 -9 8 -15z" />
    <glyph glyph-name="Udieresis" unicode="&#xdc;" 
d="M106.5 43.5q-56.5 55.5 -56.5 161.5q0 134 75 466q5 18 25.5 26t73.5 8q49 0 68.5 -7t19.5 -25l-2 -12q-23 -90 -50 -231.5t-28 -196.5q0 -66 56 -66q29 0 50 18.5t32 60.5q18 63 38 183t32 232q2 25 23 34.5t77 9.5q53 0 71 -8t18 -26q-14 -135 -37.5 -282t-52.5 -229
t-95.5 -127t-170.5 -45q-110 0 -166.5 55.5zM183.5 773q-23.5 14 -23.5 45q0 11 3 26q8 46 36.5 65.5t95.5 19.5q56 0 80 -14t24 -46q0 -11 -3 -25q-8 -46 -37.5 -65.5t-95.5 -19.5q-56 0 -79.5 14zM474.5 909.5q28.5 19.5 95.5 19.5q56 0 80 -14t24 -46q0 -11 -3 -25
q-8 -46 -37.5 -65.5t-95.5 -19.5q-56 0 -79.5 14t-23.5 45q0 11 3 26q8 46 36.5 65.5z" />
    <glyph glyph-name="Yacute" unicode="&#xdd;" 
d="M175 26q21 120 46 228q-45 85 -76 179t-46 187q-2 13 -2 22q0 15 22 30t54.5 25t62.5 10q23 0 33 -10.5t11 -32.5q6 -126 35 -243h20q65 112 115 243q8 22 22.5 32.5t38.5 10.5q52 0 94 -16.5t42 -39.5q0 -13 -10 -31q-102 -205 -245 -367q-14 -143 -29 -227
q-6 -34 -99 -34q-95 0 -89 34zM322 739q-16 0 -32 12t-26 28.5t-10 29.5q0 7 4.5 12.5t18.5 16.5l181 135q8 7 21 7q20 0 44.5 -17t41.5 -42t17 -45q0 -10 -6 -16.5t-24 -15.5l-214 -102q-7 -3 -16 -3z" />
    <glyph glyph-name="germandbls" unicode="&#xdf;" 
d="M253 0q-11 4 -16 11t-5 21q0 19 7.5 49t20.5 51.5t30 17.5q20 -4 32 -4q26 0 39 16t13 37q0 29 -17.5 50t-56.5 42q-10 6 -14.5 14.5t-4.5 24.5q0 34 9 68t32 51q60 41 60 88q0 46 -48 46q-29 0 -44 -18.5t-22 -61.5l-80 -477q-3 -18 -23.5 -26t-73.5 -8q-52 0 -71 8
t-16 26l82 491q37 221 253 221q102 0 160.5 -45t58.5 -131q0 -59 -34.5 -106.5t-95.5 -80.5l-2 -12q69 -35 98 -76t29 -96q0 -56 -26.5 -102.5t-76 -73.5t-115.5 -27q-50 0 -82 12z" />
    <glyph glyph-name="agrave" unicode="&#xe0;" 
d="M408.5 -5q-10.5 9 -16.5 36q-6 29 -9 72h-17q-51 -61 -97.5 -88t-97.5 -27q-141 0 -141 197q0 111 37 194.5t109 129t176 45.5q60 0 114.5 -15.5t93.5 -43.5q31 -22 25 -58q-13 -78 -25.5 -137.5t-31.5 -119.5q22 -48 31 -71q14 -34 14 -52t-21 -34.5t-52 -26.5t-58 -10
q-23 0 -33.5 9zM229.5 179q8.5 -16 26.5 -16q21 0 48.5 20t59.5 60q14 55 28 145q-28 11 -60 11q-52 0 -81.5 -50t-29.5 -120q0 -34 8.5 -50zM215.5 714.5q-3.5 5.5 -3.5 13.5q0 14 17 38t41 42t43 18q12 0 19 -8l139 -147q12 -13 12 -21q0 -20 -24 -43.5t-45 -23.5
q-8 0 -13 4l-170 114q-12 8 -15.5 13.5z" />
    <glyph glyph-name="aacute" unicode="&#xe1;" 
d="M408.5 -5q-10.5 9 -16.5 36q-6 29 -9 72h-17q-51 -61 -97.5 -88t-97.5 -27q-141 0 -141 197q0 111 37 194.5t109 129t176 45.5q60 0 114.5 -15.5t93.5 -43.5q31 -22 25 -58q-13 -78 -25.5 -137.5t-31.5 -119.5q22 -48 31 -71q14 -34 14 -52t-21 -34.5t-52 -26.5t-58 -10
q-23 0 -33.5 9zM229.5 179q8.5 -16 26.5 -16q21 0 48.5 20t59.5 60q14 55 28 145q-28 11 -60 11q-52 0 -81.5 -50t-29.5 -120q0 -34 8.5 -50zM312 584q-15 0 -29 12t-23.5 28.5t-9.5 29.5q0 7 4 12.5t17 16.5l164 135q8 7 19 7q19 0 41 -17t37.5 -42t15.5 -45
q0 -10 -5.5 -16.5t-21.5 -15.5l-195 -102q-7 -3 -14 -3z" />
    <glyph glyph-name="acircumflex" unicode="&#xe2;" 
d="M408.5 -5q-10.5 9 -16.5 36q-6 29 -9 72h-17q-51 -61 -97.5 -88t-97.5 -27q-141 0 -141 197q0 111 37 194.5t109 129t176 45.5q60 0 114.5 -15.5t93.5 -43.5q31 -22 25 -58q-13 -78 -25.5 -137.5t-31.5 -119.5q22 -48 31 -71q14 -34 14 -52t-21 -34.5t-52 -26.5t-58 -10
q-23 0 -33.5 9zM229.5 179q8.5 -16 26.5 -16q21 0 48.5 20t59.5 60q14 55 28 145q-28 11 -60 11q-52 0 -81.5 -50t-29.5 -120q0 -34 8.5 -50zM568 641q0 -11 -13.5 -25t-32.5 -23.5t-34 -9.5q-13 0 -21 8l-89 93l-119 -93q-8 -7 -22 -7q-24 0 -48 21t-24 42q0 4 4 9t10 11
l125 120q14 13 37 20t49 7t47.5 -7t30.5 -20l93 -131q7 -9 7 -15z" />
    <glyph glyph-name="atilde" unicode="&#xe3;" 
d="M408.5 -5q-10.5 9 -16.5 36q-6 29 -9 72h-17q-51 -61 -97.5 -88t-97.5 -27q-141 0 -141 197q0 111 37 194.5t109 129t176 45.5q60 0 114.5 -15.5t93.5 -43.5q31 -22 25 -58q-13 -78 -25.5 -137.5t-31.5 -119.5q22 -48 31 -71q14 -34 14 -52t-21 -34.5t-52 -26.5t-58 -10
q-23 0 -33.5 9zM229.5 179q8.5 -16 26.5 -16q21 0 48.5 20t59.5 60q14 55 28 145q-28 11 -60 11q-52 0 -81.5 -50t-29.5 -120q0 -34 8.5 -50zM385 610.5q-26 17.5 -51 46.5q-14 15 -21 21t-15 6q-10 0 -20 -16.5t-22 -54.5q-4 -12 -21 -18.5t-39 -6.5q-27 0 -48 9.5
t-18 24.5q46 198 171 198q41 0 66.5 -16.5t52.5 -46.5q11 -14 19.5 -21t16.5 -7q10 0 20 17t22 55q4 12 20.5 18t39.5 6q28 0 48.5 -9t17.5 -25q-46 -198 -172 -198q-41 0 -67 17.5z" />
    <glyph glyph-name="adieresis" unicode="&#xe4;" 
d="M408.5 -5q-10.5 9 -16.5 36q-6 29 -9 72h-17q-51 -61 -97.5 -88t-97.5 -27q-141 0 -141 197q0 111 37 194.5t109 129t176 45.5q60 0 114.5 -15.5t93.5 -43.5q31 -22 25 -58q-13 -78 -25.5 -137.5t-31.5 -119.5q22 -48 31 -71q14 -34 14 -52t-21 -34.5t-52 -26.5t-58 -10
q-23 0 -33.5 9zM229.5 179q8.5 -16 26.5 -16q21 0 48.5 20t59.5 60q14 55 28 145q-28 11 -60 11q-52 0 -81.5 -50t-29.5 -120q0 -34 8.5 -50zM162 618q-21 14 -21 45q0 16 2 26q8 46 33.5 65.5t86.5 19.5q51 0 72.5 -14t21.5 -46q0 -16 -2 -25q-8 -46 -34.5 -65.5
t-86.5 -19.5q-51 0 -72 14zM426.5 754.5q25.5 19.5 86.5 19.5q51 0 72.5 -14t21.5 -46q0 -16 -2 -25q-8 -46 -34.5 -65.5t-86.5 -19.5q-51 0 -72 14t-21 45q0 16 2 26q8 46 33.5 65.5z" />
    <glyph glyph-name="aring" unicode="&#xe5;" 
d="M408.5 -5q-10.5 9 -16.5 36q-6 29 -9 72h-17q-51 -61 -97.5 -88t-97.5 -27q-141 0 -141 197q0 111 37 194.5t109 129t176 45.5q60 0 114.5 -15.5t93.5 -43.5q31 -22 25 -58q-13 -78 -25.5 -137.5t-31.5 -119.5q22 -48 31 -71q14 -34 14 -52t-21 -34.5t-52 -26.5t-58 -10
q-23 0 -33.5 9zM229.5 179q8.5 -16 26.5 -16q21 0 48.5 20t59.5 60q14 55 28 145q-28 11 -60 11q-52 0 -81.5 -50t-29.5 -120q0 -34 8.5 -50zM281 620q-42 39 -42 101t42 101.5t108 39.5t108 -39.5t42 -101.5t-42 -101t-108 -39t-108 39zM343 682q17 -14 46 -14t46 14t17 39
t-17 39t-46 14t-46 -14t-17 -39t17 -39z" />
    <glyph glyph-name="ae" unicode="&#xe6;" 
d="M320.5 2q-31.5 14 -51.5 44q-78 -57 -147 -57q-54 0 -82.5 36.5t-28.5 103.5q0 52 19.5 96t59 70t96.5 26q44 0 76 -8l5 31q2 16 2 21q0 19 -10 27t-33 8q-19 0 -43.5 -6t-42.5 -15q-6 -2 -9 -2q-19 0 -28.5 35t-9.5 70q0 31 24 41q74 32 148 32q36 0 59 -9.5t35 -29.5
q46 34 102 34q71 0 106 -43.5t35 -124.5q0 -55 -16.5 -102t-48.5 -53q-29 -5 -100 -5q-38 0 -77 3l-5 -32q-2 -16 -2 -21q0 -23 11.5 -33.5t36.5 -10.5q23 0 40.5 5t35.5 14q16 8 24 8q10 0 20.5 -15t18 -38.5t7.5 -45.5q0 -13 -6 -22t-21 -16q-27 -13 -59.5 -21.5
t-63.5 -8.5q-45 0 -76.5 14zM198 125q13 0 34 8l14 87q-7 1 -24 1q-29 0 -42 -14t-13 -44q0 -38 31 -38zM413 328q21 0 32 1q7 25 7 54q0 44 -27 44q-31 0 -39 -47l-8 -50q12 -2 35 -2z" />
    <glyph glyph-name="ccedilla" unicode="&#xe7;" 
d="M83 378.5q34 77.5 107 126.5t184 49q63 0 113.5 -13.5t70.5 -35.5q13 -15 19.5 -56t6.5 -90q0 -26 -31 -40t-82 -14q-35 0 -52.5 8.5t-17.5 26.5q0 15 2 43q-15 6 -41 6q-65 0 -96.5 -45t-31.5 -106q0 -39 17 -57t50 -18q69 0 145 59q9 8 22 8q20 0 40 -21t33 -49.5
t13 -47.5q0 -11 -6 -20t-21 -20q-87 -63 -188 -79l-3 -8l-50 -159q-5 -16 -23.5 -23.5t-43.5 -7.5q-34 0 -62 11.5t-28 28.5q0 10 16 37l72 120q-81 13 -124.5 66t-43.5 155q0 88 34 165.5z" />
    <glyph glyph-name="egrave" unicode="&#xe8;" 
d="M101 43q-58 55 -58 167q0 100 40 178t114 122t173 44q71 0 119.5 -21t71.5 -55.5t23 -75.5q0 -50 -36.5 -85.5t-114 -62t-207.5 -47.5q5 -35 23.5 -49.5t55.5 -14.5q39 0 78.5 12.5t89.5 39.5q3 2 9 2q13 0 28 -17.5t25 -42.5t10 -46q0 -14 -5 -23t-21 -18
q-49 -30 -109.5 -46t-126.5 -16q-124 0 -182 55zM370 344.5q36 16.5 37 36.5q0 16 -15.5 26.5t-43.5 10.5q-46 0 -75.5 -31t-41.5 -82q103 23 139 39.5zM220.5 714.5q-3.5 5.5 -3.5 13.5q0 14 17 38t41 42t43 18q12 0 19 -8l139 -147q12 -13 12 -21q0 -20 -24 -43.5
t-45 -23.5q-8 0 -13 4l-170 114q-12 8 -15.5 13.5z" />
    <glyph glyph-name="eacute" unicode="&#xe9;" 
d="M101 43q-58 55 -58 167q0 100 40 178t114 122t173 44q71 0 119.5 -21t71.5 -55.5t23 -75.5q0 -50 -36.5 -85.5t-114 -62t-207.5 -47.5q5 -35 23.5 -49.5t55.5 -14.5q39 0 78.5 12.5t89.5 39.5q3 2 9 2q13 0 28 -17.5t25 -42.5t10 -46q0 -14 -5 -23t-21 -18
q-49 -30 -109.5 -46t-126.5 -16q-124 0 -182 55zM370 344.5q36 16.5 37 36.5q0 16 -15.5 26.5t-43.5 10.5q-46 0 -75.5 -31t-41.5 -82q103 23 139 39.5zM317 584q-15 0 -29 12t-23.5 28.5t-9.5 29.5q0 7 4 12.5t17 16.5l164 135q8 7 19 7q19 0 41 -17t37.5 -42t15.5 -45
q0 -10 -5.5 -16.5t-21.5 -15.5l-195 -102q-7 -3 -14 -3z" />
    <glyph glyph-name="ecircumflex" unicode="&#xea;" 
d="M101 43q-58 55 -58 167q0 100 40 178t114 122t173 44q71 0 119.5 -21t71.5 -55.5t23 -75.5q0 -50 -36.5 -85.5t-114 -62t-207.5 -47.5q5 -35 23.5 -49.5t55.5 -14.5q39 0 78.5 12.5t89.5 39.5q3 2 9 2q13 0 28 -17.5t25 -42.5t10 -46q0 -14 -5 -23t-21 -18
q-49 -30 -109.5 -46t-126.5 -16q-124 0 -182 55zM370 344.5q36 16.5 37 36.5q0 16 -15.5 26.5t-43.5 10.5q-46 0 -75.5 -31t-41.5 -82q103 23 139 39.5zM573 641q0 -11 -13.5 -25t-32.5 -23.5t-34 -9.5q-13 0 -21 8l-89 93l-119 -93q-8 -7 -22 -7q-24 0 -48 21t-24 42
q0 4 4 9t10 11l125 120q14 13 37 20t49 7t47.5 -7t30.5 -20l93 -131q7 -9 7 -15z" />
    <glyph glyph-name="edieresis" unicode="&#xeb;" 
d="M101 43q-58 55 -58 167q0 100 40 178t114 122t173 44q71 0 119.5 -21t71.5 -55.5t23 -75.5q0 -50 -36.5 -85.5t-114 -62t-207.5 -47.5q5 -35 23.5 -49.5t55.5 -14.5q39 0 78.5 12.5t89.5 39.5q3 2 9 2q13 0 28 -17.5t25 -42.5t10 -46q0 -14 -5 -23t-21 -18
q-49 -30 -109.5 -46t-126.5 -16q-124 0 -182 55zM370 344.5q36 16.5 37 36.5q0 16 -15.5 26.5t-43.5 10.5q-46 0 -75.5 -31t-41.5 -82q103 23 139 39.5zM167 618q-21 14 -21 45q0 16 2 26q8 46 33.5 65.5t86.5 19.5q51 0 72.5 -14t21.5 -46q0 -16 -2 -25q-8 -46 -34.5 -65.5
t-86.5 -19.5q-51 0 -72 14zM431.5 754.5q25.5 19.5 86.5 19.5q51 0 72.5 -14t21.5 -46q0 -16 -2 -25q-8 -46 -34.5 -65.5t-86.5 -19.5q-51 0 -72 14t-21 45q0 16 2 26q8 46 33.5 65.5z" />
    <glyph glyph-name="igrave" unicode="&#xec;" 
d="M189.5 24.5q-37.5 36.5 -37.5 107.5q0 41 10.5 103t27.5 120q-56 -6 -97 -6q-12 0 -17 9t-5 30q0 40 13 87.5t38 47.5h233q23 0 33 -7.5t10 -25.5l-2 -16q-48 -192 -48 -266q0 -26 5 -35.5t17 -9.5q34 0 91 42q8 5 14 5q16 0 32 -17.5t26.5 -42.5t10.5 -45q0 -15 -7 -25
t-24 -23q-43 -32 -99.5 -50.5t-115.5 -18.5q-71 0 -108.5 36.5zM191.5 714.5q-3.5 5.5 -3.5 13.5q0 14 17 38t41 42t43 18q12 0 19 -8l139 -147q12 -13 12 -21q0 -20 -24 -43.5t-45 -23.5q-8 0 -13 4l-170 114q-12 8 -15.5 13.5z" />
    <glyph glyph-name="iacute" unicode="&#xed;" 
d="M189.5 24.5q-37.5 36.5 -37.5 107.5q0 41 10.5 103t27.5 120q-56 -6 -97 -6q-12 0 -17 9t-5 30q0 40 13 87.5t38 47.5h233q23 0 33 -7.5t10 -25.5l-2 -16q-48 -192 -48 -266q0 -26 5 -35.5t17 -9.5q34 0 91 42q8 5 14 5q16 0 32 -17.5t26.5 -42.5t10.5 -45q0 -15 -7 -25
t-24 -23q-43 -32 -99.5 -50.5t-115.5 -18.5q-71 0 -108.5 36.5zM288 584q-15 0 -29 12t-23.5 28.5t-9.5 29.5q0 7 4 12.5t17 16.5l164 135q8 7 19 7q19 0 41 -17t37.5 -42t15.5 -45q0 -10 -5.5 -16.5t-21.5 -15.5l-195 -102q-7 -3 -14 -3z" />
    <glyph glyph-name="icircumflex" unicode="&#xee;" 
d="M189.5 24.5q-37.5 36.5 -37.5 107.5q0 41 10.5 103t27.5 120q-56 -6 -97 -6q-12 0 -17 9t-5 30q0 40 13 87.5t38 47.5h233q23 0 33 -7.5t10 -25.5l-2 -16q-48 -192 -48 -266q0 -26 5 -35.5t17 -9.5q34 0 91 42q8 5 14 5q16 0 32 -17.5t26.5 -42.5t10.5 -45q0 -15 -7 -25
t-24 -23q-43 -32 -99.5 -50.5t-115.5 -18.5q-71 0 -108.5 36.5zM544 641q0 -11 -13.5 -25t-32.5 -23.5t-34 -9.5q-13 0 -21 8l-89 93l-119 -93q-8 -7 -22 -7q-24 0 -48 21t-24 42q0 4 4 9t10 11l125 120q14 13 37 20t49 7t47.5 -7t30.5 -20l93 -131q7 -9 7 -15z" />
    <glyph glyph-name="idieresis" unicode="&#xef;" 
d="M189.5 24.5q-37.5 36.5 -37.5 107.5q0 41 10.5 103t27.5 120q-56 -6 -97 -6q-12 0 -17 9t-5 30q0 40 13 87.5t38 47.5h233q23 0 33 -7.5t10 -25.5l-2 -16q-48 -192 -48 -266q0 -26 5 -35.5t17 -9.5q34 0 91 42q8 5 14 5q16 0 32 -17.5t26.5 -42.5t10.5 -45q0 -15 -7 -25
t-24 -23q-43 -32 -99.5 -50.5t-115.5 -18.5q-71 0 -108.5 36.5zM138 618q-21 14 -21 45q0 16 2 26q8 46 33.5 65.5t86.5 19.5q51 0 72.5 -14t21.5 -46q0 -16 -2 -25q-8 -46 -34.5 -65.5t-86.5 -19.5q-51 0 -72 14zM402.5 754.5q25.5 19.5 86.5 19.5q51 0 72.5 -14t21.5 -46
q0 -16 -2 -25q-8 -46 -34.5 -65.5t-86.5 -19.5q-51 0 -72 14t-21 45q0 16 2 26q8 46 33.5 65.5z" />
    <glyph glyph-name="ntilde" unicode="&#xf1;" 
d="M354.5 -1q-19.5 7 -19.5 24q0 3 2 13q22 74 37 148t15 115q0 66 -40 66q-24 0 -53 -25t-56 -70q-14 -124 -34 -244q-3 -18 -24 -26t-74 -8q-52 0 -70.5 8t-15.5 26l43 261q21 123 29 202l4 27q3 18 24.5 26t73.5 8q49 0 68 -6.5t19 -21.5q0 -16 -14 -66h16q44 51 89 74.5
t87 23.5q117 0 117 -179q0 -130 -60 -349q-6 -18 -26 -26t-71 -8q-47 0 -66.5 7zM390 610.5q-26 17.5 -51 46.5q-14 15 -21 21t-15 6q-10 0 -20 -16.5t-22 -54.5q-4 -12 -21 -18.5t-39 -6.5q-27 0 -48 9.5t-18 24.5q46 198 171 198q41 0 66.5 -16.5t52.5 -46.5
q11 -14 19.5 -21t16.5 -7q10 0 20 17t22 55q4 12 20.5 18t39.5 6q28 0 48.5 -9t17.5 -25q-46 -198 -172 -198q-41 0 -67 17.5z" />
    <glyph glyph-name="ograve" unicode="&#xf2;" 
d="M104 50q-63 62 -63 184q0 93 34.5 165.5t99.5 113.5t155 41q123 0 186 -62t63 -185q0 -93 -34.5 -165t-100 -113t-154.5 -41q-123 0 -186 62zM241 164q18 -21 57 -21q52 0 75.5 48t23.5 118q0 48 -18.5 69t-57.5 21q-51 0 -74.5 -48t-23.5 -118q0 -48 18 -69z
M221.5 714.5q-3.5 5.5 -3.5 13.5q0 14 17 38t41 42t43 18q12 0 19 -8l139 -147q12 -13 12 -21q0 -20 -24 -43.5t-45 -23.5q-8 0 -13 4l-170 114q-12 8 -15.5 13.5z" />
    <glyph glyph-name="oacute" unicode="&#xf3;" 
d="M104 50q-63 62 -63 184q0 93 34.5 165.5t99.5 113.5t155 41q123 0 186 -62t63 -185q0 -93 -34.5 -165t-100 -113t-154.5 -41q-123 0 -186 62zM241 164q18 -21 57 -21q52 0 75.5 48t23.5 118q0 48 -18.5 69t-57.5 21q-51 0 -74.5 -48t-23.5 -118q0 -48 18 -69zM318 584
q-15 0 -29 12t-23.5 28.5t-9.5 29.5q0 7 4 12.5t17 16.5l164 135q8 7 19 7q19 0 41 -17t37.5 -42t15.5 -45q0 -10 -5.5 -16.5t-21.5 -15.5l-195 -102q-7 -3 -14 -3z" />
    <glyph glyph-name="ocircumflex" unicode="&#xf4;" 
d="M104 50q-63 62 -63 184q0 93 34.5 165.5t99.5 113.5t155 41q123 0 186 -62t63 -185q0 -93 -34.5 -165t-100 -113t-154.5 -41q-123 0 -186 62zM241 164q18 -21 57 -21q52 0 75.5 48t23.5 118q0 48 -18.5 69t-57.5 21q-51 0 -74.5 -48t-23.5 -118q0 -48 18 -69zM574 641
q0 -11 -13.5 -25t-32.5 -23.5t-34 -9.5q-13 0 -21 8l-89 93l-119 -93q-8 -7 -22 -7q-24 0 -48 21t-24 42q0 4 4 9t10 11l125 120q14 13 37 20t49 7t47.5 -7t30.5 -20l93 -131q7 -9 7 -15z" />
    <glyph glyph-name="otilde" unicode="&#xf5;" 
d="M104 50q-63 62 -63 184q0 93 34.5 165.5t99.5 113.5t155 41q123 0 186 -62t63 -185q0 -93 -34.5 -165t-100 -113t-154.5 -41q-123 0 -186 62zM241 164q18 -21 57 -21q52 0 75.5 48t23.5 118q0 48 -18.5 69t-57.5 21q-51 0 -74.5 -48t-23.5 -118q0 -48 18 -69zM391 610.5
q-26 17.5 -51 46.5q-14 15 -21 21t-15 6q-10 0 -20 -16.5t-22 -54.5q-4 -12 -21 -18.5t-39 -6.5q-27 0 -48 9.5t-18 24.5q46 198 171 198q41 0 66.5 -16.5t52.5 -46.5q11 -14 19.5 -21t16.5 -7q10 0 20 17t22 55q4 12 20.5 18t39.5 6q28 0 48.5 -9t17.5 -25
q-46 -198 -172 -198q-41 0 -67 17.5z" />
    <glyph glyph-name="odieresis" unicode="&#xf6;" 
d="M104 50q-63 62 -63 184q0 93 34.5 165.5t99.5 113.5t155 41q123 0 186 -62t63 -185q0 -93 -34.5 -165t-100 -113t-154.5 -41q-123 0 -186 62zM241 164q18 -21 57 -21q52 0 75.5 48t23.5 118q0 48 -18.5 69t-57.5 21q-51 0 -74.5 -48t-23.5 -118q0 -48 18 -69zM168 618
q-21 14 -21 45q0 16 2 26q8 46 33.5 65.5t86.5 19.5q51 0 72.5 -14t21.5 -46q0 -16 -2 -25q-8 -46 -34.5 -65.5t-86.5 -19.5q-51 0 -72 14zM432.5 754.5q25.5 19.5 86.5 19.5q51 0 72.5 -14t21.5 -46q0 -16 -2 -25q-8 -46 -34.5 -65.5t-86.5 -19.5q-51 0 -72 14t-21 45
q0 16 2 26q8 46 33.5 65.5z" />
    <glyph glyph-name="ugrave" unicode="&#xf9;" 
d="M265.5 543q19.5 -7 19.5 -24q0 -3 -2 -13q-22 -74 -37 -148t-15 -115q0 -66 40 -66q24 0 53 25t56 70q14 124 34 244q3 18 24 26t74 8q52 0 70.5 -8t15.5 -26l-43 -261q-21 -122 -29 -202l-4 -27q-3 -18 -24.5 -26t-73.5 -8q-49 0 -68 6.5t-19 21.5q0 16 14 66h-16
q-44 -51 -89 -74.5t-87 -23.5q-117 0 -117 179q0 130 60 349q6 18 26 26t71 8q47 0 66.5 -7zM211.5 714.5q-3.5 5.5 -3.5 13.5q0 14 17 38t41 42t43 18q12 0 19 -8l139 -147q12 -13 12 -21q0 -20 -24 -43.5t-45 -23.5q-8 0 -13 4l-170 114q-12 8 -15.5 13.5z" />
    <glyph glyph-name="uacute" unicode="&#xfa;" 
d="M265.5 543q19.5 -7 19.5 -24q0 -3 -2 -13q-22 -74 -37 -148t-15 -115q0 -66 40 -66q24 0 53 25t56 70q14 124 34 244q3 18 24 26t74 8q52 0 70.5 -8t15.5 -26l-43 -261q-21 -122 -29 -202l-4 -27q-3 -18 -24.5 -26t-73.5 -8q-49 0 -68 6.5t-19 21.5q0 16 14 66h-16
q-44 -51 -89 -74.5t-87 -23.5q-117 0 -117 179q0 130 60 349q6 18 26 26t71 8q47 0 66.5 -7zM308 584q-15 0 -29 12t-23.5 28.5t-9.5 29.5q0 7 4 12.5t17 16.5l164 135q8 7 19 7q19 0 41 -17t37.5 -42t15.5 -45q0 -10 -5.5 -16.5t-21.5 -15.5l-195 -102q-7 -3 -14 -3z" />
    <glyph glyph-name="ucircumflex" unicode="&#xfb;" 
d="M265.5 543q19.5 -7 19.5 -24q0 -3 -2 -13q-22 -74 -37 -148t-15 -115q0 -66 40 -66q24 0 53 25t56 70q14 124 34 244q3 18 24 26t74 8q52 0 70.5 -8t15.5 -26l-43 -261q-21 -122 -29 -202l-4 -27q-3 -18 -24.5 -26t-73.5 -8q-49 0 -68 6.5t-19 21.5q0 16 14 66h-16
q-44 -51 -89 -74.5t-87 -23.5q-117 0 -117 179q0 130 60 349q6 18 26 26t71 8q47 0 66.5 -7zM564 641q0 -11 -13.5 -25t-32.5 -23.5t-34 -9.5q-13 0 -21 8l-89 93l-119 -93q-8 -7 -22 -7q-24 0 -48 21t-24 42q0 4 4 9t10 11l125 120q14 13 37 20t49 7t47.5 -7t30.5 -20
l93 -131q7 -9 7 -15z" />
    <glyph glyph-name="udieresis" unicode="&#xfc;" 
d="M265.5 543q19.5 -7 19.5 -24q0 -3 -2 -13q-22 -74 -37 -148t-15 -115q0 -66 40 -66q24 0 53 25t56 70q14 124 34 244q3 18 24 26t74 8q52 0 70.5 -8t15.5 -26l-43 -261q-21 -122 -29 -202l-4 -27q-3 -18 -24.5 -26t-73.5 -8q-49 0 -68 6.5t-19 21.5q0 16 14 66h-16
q-44 -51 -89 -74.5t-87 -23.5q-117 0 -117 179q0 130 60 349q6 18 26 26t71 8q47 0 66.5 -7zM158 618q-21 14 -21 45q0 16 2 26q8 46 33.5 65.5t86.5 19.5q51 0 72.5 -14t21.5 -46q0 -16 -2 -25q-8 -46 -34.5 -65.5t-86.5 -19.5q-51 0 -72 14zM422.5 754.5
q25.5 19.5 86.5 19.5q51 0 72.5 -14t21.5 -46q0 -16 -2 -25q-8 -46 -34.5 -65.5t-86.5 -19.5q-51 0 -72 14t-21 45q0 16 2 26q8 46 33.5 65.5z" />
    <glyph glyph-name="yacute" unicode="&#xfd;" 
d="M58 -183.5q-19 20.5 -31 50.5t-12 58q0 18 10 27.5t38 20.5q81 32 153 74l-4 17q-6 -1 -15 -1q-16 0 -27 10.5t-22 41.5q-24 65 -48.5 168t-31.5 173q-3 27 -3 45q0 22 47 38.5t97 16.5q24 0 32.5 -8t9.5 -29q12 -178 61 -375h20q81 113 81 233q0 42 -16 122
q-5 24 32 40.5t92 16.5q29 0 42.5 -8t16.5 -28q10 -46 10 -109q0 -175 -104.5 -325t-314.5 -263q-51 -27 -75 -27q-19 0 -38 20.5zM318 584q-15 0 -29 12t-23.5 28.5t-9.5 29.5q0 7 4 12.5t17 16.5l164 135q8 7 19 7q19 0 41 -17t37.5 -42t15.5 -45q0 -10 -5.5 -16.5
t-21.5 -15.5l-195 -102q-7 -3 -14 -3z" />
    <glyph glyph-name="Amacron" unicode="&#x100;" 
d="M5.5 -1.5q-21.5 6.5 -21.5 20.5q0 7 3.5 19t9.5 32q85 281 232 587q14 27 45.5 38.5t108.5 11.5q53 0 81.5 -5.5t40.5 -16t14 -28.5q39 -268 39 -511q0 -51 -1 -76q-1 -30 -3 -47q-3 -16 -25 -23.5t-73 -7.5q-47 0 -65 6.5t-18 26.5q0 59 9 113q-46 -6 -91 -6
q-44 0 -89 6q-8 -44 -27 -109q-7 -23 -27.5 -30t-71.5 -7q-49 0 -70.5 6.5zM317 290q23 0 73 -4q-6 76 -10 174l-5 98h-22q-12 -28 -53 -132q-29 -75 -57 -140q50 4 74 4zM212.5 787.5q-6.5 12.5 -6.5 31.5q0 29 14 60t39 31h340q26 0 26 -42q0 -30 -13.5 -61.5t-38.5 -31.5
h-340q-14 0 -20.5 12.5z" />
    <glyph glyph-name="amacron" unicode="&#x101;" 
d="M408.5 -5q-10.5 9 -16.5 36q-6 29 -9 72h-17q-51 -61 -97.5 -88t-97.5 -27q-141 0 -141 197q0 111 37 194.5t109 129t176 45.5q60 0 114.5 -15.5t93.5 -43.5q31 -22 25 -58q-13 -78 -25.5 -137.5t-31.5 -119.5q22 -48 31 -71q14 -34 14 -52t-21 -34.5t-52 -26.5t-58 -10
q-23 0 -33.5 9zM229.5 179q8.5 -16 26.5 -16q21 0 48.5 20t59.5 60q14 55 28 145q-28 11 -60 11q-52 0 -81.5 -50t-29.5 -120q0 -34 8.5 -50zM189 632.5q-6 12.5 -6 31.5q0 29 13 60t35 31h309q24 0 24 -42q0 -30 -12 -61.5t-35 -31.5h-309q-13 0 -19 12.5z" />
    <glyph glyph-name="Abreve" unicode="&#x102;" 
d="M5.5 -1.5q-21.5 6.5 -21.5 20.5q0 7 3.5 19t9.5 32q85 281 232 587q14 27 45.5 38.5t108.5 11.5q53 0 81.5 -5.5t40.5 -16t14 -28.5q39 -268 39 -511q0 -51 -1 -76q-1 -30 -3 -47q-3 -16 -25 -23.5t-73 -7.5q-47 0 -65 6.5t-18 26.5q0 59 9 113q-46 -6 -91 -6
q-44 0 -89 6q-8 -44 -27 -109q-7 -23 -27.5 -30t-71.5 -7q-49 0 -70.5 6.5zM317 290q23 0 73 -4q-6 76 -10 174l-5 98h-22q-12 -28 -53 -132q-29 -75 -57 -140q50 4 74 4zM270.5 779.5q-45.5 41.5 -59.5 112.5q-3 18 33.5 35.5t68.5 17.5q22 0 25 -11q7 -37 23 -53.5
t51 -16.5t57 16.5t43 53.5q6 11 30 11q21 0 46.5 -8t40.5 -20.5t9 -24.5q-39 -71 -100.5 -112.5t-141.5 -41.5t-125.5 41.5z" />
    <glyph glyph-name="abreve" unicode="&#x103;" 
d="M408.5 -5q-10.5 9 -16.5 36q-6 29 -9 72h-17q-51 -61 -97.5 -88t-97.5 -27q-141 0 -141 197q0 111 37 194.5t109 129t176 45.5q60 0 114.5 -15.5t93.5 -43.5q31 -22 25 -58q-13 -78 -25.5 -137.5t-31.5 -119.5q22 -48 31 -71q14 -34 14 -52t-21 -34.5t-52 -26.5t-58 -10
q-23 0 -33.5 9zM229.5 179q8.5 -16 26.5 -16q21 0 48.5 20t59.5 60q14 55 28 145q-28 11 -60 11q-52 0 -81.5 -50t-29.5 -120q0 -34 8.5 -50zM242 624.5q-42 41.5 -54 112.5q-3 18 30 35.5t62 17.5q20 0 23 -11q6 -37 20.5 -53.5t46.5 -16.5t52 16.5t39 53.5q6 11 28 11
q19 0 42 -8t37 -20.5t8 -24.5q-36 -71 -92 -112.5t-128 -41.5t-114 41.5z" />
    <glyph glyph-name="Cacute" unicode="&#x106;" 
d="M119 54.5q-67 65.5 -67 213.5q0 110 37 210.5t115.5 165t196.5 64.5q75 0 129.5 -17.5t70.5 -44.5q12 -20 12 -99q0 -47 -4 -68q-4 -25 -34.5 -37t-76.5 -12q-38 0 -53.5 7.5t-15.5 25.5q0 19 4 69q-18 8 -54 8q-49 0 -79.5 -40.5t-44 -97t-13.5 -107.5q0 -70 23 -99.5
t70 -29.5q60 0 140 33q9 3 16 3q28 0 44.5 -35t16.5 -74q0 -21 -5.5 -34.5t-21.5 -21.5q-41 -21 -99 -34.5t-111 -13.5q-129 0 -196 65.5zM322 739q-16 0 -32 12t-26 28.5t-10 29.5q0 7 4.5 12.5t18.5 16.5l181 135q8 7 21 7q20 0 44.5 -17t41.5 -42t17 -45q0 -10 -6 -16.5
t-24 -15.5l-214 -102q-7 -3 -16 -3z" />
    <glyph glyph-name="cacute" unicode="&#x107;" 
d="M108 41q-59 53 -59 172q0 88 34 165.5t107 126.5t184 49q63 0 113.5 -13.5t70.5 -35.5q13 -15 19.5 -56t6.5 -90q0 -26 -31 -40t-82 -14q-35 0 -52.5 8.5t-17.5 26.5q0 15 2 43q-15 6 -41 6q-65 0 -96.5 -45t-31.5 -106q0 -39 17 -57t50 -18q69 0 145 59q9 8 22 8
q20 0 40 -21t33 -49.5t13 -47.5q0 -11 -6 -20t-21 -20q-55 -39 -119.5 -61.5t-132.5 -22.5q-108 0 -167 53zM318 584q-15 0 -29 12t-23.5 28.5t-9.5 29.5q0 7 4 12.5t17 16.5l164 135q8 7 19 7q19 0 41 -17t37.5 -42t15.5 -45q0 -10 -5.5 -16.5t-21.5 -15.5l-195 -102
q-7 -3 -14 -3z" />
    <glyph glyph-name="Itilde" unicode="&#x128;" 
d="M58 40q0 41 13 89.5t39 48.5q43 0 96 -10q20 168 60 361q-57 -10 -100 -10q-22 0 -22 40q0 41 13 89.5t39 48.5h371q22 0 22 -40q0 -41 -13 -89.5t-39 -48.5q-43 0 -94 10q-23 -180 -60 -361q54 10 98 10q22 0 22 -40q0 -41 -13 -89.5t-39 -48.5h-371q-22 0 -22 40z
M428 765q-28 17 -57 46q-14 14 -22.5 21t-17.5 7q-11 0 -21.5 -16.5t-24.5 -54.5q-4 -12 -22.5 -18.5t-42.5 -6.5q-31 0 -54 9.5t-19 24.5q50 198 188 198q45 0 74 -17t56 -46q14 -14 22.5 -21t17.5 -7q12 0 22.5 16.5t23.5 55.5q5 12 23.5 18t42.5 6q31 0 54 -9t19 -25
q-50 -198 -189 -198q-45 0 -73 17z" />
    <glyph glyph-name="itilde" unicode="&#x129;" 
d="M189.5 24.5q-37.5 36.5 -37.5 107.5q0 41 10.5 103t27.5 120q-56 -6 -97 -6q-12 0 -17 9t-5 30q0 40 13 87.5t38 47.5h233q23 0 33 -7.5t10 -25.5l-2 -16q-48 -192 -48 -266q0 -26 5 -35.5t17 -9.5q34 0 91 42q8 5 14 5q16 0 32 -17.5t26.5 -42.5t10.5 -45q0 -15 -7 -25
t-24 -23q-43 -32 -99.5 -50.5t-115.5 -18.5q-71 0 -108.5 36.5zM361 610.5q-26 17.5 -51 46.5q-14 15 -21 21t-15 6q-10 0 -20 -16.5t-22 -54.5q-4 -12 -21 -18.5t-39 -6.5q-27 0 -48 9.5t-18 24.5q46 198 171 198q41 0 66.5 -16.5t52.5 -46.5q11 -14 19.5 -21t16.5 -7
q10 0 20 17t22 55q4 12 20.5 18t39.5 6q28 0 48.5 -9t17.5 -25q-46 -198 -172 -198q-41 0 -67 17.5z" />
    <glyph glyph-name="dotlessi" unicode="&#x131;" 
d="M189.5 24.5q-37.5 36.5 -37.5 107.5q0 41 10.5 103t27.5 120q-56 -6 -97 -6q-12 0 -17 9t-5 30q0 40 13 87.5t38 47.5h233q23 0 33 -7.5t10 -25.5l-2 -16q-48 -192 -48 -266q0 -26 5 -35.5t17 -9.5q34 0 91 42q8 5 14 5q16 0 32 -17.5t26.5 -42.5t10.5 -45q0 -15 -7 -25
t-24 -23q-43 -32 -99.5 -50.5t-115.5 -18.5q-71 0 -108.5 36.5z" />
    <glyph glyph-name="Nacute" unicode="&#x143;" 
d="M19 0q-19 8 -16 26l106 636q4 24 32.5 33.5t95.5 9.5q42 0 62.5 -4.5t29 -15.5t11.5 -35q48 -292 51 -451h20q1 99 15.5 245.5t28.5 226.5q4 34 99 34q54 0 73 -8t16 -26l-106 -636q-4 -24 -32.5 -33.5t-95.5 -9.5q-42 0 -62 4.5t-28.5 15.5t-12.5 35q-47 294 -51 451
h-20q-2 -99 -16.5 -245t-27.5 -227q-3 -18 -24.5 -26t-74.5 -8q-54 0 -73 8zM322 739q-16 0 -32 12t-26 28.5t-10 29.5q0 7 4.5 12.5t18.5 16.5l181 135q8 7 21 7q20 0 44.5 -17t41.5 -42t17 -45q0 -10 -6 -16.5t-24 -15.5l-214 -102q-7 -3 -16 -3z" />
    <glyph glyph-name="nacute" unicode="&#x144;" 
d="M354.5 -1q-19.5 7 -19.5 24q0 3 2 13q22 74 37 148t15 115q0 66 -40 66q-24 0 -53 -25t-56 -70q-14 -124 -34 -244q-3 -18 -24 -26t-74 -8q-52 0 -70.5 8t-15.5 26l43 261q21 123 29 202l4 27q3 18 24.5 26t73.5 8q49 0 68 -6.5t19 -21.5q0 -16 -14 -66h16q44 51 89 74.5
t87 23.5q117 0 117 -179q0 -130 -60 -349q-6 -18 -26 -26t-71 -8q-47 0 -66.5 7zM317 584q-15 0 -29 12t-23.5 28.5t-9.5 29.5q0 7 4 12.5t17 16.5l164 135q8 7 19 7q19 0 41 -17t37.5 -42t15.5 -45q0 -10 -5.5 -16.5t-21.5 -15.5l-195 -102q-7 -3 -14 -3z" />
    <glyph glyph-name="Ncaron" unicode="&#x147;" 
d="M19 0q-19 8 -16 26l106 636q4 24 32.5 33.5t95.5 9.5q42 0 62.5 -4.5t29 -15.5t11.5 -35q48 -292 51 -451h20q1 99 15.5 245.5t28.5 226.5q4 34 99 34q54 0 73 -8t16 -26l-106 -636q-4 -24 -32.5 -33.5t-95.5 -9.5q-42 0 -62 4.5t-28.5 15.5t-12.5 35q-47 294 -51 451
h-20q-2 -99 -16.5 -245t-27.5 -227q-3 -18 -24.5 -26t-74.5 -8q-54 0 -73 8zM206 911q0 11 14.5 25t36 23.5t38.5 9.5q12 0 22 -8l98 -93l131 93q10 7 24 7q17 0 35.5 -10t31 -25t12.5 -28q0 -4 -4 -9t-11 -11l-138 -120q-14 -13 -40 -20t-54 -7t-51.5 7t-34.5 20l-102 131
q-8 9 -8 15z" />
    <glyph glyph-name="ncaron" unicode="&#x148;" 
d="M354.5 -1q-19.5 7 -19.5 24q0 3 2 13q22 74 37 148t15 115q0 66 -40 66q-24 0 -53 -25t-56 -70q-14 -124 -34 -244q-3 -18 -24 -26t-74 -8q-52 0 -70.5 8t-15.5 26l43 261q21 123 29 202l4 27q3 18 24.5 26t73.5 8q49 0 68 -6.5t19 -21.5q0 -16 -14 -66h16q44 51 89 74.5
t87 23.5q117 0 117 -179q0 -130 -60 -349q-6 -18 -26 -26t-71 -8q-47 0 -66.5 7zM188 756q0 11 13.5 25t32.5 23.5t34 9.5q13 0 21 -8l89 -93l119 93q8 7 22 7q24 0 48 -21t24 -42q0 -4 -4 -9t-10 -11l-125 -120q-13 -13 -36.5 -20t-49.5 -7t-47.5 7t-30.5 20l-93 131
q-7 9 -7 15z" />
    <glyph glyph-name="Racute" unicode="&#x154;" 
d="M43 0q-19 8 -16 26l49 291q14 83 29.5 127t38.5 71l3 20q-20 -4 -36 -4q-13 0 -18.5 6t-5.5 23q0 21 5 47q7 40 17 54.5t35 21.5q78 22 205 22q126 0 190.5 -58.5t64.5 -168.5q0 -68 -34.5 -131t-105.5 -107q57 -68 88 -137q11 -25 11 -40q0 -18 -26.5 -34.5t-63 -26.5
t-61.5 -10q-21 0 -29.5 9t-17.5 37q-21 71 -57 142q-35 0 -73 6q-7 -86 -20 -160q-3 -18 -24.5 -26t-74.5 -8q-54 0 -73 8zM325 345q24 0 36 1q56 58 56 125q0 75 -82 75q-19 0 -37 -3q-4 -41 -13.5 -98.5t-19.5 -95.5q27 -4 60 -4zM322 739q-16 0 -32 12t-26 28.5t-10 29.5
q0 7 4.5 12.5t18.5 16.5l181 135q8 7 21 7q20 0 44.5 -17t41.5 -42t17 -45q0 -10 -6 -16.5t-24 -15.5l-214 -102q-7 -3 -16 -3z" />
    <glyph glyph-name="racute" unicode="&#x155;" 
d="M62.5 0q-18.5 8 -15.5 26l55 331q-18 88 -18 143q0 22 36.5 38t80.5 16q27 0 41 -5.5t15 -18.5q3 -27 6 -86h12q86 110 216 110q30 0 56 -7.5t36 -20.5q9 -12 14 -43.5t5 -71.5q0 -42 -6 -81q-8 -50 -111 -50q-38 0 -53 5.5t-16 18.5q-2 22 3 71h-6q-90 0 -151 -105
q-10 -115 -31 -244q-3 -18 -23.5 -26t-73.5 -8t-71.5 8zM318 584q-15 0 -29 12t-23.5 28.5t-9.5 29.5q0 7 4 12.5t17 16.5l164 135q8 7 19 7q19 0 41 -17t37.5 -42t15.5 -45q0 -10 -5.5 -16.5t-21.5 -15.5l-195 -102q-7 -3 -14 -3z" />
    <glyph glyph-name="Rcaron" unicode="&#x158;" 
d="M43 0q-19 8 -16 26l49 291q14 83 29.5 127t38.5 71l3 20q-20 -4 -36 -4q-13 0 -18.5 6t-5.5 23q0 21 5 47q7 40 17 54.5t35 21.5q78 22 205 22q126 0 190.5 -58.5t64.5 -168.5q0 -68 -34.5 -131t-105.5 -107q57 -68 88 -137q11 -25 11 -40q0 -18 -26.5 -34.5t-63 -26.5
t-61.5 -10q-21 0 -29.5 9t-17.5 37q-21 71 -57 142q-35 0 -73 6q-7 -86 -20 -160q-3 -18 -24.5 -26t-74.5 -8q-54 0 -73 8zM325 345q24 0 36 1q56 58 56 125q0 75 -82 75q-19 0 -37 -3q-4 -41 -13.5 -98.5t-19.5 -95.5q27 -4 60 -4zM206 911q0 11 14.5 25t36 23.5t38.5 9.5
q12 0 22 -8l98 -93l131 93q10 7 24 7q17 0 35.5 -10t31 -25t12.5 -28q0 -4 -4 -9t-11 -11l-138 -120q-14 -13 -40 -20t-54 -7t-51.5 7t-34.5 20l-102 131q-8 9 -8 15z" />
    <glyph glyph-name="rcaron" unicode="&#x159;" 
d="M62.5 0q-18.5 8 -15.5 26l55 331q-18 88 -18 143q0 22 36.5 38t80.5 16q27 0 41 -5.5t15 -18.5q3 -27 6 -86h12q86 110 216 110q30 0 56 -7.5t36 -20.5q9 -12 14 -43.5t5 -71.5q0 -42 -6 -81q-8 -50 -111 -50q-38 0 -53 5.5t-16 18.5q-2 22 3 71h-6q-90 0 -151 -105
q-10 -115 -31 -244q-3 -18 -23.5 -26t-73.5 -8t-71.5 8zM189 756q0 11 13.5 25t32.5 23.5t34 9.5q13 0 21 -8l89 -93l119 93q8 7 22 7q24 0 48 -21t24 -42q0 -4 -4 -9t-10 -11l-125 -120q-13 -13 -36.5 -20t-49.5 -7t-47.5 7t-30.5 20l-93 131q-7 9 -7 15z" />
    <glyph glyph-name="Sacute" unicode="&#x15a;" 
d="M158.5 -6q-48.5 9 -84.5 26q-20 9 -27.5 18.5t-7.5 25.5q0 26 10.5 55.5t26 49t30.5 19.5q2 0 8 -2q37 -18 79.5 -28.5t84.5 -10.5q38 0 60.5 13t22.5 39q0 18 -16.5 31t-60.5 27q-56 18 -94 39.5t-62.5 62.5t-24.5 108q0 116 73 180.5t198 64.5q60 0 115.5 -13t68.5 -29
q7 -9 11 -32.5t4 -50.5q0 -25 -3 -42q-4 -25 -34.5 -36t-78.5 -11q-35 0 -46.5 6t-11.5 22q0 18 1 26q-15 4 -37 4q-36 0 -55.5 -16t-19.5 -48q0 -24 15.5 -36.5t48.5 -22.5q99 -32 146 -81t47 -130q0 -110 -76.5 -173.5t-209.5 -63.5q-52 0 -100.5 9zM322 739q-16 0 -32 12
t-26 28.5t-10 29.5q0 7 4.5 12.5t18.5 16.5l181 135q8 7 21 7q20 0 44.5 -17t41.5 -42t17 -45q0 -10 -6 -16.5t-24 -15.5l-214 -102q-7 -3 -16 -3z" />
    <glyph glyph-name="sacute" unicode="&#x15b;" 
d="M85 18q-13 6 -18 13.5t-5 22.5q0 20 9 48.5t23.5 47.5t30.5 13q80 -31 154 -31q35 0 50.5 7t15.5 21q0 12 -11.5 18.5t-43.5 14.5q-65 16 -103.5 32.5t-62 49.5t-23.5 89q0 94 67 142.5t177 48.5q103 0 176 -29q13 -6 17.5 -13.5t4.5 -23.5q0 -20 -8 -46t-22 -44.5
t-29 -18.5q-7 0 -10 2q-70 32 -136 32q-30 0 -43 -6.5t-13 -20.5t12 -20.5t41 -13.5q100 -23 146 -62t46 -113q0 -94 -69 -142t-185 -48t-188 30zM318 584q-15 0 -29 12t-23.5 28.5t-9.5 29.5q0 7 4 12.5t17 16.5l164 135q8 7 19 7q19 0 41 -17t37.5 -42t15.5 -45
q0 -10 -5.5 -16.5t-21.5 -15.5l-195 -102q-7 -3 -14 -3z" />
    <glyph glyph-name="Scircumflex" unicode="&#x15c;" 
d="M158.5 -6q-48.5 9 -84.5 26q-20 9 -27.5 18.5t-7.5 25.5q0 26 10.5 55.5t26 49t30.5 19.5q2 0 8 -2q37 -18 79.5 -28.5t84.5 -10.5q38 0 60.5 13t22.5 39q0 18 -16.5 31t-60.5 27q-56 18 -94 39.5t-62.5 62.5t-24.5 108q0 116 73 180.5t198 64.5q60 0 115.5 -13t68.5 -29
q7 -9 11 -32.5t4 -50.5q0 -25 -3 -42q-4 -25 -34.5 -36t-78.5 -11q-35 0 -46.5 6t-11.5 22q0 18 1 26q-15 4 -37 4q-36 0 -55.5 -16t-19.5 -48q0 -24 15.5 -36.5t48.5 -22.5q99 -32 146 -81t47 -130q0 -110 -76.5 -173.5t-209.5 -63.5q-52 0 -100.5 9zM619 796
q0 -11 -14.5 -25t-36 -23.5t-38.5 -9.5q-12 0 -22 8l-98 93l-131 -93q-10 -7 -24 -7q-17 0 -35.5 10t-31 25t-12.5 28q0 4 4 9t11 11l138 120q14 13 40 20t54 7q29 0 52.5 -7t33.5 -20l102 -131q8 -9 8 -15z" />
    <glyph glyph-name="scircumflex" unicode="&#x15d;" 
d="M85 18q-13 6 -18 13.5t-5 22.5q0 20 9 48.5t23.5 47.5t30.5 13q80 -31 154 -31q35 0 50.5 7t15.5 21q0 12 -11.5 18.5t-43.5 14.5q-65 16 -103.5 32.5t-62 49.5t-23.5 89q0 94 67 142.5t177 48.5q103 0 176 -29q13 -6 17.5 -13.5t4.5 -23.5q0 -20 -8 -46t-22 -44.5
t-29 -18.5q-7 0 -10 2q-70 32 -136 32q-30 0 -43 -6.5t-13 -20.5t12 -20.5t41 -13.5q100 -23 146 -62t46 -113q0 -94 -69 -142t-185 -48t-188 30zM574 641q0 -11 -13.5 -25t-32.5 -23.5t-34 -9.5q-13 0 -21 8l-89 93l-119 -93q-8 -7 -22 -7q-24 0 -48 21t-24 42q0 4 4 9
t10 11l125 120q14 13 37 20t49 7t47.5 -7t30.5 -20l93 -131q7 -9 7 -15z" />
    <glyph glyph-name="Scedilla" unicode="&#x15e;" 
d="M49.5 119.5q10.5 29.5 26 49t30.5 19.5q2 0 8 -2q37 -18 79.5 -28.5t84.5 -10.5q38 0 60.5 13t22.5 39q0 18 -16.5 31t-60.5 27q-56 18 -94 39.5t-62.5 62.5t-24.5 108q0 116 73 180.5t198 64.5q60 0 115.5 -13t68.5 -29q7 -9 11 -32.5t4 -50.5q0 -25 -3 -42
q-4 -25 -34.5 -36t-78.5 -11q-35 0 -46.5 6t-11.5 22q0 18 1 26q-15 4 -37 4q-36 0 -55.5 -16t-19.5 -48q0 -24 15.5 -36.5t48.5 -22.5q99 -32 146 -81t47 -130q0 -97 -60 -158t-167 -75l-1 -4l-50 -159q-5 -16 -23.5 -23.5t-43.5 -7.5q-34 0 -62 11.5t-28 28.5q0 10 16 37
l69 117q-70 8 -121 31q-20 9 -27.5 18.5t-7.5 25.5q0 26 10.5 55.5z" />
    <glyph glyph-name="scedilla" unicode="&#x15f;" 
d="M71 102.5q9 28.5 23.5 47.5t30.5 13q80 -31 154 -31q35 0 50.5 7t15.5 21q0 12 -11.5 18.5t-43.5 14.5q-65 16 -103.5 32.5t-62 49.5t-23.5 89q0 94 67 142.5t177 48.5q103 0 176 -29q13 -6 17.5 -13.5t4.5 -23.5q0 -20 -8 -46t-22 -44.5t-29 -18.5q-7 0 -10 2
q-70 32 -136 32q-30 0 -43 -6.5t-13 -20.5t12 -20.5t41 -13.5q100 -23 146 -62t46 -113q0 -84 -56 -131.5t-152 -56.5l-2 -5l-50 -159q-5 -16 -23.5 -23.5t-43.5 -7.5q-34 0 -62 11.5t-28 28.5q0 10 16 37l71 120q-66 6 -112 26q-13 6 -18 13.5t-5 22.5q0 20 9 48.5z" />
    <glyph glyph-name="Utilde" unicode="&#x168;" 
d="M106.5 43.5q-56.5 55.5 -56.5 161.5q0 134 75 466q5 18 25.5 26t73.5 8q49 0 68.5 -7t19.5 -25l-2 -12q-23 -90 -50 -231.5t-28 -196.5q0 -66 56 -66q29 0 50 18.5t32 60.5q18 63 38 183t32 232q2 25 23 34.5t77 9.5q53 0 71 -8t18 -26q-14 -135 -37.5 -282t-52.5 -229
t-95.5 -127t-170.5 -45q-110 0 -166.5 55.5zM428 765q-28 17 -57 46q-14 14 -22.5 21t-17.5 7q-11 0 -21.5 -16.5t-24.5 -54.5q-4 -12 -22.5 -18.5t-42.5 -6.5q-31 0 -54 9.5t-19 24.5q50 198 188 198q45 0 74 -17t56 -46q14 -14 22.5 -21t17.5 -7q12 0 22.5 16.5t23.5 55.5
q5 12 23.5 18t42.5 6q31 0 54 -9t19 -25q-50 -198 -189 -198q-45 0 -73 17z" />
    <glyph glyph-name="utilde" unicode="&#x169;" 
d="M265.5 543q19.5 -7 19.5 -24q0 -3 -2 -13q-22 -74 -37 -148t-15 -115q0 -66 40 -66q24 0 53 25t56 70q14 124 34 244q3 18 24 26t74 8q52 0 70.5 -8t15.5 -26l-43 -261q-21 -122 -29 -202l-4 -27q-3 -18 -24.5 -26t-73.5 -8q-49 0 -68 6.5t-19 21.5q0 16 14 66h-16
q-44 -51 -89 -74.5t-87 -23.5q-117 0 -117 179q0 130 60 349q6 18 26 26t71 8q47 0 66.5 -7zM381 610.5q-26 17.5 -51 46.5q-14 15 -21 21t-15 6q-10 0 -20 -16.5t-22 -54.5q-4 -12 -21 -18.5t-39 -6.5q-27 0 -48 9.5t-18 24.5q46 198 171 198q41 0 66.5 -16.5t52.5 -46.5
q11 -14 19.5 -21t16.5 -7q10 0 20 17t22 55q4 12 20.5 18t39.5 6q28 0 48.5 -9t17.5 -25q-46 -198 -172 -198q-41 0 -67 17.5z" />
    <glyph glyph-name="Wcircumflex" unicode="&#x174;" 
d="M73.5 -2q-15.5 6 -20.5 21.5t-5 50.5q0 114 16.5 314t31.5 286q3 18 25 27.5t70 9.5t66 -8.5t15 -26.5q-62 -292 -94 -504h20q36 80 64 169q4 93 14 156q6 40 78 40q36 0 51.5 -10t12.5 -30q-7 -45 -38 -156l-1 -35q0 -68 9 -134h20q44 253 74 504q3 18 24 26.5t69 8.5
t66 -9.5t15 -27.5q-17 -98 -67 -299t-87 -309q-10 -31 -20.5 -45t-27.5 -19.5t-50 -5.5q-36 0 -53 5t-23.5 17t-8.5 38q-2 46 -2 72q0 72 7 161h-20q-31 -127 -71 -233q-11 -26 -21.5 -38t-30 -17t-57.5 -5q-35 0 -50.5 6zM619 796q0 -11 -14.5 -25t-36 -23.5t-38.5 -9.5
q-12 0 -22 8l-98 93l-131 -93q-10 -7 -24 -7q-17 0 -35.5 10t-31 25t-12.5 28q0 4 4 9t11 11l138 120q14 13 40 20t54 7q29 0 52.5 -7t33.5 -20l102 -131q8 -9 8 -15z" />
    <glyph glyph-name="wcircumflex" unicode="&#x175;" 
d="M72.5 1q-15.5 7 -20 24.5t-4.5 60.5q0 75 7.5 180t17.5 198q7 56 6 50q3 18 23.5 27.5t66.5 9.5q45 0 62 -8.5t14 -26.5q-46 -194 -70 -352h20q33 51 54 105q5 89 12 126q3 20 21 30t53 10t50 -10t12 -30q-10 -54 -30 -126q3 -54 18 -105h20q31 166 50 352
q3 18 23.5 26.5t65.5 8.5q78 0 78 -31q0 -14 -11 -56q-21 -100 -51 -213t-56 -187q-11 -31 -21.5 -45t-27.5 -19.5t-50 -5.5q-36 0 -53.5 5t-24 17t-10.5 38q-8 58 -8 113l1 30h-20q-21 -72 -55 -143q-12 -26 -23.5 -38t-30.5 -17t-56 -5t-52.5 7zM574 641q0 -11 -13.5 -25
t-32.5 -23.5t-34 -9.5q-13 0 -21 8l-89 93l-119 -93q-8 -7 -22 -7q-24 0 -48 21t-24 42q0 4 4 9t10 11l125 120q14 13 37 20t49 7t47.5 -7t30.5 -20l93 -131q7 -9 7 -15z" />
    <glyph glyph-name="Ycircumflex" unicode="&#x176;" 
d="M175 26q21 120 46 228q-45 85 -76 179t-46 187q-2 13 -2 22q0 15 22 30t54.5 25t62.5 10q23 0 33 -10.5t11 -32.5q6 -126 35 -243h20q65 112 115 243q8 22 22.5 32.5t38.5 10.5q52 0 94 -16.5t42 -39.5q0 -13 -10 -31q-102 -205 -245 -367q-14 -143 -29 -227
q-6 -34 -99 -34q-95 0 -89 34zM619 796q0 -11 -14.5 -25t-36 -23.5t-38.5 -9.5q-12 0 -22 8l-98 93l-131 -93q-10 -7 -24 -7q-17 0 -35.5 10t-31 25t-12.5 28q0 4 4 9t11 11l138 120q14 13 40 20t54 7q29 0 52.5 -7t33.5 -20l102 -131q8 -9 8 -15z" />
    <glyph glyph-name="Zacute" unicode="&#x179;" 
d="M10 43q0 14 3 35q7 48 21.5 79t45.5 67q135 158 279 284l4 21q-130 -10 -225 -10q-22 0 -22 40q0 41 13 89.5t39 48.5h418q29 0 29 -43q0 -18 -4 -38q-7 -46 -21 -76.5t-45 -66.5q-126 -150 -281 -285l-3 -20q144 10 266 10q22 0 22 -40q0 -41 -13 -89.5t-39 -48.5h-458
q-29 0 -29 43zM322 739q-16 0 -32 12t-26 28.5t-10 29.5q0 7 4.5 12.5t18.5 16.5l181 135q8 7 21 7q20 0 44.5 -17t41.5 -42t17 -45q0 -10 -6 -16.5t-24 -15.5l-214 -102q-7 -3 -16 -3z" />
    <glyph glyph-name="zacute" unicode="&#x17a;" 
d="M286.5 -27q-81.5 23 -136.5 58l-39 -36q-8 -8 -22 -8q-24 0 -47 23.5t-23 50.5q0 16 11.5 31t43.5 45l248 229v12h-209q-12 0 -17 9t-5 30q0 37 12.5 81t36.5 44h400q16 0 23 -10t7 -33q0 -37 -8 -61.5t-23.5 -44t-46.5 -47.5l-213 -197l-1 -12q80 -15 151 -18l5 64
q2 29 59 29q33 0 56.5 -9.5t21.5 -31.5q-2 -26 -14 -75.5t-24 -81.5q-14 -36 -34.5 -50t-65.5 -14q-65 0 -146.5 23zM318 584q-15 0 -29 12t-23.5 28.5t-9.5 29.5q0 7 4 12.5t17 16.5l164 135q8 7 19 7q19 0 41 -17t37.5 -42t15.5 -45q0 -10 -5.5 -16.5t-21.5 -15.5
l-195 -102q-7 -3 -14 -3z" />
    <glyph glyph-name="Zdotaccent" unicode="&#x17b;" 
d="M10 43q0 14 3 35q7 48 21.5 79t45.5 67q135 158 279 284l4 21q-130 -10 -225 -10q-22 0 -22 40q0 41 13 89.5t39 48.5h418q29 0 29 -43q0 -18 -4 -38q-7 -46 -21 -76.5t-45 -66.5q-126 -150 -281 -285l-3 -20q144 10 266 10q22 0 22 -40q0 -41 -13 -89.5t-39 -48.5h-458
q-29 0 -29 43zM311.5 773q-25.5 14 -25.5 47q0 15 2 24q8 46 39.5 65.5t103.5 19.5q63 0 89.5 -14.5t26.5 -47.5q0 -15 -2 -23q-8 -46 -40 -65.5t-105 -19.5q-63 0 -88.5 14z" />
    <glyph glyph-name="zcaron" unicode="&#x17e;" 
d="M286.5 -27q-81.5 23 -136.5 58l-39 -36q-8 -8 -22 -8q-24 0 -47 23.5t-23 50.5q0 16 11.5 31t43.5 45l248 229v12h-209q-12 0 -17 9t-5 30q0 37 12.5 81t36.5 44h400q16 0 23 -10t7 -33q0 -37 -8 -61.5t-23.5 -44t-46.5 -47.5l-213 -197l-1 -12q80 -15 151 -18l5 64
q2 29 59 29q33 0 56.5 -9.5t21.5 -31.5q-2 -26 -14 -75.5t-24 -81.5q-14 -36 -34.5 -50t-65.5 -14q-65 0 -146.5 23zM189 756q0 11 13.5 25t32.5 23.5t34 9.5q13 0 21 -8l89 -93l119 93q8 7 22 7q24 0 48 -21t24 -42q0 -4 -4 -9t-10 -11l-125 -120q-13 -13 -36.5 -20
t-49.5 -7t-47.5 7t-30.5 20l-93 131q-7 9 -7 15z" />
    <glyph glyph-name="uni0401" unicode="&#x401;" 
d="M64 14.5q-12 14.5 -8 38.5l43 261q14 83 29.5 127t38.5 71l3 20q-24 -4 -36 -4q-11 0 -16 9t-5 29q0 39 12.5 85t36.5 46h434q11 0 16 -9t5 -29q0 -39 -12.5 -85t-36.5 -46q-113 0 -248 10q-1 -53 -18 -109q124 7 212 7q11 0 16 -8.5t5 -27.5q0 -37 -12 -80t-36 -43
q-87 0 -209 7q-3 -63 -21 -125q140 10 257 10q11 0 16 -9t5 -29q0 -39 -12.5 -85t-36.5 -46h-386q-24 0 -36 14.5zM183.5 773q-23.5 14 -23.5 45q0 11 3 26q8 46 36.5 65.5t95.5 19.5q56 0 80 -14t24 -46q0 -11 -3 -25q-8 -46 -37.5 -65.5t-95.5 -19.5q-56 0 -79.5 14z
M474.5 909.5q28.5 19.5 95.5 19.5q56 0 80 -14t24 -46q0 -11 -3 -25q-8 -46 -37.5 -65.5t-95.5 -19.5q-56 0 -79.5 14t-23.5 45q0 11 3 26q8 46 36.5 65.5z" />
    <glyph glyph-name="uni040E" unicode="&#x40e;" 
d="M44 -6q-14 3 -21 17t-7 44q0 46 11.5 77.5t31.5 31.5q7 0 20 -1.5t22 -1.5q57 0 93.5 15.5t64.5 51.5l-2 12q-48 -9 -75 -9q-11 0 -17 6.5t-11 21.5q-27 101 -46 220.5t-19 168.5q0 26 43 41.5t97 15.5q24 0 35.5 -8.5t11.5 -27.5q7 -166 34 -310h20q73 150 130 310
q7 21 16 28.5t25 7.5q56 0 104.5 -17.5t48.5 -40.5q0 -12 -10 -35q-28 -66 -79.5 -172t-93.5 -185q-75 -144 -160.5 -205.5t-197.5 -61.5q-42 0 -69 6zM268.5 782.5q-44.5 44.5 -47.5 119.5q-1 18 32.5 32t64.5 14q29 0 29 -14q1 -45 11 -62.5t44 -17.5t50.5 18t32.5 62
q4 14 35 14q33 0 64 -14t25 -32q-27 -75 -86.5 -119.5t-134.5 -44.5t-119.5 44.5z" />
    <glyph glyph-name="uni0410" unicode="&#x410;" 
d="M5.5 -1.5q-21.5 6.5 -21.5 20.5q0 7 3.5 19t9.5 32q85 281 232 587q14 27 45.5 38.5t108.5 11.5q53 0 81.5 -5.5t40.5 -16t14 -28.5q39 -268 39 -511q0 -51 -1 -76q-1 -30 -3 -47q-3 -16 -25 -23.5t-73 -7.5q-47 0 -65 6.5t-18 26.5q0 59 9 113q-46 -6 -91 -6
q-44 0 -89 6q-8 -44 -27 -109q-7 -23 -27.5 -30t-71.5 -7q-49 0 -70.5 6.5zM317 290q23 0 73 -4q-6 76 -10 174l-5 98h-22q-12 -28 -53 -132q-29 -75 -57 -140q50 4 74 4z" />
    <glyph glyph-name="uni0411" unicode="&#x411;" 
d="M155.5 1.5q-60.5 9.5 -96.5 23.5q-16 6 -23 14t-7 22q0 4 2 18l39 235q14 83 29.5 127t38.5 71l3 20q-24 -4 -36 -4q-11 0 -17 7.5t-6 26.5q0 18 6 51q8 48 18.5 66t26.5 18h442q11 0 16.5 -7.5t5.5 -26.5t-6 -55q-8 -50 -19 -69.5t-27 -19.5q-130 0 -254 10
q-3 -57 -17 -99q33 5 58 5q238 0 238 -196q0 -64 -30.5 -120.5t-97.5 -91.5t-171 -35q-55 0 -115.5 9.5zM280 150q103 0 103 89q0 31 -19.5 44.5t-62.5 13.5q-30 0 -49 -5q-2 -28 -9 -68.5t-14 -68.5q25 -5 51 -5z" />
    <glyph glyph-name="uni0412" unicode="&#x412;" 
d="M145.5 0.5q-59.5 8.5 -93.5 23.5q-16 7 -23 15t-7 22q0 4 2 18l40 238q14 83 29.5 127t38.5 71l3 20q-20 -4 -36 -4q-13 0 -18.5 6t-5.5 23q0 21 5 47q7 40 17 54.5t35 21.5q38 11 93 16.5t113 5.5q258 0 258 -169q0 -116 -106 -171l-4 -20q40 -15 61 -47.5t21 -80.5
q0 -75 -40 -125.5t-107.5 -75t-150.5 -24.5q-65 0 -124.5 8.5zM273 132q49 0 79 22.5t30 63.5q0 33 -21 50.5t-60 17.5q-27 0 -59 -5q-6 -72 -22 -140q18 -9 53 -9zM340 406q28 16 46 42t18 54q0 63 -77 63q-11 0 -37 -2q-7 -73 -28 -161q36 4 78 4z" />
    <glyph glyph-name="uni0413" unicode="&#x413;" 
d="M85 0q-19 8 -16 26l48 288q14 83 29.5 127t38.5 71l3 20q-24 -4 -36 -4q-11 0 -16 9t-5 29q0 39 12.5 85t36.5 46h419q22 0 22 -40q0 -41 -13 -89.5t-39 -48.5q-113 0 -238 10q-21 -193 -74 -503q-3 -18 -24.5 -26t-74.5 -8q-54 0 -73 8z" />
    <glyph glyph-name="uni0414" unicode="&#x414;" 
d="M-27 -153q-19 8 -16 26l42 252q4 22 18.5 36.5t36.5 16.5q37 45 65.5 125.5t51.5 218.5q-17 -4 -29 -4q-22 0 -22 40q0 41 13 90t39 49h394q24 0 35.5 -14.5t7.5 -38.5q-25 -151 -50 -263.5t-56 -202.5h27q24 0 35.5 -14.5t7.5 -38.5l-42 -252q-3 -18 -25 -26t-75 -8
q-54 0 -72.5 8t-15.5 26q7 52 32 134q-62 -8 -110 -8q-49 0 -108 8q-1 -59 -6 -94t-6 -40q-3 -18 -24.5 -26t-75.5 -8q-53 0 -72 8zM287 178q41 0 62 -2q17 180 62 346q-22 -3 -46 -3q-22 0 -45 3q-1 -25 -6 -51q-18 -108 -44 -179.5t-63 -117.5q36 4 80 4z" />
    <glyph glyph-name="uni0415" unicode="&#x415;" 
d="M64 14.5q-12 14.5 -8 38.5l43 261q14 83 29.5 127t38.5 71l3 20q-24 -4 -36 -4q-11 0 -16 9t-5 29q0 39 12.5 85t36.5 46h434q11 0 16 -9t5 -29q0 -39 -12.5 -85t-36.5 -46q-113 0 -248 10q-1 -53 -18 -109q124 7 212 7q11 0 16 -8.5t5 -27.5q0 -37 -12 -80t-36 -43
q-87 0 -209 7q-3 -63 -21 -125q140 10 257 10q11 0 16 -9t5 -29q0 -39 -12.5 -85t-36.5 -46h-386q-24 0 -36 14.5z" />
    <glyph glyph-name="uni0416" unicode="&#x416;" 
d="M409.5 -1.5q-7.5 6.5 -6.5 25.5q3 47 3 94q0 87 -9 160q-7 -1 -23 -1q-7 -163 -22 -251q-3 -18 -21 -26t-63 -8t-61 8t-13 26q14 82 62 251q-17 0 -23 1q-58 -135 -90 -254q-5 -19 -15 -25.5t-30 -6.5q-40 0 -78.5 14.5t-38.5 35.5q0 18 18 64q22 57 61 137t75 139
q-19 48 -32 111.5t-14 107.5l-1 58q0 22 33 34t73 12q26 0 35.5 -7t8.5 -26q-1 -20 -1 -59q0 -94 14 -178q8 -1 23 -1q7 160 20 237q2 18 20.5 26t63.5 8t60.5 -8t13.5 -26q-13 -80 -60 -237q16 0 23 1q55 108 93 237q5 19 17 26t37 7q34 0 65.5 -13.5t31.5 -34.5
q0 -18 -19 -68q-15 -46 -51 -114t-72 -118q20 -65 34 -152.5t14 -138.5q0 -14 -2 -32q-4 -21 -43.5 -31.5t-81.5 -10.5q-21 0 -28.5 6.5z" />
    <glyph glyph-name="uni0417" unicode="&#x417;" 
d="M160 -6q-50 9 -86 25q-20 9 -28 18.5t-8 23.5q0 26 10 58.5t25.5 55t30.5 22.5q8 0 35 -12q33 -15 61.5 -23.5t65.5 -8.5q96 0 96 57q0 41 -54 68q-62 -11 -109 -11q-30 0 -30 48q0 38 14 79t44 41q18 0 55.5 -4.5t61.5 -10.5q31 19 44.5 35.5t13.5 34.5q0 25 -19.5 37
t-61.5 12q-9 0 -25 -2l-8 -23q-4 -13 -11.5 -18.5t-23.5 -5.5q-55 0 -91.5 11t-36.5 34q0 26 19.5 75t39.5 65q15 13 66 22.5t104 9.5q110 0 169 -41t59 -116q0 -54 -29.5 -102.5t-82.5 -81.5l-4 -20q41 -23 59 -56t18 -79q0 -67 -35.5 -118.5t-99 -79.5t-144.5 -28
q-54 0 -104 9z" />
    <glyph glyph-name="uni0418" unicode="&#x418;" 
d="M283.5 697q18.5 -8 15.5 -26q-13 -80 -47.5 -226.5t-65.5 -245.5h20q56 158 193 451q12 24 24.5 35t34.5 15.5t65 4.5q70 0 96.5 -9.5t22.5 -33.5l-106 -636q-3 -18 -24.5 -26t-75.5 -8q-94 0 -88 34q13 81 48 227t66 245h-20q-57 -166 -194 -451q-12 -24 -24 -35
t-34 -15.5t-65 -4.5q-71 0 -97.5 9.5t-22.5 33.5l106 636q3 18 25 26t76 8q53 0 71.5 -8z" />
    <glyph glyph-name="uni0419" unicode="&#x419;" 
d="M283.5 697q18.5 -8 15.5 -26q-13 -80 -47.5 -226.5t-65.5 -245.5h20q56 158 193 451q12 24 24.5 35t34.5 15.5t65 4.5q70 0 96.5 -9.5t22.5 -33.5l-106 -636q-3 -18 -24.5 -26t-75.5 -8q-94 0 -88 34q13 81 48 227t66 245h-20q-57 -166 -194 -451q-12 -24 -24 -35
t-34 -15.5t-65 -4.5q-71 0 -97.5 9.5t-22.5 33.5l106 636q3 18 25 26t76 8q53 0 71.5 -8zM268.5 782.5q-44.5 44.5 -47.5 119.5q-1 18 32.5 32t64.5 14q29 0 29 -14q1 -45 11 -62.5t44 -17.5t50.5 18t32.5 62q4 14 35 14q33 0 64 -14t25 -32q-27 -75 -86.5 -119.5
t-134.5 -44.5t-119.5 44.5z" />
    <glyph glyph-name="uni041A" unicode="&#x41a;" 
d="M380.5 -1.5q-7.5 6.5 -11.5 25.5q-25 126 -87 244q-27 -4 -52 -5q-14 -151 -30 -237q-3 -18 -24.5 -26t-74.5 -8t-72 8t-16 26l108 645q3 18 24 26t74 8t72 -8t17 -26q-25 -132 -48 -230q32 2 46 4q75 114 130 227q9 18 19.5 25.5t28.5 7.5q31 0 65.5 -9t58 -23.5
t23.5 -30.5q0 -15 -18 -47q-28 -52 -81.5 -124t-103.5 -123q42 -59 77 -127.5t49 -120.5q5 -22 5 -36q0 -20 -26.5 -36.5t-63 -26t-63.5 -9.5q-18 0 -25.5 6.5z" />
    <glyph glyph-name="uni041B" unicode="&#x41b;" 
d="M41.5 13.5q-24.5 21.5 -40.5 52t-16 53.5q0 14 8 25.5t22 19.5q39 23 69 62t56.5 110t50.5 186q-17 -4 -29 -4q-22 0 -22 40q0 41 13 90t39 49h394q24 0 35.5 -14.5t7.5 -38.5l-103 -618q-3 -18 -24.5 -26t-74.5 -8q-54 0 -73 8t-16 26l8 47q48 289 85 449q-22 -3 -46 -3
q-22 0 -45 3q-6 -54 -11 -81q-22 -132 -51 -218t-68 -138t-93 -85q-13 -8 -26 -8q-25 0 -49.5 21.5z" />
    <glyph glyph-name="uni041C" unicode="&#x41c;" 
d="M5.5 1.5q-17.5 9.5 -14.5 27.5q26 152 61 331t65 297q7 27 36.5 38.5t91.5 11.5q54 0 74.5 -11.5t19.5 -38.5q-5 -123 -24 -284h20q16 71 33.5 146t36.5 138q8 27 33.5 38.5t80.5 11.5q63 0 88.5 -11.5t23.5 -38.5q-10 -122 -34 -303.5t-48 -324.5q-3 -18 -23.5 -27.5
t-66.5 -9.5q-45 0 -62.5 8t-14.5 26q47 211 96 501h-20q-39 -124 -75 -268q-5 -20 -24 -29.5t-57 -9.5t-54 9.5t-15 29.5q7 76 13 229l2 39h-20q-45 -268 -72 -501q-3 -18 -22.5 -26t-64.5 -8q-46 0 -63.5 9.5z" />
    <glyph glyph-name="uni041D" unicode="&#x41d;" 
d="M28.5 0q-19.5 8 -16.5 26l108 645q3 18 24.5 26t74.5 8t72 -8t17 -26q-18 -105 -49 -231q34 5 80 5t78 -5q10 118 29 231q2 18 23.5 26t75.5 8q53 0 72.5 -8t16.5 -26l-108 -645q-3 -18 -24.5 -26t-74.5 -8q-54 0 -73 8t-16 26q20 120 52 250q-45 -5 -80 -5t-78 5
q-11 -126 -32 -250q-3 -18 -24.5 -26t-74.5 -8t-72.5 8z" />
    <glyph glyph-name="uni041E" unicode="&#x41e;" 
d="M100.5 62q-62.5 74 -62.5 230q0 104 30 198.5t101 156.5t188 62q127 0 189.5 -74t62.5 -230q0 -104 -30 -198.5t-101 -156.5t-188 -62q-127 0 -189.5 74zM243.5 186q20.5 -29 65.5 -29q58 0 86.5 76.5t28.5 177.5q0 71 -20.5 100t-65.5 29q-58 0 -86.5 -76.5
t-28.5 -177.5q0 -71 20.5 -100z" />
    <glyph glyph-name="uni041F" unicode="&#x41f;" 
d="M28.5 0q-19.5 8 -16.5 26l48 288q14 83 29.5 127t38.5 71l3 20q-24 -4 -36 -4q-11 0 -16 9t-5 29q0 39 12.5 85t36.5 46h463q24 0 35.5 -14.5t7.5 -38.5l-103 -618q-3 -18 -24.5 -26t-74.5 -8q-54 0 -73 8t-16 26q6 30 8 49q5 27 30 171t55 277q-54 -4 -80 -4t-78 4
q-20 -186 -73 -497q-3 -18 -24.5 -26t-74.5 -8t-72.5 8z" />
    <glyph glyph-name="uni0420" unicode="&#x420;" 
d="M38.5 0q-19.5 8 -16.5 26l45 271q14 82 30 126.5t38 71.5l4 20q-20 -4 -36 -4q-13 0 -18.5 6.5t-5.5 25.5q0 18 6 54q8 45 18.5 62t35.5 24q38 11 94.5 16.5t115.5 5.5q258 0 258 -235q0 -78 -30.5 -145.5t-98.5 -110t-173 -42.5q-37 0 -76 7q-9 -101 -19 -153
q-3 -18 -24.5 -26t-74.5 -8t-72.5 8zM311 330q108 0 108 131q0 46 -19 65.5t-63 19.5q-22 0 -44 -5q-3 -40 -13.5 -100.5t-20.5 -104.5q23 -6 52 -6z" />
    <glyph glyph-name="uni0421" unicode="&#x421;" 
d="M119 54.5q-67 65.5 -67 213.5q0 110 37 210.5t115.5 165t196.5 64.5q75 0 129.5 -17.5t70.5 -44.5q12 -20 12 -99q0 -47 -4 -68q-4 -25 -34.5 -37t-76.5 -12q-38 0 -53.5 7.5t-15.5 25.5q0 19 4 69q-18 8 -54 8q-49 0 -79.5 -40.5t-44 -97t-13.5 -107.5q0 -70 23 -99.5
t70 -29.5q60 0 140 33q9 3 16 3q28 0 44.5 -35t16.5 -74q0 -21 -5.5 -34.5t-21.5 -21.5q-41 -21 -99 -34.5t-111 -13.5q-129 0 -196 65.5z" />
    <glyph glyph-name="uni0422" unicode="&#x422;" 
d="M191.5 0q-19.5 8 -16.5 26q6 30 8 49q5 27 30 171.5t56 282.5q-92 -10 -160 -10q-22 0 -22 40q0 41 13 89.5t39 48.5h484q22 0 22 -40q0 -41 -13 -89.5t-39 -48.5q-58 0 -156 10q-21 -193 -74 -503q-3 -18 -24.5 -26t-74.5 -8t-72.5 8z" />
    <glyph glyph-name="uni0423" unicode="&#x423;" 
d="M44 -6q-14 3 -21 17t-7 44q0 46 11.5 77.5t31.5 31.5q7 0 20 -1.5t22 -1.5q57 0 93.5 15.5t64.5 51.5l-2 12q-48 -9 -75 -9q-11 0 -17 6.5t-11 21.5q-27 101 -46 220.5t-19 168.5q0 26 43 41.5t97 15.5q24 0 35.5 -8.5t11.5 -27.5q7 -166 34 -310h20q73 150 130 310
q7 21 16 28.5t25 7.5q56 0 104.5 -17.5t48.5 -40.5q0 -12 -10 -35q-28 -66 -79.5 -172t-93.5 -185q-75 -144 -160.5 -205.5t-197.5 -61.5q-42 0 -69 6z" />
    <glyph glyph-name="uni0424" unicode="&#x424;" 
d="M189.5 -7q-18.5 8 -15.5 26q8 40 15 61q-77 19 -114.5 75.5t-37.5 152.5q0 121 56 207.5t185 107.5q1 28 6 55q3 18 24.5 26t74.5 8q54 0 73 -8t16 -26q-8 -40 -15 -60q77 -20 114 -76t37 -152q0 -121 -56.5 -208.5t-184.5 -107.5q0 -25 -5 -55q-3 -18 -24.5 -26
t-75.5 -8t-72.5 8zM204.5 244.5q10.5 -21.5 34.5 -29.5q19 151 45 266q-53 -17 -71.5 -63t-18.5 -113q0 -39 10.5 -60.5zM433 280.5q19 45.5 19 110.5q0 38 -10.5 59.5t-34.5 30.5q-16 -126 -44 -264q51 18 70 63.5z" />
    <glyph glyph-name="uni0425" unicode="&#x425;" 
d="M73 -4q-33 10 -55 26t-22 34q0 16 17 46q39 68 91.5 144.5t99.5 131.5q-26 54 -52 118.5t-40 110.5q-5 23 -5 32q0 22 24 38.5t58 25t61 8.5q16 0 23.5 -8.5t11.5 -33.5q19 -101 47 -186h21q52 93 94 186q12 25 23 33.5t26 8.5q31 0 64 -9.5t54.5 -26t21.5 -34.5
q0 -13 -18 -46q-31 -52 -80.5 -123t-90.5 -121q31 -58 58.5 -130.5t42.5 -130.5q5 -23 5 -32q0 -22 -25 -38.5t-60.5 -25t-62.5 -8.5q-14 0 -21 9t-11 34q-18 113 -55 220h-20q-69 -115 -115 -221q-12 -25 -22 -33.5t-24 -8.5q-31 0 -64 10z" />
    <glyph glyph-name="uni0426" unicode="&#x426;" 
d="M358.5 -153q-18.5 8 -15.5 26q7 52 33 137q-75 -7 -145 -8.5t-171 -1.5q-21 0 -32.5 11t-11.5 30q0 8 1 12l103 618q2 18 24 26t75 8t72 -8t17 -26q-6 -32 -8 -49q-48 -283 -85 -447q52 4 79 4q33 0 66 -3q24 189 76 495q2 18 23.5 26t75.5 8q53 0 72 -8t17 -26
q-29 -171 -54 -285.5t-58 -208.5q14 1 30 1t24 -10.5t8 -28.5q0 -9 -1 -14l-42 -252q-3 -18 -25 -26t-75 -8q-54 0 -72.5 8z" />
    <glyph glyph-name="uni0427" unicode="&#x427;" 
d="M344 0q-19 8 -16 26q23 127 48 230q-42 -14 -92 -14q-103 0 -156.5 49.5t-53.5 145.5q0 36 13.5 107.5t27.5 126.5q4 18 25 26t74 8q49 0 69 -7t20 -25q0 -4 -2 -12q-12 -46 -23 -102.5t-11 -76.5q0 -33 16 -47.5t51 -14.5q31 0 71 9q11 125 31 242q2 18 23.5 26t75.5 8
q53 0 72.5 -8t16.5 -26l-108 -645q-3 -18 -24.5 -26t-74.5 -8q-54 0 -73 8z" />
    <glyph glyph-name="uni0428" unicode="&#x428;" 
d="M14.5 14.5q-11.5 14.5 -7.5 38.5l103 618q3 18 21 26t62 8t59.5 -8t13.5 -26q-27 -165 -47.5 -277t-45.5 -222q43 4 67 5q10 100 24 192.5t43 268.5l6 33q2 18 17.5 26t51.5 8t48.5 -8t10.5 -26q-49 -300 -92 -494q22 -1 66 -5q11 109 28 218.5t45 280.5q2 18 20.5 26
t62.5 8t60 -8t13 -26l-103 -618q-4 -24 -20.5 -38.5t-40.5 -14.5h-430q-24 0 -35.5 14.5z" />
    <glyph glyph-name="uni0429" unicode="&#x429;" 
d="M358.5 -153q-18.5 8 -15.5 26q7 52 33 137q-78 -7 -149.5 -8.5t-176.5 -1.5q-21 0 -32.5 11t-11.5 30q0 8 1 12l103 618q2 18 20.5 26t62.5 8t59.5 -8t13.5 -26l-8 -45q-26 -153 -44.5 -255.5t-40.5 -198.5q43 4 62 5q10 100 24 192.5t43 268.5l6 33q2 18 16.5 26t47.5 8
t44.5 -8t9.5 -26q-49 -295 -92 -494q30 0 58 -3q23 186 76 497q2 18 20.5 26t62.5 8t59.5 -8t13.5 -26q-29 -171 -54 -285.5t-58 -207.5h18q24 0 35.5 -14.5t7.5 -38.5l-42 -252q-3 -18 -25 -26t-75 -8q-54 0 -72.5 8z" />
    <glyph glyph-name="uni042A" unicode="&#x42a;" 
d="M222.5 -0.5q-43.5 7.5 -75.5 21.5q-17 7 -23.5 15t-6.5 22q0 3 2 17q46 281 85 454q-50 -10 -97 -10q-22 0 -22 40q0 41 13 89.5t39 48.5h202q24 0 35 -14.5t7 -38.5q-1 -5 -8 -45t-27 -106q18 2 26 2q203 0 203 -205q0 -78 -27 -145.5t-85.5 -110t-149.5 -42.5
q-47 0 -90.5 7.5zM329 150q41 0 59 35.5t18 89.5q0 32 -13.5 46.5t-42.5 14.5q-12 0 -24 -3q-3 -36 -11.5 -87.5t-17.5 -89.5q14 -6 32 -6z" />
    <glyph glyph-name="uni042B" unicode="&#x42b;" 
d="M89.5 0q-35.5 8 -62.5 21q-16 8 -23 16t-7 22q0 5 2 17l99 595q3 18 22.5 26t66.5 8q48 0 64.5 -8t14.5 -26l-4 -23q-9 -51 -16.5 -85t-18.5 -69q5 1 15 1q163 0 163 -205q0 -78 -25 -145.5t-79 -110t-138 -42.5q-38 0 -73.5 8zM193 150q32 0 47.5 36t15.5 89
q0 32 -10 46.5t-32 14.5q-9 0 -17 -3q-4 -39 -12.5 -91t-17.5 -86q11 -6 26 -6zM488 671q2 18 21.5 26t67.5 8t65 -8t14 -26l-108 -645q-3 -18 -21 -26t-62 -8t-60 8t-13 26z" />
    <glyph glyph-name="uni042C" unicode="&#x42c;" 
d="M157.5 1.5q-61.5 9.5 -98.5 23.5q-17 7 -23.5 15t-6.5 22q0 3 2 17l99 592q3 18 24.5 26t74.5 8t72 -8t17 -26q-2 -8 -10.5 -55t-29.5 -123q24 2 36 2q260 0 260 -223q0 -73 -30.5 -136.5t-97.5 -103.5t-171 -40q-56 0 -117.5 9.5zM281 150q105 0 105 113q0 39 -20 56
t-64 17q-22 0 -44 -5q-2 -34 -11 -85t-18 -90q23 -6 52 -6z" />
    <glyph glyph-name="uni042D" unicode="&#x42d;" 
d="M107 1.5q-49 12.5 -80 33.5q-10 7 -14 13t-4 15q0 22 11.5 55t30 57t37.5 24q5 0 11 -3q62 -30 122 -30q124 0 164 110q-98 -9 -183 -9q-11 0 -16 8.5t-5 27.5q0 37 12 80t36 43q83 0 175 -8q-6 122 -93 122q-23 0 -37 -6q-6 -26 -11 -41q-6 -20 -16 -26.5t-35 -6.5
q-47 0 -84.5 13.5t-37.5 40.5q0 22 21 76t39 72q21 21 68 33.5t107 12.5q128 0 197.5 -74.5t69.5 -215.5q0 -109 -35 -205.5t-120 -160t-226 -63.5q-55 0 -104 12.5z" />
    <glyph glyph-name="uni042E" unicode="&#x42e;" 
d="M258 27q-30 39 -30 124q0 51 9 118h-29l-3 -24q-21 -200 -24 -219q-3 -18 -22 -26t-67 -8t-65 8t-14 26l108 645q3 18 22 26t67 8t64.5 -8t14.5 -26q-1 -8 -29 -130l-21 -94h27q20 94 46 150.5t64 84t95 27.5q73 0 108.5 -44t35.5 -146q0 -66 -17 -171
q-22 -134 -54 -212.5t-77.5 -113t-109.5 -34.5q-69 0 -99 39zM356.5 143q3.5 -6 12.5 -6q14 0 24 17t21 65.5t28 148.5q21 122 21 162q0 17 -4 23.5t-13 6.5q-14 0 -24 -17t-21 -66t-27 -147q-21 -125 -21 -164q0 -17 3.5 -23z" />
    <glyph glyph-name="uni042F" unicode="&#x42f;" 
d="M339 0q-19 8 -16 26q14 79 34 160q-39 -5 -73 -6q-52 -67 -98 -142q-17 -28 -28 -37t-32 -9q-26 0 -59 10t-56 27t-23 35q0 13 24 45q53 71 129 139q-67 65 -67 168q0 68 30.5 134t100.5 110.5t180 44.5q54 0 109.5 -7t88.5 -19q17 -7 23.5 -15t6.5 -22q0 -3 -2 -17
l-100 -599q-3 -18 -24.5 -26t-74.5 -8q-54 0 -73 8zM283 346q12 -1 37 -1q35 0 64 4q-1 37 8 94t22 99q-16 4 -37 4q-59 0 -86.5 -32.5t-27.5 -84.5q0 -46 20 -83z" />
    <glyph glyph-name="uni0430" unicode="&#x430;" 
d="M408.5 -5q-10.5 9 -16.5 36q-6 29 -9 72h-17q-51 -61 -97.5 -88t-97.5 -27q-141 0 -141 197q0 111 37 194.5t109 129t176 45.5q60 0 114.5 -15.5t93.5 -43.5q31 -22 25 -58q-13 -78 -25.5 -137.5t-31.5 -119.5q22 -48 31 -71q14 -34 14 -52t-21 -34.5t-52 -26.5t-58 -10
q-23 0 -33.5 9zM229.5 179q8.5 -16 26.5 -16q21 0 48.5 20t59.5 60q14 55 28 145q-28 11 -60 11q-52 0 -81.5 -50t-29.5 -120q0 -34 8.5 -50z" />
    <glyph glyph-name="uni0431" unicode="&#x431;" 
d="M108 49q-60 61 -60 201q0 69 19 151t63.5 155t117.5 108q70 33 158.5 51.5t167.5 18.5q23 0 32.5 -17.5t9.5 -59.5q0 -100 -46 -103q-130 -6 -189 -16t-87 -26q-18 -10 -35.5 -30.5t-26.5 -43.5l18 -7q58 41 135 41q89 0 137.5 -51t48.5 -150q0 -74 -32.5 -139
t-97 -104.5t-157.5 -39.5q-116 0 -176 61zM243 169.5q17 -26.5 52 -26.5q43 0 67.5 35t24.5 81q0 43 -19 64.5t-55 21.5q-37 0 -81 -18q-6 -39 -6 -74q0 -57 17 -83.5z" />
    <glyph glyph-name="uni0432" unicode="&#x432;" 
d="M108.5 46q-54.5 52 -54.5 162q0 88 31.5 165.5t101 127t175.5 49.5q103 0 157.5 -39.5t54.5 -103.5q0 -82 -99 -120l-4 -20q88 -33 88 -109q0 -84 -80.5 -124t-198.5 -40q-117 0 -171.5 52zM248 142q17 -18 56 -18q34 0 54 12t20 34t-23 34.5t-65 12.5q-17 0 -59 -2v-10
q0 -45 17 -63zM347 327q17 8 28.5 22t11.5 29q0 20 -12 31t-34 11q-68 0 -96 -96q50 3 102 3z" />
    <glyph glyph-name="uni0433" unicode="&#x433;" 
d="M116 28.5q-58 40.5 -58 122.5q0 86 62 128t192 64q36 6 50 13t14 24q0 12 -9.5 18t-37.5 6q-59 0 -137 -28q-8 -2 -11 -2q-23 0 -40 33.5t-17 71.5q0 19 7.5 30t27.5 19q70 27 170 27q109 0 167 -40.5t58 -122.5q0 -60 -29.5 -97.5t-83 -58t-136.5 -33.5
q-39 -6 -54 -13.5t-15 -22.5q0 -13 13 -19t46 -6q69 0 155 28q14 5 27.5 -10t22.5 -42t9 -55q0 -20 -7 -29.5t-29 -17.5q-77 -28 -190 -28q-109 0 -167 40.5z" />
    <glyph glyph-name="uni0434" unicode="&#x434;" 
d="M95.5 44.5q-59.5 56.5 -59.5 167.5q0 74 30.5 138t90 103t141.5 39q54 0 85 -12l8 9q-21 36 -73.5 61.5t-122.5 33.5q-11 1 -16 13.5t-5 31.5q0 37 14.5 72.5t34.5 35.5q110 -5 191.5 -52.5t125.5 -129.5t44 -187q0 -109 -33 -194.5t-103.5 -135.5t-177.5 -50
q-115 0 -174.5 56.5zM234 154.5q14 -21.5 46 -21.5q74 0 97 59t23 150v12q-30 11 -67 11q-63 0 -88 -42t-25 -99q0 -48 14 -69.5z" />
    <glyph glyph-name="uni0435" unicode="&#x435;" 
d="M101 43q-58 55 -58 167q0 100 40 178t114 122t173 44q71 0 119.5 -21t71.5 -55.5t23 -75.5q0 -50 -36.5 -85.5t-114 -62t-207.5 -47.5q5 -35 23.5 -49.5t55.5 -14.5q39 0 78.5 12.5t89.5 39.5q3 2 9 2q13 0 28 -17.5t25 -42.5t10 -46q0 -14 -5 -23t-21 -18
q-49 -30 -109.5 -46t-126.5 -16q-124 0 -182 55zM370 344.5q36 16.5 37 36.5q0 16 -15.5 26.5t-43.5 10.5q-46 0 -75.5 -31t-41.5 -82q103 23 139 39.5z" />
    <glyph glyph-name="uni0436" unicode="&#x436;" 
d="M413 -1.5q-8 5.5 -8 20.5q0 101 -20 183q-8 -1 -24 -1q-2 -126 -10 -176q-2 -17 -20.5 -24.5t-62.5 -7.5t-59.5 7.5t-13.5 24.5q11 62 49 176q-16 0 -23 1q-52 -90 -82 -183q-4 -15 -14 -20.5t-29 -5.5q-44 0 -80.5 10t-36.5 32q0 18 17 55q19 42 55.5 103.5t72.5 109.5
q-19 28 -35.5 72t-21.5 74q-4 21 -4 43q0 10 1 14q4 23 36 33.5t67 10.5q25 0 34.5 -6t9.5 -22q3 -86 27 -168q8 -1 24 -1q-1 114 7 166q3 16 21 23.5t62 7.5t60 -7.5t13 -23.5q-7 -46 -46 -166q16 0 23 1q53 86 83 168q5 16 16 22t36 6q36 0 66.5 -9.5t30.5 -29.5
q0 -11 -5 -28t-13 -34q-15 -34 -48 -84t-66 -84q21 -40 37 -94t23 -97q2 -12 2 -32q0 -15 -1 -20q-3 -23 -42 -34t-80 -11q-20 0 -28 5.5z" />
    <glyph glyph-name="uni0437" unicode="&#x437;" 
d="M160 -4.5q-50 7.5 -86 20.5q-36 12 -36 35q0 25 11 54.5t28 50.5t33 21q3 0 9 -2q81 -32 156 -32q44 0 64.5 10.5t20.5 27.5q0 22 -42 33q-60 -11 -109 -11q-31 0 -31 45q0 33 13 66t42 33q44 0 104 -15q27 14 27 30q0 14 -17 23.5t-55 9.5q-32 0 -65 -5t-56 -13
q-26 -6 -42.5 24t-16.5 72q0 19 7 31t23 18q36 13 86 21t97 8q107 0 164 -35t57 -98q0 -39 -24 -72t-70 -55l-3 -20q45 -17 65 -44.5t20 -67.5q0 -56 -37.5 -94.5t-99 -57.5t-132.5 -19q-55 0 -105 7.5z" />
    <glyph glyph-name="uni0438" unicode="&#x438;" 
d="M265.5 543q19.5 -7 19.5 -24q0 -3 -2 -13q-22 -74 -37 -148t-15 -115q0 -66 40 -66q24 0 53 25t56 70q14 124 34 244q3 18 24 26t74 8q52 0 70.5 -8t15.5 -26l-43 -261q-21 -122 -29 -202l-4 -27q-3 -18 -24.5 -26t-73.5 -8q-49 0 -68 6.5t-19 21.5q0 16 14 66h-16
q-44 -51 -89 -74.5t-87 -23.5q-117 0 -117 179q0 130 60 349q6 18 26 26t71 8q47 0 66.5 -7z" />
    <glyph glyph-name="uni0439" unicode="&#x439;" 
d="M265.5 543q19.5 -7 19.5 -24q0 -3 -2 -13q-22 -74 -37 -148t-15 -115q0 -66 40 -66q24 0 53 25t56 70q14 124 34 244q3 18 24 26t74 8q52 0 70.5 -8t15.5 -26l-43 -261q-21 -122 -29 -202l-4 -27q-3 -18 -24.5 -26t-73.5 -8q-49 0 -68 6.5t-19 21.5q0 16 14 66h-16
q-44 -51 -89 -74.5t-87 -23.5q-117 0 -117 179q0 130 60 349q6 18 26 26t71 8q47 0 66.5 -7zM232.5 627.5q-44.5 44.5 -47.5 119.5q-1 18 32.5 32t64.5 14q29 0 29 -14q1 -45 11 -62.5t44 -17.5t50.5 18t32.5 62q4 14 35 14q33 0 64 -14t25 -32q-27 -75 -86.5 -119.5
t-134.5 -44.5t-119.5 44.5z" />
    <glyph glyph-name="uni043A" unicode="&#x43a;" 
d="M358.5 -5.5q-6.5 5.5 -10.5 20.5q-27 96 -84 178q-24 -5 -47 -8q-5 -110 -14 -159q-3 -18 -23.5 -26t-73.5 -8q-52 0 -71 8t-16 26l82 490q3 18 24 26t73 8q49 0 68.5 -6.5t19.5 -21.5q0 -8 -9.5 -50t-30.5 -113q20 1 47 8q54 75 98 156q9 15 18 21t22 6q36 0 75 -9
t64.5 -23.5t25.5 -31.5q0 -12 -16 -34q-27 -40 -71.5 -90.5t-89.5 -85.5q41 -41 73 -93t49 -97q5 -16 5 -27q0 -19 -27.5 -35t-67.5 -25.5t-74 -9.5q-12 0 -18.5 5.5z" />
    <glyph glyph-name="uni043B" unicode="&#x43b;" 
d="M41 12.5q-24 20.5 -40 50t-16 51.5q0 23 31 41q43 26 67 61.5t39 97.5t30 179q4 27 17 38t40 11h343q23 0 33 -7.5t10 -25.5l-2 -16l-78 -467q-3 -18 -23.5 -26t-73.5 -8q-52 0 -71 8t-16 26q19 114 33.5 190.5t34.5 154.5q-24 -3 -47 -3q-24 0 -48 3
q-15 -138 -59.5 -233t-128.5 -139q-14 -7 -26 -7q-25 0 -49 20.5z" />
    <glyph glyph-name="uni043C" unicode="&#x43c;" 
d="M5.5 1.5q-17.5 9.5 -14.5 27.5q19 112 47 247.5t53 223.5q8 27 36.5 38.5t89.5 11.5q53 0 74 -11t21 -37q0 -101 -11 -211h20q32 128 57 209q8 27 33.5 38.5t80.5 11.5q63 0 89 -11.5t24 -38.5q-5 -90 -21.5 -226.5t-34.5 -244.5q-3 -18 -23.5 -27.5t-66.5 -9.5
q-45 0 -62.5 8t-14.5 26q38 151 70 350h-20q-35 -97 -62 -193q-5 -20 -24 -29.5t-57 -9.5t-54 9.5t-15 29.5q3 56 3 114q0 54 -1 79h-20q-31 -190 -46 -350q-3 -18 -22.5 -26t-64.5 -8q-46 0 -63.5 9.5z" />
    <glyph glyph-name="uni043D" unicode="&#x43d;" 
d="M35 0q-19 8 -16 26l82 490q3 18 24 26t73 8q53 0 71.5 -8t15.5 -26q-1 -5 -8.5 -44t-27.5 -112q31 4 77 4q47 0 75 -4q5 99 16 156q3 18 24 26t73 8q53 0 71.5 -8t15.5 -26l-82 -490q-3 -18 -23.5 -26t-73.5 -8q-52 0 -71 8t-16 26q13 76 38 167q-33 -3 -77 -3
q-42 0 -75 3q-5 -88 -18 -167q-3 -18 -23.5 -26t-73.5 -8q-52 0 -71 8z" />
    <glyph glyph-name="uni043E" unicode="&#x43e;" 
d="M104 50q-63 62 -63 184q0 93 34.5 165.5t99.5 113.5t155 41q123 0 186 -62t63 -185q0 -93 -34.5 -165t-100 -113t-154.5 -41q-123 0 -186 62zM241 164q18 -21 57 -21q52 0 75.5 48t23.5 118q0 48 -18.5 69t-57.5 21q-51 0 -74.5 -48t-23.5 -118q0 -48 18 -69z" />
    <glyph glyph-name="uni043F" unicode="&#x43f;" 
d="M354.5 -1q-19.5 7 -19.5 24q0 3 2 13q22 74 37 148t15 115q0 66 -40 66q-24 0 -53 -25t-56 -70q-14 -124 -34 -244q-3 -18 -24 -26t-74 -8q-52 0 -70.5 8t-15.5 26l43 261q21 123 29 202l4 27q3 18 24.5 26t73.5 8q49 0 68 -6.5t19 -21.5q0 -16 -14 -66h16q44 51 89 74.5
t87 23.5q117 0 117 -179q0 -130 -60 -349q-6 -18 -26 -26t-71 -8q-47 0 -66.5 7z" />
    <glyph glyph-name="uni0440" unicode="&#x440;" 
d="M187 0q-10 -92 -24 -167q-3 -18 -24 -26t-74 -8q-52 0 -70.5 8t-15.5 26l7 36q17 85 36 194l38 227q12 72 31 208l3 22q3 18 24 26t74 8q48 0 67 -7t19 -22q-1 -11 -6.5 -35.5t-8.5 -34.5h20q42 53 79.5 76t80.5 23q141 0 141 -197q0 -111 -34.5 -194.5t-102.5 -129
t-165 -45.5q-51 0 -95 12zM282 143q52 0 81.5 50t29.5 120q0 34 -8.5 50t-26.5 16q-23 0 -54 -27t-67 -83q-4 -51 -19 -114q29 -12 64 -12z" />
    <glyph glyph-name="uni0441" unicode="&#x441;" 
d="M108 41q-59 53 -59 172q0 88 34 165.5t107 126.5t184 49q63 0 113.5 -13.5t70.5 -35.5q13 -15 19.5 -56t6.5 -90q0 -26 -31 -40t-82 -14q-35 0 -52.5 8.5t-17.5 26.5q0 15 2 43q-15 6 -41 6q-65 0 -96.5 -45t-31.5 -106q0 -39 17 -57t50 -18q69 0 145 59q9 8 22 8
q20 0 40 -21t33 -49.5t13 -47.5q0 -11 -6 -20t-21 -20q-55 -39 -119.5 -61.5t-132.5 -22.5q-108 0 -167 53z" />
    <glyph glyph-name="uni0442" unicode="&#x442;" 
d="M23.5 0.5q-17.5 8.5 -14.5 25.5l46 280q16 96 23 154.5t8 65.5q2 12 21 18t59 6q73 0 73 -21q0 -16 -13 -53h20q56 78 110 78q28 0 39.5 -18.5t10.5 -67.5h20q55 86 112 86q32 0 47.5 -23t15.5 -71q0 -58 -25.5 -202t-48.5 -232q-4 -18 -23 -26t-59 -8q-41 0 -58.5 8.5
t-13.5 25.5q19 75 39.5 179.5t20.5 148.5q0 25 -12 25q-19 0 -38 -34q-29 -192 -61 -319q-4 -18 -18.5 -26t-44.5 -8q-60 0 -53 34q20 82 39 183.5t19 144.5q0 25 -12 25q-21 0 -46 -47q-16 -153 -42 -306q-3 -17 -23 -25.5t-60 -8.5t-57.5 8.5z" />
    <glyph glyph-name="uni0443" unicode="&#x443;" 
d="M58 -183.5q-19 20.5 -31 50.5t-12 58q0 18 10 27.5t38 20.5q81 32 153 74l-4 17q-6 -1 -15 -1q-16 0 -27 10.5t-22 41.5q-24 65 -48.5 168t-31.5 173q-3 27 -3 45q0 22 47 38.5t97 16.5q24 0 32.5 -8t9.5 -29q12 -178 61 -375h20q81 113 81 233q0 42 -16 122
q-5 24 32 40.5t92 16.5q29 0 42.5 -8t16.5 -28q10 -46 10 -109q0 -175 -104.5 -325t-314.5 -263q-51 -27 -75 -27q-19 0 -38 20.5z" />
    <glyph glyph-name="uni0444" unicode="&#x444;" 
d="M160.5 -193q-18.5 8 -15.5 26q12 71 41 169q-80 18 -121 77t-41 156q0 120 66 203t184 104q4 84 15 158q3 18 24.5 26t73.5 8t70.5 -8t15.5 -26q-9 -58 -38 -160q161 -38 161 -234q0 -119 -66.5 -202t-184.5 -104q-4 -98 -16 -167q-3 -18 -24 -26t-74 -8q-52 0 -70.5 8z
M230 140q12 129 42 258q-46 -19 -67.5 -61.5t-21.5 -96.5q0 -81 47 -100zM415.5 205q21.5 43 21.5 97q0 78 -46 99q-12 -127 -44 -257q47 18 68.5 61z" />
    <glyph glyph-name="uni0445" unicode="&#x445;" 
d="M351 15q-18 91 -44 164h-20q-42 -74 -83 -164q-12 -26 -36 -26q-33 0 -70.5 8t-63 21t-25.5 27q0 12 14 36q28 48 73 108.5t87 105.5q-24 40 -48 88t-36 81q-5 15 -5 26q0 21 28.5 35.5t66 22.5t61.5 8q14 0 21 -6t10 -21q17 -75 37 -136h19q38 68 68 136q7 15 16 21
t23 6q53 0 104.5 -17.5t51.5 -39.5q0 -13 -15 -36q-23 -37 -64.5 -93.5t-77.5 -98.5q28 -45 53 -98t38 -93q4 -13 4 -23q0 -22 -28.5 -37.5t-66 -23t-64.5 -7.5q-25 0 -28 26z" />
    <glyph glyph-name="uni0446" unicode="&#x446;" 
d="M42 167q0 130 60 349q6 18 26 26t71 8q47 0 66.5 -7t19.5 -24q0 -3 -2 -13q-22 -74 -37 -148t-15 -115q0 -66 40 -66q24 0 53 25t56 70q14 124 34 244q3 18 24 26t74 8q52 0 70.5 -8t15.5 -26q-21 -126 -40 -205.5t-42 -134.5q12 2 23 2q16 0 24 -10.5t8 -28.5
q0 -9 -1 -14l-42 -252q-3 -18 -24.5 -26t-73.5 -8t-70.5 8t-15.5 26q9 56 31 127q-21 1 -29.5 5.5t-8.5 13.5q0 6 4.5 26.5t9.5 40.5h-16q-44 -51 -89 -74.5t-87 -23.5q-117 0 -117 179z" />
    <glyph glyph-name="uni0447" unicode="&#x447;" 
d="M348 0q-19 8 -16 26q17 102 43 210h-17q-47 -47 -94.5 -69t-91.5 -22q-120 0 -120 161q0 82 31 211q6 18 26 26t71 8q47 0 66.5 -7t19.5 -24q0 -3 -2 -13q-9 -36 -15.5 -71t-6.5 -54q0 -48 34 -48q27 0 60 18t63 51q7 67 15 114q3 18 24 26t74 8q52 0 70.5 -8t15.5 -26
l-82 -491q-3 -18 -23.5 -26t-73.5 -8q-52 0 -71 8z" />
    <glyph glyph-name="uni0448" unicode="&#x448;" 
d="M596.5 541.5q17.5 -8.5 14.5 -25.5l-46 -280q-16 -96 -23 -154.5t-8 -65.5q-2 -12 -21 -18t-59 -6q-73 0 -73 21q0 16 13 53h-20q-56 -78 -110 -78q-28 0 -39.5 18.5t-10.5 67.5h-20q-55 -86 -112 -86q-32 0 -47.5 23t-15.5 71q0 58 25.5 202t48.5 232q4 18 23 26t59 8
q41 0 58.5 -8.5t13.5 -25.5q-19 -75 -39.5 -179.5t-20.5 -148.5q0 -25 12 -25q19 0 38 34q29 192 61 319q4 18 18.5 26t44.5 8q60 0 53 -34q-20 -82 -39 -183.5t-19 -144.5q0 -25 12 -25q21 0 46 47q17 153 42 306q3 17 23 25.5t60 8.5t57.5 -8.5z" />
    <glyph glyph-name="uni0449" unicode="&#x449;" 
d="M24.5 11q-15.5 23 -15.5 71q0 58 25.5 202t48.5 232q4 18 23 26t59 8q41 0 58.5 -8.5t13.5 -25.5q-19 -75 -39.5 -179.5t-20.5 -148.5q0 -25 12 -25q19 0 38 34q29 192 61 319q4 18 18.5 26t44.5 8q60 0 53 -34q-20 -82 -39 -183.5t-19 -144.5q0 -25 12 -25q21 0 46 47
q17 153 42 306q3 17 23 25.5t60 8.5t57.5 -8.5t14.5 -25.5q-21 -126 -40 -205.5t-42 -134.5q12 2 23 2q16 0 24 -10.5t8 -28.5q0 -9 -1 -14l-42 -252q-3 -18 -24.5 -26t-73.5 -8t-70.5 8t-15.5 26q10 60 33 133q-10 6 -7 20q1 13 11 40h-20q-56 -78 -110 -78
q-28 0 -39.5 18.5t-10.5 67.5h-20q-55 -86 -112 -86q-32 0 -47.5 23z" />
    <glyph glyph-name="uni044A" unicode="&#x44a;" 
d="M163.5 27q-46.5 33 -46.5 88q0 39 15 116.5t33 146.5q-50 -10 -97 -10q-11 0 -16.5 8.5t-5.5 28.5q0 24 5 50q8 49 19 68t27 19h220q23 0 33 -7.5t10 -25.5l-2 -16q-1 -3 -5 -23.5t-17 -58.5q23 3 43 3q197 0 197 -179q0 -121 -70.5 -181t-188.5 -60q-107 0 -153.5 33z
M331 138q61 0 61 82q0 27 -12.5 39t-36.5 12q-14 0 -26 -3l-6 -36q-9 -54 -9 -69q0 -25 29 -25z" />
    <glyph glyph-name="uni044B" unicode="&#x44b;" 
d="M20 98q0 43 14 127l49 291q3 18 22 26t65 8q47 0 63.5 -8t13.5 -26q-10 -53 -26 -104q14 2 19 2q138 0 138 -163q0 -129 -57 -193t-153 -64q-148 0 -148 104zM197 138q42 0 42 88q0 24 -7.5 34.5t-22.5 10.5q-8 0 -16 -3l-6 -36q-9 -54 -9 -69q0 -25 19 -25zM453 516
q3 18 22 26t65 8q47 0 63.5 -8t13.5 -26l-82 -490q-3 -18 -20.5 -26t-60.5 -8t-58 8t-13 26z" />
    <glyph glyph-name="uni044C" unicode="&#x44c;" 
d="M106.5 35.5q-51.5 41.5 -51.5 110.5q0 54 16 151l37 219q3 18 24 26t73 8q53 0 71.5 -8t15.5 -26q-9 -53 -28 -109q35 7 74 7q226 0 226 -185q0 -117 -81 -176t-207 -59q-118 0 -169.5 41.5zM250 148.5q14 -10.5 44 -10.5q39 0 62.5 18t23.5 58q0 31 -20.5 44t-62.5 13
q-25 0 -51 -7q-10 -70 -10 -83q0 -22 14 -32.5z" />
    <glyph glyph-name="uni044D" unicode="&#x44d;" 
d="M499 494q61 -60 61 -189q0 -82 -33 -154t-105.5 -117.5t-182.5 -45.5q-106 0 -187 36q-14 6 -18.5 13.5t-4.5 18.5q0 26 10 54.5t26 47.5t32 19q7 0 10 -2q72 -32 131 -32q94 0 126 83q-111 -8 -206 -8q-13 0 -19 6.5t-6 23.5q0 11 3 27q5 32 14.5 44.5t26.5 12.5
q94 0 200 -7q-4 39 -27 56.5t-65 17.5q-31 0 -62 -8t-68 -24q-7 -3 -15 -3q-26 0 -44 33.5t-18 71.5q0 17 6 27.5t19 15.5q102 42 215 42q120 0 181 -60z" />
    <glyph glyph-name="uni044E" unicode="&#x44e;" 
d="M15.5 0q-16.5 8 -13.5 26l82 490q3 18 22 26t65 8q47 0 63.5 -8t13.5 -26q-13 -77 -52 -190h45q18 84 45 132.5t66.5 69.5t97.5 21q77 0 113.5 -42.5t36.5 -132.5q0 -47 -11 -116q-23 -141 -74 -205.5t-143 -64.5q-79 0 -115.5 37t-36.5 126q0 15 2 51h-46
q1 -112 -10 -176q-3 -18 -21.5 -26t-65.5 -8t-63.5 8zM344 136q7 -9 22 -9q17 0 28 12.5t20 44.5t19 93q11 64 11 90q0 24 -7.5 33.5t-23.5 9.5t-26.5 -12.5t-19.5 -44t-19 -92.5q-11 -68 -11 -93q0 -23 7 -32z" />
    <glyph glyph-name="uni044F" unicode="&#x44f;" 
d="M343.5 0q-18.5 7 -18.5 20q0 7 6.5 35.5t21.5 70.5q-51 -5 -96 -4q-27 -30 -73 -89q-18 -24 -29.5 -32t-30.5 -8q-26 0 -58 10t-54.5 26.5t-22.5 34.5q0 14 23 36q45 43 119 98q-71 48 -71 134q0 67 35 116.5t98 75.5t146 26q58 0 117 -7.5t100 -20.5q17 -6 23.5 -14
t6.5 -20q0 -9 -1 -14l-75 -449q-3 -16 -23 -24t-74 -8q-51 0 -69.5 7zM267 273q38 -2 60 -2q31 0 47 1q-4 55 16 114q-26 10 -68 10q-37 0 -58 -16.5t-21 -45.5q0 -35 24 -61z" />
    <glyph glyph-name="uni0451" unicode="&#x451;" 
d="M101 43q-58 55 -58 167q0 100 40 178t114 122t173 44q71 0 119.5 -21t71.5 -55.5t23 -75.5q0 -50 -36.5 -85.5t-114 -62t-207.5 -47.5q5 -35 23.5 -49.5t55.5 -14.5q39 0 78.5 12.5t89.5 39.5q3 2 9 2q13 0 28 -17.5t25 -42.5t10 -46q0 -14 -5 -23t-21 -18
q-49 -30 -109.5 -46t-126.5 -16q-124 0 -182 55zM370 344.5q36 16.5 37 36.5q0 16 -15.5 26.5t-43.5 10.5q-46 0 -75.5 -31t-41.5 -82q103 23 139 39.5zM167 618q-21 14 -21 45q0 16 2 26q8 46 33.5 65.5t86.5 19.5q51 0 72.5 -14t21.5 -46q0 -16 -2 -25q-8 -46 -34.5 -65.5
t-86.5 -19.5q-51 0 -72 14zM431.5 754.5q25.5 19.5 86.5 19.5q51 0 72.5 -14t21.5 -46q0 -16 -2 -25q-8 -46 -34.5 -65.5t-86.5 -19.5q-51 0 -72 14t-21 45q0 16 2 26q8 46 33.5 65.5z" />
    <glyph glyph-name="uni045E" unicode="&#x45e;" 
d="M58 -183.5q-19 20.5 -31 50.5t-12 58q0 18 10 27.5t38 20.5q81 32 153 74l-4 17q-6 -1 -15 -1q-16 0 -27 10.5t-22 41.5q-24 65 -48.5 168t-31.5 173q-3 27 -3 45q0 22 47 38.5t97 16.5q24 0 32.5 -8t9.5 -29q12 -178 61 -375h20q81 113 81 233q0 42 -16 122
q-5 24 32 40.5t92 16.5q29 0 42.5 -8t16.5 -28q10 -46 10 -109q0 -175 -104.5 -325t-314.5 -263q-51 -27 -75 -27q-19 0 -38 20.5zM242.5 627.5q-44.5 44.5 -47.5 119.5q-1 18 32.5 32t64.5 14q29 0 29 -14q1 -45 11 -62.5t44 -17.5t50.5 18t32.5 62q4 14 35 14q33 0 64 -14
t25 -32q-27 -75 -86.5 -119.5t-134.5 -44.5t-119.5 44.5z" />
    <glyph glyph-name="uni0490" unicode="&#x490;" 
d="M85 0q-19 8 -16 26l48 288q14 83 29.5 127t38.5 71l3 20q-24 -4 -36 -4q-11 0 -16 9t-5 29q0 39 12.5 85t36.5 46q87 0 146.5 -1.5t124.5 -8.5q-1 56 8 106q3 18 24.5 26t75.5 8t72.5 -8t15.5 -26l-37 -221q-4 -24 -20.5 -38.5t-40.5 -14.5q-104 0 -218 10
q-21 -193 -74 -503q-3 -18 -24.5 -26t-74.5 -8q-54 0 -73 8z" />
    <glyph glyph-name="Wgrave" unicode="&#x1e80;" 
d="M73.5 -2q-15.5 6 -20.5 21.5t-5 50.5q0 114 16.5 314t31.5 286q3 18 25 27.5t70 9.5t66 -8.5t15 -26.5q-62 -292 -94 -504h20q36 80 64 169q4 93 14 156q6 40 78 40q36 0 51.5 -10t12.5 -30q-7 -45 -38 -156l-1 -35q0 -68 9 -134h20q44 253 74 504q3 18 24 26.5t69 8.5
t66 -9.5t15 -27.5q-17 -98 -67 -299t-87 -309q-10 -31 -20.5 -45t-27.5 -19.5t-50 -5.5q-36 0 -53 5t-23.5 17t-8.5 38q-2 46 -2 72q0 72 7 161h-20q-31 -127 -71 -233q-11 -26 -21.5 -38t-30 -17t-57.5 -5q-35 0 -50.5 6zM271 869.5q-4 5.5 -4 13.5q0 14 19 38t45 42t47 18
q13 0 21 -8l153 -147q14 -14 14 -21q0 -13 -12.5 -29t-30.5 -27t-33 -11q-10 0 -15 4l-187 114q-13 8 -17 13.5z" />
    <glyph glyph-name="wgrave" unicode="&#x1e81;" 
d="M72.5 1q-15.5 7 -20 24.5t-4.5 60.5q0 75 7.5 180t17.5 198q7 56 6 50q3 18 23.5 27.5t66.5 9.5q45 0 62 -8.5t14 -26.5q-46 -194 -70 -352h20q33 51 54 105q5 89 12 126q3 20 21 30t53 10t50 -10t12 -30q-10 -54 -30 -126q3 -54 18 -105h20q31 166 50 352
q3 18 23.5 26.5t65.5 8.5q78 0 78 -31q0 -14 -11 -56q-21 -100 -51 -213t-56 -187q-11 -31 -21.5 -45t-27.5 -19.5t-50 -5.5q-36 0 -53.5 5t-24 17t-10.5 38q-8 58 -8 113l1 30h-20q-21 -72 -55 -143q-12 -26 -23.5 -38t-30.5 -17t-56 -5t-52.5 7zM221.5 714.5
q-3.5 5.5 -3.5 13.5q0 14 17 38t41 42t43 18q12 0 19 -8l139 -147q12 -13 12 -21q0 -20 -24 -43.5t-45 -23.5q-8 0 -13 4l-170 114q-12 8 -15.5 13.5z" />
    <glyph glyph-name="Wacute" unicode="&#x1e82;" 
d="M73.5 -2q-15.5 6 -20.5 21.5t-5 50.5q0 114 16.5 314t31.5 286q3 18 25 27.5t70 9.5t66 -8.5t15 -26.5q-62 -292 -94 -504h20q36 80 64 169q4 93 14 156q6 40 78 40q36 0 51.5 -10t12.5 -30q-7 -45 -38 -156l-1 -35q0 -68 9 -134h20q44 253 74 504q3 18 24 26.5t69 8.5
t66 -9.5t15 -27.5q-17 -98 -67 -299t-87 -309q-10 -31 -20.5 -45t-27.5 -19.5t-50 -5.5q-36 0 -53 5t-23.5 17t-8.5 38q-2 46 -2 72q0 72 7 161h-20q-31 -127 -71 -233q-11 -26 -21.5 -38t-30 -17t-57.5 -5q-35 0 -50.5 6zM322 739q-16 0 -32 12t-26 28.5t-10 29.5
q0 7 4.5 12.5t18.5 16.5l181 135q8 7 21 7q20 0 44.5 -17t41.5 -42t17 -45q0 -10 -6 -16.5t-24 -15.5l-214 -102q-7 -3 -16 -3z" />
    <glyph glyph-name="wacute" unicode="&#x1e83;" 
d="M72.5 1q-15.5 7 -20 24.5t-4.5 60.5q0 75 7.5 180t17.5 198q7 56 6 50q3 18 23.5 27.5t66.5 9.5q45 0 62 -8.5t14 -26.5q-46 -194 -70 -352h20q33 51 54 105q5 89 12 126q3 20 21 30t53 10t50 -10t12 -30q-10 -54 -30 -126q3 -54 18 -105h20q31 166 50 352
q3 18 23.5 26.5t65.5 8.5q78 0 78 -31q0 -14 -11 -56q-21 -100 -51 -213t-56 -187q-11 -31 -21.5 -45t-27.5 -19.5t-50 -5.5q-36 0 -53.5 5t-24 17t-10.5 38q-8 58 -8 113l1 30h-20q-21 -72 -55 -143q-12 -26 -23.5 -38t-30.5 -17t-56 -5t-52.5 7zM318 584q-15 0 -29 12
t-23.5 28.5t-9.5 29.5q0 7 4 12.5t17 16.5l164 135q8 7 19 7q19 0 41 -17t37.5 -42t15.5 -45q0 -10 -5.5 -16.5t-21.5 -15.5l-195 -102q-7 -3 -14 -3z" />
    <glyph glyph-name="Wdieresis" unicode="&#x1e84;" 
d="M73.5 -2q-15.5 6 -20.5 21.5t-5 50.5q0 114 16.5 314t31.5 286q3 18 25 27.5t70 9.5t66 -8.5t15 -26.5q-62 -292 -94 -504h20q36 80 64 169q4 93 14 156q6 40 78 40q36 0 51.5 -10t12.5 -30q-7 -45 -38 -156l-1 -35q0 -68 9 -134h20q44 253 74 504q3 18 24 26.5t69 8.5
t66 -9.5t15 -27.5q-17 -98 -67 -299t-87 -309q-10 -31 -20.5 -45t-27.5 -19.5t-50 -5.5q-36 0 -53 5t-23.5 17t-8.5 38q-2 46 -2 72q0 72 7 161h-20q-31 -127 -71 -233q-11 -26 -21.5 -38t-30 -17t-57.5 -5q-35 0 -50.5 6zM183.5 773q-23.5 14 -23.5 45q0 11 3 26
q8 46 36.5 65.5t95.5 19.5q56 0 80 -14t24 -46q0 -11 -3 -25q-8 -46 -37.5 -65.5t-95.5 -19.5q-56 0 -79.5 14zM474.5 909.5q28.5 19.5 95.5 19.5q56 0 80 -14t24 -46q0 -11 -3 -25q-8 -46 -37.5 -65.5t-95.5 -19.5q-56 0 -79.5 14t-23.5 45q0 11 3 26q8 46 36.5 65.5z" />
    <glyph glyph-name="wdieresis" unicode="&#x1e85;" 
d="M72.5 1q-15.5 7 -20 24.5t-4.5 60.5q0 75 7.5 180t17.5 198q7 56 6 50q3 18 23.5 27.5t66.5 9.5q45 0 62 -8.5t14 -26.5q-46 -194 -70 -352h20q33 51 54 105q5 89 12 126q3 20 21 30t53 10t50 -10t12 -30q-10 -54 -30 -126q3 -54 18 -105h20q31 166 50 352
q3 18 23.5 26.5t65.5 8.5q78 0 78 -31q0 -14 -11 -56q-21 -100 -51 -213t-56 -187q-11 -31 -21.5 -45t-27.5 -19.5t-50 -5.5q-36 0 -53.5 5t-24 17t-10.5 38q-8 58 -8 113l1 30h-20q-21 -72 -55 -143q-12 -26 -23.5 -38t-30.5 -17t-56 -5t-52.5 7zM168 618q-21 14 -21 45
q0 16 2 26q8 46 33.5 65.5t86.5 19.5q51 0 72.5 -14t21.5 -46q0 -16 -2 -25q-8 -46 -34.5 -65.5t-86.5 -19.5q-51 0 -72 14zM432.5 754.5q25.5 19.5 86.5 19.5q51 0 72.5 -14t21.5 -46q0 -16 -2 -25q-8 -46 -34.5 -65.5t-86.5 -19.5q-51 0 -72 14t-21 45q0 16 2 26
q8 46 33.5 65.5z" />
    <glyph glyph-name="ygrave" unicode="&#x1ef3;" 
d="M58 -183.5q-19 20.5 -31 50.5t-12 58q0 18 10 27.5t38 20.5q81 32 153 74l-4 17q-6 -1 -15 -1q-16 0 -27 10.5t-22 41.5q-24 65 -48.5 168t-31.5 173q-3 27 -3 45q0 22 47 38.5t97 16.5q24 0 32.5 -8t9.5 -29q12 -178 61 -375h20q81 113 81 233q0 42 -16 122
q-5 24 32 40.5t92 16.5q29 0 42.5 -8t16.5 -28q10 -46 10 -109q0 -175 -104.5 -325t-314.5 -263q-51 -27 -75 -27q-19 0 -38 20.5zM221.5 714.5q-3.5 5.5 -3.5 13.5q0 14 17 38t41 42t43 18q12 0 19 -8l139 -147q12 -13 12 -21q0 -20 -24 -43.5t-45 -23.5q-8 0 -13 4
l-170 114q-12 8 -15.5 13.5z" />
    <glyph glyph-name="endash" unicode="&#x2013;" 
d="M52 260.5q-6 8.5 -6 26.5q0 36 13.5 78t39.5 42h467q15 0 21 -8.5t6 -26.5q0 -36 -13.5 -78t-39.5 -42h-467q-15 0 -21 8.5z" />
    <glyph glyph-name="glyph31" 
d="M93 4q-47 16 -74 43q-17 16 -17 34q0 19 14.5 49t36 52.5t41.5 22.5q11 0 19 -7q40 -32 91 -32q43 0 71.5 21t41.5 69q13 47 26.5 125.5t21.5 146.5q-90 -9 -178 -9q-22 0 -22 40q0 41 13 89.5t39 48.5h303q24 0 36 -14.5t10 -38.5q-40 -346 -82 -462q-70 -194 -285 -194
q-59 0 -106 16zM322 739q-16 0 -32 12t-26 28.5t-10 29.5q0 7 4.5 12.5t18.5 16.5l181 135q8 7 21 7q20 0 44.5 -17t41.5 -42t17 -45q0 -10 -6 -16.5t-24 -15.5l-214 -102q-7 -3 -16 -3z" />
    <glyph glyph-name="Scedilla.locl" 
d="M158.5 -6q-48.5 9 -84.5 26q-20 9 -27.5 18.5t-7.5 25.5q0 26 10.5 55.5t26 49t30.5 19.5q2 0 8 -2q37 -18 79.5 -28.5t84.5 -10.5q38 0 60.5 13t22.5 39q0 18 -16.5 31t-60.5 27q-56 18 -94 39.5t-62.5 62.5t-24.5 108q0 116 73 180.5t198 64.5q60 0 115.5 -13t68.5 -29
q7 -9 11 -32.5t4 -50.5q0 -25 -3 -42q-4 -25 -34.5 -36t-78.5 -11q-35 0 -46.5 6t-11.5 22q0 18 1 26q-15 4 -37 4q-36 0 -55.5 -16t-19.5 -48q0 -24 15.5 -36.5t48.5 -22.5q99 -32 146 -81t47 -130q0 -110 -76.5 -173.5t-209.5 -63.5q-52 0 -100.5 9zM123 -203
q-14 22 -14 45q0 19 13 28l105 63q40 24 58 24q19 0 34.5 -16.5t24.5 -39t9 -38.5q0 -12 -9.5 -19t-40.5 -19l-105 -39q-27 -11 -45 -11q-16 0 -30 22z" />
    <glyph glyph-name="i.locl" 
d="M189.5 24.5q-37.5 36.5 -37.5 107.5q0 41 10.5 103t27.5 120q-56 -6 -97 -6q-12 0 -17 9t-5 30q0 40 13 87.5t38 47.5h233q23 0 33 -7.5t10 -25.5l-2 -16q-48 -192 -48 -266q0 -26 5 -35.5t17 -9.5q34 0 91 42q8 5 14 5q16 0 32 -17.5t26.5 -42.5t10.5 -45q0 -15 -7 -25
t-24 -23q-43 -32 -99.5 -50.5t-115.5 -18.5q-71 0 -108.5 36.5zM249.5 622.5q-25.5 15.5 -25.5 50.5q0 17 2 26q8 50 39 71t102 21q61 0 86.5 -15.5t25.5 -49.5q0 -12 -3 -27q-8 -50 -38.5 -71t-101.5 -21q-61 0 -86.5 15.5z" />
    <glyph glyph-name="glyph107" 
d="M27.5 -175.5q-12.5 28.5 -12.5 74.5q0 39 9.5 56t33.5 20q71 9 112 24t64.5 43t37.5 77q29 101 44 236q-106 -7 -198 -7q-23 0 -23 39q0 16 5 49q9 49 20 68t27 19h327q24 0 33.5 -8t9.5 -27q0 -41 -22.5 -184t-50.5 -243q-34 -125 -127.5 -185.5t-246.5 -76.5
q-30 -3 -42.5 25.5z" />
    <glyph glyph-name="glyph108" 
d="M27.5 -175.5q-12.5 28.5 -12.5 74.5q0 39 9.5 56t33.5 20q71 9 112 24t64.5 43t37.5 77q29 101 44 236q-106 -7 -198 -7q-23 0 -23 39q0 16 5 49q9 49 20 68t27 19h327q24 0 33.5 -8t9.5 -27q0 -41 -22.5 -184t-50.5 -243q-34 -125 -127.5 -185.5t-246.5 -76.5
q-30 -3 -42.5 25.5zM361 584q-15 0 -29 12t-23.5 28.5t-9.5 29.5q0 7 4 12.5t17 16.5l164 135q8 7 19 7q19 0 41 -17t37.5 -42t15.5 -45q0 -10 -5.5 -16.5t-21.5 -15.5l-195 -102q-7 -3 -14 -3z" />
    <glyph glyph-name="scedilla.locl" 
d="M85 18q-13 6 -18 13.5t-5 22.5q0 20 9 48.5t23.5 47.5t30.5 13q80 -31 154 -31q35 0 50.5 7t15.5 21q0 12 -11.5 18.5t-43.5 14.5q-65 16 -103.5 32.5t-62 49.5t-23.5 89q0 94 67 142.5t177 48.5q103 0 176 -29q13 -6 17.5 -13.5t4.5 -23.5q0 -20 -8 -46t-22 -44.5
t-29 -18.5q-7 0 -10 2q-70 32 -136 32q-30 0 -43 -6.5t-13 -20.5t12 -20.5t41 -13.5q100 -23 146 -62t46 -113q0 -94 -69 -142t-185 -48t-188 30zM123 -203q-14 22 -14 45q0 19 13 28l105 63q40 24 58 24q19 0 34.5 -16.5t24.5 -39t9 -38.5q0 -12 -9.5 -19t-40.5 -19
l-105 -39q-27 -11 -45 -11q-16 0 -30 22z" />
    <glyph glyph-name="glyph239" 
d="M218 383q-29 20 -29 66q0 20 4 40q8 46 25.5 73t51 40t89.5 13q70 0 99 -20t29 -66q0 -20 -4 -40q-8 -46 -25.5 -73t-51 -40t-89.5 -13q-70 0 -99 20zM164 63q-29 20 -29 66q0 20 4 40q8 46 25.5 73t51 40t89.5 13q70 0 99 -20t29 -66q0 -20 -4 -40q-8 -46 -25.5 -73
t-51 -40t-89.5 -13q-70 0 -99 20z" />
    <glyph glyph-name="glyph240" 
d="M797 383q-29 20 -29 66q0 20 4 40q8 46 25.5 73t51 40t89.5 13q70 0 99 -20t29 -66q0 -20 -4 -40q-8 -46 -25.5 -73t-51 -40t-89.5 -13q-70 0 -99 20zM743 63q-29 20 -29 66q0 20 4 40q8 46 25.5 73t51 40t89.5 13q70 0 99 -20t29 -66q0 -20 -4 -40q-8 -46 -25.5 -73
t-51 -40t-89.5 -13q-70 0 -99 20zM277 383q-29 20 -29 66q0 20 4 40q8 46 25.5 73t51 40t89.5 13q70 0 99 -20t29 -66q0 -20 -4 -40q-8 -46 -25.5 -73t-51 -40t-89.5 -13q-70 0 -99 20zM223 63q-29 20 -29 66q0 20 4 40q8 46 25.5 73t51 40t89.5 13q70 0 99 -20t29 -66
q0 -20 -4 -40q-8 -46 -25.5 -73t-51 -40t-89.5 -13q-70 0 -99 20z" />
    <glyph glyph-name="glyph243" 
d="M554 382q0 -45 -14.5 -97.5t-42.5 -52.5h-326q-126 0 -158 57h-20l13 80h20q51 57 177 57h326q25 0 25 -44z" />
    <glyph glyph-name="glyph244" 
d="M85 276q0 45 14.5 97.5t42.5 52.5h326q126 0 158 -57h20l-13 -80h-20q-51 -57 -177 -57h-326q-25 0 -25 44z" />
    <glyph glyph-name="glyph245" 
d="M13 289h-20l13 80h20q51 57 178 57h264q126 0 158 -57h20l-13 -80h-20q-51 -57 -177 -57h-264q-127 0 -159 57z" />
    <glyph glyph-name="glyph247" 
d="M400 58q-82 -70 -179 -70q-98 0 -153 49t-55 137q0 65 36.5 119t101.5 90q-13 55 -13 101q0 104 65 163.5t173 59.5q65 0 116 -18t66 -43q10 -16 10 -74q0 -41 -5 -78q-3 -16 -30.5 -27t-65.5 -11q-37 0 -51 7t-14 24q0 40 4 80q-16 6 -38 6q-41 0 -58.5 -31t-17.5 -102
v-46q140 -147 278 -271q5 -4 5 -14q0 -19 -19.5 -47t-46 -49t-46.5 -21q-11 0 -19 8q-24 24 -44 58zM253 141q32 0 56 14q-31 26 -58 61.5t-42 66.5q-38 -32 -38 -74q0 -68 82 -68z" />
    <glyph glyph-name="glyph249" 
d="M242.5 627.5q-44.5 44.5 -47.5 119.5q-1 18 32.5 32t64.5 14q29 0 29 -14q1 -45 11 -62.5t44 -17.5t50.5 18t32.5 62q4 14 35 14q33 0 64 -14t25 -32q-27 -75 -86.5 -119.5t-134.5 -44.5t-119.5 44.5z" />
    <glyph glyph-name="glyph250" 
d="M168 618q-21 14 -21 45q0 16 2 26q8 46 33.5 65.5t86.5 19.5q51 0 72.5 -14t21.5 -46q0 -16 -2 -25q-8 -46 -34.5 -65.5t-86.5 -19.5q-51 0 -72 14zM432.5 754.5q25.5 19.5 86.5 19.5q51 0 72.5 -14t21.5 -46q0 -16 -2 -25q-8 -46 -34.5 -65.5t-86.5 -19.5q-51 0 -72 14
t-21 45q0 16 2 26q8 46 33.5 65.5z" />
    <glyph glyph-name="glyph251" 
d="M247.5 714.5q-3.5 5.5 -3.5 13.5q0 14 17 38t41 42t43 18q12 0 19 -8l139 -147q12 -13 12 -21q0 -20 -24 -43.5t-45 -23.5q-8 0 -13 4l-170 114q-12 8 -15.5 13.5z" />
    <glyph glyph-name="glyph252" 
d="M292 584q-15 0 -29 12t-23.5 28.5t-9.5 29.5q0 7 4 12.5t17 16.5l164 135q8 7 19 7q19 0 41 -17t37.5 -42t15.5 -45q0 -10 -5.5 -16.5t-21.5 -15.5l-195 -102q-7 -3 -14 -3z" />
    <glyph glyph-name="glyph253" 
d="M574 641q0 -11 -13.5 -25t-32.5 -23.5t-34 -9.5q-13 0 -21 8l-89 93l-119 -93q-8 -7 -22 -7q-24 0 -48 21t-24 42q0 4 4 9t10 11l125 120q14 13 37 20t49 7t47.5 -7t30.5 -20l93 -131q7 -9 7 -15z" />
    <glyph glyph-name="glyph254" 
d="M189 756q0 11 13.5 25t32.5 23.5t34 9.5q13 0 21 -8l89 -93l119 93q8 7 22 7q24 0 48 -21t24 -42q0 -4 -4 -9t-10 -11l-125 -120q-13 -13 -36.5 -20t-49.5 -7t-47.5 7t-30.5 20l-93 131q-7 9 -7 15z" />
    <glyph glyph-name="glyph255" 
d="M248 624.5q-42 41.5 -54 112.5q-3 18 30 35.5t62 17.5q20 0 23 -11q6 -37 20.5 -53.5t46.5 -16.5t52 16.5t39 53.5q6 11 28 11q19 0 42 -8t37 -20.5t8 -24.5q-36 -71 -92 -112.5t-128 -41.5t-114 41.5z" />
    <glyph glyph-name="glyph256" 
d="M287 620q-42 39 -42 101t42 101.5t108 39.5t108 -39.5t42 -101.5t-42 -101t-108 -39t-108 39zM349 682q17 -14 46 -14t46 14t17 39t-17 39t-46 14t-46 -14t-17 -39t17 -39z" />
    <glyph glyph-name="glyph257" 
d="M391 610.5q-26 17.5 -51 46.5q-14 15 -21 21t-15 6q-10 0 -20 -16.5t-22 -54.5q-4 -12 -21 -18.5t-39 -6.5q-27 0 -48 9.5t-18 24.5q46 198 171 198q41 0 66.5 -16.5t52.5 -46.5q11 -14 19.5 -21t16.5 -7q10 0 20 17t22 55q4 12 20.5 18t39.5 6q28 0 48.5 -9t17.5 -25
q-46 -198 -172 -198q-41 0 -67 17.5z" />
    <glyph glyph-name="glyph258" 
d="M195 632.5q-6 12.5 -6 31.5q0 29 13 60t35 31h309q24 0 24 -42q0 -30 -12 -61.5t-35 -31.5h-309q-13 0 -19 12.5z" />
    <glyph glyph-name="glyph259" 
d="M133 -203q-14 22 -14 45q0 19 13 28l105 63q40 24 58 24q19 0 34.5 -16.5t24.5 -39t9 -38.5q0 -12 -9.5 -19t-40.5 -19l-105 -39q-27 -11 -45 -11q-16 0 -30 22z" />
    <glyph glyph-name="glyph260" 
d="M173.5 773q-23.5 14 -23.5 45q0 11 3 26q8 46 36.5 65.5t95.5 19.5q56 0 80 -14t24 -46q0 -11 -3 -25q-8 -46 -37.5 -65.5t-95.5 -19.5q-56 0 -79.5 14zM464.5 909.5q28.5 19.5 95.5 19.5q56 0 80 -14t24 -46q0 -11 -3 -25q-8 -46 -37.5 -65.5t-95.5 -19.5
q-56 0 -79.5 14t-23.5 45q0 11 3 26q8 46 36.5 65.5z" />
    <glyph glyph-name="glyph261" 
d="M301.5 773q-25.5 14 -25.5 47q0 15 2 24q8 46 39.5 65.5t103.5 19.5q63 0 89.5 -14.5t26.5 -47.5q0 -15 -2 -23q-8 -46 -40 -65.5t-105 -19.5q-63 0 -88.5 14z" />
    <glyph glyph-name="glyph262" 
d="M261 869.5q-4 5.5 -4 13.5q0 14 19 38t45 42t47 18q13 0 21 -8l153 -147q14 -14 14 -21q0 -13 -12.5 -29t-30.5 -27t-33 -11q-10 0 -15 4l-187 114q-13 8 -17 13.5z" />
    <glyph glyph-name="glyph263" 
d="M311 739q-16 0 -32 12t-26 28.5t-10 29.5q0 7 4.5 12.5t18.5 16.5l181 135q8 7 21 7q20 0 44.5 -17t41.5 -42t17 -45q0 -10 -6 -16.5t-24 -15.5l-214 -102q-7 -3 -16 -3z" />
    <glyph glyph-name="glyph264" 
d="M619 796q0 -11 -14.5 -25t-36 -23.5t-38.5 -9.5q-12 0 -22 8l-98 93l-131 -93q-10 -7 -24 -7q-17 0 -35.5 10t-31 25t-12.5 28q0 4 4 9t11 11l138 120q14 13 40 20t54 7q29 0 52.5 -7t33.5 -20l102 -131q8 -9 8 -15z" />
    <glyph glyph-name="glyph265" 
d="M196 911q0 11 14.5 25t36 23.5t38.5 9.5q12 0 22 -8l98 -93l131 93q10 7 24 7q17 0 35.5 -10t31 -25t12.5 -28q0 -4 -4 -9t-11 -11l-138 -120q-14 -13 -40 -20t-54 -7t-51.5 7t-34.5 20l-102 131q-8 9 -8 15z" />
    <glyph glyph-name="glyph266" 
d="M260.5 779.5q-45.5 41.5 -59.5 112.5q-3 18 33.5 35.5t68.5 17.5q22 0 25 -11q7 -37 23 -53.5t51 -16.5t57 16.5t43 53.5q6 11 30 11q21 0 46.5 -8t40.5 -20.5t9 -24.5q-39 -71 -100.5 -112.5t-141.5 -41.5t-125.5 41.5z" />
    <glyph glyph-name="glyph267" 
d="M293 775q-46 39 -46 101t46 101.5t119 39.5q72 0 118.5 -39.5t46.5 -101.5q0 -61 -46.5 -100.5t-118.5 -39.5q-73 0 -119 39zM361 837q19 -14 51 -14t50.5 14t18.5 39t-18.5 39t-50.5 14t-51 -14t-19 -39t19 -39z" />
    <glyph glyph-name="glyph268" 
d="M419 765q-28 17 -57 46q-14 14 -22.5 21t-17.5 7q-11 0 -21.5 -16.5t-24.5 -54.5q-4 -12 -22.5 -18.5t-42.5 -6.5q-31 0 -54 9.5t-19 24.5q50 198 188 198q45 0 74 -17t56 -46q14 -14 22.5 -21t17.5 -7q12 0 22.5 16.5t23.5 55.5q5 12 23.5 18t42.5 6q31 0 54 -9t19 -25
q-50 -198 -189 -198q-45 0 -73 17z" />
    <glyph glyph-name="glyph269" 
d="M203.5 787.5q-6.5 12.5 -6.5 31.5q0 29 14 60t39 31h340q26 0 26 -42q0 -30 -13.5 -61.5t-38.5 -31.5h-340q-14 0 -20.5 12.5z" />
    <glyph glyph-name="glyph270" 
d="M279.5 622.5q-25.5 15.5 -25.5 50.5q0 17 2 26q8 50 39 71t102 21q61 0 86.5 -15.5t25.5 -49.5q0 -12 -3 -27q-8 -50 -38.5 -71t-101.5 -21q-61 0 -86.5 15.5z" />
    <glyph glyph-name="glyph271" 
 />
  </font>
</defs>
</svg>
