<?xml version="1.0" standalone="no"?>
<!DOCTYPE svg PUBLIC "-//W3C//DTD SVG 1.1//EN" "http://www.w3.org/Graphics/SVG/1.1/DTD/svg11.dtd" >
<svg xmlns="http://www.w3.org/2000/svg" xmlns:xlink="http://www.w3.org/1999/xlink" version="1.1">
<metadata>
Created by FontForge 20190801 at Wed Mar 24 01:31:26 2021
 By Unknown
</metadata>
<defs>
<font id="CodeliaLigatures" horiz-adv-x="620" >
  <font-face 
    font-family="Codelia Ligatures"
    font-weight="400"
    font-stretch="normal"
    units-per-em="1000"
    panose-1="0 0 0 0 0 0 0 0 0 0"
    ascent="800"
    descent="-200"
    x-height="522"
    cap-height="697"
    bbox="-10 -224 985 1020"
    underline-thickness="50"
    underline-position="-175"
    unicode-range="U+0020-2013"
  />
<missing-glyph 
 />
    <glyph glyph-name=".notdef" 
 />
    <glyph glyph-name=".null" horiz-adv-x="0" 
 />
    <glyph glyph-name="nonmarkingreturn" 
 />
    <glyph glyph-name="space" unicode=" " 
 />
    <glyph glyph-name="exclam" unicode="!" 
d="M244 5.5q-19 15.5 -19 51.5t19 51t66 15t66 -15t19 -51t-19 -51.5t-66 -15.5t-66 15.5zM268 729.5q12 6.5 42 6.5t42 -6t12 -21l-18 -419q-1 -13 -8.5 -19t-27.5 -6t-27.5 6t-8.5 19l-18 419q0 14 12 20.5z" />
    <glyph glyph-name="dollar" unicode="$" 
d="M277 -86q0 33 3 72q-93 3 -164 33q-17 5 -25 13.5t-8 21.5q0 20 12.5 37t27.5 11q74 -36 155 -40q-3 74 -3 149q0 50 3 99q-89 22 -137.5 66t-48.5 137q0 90 48 139t140 57q-3 35 -3 65q0 18 33 18t33 -18q0 -29 -3 -64q41 -1 77.5 -10t64.5 -24q19 -9 27 -17t8 -20
q0 -18 -13.5 -36.5t-27.5 -11.5q-34 19 -66 30t-68 14q3 -60 3 -121q0 -66 -3 -132q102 -26 148 -69.5t46 -123.5q0 -89 -50.5 -140t-145.5 -61q3 -40 3 -74q0 -19 -33 -19t-33 19zM203.5 434.5q30.5 -26.5 92.5 -42.5q-3 62 -3 122q0 61 3 121q-123 -7 -123 -120
q0 -54 30.5 -80.5zM455 186q0 47 -29 71t-101 42q2 -74 2 -110q0 -63 -3 -126q131 12 131 123z" />
    <glyph glyph-name="ampersand" unicode="&#x26;" 
d="M439 80q-80 -92 -202 -92q-93 0 -147 51.5t-54 140.5q0 124 112 197q-34 80 -34 154q0 84 52 130t143 46q53 0 97 -12.5t58 -30.5q11 -13 19.5 -62.5t8.5 -83.5q0 -13 -16.5 -21t-41.5 -8q-16 0 -19 19q-5 55 -15 109q-38 18 -91 18q-59 0 -88 -25.5t-29 -87.5
q0 -56 21 -136l215 -207q33 69 57 142q1 6 7.5 9t15.5 3q21 0 38.5 -11t12.5 -25q-33 -100 -78 -162q50 -38 106 -84q4 -4 4 -11q0 -16 -14.5 -34.5t-28.5 -18.5q-7 0 -11 4q-55 43 -98 89zM146 96q33 -32 97 -32q87 0 145 61q-63 53 -116 106t-86 94q-38 -29 -55.5 -62
t-17.5 -75q0 -60 33 -92z" />
    <glyph glyph-name="comma" unicode="," 
d="M200 -203q-16 0 -30 10.5t-14 25.5q0 9 10 20q53 61 112 117q-24 34 -39 75.5t-15 65.5q0 25 19.5 38t67.5 13t67.5 -13t19.5 -38q0 -29 -22.5 -81.5t-63 -113t-92.5 -112.5q-7 -7 -20 -7z" />
    <glyph glyph-name="hyphen" unicode="-" 
d="M94 329q0 46 20 46h392q20 0 20 -46t-20 -46h-392q-20 0 -20 46z" />
    <glyph glyph-name="period" unicode="." 
d="M228.5 10q-23.5 20 -23.5 66q0 45 24 65.5t81 20.5t81 -20.5t24 -65.5q0 -46 -23.5 -66t-81.5 -20t-81.5 20z" />
    <glyph glyph-name="zero" unicode="0" 
d="M126 70.5q-56 82.5 -56 249.5q0 198 61.5 293.5t191.5 95.5q116 0 171.5 -82t55.5 -250q0 -198 -61 -293.5t-191 -95.5q-116 0 -172 82.5zM160 201q59 79 136.5 172t150.5 172q-17 46 -48 67t-80 21q-61 0 -98 -30.5t-54 -97t-17 -177.5q0 -77 10 -127zM220 86.5
q32 -22.5 82 -22.5q61 0 97.5 30.5t53.5 97t17 178.5q0 81 -10 132q-60 -81 -138 -174t-151 -171q17 -48 49 -70.5z" />
    <glyph glyph-name="one" unicode="1" 
d="M119 9q-4 9 -4 30q0 22 4 31t13 9q78 0 161 -5q-4 176 -4 263q0 88 4 262h-14q-82 -58 -180 -88q-16 -5 -27.5 14t-11.5 42q0 9 4.5 13.5t15.5 8.5q54 20 111 47.5t102 57.5q12 10 28 10q24 0 39 -6t15 -16q0 -404 -5 -608q78 5 143 5q10 0 14 -9t4 -31q0 -21 -4 -30
t-14 -9h-381q-9 0 -13 9z" />
    <glyph glyph-name="two" unicode="2" 
d="M71 43q0 18 5 30.5t17 23.5q133 119 199.5 184.5t106 126.5t39.5 118q0 49 -32.5 75.5t-90.5 26.5q-47 0 -93 -14t-84 -39q-11 -7 -25 13.5t-14 40.5q0 12 6 16q43 30 97.5 46t115.5 16q96 0 151 -45.5t55 -126.5q0 -74 -44.5 -146.5t-118.5 -142t-191 -161.5v-11
q120 5 358 5q9 0 13.5 -9t4.5 -31q0 -39 -18 -39h-439q-18 0 -18 43z" />
    <glyph glyph-name="three" unicode="3" 
d="M199 -5.5q-47 9.5 -83 25.5q-17 7 -25 14.5t-8 19.5q0 15 10 34t22 19q5 0 23 -8q33 -15 70 -26t86 -11q77 0 117 32t40 87q0 46 -32 77.5t-102 52.5q-46 -3 -109 -3q-13 0 -20 10.5t-7 31.5q0 39 24 39q21 0 55 -3t61 -7q56 37 80.5 74t24.5 79q0 96 -124 96
q-40 0 -79.5 -9.5t-68.5 -24.5q-13 -6 -24.5 12t-11.5 38q0 18 11 23q35 17 83 27.5t96 10.5q95 0 147.5 -41.5t52.5 -117.5q0 -58 -30.5 -103.5t-93.5 -82.5v-10q152 -43 152 -174q0 -90 -64 -140.5t-177 -50.5q-49 0 -96 9.5z" />
    <glyph glyph-name="four" unicode="4" 
d="M386 -2q-10 5 -10 15q0 90 5 178q-105 -5 -315 -5q-11 0 -16 9.5t-5 30.5q0 18 4.5 32t15.5 32q53 87 130 192.5t151 195.5q13 16 26 21.5t38 5.5q27 0 39 -5t12 -18q0 -282 -4 -423q58 4 99 4q10 0 14.5 -9t4.5 -30t-4.5 -29.5t-14.5 -8.5q-41 0 -99 4q4 -88 4 -177
q0 -10 -9.5 -15t-32.5 -5t-33 5zM257 262q68 0 124 -4q-2 38 -2 129q0 137 6 228h-11q-65 -77 -131.5 -170t-116.5 -176v-11q86 4 131 4z" />
    <glyph glyph-name="five" unicode="5" 
d="M198 -6.5q-46 8.5 -80 24.5q-18 7 -26.5 15.5t-8.5 20.5q0 14 10 33t21 19q4 0 22 -8q35 -15 71.5 -25t87.5 -10q77 0 116.5 34.5t39.5 94.5q0 47 -29 77.5t-93 49t-171 28.5q-22 2 -31 10t-9 24q0 8 1 13l46 268q4 18 10.5 26.5t18.5 8.5h304q18 0 18 -38
q0 -21 -4.5 -30t-13.5 -9q-136 0 -260 5q-14 -109 -36 -218q179 -10 256.5 -61.5t77.5 -151.5q0 -99 -64.5 -154t-179.5 -55q-48 0 -94 8.5z" />
    <glyph glyph-name="six" unicode="6" 
d="M133.5 63.5q-64.5 78.5 -64.5 254.5q0 200 88.5 297t245.5 97q50 0 83 -8q16 -3 22.5 -10t6.5 -21q0 -19 -9.5 -35.5t-23.5 -13.5q-39 11 -85 11q-110 0 -174.5 -67t-77.5 -205l9 -2q79 64 184 64q102 0 157.5 -54.5t55.5 -157.5q0 -108 -59.5 -168t-170.5 -60
q-123 0 -187.5 78.5zM194 120.5q41 -59.5 124 -59.5q71 0 109 40t38 113q0 70 -38.5 106t-109.5 36q-42 0 -85.5 -12.5t-79.5 -35.5q1 -128 42 -187.5z" />
    <glyph glyph-name="seven" unicode="7" 
d="M209 -2.5q-11 4.5 -11 14.5q0 7 9 34q85 285 247 566v11q-121 -5 -362 -5q-9 0 -13.5 9t-4.5 31q0 39 18 39h435q10 0 14.5 -9.5t4.5 -31.5q0 -31 -16 -60q-77 -138 -139.5 -287t-104.5 -295q-4 -12 -13 -16.5t-29 -4.5q-24 0 -35 4.5z" />
    <glyph glyph-name="eight" unicode="8" 
d="M130.5 33.5q-62.5 48.5 -62.5 135.5q0 56 26.5 97.5t79.5 77.5v10q-40 29 -65 74t-25 100q0 88 61.5 136t171.5 48q108 0 164.5 -44.5t56.5 -125.5q0 -113 -107 -173v-10q121 -68 121 -186q0 -90 -63.5 -139t-177.5 -49q-118 0 -180.5 48.5zM193 92q41 -33 122 -33
q76 0 114.5 30.5t38.5 84.5q0 83 -92 136q-76 7 -138 18q-44 -37 -65 -73t-21 -74q0 -56 41 -89zM183 456q16 -32 43 -56q69 -12 143 -20q40 30 63 69.5t23 79.5q0 52 -35.5 80.5t-107.5 28.5q-71 0 -108 -30.5t-37 -82.5q0 -37 16 -69z" />
    <glyph glyph-name="nine" unicode="9" 
d="M143.5 2.5q-13.5 17.5 -13.5 40.5q0 19 16 24q215 75 288 204l-3 10q-44 -11 -97 -11q-125 0 -195 57.5t-70 166.5q0 101 60 159.5t166 58.5q119 0 187.5 -74t68.5 -206q0 -149 -95.5 -263.5t-281.5 -177.5q-17 -6 -30.5 11.5zM209 376q54 -39 156 -39q47 0 93 8
q10 37 10 81q0 98 -43.5 154t-125.5 56q-68 0 -106 -38.5t-38 -104.5q0 -78 54 -117z" />
    <glyph glyph-name="colon" unicode=":" 
d="M228.5 380q-23.5 20 -23.5 66q0 45 24 65.5t81 20.5t81 -20.5t24 -65.5q0 -46 -23.5 -66t-81.5 -20t-81.5 20zM228.5 9q-23.5 20 -23.5 66q0 45 24 65.5t81 20.5t81 -20.5t24 -65.5q0 -46 -23.5 -66t-81.5 -20t-81.5 20z" />
    <glyph glyph-name="semicolon" unicode=";" 
d="M228.5 380q-23.5 20 -23.5 66q0 45 24 65.5t81 20.5t81 -20.5t24 -65.5q0 -46 -23.5 -66t-81.5 -20t-81.5 20zM200 -203q-16 0 -30 10.5t-14 25.5q0 9 10 20q53 61 112 117q-24 34 -39 75.5t-15 65.5q0 25 19.5 38t67.5 13t67.5 -13t19.5 -38q0 -29 -22.5 -81.5t-63 -113
t-92.5 -112.5q-7 -7 -20 -7z" />
    <glyph glyph-name="question" unicode="?" 
d="M345 396q49 28 68 51.5t19 51.5q0 66 -94.5 100t-211.5 38q-13 1 -17.5 12t-4.5 31q0 51 28 51q70 0 159 -21t156.5 -72t67.5 -134q0 -54 -31 -94t-90.5 -72.5t-165.5 -73.5q-13 -5 -23.5 11.5t-10.5 34.5q0 15 9 19q93 39 142 67zM191 108q19 15 66 15t66 -15t19 -51
q0 -35 -19 -51t-66 -16q-46 0 -65.5 16t-19.5 51q0 36 19 51z" />
    <glyph glyph-name="A" unicode="A" 
d="M51 12q0 4 5 36q70 332 183 625q6 18 20.5 25t50.5 7q37 0 51 -6.5t20 -25.5q113 -293 183 -625q5 -32 5 -36q0 -19 -46 -19q-20 0 -29 4.5t-13 20.5q-22 100 -36 180q-60 -4 -135 -4t-135 4q-14 -80 -36 -180q-4 -16 -13 -20.5t-29 -4.5q-46 0 -46 19zM310 269
q62 0 123 -3l-30 98q-6 20 -33 107.5t-54 160.5h-12q-27 -73 -54 -160.5t-33 -107.5l-30 -98q62 3 123 3z" />
    <glyph glyph-name="B" unicode="B" 
d="M196 -1.5q-46 6.5 -73 18.5q-16 6 -22.5 14.5t-6.5 23.5v358q0 101 4 137t14 55v12q-25 -6 -36 -6t-16 8.5t-5 28.5q0 19 6 26t23 12q37 9 91.5 14t108.5 5q233 0 233 -178q0 -56 -23.5 -95.5t-71.5 -70.5v-10q131 -37 131 -166q0 -94 -68 -143.5t-199 -49.5
q-44 0 -90 6.5zM181 186q0 -52 -3 -105q40 -17 109 -17q89 0 134 32t45 94q0 59 -42 90.5t-125 31.5q-70 0 -122 -8q4 -78 4 -118zM299 378q19 0 47 -2q43 30 64 64.5t21 78.5q0 56 -35.5 85t-112.5 29q-48 0 -106 -7q4 -55 4 -124q0 -44 -4 -132q67 8 122 8z" />
    <glyph glyph-name="C" unicode="C" 
d="M131.5 68q-64.5 79 -64.5 259q0 186 75 283.5t217 97.5q59 0 105 -16.5t64 -40.5q9 -12 16.5 -56t7.5 -70q0 -15 -16.5 -23t-39.5 -8q-12 0 -17 4.5t-7 18.5q-3 40 -11 86q-17 12 -45.5 19.5t-61.5 7.5q-99 0 -150.5 -75.5t-51.5 -224.5q0 -98 20 -155.5t60 -82
t102 -24.5q45 0 88.5 11.5t91.5 36.5q15 6 26.5 -13t11.5 -39q0 -16 -15 -24q-42 -23 -99 -37t-112 -14q-130 0 -194.5 79z" />
    <glyph glyph-name="D" unicode="D" 
d="M177 -2q-39 6 -64 17q-16 6 -22.5 14t-6.5 23v357q0 99 4 135.5t15 56.5v12q-27 -6 -36 -6q-11 0 -16 8.5t-5 30.5q0 20 5.5 28t23.5 12q79 19 187 19q147 0 221.5 -90t74.5 -267q0 -176 -75.5 -266t-224.5 -90q-42 0 -81 6zM171 348q0 -145 -4 -264q39 -12 89 -12
q111 0 163 67.5t52 208.5q0 142 -52 209.5t-163 67.5q-51 0 -89 -6q4 -121 4 -271z" />
    <glyph glyph-name="E" unicode="E" 
d="M125.5 8q-7.5 8 -7.5 26v385q0 100 4 136.5t14 54.5v12l-38 -2q-10 0 -14.5 9t-4.5 30q0 20 4.5 29t14.5 9h414q10 0 14.5 -9t4.5 -29q0 -21 -4.5 -30t-14.5 -9q-139 0 -312 4q4 -53 4 -117t-4 -117q160 4 274 4q18 0 18 -38q0 -20 -4.5 -28.5t-13.5 -8.5q-114 0 -274 3
q4 -55 4 -124q0 -68 -4 -125q174 4 317 4q10 0 14 -8.5t4 -30.5q0 -21 -4 -29.5t-14 -8.5h-366q-18 0 -25.5 8z" />
    <glyph glyph-name="F" unicode="F" 
d="M147 -2q-10 5 -10 15v406q0 98 4 135t14 56v12l-37 -2q-10 0 -14.5 9t-4.5 30q0 20 4.5 29t14.5 9h415q18 0 18 -39q0 -22 -4.5 -31.5t-13.5 -9.5q-149 0 -313 5q4 -57 4 -129t-4 -131q151 4 274 4q10 0 14 -8.5t4 -29.5q0 -22 -4 -30.5t-14 -8.5q-123 0 -274 3
q4 -95 4 -279q0 -20 -44 -20q-23 0 -33 5z" />
    <glyph glyph-name="G" unicode="G" 
d="M128 68.5q-67 79.5 -67 258.5q0 186 75 283.5t215 97.5q57 0 102 -14.5t63 -35.5q10 -11 17 -47t7 -64q0 -14 -16.5 -21.5t-44.5 -7.5q-10 0 -14 4t-5 14q-4 40 -11 71q-16 12 -43.5 18.5t-59.5 6.5q-98 0 -148 -76.5t-50 -227.5q0 -99 20 -156.5t59.5 -82t100.5 -24.5
q79 0 134 30q-3 42 -3 84q0 52 4 96q-68 -4 -121 -4q-9 0 -13 8.5t-4 28.5t4 28.5t13 8.5h171q18 0 25.5 -8t7.5 -26v-230q0 -20 -9 -32t-30 -22q-87 -38 -183 -38q-129 0 -196 79.5z" />
    <glyph glyph-name="H" unicode="H" 
d="M80 13v671q0 20 44 20q43 0 43 -20q0 -140 -4 -290q67 4 147 4q82 0 147 -4q-4 150 -4 290q0 20 43 20q44 0 44 -20v-671q0 -20 -44 -20q-43 0 -43 20q0 148 4 309q-73 -3 -147 -3q-72 0 -147 3q4 -161 4 -309q0 -20 -43 -20q-44 0 -44 20z" />
    <glyph glyph-name="I" unicode="I" 
d="M121 39q0 23 4.5 32t13.5 9q58 0 131 -5q-4 184 -4 273q0 88 4 274q-73 -5 -131 -5q-9 0 -13.5 9t-4.5 32q0 39 18 39h342q18 0 18 -39q0 -23 -4.5 -32t-13.5 -9q-58 0 -131 5q4 -124 4 -274t-4 -273q73 5 131 5q9 0 13.5 -9t4.5 -32q0 -39 -18 -39h-342q-18 0 -18 39z
" />
    <glyph glyph-name="J" unicode="J" 
d="M90 34q-21 18 -21 34q0 17 12.5 34t25.5 17q6 0 10 -3q26 -26 54 -37t66 -11q68 0 102.5 33t43.5 117q6 52 6 172q0 87 -7 232q-119 -5 -214 -5q-10 0 -14 9t-4 32q0 22 4 30.5t14 8.5h263q35 0 36 -34q8 -163 8 -288q0 -110 -9 -187q-14 -104 -70.5 -152t-159.5 -48
q-97 0 -146 46z" />
    <glyph glyph-name="K" unicode="K" 
d="M477 -1.5q-6 5.5 -15 23.5q-38 74 -91 150t-117 145q-17 -2 -42 -3.5t-38 -2.5q5 -158 5 -298q0 -20 -44 -20q-43 0 -43 20v671q0 20 43 20q44 0 44 -20q0 -139 -5 -294q54 2 80 6q105 130 186 282q8 15 14 20.5t15 5.5q22 0 43 -9.5t21 -22.5q0 -11 -14 -35
q-36 -63 -91 -140.5t-109 -136.5q64 -64 123.5 -145.5t96.5 -149.5q16 -29 16 -40q0 -12 -22 -22t-42 -10q-8 0 -14 5.5z" />
    <glyph glyph-name="L" unicode="L" 
d="M100 34v650q0 20 43 20t43 -20q0 -403 -4 -609q220 5 271 5q8 33 15 89q2 14 7 18.5t17 4.5q23 0 39.5 -8t16.5 -23q0 -27 -14 -78t-27 -71q-9 -12 -22 -12h-352q-33 0 -33 34z" />
    <glyph glyph-name="M" unicode="M" 
d="M57 14q0 157 7 335t19 326q2 17 15.5 23.5t45.5 6.5q30 0 43 -7t18 -24q60 -178 98 -358h14q38 180 98 358q5 17 18 24t43 7q32 0 45.5 -6.5t15.5 -23.5q12 -148 19 -326t7 -335q0 -21 -42 -21q-41 0 -41 20l1 128q0 266 -12 477h-12q-56 -167 -99 -354q-2 -15 -13 -21.5
t-35 -6.5t-35 6.5t-13 21.5q-43 185 -99 354h-12q-12 -211 -12 -477l1 -128q0 -20 -41 -20q-42 0 -42 21z" />
    <glyph glyph-name="N" unicode="N" 
d="M78 13v665q0 14 14 20t43 6t42 -8t23 -32q124 -258 260 -576h10q-7 100 -11.5 282.5t-4.5 313.5q0 20 44 20t44 -20v-665q0 -14 -14 -20t-43 -6t-42 8t-23 32q-104 217 -260 576h-10q7 -100 11.5 -282.5t4.5 -313.5q0 -20 -44 -20t-44 20z" />
    <glyph glyph-name="O" unicode="O" 
d="M156 22q-54 34 -79 106.5t-25 191.5q0 139 28 224.5t87 125t156 39.5q88 0 141.5 -34t78.5 -106.5t25 -191.5q0 -139 -28 -224t-87 -125t-155 -40q-88 0 -142 34zM155.5 174q15.5 -57 50.5 -82.5t95 -25.5q67 0 105.5 29t56 95t17.5 179q0 98 -15.5 154.5t-50.5 82
t-96 25.5q-67 0 -105.5 -29t-55.5 -94.5t-17 -178.5q0 -98 15.5 -155z" />
    <glyph glyph-name="P" unicode="P" 
d="M118.5 -2q-9.5 5 -9.5 15v396q0 101 4 137t14 55v12q-25 -6 -36 -6t-16 9t-5 30q0 19 6 27t23 13q37 9 90.5 14t107.5 5q128 0 192.5 -62t64.5 -183q0 -122 -63 -184.5t-187 -62.5q-60 0 -113 12q4 -122 4 -212q0 -20 -44 -20q-23 0 -32.5 5zM298 288q86 0 127.5 42
t41.5 130q0 87 -41 128t-128 41q-61 0 -106 -9q3 -76 3 -159q0 -82 -3 -162q50 -11 106 -11z" />
    <glyph glyph-name="Q" unicode="Q" 
d="M125.5 80q-73.5 87 -73.5 268q0 188 64 274.5t207 86.5q87 0 141 -33.5t79 -103.5t25 -184q0 -196 -88 -344q60 -44 133 -85q21 -11 21 -25q0 -17 -15.5 -38t-30.5 -21q-6 0 -12 3t-15 10q-62 41 -136 116q-41 -11 -91 -11q-135 0 -208.5 87zM193 132.5
q53 -66.5 155 -66.5q40 0 73 10q59 118 59 304q0 93 -15.5 147t-51 79t-95.5 25q-66 0 -105 -27.5t-56 -87t-17 -159.5q0 -158 53 -224.5z" />
    <glyph glyph-name="R" unicode="R" 
d="M98 13v400q0 99 4 135.5t15 56.5v12q-27 -6 -36 -6q-11 0 -16 8.5t-5 28.5q0 19 5.5 26.5t23.5 11.5q37 9 90 14t107 5q123 0 186 -52t63 -152q0 -143 -135 -222q45 -51 87 -110.5t68 -107.5q15 -27 15 -35q0 -13 -23 -23t-40 -10q-11 0 -17 7t-17 28q-56 106 -145 219
q-32 -2 -47 -2q-40 0 -100 7q4 -128 4 -239q0 -20 -44 -20q-43 0 -43 20zM290 321q33 0 49 1q56 36 82.5 79t26.5 98q0 65 -39.5 97.5t-121.5 32.5q-62 0 -105 -7q3 -69 3 -142q0 -77 -3 -152q50 -7 108 -7z" />
    <glyph glyph-name="S" unicode="S" 
d="M116 19q-17 5 -25 13.5t-8 21.5q0 20 12.5 37t27.5 11q85 -40 173 -40q79 0 118 32t39 92q0 33 -14.5 54t-45.5 34.5t-87 26.5q-68 15 -113 35.5t-73 62.5t-28 112q0 100 58 150t169 50q56 0 107 -13t67 -29q10 -10 17.5 -45.5t7.5 -64.5t-59 -29q-10 0 -14 4t-5 14
q-4 41 -10 66q-47 22 -114 22q-71 0 -106 -31.5t-35 -89.5q0 -42 18 -66.5t49 -38t82 -24.5q113 -26 162.5 -69.5t49.5 -127.5q0 -99 -63 -151t-179 -52q-97 0 -178 33z" />
    <glyph glyph-name="T" unicode="T" 
d="M266 13q0 403 6 609q-114 -5 -209 -5q-9 0 -13.5 9t-4.5 32q0 39 18 39h494q18 0 18 -39q0 -23 -4.5 -32t-13.5 -9q-66 0 -209 5q6 -206 6 -609q0 -20 -44 -20t-44 20z" />
    <glyph glyph-name="U" unicode="U" 
d="M154.5 35.5q-55.5 47.5 -69.5 150.5q-9 77 -9 189q0 144 9 309q2 10 11.5 15t32.5 5q24 0 34 -5.5t8 -18.5q-8 -136 -8 -290q0 -120 5 -174q9 -83 43 -115.5t99 -32.5t99 32.5t43 115.5q6 52 6 174q0 137 -9 290q-2 13 8 18.5t34 5.5t33 -5t11 -15q9 -165 9 -309
q0 -112 -9 -189q-14 -103 -69.5 -150.5t-155.5 -47.5t-155.5 47.5z" />
    <glyph glyph-name="V" unicode="V" 
d="M259.5 0q-14.5 7 -20.5 25q-119 295 -183 625q-5 32 -5 37q0 18 46 18q20 0 29 -4.5t13 -20.5q26 -154 68.5 -311.5t96.5 -297.5h12q54 140 96.5 297.5t68.5 311.5q4 16 13 20.5t29 4.5q46 0 46 -18q0 -5 -5 -37q-64 -330 -183 -625q-6 -18 -20.5 -25t-50.5 -7t-50.5 7z
" />
    <glyph glyph-name="W" unicode="W" 
d="M147.5 2q-10.5 8 -17.5 35q-33 127 -59 294t-38 314l-2 41q0 19 41 19q22 0 32 -5t11 -18q12 -293 74 -610h12q45 125 75 285q-7 107 -7 132q0 23 41 23t41 -23q0 -25 -7 -132q30 -160 75 -285h12q62 317 74 610q1 13 11 18t32 5q41 0 41 -19l-2 -41q-11 -144 -37 -311.5
t-60 -296.5q-7 -27 -17.5 -35t-37.5 -8q-28 0 -39 7t-17 28q-44 136 -64 271h-10q-20 -135 -64 -271q-6 -21 -17 -28t-39 -7q-27 0 -37.5 8z" />
    <glyph glyph-name="X" unicode="X" 
d="M65.5 0.5q-19.5 9.5 -19.5 22.5q0 10 14 38q32 68 85.5 152t107.5 151q-46 59 -92.5 134t-77.5 137q-7 13 -10.5 22.5t-3.5 15.5q0 12 19.5 22.5t37.5 10.5q11 0 17.5 -6t14.5 -24q64 -137 144 -255h16q80 118 144 255q8 18 14.5 24t17.5 6q18 0 37.5 -10.5t19.5 -22.5
q0 -6 -3.5 -15.5t-10.5 -22.5q-31 -62 -77.5 -137t-92.5 -134q54 -67 107.5 -151t85.5 -152q14 -28 14 -38q0 -13 -19.5 -22.5t-38.5 -9.5q-10 0 -17 6t-15 25q-59 136 -167 284h-14q-110 -149 -166 -284q-9 -19 -16 -25t-17 -6q-19 0 -38.5 9.5z" />
    <glyph glyph-name="Y" unicode="Y" 
d="M266 13q0 113 5 264q-121 176 -207 376q-6 15 -6 24q0 11 18 19.5t39 8.5q13 0 19.5 -6t10.5 -20q32 -77 73.5 -160.5t86.5 -155.5h10q45 72 86.5 155.5t73.5 160.5q4 14 10.5 20t19.5 6q20 0 38.5 -8.5t18.5 -19.5q0 -9 -6 -24q-88 -206 -207 -376q5 -151 5 -264
q0 -20 -44 -20t-44 20z" />
    <glyph glyph-name="Z" unicode="Z" 
d="M59.5 10q-5.5 10 -5.5 32q0 19 4.5 30t18.5 33q3 5 8 12t11 16q112 160 188 266.5t157 211.5v11q-192 -5 -348 -5q-19 0 -19 41q0 39 19 39h427q13 0 18.5 -10t5.5 -32q0 -19 -4.5 -31t-18.5 -32q-112 -161 -195 -277.5t-169 -228.5v-11q206 5 389 5q19 0 19 -41
q0 -39 -19 -39h-468q-13 0 -18.5 10z" />
    <glyph glyph-name="a" unicode="a" 
d="M497 1q-33 15 -83 48q-79 -60 -176 -60q-76 0 -117.5 40t-41.5 110q0 76 50.5 117t153.5 41q70 0 135 -16l1 34q0 82 -26 114.5t-87 32.5q-39 0 -80.5 -10t-76.5 -26q-3 -2 -10 -2q-13 0 -22 15t-9 32q0 10 4.5 15t16.5 10q38 17 88.5 28t99.5 11q96 0 140.5 -48.5
t44.5 -163.5q0 -46 -6 -108t-17 -120q47 -13 67.5 -20t25.5 -12t5 -14q0 -21 -10 -42t-22 -21q-15 0 -48 15zM262 59q69 0 141 38q7 56 12 131q-52 9 -103 9q-84 0 -116 -20.5t-32 -66.5q0 -91 98 -91z" />
    <glyph glyph-name="b" unicode="b" 
d="M163 4.5q-58 16.5 -58 42.5v442q0 72 -1 119.5t-1 74.5l-1 30q0 20 41 20q23 0 32.5 -5t9.5 -15q0 -159 -4 -264h11q41 41 90.5 63t97.5 22q84 0 127.5 -63t43.5 -186q0 -150 -65 -223.5t-196 -73.5q-69 0 -127 16.5zM291 61q93 0 135 51t42 163q0 90 -30 136t-87 46
q-39 0 -84 -21.5t-81 -58.5q2 -96 2 -145q0 -77 -3 -155q41 -16 106 -16z" />
    <glyph glyph-name="c" unicode="c" 
d="M153.5 47q-53.5 59 -53.5 194q0 143 63.5 218t184.5 75q53 0 94.5 -13.5t59.5 -35.5q12 -14 19 -46.5t7 -60.5q0 -13 -16 -19.5t-39 -6.5q-10 0 -15 3.5t-6 14.5l-11 64q-16 11 -42.5 18t-56.5 7q-78 0 -118.5 -54t-40.5 -160q0 -99 34.5 -139.5t107.5 -40.5q80 0 165 39
l8 2q13 0 22 -17.5t9 -34.5q0 -15 -17 -24q-39 -19 -91.5 -30.5t-105.5 -11.5q-108 0 -161.5 59z" />
    <glyph glyph-name="d" unicode="d" 
d="M113 51.5q-44 63.5 -44 185.5q0 150 63.5 223.5t191.5 73.5q67 0 112 -16q-2 56 -2 195q0 10 9.5 15t32.5 5q41 0 41 -20v-30q-2 -78 -2 -194v-255q0 -73 1 -120.5t1 -73.5l1 -29q0 -11 -9 -16t-32 -5t-32.5 5t-9.5 16q0 -1 4 63h-10q-41 -42 -91 -64t-98 -22
q-83 0 -127 63.5zM182.5 111q29.5 -46 86.5 -46q40 0 83.5 21t81.5 60q-2 94 -2 142q0 79 3 157q-38 16 -108 16q-91 0 -132.5 -51t-41.5 -163q0 -90 29.5 -136z" />
    <glyph glyph-name="e" unicode="e" 
d="M137.5 49.5q-56.5 61.5 -56.5 189.5q0 143 67 219t190 76q100 0 150.5 -50.5t50.5 -142.5q0 -42 -11.5 -65.5t-38.5 -27.5q-88 -11 -186 -11q-75 0 -138 7v-3q0 -98 36.5 -139t123.5 -41q43 0 83.5 9.5t86.5 29.5q15 7 26 -11t11 -38q0 -7 -3.5 -12t-13.5 -9
q-38 -19 -91 -30.5t-107 -11.5q-123 0 -179.5 61.5zM280 295q99 0 175 11q4 15 4 39q0 123 -128 123q-144 0 -163 -169q48 -4 112 -4z" />
    <glyph glyph-name="f" unicode="f" 
d="M214.5 -2q-9.5 5 -9.5 15q0 172 5 400q-72 -4 -136 -4q-10 0 -14.5 8.5t-4.5 29.5t4.5 30t14.5 9q63 0 133 -4q-4 28 -4 65q0 68 23.5 108t85.5 61t179 22q12 1 16.5 -8.5t4.5 -31.5q0 -34 -17 -34q-91 0 -137 -12.5t-62.5 -39t-16.5 -74.5q0 -28 3 -57q123 5 234 5
q10 0 14.5 -9t4.5 -30t-4.5 -29.5t-14.5 -8.5q-110 0 -232 5q4 -228 4 -401q0 -20 -41 -20q-23 0 -32.5 5z" />
    <glyph glyph-name="g" unicode="g" 
d="M128 -165.5q-55 37.5 -55 101.5q0 66 52 105q-13 14 -21 33.5t-8 41.5q0 26 11 51t32 44q-26 29 -40.5 67t-14.5 81q0 84 56.5 128.5t162.5 44.5q87 0 141 -26q79 56 99 56q13 0 20.5 -17.5t7.5 -38.5q0 -10 -3 -14.5t-13 -8.5l-74 -26q23 -46 23 -104q0 -82 -55 -129
t-155 -47q-59 0 -103 13q-20 -26 -20 -57q0 -26 12 -40q26 -5 76.5 -7.5t61.5 -3.5q58 -2 85 -4q151 -8 151 -123q0 -73 -64.5 -115.5t-191.5 -42.5q-118 0 -173 37.5zM188 -115.5q36 -21.5 124 -21.5q83 0 123.5 22t40.5 62q0 57 -87 62q-61 4 -94 5q-101 6 -114 8
q-29 -27 -29 -71q0 -45 36 -66.5zM172 297q8 -28 23 -44q35 -9 94 -9q136 0 136 119q0 48 -14 85q-48 16 -102 16q-145 0 -145 -109q0 -30 8 -58z" />
    <glyph glyph-name="h" unicode="h" 
d="M447.5 -1.5q-9.5 5.5 -8.5 18.5q10 107 10 224q0 79 -7 121q-7 49 -33.5 71t-75.5 22q-43 0 -83.5 -18.5t-73.5 -53.5q6 -209 6 -370q0 -10 -9.5 -15t-32.5 -5q-42 0 -42 20v378q0 148 -2 268q-1 26 -1 55q0 11 9.5 15.5t32.5 4.5t32 -4.5t9 -15.5q0 -122 -4 -263h12
q70 83 176 83q140 0 161 -142q9 -55 9 -137q0 -123 -10 -242q-2 -10 -11 -15t-31 -5q-23 0 -32.5 5.5z" />
    <glyph glyph-name="i" unicode="i" 
d="M116 38q0 38 20 38q74 0 147 -4q-4 126 -4 187t4 187q-67 -4 -129 -4q-10 0 -14.5 8.5t-4.5 29.5q0 20 4.5 29t14.5 9h178q17 0 23.5 -6.5t6.5 -24.5q0 -275 -4 -415q78 4 147 4q10 0 14.5 -8.5t4.5 -29.5q0 -20 -4.5 -29t-14.5 -9h-369q-20 0 -20 38zM249 665
q-18 14 -18 46t18 45.5t61 13.5t61 -13.5t18 -45.5t-18 -46t-61 -14t-61 14z" />
    <glyph glyph-name="j" unicode="j" 
d="M103.5 -189q-6.5 15 -6.5 36q0 14 4 19.5t15 6.5q78 9 124.5 28.5t70.5 55.5t31 96q9 93 9 209q0 80 -4 184q-125 -4 -233 -4q-19 0 -19 38t19 38h280q18 0 25 -7t8 -24q8 -101 8 -224q0 -115 -10 -222q-8 -81 -43 -131t-97.5 -76t-160.5 -37q-14 -1 -20.5 14zM288 665
q-18 14 -18 46t18 45.5t61 13.5t61 -13.5t18 -45.5t-18 -46t-61 -14t-61 14z" />
    <glyph glyph-name="k" unicode="k" 
d="M463.5 -3.5q-6.5 4.5 -13.5 17.5q-82 117 -203 217q-32 -5 -60 -8q7 -119 7 -210q0 -10 -9.5 -15t-32.5 -5q-42 0 -42 20v378q0 148 -2 268q-1 26 -1 55q0 11 9.5 15.5t32.5 4.5q22 0 31.5 -4.5t9.5 -15.5q0 -190 -4 -414q42 4 61 8q96 87 182 201q9 12 15 16t14 4
q22 0 43.5 -8t21.5 -19q0 -4 -4 -10.5t-11 -16.5q-40 -49 -91.5 -104t-101.5 -98q60 -48 118 -109.5t97 -116.5q14 -19 14 -28q0 -10 -22 -18.5t-43 -8.5q-9 0 -15.5 4.5z" />
    <glyph glyph-name="l" unicode="l" 
d="M304.5 10.5q-39.5 22.5 -57.5 80t-18 165.5q0 187 7 397q-90 -4 -162 -4q-10 0 -14.5 9t-4.5 30q0 20 4.5 29t14.5 9h212q18 0 25 -7t7 -25q-6 -174 -6 -419q0 -87 11.5 -132t36 -61.5t67.5 -16.5q50 0 88 21q15 6 26 -10.5t11 -36.5q0 -15 -14 -23q-21 -12 -53.5 -20
t-69.5 -8q-71 0 -110.5 22.5z" />
    <glyph glyph-name="m" unicode="m" 
d="M475 13q10 111 10 228q0 70 -4 118q-4 55 -17.5 76.5t-40.5 21.5q-50 0 -83 -58q4 -60 4 -157q0 -121 -7 -229q-1 -10 -8 -15t-23 -5q-35 0 -33 20q7 109 7 228q0 82 -3 118q-4 55 -17 76.5t-40 21.5q-48 0 -84 -61q5 -215 5 -383q0 -20 -38 -20t-38 20v317
q0 82 -2 128.5t-2 51.5q0 10 8.5 14t28.5 4t28.5 -4t8.5 -14l-3 -47h10q39 71 105 71q65 0 84 -74h10q24 38 51.5 56t62.5 18q48 0 72 -34t29 -108q4 -64 4 -150q0 -101 -10 -229q-1 -10 -9.5 -15t-28.5 -5q-39 0 -37 20z" />
    <glyph glyph-name="n" unicode="n" 
d="M447.5 -1.5q-9.5 5.5 -8.5 18.5q10 107 10 224q0 79 -7 121q-7 49 -33.5 71t-75.5 22q-43 0 -83 -18t-72 -52q4 -175 4 -372q0 -20 -41 -20q-43 0 -43 20v378q0 53 -2 97l-1 20q0 11 9.5 15.5t32.5 4.5q22 0 31.5 -4.5t9.5 -15.5q0 -23 -4 -56h13q71 82 175 82
q140 0 161 -142q9 -55 9 -137q0 -123 -10 -242q-2 -10 -11 -15t-31 -5q-23 0 -32.5 5.5z" />
    <glyph glyph-name="o" unicode="o" 
d="M127.5 51.5q-58.5 63.5 -58.5 186.5q0 146 64 221t189 75q112 0 170.5 -63.5t58.5 -185.5q0 -147 -64 -222t-189 -75q-112 0 -170.5 63.5zM189 106q37 -45 113 -45q85 0 125.5 52.5t40.5 163.5q0 94 -36.5 139t-113.5 45q-85 0 -125.5 -52.5t-40.5 -163.5q0 -94 37 -139z
" />
    <glyph glyph-name="p" unicode="p" 
d="M184 4q2 -74 2 -184q0 -10 -9.5 -15t-32.5 -5q-41 0 -41 20v30q2 78 2 194v284q0 61 -1 100t-1 60q-1 11 -1 23q0 11 9.5 16t31.5 5q23 0 32.5 -5t9.5 -16q0 -18 -3 -42l-1 -20h11q41 41 91 63t97 22q84 0 127.5 -63t43.5 -186q0 -150 -63.5 -223.5t-191.5 -73.5
q-67 0 -112 16zM293 61q91 0 133 51t42 163q0 90 -30 136t-87 46q-39 0 -83.5 -21.5t-81.5 -59.5q2 -92 2 -137q0 -80 -3 -161q40 -17 108 -17z" />
    <glyph glyph-name="q" unicode="q" 
d="M443.5 -195.5q-9.5 4.5 -9.5 15.5q0 149 3 247h-9q-40 -38 -90 -58.5t-98 -20.5q-83 0 -127 63.5t-44 185.5q0 150 65 223.5t196 73.5q69 0 127 -15.5t58 -40.5v-420q0 -124 2 -206v-32q0 -11 -9.5 -15.5t-31.5 -4.5q-23 0 -32.5 4.5zM182 111q30 -46 87 -46
q39 0 84 20.5t82 55.5q-3 77 -3 151q0 77 3 153q-18 7 -46.5 11.5t-59.5 4.5q-93 0 -135 -51t-42 -163q0 -90 30 -136z" />
    <glyph glyph-name="r" unicode="r" 
d="M143.5 -1.5q-9.5 4.5 -9.5 14.5v317q-23 71 -36.5 116.5t-13.5 53.5q0 11 21 20.5t41 9.5q17 0 21 -14q15 -50 33 -139h9q45 79 100 118t125 39q29 0 54.5 -7t35.5 -19q13 -15 25.5 -69.5t12.5 -92.5q0 -13 -15.5 -19.5t-40.5 -6.5q-15 0 -20.5 3.5t-7.5 12.5
q-3 12 -7.5 41t-6.5 45l-3 24q-18 8 -42 8q-123 0 -207 -167q5 -137 5 -274q0 -10 -9 -14.5t-32 -4.5t-32.5 4.5z" />
    <glyph glyph-name="s" unicode="s" 
d="M205.5 -1q-50.5 11 -88.5 29q-16 7 -16 21q0 20 10.5 37t25.5 11q87 -39 176 -39q130 0 130 84q0 37 -28.5 55t-104.5 30q-68 10 -109.5 24t-66 43.5t-24.5 82.5q0 79 55 118.5t156 39.5q98 0 172 -37q16 -7 16 -22q0 -19 -11.5 -36.5t-26.5 -11.5q-76 37 -155 37
q-126 0 -126 -84q0 -38 30 -53.5t104 -26.5q107 -17 153 -52t46 -104q0 -78 -55 -117.5t-159 -39.5q-53 0 -103.5 11z" />
    <glyph glyph-name="t" unicode="t" 
d="M242.5 23q-40.5 35 -49.5 114q-9 72 -9 167q0 80 6 146q-64 -4 -126 -4q-19 0 -19 38t19 38q63 0 128 -4q-1 17 -1 50q0 56 3 107q2 11 11 15.5t31 4.5q24 0 33 -5.5t8 -18.5l-2 -40q-4 -78 -8 -113q123 4 246 4q10 0 14.5 -8.5t4.5 -29.5t-4.5 -29.5t-14.5 -8.5
q-124 0 -248 4q1 -20 1 -67q2 -166 8 -216q7 -59 28.5 -80.5t72.5 -21.5q62 0 138 23q13 5 21 -13.5t8 -35.5q0 -8 -3.5 -13t-11.5 -9q-38 -14 -82.5 -21.5t-82.5 -7.5q-79 0 -119.5 35z" />
    <glyph glyph-name="u" unicode="u" 
d="M172.5 523.5q9.5 -5.5 8.5 -18.5q-10 -107 -10 -224q0 -79 7 -121q7 -49 33.5 -71t75.5 -22q43 0 83 18t72 52q-4 175 -4 372q0 20 41 20q43 0 43 -20v-378q0 -53 2 -97l1 -20q0 -11 -9.5 -15.5t-32.5 -4.5q-22 0 -31.5 4.5t-9.5 15.5q0 23 4 56h-13q-71 -82 -175 -82
q-140 0 -161 142q-9 56 -9 137q0 123 10 242q2 10 11 15t31 5q23 0 32.5 -5.5z" />
    <glyph glyph-name="v" unicode="v" 
d="M265.5 0.5q-13.5 5.5 -18.5 19.5q-108 233 -169 464q-5 25 -5 28q0 9 10 13t32 4t31 -4.5t12 -16.5q55 -220 146 -437h12q91 217 146 437q3 12 12 16.5t31 4.5t32 -4t10 -13q0 -3 -5 -28q-61 -231 -169 -464q-5 -14 -18.5 -19.5t-44.5 -5.5t-44.5 5.5z" />
    <glyph glyph-name="w" unicode="w" 
d="M147.5 2q-10.5 8 -17.5 35q-27 91 -48 210t-30 224l-2 39q0 19 40 19q21 0 30.5 -5t9.5 -18q10 -210 59 -436h12q45 92 75 212q-5 56 -5 98q0 25 39 25t39 -25q0 -42 -5 -98q30 -120 75 -212h12q49 226 59 436q0 13 9.5 18t30.5 5q40 0 40 -19l-2 -39q-9 -105 -30 -224
t-48 -210q-7 -27 -17.5 -35t-37.5 -8q-28 0 -38.5 7t-18.5 28q-42 101 -63 199h-10q-21 -98 -63 -199q-8 -21 -18.5 -28t-38.5 -7q-27 0 -37.5 8z" />
    <glyph glyph-name="x" unicode="x" 
d="M475 -2q-6 5 -13 18q-54 101 -145 208h-14q-91 -107 -145 -208q-7 -13 -13 -18t-15 -5q-21 0 -41.5 8t-20.5 18t12 29q30 52 77.5 114t95.5 111q-41 46 -82.5 101t-69.5 100q-13 22 -13 28q0 11 21 19.5t42 8.5q9 0 15 -4.5t12 -17.5q61 -106 124 -186h16q63 80 124 186
q6 13 12 17.5t15 4.5q21 0 42 -8.5t21 -19.5q0 -6 -13 -28q-28 -45 -69.5 -100t-82.5 -101q49 -50 96.5 -112t76.5 -113q12 -19 12 -29t-20.5 -18t-41.5 -8q-9 0 -15 5z" />
    <glyph glyph-name="y" unicode="y" 
d="M94 -184.5q-11 19.5 -11 38.5q0 8 4.5 13t18.5 11q52 22 104.5 59t95.5 85l-2 5q-5 -1 -14 -1t-17 7.5t-20 25.5q-50 85 -104.5 202t-82.5 201q-11 29 -11 41t20.5 21t40.5 9q12 0 18 -7.5t13 -28.5q27 -91 75 -201t102 -207h14q46 85 83 200t52 209q2 20 10 27.5t27 7.5
q24 0 38 -6.5t14 -18.5q0 -8 -5 -33q-19 -101 -61 -219t-94 -209q-100 -175 -246 -240q-26 -11 -36 -11q-15 0 -26 19.5z" />
    <glyph glyph-name="z" unicode="z" 
d="M89.5 9q-5.5 9 -5.5 30q0 15 5 26t22 31q160 195 300 348v8q-156 -4 -289 -4q-19 0 -19 37t19 37h368q14 0 19 -9.5t5 -32.5q0 -12 -5 -23.5t-22 -30.5q-144 -178 -299 -349v-7q173 4 329 4q19 0 19 -37t-19 -37h-408q-14 0 -19.5 9z" />
    <glyph glyph-name="uni00A0" unicode="&#xa0;" 
 />
    <glyph glyph-name="Agrave" unicode="&#xc0;" 
d="M51 12q0 4 5 36q70 332 183 625q6 18 20.5 25t50.5 7q37 0 51 -6.5t20 -25.5q113 -293 183 -625q5 -32 5 -36q0 -19 -46 -19q-20 0 -29 4.5t-13 20.5q-22 100 -36 180q-60 -4 -135 -4t-135 4q-14 -80 -36 -180q-4 -16 -13 -20.5t-29 -4.5q-46 0 -46 19zM310 269
q62 0 123 -3l-30 98q-6 20 -33 107.5t-54 160.5h-12q-27 -73 -54 -160.5t-33 -107.5l-30 -98q62 3 123 3zM149 924q0 14 21 29t39 15q10 0 15 -5l160 -150q6 -6 9 -9.5t3 -7.5q0 -9 -15.5 -21t-28.5 -12q-5 0 -10 3l-179 140q-14 9 -14 18z" />
    <glyph glyph-name="Aacute" unicode="&#xc1;" 
d="M51 12q0 4 5 36q70 332 183 625q6 18 20.5 25t50.5 7q37 0 51 -6.5t20 -25.5q113 -293 183 -625q5 -32 5 -36q0 -19 -46 -19q-20 0 -29 4.5t-13 20.5q-22 100 -36 180q-60 -4 -135 -4t-135 4q-14 -80 -36 -180q-4 -16 -13 -20.5t-29 -4.5q-46 0 -46 19zM310 269
q62 0 123 -3l-30 98q-6 20 -33 107.5t-54 160.5h-12q-27 -73 -54 -160.5t-33 -107.5l-30 -98q62 3 123 3zM231 763q-13 0 -28.5 12t-15.5 21q0 4 3 7.5t9 9.5l159 150q5 5 15 5q18 0 39 -15t21 -29q0 -9 -13 -18l-179 -140q-4 -3 -10 -3z" />
    <glyph glyph-name="Acircumflex" unicode="&#xc2;" 
d="M51 12q0 4 5 36q70 332 183 625q6 18 20.5 25t50.5 7q37 0 51 -6.5t20 -25.5q113 -293 183 -625q5 -32 5 -36q0 -19 -46 -19q-20 0 -29 4.5t-13 20.5q-22 100 -36 180q-60 -4 -135 -4t-135 4q-14 -80 -36 -180q-4 -16 -13 -20.5t-29 -4.5q-46 0 -46 19zM310 269
q62 0 123 -3l-30 98q-6 20 -33 107.5t-54 160.5h-12q-27 -73 -54 -160.5t-33 -107.5l-30 -98q62 3 123 3zM505 793q0 -10 -14 -20t-28 -10q-8 0 -12 4l-140 131l-140 -131q-4 -4 -12 -4q-14 0 -28 10t-14 20q0 3 4.5 7.5t6.5 7.5l136 144q15 16 47 16t47 -16l136 -144
q11 -11 11 -15z" />
    <glyph glyph-name="Atilde" unicode="&#xc3;" 
d="M51 12q0 4 5 36q70 332 183 625q6 18 20.5 25t50.5 7q37 0 51 -6.5t20 -25.5q113 -293 183 -625q5 -32 5 -36q0 -19 -46 -19q-20 0 -29 4.5t-13 20.5q-22 100 -36 180q-60 -4 -135 -4t-135 4q-14 -80 -36 -180q-4 -16 -13 -20.5t-29 -4.5q-46 0 -46 19zM310 269
q62 0 123 -3l-30 98q-6 20 -33 107.5t-54 160.5h-12q-27 -73 -54 -160.5t-33 -107.5l-30 -98q62 3 123 3zM346 794.5q-28 18.5 -60 52.5q-24 25 -40.5 37t-35.5 12q-26 0 -42.5 -28.5t-23.5 -80.5q-1 -7 -9.5 -10.5t-20.5 -3.5q-15 0 -27.5 5.5t-11.5 13.5q5 81 40.5 126.5
t91.5 45.5q40 0 67.5 -18.5t60.5 -53.5q23 -25 39 -37t35 -12q54 0 68 109q1 7 9.5 11t21.5 4q16 0 28 -5.5t11 -14.5q-6 -81 -41.5 -126t-92.5 -45q-39 0 -67 18.5z" />
    <glyph glyph-name="Adieresis" unicode="&#xc4;" 
d="M51 12q0 4 5 36q70 332 183 625q6 18 20.5 25t50.5 7q37 0 51 -6.5t20 -25.5q113 -293 183 -625q5 -32 5 -36q0 -19 -46 -19q-20 0 -29 4.5t-13 20.5q-22 100 -36 180q-60 -4 -135 -4t-135 4q-14 -80 -36 -180q-4 -16 -13 -20.5t-29 -4.5q-46 0 -46 19zM310 269
q62 0 123 -3l-30 98q-6 20 -33 107.5t-54 160.5h-12q-27 -73 -54 -160.5t-33 -107.5l-30 -98q62 3 123 3zM129 800.5q-16 11.5 -16 38.5t16 38.5t55 11.5q38 0 53.5 -11.5t15.5 -38.5t-15.5 -38.5t-53.5 -11.5q-39 0 -55 11.5zM383 877.5q16 11.5 54 11.5t54 -11.5t16 -38.5
t-16 -38.5t-54 -11.5t-54 11.5t-16 38.5t16 38.5z" />
    <glyph glyph-name="Aring" unicode="&#xc5;" 
d="M51 12q0 4 5 36q70 332 183 625q6 18 20.5 25t50.5 7q37 0 51 -6.5t20 -25.5q113 -293 183 -625q5 -32 5 -36q0 -19 -46 -19q-20 0 -29 4.5t-13 20.5q-22 100 -36 180q-60 -4 -135 -4t-135 4q-14 -80 -36 -180q-4 -16 -13 -20.5t-29 -4.5q-46 0 -46 19zM310 269
q62 0 123 -3l-30 98q-6 20 -33 107.5t-54 160.5h-12q-27 -73 -54 -160.5t-33 -107.5l-30 -98q62 3 123 3zM237 779q-33 17 -52 46.5t-19 65.5t19 65.5t52 46.5t73 17t73 -17t52.5 -46.5t19.5 -65.5t-19.5 -65.5t-52.5 -46.5t-73 -17t-73 17zM245.5 833.5
q25.5 -22.5 64.5 -22.5t64.5 22.5t25.5 57.5t-25.5 57.5t-64.5 22.5t-64.5 -22.5t-25.5 -57.5t25.5 -57.5z" />
    <glyph glyph-name="AE" unicode="&#xc6;" 
d="M31 12q0 12 5 32q70 298 193 621q6 18 19 25t44 7h261q18 0 18 -37q0 -21 -4 -29.5t-14 -8.5q-95 0 -176 4q4 -53 4 -120t-4 -120q70 4 144 4q10 0 14.5 -9t4.5 -29t-4.5 -28.5t-14.5 -8.5q-74 0 -144 3q4 -55 4 -123t-4 -124q82 4 180 4q9 0 13.5 -8.5t4.5 -29.5
q0 -20 -4.5 -28.5t-13.5 -8.5h-218q-18 0 -24.5 7t-6.5 25q0 91 4 164q-40 -3 -80 -3t-81 3l-23 -95q-6 -22 -22 -92q-2 -9 -10.5 -12.5t-25.5 -3.5q-39 0 -39 19zM240 269q36 0 72 -3q-4 119 -4 356h-19q-37 -101 -88 -259l-33 -97q36 3 72 3z" />
    <glyph glyph-name="Ccedilla" unicode="&#xc7;" 
d="M142 610.5q75 97.5 217 97.5q59 0 105 -16.5t64 -40.5q9 -12 16.5 -56t7.5 -70q0 -15 -16.5 -23t-39.5 -8q-12 0 -17 4.5t-7 18.5q-3 40 -11 86q-17 12 -45.5 19.5t-61.5 7.5q-99 0 -150.5 -75.5t-51.5 -224.5q0 -98 20 -155.5t60 -82t102 -24.5q45 0 88.5 11.5
t91.5 36.5q15 6 26.5 -13t11.5 -39q0 -16 -15 -24q-37 -20 -85.5 -33.5t-97.5 -16.5l-2 -10l-34 -160q-1 -9 -12 -13.5t-26 -4.5q-17 0 -30 6.5t-13 15.5q0 5 5 21l53 145q-114 9 -171 88.5t-57 248.5q0 186 75 283.5z" />
    <glyph glyph-name="Egrave" unicode="&#xc8;" 
d="M125.5 8q-7.5 8 -7.5 26v385q0 100 4 136.5t14 54.5v12l-38 -2q-10 0 -14.5 9t-4.5 30q0 20 4.5 29t14.5 9h414q10 0 14.5 -9t4.5 -29q0 -21 -4.5 -30t-14.5 -9q-139 0 -312 4q4 -53 4 -117t-4 -117q160 4 274 4q18 0 18 -38q0 -20 -4.5 -28.5t-13.5 -8.5q-114 0 -274 3
q4 -55 4 -124q0 -68 -4 -125q174 4 317 4q10 0 14 -8.5t4 -30.5q0 -21 -4 -29.5t-14 -8.5h-366q-18 0 -25.5 8zM149 924q0 14 21 29t39 15q10 0 15 -5l160 -150q6 -6 9 -9.5t3 -7.5q0 -9 -15.5 -21t-28.5 -12q-5 0 -10 3l-179 140q-14 9 -14 18z" />
    <glyph glyph-name="Eacute" unicode="&#xc9;" 
d="M125.5 8q-7.5 8 -7.5 26v385q0 100 4 136.5t14 54.5v12l-38 -2q-10 0 -14.5 9t-4.5 30q0 20 4.5 29t14.5 9h414q10 0 14.5 -9t4.5 -29q0 -21 -4.5 -30t-14.5 -9q-139 0 -312 4q4 -53 4 -117t-4 -117q160 4 274 4q18 0 18 -38q0 -20 -4.5 -28.5t-13.5 -8.5q-114 0 -274 3
q4 -55 4 -124q0 -68 -4 -125q174 4 317 4q10 0 14 -8.5t4 -30.5q0 -21 -4 -29.5t-14 -8.5h-366q-18 0 -25.5 8zM231 763q-13 0 -28.5 12t-15.5 21q0 4 3 7.5t9 9.5l159 150q5 5 15 5q18 0 39 -15t21 -29q0 -9 -13 -18l-179 -140q-4 -3 -10 -3z" />
    <glyph glyph-name="Ecircumflex" unicode="&#xca;" 
d="M125.5 8q-7.5 8 -7.5 26v385q0 100 4 136.5t14 54.5v12l-38 -2q-10 0 -14.5 9t-4.5 30q0 20 4.5 29t14.5 9h414q10 0 14.5 -9t4.5 -29q0 -21 -4.5 -30t-14.5 -9q-139 0 -312 4q4 -53 4 -117t-4 -117q160 4 274 4q18 0 18 -38q0 -20 -4.5 -28.5t-13.5 -8.5q-114 0 -274 3
q4 -55 4 -124q0 -68 -4 -125q174 4 317 4q10 0 14 -8.5t4 -30.5q0 -21 -4 -29.5t-14 -8.5h-366q-18 0 -25.5 8zM505 793q0 -10 -14 -20t-28 -10q-8 0 -12 4l-140 131l-140 -131q-4 -4 -12 -4q-14 0 -28 10t-14 20q0 3 4.5 7.5t6.5 7.5l136 144q15 16 47 16t47 -16l136 -144
q11 -11 11 -15z" />
    <glyph glyph-name="Edieresis" unicode="&#xcb;" 
d="M125.5 8q-7.5 8 -7.5 26v385q0 100 4 136.5t14 54.5v12l-38 -2q-10 0 -14.5 9t-4.5 30q0 20 4.5 29t14.5 9h414q10 0 14.5 -9t4.5 -29q0 -21 -4.5 -30t-14.5 -9q-139 0 -312 4q4 -53 4 -117t-4 -117q160 4 274 4q18 0 18 -38q0 -20 -4.5 -28.5t-13.5 -8.5q-114 0 -274 3
q4 -55 4 -124q0 -68 -4 -125q174 4 317 4q10 0 14 -8.5t4 -30.5q0 -21 -4 -29.5t-14 -8.5h-366q-18 0 -25.5 8zM129 800.5q-16 11.5 -16 38.5t16 38.5t55 11.5q38 0 53.5 -11.5t15.5 -38.5t-15.5 -38.5t-53.5 -11.5q-39 0 -55 11.5zM383 877.5q16 11.5 54 11.5t54 -11.5
t16 -38.5t-16 -38.5t-54 -11.5t-54 11.5t-16 38.5t16 38.5z" />
    <glyph glyph-name="Igrave" unicode="&#xcc;" 
d="M121 39q0 23 4.5 32t13.5 9q58 0 131 -5q-4 184 -4 273q0 88 4 274q-73 -5 -131 -5q-9 0 -13.5 9t-4.5 32q0 39 18 39h342q18 0 18 -39q0 -23 -4.5 -32t-13.5 -9q-58 0 -131 5q4 -124 4 -274t-4 -273q73 5 131 5q9 0 13.5 -9t4.5 -32q0 -39 -18 -39h-342q-18 0 -18 39z
M149 924q0 14 21 29t39 15q10 0 15 -5l160 -150q6 -6 9 -9.5t3 -7.5q0 -9 -15.5 -21t-28.5 -12q-5 0 -10 3l-179 140q-14 9 -14 18z" />
    <glyph glyph-name="Iacute" unicode="&#xcd;" 
d="M121 39q0 23 4.5 32t13.5 9q58 0 131 -5q-4 184 -4 273q0 88 4 274q-73 -5 -131 -5q-9 0 -13.5 9t-4.5 32q0 39 18 39h342q18 0 18 -39q0 -23 -4.5 -32t-13.5 -9q-58 0 -131 5q4 -124 4 -274t-4 -273q73 5 131 5q9 0 13.5 -9t4.5 -32q0 -39 -18 -39h-342q-18 0 -18 39z
M231 763q-13 0 -28.5 12t-15.5 21q0 4 3 7.5t9 9.5l159 150q5 5 15 5q18 0 39 -15t21 -29q0 -9 -13 -18l-179 -140q-4 -3 -10 -3z" />
    <glyph glyph-name="Icircumflex" unicode="&#xce;" 
d="M121 39q0 23 4.5 32t13.5 9q58 0 131 -5q-4 184 -4 273q0 88 4 274q-73 -5 -131 -5q-9 0 -13.5 9t-4.5 32q0 39 18 39h342q18 0 18 -39q0 -23 -4.5 -32t-13.5 -9q-58 0 -131 5q4 -124 4 -274t-4 -273q73 5 131 5q9 0 13.5 -9t4.5 -32q0 -39 -18 -39h-342q-18 0 -18 39z
M505 793q0 -10 -14 -20t-28 -10q-8 0 -12 4l-140 131l-140 -131q-4 -4 -12 -4q-14 0 -28 10t-14 20q0 3 4.5 7.5t6.5 7.5l136 144q15 16 47 16t47 -16l136 -144q11 -11 11 -15z" />
    <glyph glyph-name="Ntilde" unicode="&#xd1;" 
d="M78 13v665q0 14 14 20t43 6t42 -8t23 -32q124 -258 260 -576h10q-7 100 -11.5 282.5t-4.5 313.5q0 20 44 20t44 -20v-665q0 -14 -14 -20t-43 -6t-42 8t-23 32q-104 217 -260 576h-10q7 -100 11.5 -282.5t4.5 -313.5q0 -20 -44 -20t-44 20zM346 794.5q-28 18.5 -60 52.5
q-24 25 -40.5 37t-35.5 12q-26 0 -42.5 -28.5t-23.5 -80.5q-1 -7 -9.5 -10.5t-20.5 -3.5q-15 0 -27.5 5.5t-11.5 13.5q5 81 40.5 126.5t91.5 45.5q40 0 67.5 -18.5t60.5 -53.5q23 -25 39 -37t35 -12q54 0 68 109q1 7 9.5 11t21.5 4q16 0 28 -5.5t11 -14.5q-6 -81 -41.5 -126
t-92.5 -45q-39 0 -67 18.5z" />
    <glyph glyph-name="Ograve" unicode="&#xd2;" 
d="M156 22q-54 34 -79 106.5t-25 191.5q0 139 28 224.5t87 125t156 39.5q88 0 141.5 -34t78.5 -106.5t25 -191.5q0 -139 -28 -224t-87 -125t-155 -40q-88 0 -142 34zM155.5 174q15.5 -57 50.5 -82.5t95 -25.5q67 0 105.5 29t56 95t17.5 179q0 98 -15.5 154.5t-50.5 82
t-96 25.5q-67 0 -105.5 -29t-55.5 -94.5t-17 -178.5q0 -98 15.5 -155zM149 924q0 14 21 29t39 15q10 0 15 -5l160 -150q6 -6 9 -9.5t3 -7.5q0 -9 -15.5 -21t-28.5 -12q-5 0 -10 3l-179 140q-14 9 -14 18z" />
    <glyph glyph-name="Oacute" unicode="&#xd3;" 
d="M156 22q-54 34 -79 106.5t-25 191.5q0 139 28 224.5t87 125t156 39.5q88 0 141.5 -34t78.5 -106.5t25 -191.5q0 -139 -28 -224t-87 -125t-155 -40q-88 0 -142 34zM155.5 174q15.5 -57 50.5 -82.5t95 -25.5q67 0 105.5 29t56 95t17.5 179q0 98 -15.5 154.5t-50.5 82
t-96 25.5q-67 0 -105.5 -29t-55.5 -94.5t-17 -178.5q0 -98 15.5 -155zM231 763q-13 0 -28.5 12t-15.5 21q0 4 3 7.5t9 9.5l159 150q5 5 15 5q18 0 39 -15t21 -29q0 -9 -13 -18l-179 -140q-4 -3 -10 -3z" />
    <glyph glyph-name="Ocircumflex" unicode="&#xd4;" 
d="M156 22q-54 34 -79 106.5t-25 191.5q0 139 28 224.5t87 125t156 39.5q88 0 141.5 -34t78.5 -106.5t25 -191.5q0 -139 -28 -224t-87 -125t-155 -40q-88 0 -142 34zM155.5 174q15.5 -57 50.5 -82.5t95 -25.5q67 0 105.5 29t56 95t17.5 179q0 98 -15.5 154.5t-50.5 82
t-96 25.5q-67 0 -105.5 -29t-55.5 -94.5t-17 -178.5q0 -98 15.5 -155zM505 793q0 -10 -14 -20t-28 -10q-8 0 -12 4l-140 131l-140 -131q-4 -4 -12 -4q-14 0 -28 10t-14 20q0 3 4.5 7.5t6.5 7.5l136 144q15 16 47 16t47 -16l136 -144q11 -11 11 -15z" />
    <glyph glyph-name="Otilde" unicode="&#xd5;" 
d="M156 22q-54 34 -79 106.5t-25 191.5q0 139 28 224.5t87 125t156 39.5q88 0 141.5 -34t78.5 -106.5t25 -191.5q0 -139 -28 -224t-87 -125t-155 -40q-88 0 -142 34zM155.5 174q15.5 -57 50.5 -82.5t95 -25.5q67 0 105.5 29t56 95t17.5 179q0 98 -15.5 154.5t-50.5 82
t-96 25.5q-67 0 -105.5 -29t-55.5 -94.5t-17 -178.5q0 -98 15.5 -155zM346 794.5q-28 18.5 -60 52.5q-24 25 -40.5 37t-35.5 12q-26 0 -42.5 -28.5t-23.5 -80.5q-1 -7 -9.5 -10.5t-20.5 -3.5q-15 0 -27.5 5.5t-11.5 13.5q5 81 40.5 126.5t91.5 45.5q40 0 67.5 -18.5
t60.5 -53.5q23 -25 39 -37t35 -12q54 0 68 109q1 7 9.5 11t21.5 4q16 0 28 -5.5t11 -14.5q-6 -81 -41.5 -126t-92.5 -45q-39 0 -67 18.5z" />
    <glyph glyph-name="Odieresis" unicode="&#xd6;" 
d="M156 22q-54 34 -79 106.5t-25 191.5q0 139 28 224.5t87 125t156 39.5q88 0 141.5 -34t78.5 -106.5t25 -191.5q0 -139 -28 -224t-87 -125t-155 -40q-88 0 -142 34zM155.5 174q15.5 -57 50.5 -82.5t95 -25.5q67 0 105.5 29t56 95t17.5 179q0 98 -15.5 154.5t-50.5 82
t-96 25.5q-67 0 -105.5 -29t-55.5 -94.5t-17 -178.5q0 -98 15.5 -155zM129 800.5q-16 11.5 -16 38.5t16 38.5t55 11.5q38 0 53.5 -11.5t15.5 -38.5t-15.5 -38.5t-53.5 -11.5q-39 0 -55 11.5zM383 877.5q16 11.5 54 11.5t54 -11.5t16 -38.5t-16 -38.5t-54 -11.5t-54 11.5
t-16 38.5t16 38.5z" />
    <glyph glyph-name="Ugrave" unicode="&#xd9;" 
d="M154.5 35.5q-55.5 47.5 -69.5 150.5q-9 77 -9 189q0 144 9 309q2 10 11.5 15t32.5 5q24 0 34 -5.5t8 -18.5q-8 -136 -8 -290q0 -120 5 -174q9 -83 43 -115.5t99 -32.5t99 32.5t43 115.5q6 52 6 174q0 137 -9 290q-2 13 8 18.5t34 5.5t33 -5t11 -15q9 -165 9 -309
q0 -112 -9 -189q-14 -103 -69.5 -150.5t-155.5 -47.5t-155.5 47.5zM149 924q0 14 21 29t39 15q10 0 15 -5l160 -150q6 -6 9 -9.5t3 -7.5q0 -9 -15.5 -21t-28.5 -12q-5 0 -10 3l-179 140q-14 9 -14 18z" />
    <glyph glyph-name="Uacute" unicode="&#xda;" 
d="M154.5 35.5q-55.5 47.5 -69.5 150.5q-9 77 -9 189q0 144 9 309q2 10 11.5 15t32.5 5q24 0 34 -5.5t8 -18.5q-8 -136 -8 -290q0 -120 5 -174q9 -83 43 -115.5t99 -32.5t99 32.5t43 115.5q6 52 6 174q0 137 -9 290q-2 13 8 18.5t34 5.5t33 -5t11 -15q9 -165 9 -309
q0 -112 -9 -189q-14 -103 -69.5 -150.5t-155.5 -47.5t-155.5 47.5zM231 763q-13 0 -28.5 12t-15.5 21q0 4 3 7.5t9 9.5l159 150q5 5 15 5q18 0 39 -15t21 -29q0 -9 -13 -18l-179 -140q-4 -3 -10 -3z" />
    <glyph glyph-name="Ucircumflex" unicode="&#xdb;" 
d="M154.5 35.5q-55.5 47.5 -69.5 150.5q-9 77 -9 189q0 144 9 309q2 10 11.5 15t32.5 5q24 0 34 -5.5t8 -18.5q-8 -136 -8 -290q0 -120 5 -174q9 -83 43 -115.5t99 -32.5t99 32.5t43 115.5q6 52 6 174q0 137 -9 290q-2 13 8 18.5t34 5.5t33 -5t11 -15q9 -165 9 -309
q0 -112 -9 -189q-14 -103 -69.5 -150.5t-155.5 -47.5t-155.5 47.5zM505 793q0 -10 -14 -20t-28 -10q-8 0 -12 4l-140 131l-140 -131q-4 -4 -12 -4q-14 0 -28 10t-14 20q0 3 4.5 7.5t6.5 7.5l136 144q15 16 47 16t47 -16l136 -144q11 -11 11 -15z" />
    <glyph glyph-name="Udieresis" unicode="&#xdc;" 
d="M154.5 35.5q-55.5 47.5 -69.5 150.5q-9 77 -9 189q0 144 9 309q2 10 11.5 15t32.5 5q24 0 34 -5.5t8 -18.5q-8 -136 -8 -290q0 -120 5 -174q9 -83 43 -115.5t99 -32.5t99 32.5t43 115.5q6 52 6 174q0 137 -9 290q-2 13 8 18.5t34 5.5t33 -5t11 -15q9 -165 9 -309
q0 -112 -9 -189q-14 -103 -69.5 -150.5t-155.5 -47.5t-155.5 47.5zM129 800.5q-16 11.5 -16 38.5t16 38.5t55 11.5q38 0 53.5 -11.5t15.5 -38.5t-15.5 -38.5t-53.5 -11.5q-39 0 -55 11.5zM383 877.5q16 11.5 54 11.5t54 -11.5t16 -38.5t-16 -38.5t-54 -11.5t-54 11.5
t-16 38.5t16 38.5z" />
    <glyph glyph-name="Yacute" unicode="&#xdd;" 
d="M266 13q0 113 5 264q-121 176 -207 376q-6 15 -6 24q0 11 18 19.5t39 8.5q13 0 19.5 -6t10.5 -20q32 -77 73.5 -160.5t86.5 -155.5h10q45 72 86.5 155.5t73.5 160.5q4 14 10.5 20t19.5 6q20 0 38.5 -8.5t18.5 -19.5q0 -9 -6 -24q-88 -206 -207 -376q5 -151 5 -264
q0 -20 -44 -20t-44 20zM231 763q-13 0 -28.5 12t-15.5 21q0 4 3 7.5t9 9.5l159 150q5 5 15 5q18 0 39 -15t21 -29q0 -9 -13 -18l-179 -140q-4 -3 -10 -3z" />
    <glyph glyph-name="germandbls" unicode="&#xdf;" 
d="M288 -2q-10 3 -14 8.5t-4 16.5q0 17 6.5 32.5t19.5 12.5q32 -7 57 -7q52 0 80 26t28 76q0 40 -17.5 67t-53 48.5t-99.5 46.5q-8 4 -11.5 12.5t-3.5 25.5t3 25t9 14q59 48 82.5 82t23.5 76q0 51 -28 78t-82 27q-56 0 -82 -33.5t-26 -106.5v-512q0 -20 -41 -20
q-23 0 -32.5 5t-9.5 15v510q0 215 193 215q87 0 138 -42t51 -120q0 -58 -31 -104t-96 -92v-7q107 -40 151.5 -88t44.5 -121q0 -83 -47.5 -129.5t-132.5 -46.5q-46 0 -76 10z" />
    <glyph glyph-name="agrave" unicode="&#xe0;" 
d="M497 1q-33 15 -83 48q-79 -60 -176 -60q-76 0 -117.5 40t-41.5 110q0 76 50.5 117t153.5 41q70 0 135 -16l1 34q0 82 -26 114.5t-87 32.5q-39 0 -80.5 -10t-76.5 -26q-3 -2 -10 -2q-13 0 -22 15t-9 32q0 10 4.5 15t16.5 10q38 17 88.5 28t99.5 11q96 0 140.5 -48.5
t44.5 -163.5q0 -46 -6 -108t-17 -120q47 -13 67.5 -20t25.5 -12t5 -14q0 -21 -10 -42t-22 -21q-15 0 -48 15zM262 59q69 0 141 38q7 56 12 131q-52 9 -103 9q-84 0 -116 -20.5t-32 -66.5q0 -91 98 -91zM154 749q0 14 19 29t35 15q10 0 14 -5l145 -150q6 -6 8.5 -9.5
t2.5 -7.5q0 -9 -14 -21t-26 -12q-6 0 -9 3l-163 140q-12 9 -12 18z" />
    <glyph glyph-name="aacute" unicode="&#xe1;" 
d="M497 1q-33 15 -83 48q-79 -60 -176 -60q-76 0 -117.5 40t-41.5 110q0 76 50.5 117t153.5 41q70 0 135 -16l1 34q0 82 -26 114.5t-87 32.5q-39 0 -80.5 -10t-76.5 -26q-3 -2 -10 -2q-13 0 -22 15t-9 32q0 10 4.5 15t16.5 10q38 17 88.5 28t99.5 11q96 0 140.5 -48.5
t44.5 -163.5q0 -46 -6 -108t-17 -120q47 -13 67.5 -20t25.5 -12t5 -14q0 -21 -10 -42t-22 -21q-15 0 -48 15zM262 59q69 0 141 38q7 56 12 131q-52 9 -103 9q-84 0 -116 -20.5t-32 -66.5q0 -91 98 -91zM262 588q-12 0 -26 12t-14 21q0 4 2.5 7.5t8.5 9.5l145 150q4 5 14 5
q16 0 35 -15t19 -29q0 -9 -12 -18l-163 -140q-3 -3 -9 -3z" />
    <glyph glyph-name="acircumflex" unicode="&#xe2;" 
d="M497 1q-33 15 -83 48q-79 -60 -176 -60q-76 0 -117.5 40t-41.5 110q0 76 50.5 117t153.5 41q70 0 135 -16l1 34q0 82 -26 114.5t-87 32.5q-39 0 -80.5 -10t-76.5 -26q-3 -2 -10 -2q-13 0 -22 15t-9 32q0 10 4.5 15t16.5 10q38 17 88.5 28t99.5 11q96 0 140.5 -48.5
t44.5 -163.5q0 -46 -6 -108t-17 -120q47 -13 67.5 -20t25.5 -12t5 -14q0 -21 -10 -42t-22 -21q-15 0 -48 15zM262 59q69 0 141 38q7 56 12 131q-52 9 -103 9q-84 0 -116 -20.5t-32 -66.5q0 -91 98 -91zM486 619q0 -10 -12.5 -20t-25.5 -10q-7 0 -11 4l-127 131l-127 -131
q-4 -4 -11 -4q-13 0 -25.5 10t-12.5 20q0 3 2.5 6.5t7.5 8.5l123 144q13 16 43 16t43 -16l123 -144q10 -10 10 -15z" />
    <glyph glyph-name="atilde" unicode="&#xe3;" 
d="M497 1q-33 15 -83 48q-79 -60 -176 -60q-76 0 -117.5 40t-41.5 110q0 76 50.5 117t153.5 41q70 0 135 -16l1 34q0 82 -26 114.5t-87 32.5q-39 0 -80.5 -10t-76.5 -26q-3 -2 -10 -2q-13 0 -22 15t-9 32q0 10 4.5 15t16.5 10q38 17 88.5 28t99.5 11q96 0 140.5 -48.5
t44.5 -163.5q0 -46 -6 -108t-17 -120q47 -13 67.5 -20t25.5 -12t5 -14q0 -21 -10 -42t-22 -21q-15 0 -48 15zM262 59q69 0 141 38q7 56 12 131q-52 9 -103 9q-84 0 -116 -20.5t-32 -66.5q0 -91 98 -91zM342 629.5q-25 18.5 -55 52.5q-21 24 -36 36.5t-33 12.5
q-24 0 -39 -28.5t-21 -80.5q-1 -7 -8.5 -10.5t-18.5 -3.5q-15 0 -26 5t-10 14q5 81 37 126.5t83 45.5q37 0 62 -18.5t55 -53.5q21 -25 35.5 -37t31.5 -12q49 0 62 109q1 7 9 11t19 4q14 0 25 -5.5t10 -14.5q-5 -81 -37 -126t-84 -45q-36 0 -61 18.5z" />
    <glyph glyph-name="adieresis" unicode="&#xe4;" 
d="M497 1q-33 15 -83 48q-79 -60 -176 -60q-76 0 -117.5 40t-41.5 110q0 76 50.5 117t153.5 41q70 0 135 -16l1 34q0 82 -26 114.5t-87 32.5q-39 0 -80.5 -10t-76.5 -26q-3 -2 -10 -2q-13 0 -22 15t-9 32q0 10 4.5 15t16.5 10q38 17 88.5 28t99.5 11q96 0 140.5 -48.5
t44.5 -163.5q0 -46 -6 -108t-17 -120q47 -13 67.5 -20t25.5 -12t5 -14q0 -21 -10 -42t-22 -21q-15 0 -48 15zM262 59q69 0 141 38q7 56 12 131q-52 9 -103 9q-84 0 -116 -20.5t-32 -66.5q0 -91 98 -91zM145.5 645.5q-14.5 11.5 -14.5 38.5t14.5 38.5t49.5 11.5t49 -11.5
t14 -38.5t-14 -38.5t-49 -11.5t-49.5 11.5zM376 722.5q14 11.5 49 11.5t49.5 -11.5t14.5 -38.5t-14.5 -38.5t-49.5 -11.5t-49 11.5t-14 38.5t14 38.5z" />
    <glyph glyph-name="aring" unicode="&#xe5;" 
d="M497 1q-33 15 -83 48q-79 -60 -176 -60q-76 0 -117.5 40t-41.5 110q0 76 50.5 117t153.5 41q70 0 135 -16l1 34q0 82 -26 114.5t-87 32.5q-39 0 -80.5 -10t-76.5 -26q-3 -2 -10 -2q-13 0 -22 15t-9 32q0 10 4.5 15t16.5 10q38 17 88.5 28t99.5 11q96 0 140.5 -48.5
t44.5 -163.5q0 -46 -6 -108t-17 -120q47 -13 67.5 -20t25.5 -12t5 -14q0 -21 -10 -42t-22 -21q-15 0 -48 15zM262 59q69 0 141 38q7 56 12 131q-52 9 -103 9q-84 0 -116 -20.5t-32 -66.5q0 -91 98 -91zM216.5 624q-37.5 37 -37.5 92t37.5 92t93.5 37t94 -37t38 -92t-38 -92
t-94 -37t-93.5 37zM251.5 659q23.5 -23 58.5 -23t58.5 23t23.5 57t-23.5 57t-58.5 23t-58.5 -23t-23.5 -57t23.5 -57z" />
    <glyph glyph-name="ae" unicode="&#xe6;" 
d="M356 5.5q-34 17.5 -53 49.5q-58 -66 -134 -66q-60 0 -92 41t-32 115q0 165 153 165q43 0 86 -10v83q0 44 -15.5 61.5t-51.5 17.5q-27 0 -57.5 -10t-53.5 -24q-11 -6 -21 13t-10 38q0 12 10 19q70 37 137 37q74 0 101 -47q39 45 108 45q72 0 108 -49.5t36 -143.5
q0 -90 -35 -96q-44 -4 -110 -4q-45 0 -87 3v-112q0 -33 25.5 -53t71.5 -20q29 0 49.5 7t36.5 15.5t20 8.5q10 0 18 -16t8 -31q0 -7 -2.5 -11.5t-9.5 -9.5q-23 -15 -55.5 -24t-68.5 -9q-46 0 -80 17.5zM193 61q50 0 91 40v146q-31 7 -63 7q-59 0 -80.5 -23.5t-21.5 -75.5
q0 -94 74 -94zM416 298q48 0 83 4q3 18 3 42q0 126 -83 126q-34 0 -55 -21t-21 -57v-91q36 -3 73 -3z" />
    <glyph glyph-name="ccedilla" unicode="&#xe7;" 
d="M163.5 459q63.5 75 184.5 75q53 0 94.5 -13.5t59.5 -35.5q12 -14 19 -46.5t7 -60.5q0 -13 -16 -19.5t-39 -6.5q-10 0 -15 3.5t-6 14.5l-11 64q-16 11 -42.5 18t-56.5 7q-78 0 -118.5 -54t-40.5 -160q0 -99 34.5 -139.5t107.5 -40.5q80 0 165 39l8 2q13 0 22 -17.5
t9 -34.5q0 -15 -17 -24q-66 -32 -158 -40l-2 -10l-34 -160q-1 -9 -12 -13.5t-26 -4.5q-17 0 -30 6.5t-13 15.5q0 5 5 21l52 144q-97 5 -145.5 64t-48.5 188q0 143 63.5 218z" />
    <glyph glyph-name="egrave" unicode="&#xe8;" 
d="M137.5 49.5q-56.5 61.5 -56.5 189.5q0 143 67 219t190 76q100 0 150.5 -50.5t50.5 -142.5q0 -42 -11.5 -65.5t-38.5 -27.5q-88 -11 -186 -11q-75 0 -138 7v-3q0 -98 36.5 -139t123.5 -41q43 0 83.5 9.5t86.5 29.5q15 7 26 -11t11 -38q0 -7 -3.5 -12t-13.5 -9
q-38 -19 -91 -30.5t-107 -11.5q-123 0 -179.5 61.5zM280 295q99 0 175 11q4 15 4 39q0 123 -128 123q-144 0 -163 -169q48 -4 112 -4zM154 749q0 14 19 29t35 15q10 0 14 -5l145 -150q6 -6 8.5 -9.5t2.5 -7.5q0 -9 -14 -21t-26 -12q-6 0 -9 3l-163 140q-12 9 -12 18z" />
    <glyph glyph-name="eacute" unicode="&#xe9;" 
d="M137.5 49.5q-56.5 61.5 -56.5 189.5q0 143 67 219t190 76q100 0 150.5 -50.5t50.5 -142.5q0 -42 -11.5 -65.5t-38.5 -27.5q-88 -11 -186 -11q-75 0 -138 7v-3q0 -98 36.5 -139t123.5 -41q43 0 83.5 9.5t86.5 29.5q15 7 26 -11t11 -38q0 -7 -3.5 -12t-13.5 -9
q-38 -19 -91 -30.5t-107 -11.5q-123 0 -179.5 61.5zM280 295q99 0 175 11q4 15 4 39q0 123 -128 123q-144 0 -163 -169q48 -4 112 -4zM262 588q-12 0 -26 12t-14 21q0 4 2.5 7.5t8.5 9.5l145 150q4 5 14 5q16 0 35 -15t19 -29q0 -9 -12 -18l-163 -140q-3 -3 -9 -3z" />
    <glyph glyph-name="ecircumflex" unicode="&#xea;" 
d="M137.5 49.5q-56.5 61.5 -56.5 189.5q0 143 67 219t190 76q100 0 150.5 -50.5t50.5 -142.5q0 -42 -11.5 -65.5t-38.5 -27.5q-88 -11 -186 -11q-75 0 -138 7v-3q0 -98 36.5 -139t123.5 -41q43 0 83.5 9.5t86.5 29.5q15 7 26 -11t11 -38q0 -7 -3.5 -12t-13.5 -9
q-38 -19 -91 -30.5t-107 -11.5q-123 0 -179.5 61.5zM280 295q99 0 175 11q4 15 4 39q0 123 -128 123q-144 0 -163 -169q48 -4 112 -4zM486 619q0 -10 -12.5 -20t-25.5 -10q-7 0 -11 4l-127 131l-127 -131q-4 -4 -11 -4q-13 0 -25.5 10t-12.5 20q0 3 2.5 6.5t7.5 8.5l123 144
q13 16 43 16t43 -16l123 -144q10 -10 10 -15z" />
    <glyph glyph-name="edieresis" unicode="&#xeb;" 
d="M137.5 49.5q-56.5 61.5 -56.5 189.5q0 143 67 219t190 76q100 0 150.5 -50.5t50.5 -142.5q0 -42 -11.5 -65.5t-38.5 -27.5q-88 -11 -186 -11q-75 0 -138 7v-3q0 -98 36.5 -139t123.5 -41q43 0 83.5 9.5t86.5 29.5q15 7 26 -11t11 -38q0 -7 -3.5 -12t-13.5 -9
q-38 -19 -91 -30.5t-107 -11.5q-123 0 -179.5 61.5zM280 295q99 0 175 11q4 15 4 39q0 123 -128 123q-144 0 -163 -169q48 -4 112 -4zM145.5 645.5q-14.5 11.5 -14.5 38.5t14.5 38.5t49.5 11.5t49 -11.5t14 -38.5t-14 -38.5t-49 -11.5t-49.5 11.5zM376 722.5
q14 11.5 49 11.5t49.5 -11.5t14.5 -38.5t-14.5 -38.5t-49.5 -11.5t-49 11.5t-14 38.5t14 38.5z" />
    <glyph glyph-name="igrave" unicode="&#xec;" 
d="M116 38q0 38 20 38q74 0 147 -4q-4 126 -4 187t4 187q-67 -4 -129 -4q-10 0 -14.5 8.5t-4.5 29.5q0 20 4.5 29t14.5 9h178q17 0 23.5 -6.5t6.5 -24.5q0 -275 -4 -415q78 4 147 4q10 0 14.5 -8.5t4.5 -29.5q0 -20 -4.5 -29t-14.5 -9h-369q-20 0 -20 38zM154 749
q0 14 19 29t35 15q10 0 14 -5l145 -150q6 -6 8.5 -9.5t2.5 -7.5q0 -9 -14 -21t-26 -12q-6 0 -9 3l-163 140q-12 9 -12 18z" />
    <glyph glyph-name="iacute" unicode="&#xed;" 
d="M116 38q0 38 20 38q74 0 147 -4q-4 126 -4 187t4 187q-67 -4 -129 -4q-10 0 -14.5 8.5t-4.5 29.5q0 20 4.5 29t14.5 9h178q17 0 23.5 -6.5t6.5 -24.5q0 -275 -4 -415q78 4 147 4q10 0 14.5 -8.5t4.5 -29.5q0 -20 -4.5 -29t-14.5 -9h-369q-20 0 -20 38zM262 588
q-12 0 -26 12t-14 21q0 4 2.5 7.5t8.5 9.5l145 150q4 5 14 5q16 0 35 -15t19 -29q0 -9 -12 -18l-163 -140q-3 -3 -9 -3z" />
    <glyph glyph-name="icircumflex" unicode="&#xee;" 
d="M116 38q0 38 20 38q74 0 147 -4q-4 126 -4 187t4 187q-67 -4 -129 -4q-10 0 -14.5 8.5t-4.5 29.5q0 20 4.5 29t14.5 9h178q17 0 23.5 -6.5t6.5 -24.5q0 -275 -4 -415q78 4 147 4q10 0 14.5 -8.5t4.5 -29.5q0 -20 -4.5 -29t-14.5 -9h-369q-20 0 -20 38zM486 619
q0 -10 -12.5 -20t-25.5 -10q-7 0 -11 4l-127 131l-127 -131q-4 -4 -11 -4q-13 0 -25.5 10t-12.5 20q0 3 2.5 6.5t7.5 8.5l123 144q13 16 43 16t43 -16l123 -144q10 -10 10 -15z" />
    <glyph glyph-name="idieresis" unicode="&#xef;" 
d="M116 38q0 38 20 38q74 0 147 -4q-4 126 -4 187t4 187q-67 -4 -129 -4q-10 0 -14.5 8.5t-4.5 29.5q0 20 4.5 29t14.5 9h178q17 0 23.5 -6.5t6.5 -24.5q0 -275 -4 -415q78 4 147 4q10 0 14.5 -8.5t4.5 -29.5q0 -20 -4.5 -29t-14.5 -9h-369q-20 0 -20 38zM145.5 645.5
q-14.5 11.5 -14.5 38.5t14.5 38.5t49.5 11.5t49 -11.5t14 -38.5t-14 -38.5t-49 -11.5t-49.5 11.5zM376 722.5q14 11.5 49 11.5t49.5 -11.5t14.5 -38.5t-14.5 -38.5t-49.5 -11.5t-49 11.5t-14 38.5t14 38.5z" />
    <glyph glyph-name="ntilde" unicode="&#xf1;" 
d="M447.5 -1.5q-9.5 5.5 -8.5 18.5q10 107 10 224q0 79 -7 121q-7 49 -33.5 71t-75.5 22q-43 0 -83 -18t-72 -52q4 -175 4 -372q0 -20 -41 -20q-43 0 -43 20v378q0 53 -2 97l-1 20q0 11 9.5 15.5t32.5 4.5q22 0 31.5 -4.5t9.5 -15.5q0 -23 -4 -56h13q71 82 175 82
q140 0 161 -142q9 -55 9 -137q0 -123 -10 -242q-2 -10 -11 -15t-31 -5q-23 0 -32.5 5.5zM342 629.5q-25 18.5 -55 52.5q-21 24 -36 36.5t-33 12.5q-24 0 -39 -28.5t-21 -80.5q-1 -7 -8.5 -10.5t-18.5 -3.5q-15 0 -26 5t-10 14q5 81 37 126.5t83 45.5q37 0 62 -18.5t55 -53.5
q21 -25 35.5 -37t31.5 -12q49 0 62 109q1 7 9 11t19 4q14 0 25 -5.5t10 -14.5q-5 -81 -37 -126t-84 -45q-36 0 -61 18.5z" />
    <glyph glyph-name="ograve" unicode="&#xf2;" 
d="M127.5 51.5q-58.5 63.5 -58.5 186.5q0 146 64 221t189 75q112 0 170.5 -63.5t58.5 -185.5q0 -147 -64 -222t-189 -75q-112 0 -170.5 63.5zM189 106q37 -45 113 -45q85 0 125.5 52.5t40.5 163.5q0 94 -36.5 139t-113.5 45q-85 0 -125.5 -52.5t-40.5 -163.5q0 -94 37 -139z
M154 749q0 14 19 29t35 15q10 0 14 -5l145 -150q6 -6 8.5 -9.5t2.5 -7.5q0 -9 -14 -21t-26 -12q-6 0 -9 3l-163 140q-12 9 -12 18z" />
    <glyph glyph-name="oacute" unicode="&#xf3;" 
d="M127.5 51.5q-58.5 63.5 -58.5 186.5q0 146 64 221t189 75q112 0 170.5 -63.5t58.5 -185.5q0 -147 -64 -222t-189 -75q-112 0 -170.5 63.5zM189 106q37 -45 113 -45q85 0 125.5 52.5t40.5 163.5q0 94 -36.5 139t-113.5 45q-85 0 -125.5 -52.5t-40.5 -163.5q0 -94 37 -139z
M262 588q-12 0 -26 12t-14 21q0 4 2.5 7.5t8.5 9.5l145 150q4 5 14 5q16 0 35 -15t19 -29q0 -9 -12 -18l-163 -140q-3 -3 -9 -3z" />
    <glyph glyph-name="ocircumflex" unicode="&#xf4;" 
d="M127.5 51.5q-58.5 63.5 -58.5 186.5q0 146 64 221t189 75q112 0 170.5 -63.5t58.5 -185.5q0 -147 -64 -222t-189 -75q-112 0 -170.5 63.5zM189 106q37 -45 113 -45q85 0 125.5 52.5t40.5 163.5q0 94 -36.5 139t-113.5 45q-85 0 -125.5 -52.5t-40.5 -163.5q0 -94 37 -139z
M486 619q0 -10 -12.5 -20t-25.5 -10q-7 0 -11 4l-127 131l-127 -131q-4 -4 -11 -4q-13 0 -25.5 10t-12.5 20q0 3 2.5 6.5t7.5 8.5l123 144q13 16 43 16t43 -16l123 -144q10 -10 10 -15z" />
    <glyph glyph-name="otilde" unicode="&#xf5;" 
d="M127.5 51.5q-58.5 63.5 -58.5 186.5q0 146 64 221t189 75q112 0 170.5 -63.5t58.5 -185.5q0 -147 -64 -222t-189 -75q-112 0 -170.5 63.5zM189 106q37 -45 113 -45q85 0 125.5 52.5t40.5 163.5q0 94 -36.5 139t-113.5 45q-85 0 -125.5 -52.5t-40.5 -163.5q0 -94 37 -139z
M342 629.5q-25 18.5 -55 52.5q-21 24 -36 36.5t-33 12.5q-24 0 -39 -28.5t-21 -80.5q-1 -7 -8.5 -10.5t-18.5 -3.5q-15 0 -26 5t-10 14q5 81 37 126.5t83 45.5q37 0 62 -18.5t55 -53.5q21 -25 35.5 -37t31.5 -12q49 0 62 109q1 7 9 11t19 4q14 0 25 -5.5t10 -14.5
q-5 -81 -37 -126t-84 -45q-36 0 -61 18.5z" />
    <glyph glyph-name="odieresis" unicode="&#xf6;" 
d="M127.5 51.5q-58.5 63.5 -58.5 186.5q0 146 64 221t189 75q112 0 170.5 -63.5t58.5 -185.5q0 -147 -64 -222t-189 -75q-112 0 -170.5 63.5zM189 106q37 -45 113 -45q85 0 125.5 52.5t40.5 163.5q0 94 -36.5 139t-113.5 45q-85 0 -125.5 -52.5t-40.5 -163.5q0 -94 37 -139z
M145.5 645.5q-14.5 11.5 -14.5 38.5t14.5 38.5t49.5 11.5t49 -11.5t14 -38.5t-14 -38.5t-49 -11.5t-49.5 11.5zM376 722.5q14 11.5 49 11.5t49.5 -11.5t14.5 -38.5t-14.5 -38.5t-49.5 -11.5t-49 11.5t-14 38.5t14 38.5z" />
    <glyph glyph-name="ugrave" unicode="&#xf9;" 
d="M172.5 523.5q9.5 -5.5 8.5 -18.5q-10 -107 -10 -224q0 -79 7 -121q7 -49 33.5 -71t75.5 -22q43 0 83 18t72 52q-4 175 -4 372q0 20 41 20q43 0 43 -20v-378q0 -53 2 -97l1 -20q0 -11 -9.5 -15.5t-32.5 -4.5q-22 0 -31.5 4.5t-9.5 15.5q0 23 4 56h-13q-71 -82 -175 -82
q-140 0 -161 142q-9 56 -9 137q0 123 10 242q2 10 11 15t31 5q23 0 32.5 -5.5zM154 749q0 14 19 29t35 15q10 0 14 -5l145 -150q6 -6 8.5 -9.5t2.5 -7.5q0 -9 -14 -21t-26 -12q-6 0 -9 3l-163 140q-12 9 -12 18z" />
    <glyph glyph-name="uacute" unicode="&#xfa;" 
d="M172.5 523.5q9.5 -5.5 8.5 -18.5q-10 -107 -10 -224q0 -79 7 -121q7 -49 33.5 -71t75.5 -22q43 0 83 18t72 52q-4 175 -4 372q0 20 41 20q43 0 43 -20v-378q0 -53 2 -97l1 -20q0 -11 -9.5 -15.5t-32.5 -4.5q-22 0 -31.5 4.5t-9.5 15.5q0 23 4 56h-13q-71 -82 -175 -82
q-140 0 -161 142q-9 56 -9 137q0 123 10 242q2 10 11 15t31 5q23 0 32.5 -5.5zM262 588q-12 0 -26 12t-14 21q0 4 2.5 7.5t8.5 9.5l145 150q4 5 14 5q16 0 35 -15t19 -29q0 -9 -12 -18l-163 -140q-3 -3 -9 -3z" />
    <glyph glyph-name="ucircumflex" unicode="&#xfb;" 
d="M172.5 523.5q9.5 -5.5 8.5 -18.5q-10 -107 -10 -224q0 -79 7 -121q7 -49 33.5 -71t75.5 -22q43 0 83 18t72 52q-4 175 -4 372q0 20 41 20q43 0 43 -20v-378q0 -53 2 -97l1 -20q0 -11 -9.5 -15.5t-32.5 -4.5q-22 0 -31.5 4.5t-9.5 15.5q0 23 4 56h-13q-71 -82 -175 -82
q-140 0 -161 142q-9 56 -9 137q0 123 10 242q2 10 11 15t31 5q23 0 32.5 -5.5zM486 619q0 -10 -12.5 -20t-25.5 -10q-7 0 -11 4l-127 131l-127 -131q-4 -4 -11 -4q-13 0 -25.5 10t-12.5 20q0 3 2.5 6.5t7.5 8.5l123 144q13 16 43 16t43 -16l123 -144q10 -10 10 -15z" />
    <glyph glyph-name="udieresis" unicode="&#xfc;" 
d="M172.5 523.5q9.5 -5.5 8.5 -18.5q-10 -107 -10 -224q0 -79 7 -121q7 -49 33.5 -71t75.5 -22q43 0 83 18t72 52q-4 175 -4 372q0 20 41 20q43 0 43 -20v-378q0 -53 2 -97l1 -20q0 -11 -9.5 -15.5t-32.5 -4.5q-22 0 -31.5 4.5t-9.5 15.5q0 23 4 56h-13q-71 -82 -175 -82
q-140 0 -161 142q-9 56 -9 137q0 123 10 242q2 10 11 15t31 5q23 0 32.5 -5.5zM145.5 645.5q-14.5 11.5 -14.5 38.5t14.5 38.5t49.5 11.5t49 -11.5t14 -38.5t-14 -38.5t-49 -11.5t-49.5 11.5zM376 722.5q14 11.5 49 11.5t49.5 -11.5t14.5 -38.5t-14.5 -38.5t-49.5 -11.5
t-49 11.5t-14 38.5t14 38.5z" />
    <glyph glyph-name="yacute" unicode="&#xfd;" 
d="M94 -184.5q-11 19.5 -11 38.5q0 8 4.5 13t18.5 11q52 22 104.5 59t95.5 85l-2 5q-5 -1 -14 -1t-17 7.5t-20 25.5q-50 85 -104.5 202t-82.5 201q-11 29 -11 41t20.5 21t40.5 9q12 0 18 -7.5t13 -28.5q27 -91 75 -201t102 -207h14q46 85 83 200t52 209q2 20 10 27.5t27 7.5
q24 0 38 -6.5t14 -18.5q0 -8 -5 -33q-19 -101 -61 -219t-94 -209q-100 -175 -246 -240q-26 -11 -36 -11q-15 0 -26 19.5zM262 588q-12 0 -26 12t-14 21q0 4 2.5 7.5t8.5 9.5l145 150q4 5 14 5q16 0 35 -15t19 -29q0 -9 -12 -18l-163 -140q-3 -3 -9 -3z" />
    <glyph glyph-name="Amacron" unicode="&#x100;" 
d="M51 12q0 4 5 36q70 332 183 625q6 18 20.5 25t50.5 7q37 0 51 -6.5t20 -25.5q113 -293 183 -625q5 -32 5 -36q0 -19 -46 -19q-20 0 -29 4.5t-13 20.5q-22 100 -36 180q-60 -4 -135 -4t-135 4q-14 -80 -36 -180q-4 -16 -13 -20.5t-29 -4.5q-46 0 -46 19zM310 269
q62 0 123 -3l-30 98q-6 20 -33 107.5t-54 160.5h-12q-27 -73 -54 -160.5t-33 -107.5l-30 -98q62 3 123 3zM122 819q-5 10 -5 25t5 25.5t14 10.5h348q10 0 15.5 -10.5t5.5 -25.5q0 -14 -5.5 -24.5t-15.5 -10.5h-348q-9 0 -14 10z" />
    <glyph glyph-name="amacron" unicode="&#x101;" 
d="M497 1q-33 15 -83 48q-79 -60 -176 -60q-76 0 -117.5 40t-41.5 110q0 76 50.5 117t153.5 41q70 0 135 -16l1 34q0 82 -26 114.5t-87 32.5q-39 0 -80.5 -10t-76.5 -26q-3 -2 -10 -2q-13 0 -22 15t-9 32q0 10 4.5 15t16.5 10q38 17 88.5 28t99.5 11q96 0 140.5 -48.5
t44.5 -163.5q0 -46 -6 -108t-17 -120q47 -13 67.5 -20t25.5 -12t5 -14q0 -21 -10 -42t-22 -21q-15 0 -48 15zM262 59q69 0 141 38q7 56 12 131q-52 9 -103 9q-84 0 -116 -20.5t-32 -66.5q0 -91 98 -91zM138.5 664.5q-4.5 10.5 -4.5 24.5q0 15 5 25.5t13 10.5h316
q9 0 14 -10.5t5 -25.5t-5 -25t-14 -10h-316q-9 0 -13.5 10.5z" />
    <glyph glyph-name="Abreve" unicode="&#x102;" 
d="M51 12q0 4 5 36q70 332 183 625q6 18 20.5 25t50.5 7q37 0 51 -6.5t20 -25.5q113 -293 183 -625q5 -32 5 -36q0 -19 -46 -19q-20 0 -29 4.5t-13 20.5q-22 100 -36 180q-60 -4 -135 -4t-135 4q-14 -80 -36 -180q-4 -16 -13 -20.5t-29 -4.5q-46 0 -46 19zM310 269
q62 0 123 -3l-30 98q-6 20 -33 107.5t-54 160.5h-12q-27 -73 -54 -160.5t-33 -107.5l-30 -98q62 3 123 3zM186.5 806q-49.5 40 -70.5 110q-4 11 14 20.5t35 9.5q13 0 16 -7q16 -52 47 -79t82 -27t82 27t47 79q3 7 16 7q17 0 35 -9.5t15 -20.5q-22 -70 -71.5 -110t-123.5 -40
t-123.5 40z" />
    <glyph glyph-name="abreve" unicode="&#x103;" 
d="M497 1q-33 15 -83 48q-79 -60 -176 -60q-76 0 -117.5 40t-41.5 110q0 76 50.5 117t153.5 41q70 0 135 -16l1 34q0 82 -26 114.5t-87 32.5q-39 0 -80.5 -10t-76.5 -26q-3 -2 -10 -2q-13 0 -22 15t-9 32q0 10 4.5 15t16.5 10q38 17 88.5 28t99.5 11q96 0 140.5 -48.5
t44.5 -163.5q0 -46 -6 -108t-17 -120q47 -13 67.5 -20t25.5 -12t5 -14q0 -21 -10 -42t-22 -21q-15 0 -48 15zM262 59q69 0 141 38q7 56 12 131q-52 9 -103 9q-84 0 -116 -20.5t-32 -66.5q0 -91 98 -91zM198 631q-45 40 -64 110q-4 11 12 20.5t32 9.5q12 0 15 -7
q15 -52 43 -79t74 -27t74 27t43 79q3 7 15 7q16 0 32 -9.5t13 -20.5q-19 -70 -64.5 -110t-112.5 -40t-112 40z" />
    <glyph glyph-name="Cacute" unicode="&#x106;" 
d="M131.5 68q-64.5 79 -64.5 259q0 186 75 283.5t217 97.5q59 0 105 -16.5t64 -40.5q9 -12 16.5 -56t7.5 -70q0 -15 -16.5 -23t-39.5 -8q-12 0 -17 4.5t-7 18.5q-3 40 -11 86q-17 12 -45.5 19.5t-61.5 7.5q-99 0 -150.5 -75.5t-51.5 -224.5q0 -98 20 -155.5t60 -82
t102 -24.5q45 0 88.5 11.5t91.5 36.5q15 6 26.5 -13t11.5 -39q0 -16 -15 -24q-42 -23 -99 -37t-112 -14q-130 0 -194.5 79zM231 763q-13 0 -28.5 12t-15.5 21q0 4 3 7.5t9 9.5l159 150q5 5 15 5q18 0 39 -15t21 -29q0 -9 -13 -18l-179 -140q-4 -3 -10 -3z" />
    <glyph glyph-name="cacute" unicode="&#x107;" 
d="M153.5 47q-53.5 59 -53.5 194q0 143 63.5 218t184.5 75q53 0 94.5 -13.5t59.5 -35.5q12 -14 19 -46.5t7 -60.5q0 -13 -16 -19.5t-39 -6.5q-10 0 -15 3.5t-6 14.5l-11 64q-16 11 -42.5 18t-56.5 7q-78 0 -118.5 -54t-40.5 -160q0 -99 34.5 -139.5t107.5 -40.5q80 0 165 39
l8 2q13 0 22 -17.5t9 -34.5q0 -15 -17 -24q-39 -19 -91.5 -30.5t-105.5 -11.5q-108 0 -161.5 59zM262 588q-12 0 -26 12t-14 21q0 4 2.5 7.5t8.5 9.5l145 150q4 5 14 5q16 0 35 -15t19 -29q0 -9 -12 -18l-163 -140q-3 -3 -9 -3z" />
    <glyph glyph-name="Itilde" unicode="&#x128;" 
d="M121 39q0 23 4.5 32t13.5 9q58 0 131 -5q-4 184 -4 273q0 88 4 274q-73 -5 -131 -5q-9 0 -13.5 9t-4.5 32q0 39 18 39h342q18 0 18 -39q0 -23 -4.5 -32t-13.5 -9q-58 0 -131 5q4 -124 4 -274t-4 -273q73 5 131 5q9 0 13.5 -9t4.5 -32q0 -39 -18 -39h-342q-18 0 -18 39z
M346 794.5q-28 18.5 -60 52.5q-24 25 -40.5 37t-35.5 12q-26 0 -42.5 -28.5t-23.5 -80.5q-1 -7 -9.5 -10.5t-20.5 -3.5q-15 0 -27.5 5.5t-11.5 13.5q5 81 40.5 126.5t91.5 45.5q40 0 67.5 -18.5t60.5 -53.5q23 -25 39 -37t35 -12q54 0 68 109q1 7 9.5 11t21.5 4
q16 0 28 -5.5t11 -14.5q-6 -81 -41.5 -126t-92.5 -45q-39 0 -67 18.5z" />
    <glyph glyph-name="itilde" unicode="&#x129;" 
d="M116 38q0 38 20 38q74 0 147 -4q-4 126 -4 187t4 187q-67 -4 -129 -4q-10 0 -14.5 8.5t-4.5 29.5q0 20 4.5 29t14.5 9h178q17 0 23.5 -6.5t6.5 -24.5q0 -275 -4 -415q78 4 147 4q10 0 14.5 -8.5t4.5 -29.5q0 -20 -4.5 -29t-14.5 -9h-369q-20 0 -20 38zM342 629.5
q-25 18.5 -55 52.5q-21 24 -36 36.5t-33 12.5q-24 0 -39 -28.5t-21 -80.5q-1 -7 -8.5 -10.5t-18.5 -3.5q-15 0 -26 5t-10 14q5 81 37 126.5t83 45.5q37 0 62 -18.5t55 -53.5q21 -25 35.5 -37t31.5 -12q49 0 62 109q1 7 9 11t19 4q14 0 25 -5.5t10 -14.5q-5 -81 -37 -126
t-84 -45q-36 0 -61 18.5z" />
    <glyph glyph-name="dotlessi" unicode="&#x131;" 
d="M116 38q0 38 20 38q74 0 147 -4q-4 126 -4 187t4 187q-67 -4 -129 -4q-10 0 -14.5 8.5t-4.5 29.5q0 20 4.5 29t14.5 9h178q17 0 23.5 -6.5t6.5 -24.5q0 -275 -4 -415q78 4 147 4q10 0 14.5 -8.5t4.5 -29.5q0 -20 -4.5 -29t-14.5 -9h-369q-20 0 -20 38z" />
    <glyph glyph-name="Nacute" unicode="&#x143;" 
d="M78 13v665q0 14 14 20t43 6t42 -8t23 -32q124 -258 260 -576h10q-7 100 -11.5 282.5t-4.5 313.5q0 20 44 20t44 -20v-665q0 -14 -14 -20t-43 -6t-42 8t-23 32q-104 217 -260 576h-10q7 -100 11.5 -282.5t4.5 -313.5q0 -20 -44 -20t-44 20zM231 763q-13 0 -28.5 12
t-15.5 21q0 4 3 7.5t9 9.5l159 150q5 5 15 5q18 0 39 -15t21 -29q0 -9 -13 -18l-179 -140q-4 -3 -10 -3z" />
    <glyph glyph-name="nacute" unicode="&#x144;" 
d="M447.5 -1.5q-9.5 5.5 -8.5 18.5q10 107 10 224q0 79 -7 121q-7 49 -33.5 71t-75.5 22q-43 0 -83 -18t-72 -52q4 -175 4 -372q0 -20 -41 -20q-43 0 -43 20v378q0 53 -2 97l-1 20q0 11 9.5 15.5t32.5 4.5q22 0 31.5 -4.5t9.5 -15.5q0 -23 -4 -56h13q71 82 175 82
q140 0 161 -142q9 -55 9 -137q0 -123 -10 -242q-2 -10 -11 -15t-31 -5q-23 0 -32.5 5.5zM262 588q-12 0 -26 12t-14 21q0 4 2.5 7.5t8.5 9.5l145 150q4 5 14 5q16 0 35 -15t19 -29q0 -9 -12 -18l-163 -140q-3 -3 -9 -3z" />
    <glyph glyph-name="Ncaron" unicode="&#x147;" 
d="M78 13v665q0 14 14 20t43 6t42 -8t23 -32q124 -258 260 -576h10q-7 100 -11.5 282.5t-4.5 313.5q0 20 44 20t44 -20v-665q0 -14 -14 -20t-43 -6t-42 8t-23 32q-104 217 -260 576h-10q7 -100 11.5 -282.5t4.5 -313.5q0 -20 -44 -20t-44 20zM116 937q0 10 14 20t28 10
q8 0 12 -4l140 -131l140 131q4 4 12 4q14 0 28 -10t14 -20q0 -3 -4.5 -7.5t-6.5 -7.5l-136 -144q-7 -7 -19.5 -11.5t-27.5 -4.5q-14 0 -27 4.5t-20 11.5l-136 144q-11 11 -11 15z" />
    <glyph glyph-name="ncaron" unicode="&#x148;" 
d="M447.5 -1.5q-9.5 5.5 -8.5 18.5q10 107 10 224q0 79 -7 121q-7 49 -33.5 71t-75.5 22q-43 0 -83 -18t-72 -52q4 -175 4 -372q0 -20 -41 -20q-43 0 -43 20v378q0 53 -2 97l-1 20q0 11 9.5 15.5t32.5 4.5q22 0 31.5 -4.5t9.5 -15.5q0 -23 -4 -56h13q71 82 175 82
q140 0 161 -142q9 -55 9 -137q0 -123 -10 -242q-2 -10 -11 -15t-31 -5q-23 0 -32.5 5.5zM134 762q0 10 12.5 20t25.5 10q7 0 11 -4l127 -131l127 131q4 4 11 4q13 0 25.5 -10t12.5 -20q0 -3 -2.5 -6.5t-7.5 -8.5l-123 -144q-7 -7 -18.5 -11.5t-24.5 -4.5t-24.5 4.5
t-18.5 11.5l-123 144q-10 10 -10 15z" />
    <glyph glyph-name="Racute" unicode="&#x154;" 
d="M98 13v400q0 99 4 135.5t15 56.5v12q-27 -6 -36 -6q-11 0 -16 8.5t-5 28.5q0 19 5.5 26.5t23.5 11.5q37 9 90 14t107 5q123 0 186 -52t63 -152q0 -143 -135 -222q45 -51 87 -110.5t68 -107.5q15 -27 15 -35q0 -13 -23 -23t-40 -10q-11 0 -17 7t-17 28q-56 106 -145 219
q-32 -2 -47 -2q-40 0 -100 7q4 -128 4 -239q0 -20 -44 -20q-43 0 -43 20zM290 321q33 0 49 1q56 36 82.5 79t26.5 98q0 65 -39.5 97.5t-121.5 32.5q-62 0 -105 -7q3 -69 3 -142q0 -77 -3 -152q50 -7 108 -7zM231 763q-13 0 -28.5 12t-15.5 21q0 4 3 7.5t9 9.5l159 150
q5 5 15 5q18 0 39 -15t21 -29q0 -9 -13 -18l-179 -140q-4 -3 -10 -3z" />
    <glyph glyph-name="racute" unicode="&#x155;" 
d="M143.5 -1.5q-9.5 4.5 -9.5 14.5v317q-23 71 -36.5 116.5t-13.5 53.5q0 11 21 20.5t41 9.5q17 0 21 -14q15 -50 33 -139h9q45 79 100 118t125 39q29 0 54.5 -7t35.5 -19q13 -15 25.5 -69.5t12.5 -92.5q0 -13 -15.5 -19.5t-40.5 -6.5q-15 0 -20.5 3.5t-7.5 12.5
q-3 12 -7.5 41t-6.5 45l-3 24q-18 8 -42 8q-123 0 -207 -167q5 -137 5 -274q0 -10 -9 -14.5t-32 -4.5t-32.5 4.5zM262 588q-12 0 -26 12t-14 21q0 4 2.5 7.5t8.5 9.5l145 150q4 5 14 5q16 0 35 -15t19 -29q0 -9 -12 -18l-163 -140q-3 -3 -9 -3z" />
    <glyph glyph-name="Rcaron" unicode="&#x158;" 
d="M98 13v400q0 99 4 135.5t15 56.5v12q-27 -6 -36 -6q-11 0 -16 8.5t-5 28.5q0 19 5.5 26.5t23.5 11.5q37 9 90 14t107 5q123 0 186 -52t63 -152q0 -143 -135 -222q45 -51 87 -110.5t68 -107.5q15 -27 15 -35q0 -13 -23 -23t-40 -10q-11 0 -17 7t-17 28q-56 106 -145 219
q-32 -2 -47 -2q-40 0 -100 7q4 -128 4 -239q0 -20 -44 -20q-43 0 -43 20zM290 321q33 0 49 1q56 36 82.5 79t26.5 98q0 65 -39.5 97.5t-121.5 32.5q-62 0 -105 -7q3 -69 3 -142q0 -77 -3 -152q50 -7 108 -7zM116 937q0 10 14 20t28 10q8 0 12 -4l140 -131l140 131q4 4 12 4
q14 0 28 -10t14 -20q0 -3 -4.5 -7.5t-6.5 -7.5l-136 -144q-7 -7 -19.5 -11.5t-27.5 -4.5q-14 0 -27 4.5t-20 11.5l-136 144q-11 11 -11 15z" />
    <glyph glyph-name="rcaron" unicode="&#x159;" 
d="M143.5 -1.5q-9.5 4.5 -9.5 14.5v317q-23 71 -36.5 116.5t-13.5 53.5q0 11 21 20.5t41 9.5q17 0 21 -14q15 -50 33 -139h9q45 79 100 118t125 39q29 0 54.5 -7t35.5 -19q13 -15 25.5 -69.5t12.5 -92.5q0 -13 -15.5 -19.5t-40.5 -6.5q-15 0 -20.5 3.5t-7.5 12.5
q-3 12 -7.5 41t-6.5 45l-3 24q-18 8 -42 8q-123 0 -207 -167q5 -137 5 -274q0 -10 -9 -14.5t-32 -4.5t-32.5 4.5zM134 762q0 10 12.5 20t25.5 10q7 0 11 -4l127 -131l127 131q4 4 11 4q13 0 25.5 -10t12.5 -20q0 -3 -2.5 -6.5t-7.5 -8.5l-123 -144q-7 -7 -18.5 -11.5
t-24.5 -4.5t-24.5 4.5t-18.5 11.5l-123 144q-10 10 -10 15z" />
    <glyph glyph-name="Sacute" unicode="&#x15a;" 
d="M116 19q-17 5 -25 13.5t-8 21.5q0 20 12.5 37t27.5 11q85 -40 173 -40q79 0 118 32t39 92q0 33 -14.5 54t-45.5 34.5t-87 26.5q-68 15 -113 35.5t-73 62.5t-28 112q0 100 58 150t169 50q56 0 107 -13t67 -29q10 -10 17.5 -45.5t7.5 -64.5t-59 -29q-10 0 -14 4t-5 14
q-4 41 -10 66q-47 22 -114 22q-71 0 -106 -31.5t-35 -89.5q0 -42 18 -66.5t49 -38t82 -24.5q113 -26 162.5 -69.5t49.5 -127.5q0 -99 -63 -151t-179 -52q-97 0 -178 33zM231 763q-13 0 -28.5 12t-15.5 21q0 4 3 7.5t9 9.5l159 150q5 5 15 5q18 0 39 -15t21 -29q0 -9 -13 -18
l-179 -140q-4 -3 -10 -3z" />
    <glyph glyph-name="sacute" unicode="&#x15b;" 
d="M205.5 -1q-50.5 11 -88.5 29q-16 7 -16 21q0 20 10.5 37t25.5 11q87 -39 176 -39q130 0 130 84q0 37 -28.5 55t-104.5 30q-68 10 -109.5 24t-66 43.5t-24.5 82.5q0 79 55 118.5t156 39.5q98 0 172 -37q16 -7 16 -22q0 -19 -11.5 -36.5t-26.5 -11.5q-76 37 -155 37
q-126 0 -126 -84q0 -38 30 -53.5t104 -26.5q107 -17 153 -52t46 -104q0 -78 -55 -117.5t-159 -39.5q-53 0 -103.5 11zM262 588q-12 0 -26 12t-14 21q0 4 2.5 7.5t8.5 9.5l145 150q4 5 14 5q16 0 35 -15t19 -29q0 -9 -12 -18l-163 -140q-3 -3 -9 -3z" />
    <glyph glyph-name="Scircumflex" unicode="&#x15c;" 
d="M116 19q-17 5 -25 13.5t-8 21.5q0 20 12.5 37t27.5 11q85 -40 173 -40q79 0 118 32t39 92q0 33 -14.5 54t-45.5 34.5t-87 26.5q-68 15 -113 35.5t-73 62.5t-28 112q0 100 58 150t169 50q56 0 107 -13t67 -29q10 -10 17.5 -45.5t7.5 -64.5t-59 -29q-10 0 -14 4t-5 14
q-4 41 -10 66q-47 22 -114 22q-71 0 -106 -31.5t-35 -89.5q0 -42 18 -66.5t49 -38t82 -24.5q113 -26 162.5 -69.5t49.5 -127.5q0 -99 -63 -151t-179 -52q-97 0 -178 33zM505 793q0 -10 -14 -20t-28 -10q-8 0 -12 4l-140 131l-140 -131q-4 -4 -12 -4q-14 0 -28 10t-14 20
q0 3 4.5 7.5t6.5 7.5l136 144q15 16 47 16t47 -16l136 -144q11 -11 11 -15z" />
    <glyph glyph-name="scircumflex" unicode="&#x15d;" 
d="M205.5 -1q-50.5 11 -88.5 29q-16 7 -16 21q0 20 10.5 37t25.5 11q87 -39 176 -39q130 0 130 84q0 37 -28.5 55t-104.5 30q-68 10 -109.5 24t-66 43.5t-24.5 82.5q0 79 55 118.5t156 39.5q98 0 172 -37q16 -7 16 -22q0 -19 -11.5 -36.5t-26.5 -11.5q-76 37 -155 37
q-126 0 -126 -84q0 -38 30 -53.5t104 -26.5q107 -17 153 -52t46 -104q0 -78 -55 -117.5t-159 -39.5q-53 0 -103.5 11zM486 619q0 -10 -12.5 -20t-25.5 -10q-7 0 -11 4l-127 131l-127 -131q-4 -4 -11 -4q-13 0 -25.5 10t-12.5 20q0 3 2.5 6.5t7.5 8.5l123 144q13 16 43 16
t43 -16l123 -144q10 -10 10 -15z" />
    <glyph glyph-name="Scedilla" unicode="&#x15e;" 
d="M95.5 91q12.5 17 27.5 11q85 -40 173 -40q79 0 118 32t39 92q0 33 -14.5 54t-45.5 34.5t-87 26.5q-68 15 -113 35.5t-73 62.5t-28 112q0 100 58 150t169 50q56 0 107 -13t67 -29q10 -10 17.5 -45.5t7.5 -64.5t-59 -29q-10 0 -14 4t-5 14q-4 41 -10 66q-47 22 -114 22
q-71 0 -106 -31.5t-35 -89.5q0 -42 18 -66.5t49 -38t82 -24.5q113 -26 162.5 -69.5t49.5 -127.5q0 -90 -52 -141.5t-149 -59.5l-2 -8l-34 -160q-1 -9 -12 -13.5t-26 -4.5q-17 0 -30 6.5t-13 15.5q0 5 5 21l51 141q-88 4 -158 33q-17 5 -25 13.5t-8 21.5q0 20 12.5 37z" />
    <glyph glyph-name="scedilla" unicode="&#x15f;" 
d="M111.5 86q10.5 17 25.5 11q87 -39 176 -39q130 0 130 84q0 37 -28.5 55t-104.5 30q-68 10 -109.5 24t-66 43.5t-24.5 82.5q0 79 55 118.5t156 39.5q98 0 172 -37q16 -7 16 -22q0 -19 -11.5 -36.5t-26.5 -11.5q-76 37 -155 37q-126 0 -126 -84q0 -38 30 -53.5t104 -26.5
q107 -17 153 -52t46 -104q0 -73 -48.5 -112t-139.5 -44l-2 -9l-34 -160q-1 -9 -12 -13.5t-26 -4.5q-17 0 -30 6.5t-13 15.5q0 5 5 21l52 144q-89 6 -158 39q-16 7 -16 21q0 20 10.5 37z" />
    <glyph glyph-name="Utilde" unicode="&#x168;" 
d="M154.5 35.5q-55.5 47.5 -69.5 150.5q-9 77 -9 189q0 144 9 309q2 10 11.5 15t32.5 5q24 0 34 -5.5t8 -18.5q-8 -136 -8 -290q0 -120 5 -174q9 -83 43 -115.5t99 -32.5t99 32.5t43 115.5q6 52 6 174q0 137 -9 290q-2 13 8 18.5t34 5.5t33 -5t11 -15q9 -165 9 -309
q0 -112 -9 -189q-14 -103 -69.5 -150.5t-155.5 -47.5t-155.5 47.5zM346 794.5q-28 18.5 -60 52.5q-24 25 -40.5 37t-35.5 12q-26 0 -42.5 -28.5t-23.5 -80.5q-1 -7 -9.5 -10.5t-20.5 -3.5q-15 0 -27.5 5.5t-11.5 13.5q5 81 40.5 126.5t91.5 45.5q40 0 67.5 -18.5t60.5 -53.5
q23 -25 39 -37t35 -12q54 0 68 109q1 7 9.5 11t21.5 4q16 0 28 -5.5t11 -14.5q-6 -81 -41.5 -126t-92.5 -45q-39 0 -67 18.5z" />
    <glyph glyph-name="utilde" unicode="&#x169;" 
d="M172.5 523.5q9.5 -5.5 8.5 -18.5q-10 -107 -10 -224q0 -79 7 -121q7 -49 33.5 -71t75.5 -22q43 0 83 18t72 52q-4 175 -4 372q0 20 41 20q43 0 43 -20v-378q0 -53 2 -97l1 -20q0 -11 -9.5 -15.5t-32.5 -4.5q-22 0 -31.5 4.5t-9.5 15.5q0 23 4 56h-13q-71 -82 -175 -82
q-140 0 -161 142q-9 56 -9 137q0 123 10 242q2 10 11 15t31 5q23 0 32.5 -5.5zM342 629.5q-25 18.5 -55 52.5q-21 24 -36 36.5t-33 12.5q-24 0 -39 -28.5t-21 -80.5q-1 -7 -8.5 -10.5t-18.5 -3.5q-15 0 -26 5t-10 14q5 81 37 126.5t83 45.5q37 0 62 -18.5t55 -53.5
q21 -25 35.5 -37t31.5 -12q49 0 62 109q1 7 9 11t19 4q14 0 25 -5.5t10 -14.5q-5 -81 -37 -126t-84 -45q-36 0 -61 18.5z" />
    <glyph glyph-name="Wcircumflex" unicode="&#x174;" 
d="M147.5 2q-10.5 8 -17.5 35q-33 127 -59 294t-38 314l-2 41q0 19 41 19q22 0 32 -5t11 -18q12 -293 74 -610h12q45 125 75 285q-7 107 -7 132q0 23 41 23t41 -23q0 -25 -7 -132q30 -160 75 -285h12q62 317 74 610q1 13 11 18t32 5q41 0 41 -19l-2 -41q-11 -144 -37 -311.5
t-60 -296.5q-7 -27 -17.5 -35t-37.5 -8q-28 0 -39 7t-17 28q-44 136 -64 271h-10q-20 -135 -64 -271q-6 -21 -17 -28t-39 -7q-27 0 -37.5 8zM505 793q0 -10 -14 -20t-28 -10q-8 0 -12 4l-140 131l-140 -131q-4 -4 -12 -4q-14 0 -28 10t-14 20q0 3 4.5 7.5t6.5 7.5l136 144
q15 16 47 16t47 -16l136 -144q11 -11 11 -15z" />
    <glyph glyph-name="wcircumflex" unicode="&#x175;" 
d="M147.5 2q-10.5 8 -17.5 35q-27 91 -48 210t-30 224l-2 39q0 19 40 19q21 0 30.5 -5t9.5 -18q10 -210 59 -436h12q45 92 75 212q-5 56 -5 98q0 25 39 25t39 -25q0 -42 -5 -98q30 -120 75 -212h12q49 226 59 436q0 13 9.5 18t30.5 5q40 0 40 -19l-2 -39q-9 -105 -30 -224
t-48 -210q-7 -27 -17.5 -35t-37.5 -8q-28 0 -38.5 7t-18.5 28q-42 101 -63 199h-10q-21 -98 -63 -199q-8 -21 -18.5 -28t-38.5 -7q-27 0 -37.5 8zM486 619q0 -10 -12.5 -20t-25.5 -10q-7 0 -11 4l-127 131l-127 -131q-4 -4 -11 -4q-13 0 -25.5 10t-12.5 20q0 3 2.5 6.5
t7.5 8.5l123 144q13 16 43 16t43 -16l123 -144q10 -10 10 -15z" />
    <glyph glyph-name="Ycircumflex" unicode="&#x176;" 
d="M266 13q0 113 5 264q-121 176 -207 376q-6 15 -6 24q0 11 18 19.5t39 8.5q13 0 19.5 -6t10.5 -20q32 -77 73.5 -160.5t86.5 -155.5h10q45 72 86.5 155.5t73.5 160.5q4 14 10.5 20t19.5 6q20 0 38.5 -8.5t18.5 -19.5q0 -9 -6 -24q-88 -206 -207 -376q5 -151 5 -264
q0 -20 -44 -20t-44 20zM505 793q0 -10 -14 -20t-28 -10q-8 0 -12 4l-140 131l-140 -131q-4 -4 -12 -4q-14 0 -28 10t-14 20q0 3 4.5 7.5t6.5 7.5l136 144q15 16 47 16t47 -16l136 -144q11 -11 11 -15z" />
    <glyph glyph-name="Zacute" unicode="&#x179;" 
d="M59.5 10q-5.5 10 -5.5 32q0 19 4.5 30t18.5 33q3 5 8 12t11 16q112 160 188 266.5t157 211.5v11q-192 -5 -348 -5q-19 0 -19 41q0 39 19 39h427q13 0 18.5 -10t5.5 -32q0 -19 -4.5 -31t-18.5 -32q-112 -161 -195 -277.5t-169 -228.5v-11q206 5 389 5q19 0 19 -41
q0 -39 -19 -39h-468q-13 0 -18.5 10zM231 763q-13 0 -28.5 12t-15.5 21q0 4 3 7.5t9 9.5l159 150q5 5 15 5q18 0 39 -15t21 -29q0 -9 -13 -18l-179 -140q-4 -3 -10 -3z" />
    <glyph glyph-name="zacute" unicode="&#x17a;" 
d="M89.5 9q-5.5 9 -5.5 30q0 15 5 26t22 31q160 195 300 348v8q-156 -4 -289 -4q-19 0 -19 37t19 37h368q14 0 19 -9.5t5 -32.5q0 -12 -5 -23.5t-22 -30.5q-144 -178 -299 -349v-7q173 4 329 4q19 0 19 -37t-19 -37h-408q-14 0 -19.5 9zM262 588q-12 0 -26 12t-14 21
q0 4 2.5 7.5t8.5 9.5l145 150q4 5 14 5q16 0 35 -15t19 -29q0 -9 -12 -18l-163 -140q-3 -3 -9 -3z" />
    <glyph glyph-name="Zdotaccent" unicode="&#x17b;" 
d="M59.5 10q-5.5 10 -5.5 32q0 19 4.5 30t18.5 33q3 5 8 12t11 16q112 160 188 266.5t157 211.5v11q-192 -5 -348 -5q-19 0 -19 41q0 39 19 39h427q13 0 18.5 -10t5.5 -32q0 -19 -4.5 -31t-18.5 -32q-112 -161 -195 -277.5t-169 -228.5v-11q206 5 389 5q19 0 19 -41
q0 -39 -19 -39h-468q-13 0 -18.5 10zM254 800.5q-17 11.5 -17 38.5t17 38.5t56 11.5q40 0 56.5 -11.5t16.5 -38.5t-16.5 -38.5t-56.5 -11.5q-39 0 -56 11.5z" />
    <glyph glyph-name="zcaron" unicode="&#x17e;" 
d="M89.5 9q-5.5 9 -5.5 30q0 15 5 26t22 31q160 195 300 348v8q-156 -4 -289 -4q-19 0 -19 37t19 37h368q14 0 19 -9.5t5 -32.5q0 -12 -5 -23.5t-22 -30.5q-144 -178 -299 -349v-7q173 4 329 4q19 0 19 -37t-19 -37h-408q-14 0 -19.5 9zM134 762q0 10 12.5 20t25.5 10
q7 0 11 -4l127 -131l127 131q4 4 11 4q13 0 25.5 -10t12.5 -20q0 -3 -2.5 -6.5t-7.5 -8.5l-123 -144q-7 -7 -18.5 -11.5t-24.5 -4.5t-24.5 4.5t-18.5 11.5l-123 144q-10 10 -10 15z" />
    <glyph glyph-name="uni0401" unicode="&#x401;" 
d="M125.5 8q-7.5 8 -7.5 26v385q0 100 4 136.5t14 54.5v12l-38 -2q-10 0 -14.5 9t-4.5 30q0 20 4.5 29t14.5 9h414q10 0 14.5 -9t4.5 -29q0 -21 -4.5 -30t-14.5 -9q-139 0 -312 4q4 -53 4 -117t-4 -117q160 4 274 4q18 0 18 -38q0 -20 -4.5 -28.5t-13.5 -8.5q-114 0 -274 3
q4 -55 4 -124q0 -68 -4 -125q174 4 317 4q10 0 14 -8.5t4 -30.5q0 -21 -4 -29.5t-14 -8.5h-366q-18 0 -25.5 8zM129 800.5q-16 11.5 -16 38.5t16 38.5t55 11.5q38 0 53.5 -11.5t15.5 -38.5t-15.5 -38.5t-53.5 -11.5q-39 0 -55 11.5zM383 877.5q16 11.5 54 11.5t54 -11.5
t16 -38.5t-16 -38.5t-54 -11.5t-54 11.5t-16 38.5t16 38.5z" />
    <glyph glyph-name="uni040E" unicode="&#x40e;" 
d="M80 -1q-4 4 -5.5 11t-1.5 21q0 22 4 30t12 8q6 0 19 -1.5t26 -1.5q58 0 97.5 30.5t73.5 96.5l-3 7q-16 -4 -32 -4q-9 0 -16.5 7t-15.5 24q-45 81 -98 200.5t-82 200.5q-11 36 -11 47q0 12 21 20.5t43 8.5q10 0 15.5 -7.5t11.5 -28.5q28 -90 76.5 -204.5t101.5 -214.5h15
l11 27q77 200 130 394q6 20 11.5 27t15.5 7q22 0 43 -9t21 -20q0 -9 -7 -31q-25 -83 -64.5 -192.5t-73.5 -193.5q-38 -98 -78 -157t-88 -86t-110 -27q-47 0 -62 11zM195.5 806.5q-44.5 40.5 -61.5 114.5q-2 10 14 18t32 8t17 -8q12 -55 38 -83t75 -28t75 28t38 83q1 8 17 8
t32 -8t14 -18q-17 -74 -61.5 -114.5t-114.5 -40.5t-114.5 40.5z" />
    <glyph glyph-name="uni0410" unicode="&#x410;" 
d="M51 12q0 4 5 36q70 332 183 625q6 18 20.5 25t50.5 7q37 0 51 -6.5t20 -25.5q113 -293 183 -625q5 -32 5 -36q0 -19 -46 -19q-20 0 -29 4.5t-13 20.5q-22 100 -36 180q-60 -4 -135 -4t-135 4q-14 -80 -36 -180q-4 -16 -13 -20.5t-29 -4.5q-46 0 -46 19zM310 269
q62 0 123 -3l-30 98q-6 20 -33 107.5t-54 160.5h-12q-27 -73 -54 -160.5t-33 -107.5l-30 -98q62 3 123 3z" />
    <glyph glyph-name="uni0411" unicode="&#x411;" 
d="M211 -2q-46 6 -74 16q-16 6 -22 14t-6 23v368q0 100 4 136.5t14 54.5v12l-38 -2q-10 0 -14.5 9t-4.5 30q0 20 4.5 29t14.5 9h405q10 0 14.5 -9t4.5 -30q0 -22 -4.5 -31.5t-14.5 -9.5q-146 0 -302 5q3 -55 3 -108t-3 -106q49 13 116 13q121 0 183.5 -54.5t62.5 -160.5
t-64 -160t-191 -54q-42 0 -88 6zM195 202q0 -39 -2 -119q44 -15 107 -15q86 0 126.5 34t40.5 106t-41 107t-126 35q-52 0 -108 -12q3 -69 3 -136z" />
    <glyph glyph-name="uni0412" unicode="&#x412;" 
d="M196 -1.5q-46 6.5 -73 18.5q-16 6 -22.5 14.5t-6.5 23.5v358q0 101 4 137t14 55v12q-25 -6 -36 -6t-16 8.5t-5 28.5q0 19 6 26t23 12q37 9 91.5 14t108.5 5q233 0 233 -178q0 -56 -23.5 -95.5t-71.5 -70.5v-10q131 -37 131 -166q0 -94 -68 -143.5t-199 -49.5
q-44 0 -90 6.5zM181 186q0 -52 -3 -105q40 -17 109 -17q89 0 134 32t45 94q0 59 -42 90.5t-125 31.5q-70 0 -122 -8q4 -78 4 -118zM299 378q19 0 47 -2q43 30 64 64.5t21 78.5q0 56 -35.5 85t-112.5 29q-48 0 -106 -7q4 -55 4 -124q0 -44 -4 -132q67 8 122 8z" />
    <glyph glyph-name="uni0413" unicode="&#x413;" 
d="M130 13v406q0 98 4 135t14 56v12l-37 -2q-10 0 -14.5 9t-4.5 30q0 20 4.5 29t14.5 9h411q9 0 13.5 -9t4.5 -30q0 -22 -4.5 -31.5t-13.5 -9.5q-148 0 -310 5q4 -206 4 -609q0 -20 -43 -20t-43 20z" />
    <glyph glyph-name="uni0414" unicode="&#x414;" 
d="M29 -137v182q0 18 8 26.5t26 8.5h13q35 40 55.5 100t31 164.5t10.5 275.5l-32 -2q-10 0 -14.5 9t-4.5 31q0 21 4.5 30t14.5 9h360q35 0 35 -34q0 -240 -3 -360t-13 -223h37q18 0 26 -8.5t8 -26.5v-182q0 -20 -43 -20q-44 0 -44 20q0 69 5 141q-134 -4 -199 -4t-199 4
q5 -72 5 -141q0 -20 -44 -20q-43 0 -43 20zM303 80q76 0 149 -3q-4 181 -3 259q0 149 4 284q-52 -3 -105 -3q-52 0 -106 3q3 -37 3 -75q0 -191 -23.5 -299t-71.5 -169q77 3 153 3z" />
    <glyph glyph-name="uni0415" unicode="&#x415;" 
d="M125.5 8q-7.5 8 -7.5 26v385q0 100 4 136.5t14 54.5v12l-38 -2q-10 0 -14.5 9t-4.5 30q0 20 4.5 29t14.5 9h414q10 0 14.5 -9t4.5 -29q0 -21 -4.5 -30t-14.5 -9q-139 0 -312 4q4 -53 4 -117t-4 -117q160 4 274 4q18 0 18 -38q0 -20 -4.5 -28.5t-13.5 -8.5q-114 0 -274 3
q4 -55 4 -124q0 -68 -4 -125q174 4 317 4q10 0 14 -8.5t4 -30.5q0 -21 -4 -29.5t-14 -8.5h-366q-18 0 -25.5 8z" />
    <glyph glyph-name="uni0416" unicode="&#x416;" 
d="M524.5 -1.5q-5.5 5.5 -10.5 23.5q-55 159 -133 297q-20 -2 -38 -2q8 -183 8 -304q0 -20 -41 -20t-41 20q0 121 8 304q-18 0 -38 2q-78 -138 -133 -297q-5 -18 -10.5 -23.5t-16.5 -5.5q-18 0 -37 8.5t-19 20.5t13 44q26 69 64.5 151t78.5 146q-34 57 -70.5 133t-61.5 139
q-12 29 -12 41t18 20t36 8q12 0 17.5 -5.5t10.5 -21.5q54 -153 122 -283q22 -2 38 -2q-8 177 -8 292q0 20 41 20t41 -20q0 -115 -8 -292q18 0 38 2q68 130 122 283q5 16 10.5 21.5t17.5 5.5q18 0 36 -8t18 -20t-12 -41q-25 -63 -61.5 -139t-70.5 -133q40 -64 78.5 -146
t64.5 -151q13 -32 13 -44t-19 -20.5t-37 -8.5q-11 0 -16.5 5.5z" />
    <glyph glyph-name="uni0417" unicode="&#x417;" 
d="M199 -5.5q-47 9.5 -83 25.5q-17 7 -25 14.5t-8 19.5q0 15 10 34t22 19q5 0 23 -8q33 -15 70 -26t86 -11q77 0 117 32t40 87q0 46 -32 77.5t-102 52.5q-46 -3 -109 -3q-13 0 -20 10.5t-7 31.5q0 39 24 39t60 -3t64 -8q57 38 82 75t25 79q0 96 -134 96q-62 0 -114 -22
q-8 -51 -10 -66q-1 -9 -5 -13t-14 -4q-27 0 -43 7t-16 22q0 29 7.5 64.5t17.5 45.5q16 16 69.5 29.5t110.5 13.5q101 0 157 -41.5t56 -117.5q0 -58 -30.5 -103.5t-93.5 -84.5v-10q69 -23 105.5 -64t36.5 -108q0 -90 -64 -140.5t-177 -50.5q-49 0 -96 9.5z" />
    <glyph glyph-name="uni0418" unicode="&#x418;" 
d="M166 684q0 -131 -4.5 -313.5t-11.5 -282.5h10q156 359 260 576q10 24 23 32t42 8t43 -6t14 -20v-665q0 -20 -44 -20t-44 20q0 131 4.5 313.5t11.5 282.5h-10q-136 -318 -260 -576q-10 -24 -23 -32t-42 -8t-43 6t-14 20v665q0 20 44 20t44 -20z" />
    <glyph glyph-name="uni0419" unicode="&#x419;" 
d="M166 684q0 -131 -4.5 -313.5t-11.5 -282.5h10q156 359 260 576q10 24 23 32t42 8t43 -6t14 -20v-665q0 -20 -44 -20t-44 20q0 131 4.5 313.5t11.5 282.5h-10q-136 -318 -260 -576q-10 -24 -23 -32t-42 -8t-43 6t-14 20v665q0 20 44 20t44 -20zM195.5 806.5
q-44.5 40.5 -61.5 114.5q-2 10 14 18t32 8t17 -8q12 -55 38 -83t75 -28t75 28t38 83q1 8 17 8t32 -8t14 -18q-17 -74 -61.5 -114.5t-114.5 -40.5t-114.5 40.5z" />
    <glyph glyph-name="uni041A" unicode="&#x41a;" 
d="M477 -1.5q-6 5.5 -15 23.5q-38 74 -91 150t-117 145q-17 -2 -42 -3.5t-38 -2.5q5 -158 5 -298q0 -20 -44 -20q-43 0 -43 20v671q0 20 43 20q44 0 44 -20q0 -139 -5 -294q54 2 80 6q105 130 186 282q8 15 14 20.5t15 5.5q22 0 43 -9.5t21 -22.5q0 -11 -14 -35
q-36 -63 -91 -140.5t-109 -136.5q64 -64 123.5 -145.5t96.5 -149.5q16 -29 16 -40q0 -12 -22 -22t-42 -10q-8 0 -14 5.5z" />
    <glyph glyph-name="uni041B" unicode="&#x41b;" 
d="M46.5 12q-18.5 20 -18.5 36q0 9 11 17q49 41 78 99t44 165.5t16 290.5l-32 -2q-10 0 -14.5 9t-4.5 31q0 21 4.5 30t14.5 9h360q35 0 35 -34v-650q0 -20 -44 -20q-43 0 -43 20q0 405 4 607q-52 -3 -105 -3q-52 0 -106 3q3 -43 3 -92q0 -156 -17.5 -259t-50 -164.5
t-83.5 -103.5q-9 -9 -17 -9q-16 0 -34.5 20z" />
    <glyph glyph-name="uni041C" unicode="&#x41c;" 
d="M57 14q0 157 7 335t19 326q2 17 15.5 23.5t45.5 6.5q30 0 43 -7t18 -24q60 -178 98 -358h14q38 180 98 358q5 17 18 24t43 7q32 0 45.5 -6.5t15.5 -23.5q12 -148 19 -326t7 -335q0 -21 -42 -21q-41 0 -41 20l1 128q0 266 -12 477h-12q-56 -167 -99 -354q-2 -15 -13 -21.5
t-35 -6.5t-35 6.5t-13 21.5q-43 185 -99 354h-12q-12 -211 -12 -477l1 -128q0 -20 -41 -20q-42 0 -42 21z" />
    <glyph glyph-name="uni041D" unicode="&#x41d;" 
d="M80 13v671q0 20 44 20q43 0 43 -20q0 -140 -4 -290q67 4 147 4q82 0 147 -4q-4 150 -4 290q0 20 43 20q44 0 44 -20v-671q0 -20 -44 -20q-43 0 -43 20q0 148 4 309q-73 -3 -147 -3q-72 0 -147 3q4 -161 4 -309q0 -20 -43 -20q-44 0 -44 20z" />
    <glyph glyph-name="uni041E" unicode="&#x41e;" 
d="M156 22q-54 34 -79 106.5t-25 191.5q0 139 28 224.5t87 125t156 39.5q88 0 141.5 -34t78.5 -106.5t25 -191.5q0 -139 -28 -224t-87 -125t-155 -40q-88 0 -142 34zM155.5 174q15.5 -57 50.5 -82.5t95 -25.5q67 0 105.5 29t56 95t17.5 179q0 98 -15.5 154.5t-50.5 82
t-96 25.5q-67 0 -105.5 -29t-55.5 -94.5t-17 -178.5q0 -98 15.5 -155z" />
    <glyph glyph-name="uni041F" unicode="&#x41f;" 
d="M80 13v406q0 98 4 135t14 56v12l-37 -2q-10 0 -14.5 9t-4.5 30q0 20 4.5 29t14.5 9h444q35 0 35 -34v-650q0 -20 -44 -20q-43 0 -43 20q0 403 4 608q-98 -4 -147 -4q-47 0 -147 4q4 -205 4 -608q0 -20 -43 -20q-44 0 -44 20z" />
    <glyph glyph-name="uni0420" unicode="&#x420;" 
d="M118.5 -2q-9.5 5 -9.5 15v396q0 101 4 137t14 55v12q-25 -6 -36 -6t-16 9t-5 30q0 19 6 27t23 13q37 9 90.5 14t107.5 5q128 0 192.5 -62t64.5 -183q0 -122 -63 -184.5t-187 -62.5q-60 0 -113 12q4 -122 4 -212q0 -20 -44 -20q-23 0 -32.5 5zM298 288q86 0 127.5 42
t41.5 130q0 87 -41 128t-128 41q-61 0 -106 -9q3 -76 3 -159q0 -82 -3 -162q50 -11 106 -11z" />
    <glyph glyph-name="uni0421" unicode="&#x421;" 
d="M131.5 68q-64.5 79 -64.5 259q0 186 75 283.5t217 97.5q59 0 105 -16.5t64 -40.5q9 -12 16.5 -56t7.5 -70q0 -15 -16.5 -23t-39.5 -8q-12 0 -17 4.5t-7 18.5q-3 40 -11 86q-17 12 -45.5 19.5t-61.5 7.5q-99 0 -150.5 -75.5t-51.5 -224.5q0 -98 20 -155.5t60 -82
t102 -24.5q45 0 88.5 11.5t91.5 36.5q15 6 26.5 -13t11.5 -39q0 -16 -15 -24q-42 -23 -99 -37t-112 -14q-130 0 -194.5 79z" />
    <glyph glyph-name="uni0422" unicode="&#x422;" 
d="M266 13q0 403 6 609q-114 -5 -209 -5q-9 0 -13.5 9t-4.5 32q0 39 18 39h494q18 0 18 -39q0 -23 -4.5 -32t-13.5 -9q-66 0 -209 5q6 -206 6 -609q0 -20 -44 -20t-44 20z" />
    <glyph glyph-name="uni0423" unicode="&#x423;" 
d="M80 -1q-4 4 -5.5 11t-1.5 21q0 22 4 30t12 8q6 0 19 -1.5t26 -1.5q58 0 97.5 30.5t73.5 96.5l-3 7q-16 -4 -32 -4q-9 0 -16.5 7t-15.5 24q-45 81 -98 200.5t-82 200.5q-11 36 -11 47q0 12 21 20.5t43 8.5q10 0 15.5 -7.5t11.5 -28.5q28 -90 76.5 -204.5t101.5 -214.5h15
l11 27q77 200 130 394q6 20 11.5 27t15.5 7q22 0 43 -9t21 -20q0 -9 -7 -31q-25 -83 -64.5 -192.5t-73.5 -193.5q-38 -98 -78 -157t-88 -86t-110 -27q-47 0 -62 11z" />
    <glyph glyph-name="uni0424" unicode="&#x424;" 
d="M266 5q0 27 4 72q-126 5 -181.5 65t-55.5 190q0 141 55.5 209t181.5 78q-4 47 -4 73q0 20 44 20t44 -20q0 -27 -4 -72q126 -4 181.5 -64.5t55.5 -190.5q0 -141 -55.5 -209t-181.5 -78q4 -47 4 -73q0 -11 -10.5 -15.5t-33.5 -4.5q-44 0 -44 20zM129.5 231
q15.5 -40 50.5 -59.5t96 -22.5q-4 88 -4 200q0 111 4 198q-60 -5 -95.5 -27.5t-51 -66t-15.5 -114.5q0 -68 15.5 -108zM469.5 205q36.5 48 36.5 154q0 67 -15.5 107t-50.5 59.5t-96 22.5q4 -88 4 -198q0 -112 -4 -200q89 7 125.5 55z" />
    <glyph glyph-name="uni0425" unicode="&#x425;" 
d="M65.5 0.5q-19.5 9.5 -19.5 22.5q0 10 14 38q32 68 85.5 152t107.5 151q-46 59 -92.5 134t-77.5 137q-7 13 -10.5 22.5t-3.5 15.5q0 12 19.5 22.5t37.5 10.5q11 0 17.5 -6t14.5 -24q64 -137 144 -255h16q80 118 144 255q8 18 14.5 24t17.5 6q18 0 37.5 -10.5t19.5 -22.5
q0 -6 -3.5 -15.5t-10.5 -22.5q-31 -62 -77.5 -137t-92.5 -134q54 -67 107.5 -151t85.5 -152q14 -28 14 -38q0 -13 -19.5 -22.5t-38.5 -9.5q-10 0 -17 6t-15 25q-59 136 -167 284h-14q-110 -149 -166 -284q-9 -19 -16 -25t-17 -6q-19 0 -38.5 9.5z" />
    <glyph glyph-name="uni0426" unicode="&#x426;" 
d="M512 -152q-10 5 -10 15q0 69 4 141q-133 -4 -391 -4q-35 0 -35 34v650q0 20 44 20q43 0 43 -20q0 -403 -4 -607q74 3 148 3q71 0 141 -3q-4 202 -4 607q0 10 10 15t33 5q44 0 44 -20q0 -290 -3 -414t-12 -192q17 2 36 2q17 0 24.5 -8.5t7.5 -26.5v-182q0 -20 -43 -20
q-23 0 -33 5z" />
    <glyph glyph-name="uni0427" unicode="&#x427;" 
d="M425 13q0 143 4 295q-73 -25 -155 -25q-102 0 -155 53.5t-53 157.5q0 93 6 190q1 10 10.5 15t32.5 5q24 0 34 -5.5t9 -18.5q-5 -102 -5 -180q0 -71 33.5 -104.5t104.5 -33.5q72 0 138 22q-4 157 -4 300q0 20 44 20q23 0 32.5 -5t9.5 -15v-671q0 -10 -9.5 -15t-32.5 -5
q-44 0 -44 20z" />
    <glyph glyph-name="uni0428" unicode="&#x428;" 
d="M65 34v650q0 20 41 20q21 0 30 -5t9 -15q0 -406 -4 -608q45 2 137 4q-5 201 -5 604q0 20 37 20q38 0 38 -20q0 -403 -5 -604q90 -2 136 -4q-4 202 -4 608q0 10 9 15t30 5q41 0 41 -20v-650q0 -34 -35 -34h-420q-35 0 -35 34z" />
    <glyph glyph-name="uni0429" unicode="&#x429;" 
d="M504 -137q0 69 5 141q-139 -4 -409 -4q-35 0 -35 34v650q0 20 41 20q21 0 30 -5t9 -15q0 -407 -4 -608q44 2 130 4q-4 201 -4 604q0 20 36 20t36 -20q0 -403 -4 -604q86 -2 129 -4q-4 203 -4 608q0 20 41 20q39 0 39 -20q0 -288 -2.5 -412.5t-11.5 -193.5q14 2 31 2
q18 0 26 -8.5t8 -26.5v-182q0 -20 -43 -20q-44 0 -44 20z" />
    <glyph glyph-name="uni042A" unicode="&#x42a;" 
d="M271.5 -2q-38.5 6 -63.5 15q-15 6 -21.5 14t-6.5 23q0 378 4 572q-64 -5 -121 -5q-9 0 -13.5 9.5t-4.5 31.5q0 21 4.5 30t13.5 9h166q18 0 25.5 -8t7.5 -26q0 -107 -4 -221q36 12 96 12q106 0 159.5 -58.5t53.5 -173.5q0 -230 -222 -230q-35 0 -73.5 6zM263 217
q0 -67 -3 -135q39 -14 87 -14q70 0 104 37.5t34 116.5q0 80 -34.5 118.5t-107.5 38.5q-45 0 -84 -11q4 -100 4 -151z" />
    <glyph glyph-name="uni042B" unicode="&#x42b;" 
d="M472 13l-2 671q0 20 41 20q42 0 42 -20v-671q0 -20 -40 -20q-41 0 -41 20zM67 684q0 20 42 20q41 0 41 -20q0 -144 -5 -242q33 12 82 12q198 0 198 -232q0 -115 -51 -172.5t-156 -57.5q-32 0 -66.5 5.5t-56.5 15.5q-15 6 -21.5 14t-6.5 23v634zM148 217q0 -67 -3 -136
q34 -13 74 -13q65 0 95.5 37t30.5 117t-31 118.5t-95 38.5q-40 0 -75 -12q4 -100 4 -150z" />
    <glyph glyph-name="uni042C" unicode="&#x42c;" 
d="M210 -2q-46 6 -73 16q-16 6 -22 14t-6 23v633q0 10 9.5 15t32.5 5q44 0 44 -20q0 -102 -4 -242q51 12 113 12q124 0 187 -59t63 -173t-64.5 -172t-192.5 -58q-41 0 -87 6zM196 221q0 -78 -4 -138q45 -15 106 -15q87 0 128 37.5t41 116.5q0 80 -41.5 118.5t-127.5 38.5
q-58 0 -106 -11q4 -96 4 -147z" />
    <glyph glyph-name="uni042D" unicode="&#x42d;" 
d="M163.5 0.5q-46.5 11.5 -80.5 30.5q-15 8 -15 24q0 20 11.5 39t26.5 12q79 -38 152 -38q101 0 151.5 55.5t57.5 189.5q-130 -4 -259 -4q-9 0 -13.5 8.5t-4.5 28.5q0 38 18 38q130 0 260 -4q-5 125 -56 187.5t-146 62.5q-33 0 -61.5 -7.5t-45.5 -19.5q-8 -43 -11 -80
q-1 -13 -6.5 -18t-16.5 -5q-23 0 -40 8t-17 23q0 25 7.5 66.5t16.5 53.5q18 24 67 40.5t111 16.5q135 0 209 -90.5t74 -260.5q0 -196 -74.5 -282t-223.5 -86q-45 0 -91.5 11.5z" />
    <glyph glyph-name="uni042E" unicode="&#x42e;" 
d="M291 22.5q-36 34.5 -52 106t-17 187.5h-76q6 -170 6 -303q0 -20 -41 -20t-41 20v671q0 20 41 20t41 -20q0 -122 -6 -288h77q4 111 22.5 179.5t56 101t97.5 32.5q61 0 98 -33t54 -105.5t17 -193.5q0 -142 -18 -226.5t-57.5 -123.5t-106.5 -39q-59 0 -95 34.5zM306 169.5
q9 -57.5 29 -82.5t54 -25q38 0 59 29t30.5 95t9.5 184q0 100 -9.5 157.5t-29.5 82.5t-55 25q-37 0 -58 -29t-30 -95t-9 -183q0 -101 9 -158.5z" />
    <glyph glyph-name="uni042F" unicode="&#x42f;" 
d="M435 13q0 111 4 239q-61 -7 -103 -7q-15 0 -47 2q-76 -100 -136 -222q-11 -21 -17 -28t-17 -7q-18 0 -43 11t-25 24q0 9 14 34q24 47 64.5 106t83.5 109q-63 37 -95.5 87.5t-32.5 117.5q0 110 65.5 168t193.5 58q38 0 80 -6t69 -15q16 -6 22.5 -14t6.5 -23v-634
q0 -20 -43 -20q-44 0 -44 20zM264 323q21 -2 62 -2q59 0 114 7q-4 65 -4 152q0 71 3 138q-41 11 -96 11q-88 0 -129.5 -37t-41.5 -111q0 -94 92 -158z" />
    <glyph glyph-name="uni0430" unicode="&#x430;" 
d="M497 1q-33 15 -83 48q-79 -60 -176 -60q-76 0 -117.5 40t-41.5 110q0 76 50.5 117t153.5 41q70 0 135 -16l1 34q0 82 -26 114.5t-87 32.5q-39 0 -80.5 -10t-76.5 -26q-3 -2 -10 -2q-13 0 -22 15t-9 32q0 10 4.5 15t16.5 10q38 17 88.5 28t99.5 11q96 0 140.5 -48.5
t44.5 -163.5q0 -46 -6 -108t-17 -120q47 -13 67.5 -20t25.5 -12t5 -14q0 -21 -10 -42t-22 -21q-15 0 -48 15zM262 59q69 0 141 38q7 56 12 131q-52 9 -103 9q-84 0 -116 -20.5t-32 -66.5q0 -91 98 -91z" />
    <glyph glyph-name="uni0431" unicode="&#x431;" 
d="M101 538.5q34 80.5 97 114.5q60 33 151 55t162 24q23 0 23 -48q0 -33 -20 -33q-199 -19 -278 -63q-81 -46 -97 -182l10 -3q86 71 201 71q96 0 149 -58.5t53 -168.5q0 -123 -62.5 -191t-178.5 -68q-119 0 -181.5 82.5t-62.5 264.5q0 123 34 203.5zM190 128q42 -67 123 -67
q75 0 115 48t40 135q0 81 -37.5 123.5t-107.5 42.5q-95 0 -175 -57v-15q0 -143 42 -210z" />
    <glyph glyph-name="uni0432" unicode="&#x432;" 
d="M201 -1q-49 5 -78 14q-17 6 -22.5 12.5t-5.5 18.5v437q0 12 6 19t22 11q28 8 72.5 13t88.5 5q233 0 233 -135q0 -39 -19.5 -68.5t-60.5 -52.5v-10q56 -17 85.5 -46t29.5 -74q0 -73 -65 -111t-192 -38q-45 0 -94 5zM179 145q0 -39 -3 -75q42 -12 120 -12q85 0 129 23
t44 67q0 42 -43.5 64t-126.5 22q-31 0 -124 -5q4 -56 4 -84zM286 289q47 0 83 -3q64 42 64 99q0 80 -148 80q-63 0 -109 -11q3 -40 3 -79q0 -29 -4 -89q59 3 111 3z" />
    <glyph glyph-name="uni0433" unicode="&#x433;" 
d="M147.5 -2q-9.5 5 -9.5 15v478q0 17 7 24t24 7h343q19 0 19 -38t-19 -38q-143 0 -294 5q4 -238 4 -438q0 -10 -9.5 -15t-32.5 -5t-32.5 5z" />
    <glyph glyph-name="uni0434" unicode="&#x434;" 
d="M47.5 -152q-9.5 5 -9.5 15v180q0 17 7 24t24 7h18q47 39 68 107.5t21 195.5v114q0 17 7 24t24 7h287q18 0 25 -7t7 -24q0 -159 -2.5 -250.5t-9.5 -167.5q17 1 36 1q17 0 24.5 -7t7.5 -24v-180q0 -10 -10 -15t-33 -5q-41 0 -41 20q0 74 4 140q-96 -3 -192 -3q-95 0 -193 3
q5 -66 5 -140q0 -10 -9.5 -15t-32.5 -5t-32.5 5zM307 75q77 0 138 -4q-3 99 -3 186q0 89 3 194q-64 -4 -98 -4q-32 0 -98 4q2 -20 2 -57q0 -124 -20 -200.5t-62 -122.5q61 4 138 4z" />
    <glyph glyph-name="uni0435" unicode="&#x435;" 
d="M137.5 49.5q-56.5 61.5 -56.5 189.5q0 143 67 219t190 76q100 0 150.5 -50.5t50.5 -142.5q0 -42 -11.5 -65.5t-38.5 -27.5q-88 -11 -186 -11q-75 0 -138 7v-3q0 -98 36.5 -139t123.5 -41q43 0 83.5 9.5t86.5 29.5q15 7 26 -11t11 -38q0 -7 -3.5 -12t-13.5 -9
q-38 -19 -91 -30.5t-107 -11.5q-123 0 -179.5 61.5zM280 295q99 0 175 11q4 15 4 39q0 123 -128 123q-144 0 -163 -169q48 -4 112 -4z" />
    <glyph glyph-name="uni0436" unicode="&#x436;" 
d="M527 -0.5q-5 4.5 -11 17.5q-49 115 -122 215q-15 -1 -51 -1q6 -119 6 -218q0 -19 -39 -19q-21 0 -30 4.5t-9 14.5q0 103 7 218q-37 0 -52 1q-36 -49 -68 -105.5t-54 -109.5q-6 -14 -11 -18t-15 -4q-18 0 -36 6.5t-18 17.5q0 13 11 36q25 51 61.5 112.5t72.5 106.5
q-32 42 -66.5 97t-55.5 99q-12 23 -12 34q0 12 17 18t35 6q12 0 17.5 -4.5t10.5 -16.5q48 -107 111 -204q15 -2 52 -2q-7 110 -7 208q0 10 9 14.5t30 4.5t30 -4.5t9 -14.5q0 -95 -6 -208q36 0 51 2q64 100 111 204q5 12 10.5 16.5t17.5 4.5q18 0 35 -6t17 -18q0 -11 -12 -34
q-24 -47 -57 -101.5t-65 -94.5q37 -45 72.5 -105t61.5 -114q11 -23 11 -36q0 -11 -18 -17.5t-36 -6.5q-10 0 -15 4.5z" />
    <glyph glyph-name="uni0437" unicode="&#x437;" 
d="M117 16q-18 6 -25.5 11.5t-7.5 15.5q0 21 11.5 39.5t26.5 12.5q94 -34 172 -34q77 0 118.5 23t41.5 61q0 30 -26.5 51t-83.5 34l-31 -1q-58 -2 -99 -2q-23 0 -23 36q0 35 23 35q63 0 131 -10q48 26 68.5 50t20.5 51q0 33 -33 50.5t-98 17.5q-89 0 -156 -26
q-13 -4 -23.5 12t-10.5 34t11 23q36 14 85 22t97 8q100 0 154.5 -33t54.5 -93q0 -79 -105 -129v-10q126 -34 126 -127q0 -69 -64.5 -109t-176.5 -40q-100 0 -178 27z" />
    <glyph glyph-name="uni0438" unicode="&#x438;" 
d="M91 16v492q0 11 9.5 15.5t32.5 4.5q22 0 32 -4.5t10 -15.5q0 -92 -3.5 -222t-9.5 -203h10q96 168 241 414q10 19 22.5 25t40.5 6t40.5 -5.5t12.5 -17.5v-492q0 -10 -9.5 -15t-32.5 -5q-42 0 -42 20q0 87 4 218.5t9 207.5h-10q-36 -64 -147 -253l-94 -161
q-10 -19 -23 -25.5t-40 -6.5q-53 0 -53 23z" />
    <glyph glyph-name="uni0439" unicode="&#x439;" 
d="M91 16v492q0 11 9.5 15.5t32.5 4.5q22 0 32 -4.5t10 -15.5q0 -92 -3.5 -222t-9.5 -203h10q96 168 241 414q10 19 22.5 25t40.5 6t40.5 -5.5t12.5 -17.5v-492q0 -10 -9.5 -15t-32.5 -5q-42 0 -42 20q0 87 4 218.5t9 207.5h-10q-36 -64 -147 -253l-94 -161
q-10 -19 -23 -25.5t-40 -6.5q-53 0 -53 23zM195.5 631.5q-44.5 40.5 -61.5 114.5q-2 10 14 18t32 8t17 -8q12 -55 38 -83t75 -28t75 28t38 83q1 8 17 8t32 -8t14 -18q-17 -74 -61.5 -114.5t-114.5 -40.5t-114.5 40.5z" />
    <glyph glyph-name="uni043A" unicode="&#x43a;" 
d="M463.5 -2.5q-6.5 4.5 -13.5 16.5q-82 117 -203 217q-32 -5 -60 -8q7 -119 7 -210q0 -10 -9.5 -15t-32.5 -5q-42 0 -42 20v495q0 11 10 15.5t32 4.5q23 0 32.5 -4.5t9.5 -15.5q0 -91 -8 -208q40 4 61 8q96 87 182 201q9 12 15 16t14 4q22 0 43.5 -8t21.5 -19
q0 -4 -4 -10.5t-11 -16.5q-40 -49 -91.5 -104t-101.5 -98q60 -48 118 -109.5t97 -116.5q14 -19 14 -28q0 -10 -22 -18t-43 -8q-9 0 -15.5 4.5z" />
    <glyph glyph-name="uni043B" unicode="&#x43b;" 
d="M47 11.5q-18 19.5 -18 34.5q0 10 12 17q45 29 72.5 69t41.5 104t14 163v92q0 17 7 24t24 7h290q17 0 24.5 -7t7.5 -24v-478q0 -20 -43 -20q-22 0 -31.5 5t-9.5 15q0 288 4 436q-66 -4 -99 -4q-32 0 -98 4q1 -20 1 -53q0 -165 -35.5 -256.5t-113.5 -141.5q-10 -6 -17 -6
q-15 0 -33 19.5z" />
    <glyph glyph-name="uni043C" unicode="&#x43c;" 
d="M66.5 -2q-9.5 5 -9.5 16q0 115 7 246t19 240q3 17 16 23.5t45 6.5q30 0 43 -6.5t18 -24.5q62 -144 98 -270h14q36 126 98 270q5 18 18 24.5t43 6.5q32 0 45 -6.5t16 -23.5q12 -109 19 -240t7 -246q0 -11 -9.5 -16t-30.5 -5q-38 0 -38 20v69q0 220 -16 370h-12
q-56 -124 -99 -266q-4 -15 -14 -21.5t-34 -6.5t-34 6.5t-14 21.5q-43 142 -99 266h-12q-16 -150 -16 -370v-69q0 -20 -38 -20q-21 0 -30.5 5z" />
    <glyph glyph-name="uni043D" unicode="&#x43d;" 
d="M98 13v496q0 20 43 20q41 0 41 -20q0 -105 -4 -210q57 4 132 4t132 -4q-4 105 -4 210q0 20 41 20q43 0 43 -20v-496q0 -20 -43 -20q-41 0 -41 20q0 104 4 217q-64 -3 -132 -3q-67 0 -132 3q4 -113 4 -217q0 -20 -41 -20q-43 0 -43 20z" />
    <glyph glyph-name="uni043E" unicode="&#x43e;" 
d="M127.5 51.5q-58.5 63.5 -58.5 186.5q0 146 64 221t189 75q112 0 170.5 -63.5t58.5 -185.5q0 -147 -64 -222t-189 -75q-112 0 -170.5 63.5zM189 106q37 -45 113 -45q85 0 125.5 52.5t40.5 163.5q0 94 -36.5 139t-113.5 45q-85 0 -125.5 -52.5t-40.5 -163.5q0 -94 37 -139z
" />
    <glyph glyph-name="uni043F" unicode="&#x43f;" 
d="M98 13v478q0 17 7.5 24t24.5 7h360q17 0 24.5 -7t7.5 -24v-478q0 -20 -43 -20q-41 0 -41 20q0 200 4 437q-82 -4 -132 -4q-48 0 -132 4q4 -237 4 -437q0 -20 -41 -20q-43 0 -43 20z" />
    <glyph glyph-name="uni0440" unicode="&#x440;" 
d="M184 4q2 -74 2 -184q0 -10 -9.5 -15t-32.5 -5q-41 0 -41 20v30q2 78 2 194v284q0 61 -1 100t-1 60q-1 11 -1 23q0 11 9.5 16t31.5 5q23 0 32.5 -5t9.5 -16q0 -18 -3 -42l-1 -20h11q41 41 91 63t97 22q84 0 127.5 -63t43.5 -186q0 -150 -63.5 -223.5t-191.5 -73.5
q-67 0 -112 16zM293 61q91 0 133 51t42 163q0 90 -30 136t-87 46q-39 0 -83.5 -21.5t-81.5 -59.5q2 -92 2 -137q0 -80 -3 -161q40 -17 108 -17z" />
    <glyph glyph-name="uni0441" unicode="&#x441;" 
d="M153.5 47q-53.5 59 -53.5 194q0 143 63.5 218t184.5 75q53 0 94.5 -13.5t59.5 -35.5q12 -14 19 -46.5t7 -60.5q0 -13 -16 -19.5t-39 -6.5q-10 0 -15 3.5t-6 14.5l-11 64q-16 11 -42.5 18t-56.5 7q-78 0 -118.5 -54t-40.5 -160q0 -99 34.5 -139.5t107.5 -40.5q80 0 165 39
l8 2q13 0 22 -17.5t9 -34.5q0 -15 -17 -24q-39 -19 -91.5 -30.5t-105.5 -11.5q-108 0 -161.5 59z" />
    <glyph glyph-name="uni0442" unicode="&#x442;" 
d="M546.5 513.5q4.5 -8.5 4.5 -29.5t-4.5 -29.5t-14.5 -8.5q-90 0 -185 5q5 -238 5 -438q0 -10 -9.5 -15t-32.5 -5t-32.5 5t-9.5 15q0 200 5 438q-95 -5 -185 -5q-10 0 -14.5 8.5t-4.5 29.5t4.5 29.5t14.5 8.5h444q10 0 14.5 -8.5z" />
    <glyph glyph-name="uni0443" unicode="&#x443;" 
d="M94 -184.5q-11 19.5 -11 38.5q0 8 4.5 13t18.5 11q52 22 104.5 59t95.5 85l-2 5q-5 -1 -14 -1t-17 7.5t-20 25.5q-50 85 -104.5 202t-82.5 201q-11 29 -11 41t20.5 21t40.5 9q12 0 18 -7.5t13 -28.5q27 -91 75 -201t102 -207h14q46 85 83 200t52 209q2 20 10 27.5t27 7.5
q24 0 38 -6.5t14 -18.5q0 -8 -5 -33q-19 -101 -61 -219t-94 -209q-100 -175 -246 -240q-26 -11 -36 -11q-15 0 -26 19.5z" />
    <glyph glyph-name="uni0444" unicode="&#x444;" 
d="M268 -180q0 78 6 170q-114 6 -172.5 69t-58.5 182q0 132 58 204.5t172 85.5q-5 99 -5 182q0 20 42 20t42 -20q0 -82 -5 -181q230 -12 230 -250q0 -265 -231 -291q6 -91 6 -171q0 -10 -9.5 -15t-32.5 -5q-42 0 -42 20zM159 109.5q38 -45.5 119 -50.5q-5 118 -4 202
q0 101 3 201q-81 -10 -118.5 -62t-37.5 -154q0 -91 38 -136.5zM461 122q38 52 38 154q0 91 -38 136.5t-119 50.5q5 -116 4 -200q0 -112 -4 -203q81 10 119 62z" />
    <glyph glyph-name="uni0445" unicode="&#x445;" 
d="M475 -2q-6 5 -13 18q-54 101 -145 208h-14q-91 -107 -145 -208q-7 -13 -13 -18t-15 -5q-21 0 -41.5 8t-20.5 18t12 29q30 52 77.5 114t95.5 111q-41 46 -82.5 101t-69.5 100q-13 22 -13 28q0 11 21 19.5t42 8.5q9 0 15 -4.5t12 -17.5q61 -106 124 -186h16q63 80 124 186
q6 13 12 17.5t15 4.5q21 0 42 -8.5t21 -19.5q0 -6 -13 -28q-28 -45 -69.5 -100t-82.5 -101q49 -50 96.5 -112t76.5 -113q12 -19 12 -29t-20.5 -18t-41.5 -8q-9 0 -15 5z" />
    <glyph glyph-name="uni0446" unicode="&#x446;" 
d="M513.5 -152q-9.5 5 -9.5 15q0 77 5 141q-129 -4 -377 -4q-18 0 -26 8.5t-8 25.5v474q0 11 10 15.5t32 4.5t32 -4.5t10 -15.5q0 -258 -5 -432q60 4 133 4q71 0 127 -4q-4 144 -4 432q0 11 9.5 15.5t32.5 4.5t32.5 -4.5t9.5 -15.5q0 -192 -2.5 -285t-8.5 -146q20 3 49 3
q17 0 25 -8.5t8 -26.5v-182q0 -10 -9.5 -15t-32.5 -5t-32.5 5z" />
    <glyph glyph-name="uni0447" unicode="&#x447;" 
d="M427 12q0 94 4 201q-72 -24 -150 -24q-103 0 -157 45t-54 131q0 64 5 144q1 10 10.5 15t31.5 5q23 0 32.5 -5t9.5 -15q-5 -75 -5 -135q0 -53 33.5 -80.5t109.5 -27.5q68 0 135 20q-5 119 -5 223q0 10 9.5 15t32.5 5q42 0 42 -20v-497q0 -18 -42 -18t-42 18z" />
    <glyph glyph-name="uni0448" unicode="&#x448;" 
d="M65 34v474q0 11 9 15.5t31 4.5q21 0 30 -4.5t9 -15.5q0 -290 -5 -437q47 2 139 4q-4 145 -4 433q0 11 8.5 15.5t27.5 4.5t28 -4.5t9 -15.5q0 -288 -5 -433q92 -2 139 -4q-5 147 -5 437q0 11 9 15.5t30 4.5q22 0 31 -4.5t9 -15.5v-474q0 -34 -35 -34h-420q-35 0 -35 34z
" />
    <glyph glyph-name="uni0449" unicode="&#x449;" 
d="M507 -137q0 77 5 141q-141 -4 -412 -4q-35 0 -35 34v474q0 11 9 15.5t31 4.5q21 0 30 -4.5t9 -15.5q0 -289 -5 -434q45 2 133 4q-5 144 -5 430q0 10 8.5 15t27.5 5t27 -4.5t8 -15.5q0 -286 -4 -430q86 -2 133 -4q-5 145 -5 434q0 11 9 15.5t30 4.5t30 -4.5t9 -15.5
q0 -207 -2.5 -296t-8.5 -137q12 3 28 3q18 0 26 -8.5t8 -26.5v-180q0 -20 -42 -20t-42 20z" />
    <glyph glyph-name="uni044A" unicode="&#x44a;" 
d="M266 -1q-34 5 -57 12q-16 5 -22 11.5t-6 20.5q0 269 4 408q-66 -5 -127 -5q-20 0 -20 38t20 38h176q17 0 24 -7t7 -24q0 -67 -5 -140q58 19 124 19q87 0 133 -45t46 -130q0 -201 -232 -201q-31 0 -65 5zM265 175q0 -58 -4 -103q33 -9 76 -9q71 0 106.5 31.5t35.5 97.5
q0 54 -27.5 81.5t-78.5 27.5q-52 0 -112 -17q4 -72 4 -109z" />
    <glyph glyph-name="uni044B" unicode="&#x44b;" 
d="M156 -1.5q-34 4.5 -55 11.5q-17 6 -22.5 12.5t-5.5 17.5v468q0 11 9 15.5t31 4.5q21 0 30 -4.5t9 -15.5q0 -69 -4 -146q30 8 79 8q93 0 139.5 -46.5t46.5 -137.5q0 -192 -195 -192q-28 0 -62 4.5zM151 177q0 -53 -3 -104q29 -10 71 -10q62 0 90.5 28.5t28.5 90.5
q0 61 -29 90.5t-90 29.5q-37 0 -72 -8q4 -76 4 -117zM476 523.5q9 4.5 31 4.5q21 0 30 -4.5t9 -15.5v-495q0 -20 -38 -20t-38 20l-3 495q0 11 9 15.5z" />
    <glyph glyph-name="uni044C" unicode="&#x44c;" 
d="M203 -1q-45 5 -72 12q-18 5 -24 12t-6 18v467q0 11 10 15.5t32 4.5q23 0 32.5 -4.5t9.5 -15.5q0 -77 -5 -159q67 21 147 21q107 0 164.5 -45t57.5 -131q0 -99 -67 -149.5t-196 -50.5q-38 0 -83 5zM185 172q0 -49 -3 -99q43 -10 107 -10q175 0 175 129q0 55 -37.5 82
t-109.5 27q-58 0 -136 -19q4 -72 4 -110z" />
    <glyph glyph-name="uni044D" unicode="&#x44d;" 
d="M462 475q54 -59 54 -194q0 -142 -63.5 -217t-184.5 -75q-90 0 -158 35q-10 5 -13.5 10t-3.5 12q0 20 11.5 38t26.5 12q72 -35 138 -35q73 0 113.5 44.5t48.5 130.5q-123 -4 -234 -4q-10 0 -14.5 7.5t-4.5 25.5q0 32 19 32q112 0 236 -4q-3 92 -37.5 130t-103.5 38
q-38 0 -72.5 -8t-72.5 -26q-6 -2 -9 -2q-13 0 -22 16t-9 32q0 8 4 13.5t14 10.5q35 16 81 26.5t93 10.5q109 0 163 -59z" />
    <glyph glyph-name="uni044E" unicode="&#x44e;" 
d="M67 13v497q0 20 40 20q21 0 30 -5t9 -15q0 -102 -6 -210h72q9 118 55.5 175.5t130.5 57.5q82 0 124 -63.5t42 -188.5q0 -293 -187 -293q-164 0 -167 245h-70q6 -112 6 -220q0 -10 -9 -15t-30 -5q-40 0 -40 20zM303.5 102.5q23.5 -45.5 73.5 -45.5q56 0 82.5 52.5
t26.5 165.5q0 98 -23.5 143.5t-73.5 45.5q-56 0 -82.5 -52.5t-26.5 -165.5q0 -98 23.5 -143.5z" />
    <glyph glyph-name="uni044F" unicode="&#x44f;" 
d="M437 13q0 80 5 166q-55 -5 -129 -5q-35 0 -54 1q-64 -81 -109 -153q-11 -19 -16 -24t-15 -5q-20 0 -43 10.5t-23 22.5q0 8 12 26q20 32 53 73t67 76q-99 57 -99 159q0 82 57 125.5t168 43.5q48 0 98.5 -5.5t82.5 -14.5q17 -4 23 -11t6 -18v-467q0 -10 -9.5 -15t-32.5 -5
q-42 0 -42 20zM243 244q25 -1 73 -1q68 0 125 4q-4 47 -4 104q0 47 3 95q-55 12 -130 12q-140 0 -140 -101q0 -67 73 -113z" />
    <glyph glyph-name="uni0451" unicode="&#x451;" 
d="M137.5 49.5q-56.5 61.5 -56.5 189.5q0 143 67 219t190 76q100 0 150.5 -50.5t50.5 -142.5q0 -42 -11.5 -65.5t-38.5 -27.5q-88 -11 -186 -11q-75 0 -138 7v-3q0 -98 36.5 -139t123.5 -41q43 0 83.5 9.5t86.5 29.5q15 7 26 -11t11 -38q0 -7 -3.5 -12t-13.5 -9
q-38 -19 -91 -30.5t-107 -11.5q-123 0 -179.5 61.5zM280 295q99 0 175 11q4 15 4 39q0 123 -128 123q-144 0 -163 -169q48 -4 112 -4zM145.5 645.5q-14.5 11.5 -14.5 38.5t14.5 38.5t49.5 11.5t49 -11.5t14 -38.5t-14 -38.5t-49 -11.5t-49.5 11.5zM376 722.5
q14 11.5 49 11.5t49.5 -11.5t14.5 -38.5t-14.5 -38.5t-49.5 -11.5t-49 11.5t-14 38.5t14 38.5z" />
    <glyph glyph-name="uni045E" unicode="&#x45e;" 
d="M94 -184.5q-11 19.5 -11 38.5q0 8 4.5 13t18.5 11q52 22 104.5 59t95.5 85l-2 5q-5 -1 -14 -1t-17 7.5t-20 25.5q-50 85 -104.5 202t-82.5 201q-11 29 -11 41t20.5 21t40.5 9q12 0 18 -7.5t13 -28.5q27 -91 75 -201t102 -207h14q46 85 83 200t52 209q2 20 10 27.5t27 7.5
q24 0 38 -6.5t14 -18.5q0 -8 -5 -33q-19 -101 -61 -219t-94 -209q-100 -175 -246 -240q-26 -11 -36 -11q-15 0 -26 19.5zM195.5 631.5q-44.5 40.5 -61.5 114.5q-2 10 14 18t32 8t17 -8q12 -55 38 -83t75 -28t75 28t38 83q1 8 17 8t32 -8t14 -18q-17 -74 -61.5 -114.5
t-114.5 -40.5t-114.5 40.5z" />
    <glyph glyph-name="uni0490" unicode="&#x490;" 
d="M130 13v406q0 98 4 135t14 56v12l-37 -2q-10 0 -14.5 9t-4.5 30q0 20 4.5 29t14.5 9q227 0 346 -4q-4 60 -4 120q0 20 43 20q44 0 44 -20v-161q0 -18 -8 -26.5t-26 -8.5q-140 0 -294 5q4 -206 4 -609q0 -20 -43 -20t-43 20z" />
    <glyph glyph-name="Wgrave" unicode="&#x1e80;" 
d="M147.5 2q-10.5 8 -17.5 35q-33 127 -59 294t-38 314l-2 41q0 19 41 19q22 0 32 -5t11 -18q12 -293 74 -610h12q45 125 75 285q-7 107 -7 132q0 23 41 23t41 -23q0 -25 -7 -132q30 -160 75 -285h12q62 317 74 610q1 13 11 18t32 5q41 0 41 -19l-2 -41q-11 -144 -37 -311.5
t-60 -296.5q-7 -27 -17.5 -35t-37.5 -8q-28 0 -39 7t-17 28q-44 136 -64 271h-10q-20 -135 -64 -271q-6 -21 -17 -28t-39 -7q-27 0 -37.5 8zM149 924q0 14 21 29t39 15q10 0 15 -5l160 -150q6 -6 9 -9.5t3 -7.5q0 -9 -15.5 -21t-28.5 -12q-5 0 -10 3l-179 140q-14 9 -14 18z
" />
    <glyph glyph-name="wgrave" unicode="&#x1e81;" 
d="M147.5 2q-10.5 8 -17.5 35q-27 91 -48 210t-30 224l-2 39q0 19 40 19q21 0 30.5 -5t9.5 -18q10 -210 59 -436h12q45 92 75 212q-5 56 -5 98q0 25 39 25t39 -25q0 -42 -5 -98q30 -120 75 -212h12q49 226 59 436q0 13 9.5 18t30.5 5q40 0 40 -19l-2 -39q-9 -105 -30 -224
t-48 -210q-7 -27 -17.5 -35t-37.5 -8q-28 0 -38.5 7t-18.5 28q-42 101 -63 199h-10q-21 -98 -63 -199q-8 -21 -18.5 -28t-38.5 -7q-27 0 -37.5 8zM154 749q0 14 19 29t35 15q10 0 14 -5l145 -150q6 -6 8.5 -9.5t2.5 -7.5q0 -9 -14 -21t-26 -12q-6 0 -9 3l-163 140
q-12 9 -12 18z" />
    <glyph glyph-name="Wacute" unicode="&#x1e82;" 
d="M147.5 2q-10.5 8 -17.5 35q-33 127 -59 294t-38 314l-2 41q0 19 41 19q22 0 32 -5t11 -18q12 -293 74 -610h12q45 125 75 285q-7 107 -7 132q0 23 41 23t41 -23q0 -25 -7 -132q30 -160 75 -285h12q62 317 74 610q1 13 11 18t32 5q41 0 41 -19l-2 -41q-11 -144 -37 -311.5
t-60 -296.5q-7 -27 -17.5 -35t-37.5 -8q-28 0 -39 7t-17 28q-44 136 -64 271h-10q-20 -135 -64 -271q-6 -21 -17 -28t-39 -7q-27 0 -37.5 8zM231 763q-13 0 -28.5 12t-15.5 21q0 4 3 7.5t9 9.5l159 150q5 5 15 5q18 0 39 -15t21 -29q0 -9 -13 -18l-179 -140q-4 -3 -10 -3z
" />
    <glyph glyph-name="wacute" unicode="&#x1e83;" 
d="M147.5 2q-10.5 8 -17.5 35q-27 91 -48 210t-30 224l-2 39q0 19 40 19q21 0 30.5 -5t9.5 -18q10 -210 59 -436h12q45 92 75 212q-5 56 -5 98q0 25 39 25t39 -25q0 -42 -5 -98q30 -120 75 -212h12q49 226 59 436q0 13 9.5 18t30.5 5q40 0 40 -19l-2 -39q-9 -105 -30 -224
t-48 -210q-7 -27 -17.5 -35t-37.5 -8q-28 0 -38.5 7t-18.5 28q-42 101 -63 199h-10q-21 -98 -63 -199q-8 -21 -18.5 -28t-38.5 -7q-27 0 -37.5 8zM262 588q-12 0 -26 12t-14 21q0 4 2.5 7.5t8.5 9.5l145 150q4 5 14 5q16 0 35 -15t19 -29q0 -9 -12 -18l-163 -140
q-3 -3 -9 -3z" />
    <glyph glyph-name="Wdieresis" unicode="&#x1e84;" 
d="M147.5 2q-10.5 8 -17.5 35q-33 127 -59 294t-38 314l-2 41q0 19 41 19q22 0 32 -5t11 -18q12 -293 74 -610h12q45 125 75 285q-7 107 -7 132q0 23 41 23t41 -23q0 -25 -7 -132q30 -160 75 -285h12q62 317 74 610q1 13 11 18t32 5q41 0 41 -19l-2 -41q-11 -144 -37 -311.5
t-60 -296.5q-7 -27 -17.5 -35t-37.5 -8q-28 0 -39 7t-17 28q-44 136 -64 271h-10q-20 -135 -64 -271q-6 -21 -17 -28t-39 -7q-27 0 -37.5 8zM129 800.5q-16 11.5 -16 38.5t16 38.5t55 11.5q38 0 53.5 -11.5t15.5 -38.5t-15.5 -38.5t-53.5 -11.5q-39 0 -55 11.5zM383 877.5
q16 11.5 54 11.5t54 -11.5t16 -38.5t-16 -38.5t-54 -11.5t-54 11.5t-16 38.5t16 38.5z" />
    <glyph glyph-name="wdieresis" unicode="&#x1e85;" 
d="M147.5 2q-10.5 8 -17.5 35q-27 91 -48 210t-30 224l-2 39q0 19 40 19q21 0 30.5 -5t9.5 -18q10 -210 59 -436h12q45 92 75 212q-5 56 -5 98q0 25 39 25t39 -25q0 -42 -5 -98q30 -120 75 -212h12q49 226 59 436q0 13 9.5 18t30.5 5q40 0 40 -19l-2 -39q-9 -105 -30 -224
t-48 -210q-7 -27 -17.5 -35t-37.5 -8q-28 0 -38.5 7t-18.5 28q-42 101 -63 199h-10q-21 -98 -63 -199q-8 -21 -18.5 -28t-38.5 -7q-27 0 -37.5 8zM145.5 645.5q-14.5 11.5 -14.5 38.5t14.5 38.5t49.5 11.5t49 -11.5t14 -38.5t-14 -38.5t-49 -11.5t-49.5 11.5zM376 722.5
q14 11.5 49 11.5t49.5 -11.5t14.5 -38.5t-14.5 -38.5t-49.5 -11.5t-49 11.5t-14 38.5t14 38.5z" />
    <glyph glyph-name="ygrave" unicode="&#x1ef3;" 
d="M94 -184.5q-11 19.5 -11 38.5q0 8 4.5 13t18.5 11q52 22 104.5 59t95.5 85l-2 5q-5 -1 -14 -1t-17 7.5t-20 25.5q-50 85 -104.5 202t-82.5 201q-11 29 -11 41t20.5 21t40.5 9q12 0 18 -7.5t13 -28.5q27 -91 75 -201t102 -207h14q46 85 83 200t52 209q2 20 10 27.5t27 7.5
q24 0 38 -6.5t14 -18.5q0 -8 -5 -33q-19 -101 -61 -219t-94 -209q-100 -175 -246 -240q-26 -11 -36 -11q-15 0 -26 19.5zM154 749q0 14 19 29t35 15q10 0 14 -5l145 -150q6 -6 8.5 -9.5t2.5 -7.5q0 -9 -14 -21t-26 -12q-6 0 -9 3l-163 140q-12 9 -12 18z" />
    <glyph glyph-name="endash" unicode="&#x2013;" 
d="M59.5 301q-4.5 8 -4.5 28t4.5 28t15.5 8h470q11 0 15.5 -8t4.5 -28t-4.5 -28t-15.5 -8h-470q-11 0 -15.5 8z" />
    <glyph glyph-name="glyph31" 
d="M90 34q-21 18 -21 34q0 17 12.5 34t25.5 17q6 0 10 -3q26 -26 54 -37t66 -11q68 0 102.5 33t43.5 117q6 52 6 172q0 87 -7 232q-119 -5 -214 -5q-10 0 -14 9t-4 32q0 22 4 30.5t14 8.5h263q35 0 36 -34q8 -163 8 -288q0 -110 -9 -187q-14 -104 -70.5 -152t-159.5 -48
q-97 0 -146 46zM231 763q-13 0 -28.5 12t-15.5 21q0 4 3 7.5t9 9.5l159 150q5 5 15 5q18 0 39 -15t21 -29q0 -9 -13 -18l-179 -140q-4 -3 -10 -3z" />
    <glyph glyph-name="Scedilla.locl" 
d="M116 19q-17 5 -25 13.5t-8 21.5q0 20 12.5 37t27.5 11q85 -40 173 -40q79 0 118 32t39 92q0 33 -14.5 54t-45.5 34.5t-87 26.5q-68 15 -113 35.5t-73 62.5t-28 112q0 100 58 150t169 50q56 0 107 -13t67 -29q10 -10 17.5 -45.5t7.5 -64.5t-59 -29q-10 0 -14 4t-5 14
q-4 41 -10 66q-47 22 -114 22q-71 0 -106 -31.5t-35 -89.5q0 -42 18 -66.5t49 -38t82 -24.5q113 -26 162.5 -69.5t49.5 -127.5q0 -99 -63 -151t-179 -52q-97 0 -178 33zM208 -212.5q-10 11.5 -10 23.5q0 8 7 14l107 93q23 19 37 19q19 0 33 -18.5t14 -33.5q0 -7 -5.5 -12.5
t-23.5 -15.5l-111 -72q-15 -9 -28 -9q-10 0 -20 11.5z" />
    <glyph glyph-name="i.locl" 
d="M116 38q0 38 20 38q74 0 147 -4q-4 126 -4 187t4 187q-67 -4 -129 -4q-10 0 -14.5 8.5t-4.5 29.5q0 20 4.5 29t14.5 9h178q17 0 23.5 -6.5t6.5 -24.5q0 -275 -4 -415q78 4 147 4q10 0 14.5 -8.5t4.5 -29.5q0 -20 -4.5 -29t-14.5 -9h-369q-20 0 -20 38zM249 665
q-18 14 -18 46t18 45.5t61 13.5t61 -13.5t18 -45.5t-18 -46t-61 -14t-61 14z" />
    <glyph glyph-name="glyph107" 
d="M103.5 -189q-6.5 15 -6.5 36q0 14 4 19.5t15 6.5q78 9 124.5 28.5t70.5 55.5t31 96q9 93 9 209q0 80 -4 184q-125 -4 -233 -4q-19 0 -19 38t19 38h280q18 0 25 -7t8 -24q8 -101 8 -224q0 -115 -10 -222q-8 -81 -43 -131t-97.5 -76t-160.5 -37q-14 -1 -20.5 14z" />
    <glyph glyph-name="glyph108" 
d="M103.5 -189q-6.5 15 -6.5 36q0 14 4 19.5t15 6.5q78 9 124.5 28.5t70.5 55.5t31 96q9 93 9 209q0 80 -4 184q-125 -4 -233 -4q-19 0 -19 38t19 38h280q18 0 25 -7t8 -24q8 -101 8 -224q0 -115 -10 -222q-8 -81 -43 -131t-97.5 -76t-160.5 -37q-14 -1 -20.5 14zM301 588
q-12 0 -26 12t-14 21q0 4 2.5 7.5t8.5 9.5l145 150q4 5 14 5q16 0 35 -15t19 -29q0 -9 -12 -18l-163 -140q-3 -3 -9 -3z" />
    <glyph glyph-name="glyph110" 
d="M463.5 -2.5q-6.5 4.5 -13.5 16.5q-82 117 -203 217q-32 -5 -60 -8q7 -119 7 -210q0 -10 -9.5 -15t-32.5 -5q-42 0 -42 20v495q0 11 10 15.5t32 4.5q23 0 32.5 -4.5t9.5 -15.5q0 -91 -8 -208q40 4 61 8q96 87 182 201q9 12 15 16t14 4q22 0 43.5 -8t21.5 -19
q0 -4 -4 -10.5t-11 -16.5q-40 -49 -91.5 -104t-101.5 -98q60 -48 118 -109.5t97 -116.5q14 -19 14 -28q0 -10 -22 -18t-43 -8q-9 0 -15.5 4.5z" />
    <glyph glyph-name="scedilla.locl" 
d="M205.5 -1q-50.5 11 -88.5 29q-16 7 -16 21q0 20 10.5 37t25.5 11q87 -39 176 -39q130 0 130 84q0 37 -28.5 55t-104.5 30q-68 10 -109.5 24t-66 43.5t-24.5 82.5q0 79 55 118.5t156 39.5q98 0 172 -37q16 -7 16 -22q0 -19 -11.5 -36.5t-26.5 -11.5q-76 37 -155 37
q-126 0 -126 -84q0 -38 30 -53.5t104 -26.5q107 -17 153 -52t46 -104q0 -78 -55 -117.5t-159 -39.5q-53 0 -103.5 11zM208 -212.5q-10 11.5 -10 23.5q0 8 7 14l107 93q23 19 37 19q19 0 33 -18.5t14 -33.5q0 -7 -5.5 -12.5t-23.5 -15.5l-111 -72q-15 -9 -28 -9
q-10 0 -20 11.5z" />
    <glyph glyph-name="glyph240" 
d="M228.5 448q-23.5 20 -23.5 66q0 45 24 65.5t81 20.5t81 -20.5t24 -65.5q0 -46 -23.5 -66t-81.5 -20t-81.5 20zM228.5 77q-23.5 20 -23.5 66q0 45 24 65.5t81 20.5t81 -20.5t24 -65.5q0 -46 -23.5 -66t-81.5 -20t-81.5 20z" />
    <glyph glyph-name="glyph241" 
d="M798.5 448q-23.5 20 -23.5 66q0 45 24 65.5t81 20.5t81 -20.5t24 -65.5q0 -46 -23.5 -66t-81.5 -20t-81.5 20zM798.5 77q-23.5 20 -23.5 66q0 45 24 65.5t81 20.5t81 -20.5t24 -65.5q0 -46 -23.5 -66t-81.5 -20t-81.5 20zM278.5 448q-23.5 20 -23.5 66q0 45 24 65.5
t81 20.5t81 -20.5t24 -65.5q0 -46 -23.5 -66t-81.5 -20t-81.5 20zM278.5 77q-23.5 20 -23.5 66q0 45 24 65.5t81 20.5t81 -20.5t24 -65.5q0 -46 -23.5 -66t-81.5 -20t-81.5 20z" />
    <glyph glyph-name="glyph244" 
d="M526 329q0 -46 -20 -46h-337q-68 0 -104.5 7t-54.5 23h-20v32h20q18 16 54.5 23t104.5 7h337q20 0 20 -46z" />
    <glyph glyph-name="glyph245" 
d="M94 329q0 46 20 46h337q68 0 104.5 -7t54.5 -23h20v-32h-20q-18 -16 -54.5 -23t-104.5 -7h-337q-20 0 -20 46z" />
    <glyph glyph-name="glyph246" 
d="M64.5 290q-36.5 7 -54.5 23h-20v32h20q18 16 54.5 23t104.5 7h282q68 0 104.5 -7t54.5 -23h20v-32h-20q-18 -16 -54.5 -23t-104.5 -7h-282q-68 0 -104.5 7z" />
    <glyph glyph-name="glyph248" 
d="M439 80q-80 -92 -202 -92q-93 0 -147 51.5t-54 140.5q0 124 112 197q-34 80 -34 154q0 84 52 130t143 46q53 0 97 -12.5t58 -30.5q11 -13 19.5 -62.5t8.5 -83.5q0 -13 -16.5 -21t-41.5 -8q-16 0 -19 19q-5 55 -15 109q-38 18 -91 18q-59 0 -88 -25.5t-29 -87.5
q0 -56 21 -137q73 -72 175 -163.5t199 -170.5q4 -4 4 -11q0 -16 -14.5 -34.5t-28.5 -18.5q-7 0 -11 4q-55 43 -98 89zM146 96q33 -32 97 -32q87 0 145 61q-63 53 -116 106t-86 94q-38 -29 -55.5 -62t-17.5 -75q0 -60 33 -92z" />
    <glyph glyph-name="glyph250" 
d="M195.5 631.5q-44.5 40.5 -61.5 114.5q-2 10 14 18t32 8t17 -8q12 -55 38 -83t75 -28t75 28t38 83q1 8 17 8t32 -8t14 -18q-17 -74 -61.5 -114.5t-114.5 -40.5t-114.5 40.5z" />
    <glyph glyph-name="glyph251" 
d="M145.5 645.5q-14.5 11.5 -14.5 38.5t14.5 38.5t49.5 11.5t49 -11.5t14 -38.5t-14 -38.5t-49 -11.5t-49.5 11.5zM376 722.5q14 11.5 49 11.5t49.5 -11.5t14.5 -38.5t-14.5 -38.5t-49.5 -11.5t-49 11.5t-14 38.5t14 38.5z" />
    <glyph glyph-name="glyph252" 
d="M178 749q0 14 19 29t35 15q10 0 14 -5l145 -150q6 -6 8.5 -9.5t2.5 -7.5q0 -9 -14 -21t-26 -12q-6 0 -9 3l-163 140q-12 9 -12 18z" />
    <glyph glyph-name="glyph253" 
d="M238 588q-12 0 -26 12t-14 21q0 4 2.5 7.5t8.5 9.5l145 150q4 5 14 5q16 0 35 -15t19 -29q0 -9 -12 -18l-163 -140q-3 -3 -9 -3z" />
    <glyph glyph-name="glyph254" 
d="M486 619q0 -10 -12.5 -20t-25.5 -10q-7 0 -11 4l-127 131l-127 -131q-4 -4 -11 -4q-13 0 -25.5 10t-12.5 20q0 3 2.5 6.5t7.5 8.5l123 144q13 16 43 16t43 -16l123 -144q10 -10 10 -15z" />
    <glyph glyph-name="glyph255" 
d="M134 762q0 10 12.5 20t25.5 10q7 0 11 -4l127 -131l127 131q4 4 11 4q13 0 25.5 -10t12.5 -20q0 -3 -2.5 -6.5t-7.5 -8.5l-123 -144q-7 -7 -18.5 -11.5t-24.5 -4.5t-24.5 4.5t-18.5 11.5l-123 144q-10 10 -10 15z" />
    <glyph glyph-name="glyph256" 
d="M198 631q-45 40 -64 110q-4 11 12 20.5t32 9.5q12 0 15 -7q15 -52 43 -79t74 -27t74 27t43 79q3 7 15 7q16 0 32 -9.5t13 -20.5q-19 -70 -64.5 -110t-112.5 -40t-112 40z" />
    <glyph glyph-name="glyph257" 
d="M216.5 624q-37.5 37 -37.5 92t37.5 92t93.5 37t94 -37t38 -92t-38 -92t-94 -37t-93.5 37zM251.5 659q23.5 -23 58.5 -23t58.5 23t23.5 57t-23.5 57t-58.5 23t-58.5 -23t-23.5 -57t23.5 -57z" />
    <glyph glyph-name="glyph258" 
d="M343 629.5q-25 18.5 -55 52.5q-21 24 -36 36.5t-33 12.5q-24 0 -39 -28.5t-21 -80.5q-1 -7 -8.5 -10.5t-18.5 -3.5q-15 0 -26 5t-10 14q5 81 37 126.5t83 45.5q37 0 62 -18.5t55 -53.5q21 -25 35.5 -37t31.5 -12q49 0 62 109q1 7 9 11t19 4q14 0 25 -5.5t10 -14.5
q-5 -81 -37 -126t-84 -45q-36 0 -61 18.5z" />
    <glyph glyph-name="glyph259" 
d="M138.5 664.5q-4.5 10.5 -4.5 24.5q0 15 5 25.5t13 10.5h316q9 0 14 -10.5t5 -25.5t-5 -25t-14 -10h-316q-9 0 -13.5 10.5z" />
    <glyph glyph-name="glyph260" 
d="M221 -212.5q-10 11.5 -10 23.5q0 8 7 14l107 93q23 19 37 19q19 0 33 -18.5t14 -33.5q0 -7 -5.5 -12.5t-23.5 -15.5l-111 -72q-15 -9 -28 -9q-10 0 -20 11.5z" />
    <glyph glyph-name="glyph261" 
d="M129 800.5q-16 11.5 -16 38.5t16 38.5t55 11.5q38 0 53.5 -11.5t15.5 -38.5t-15.5 -38.5t-53.5 -11.5q-39 0 -55 11.5zM383 877.5q16 11.5 54 11.5t54 -11.5t16 -38.5t-16 -38.5t-54 -11.5t-54 11.5t-16 38.5t16 38.5z" />
    <glyph glyph-name="glyph262" 
d="M254 800.5q-17 11.5 -17 38.5t17 38.5t56 11.5q40 0 56.5 -11.5t16.5 -38.5t-16.5 -38.5t-56.5 -11.5q-39 0 -56 11.5z" />
    <glyph glyph-name="glyph263" 
d="M146 924q0 14 21 29t39 15q10 0 15 -5l160 -150q6 -6 9 -9.5t3 -7.5q0 -9 -15.5 -21t-28.5 -12q-5 0 -10 3l-179 140q-14 9 -14 18z" />
    <glyph glyph-name="glyph264" 
d="M229 763q-13 0 -28.5 12t-15.5 21q0 4 3 7.5t9 9.5l159 150q5 5 15 5q18 0 39 -15t21 -29q0 -9 -13 -18l-179 -140q-4 -3 -10 -3z" />
    <glyph glyph-name="glyph265" 
d="M505 793q0 -10 -14 -20t-28 -10q-8 0 -12 4l-140 131l-140 -131q-4 -4 -12 -4q-14 0 -28 10t-14 20q0 3 4.5 7.5t6.5 7.5l136 144q15 16 47 16t47 -16l136 -144q11 -11 11 -15z" />
    <glyph glyph-name="glyph266" 
d="M116 937q0 10 14 20t28 10q8 0 12 -4l140 -131l140 131q4 4 12 4q14 0 28 -10t14 -20q0 -3 -4.5 -7.5t-6.5 -7.5l-136 -144q-7 -7 -19.5 -11.5t-27.5 -4.5q-14 0 -27 4.5t-20 11.5l-136 144q-11 11 -11 15z" />
    <glyph glyph-name="glyph267" 
d="M186.5 806q-49.5 40 -70.5 110q-4 11 14 20.5t35 9.5q13 0 16 -7q16 -52 47 -79t82 -27t82 27t47 79q3 7 16 7q17 0 35 -9.5t15 -20.5q-22 -70 -71.5 -110t-123.5 -40t-123.5 40z" />
    <glyph glyph-name="glyph268" 
d="M237 779q-33 17 -52 46.5t-19 65.5t19 65.5t52 46.5t73 17t73 -17t52.5 -46.5t19.5 -65.5t-19.5 -65.5t-52.5 -46.5t-73 -17t-73 17zM245.5 833.5q25.5 -22.5 64.5 -22.5t64.5 22.5t25.5 57.5t-25.5 57.5t-64.5 22.5t-64.5 -22.5t-25.5 -57.5t25.5 -57.5z" />
    <glyph glyph-name="glyph269" 
d="M346 794.5q-28 18.5 -60 52.5q-24 25 -40.5 37t-35.5 12q-26 0 -42.5 -28.5t-23.5 -80.5q-1 -7 -9.5 -10.5t-20.5 -3.5q-15 0 -27.5 5.5t-11.5 13.5q5 81 40.5 126.5t91.5 45.5q40 0 67.5 -18.5t60.5 -53.5q23 -25 39 -37t35 -12q54 0 68 109q1 7 9.5 11t21.5 4
q16 0 28 -5.5t11 -14.5q-6 -81 -41.5 -126t-92.5 -45q-39 0 -67 18.5z" />
    <glyph glyph-name="glyph270" 
d="M122 819q-5 10 -5 25t5 25.5t14 10.5h348q10 0 15.5 -10.5t5.5 -25.5q0 -14 -5.5 -24.5t-15.5 -10.5h-348q-9 0 -14 10z" />
    <glyph glyph-name="glyph271" 
d="M249 665q-18 14 -18 46t18 45.5t61 13.5t61 -13.5t18 -45.5t-18 -46t-61 -14t-61 14z" />
    <glyph glyph-name="glyph272" 
 />
  </font>
</defs>
</svg>
