<?xml version="1.0" standalone="no"?>
<!DOCTYPE svg PUBLIC "-//W3C//DTD SVG 1.1//EN" "http://www.w3.org/Graphics/SVG/1.1/DTD/svg11.dtd" >
<svg xmlns="http://www.w3.org/2000/svg" xmlns:xlink="http://www.w3.org/1999/xlink" version="1.1">
<metadata>
Created by FontForge 20190801 at Wed Mar 24 01:32:08 2021
 By Unknown
</metadata>
<defs>
<font id="CodeliaLigatures" horiz-adv-x="620" >
  <font-face 
    font-family="Codelia Ligatures"
    font-weight="700"
    font-style="italic"
    font-stretch="normal"
    units-per-em="1000"
    panose-1="0 0 0 0 0 0 0 0 0 0"
    ascent="800"
    descent="-200"
    x-height="532"
    cap-height="697"
    bbox="-40.25 -225 1048 1019"
    underline-thickness="50"
    underline-position="-175"
    slope="-9"
    unicode-range="U+0020-2013"
  />
<missing-glyph 
 />
    <glyph glyph-name=".notdef" 
 />
    <glyph glyph-name=".null" horiz-adv-x="0" 
 />
    <glyph glyph-name="nonmarkingreturn" 
 />
    <glyph glyph-name="space" unicode=" " 
 />
    <glyph glyph-name="exclam" unicode="!" 
d="M187.5 4q-22.5 14 -22.5 46q0 6 2 22q8 44 35.5 63t89.5 19q54 0 76 -13.5t22 -45.5q0 -7 -2 -23q-8 -44 -35 -63t-89 -19q-54 0 -76.5 14zM298 700q2 19 22.5 27.5t67.5 8.5q48 0 65 -8.5t14 -27.5l-90 -387q-5 -19 -18.5 -27t-46.5 -8q-32 0 -43.5 8t-9.5 27z" />
    <glyph glyph-name="dollar" unicode="$" 
d="M214.5 -100.5q-10.5 4.5 -10.5 14.5q0 15 16 72q-80 6 -140 33q-18 8 -24.5 16t-6.5 20q0 21 9.5 44.5t23 36.5t24.5 7q59 -30 127 -36q9 97 31 190q-69 24 -106.5 66.5t-37.5 124.5q0 95 58.5 154t162.5 68q1 40 6 61q3 21 51 21q44 0 44 -18q0 -15 -15 -65
q63 -6 115 -29q19 -9 27 -17.5t8 -20.5q0 -15 -10 -39t-24 -38.5t-27 -8.5q-52 30 -100 37q-10 -94 -35 -195q78 -28 115.5 -72.5t37.5 -115.5q0 -93 -60.5 -152t-166.5 -71q-2 -30 -4.5 -48.5t-2.5 -21.5q-4 -22 -52 -22q-23 0 -33.5 4.5zM267 446.5q20 -18.5 60 -31.5
q9 93 31 180q-55 -4 -83 -29.5t-28 -67.5q0 -33 20 -51.5zM374.5 132q31.5 23 31.5 63q0 30 -19.5 48.5t-66.5 35.5q-9 -88 -30 -173q53 3 84.5 26z" />
    <glyph glyph-name="ampersand" unicode="&#x26;" 
d="M406 68q-85 -80 -189 -80q-94 0 -146.5 48t-52.5 133q0 67 37.5 121.5t104.5 90.5q-13 53 -13 103q0 104 61.5 163.5t165.5 59.5q62 0 109.5 -16t61.5 -39q9 -16 9 -70q0 -47 -6 -79q-2 -13 -22 -22t-49 -9q-26 0 -37 5.5t-11 19.5q3 74 4 95q-26 12 -63 12
q-59 0 -83.5 -36t-24.5 -120q0 -37 1 -57q75 -80 151 -170q14 30 22 45q6 13 14 28.5t17 35.5q7 16 38 16q27 0 51.5 -12t24.5 -29q0 -5 -3 -11q-39 -84 -92 -143q33 -24 75 -64q4 -4 4 -11q0 -14 -14 -34.5t-33.5 -35.5t-34.5 -15q-9 0 -15 6q-36 34 -62 71zM236 103
q59 0 103 37q-42 39 -78.5 84t-57.5 81q-68 -48 -68 -115q0 -87 101 -87z" />
    <glyph glyph-name="comma" unicode="," 
d="M126 -202q-25 0 -45.5 17.5t-20.5 39.5q0 10 5.5 17.5t15.5 17.5q56 51 126 101q-15 29 -23 62t-8 61q0 50 31 69t93 19q54 0 77.5 -13t23.5 -39q0 -35 -32.5 -93.5t-88 -124.5t-120.5 -122q-15 -12 -34 -12z" />
    <glyph glyph-name="hyphen" unicode="-" 
d="M94 292q0 33 11 70.5t32 37.5h391q19 0 19 -34q0 -33 -11 -70.5t-32 -37.5h-391q-19 0 -19 34z" />
    <glyph glyph-name="period" unicode="." 
d="M179.5 7q-25.5 17 -25.5 56q0 15 3 33q9 57 40.5 81.5t101.5 24.5q60 0 85.5 -17.5t25.5 -57.5q0 -14 -3 -31q-10 -57 -41.5 -81.5t-101.5 -24.5q-59 0 -84.5 17z" />
    <glyph glyph-name="zero" unicode="0" 
d="M120 58q-53 70 -53 220q0 102 28 200t94.5 164.5t175.5 66.5q110 0 163 -70t53 -220q0 -102 -27.5 -200t-94 -164.5t-175.5 -66.5q-111 0 -164 70zM187 251q117 127 266 263q-10 41 -33 59.5t-61 18.5q-60 0 -98.5 -49.5t-56 -123t-17.5 -147.5v-21zM227 125
q23 -20 63 -20q60 0 98.5 49.5t56 123t17.5 147.5l-1 28q-117 -129 -267 -264q10 -44 33 -64z" />
    <glyph glyph-name="one" unicode="1" 
d="M66 26q0 25 10 63.5t29 38.5q72 0 144 -7q23 210 69 415h-17q-77 -49 -154 -72q-23 -7 -37.5 25t-14.5 65q0 15 7 23t25 15q124 43 215 100q12 7 21 10t25 3q39 0 62 -10t21 -24q-56 -343 -99 -550q72 7 130 7q9 0 13 -5.5t4 -19.5q0 -26 -10 -64.5t-29 -38.5h-396
q-18 0 -18 26z" />
    <glyph glyph-name="two" unicode="2" 
d="M30 29q0 76 47 113q132 99 204 158t113.5 110.5t41.5 94.5q0 36 -23 55t-65 19q-36 0 -76.5 -12t-78.5 -33q-6 -3 -11 -3q-19 0 -32.5 27t-13.5 56q0 23 15 31q48 31 105 46.5t115 15.5q99 0 151 -48t52 -133q0 -103 -96 -198t-255 -192l-3 -15q96 7 284 7q18 0 18 -25
q0 -26 -10 -64.5t-30 -38.5h-434q-18 0 -18 29z" />
    <glyph glyph-name="three" unicode="3" 
d="M158.5 -6q-47.5 9 -82.5 25q-18 8 -25 16t-7 20q0 29 16.5 62.5t33.5 33.5q6 0 28 -10q31 -15 62.5 -24.5t73.5 -9.5q67 0 104.5 24.5t37.5 66.5q0 32 -20 55.5t-63 40.5q-58 -7 -110 -7q-25 0 -25 38q0 28 10.5 57.5t34.5 29.5q19 0 52.5 -3.5t61.5 -8.5q90 54 90 115
q0 34 -24 51t-74 17q-35 0 -70 -7t-60 -20q-6 -3 -12 -3q-19 0 -31 26.5t-12 51.5q0 29 24 39q37 16 86.5 26t95.5 10q101 0 155.5 -40t54.5 -113q0 -58 -34 -108t-95 -87l-2 -15q50 -22 74.5 -57t24.5 -87q0 -64 -35.5 -112.5t-98 -75t-141.5 -26.5q-51 0 -98.5 9z" />
    <glyph glyph-name="four" unicode="4" 
d="M320.5 -1.5q-13.5 6.5 -10.5 21.5q6 47 33 156q-98 -7 -289 -7q-23 0 -23 31q0 33 9.5 67t26.5 56q59 77 145.5 174.5t160.5 171.5q22 22 42.5 29.5t57.5 7.5q41 0 60 -7.5t16 -24.5q-44 -260 -72 -390q49 6 82 6q9 0 13.5 -6t4.5 -21q0 -28 -9 -61t-29 -33q-33 0 -80 6
q-6 -85 -19 -155q-2 -15 -17.5 -21.5t-51.5 -6.5q-37 0 -50.5 6.5zM264 288q54 0 95 -4q8 64 22.5 145t28.5 137h-15q-59 -59 -122 -132t-110 -136l-2 -15q44 5 103 5z" />
    <glyph glyph-name="five" unicode="5" 
d="M159 -5.5q-49 9.5 -83 26.5q-18 9 -25.5 17t-7.5 19q0 13 10 36.5t23.5 41.5t24.5 18q7 0 27 -10q37 -15 67.5 -24t73.5 -9q59 0 95.5 26t36.5 70q0 52 -53.5 80t-182.5 42q-23 3 -34 11t-11 25q0 13 8 37l87 254q14 42 42 42h312q18 0 18 -28t-10 -61t-29 -33
q-117 0 -230 7q-25 -89 -54 -161q146 -15 208 -64.5t62 -142.5q0 -61 -30 -113t-91.5 -84t-152.5 -32q-52 0 -101 9.5z" />
    <glyph glyph-name="six" unicode="6" 
d="M119.5 44q-60.5 59 -60.5 193q0 123 39.5 230.5t126.5 176t223 68.5q58 0 101 -9q16 -3 23 -11.5t7 -25.5q0 -32 -16 -63t-36 -26q-39 11 -86 11q-94 0 -154 -52.5t-92 -159.5l9 -3q73 61 163 61q92 0 141 -48t49 -141q0 -73 -30.5 -132.5t-89.5 -93.5t-140 -34
q-117 0 -177.5 59zM219 139q27 -34 82 -34t87.5 38t32.5 92q0 48 -27 73t-78 25q-57 0 -120 -33q-4 -32 -4 -56q0 -71 27 -105z" />
    <glyph glyph-name="seven" unicode="7" 
d="M157.5 -2.5q-15.5 5.5 -15.5 16.5q0 10 13 39q125 272 293 508l2 15q-69 -5 -149.5 -6t-156.5 -1q-9 0 -13.5 6t-4.5 20q0 27 10 64.5t29 37.5h433q18 0 18 -28q0 -27 -9 -58.5t-28 -59.5q-82 -118 -156 -255t-133 -275q-7 -17 -22.5 -23t-49.5 -6q-45 0 -60.5 5.5z" />
    <glyph glyph-name="eight" unicode="8" 
d="M101 30.5q-62 45.5 -62 128.5q0 58 34 105t96 77l4 16q-28 23 -44.5 59t-16.5 84q0 100 71 156t189 56q110 0 167 -42t57 -119q0 -57 -34 -106t-98 -75l-2 -14q45 -28 67 -66t22 -91q0 -101 -74 -157.5t-194 -56.5t-182 45.5zM204 124q30 -24 92 -24q60 0 92.5 25
t32.5 69q0 60 -47 103q-66 6 -114 13q-42 -27 -64 -58.5t-22 -61.5q0 -42 30 -66zM265 413q36 -7 110 -16q39 24 64 57t25 64q0 38 -26 59t-80 21q-58 0 -87.5 -26.5t-29.5 -69.5q0 -52 24 -89z" />
    <glyph glyph-name="nine" unicode="9" 
d="M139 -11q-23 0 -38 24t-15 55q0 34 30 43q191 60 277 150l-2 13q-36 -9 -85 -9q-103 0 -158 51t-55 149q0 69 31 125.5t89 89t135 32.5q113 0 178.5 -63t65.5 -181q0 -116 -57 -211.5t-156.5 -163t-229.5 -103.5q-4 -1 -10 -1zM377 360q37 0 66 4q15 50 15 92
q0 66 -28.5 101t-84.5 35q-54 0 -85.5 -35.5t-31.5 -84.5q0 -112 149 -112z" />
    <glyph glyph-name="colon" unicode=":" 
d="M237.5 350q-25.5 17 -25.5 56q0 15 3 33q9 57 40.5 81.5t101.5 24.5q60 0 85.5 -17.5t25.5 -57.5q0 -14 -3 -31q-10 -57 -41.5 -81.5t-101.5 -24.5q-59 0 -84.5 17zM179.5 4q-25.5 17 -25.5 56q0 15 3 33q9 57 40.5 81.5t101.5 24.5q60 0 85.5 -17.5t25.5 -57.5
q0 -14 -3 -31q-10 -57 -41.5 -81.5t-101.5 -24.5q-59 0 -84.5 17z" />
    <glyph glyph-name="semicolon" unicode=";" 
d="M126 -202q-25 0 -45.5 17.5t-20.5 39.5q0 10 5.5 17.5t15.5 17.5q56 51 126 101q-15 29 -23 62t-8 61q0 50 31 69t93 19q54 0 77.5 -13t23.5 -39q0 -35 -32.5 -93.5t-88 -124.5t-120.5 -122q-15 -12 -34 -12zM237.5 350q-25.5 17 -25.5 56q0 15 3 33q9 57 40.5 81.5
t101.5 24.5q60 0 85.5 -17.5t25.5 -57.5q0 -14 -3 -31q-10 -57 -41.5 -81.5t-101.5 -24.5q-59 0 -84.5 17z" />
    <glyph glyph-name="question" unicode="?" 
d="M195.5 272.5q-13.5 23.5 -13.5 53.5q0 23 21 30q89 31 136.5 52.5t68 40.5t20.5 41q0 48 -71.5 70t-176.5 28q-25 1 -25 55q0 27 12 57.5t38 30.5q69 0 151.5 -19t145 -68.5t62.5 -132.5q0 -59 -34.5 -103.5t-107.5 -81t-193 -71.5q-20 -6 -33.5 17.5zM149.5 135
q27.5 19 89.5 19q54 0 76 -13.5t22 -45.5q0 -7 -2 -23q-8 -45 -35 -63.5t-89 -18.5q-54 0 -76.5 14t-22.5 46q0 6 2 22q8 44 35.5 63z" />
    <glyph glyph-name="A" unicode="A" 
d="M13 -2.5q-16 5.5 -16 16.5q0 10 12 45q100 296 259 606q12 23 35.5 32t79.5 9q57 0 77.5 -9t24.5 -32q53 -292 58 -606q-1 -28 -3 -42q-2 -13 -18.5 -19t-53.5 -6q-34 0 -47 6t-13 23v62q0 58 2 85q-63 -5 -113 -5t-112 5q-24 -82 -47 -145q-7 -19 -22.5 -25t-50.5 -6
q-36 0 -52 5.5zM315 279q49 0 97 -3q-3 40 -11 111q-14 139 -22 208h-18q-41 -86 -85 -187q-13 -29 -27.5 -62t-31.5 -70q50 3 98 3z" />
    <glyph glyph-name="B" unicode="B" 
d="M152.5 0q-54.5 8 -85.5 22q-14 5 -20.5 12.5t-6.5 19.5q0 4 2 14l50 297q15 91 27.5 131.5t30.5 63.5l3 16q-21 -5 -36 -5q-11 0 -16 5t-5 19q0 4 4 32q5 30 13.5 41t29.5 17q37 10 90 15t107 5q238 0 238 -166q0 -117 -112 -178l-3 -15q91 -34 91 -138
q0 -106 -80.5 -161t-206.5 -55q-60 0 -114.5 8zM269 98q66 0 107.5 28t41.5 82q0 44 -29 67.5t-85 23.5q-46 0 -91 -6q-10 -98 -29 -181q30 -14 85 -14zM352 391q41 23 64 56t23 71q0 81 -108 81q-39 0 -67 -4q-9 -92 -36 -209q72 8 124 5z" />
    <glyph glyph-name="C" unicode="C" 
d="M125.5 53q-62.5 64 -62.5 207q0 105 35 208t112 171.5t196 68.5q72 0 124 -17.5t67 -43.5q10 -17 10 -83q0 -34 -4 -64q-4 -19 -25.5 -28.5t-54.5 -9.5q-28 0 -40 6t-11 21l3 79q-11 8 -34 12.5t-49 4.5q-69 0 -112 -51t-61 -121.5t-18 -134.5q0 -87 30 -124t91 -37
q70 0 157 38q6 3 12 3q20 0 32.5 -26t12.5 -54q0 -16 -5.5 -27t-18.5 -17q-41 -20 -96.5 -32.5t-106.5 -12.5q-121 0 -183.5 64z" />
    <glyph glyph-name="D" unicode="D" 
d="M137 -0.5q-48 7.5 -76 20.5q-14 6 -20 13.5t-6 19.5q0 9 1 14l48 286q15 91 27.5 131.5t30.5 63.5l4 16q-21 -5 -37 -5q-10 0 -15 6t-5 20q0 6 4 36q5 32 14 45t31 19q80 20 177 20q136 0 205 -74.5t69 -220.5q0 -108 -35.5 -202.5t-114 -155t-202.5 -60.5
q-52 0 -100 7.5zM247 121q80 0 126 46.5t62.5 110t16.5 123.5q0 89 -36.5 132t-112.5 43q-28 0 -51 -3q-24 -215 -73 -443q26 -9 68 -9z" />
    <glyph glyph-name="E" unicode="E" 
d="M74 11q-9 11 -6 32l53 323q15 90 28 130.5t32 64.5l2 16q-25 -3 -37 -3q-18 0 -18 30q0 28 10 60.5t28 32.5h424q18 0 18 -30q0 -29 -9.5 -61t-28.5 -32q-126 0 -280 7q-5 -75 -28 -172q142 6 242 6q10 0 14 -7t4 -22q0 -27 -9.5 -57.5t-27.5 -30.5q-100 0 -241 5
q-7 -90 -31 -187q157 7 287 7q17 0 17 -30q0 -29 -9.5 -61t-28.5 -32h-375q-21 0 -30 11z" />
    <glyph glyph-name="F" unicode="F" 
d="M90 -1.5q-14 6.5 -11 21.5l57 346q15 91 28 131.5t31 63.5l3 16q-25 -3 -37 -3q-19 0 -19 30q0 27 10 60t29 33h425q18 0 18 -31q0 -30 -10 -64t-30 -34q-131 0 -279 7q-11 -100 -34 -204q137 6 242 6q18 0 18 -30q0 -28 -10 -60.5t-28 -32.5q-105 0 -243 5
q-8 -83 -34 -239q-2 -15 -18.5 -21.5t-54.5 -6.5q-39 0 -53 6.5z" />
    <glyph glyph-name="G" unicode="G" 
d="M119 54q-64 65 -64 210q0 112 37 213.5t114.5 166t191.5 64.5q71 0 122 -15.5t69 -38.5q12 -18 12 -73q0 -26 -3 -46q-4 -19 -28 -28t-62 -9q-25 0 -34 4.5t-9 16.5q0 24 2 54q-12 8 -34.5 13t-48.5 5q-59 0 -102 -44.5t-65.5 -116.5t-22.5 -155q0 -93 30.5 -131
t91.5 -38q48 0 85 14q5 74 24 140q-51 -4 -92 -4q-17 0 -17 28q0 25 9 54.5t26 29.5h183q36 0 36 -32q0 -8 -1 -12l-38 -230q-5 -27 -16.5 -43.5t-35.5 -26.5q-87 -35 -176 -35q-120 0 -184 65z" />
    <glyph glyph-name="H" unicode="H" 
d="M37.5 -1.5q-14.5 6.5 -11.5 21.5l109 657q2 15 18.5 21.5t54.5 6.5t52.5 -6.5t12.5 -21.5q-28 -155 -51 -260q65 5 114 5q50 0 112 -5q13 117 32 237l4 23q2 15 18.5 21.5t54.5 6.5q39 0 53 -6.5t12 -21.5l-110 -657q-2 -15 -18 -21.5t-55 -6.5q-38 0 -52 6.5t-12 21.5
q21 131 54 279q-51 -4 -114 -4q-61 0 -112 4q-14 -119 -40 -279q-2 -15 -18 -21.5t-55 -6.5q-38 0 -52.5 6.5z" />
    <glyph glyph-name="I" unicode="I" 
d="M70 31q0 30 10 64t30 34q50 0 113 -7q28 212 75 453q-65 -7 -115 -7q-19 0 -19 31q0 29 10.5 63.5t29.5 34.5h356q18 0 18 -31q0 -30 -10 -64t-30 -34q-50 0 -112 7q-29 -219 -75 -453q64 7 114 7q19 0 19 -31q0 -30 -10 -64t-30 -34h-356q-18 0 -18 31z" />
    <glyph glyph-name="J" unicode="J" 
d="M104 2.5q-42 14.5 -68 40.5q-16 16 -16 32q0 14 10.5 35t26.5 36.5t30 15.5q9 0 15 -5q21 -21 45.5 -30.5t56.5 -9.5q56 0 90 27t53 93q15 56 31 154.5t26 183.5q-105 -7 -197 -7q-18 0 -18 31q0 30 10 64t30 34h283q21 0 30.5 -11.5t7.5 -31.5q-39 -339 -81 -469
q-32 -98 -97.5 -147.5t-171.5 -49.5q-54 0 -96 14.5z" />
    <glyph glyph-name="K" unicode="K" 
d="M409.5 -1.5q-6.5 6.5 -11.5 24.5q-19 68 -51 137.5t-73 131.5q-40 -4 -67 -5q-20 -154 -38 -267q-2 -15 -18 -21.5t-55 -6.5q-38 0 -52 6.5t-12 21.5l109 657q3 15 19 21.5t54 6.5q39 0 52.5 -6.5t11.5 -21.5q-19 -119 -50 -262q31 2 62 6q101 122 180 254
q10 17 18.5 23.5t23.5 6.5q35 0 69.5 -14.5t34.5 -32.5q0 -15 -19 -42q-37 -58 -98 -134t-118 -132q48 -60 89 -134t60 -134q8 -22 8 -37q0 -21 -38.5 -37t-69.5 -16q-14 0 -20.5 6.5z" />
    <glyph glyph-name="L" unicode="L" 
d="M53 43l106 634q2 15 18 21.5t54 6.5t52.5 -6.5t12.5 -21.5l-12 -71q-55 -324 -88 -484q71 4 203 7l23 77q6 17 13.5 22.5t25.5 5.5q35 0 61 -10.5t26 -29.5q0 -23 -26 -88t-45 -89q-15 -17 -34 -17h-355q-41 0 -35 43z" />
    <glyph glyph-name="M" unicode="M" 
d="M15 -0.5q-13 7.5 -11 21.5q26 155 61.5 334t69.5 311q5 22 27 31t69 9q42 0 58 -9t16 -32q9 -115 9 -238q0 -55 -1 -82h16q53 171 114 320q8 23 28 32t63 9q47 0 66.5 -9t17.5 -31q-11 -136 -34.5 -316t-48.5 -329q-2 -14 -17.5 -21.5t-49.5 -7.5t-47 6.5t-11 21.5
q53 269 94 553h-16q-63 -148 -117 -312q-5 -17 -20.5 -25t-46.5 -8q-30 0 -43 7.5t-13 23.5q0 123 -13 314h-16q-50 -253 -91 -553q-3 -15 -18 -21.5t-48 -6.5q-34 0 -47 7.5z" />
    <glyph glyph-name="N" unicode="N" 
d="M32 -1.5q-14 6.5 -12 21.5l109 650q3 19 24 27t68 8q45 0 60.5 -9.5t20.5 -38.5q77 -314 109 -514h15q6 98 26 261.5t38 272.5q3 28 73 28q39 0 53 -6.5t11 -21.5l-108 -650q-3 -19 -24.5 -27t-68.5 -8q-31 0 -46.5 4t-22.5 14t-11 30q-73 297 -109 514h-16
q-6 -97 -25.5 -259t-37.5 -275q-2 -15 -18.5 -21.5t-54.5 -6.5q-39 0 -53 6.5z" />
    <glyph glyph-name="O" unicode="O" 
d="M107 58q-57 70 -57 220q0 102 29.5 200t100 164.5t185.5 66.5q119 0 176 -70t57 -220q0 -102 -29.5 -200t-100 -164.5t-185.5 -66.5q-119 0 -176 70zM212 148.5q26 -37.5 84 -37.5t95.5 48.5t54.5 120t17 143.5q0 88 -26 125.5t-84 37.5t-95.5 -48.5t-54.5 -120
t-17 -143.5q0 -88 26 -125.5z" />
    <glyph glyph-name="P" unicode="P" 
d="M57 -1.5q-14 6.5 -12 21.5l55 333q15 90 28 130.5t31 64.5l3 16q-20 -5 -36 -5q-10 0 -15 6t-5 20q0 16 4 36q5 33 13.5 45.5t30.5 18.5q38 9 91.5 14.5t104.5 5.5q124 0 186 -56t62 -166q0 -76 -30 -142t-96.5 -107.5t-170.5 -41.5q-42 0 -94 10q-17 -143 -25 -182
q-2 -15 -18 -21.5t-55 -6.5q-38 0 -52 6.5zM307 309q83 0 118.5 48.5t35.5 120.5q0 57 -28.5 83.5t-89.5 26.5q-38 0 -70 -8q-11 -109 -44 -262q38 -9 78 -9z" />
    <glyph glyph-name="Q" unicode="Q" 
d="M116.5 63q-66.5 70 -66.5 215q0 102 29.5 200t100 164.5t185.5 66.5q119 0 176 -70t57 -220q0 -88 -31.5 -186.5t-98.5 -184.5q56 -43 99 -69q12 -7 16 -13t4 -14q0 -15 -14.5 -36.5t-34 -37.5t-33.5 -16q-8 0 -14 3t-17 11q-59 51 -101 123q-36 -6 -73 -6
q-117 0 -183.5 70zM221.5 146.5q35.5 -37.5 103.5 -37.5q21 0 51 4q41 68 64 157t23 153q0 88 -25.5 125.5t-81.5 37.5q-59 0 -97.5 -48.5t-55.5 -120t-17 -143.5q0 -90 35.5 -127.5z" />
    <glyph glyph-name="R" unicode="R" 
d="M54 -1.5q-14 6.5 -12 21.5l58 345q15 91 28 131.5t31 63.5l2 16q-20 -5 -36 -5q-11 0 -15.5 5.5t-4.5 19.5q0 12 3 31q5 29 13.5 40.5t30.5 17.5q37 10 88 15t104 5q121 0 183 -53t62 -154q0 -73 -39 -137t-115 -108q33 -42 59.5 -87t42.5 -84q10 -24 10 -37t-19 -25.5
t-45 -20t-43 -7.5q-16 0 -23 8t-16 33q-29 90 -83 180q-46 -3 -111 6q-14 -123 -28 -199q-2 -15 -18 -21.5t-55 -6.5q-38 0 -52 6.5zM313 333q34 0 51 2q89 69 89 159q0 94 -116 94q-35 0 -67 -6q-12 -110 -41 -243q42 -6 84 -6z" />
    <glyph glyph-name="S" unicode="S" 
d="M162.5 -6q-46.5 9 -82.5 25q-18 8 -24.5 16t-6.5 20q0 21 9.5 44.5t23 36.5t24.5 7q74 -38 164 -38q59 0 94.5 23t35.5 67q0 31 -22.5 49.5t-79.5 35.5q-56 17 -93.5 38t-61.5 60.5t-24 103.5q0 107 69 168.5t190 61.5q58 0 111 -13.5t65 -29.5q6 -7 9.5 -28t3.5 -46
q0 -26 -3 -44q-7 -37 -82 -37q-25 0 -34 4.5t-9 16.5l1 50q-30 11 -71 11q-58 0 -87 -26.5t-29 -71.5q0 -38 23.5 -56.5t71.5 -32.5q96 -29 141 -75t45 -124q0 -68 -33.5 -119t-95.5 -78.5t-146 -27.5q-50 0 -96.5 9z" />
    <glyph glyph-name="T" unicode="T" 
d="M212.5 -1.5q-14.5 6.5 -12.5 21.5l12 71q55 324 88 484q-103 -7 -183 -7q-19 0 -19 31q0 30 10 64t30 34h487q19 0 19 -31q0 -30 -10 -64t-30 -34q-64 0 -181 7q-27 -217 -85 -555q-2 -15 -18 -21.5t-55 -6.5q-38 0 -52.5 6.5z" />
    <glyph glyph-name="U" unicode="U" 
d="M62 196q0 76 24 212t54 269q4 15 19.5 21.5t53.5 6.5q35 0 49.5 -5.5t14.5 -19.5q0 -6 -1 -9q-25 -103 -52.5 -251t-28.5 -210q0 -51 21.5 -72t65.5 -21q47 0 77 26t47 90q19 67 40.5 200.5t32.5 237.5q2 19 18 26.5t55 7.5t52 -6.5t13 -21.5q-13 -126 -36.5 -272.5
t-50.5 -232.5q-57 -184 -256 -184q-212 0 -212 208z" />
    <glyph glyph-name="V" unicode="V" 
d="M188 1.5q-21 9.5 -25 32.5q-58 292 -58 576l1 55q0 24 15 32.5t59 8.5q34 0 46.5 -6t12.5 -25q-2 -72 -2 -111q0 -250 35 -448h17q62 122 119.5 269.5t100.5 289.5q6 19 22 25t52 6q68 0 68 -21q0 -7 -5 -23.5t-7 -22.5q-101 -310 -260 -605q-11 -23 -34 -32.5t-80 -9.5
q-56 0 -77 9.5z" />
    <glyph glyph-name="W" unicode="W" 
d="M93.5 -2.5q-12.5 4.5 -17.5 16t-6 36.5q-2 56 -2 95q0 130 9.5 289.5t21.5 243.5q2 14 18.5 21t51.5 7q34 0 47.5 -6.5t11.5 -22.5q-48 -299 -60 -557h16q54 109 92 227q6 81 15 144q5 32 61 32t51 -32q-7 -39 -33 -144q0 -117 17 -227h16q80 288 125 557q3 16 19 22.5
t51 6.5t48.5 -7t11.5 -21q-21 -110 -78.5 -310.5t-102.5 -317.5q-13 -36 -27.5 -46.5t-52.5 -10.5q-39 0 -51.5 9.5t-15.5 37.5q-9 83 -9 172q0 29 2 81h-15q-39 -137 -89 -253q-13 -28 -29.5 -37.5t-57.5 -9.5q-26 0 -38.5 4.5z" />
    <glyph glyph-name="X" unicode="X" 
d="M34.5 4q-32.5 16 -32.5 36q0 14 18 43q42 69 102 150.5t115 141.5q-31 57 -61.5 126.5t-47.5 121.5q-6 24 -6 33q0 22 34.5 37.5t65.5 15.5q14 0 20.5 -7.5t10.5 -28.5q33 -123 76 -221h21q82 118 137 221q11 21 20 28.5t22 7.5q35 0 67 -16t32 -37q0 -11 -19 -43
q-36 -56 -90.5 -130t-102.5 -129q36 -62 69 -139t53 -141q6 -27 6 -32q0 -24 -35.5 -39t-67.5 -15q-12 0 -19 7.5t-11 29.5q-29 129 -88 252h-20q-92 -122 -161 -252q-11 -22 -20 -29.5t-21 -7.5q-34 0 -66.5 16z" />
    <glyph glyph-name="Y" unicode="Y" 
d="M200 20q20 117 48 246q-91 174 -133 371q-3 17 -3 22q0 17 33 32t66 15q18 0 25.5 -8t9.5 -26q10 -67 28.5 -141t41.5 -139h15q88 127 164 280q8 18 18.5 26t28.5 8q38 0 67.5 -12t29.5 -29q0 -11 -10 -29q-112 -205 -256 -369q-18 -149 -35 -247q-4 -28 -73 -28t-65 28z
" />
    <glyph glyph-name="Z" unicode="Z" 
d="M12 34q0 11 3 26q5 35 15.5 57t35.5 51q188 220 363 392l3 15q-161 -7 -286 -7q-18 0 -18 31q0 30 10 64t30 34h421q25 0 25 -34q0 -12 -3 -27q-5 -34 -15.5 -56t-35.5 -51q-183 -214 -364 -392l-2 -15q175 7 327 7q19 0 19 -31q0 -30 -10 -64t-30 -34h-463q-25 0 -25 34
z" />
    <glyph glyph-name="a" unicode="a" 
d="M436 -6.5q-8 7.5 -14 31.5q-10 43 -20 98h-14q-57 -70 -108.5 -102.5t-102.5 -32.5q-132 0 -132 193q0 108 35.5 189.5t104.5 127.5t167 46q56 0 105 -14.5t84 -41.5q22 -16 22 -40q0 -7 -1 -11q-2 -14 -4 -21q-12 -71 -23.5 -125t-29.5 -109q12 -27 24.5 -58.5
t17.5 -44.5q10 -27 10 -40q0 -20 -32.5 -36.5t-63.5 -16.5q-17 0 -25 7.5zM234 114q29 0 69 30t84 88q10 35 19 83t17 95q-36 20 -86 20q-73 0 -113.5 -62.5t-40.5 -156.5q0 -97 51 -97z" />
    <glyph glyph-name="b" unicode="b" 
d="M158.5 2.5q-48.5 14.5 -84.5 41.5q-22 16 -22 40q0 7 1 11l64 384q13 77 30 201l3 26q3 15 19 21.5t53 6.5q38 0 51 -6.5t11 -21.5q-28 -180 -52 -289h16q52 66 97.5 96.5t93.5 30.5q64 0 97.5 -48t33.5 -145q0 -108 -35.5 -189.5t-105 -127.5t-167.5 -46
q-55 0 -103.5 14.5zM278 102q73 0 113 62.5t40 156.5q0 97 -50 97q-32 0 -75.5 -36.5t-92.5 -109.5q-9 -76 -25 -148q38 -22 90 -22z" />
    <glyph glyph-name="c" unicode="c" 
d="M119 36.5q-52 48.5 -52 158.5q0 89 32 168.5t101 130t174 50.5q58 0 103.5 -12.5t63.5 -33.5q11 -12 16 -49.5t5 -78.5q0 -20 -22.5 -30.5t-58.5 -10.5q-25 0 -37.5 6t-12.5 20l1 56q-24 13 -67 13q-59 0 -95.5 -33t-52.5 -81t-16 -96q0 -54 21 -77t64 -23q76 0 170 72
q8 6 16 6q15 0 29.5 -15t24 -35.5t9.5 -34.5q0 -8 -4.5 -15t-15.5 -15q-55 -41 -118.5 -65t-127.5 -24q-98 0 -150 48.5z" />
    <glyph glyph-name="d" unicode="d" 
d="M45 181q0 108 34 189.5t100 127.5t159 46q60 0 111 -18q7 55 18 118q3 22 5.5 37.5t3.5 24.5q3 15 19 21.5t53 6.5q38 0 51 -6.5t11 -21.5l-5 -27q-26 -136 -36 -199l-48 -291l30 -116q6 -28 6 -40q0 -19 -32.5 -33t-62.5 -14q-18 0 -26.5 7.5t-11.5 31.5q-8 59 -13 113
h-16q-60 -78 -112 -114t-106 -36q-132 0 -132 193zM234 114q32 0 75 37t93 111q10 81 25 148q-40 20 -90 20q-73 0 -113.5 -62.5t-40.5 -156.5q0 -97 51 -97z" />
    <glyph glyph-name="e" unicode="e" 
d="M114.5 39q-52.5 51 -52.5 157q0 99 38 178t108 124.5t162 45.5q63 0 108 -20t67.5 -53t22.5 -73q0 -49 -36.5 -82.5t-116 -60t-221.5 -55.5q3 -53 27 -75.5t74 -22.5q44 0 86.5 15t93.5 45q10 6 23 -5.5t22.5 -31.5t9.5 -37q0 -11 -4.5 -18.5t-18.5 -16.5
q-48 -30 -106 -47.5t-121 -17.5q-113 0 -165.5 51zM349 317.5q50 16.5 70 31.5t21 36q0 25 -22.5 41.5t-61.5 16.5q-63 0 -103.5 -47t-53.5 -120q100 25 150 41.5z" />
    <glyph glyph-name="f" unicode="f" 
d="M36 -187.5q-11 16.5 -11 51.5q0 27 7.5 41t25.5 16q49 9 76.5 24t41 39.5t19.5 66.5q9 52 21 188q2 18 5 58.5t7 68.5q-73 -6 -137 -6q-18 0 -18 30q0 28 10 61.5t29 33.5q56 0 117 -6q-1 95 26 150t98 82t202 27q28 0 28 -58q0 -30 -8 -45.5t-21 -15.5
q-89 -1 -132 -12.5t-59.5 -40.5t-17.5 -87q111 6 211 6q18 0 18 -30q0 -29 -10 -62t-29 -33q-91 0 -190 6q0 -86 -5 -177.5t-16 -159.5q-12 -75 -41 -121t-81.5 -71.5t-137.5 -37.5q-17 -3 -28 13.5z" />
    <glyph glyph-name="g" unicode="g" 
d="M44.5 -174q-56.5 31 -56.5 94q0 36 22.5 69.5t77.5 76.5q-37 47 -37 139q0 102 36 178.5t105.5 118.5t165.5 42q55 0 104 -14.5t85 -41.5q21 -15 21 -40q0 -4 -2 -18q-25 -158 -76 -275q28 -88 28 -150q0 -102 -76.5 -156t-225.5 -54q-115 0 -171.5 31zM136 -77
q30 -14 87 -14q82 0 121.5 29t39.5 89q0 39 -9 96q-100 -59 -219 -76q-27 -28 -38.5 -47.5t-11.5 -35.5q0 -27 30 -41zM200 161q88 5 184 52q24 77 45 196q-37 21 -86 21q-72 0 -112.5 -56.5t-40.5 -143.5q0 -42 10 -69z" />
    <glyph glyph-name="h" unicode="h" 
d="M378.5 -2q-14.5 6 -14.5 19q0 6 1 9q26 88 41.5 166.5t15.5 128.5q0 45 -12.5 65.5t-38.5 20.5q-35 0 -78 -36.5t-83 -104.5q-14 -118 -36 -246q-2 -15 -17.5 -21.5t-53.5 -6.5q-37 0 -51 6.5t-12 21.5l77 460q20 119 30 198l4 28q2 15 18 21.5t53 6.5q36 0 50.5 -7
t12.5 -21q-3 -18 -4 -22q-29 -168 -51 -268h13q51 66 102.5 97t97.5 31q116 0 116 -175q0 -130 -62 -349q-4 -15 -18.5 -21.5t-51.5 -6.5q-34 0 -48.5 6z" />
    <glyph glyph-name="i" unicode="i" 
d="M213.5 22q-33.5 34 -33.5 101q0 47 14 125t35 152q-72 -5 -127 -5q-10 0 -14 7.5t-4 23.5q0 28 10 61.5t29 33.5h220q18 0 26 -6.5t8 -20.5q0 -9 -1 -14q-54 -226 -54 -306q0 -32 8 -45.5t27 -13.5q49 0 117 59q5 4 12 4q17 0 34.5 -26.5t17.5 -48.5q0 -11 -5.5 -19
t-17.5 -18q-43 -36 -96.5 -57t-108.5 -21q-63 0 -96.5 34zM270 642q-21 13 -21 42q0 5 2 21q7 41 32.5 58.5t82.5 17.5q49 0 70 -13t21 -42q0 -7 -2 -21q-7 -41 -32.5 -58.5t-82.5 -17.5q-49 0 -70 13z" />
    <glyph glyph-name="j" unicode="j" 
d="M30.5 -183.5q-9.5 20.5 -9.5 53.5q0 28 7 40.5t24 14.5q76 9 122 26.5t73 49t43 86.5q19 70 34 153.5t23 160.5q-116 -6 -216 -6q-18 0 -18 29q0 13 3 34q6 34 14.5 48.5t21.5 14.5h304q19 0 27 -6.5t8 -22.5q0 -44 -24 -194t-52 -253q-32 -119 -118.5 -175t-235.5 -72
q-21 -2 -30.5 18.5zM341 642q-21 13 -21 42q0 5 2 21q7 41 32.5 58.5t82.5 17.5q49 0 70 -13t21 -42q0 -7 -2 -21q-7 -41 -32.5 -58.5t-82.5 -17.5q-49 0 -70 13z" />
    <glyph glyph-name="k" unicode="k" 
d="M347 49.5q-58 51.5 -103 105.5q-6 8 -6 17q0 24 22 51.5t41 27.5q6 0 13 -5l23 -22q52 32 74.5 66.5t22.5 72.5q0 26 -10.5 42t-29.5 16q-42 0 -93.5 -49t-99.5 -135q-16 -135 -30 -217q-2 -15 -18 -21.5t-54 -6.5q-37 0 -50.5 6.5t-11.5 21.5l77 460q15 96 28 194l5 32
q2 15 18 21.5t54 6.5q35 0 49.5 -7t12.5 -21q-27 -170 -58 -311h16q50 76 104 112.5t106 36.5q50 0 79 -41t29 -105q0 -72 -40 -126.5t-125 -95.5q70 -60 141 -106q9 -6 9 -22q0 -17 -9.5 -39.5t-24.5 -38.5t-29 -16q-6 0 -12 3q-62 41 -120 92.5z" />
    <glyph glyph-name="l" unicode="l" 
d="M221.5 18.5q-32.5 30.5 -32.5 89.5q0 76 25 225t55 273q-82 -6 -146 -6q-18 0 -18 29t9 62.5t30 33.5h238q19 0 26.5 -6t7.5 -20q0 -9 -1 -14q-36 -156 -61 -308t-25 -216q1 -25 8.5 -35.5t25.5 -10.5q48 0 117 59q5 4 12 4q17 0 34 -26.5t17 -48.5q0 -11 -5 -19t-17 -18
q-43 -36 -97 -57t-109 -21q-61 0 -93.5 30.5z" />
    <glyph glyph-name="m" unicode="m" 
d="M17 20l49 298q22 132 28 200q2 11 16.5 16t43.5 5q28 0 41 -4.5t13 -14.5t-9 -44l-6 -24h14q59 92 122 92q30 0 43.5 -21.5t13.5 -72.5h16q56 94 121 94q68 0 68 -99q0 -57 -24.5 -194t-48.5 -231q-3 -15 -17 -21.5t-44 -6.5t-43 7t-11 21q20 75 41.5 189.5t21.5 164.5
q0 24 -5 34t-15 10q-16 0 -35.5 -18t-40.5 -53q-12 -83 -28.5 -173t-32.5 -154q-3 -15 -14.5 -21.5t-34.5 -6.5q-47 0 -41 28q20 83 40.5 194.5t20.5 159.5q0 44 -21 44q-16 0 -36.5 -20.5t-43.5 -61.5q-29 -206 -47 -316q-4 -28 -62 -28q-59 0 -53 28z" />
    <glyph glyph-name="n" unicode="n" 
d="M378.5 -2q-14.5 6 -14.5 19q0 6 1 9q26 88 41.5 166.5t15.5 128.5q0 45 -12.5 65.5t-38.5 20.5q-35 0 -78 -36.5t-83 -104.5q-14 -118 -36 -246q-2 -15 -17.5 -21.5t-53.5 -6.5q-37 0 -51 6.5t-12 21.5l45 273q13 76 27 181l6 38q2 15 18 21t53 6q38 0 51.5 -6t11.5 -21
q-8 -44 -19 -96h10q51 66 102.5 97t97.5 31q116 0 116 -175q0 -130 -62 -349q-4 -15 -18.5 -21.5t-51.5 -6.5q-34 0 -48.5 6z" />
    <glyph glyph-name="o" unicode="o" 
d="M113 48.5q-58 60.5 -58 179.5q0 91 33.5 162.5t97 112.5t151.5 41q113 0 170.5 -60.5t57.5 -179.5q0 -91 -33.5 -162.5t-97 -112.5t-150.5 -41q-113 0 -171 60.5zM212 132.5q25 -30.5 78 -30.5q72 0 107.5 58t35.5 145q0 65 -25 95t-78 30q-71 0 -107 -58t-36 -145
q0 -64 25 -94.5z" />
    <glyph glyph-name="p" unicode="p" 
d="M165 6q-14 -113 -27 -179q-2 -15 -18 -21.5t-54 -6.5q-37 0 -50.5 6.5t-10.5 21.5l41 226l39 236q18 106 31 202l3 25q2 14 18 20.5t54 6.5q37 0 50.5 -6.5t11.5 -20.5q-3 -21 -9.5 -52t-11.5 -47h16q52 66 97 96.5t93 30.5q64 0 98 -48t34 -145q0 -108 -34 -189.5
t-100 -127.5t-159 -46q-59 0 -112 18zM278 102q73 0 113 62.5t40 156.5q0 97 -50 97q-32 0 -75 -37t-93 -110q-10 -80 -25 -149q39 -20 90 -20z" />
    <glyph glyph-name="q" unicode="q" 
d="M346.5 -194.5q-13.5 6.5 -11.5 21.5l4 24q24 142 47 252h-14q-51 -60 -97 -87.5t-93 -27.5q-65 0 -99 48t-34 145q0 107 35.5 189t105 128t167.5 46q55 0 104 -14.5t85 -41.5q22 -16 22 -40q0 -7 -1 -11l-64 -384q-20 -127 -29 -192l-5 -34q-2 -15 -17.5 -21.5
t-53.5 -6.5t-51.5 6.5zM239 114q31 0 74 37t93 110q8 61 25 147q-37 22 -89 22q-73 0 -113.5 -62.5t-40.5 -156.5q0 -97 51 -97z" />
    <glyph glyph-name="r" unicode="r" 
d="M81.5 -1q-13.5 6 -10.5 21l53 323q-20 120 -20 160q0 15 26.5 27t57.5 12q21 0 31 -4t11 -15q4 -25 9 -113h10q102 134 236 134q30 0 55 -7.5t35 -19.5q7 -10 12 -40.5t5 -65.5q0 -40 -6 -73q-3 -20 -24.5 -29t-54.5 -9q-30 0 -41 4.5t-12 15.5q0 41 3 92q-10 3 -23 3
q-108 0 -194 -137q-15 -132 -32 -233l-4 -25q-2 -15 -17.5 -21t-53.5 -6t-51.5 6z" />
    <glyph glyph-name="s" unicode="s" 
d="M88 21q-11 5 -14.5 11t-3.5 17q0 15 7 36.5t18.5 35t23.5 8.5q79 -34 162 -34q103 0 103 56q0 22 -18.5 34.5t-67.5 23.5q-61 14 -97.5 28.5t-60.5 45t-24 83.5q0 88 64 133.5t168 45.5q102 0 173 -31q10 -5 14 -11.5t4 -17.5q0 -25 -13.5 -52.5t-31.5 -27.5q-2 0 -8 2
q-74 33 -143 33q-47 0 -71.5 -14.5t-24.5 -42.5q0 -25 19.5 -35.5t66.5 -20.5q96 -21 139.5 -57.5t43.5 -104.5q0 -87 -65.5 -132t-173.5 -45q-111 0 -189 33z" />
    <glyph glyph-name="t" unicode="t" 
d="M154 135q0 44 11.5 119.5t31.5 158.5q-59 -6 -113 -6q-10 0 -14 7t-4 23q0 28 10 61.5t29 33.5q55 0 112 -6q6 63 25 142q4 14 19 20.5t52 6.5q34 0 48 -5.5t14 -19.5q0 -6 -1 -9q-15 -73 -34 -135q103 6 219 6q18 0 18 -30q0 -29 -10 -62t-29 -33q-118 0 -220 7
q-4 -39 -11 -95q-13 -106 -13 -136q0 -37 11.5 -52.5t37.5 -15.5q58 0 133 59q5 4 12 4q17 0 34 -26.5t17 -48.5q0 -11 -5 -19t-17 -18q-43 -36 -99.5 -57t-113.5 -21q-150 0 -150 147z" />
    <glyph glyph-name="u" unicode="u" 
d="M241.5 534q14.5 -6 14.5 -19q0 -6 -1 -9q-26 -88 -41.5 -166.5t-15.5 -128.5q0 -44 12.5 -65t38.5 -21q35 0 78 36.5t83 104.5q14 118 36 246q2 15 17.5 21.5t53.5 6.5q37 0 51 -6.5t12 -21.5l-45 -273q-13 -76 -27 -181l-6 -38q-2 -15 -18 -21t-53 -6q-38 0 -51.5 6
t-11.5 21q8 44 19 96h-10q-51 -66 -102.5 -97t-97.5 -31q-116 0 -116 175q0 130 62 349q4 15 18.5 21.5t51.5 6.5q34 0 48.5 -6z" />
    <glyph glyph-name="v" unicode="v" 
d="M193 1.5q-18 7.5 -21 25.5q-27 124 -46 250t-24 231q-1 17 16.5 24t52.5 7t48 -6t13 -22q11 -216 39 -399h15q158 144 158 294q0 33 -17 95q-5 18 21.5 30.5t67.5 12.5q21 0 30.5 -6.5t13.5 -22.5q12 -45 12 -90q0 -201 -212 -399q-18 -17 -39 -24.5t-63 -7.5
q-47 0 -65 7.5z" />
    <glyph glyph-name="w" unicode="w" 
d="M83 4.5q-12 10.5 -13 45.5q-4 48 -4 123q0 139 14 295l5 44q2 14 17.5 21t48.5 7q34 0 46.5 -6.5t9.5 -22.5q-35 -209 -41 -394h16q49 78 81 158q6 81 12 112q3 17 17 25t42 8t39.5 -8t9.5 -25q-21 -92 -26 -112q6 -82 28 -158h16q58 190 92 394q2 16 17.5 22.5t48.5 6.5
q31 0 44 -6t13 -18t-9 -48q-24 -103 -59.5 -219t-69.5 -199q-13 -35 -27.5 -45.5t-52.5 -10.5q-28 0 -41.5 4t-19 13.5t-8.5 30.5q-17 80 -19 171h-15q-29 -86 -75 -171q-15 -29 -31 -38.5t-56 -9.5q-38 0 -50 10.5z" />
    <glyph glyph-name="x" unicode="x" 
d="M398 -3.5q-6 5.5 -9 18.5q-27 94 -78 186h-22q-69 -87 -125 -186q-8 -13 -16 -18.5t-18 -5.5q-37 0 -73.5 13t-36.5 29q0 9 15 34q36 52 86.5 113.5t97.5 106.5q-29 43 -57 93.5t-44 88.5q-7 18 -7 26q0 21 39 34.5t70 13.5q12 0 18 -5.5t9 -18.5q30 -90 66 -162h21
q55 74 107 162q8 13 16 18.5t19 5.5q37 0 72.5 -13t35.5 -31q0 -11 -16 -32q-29 -41 -75.5 -98t-86.5 -100q34 -47 65.5 -103t48.5 -102q5 -15 5 -24q0 -23 -38.5 -36t-71.5 -13q-11 0 -17 5.5z" />
    <glyph glyph-name="y" unicode="y" 
d="M43.5 -172.5q-19.5 31.5 -19.5 62.5q0 13 8 20.5t29 16.5q99 47 176 101l-3 14l-9 -1q-12 0 -21.5 9t-18.5 33q-31 80 -61 190.5t-40 187.5q-4 25 -4 43q0 16 33 28t69 12q18 0 25 -7.5t9 -28.5q9 -90 33.5 -197.5t57.5 -209.5h19q118 137 118 275q0 42 -17 125
q-4 19 22 31t66 12q22 0 32.5 -6.5t12.5 -22.5q12 -51 12 -114q0 -166 -111 -314.5t-324 -270.5q-36 -20 -53 -20q-21 0 -40.5 31.5z" />
    <glyph glyph-name="z" unicode="z" 
d="M281.5 -25.5q-83.5 24.5 -141.5 63.5l-46 -44q-7 -6 -17 -6q-18 0 -35 18t-17 38q0 12 8 22.5t34 35.5l314 302v9h-257q-19 0 -19 30q0 27 10 58t28 31h394q13 0 19 -8t6 -25q0 -38 -12.5 -60.5t-45.5 -53.5l-271 -260v-9q97 -38 211 -43q8 60 9 85q2 24 45 24
q26 0 43.5 -7.5t16.5 -25.5q-2 -26 -13 -71.5t-22 -74.5q-12 -30 -29 -41.5t-55 -11.5q-74 0 -157.5 24.5z" />
    <glyph glyph-name="uni00A0" unicode="&#xa0;" 
 />
    <glyph glyph-name="Agrave" unicode="&#xc0;" 
d="M13 -2.5q-16 5.5 -16 16.5q0 10 12 45q100 296 259 606q12 23 35.5 32t79.5 9q57 0 77.5 -9t24.5 -32q53 -292 58 -606q-1 -28 -3 -42q-2 -13 -18.5 -19t-53.5 -6q-34 0 -47 6t-13 23v62q0 58 2 85q-63 -5 -113 -5t-112 5q-24 -82 -47 -145q-7 -19 -22.5 -25t-50.5 -6
q-36 0 -52 5.5zM315 279q49 0 97 -3q-3 40 -11 111q-14 139 -22 208h-18q-41 -86 -85 -187q-13 -29 -27.5 -62t-31.5 -70q50 3 98 3zM289.5 891.5q-2.5 4.5 -2.5 10.5q0 12 14.5 29.5t34.5 30t36 12.5q10 0 17 -6l148 -148q9 -11 9 -18q0 -15 -20 -33t-38 -18q-7 0 -12 3
l-174 127q-10 6 -12.5 10.5z" />
    <glyph glyph-name="Aacute" unicode="&#xc1;" 
d="M13 -2.5q-16 5.5 -16 16.5q0 10 12 45q100 296 259 606q12 23 35.5 32t79.5 9q57 0 77.5 -9t24.5 -32q53 -292 58 -606q-1 -28 -3 -42q-2 -13 -18.5 -19t-53.5 -6q-34 0 -47 6t-13 23v62q0 58 2 85q-63 -5 -113 -5t-112 5q-24 -82 -47 -145q-7 -19 -22.5 -25t-50.5 -6
q-36 0 -52 5.5zM315 279q49 0 97 -3q-3 40 -11 111q-14 139 -22 208h-18q-41 -86 -85 -187q-13 -29 -27.5 -62t-31.5 -70q50 3 98 3zM321 751q-18 0 -35.5 19.5t-17.5 34.5q0 6 3.5 10t14.5 14l184 139q6 5 17 5q16 0 35 -12t32 -30t13 -33q0 -7 -5 -13t-18 -13l-210 -118
q-6 -3 -13 -3z" />
    <glyph glyph-name="Acircumflex" unicode="&#xc2;" 
d="M13 -2.5q-16 5.5 -16 16.5q0 10 12 45q100 296 259 606q12 23 35.5 32t79.5 9q57 0 77.5 -9t24.5 -32q53 -292 58 -606q-1 -28 -3 -42q-2 -13 -18.5 -19t-53.5 -6q-34 0 -47 6t-13 23v62q0 58 2 85q-63 -5 -113 -5t-112 5q-24 -82 -47 -145q-7 -19 -22.5 -25t-50.5 -6
q-36 0 -52 5.5zM315 279q49 0 97 -3q-3 40 -11 111q-14 139 -22 208h-18q-41 -86 -85 -187q-13 -29 -27.5 -62t-31.5 -70q50 3 98 3zM606 793q0 -13 -23 -27.5t-43 -14.5q-12 0 -18 6l-106 112l-148 -112q-7 -6 -18 -6q-20 0 -40 16.5t-20 31.5q0 3 4.5 8t10.5 10l148 131
q12 10 31.5 15.5t40.5 5.5q22 0 39.5 -5.5t26.5 -15.5l107 -140q8 -11 8 -15z" />
    <glyph glyph-name="Atilde" unicode="&#xc3;" 
d="M13 -2.5q-16 5.5 -16 16.5q0 10 12 45q100 296 259 606q12 23 35.5 32t79.5 9q57 0 77.5 -9t24.5 -32q53 -292 58 -606q-1 -28 -3 -42q-2 -13 -18.5 -19t-53.5 -6q-34 0 -47 6t-13 23v62q0 58 2 85q-63 -5 -113 -5t-112 5q-24 -82 -47 -145q-7 -19 -22.5 -25t-50.5 -6
q-36 0 -52 5.5zM315 279q49 0 97 -3q-3 40 -11 111q-14 139 -22 208h-18q-41 -86 -85 -187q-13 -29 -27.5 -62t-31.5 -70q50 3 98 3zM433.5 779.5q-25.5 17.5 -53.5 49.5q-18 21 -29 30t-25 9q-36 0 -66 -91q-4 -9 -18 -14t-32 -5q-24 0 -40.5 7t-13.5 19q23 93 68 139.5
t105 46.5q42 0 69 -18.5t54 -50.5q18 -20 29 -29t24 -9q20 0 36 22.5t31 68.5q3 10 17 15t33 5q24 0 41 -7.5t14 -19.5q-24 -93 -69.5 -139t-106.5 -46q-42 0 -67.5 17.5z" />
    <glyph glyph-name="Adieresis" unicode="&#xc4;" 
d="M13 -2.5q-16 5.5 -16 16.5q0 10 12 45q100 296 259 606q12 23 35.5 32t79.5 9q57 0 77.5 -9t24.5 -32q53 -292 58 -606q-1 -28 -3 -42q-2 -13 -18.5 -19t-53.5 -6q-34 0 -47 6t-13 23v62q0 58 2 85q-63 -5 -113 -5t-112 5q-24 -82 -47 -145q-7 -19 -22.5 -25t-50.5 -6
q-36 0 -52 5.5zM315 279q49 0 97 -3q-3 40 -11 111q-14 139 -22 208h-18q-41 -86 -85 -187q-13 -29 -27.5 -62t-31.5 -70q50 3 98 3zM204.5 785q-18.5 11 -18.5 36q0 5 2 21q6 36 29.5 51.5t75.5 15.5q46 0 65 -11.5t19 -36.5q0 -5 -2 -19q-7 -37 -31 -52.5t-76 -15.5
q-45 0 -63.5 11zM481.5 893.5q23.5 15.5 76.5 15.5q45 0 64 -11.5t19 -36.5q0 -5 -2 -19q-7 -37 -30.5 -52.5t-75.5 -15.5q-45 0 -63.5 11t-18.5 36q0 5 2 21q5 36 28.5 51.5z" />
    <glyph glyph-name="Aring" unicode="&#xc5;" 
d="M13 -2.5q-16 5.5 -16 16.5q0 10 12 45q100 296 259 606q12 23 35.5 32t79.5 9q57 0 77.5 -9t24.5 -32q53 -292 58 -606q-1 -28 -3 -42q-2 -13 -18.5 -19t-53.5 -6q-34 0 -47 6t-13 23v62q0 58 2 85q-63 -5 -113 -5t-112 5q-24 -82 -47 -145q-7 -19 -22.5 -25t-50.5 -6
q-36 0 -52 5.5zM315 279q49 0 97 -3q-3 40 -11 111q-14 139 -22 208h-18q-41 -86 -85 -187q-13 -29 -27.5 -62t-31.5 -70q50 3 98 3zM308.5 787q-43.5 38 -43.5 97q0 38 20 69t55 48.5t79 17.5t79.5 -17.5t55.5 -48.5t20 -69q0 -59 -44 -97t-111 -38t-110.5 38zM362 835.5
q22 -18.5 57 -18.5t57.5 18.5t22.5 48.5q0 29 -22.5 47.5t-57.5 18.5t-57 -18.5t-22 -47.5q0 -30 22 -48.5z" />
    <glyph glyph-name="AE" unicode="&#xc6;" 
d="M-1 -2.5q-13 5.5 -13 17.5q0 10 11 37q100 282 257 604q11 22 31 31.5t60 9.5h275q10 0 14 -7t4 -22q0 -27 -9.5 -57.5t-27.5 -30.5q-76 0 -148 5q-10 -100 -31 -178q66 6 121 6q17 0 17 -29q0 -27 -9.5 -57.5t-27.5 -30.5q-54 0 -118 5q-10 -101 -32 -189q77 5 156 5
q18 0 18 -29q0 -26 -10 -57t-28 -31h-220q-16 0 -23.5 5.5t-7.5 18.5q0 8 1 13q13 77 27 129q-42 -4 -65 -3q-33 0 -66 3q-11 -41 -28.5 -89t-22.5 -63q-4 -12 -17.5 -17t-43.5 -5q-31 0 -44 5.5zM251 279q27 0 54 -3q13 119 44 304h-19l-56 -127q-63 -145 -78 -177
q29 3 55 3z" />
    <glyph glyph-name="Ccedilla" unicode="&#xc7;" 
d="M98 468q35 103 112 171.5t196 68.5q72 0 124 -17.5t67 -43.5q10 -17 10 -83q0 -34 -4 -64q-4 -19 -25.5 -28.5t-54.5 -9.5q-28 0 -40 6t-11 21l3 79q-11 8 -34 12.5t-49 4.5q-69 0 -112 -51t-61 -121.5t-18 -134.5q0 -87 30 -124t91 -37q70 0 157 38q6 3 12 3
q20 0 32.5 -26t12.5 -54q0 -16 -5.5 -27t-18.5 -17q-39 -19 -90 -31.5t-100 -13.5l-2 -6l-55 -160q-4 -12 -19 -18t-35 -6q-25 0 -45 8.5t-20 21.5q0 8 13 29l77 138q-86 17 -129.5 80.5t-43.5 183.5q0 105 35 208z" />
    <glyph glyph-name="Egrave" unicode="&#xc8;" 
d="M74 11q-9 11 -6 32l53 323q15 90 28 130.5t32 64.5l2 16q-25 -3 -37 -3q-18 0 -18 30q0 28 10 60.5t28 32.5h424q18 0 18 -30q0 -29 -9.5 -61t-28.5 -32q-126 0 -280 7q-5 -75 -28 -172q142 6 242 6q10 0 14 -7t4 -22q0 -27 -9.5 -57.5t-27.5 -30.5q-100 0 -241 5
q-7 -90 -31 -187q157 7 287 7q17 0 17 -30q0 -29 -9.5 -61t-28.5 -32h-375q-21 0 -30 11zM289.5 891.5q-2.5 4.5 -2.5 10.5q0 12 14.5 29.5t34.5 30t36 12.5q10 0 17 -6l148 -148q9 -11 9 -18q0 -15 -20 -33t-38 -18q-7 0 -12 3l-174 127q-10 6 -12.5 10.5z" />
    <glyph glyph-name="Eacute" unicode="&#xc9;" 
d="M74 11q-9 11 -6 32l53 323q15 90 28 130.5t32 64.5l2 16q-25 -3 -37 -3q-18 0 -18 30q0 28 10 60.5t28 32.5h424q18 0 18 -30q0 -29 -9.5 -61t-28.5 -32q-126 0 -280 7q-5 -75 -28 -172q142 6 242 6q10 0 14 -7t4 -22q0 -27 -9.5 -57.5t-27.5 -30.5q-100 0 -241 5
q-7 -90 -31 -187q157 7 287 7q17 0 17 -30q0 -29 -9.5 -61t-28.5 -32h-375q-21 0 -30 11zM321 751q-18 0 -35.5 19.5t-17.5 34.5q0 6 3.5 10t14.5 14l184 139q6 5 17 5q16 0 35 -12t32 -30t13 -33q0 -7 -5 -13t-18 -13l-210 -118q-6 -3 -13 -3z" />
    <glyph glyph-name="Ecircumflex" unicode="&#xca;" 
d="M74 11q-9 11 -6 32l53 323q15 90 28 130.5t32 64.5l2 16q-25 -3 -37 -3q-18 0 -18 30q0 28 10 60.5t28 32.5h424q18 0 18 -30q0 -29 -9.5 -61t-28.5 -32q-126 0 -280 7q-5 -75 -28 -172q142 6 242 6q10 0 14 -7t4 -22q0 -27 -9.5 -57.5t-27.5 -30.5q-100 0 -241 5
q-7 -90 -31 -187q157 7 287 7q17 0 17 -30q0 -29 -9.5 -61t-28.5 -32h-375q-21 0 -30 11zM606 793q0 -13 -23 -27.5t-43 -14.5q-12 0 -18 6l-106 112l-148 -112q-7 -6 -18 -6q-20 0 -40 16.5t-20 31.5q0 3 4.5 8t10.5 10l148 131q12 10 31.5 15.5t40.5 5.5q22 0 39.5 -5.5
t26.5 -15.5l107 -140q8 -11 8 -15z" />
    <glyph glyph-name="Edieresis" unicode="&#xcb;" 
d="M74 11q-9 11 -6 32l53 323q15 90 28 130.5t32 64.5l2 16q-25 -3 -37 -3q-18 0 -18 30q0 28 10 60.5t28 32.5h424q18 0 18 -30q0 -29 -9.5 -61t-28.5 -32q-126 0 -280 7q-5 -75 -28 -172q142 6 242 6q10 0 14 -7t4 -22q0 -27 -9.5 -57.5t-27.5 -30.5q-100 0 -241 5
q-7 -90 -31 -187q157 7 287 7q17 0 17 -30q0 -29 -9.5 -61t-28.5 -32h-375q-21 0 -30 11zM204.5 785q-18.5 11 -18.5 36q0 5 2 21q6 36 29.5 51.5t75.5 15.5q46 0 65 -11.5t19 -36.5q0 -5 -2 -19q-7 -37 -31 -52.5t-76 -15.5q-45 0 -63.5 11zM481.5 893.5
q23.5 15.5 76.5 15.5q45 0 64 -11.5t19 -36.5q0 -5 -2 -19q-7 -37 -30.5 -52.5t-75.5 -15.5q-45 0 -63.5 11t-18.5 36q0 5 2 21q5 36 28.5 51.5z" />
    <glyph glyph-name="Igrave" unicode="&#xcc;" 
d="M70 31q0 30 10 64t30 34q50 0 113 -7q28 212 75 453q-65 -7 -115 -7q-19 0 -19 31q0 29 10.5 63.5t29.5 34.5h356q18 0 18 -31q0 -30 -10 -64t-30 -34q-50 0 -112 7q-29 -219 -75 -453q64 7 114 7q19 0 19 -31q0 -30 -10 -64t-30 -34h-356q-18 0 -18 31zM289.5 891.5
q-2.5 4.5 -2.5 10.5q0 12 14.5 29.5t34.5 30t36 12.5q10 0 17 -6l148 -148q9 -11 9 -18q0 -15 -20 -33t-38 -18q-7 0 -12 3l-174 127q-10 6 -12.5 10.5z" />
    <glyph glyph-name="Iacute" unicode="&#xcd;" 
d="M70 31q0 30 10 64t30 34q50 0 113 -7q28 212 75 453q-65 -7 -115 -7q-19 0 -19 31q0 29 10.5 63.5t29.5 34.5h356q18 0 18 -31q0 -30 -10 -64t-30 -34q-50 0 -112 7q-29 -219 -75 -453q64 7 114 7q19 0 19 -31q0 -30 -10 -64t-30 -34h-356q-18 0 -18 31zM321 751
q-18 0 -35.5 19.5t-17.5 34.5q0 6 3.5 10t14.5 14l184 139q6 5 17 5q16 0 35 -12t32 -30t13 -33q0 -7 -5 -13t-18 -13l-210 -118q-6 -3 -13 -3z" />
    <glyph glyph-name="Icircumflex" unicode="&#xce;" 
d="M70 31q0 30 10 64t30 34q50 0 113 -7q28 212 75 453q-65 -7 -115 -7q-19 0 -19 31q0 29 10.5 63.5t29.5 34.5h356q18 0 18 -31q0 -30 -10 -64t-30 -34q-50 0 -112 7q-29 -219 -75 -453q64 7 114 7q19 0 19 -31q0 -30 -10 -64t-30 -34h-356q-18 0 -18 31zM606 793
q0 -13 -23 -27.5t-43 -14.5q-12 0 -18 6l-106 112l-148 -112q-7 -6 -18 -6q-20 0 -40 16.5t-20 31.5q0 3 4.5 8t10.5 10l148 131q12 10 31.5 15.5t40.5 5.5q22 0 39.5 -5.5t26.5 -15.5l107 -140q8 -11 8 -15z" />
    <glyph glyph-name="Ntilde" unicode="&#xd1;" 
d="M32 -1.5q-14 6.5 -12 21.5l109 650q3 19 24 27t68 8q45 0 60.5 -9.5t20.5 -38.5q77 -314 109 -514h15q6 98 26 261.5t38 272.5q3 28 73 28q39 0 53 -6.5t11 -21.5l-108 -650q-3 -19 -24.5 -27t-68.5 -8q-31 0 -46.5 4t-22.5 14t-11 30q-73 297 -109 514h-16
q-6 -97 -25.5 -259t-37.5 -275q-2 -15 -18.5 -21.5t-54.5 -6.5q-39 0 -53 6.5zM433.5 779.5q-25.5 17.5 -53.5 49.5q-18 21 -29 30t-25 9q-36 0 -66 -91q-4 -9 -18 -14t-32 -5q-24 0 -40.5 7t-13.5 19q23 93 68 139.5t105 46.5q42 0 69 -18.5t54 -50.5q18 -20 29 -29t24 -9
q20 0 36 22.5t31 68.5q3 10 17 15t33 5q24 0 41 -7.5t14 -19.5q-24 -93 -69.5 -139t-106.5 -46q-42 0 -67.5 17.5z" />
    <glyph glyph-name="Ograve" unicode="&#xd2;" 
d="M107 58q-57 70 -57 220q0 102 29.5 200t100 164.5t185.5 66.5q119 0 176 -70t57 -220q0 -102 -29.5 -200t-100 -164.5t-185.5 -66.5q-119 0 -176 70zM212 148.5q26 -37.5 84 -37.5t95.5 48.5t54.5 120t17 143.5q0 88 -26 125.5t-84 37.5t-95.5 -48.5t-54.5 -120
t-17 -143.5q0 -88 26 -125.5zM289.5 891.5q-2.5 4.5 -2.5 10.5q0 12 14.5 29.5t34.5 30t36 12.5q10 0 17 -6l148 -148q9 -11 9 -18q0 -15 -20 -33t-38 -18q-7 0 -12 3l-174 127q-10 6 -12.5 10.5z" />
    <glyph glyph-name="Oacute" unicode="&#xd3;" 
d="M107 58q-57 70 -57 220q0 102 29.5 200t100 164.5t185.5 66.5q119 0 176 -70t57 -220q0 -102 -29.5 -200t-100 -164.5t-185.5 -66.5q-119 0 -176 70zM212 148.5q26 -37.5 84 -37.5t95.5 48.5t54.5 120t17 143.5q0 88 -26 125.5t-84 37.5t-95.5 -48.5t-54.5 -120
t-17 -143.5q0 -88 26 -125.5zM321 751q-18 0 -35.5 19.5t-17.5 34.5q0 6 3.5 10t14.5 14l184 139q6 5 17 5q16 0 35 -12t32 -30t13 -33q0 -7 -5 -13t-18 -13l-210 -118q-6 -3 -13 -3z" />
    <glyph glyph-name="Ocircumflex" unicode="&#xd4;" 
d="M107 58q-57 70 -57 220q0 102 29.5 200t100 164.5t185.5 66.5q119 0 176 -70t57 -220q0 -102 -29.5 -200t-100 -164.5t-185.5 -66.5q-119 0 -176 70zM212 148.5q26 -37.5 84 -37.5t95.5 48.5t54.5 120t17 143.5q0 88 -26 125.5t-84 37.5t-95.5 -48.5t-54.5 -120
t-17 -143.5q0 -88 26 -125.5zM606 793q0 -13 -23 -27.5t-43 -14.5q-12 0 -18 6l-106 112l-148 -112q-7 -6 -18 -6q-20 0 -40 16.5t-20 31.5q0 3 4.5 8t10.5 10l148 131q12 10 31.5 15.5t40.5 5.5q22 0 39.5 -5.5t26.5 -15.5l107 -140q8 -11 8 -15z" />
    <glyph glyph-name="Otilde" unicode="&#xd5;" 
d="M107 58q-57 70 -57 220q0 102 29.5 200t100 164.5t185.5 66.5q119 0 176 -70t57 -220q0 -102 -29.5 -200t-100 -164.5t-185.5 -66.5q-119 0 -176 70zM212 148.5q26 -37.5 84 -37.5t95.5 48.5t54.5 120t17 143.5q0 88 -26 125.5t-84 37.5t-95.5 -48.5t-54.5 -120
t-17 -143.5q0 -88 26 -125.5zM433.5 779.5q-25.5 17.5 -53.5 49.5q-18 21 -29 30t-25 9q-36 0 -66 -91q-4 -9 -18 -14t-32 -5q-24 0 -40.5 7t-13.5 19q23 93 68 139.5t105 46.5q42 0 69 -18.5t54 -50.5q18 -20 29 -29t24 -9q20 0 36 22.5t31 68.5q3 10 17 15t33 5
q24 0 41 -7.5t14 -19.5q-24 -93 -69.5 -139t-106.5 -46q-42 0 -67.5 17.5z" />
    <glyph glyph-name="Odieresis" unicode="&#xd6;" 
d="M107 58q-57 70 -57 220q0 102 29.5 200t100 164.5t185.5 66.5q119 0 176 -70t57 -220q0 -102 -29.5 -200t-100 -164.5t-185.5 -66.5q-119 0 -176 70zM212 148.5q26 -37.5 84 -37.5t95.5 48.5t54.5 120t17 143.5q0 88 -26 125.5t-84 37.5t-95.5 -48.5t-54.5 -120
t-17 -143.5q0 -88 26 -125.5zM204.5 785q-18.5 11 -18.5 36q0 5 2 21q6 36 29.5 51.5t75.5 15.5q46 0 65 -11.5t19 -36.5q0 -5 -2 -19q-7 -37 -31 -52.5t-76 -15.5q-45 0 -63.5 11zM481.5 893.5q23.5 15.5 76.5 15.5q45 0 64 -11.5t19 -36.5q0 -5 -2 -19q-7 -37 -30.5 -52.5
t-75.5 -15.5q-45 0 -63.5 11t-18.5 36q0 5 2 21q5 36 28.5 51.5z" />
    <glyph glyph-name="Ugrave" unicode="&#xd9;" 
d="M62 196q0 76 24 212t54 269q4 15 19.5 21.5t53.5 6.5q35 0 49.5 -5.5t14.5 -19.5q0 -6 -1 -9q-25 -103 -52.5 -251t-28.5 -210q0 -51 21.5 -72t65.5 -21q47 0 77 26t47 90q19 67 40.5 200.5t32.5 237.5q2 19 18 26.5t55 7.5t52 -6.5t13 -21.5q-13 -126 -36.5 -272.5
t-50.5 -232.5q-57 -184 -256 -184q-212 0 -212 208zM289.5 891.5q-2.5 4.5 -2.5 10.5q0 12 14.5 29.5t34.5 30t36 12.5q10 0 17 -6l148 -148q9 -11 9 -18q0 -15 -20 -33t-38 -18q-7 0 -12 3l-174 127q-10 6 -12.5 10.5z" />
    <glyph glyph-name="Uacute" unicode="&#xda;" 
d="M62 196q0 76 24 212t54 269q4 15 19.5 21.5t53.5 6.5q35 0 49.5 -5.5t14.5 -19.5q0 -6 -1 -9q-25 -103 -52.5 -251t-28.5 -210q0 -51 21.5 -72t65.5 -21q47 0 77 26t47 90q19 67 40.5 200.5t32.5 237.5q2 19 18 26.5t55 7.5t52 -6.5t13 -21.5q-13 -126 -36.5 -272.5
t-50.5 -232.5q-57 -184 -256 -184q-212 0 -212 208zM321 751q-18 0 -35.5 19.5t-17.5 34.5q0 6 3.5 10t14.5 14l184 139q6 5 17 5q16 0 35 -12t32 -30t13 -33q0 -7 -5 -13t-18 -13l-210 -118q-6 -3 -13 -3z" />
    <glyph glyph-name="Ucircumflex" unicode="&#xdb;" 
d="M62 196q0 76 24 212t54 269q4 15 19.5 21.5t53.5 6.5q35 0 49.5 -5.5t14.5 -19.5q0 -6 -1 -9q-25 -103 -52.5 -251t-28.5 -210q0 -51 21.5 -72t65.5 -21q47 0 77 26t47 90q19 67 40.5 200.5t32.5 237.5q2 19 18 26.5t55 7.5t52 -6.5t13 -21.5q-13 -126 -36.5 -272.5
t-50.5 -232.5q-57 -184 -256 -184q-212 0 -212 208zM606 793q0 -13 -23 -27.5t-43 -14.5q-12 0 -18 6l-106 112l-148 -112q-7 -6 -18 -6q-20 0 -40 16.5t-20 31.5q0 3 4.5 8t10.5 10l148 131q12 10 31.5 15.5t40.5 5.5q22 0 39.5 -5.5t26.5 -15.5l107 -140q8 -11 8 -15z" />
    <glyph glyph-name="Udieresis" unicode="&#xdc;" 
d="M62 196q0 76 24 212t54 269q4 15 19.5 21.5t53.5 6.5q35 0 49.5 -5.5t14.5 -19.5q0 -6 -1 -9q-25 -103 -52.5 -251t-28.5 -210q0 -51 21.5 -72t65.5 -21q47 0 77 26t47 90q19 67 40.5 200.5t32.5 237.5q2 19 18 26.5t55 7.5t52 -6.5t13 -21.5q-13 -126 -36.5 -272.5
t-50.5 -232.5q-57 -184 -256 -184q-212 0 -212 208zM204.5 785q-18.5 11 -18.5 36q0 5 2 21q6 36 29.5 51.5t75.5 15.5q46 0 65 -11.5t19 -36.5q0 -5 -2 -19q-7 -37 -31 -52.5t-76 -15.5q-45 0 -63.5 11zM481.5 893.5q23.5 15.5 76.5 15.5q45 0 64 -11.5t19 -36.5
q0 -5 -2 -19q-7 -37 -30.5 -52.5t-75.5 -15.5q-45 0 -63.5 11t-18.5 36q0 5 2 21q5 36 28.5 51.5z" />
    <glyph glyph-name="Yacute" unicode="&#xdd;" 
d="M200 20q20 117 48 246q-91 174 -133 371q-3 17 -3 22q0 17 33 32t66 15q18 0 25.5 -8t9.5 -26q10 -67 28.5 -141t41.5 -139h15q88 127 164 280q8 18 18.5 26t28.5 8q38 0 67.5 -12t29.5 -29q0 -11 -10 -29q-112 -205 -256 -369q-18 -149 -35 -247q-4 -28 -73 -28t-65 28z
M321 751q-18 0 -35.5 19.5t-17.5 34.5q0 6 3.5 10t14.5 14l184 139q6 5 17 5q16 0 35 -12t32 -30t13 -33q0 -7 -5 -13t-18 -13l-210 -118q-6 -3 -13 -3z" />
    <glyph glyph-name="germandbls" unicode="&#xdf;" 
d="M249 0q-9 3 -13.5 8.5t-4.5 15.5q0 14 6 36t16.5 37.5t22.5 12.5q21 -6 45 -6q45 0 67 24.5t22 59.5q0 39 -25.5 66t-83.5 54q-15 8 -15 31q0 24 7 49t24 37q46 32 71 61.5t25 68.5q0 69 -70 69q-44 0 -66.5 -26.5t-32.5 -86.5l-82 -491q-3 -15 -18.5 -21.5t-52.5 -6.5
q-38 0 -51.5 6.5t-11.5 21.5l84 504q36 214 234 214q91 0 143.5 -42.5t52.5 -123.5q0 -116 -145 -199l-1 -10q77 -37 110 -79t33 -101q0 -54 -25 -98.5t-72.5 -70.5t-112.5 -26q-48 0 -80 12z" />
    <glyph glyph-name="agrave" unicode="&#xe0;" 
d="M436 -6.5q-8 7.5 -14 31.5q-10 43 -20 98h-14q-57 -70 -108.5 -102.5t-102.5 -32.5q-132 0 -132 193q0 108 35.5 189.5t104.5 127.5t167 46q56 0 105 -14.5t84 -41.5q22 -16 22 -40q0 -7 -1 -11q-2 -14 -4 -21q-12 -71 -23.5 -125t-29.5 -109q12 -27 24.5 -58.5
t17.5 -44.5q10 -27 10 -40q0 -20 -32.5 -36.5t-63.5 -16.5q-17 0 -25 7.5zM234 114q29 0 69 30t84 88q10 35 19 83t17 95q-36 20 -86 20q-73 0 -113.5 -62.5t-40.5 -156.5q0 -97 51 -97zM233.5 726.5q-2.5 4.5 -2.5 10.5q0 12 13 29.5t31.5 30t32.5 12.5q10 0 16 -6
l134 -148q9 -11 9 -18q0 -15 -18.5 -33t-34.5 -18q-6 0 -11 3l-158 127q-9 6 -11.5 10.5z" />
    <glyph glyph-name="aacute" unicode="&#xe1;" 
d="M436 -6.5q-8 7.5 -14 31.5q-10 43 -20 98h-14q-57 -70 -108.5 -102.5t-102.5 -32.5q-132 0 -132 193q0 108 35.5 189.5t104.5 127.5t167 46q56 0 105 -14.5t84 -41.5q22 -16 22 -40q0 -7 -1 -11q-2 -14 -4 -21q-12 -71 -23.5 -125t-29.5 -109q12 -27 24.5 -58.5
t17.5 -44.5q10 -27 10 -40q0 -20 -32.5 -36.5t-63.5 -16.5q-17 0 -25 7.5zM234 114q29 0 69 30t84 88q10 35 19 83t17 95q-36 20 -86 20q-73 0 -113.5 -62.5t-40.5 -156.5q0 -97 51 -97zM313 586q-17 0 -33 19.5t-16 34.5q0 6 4.5 11.5t12.5 12.5l167 139q6 5 16 5
q15 0 32 -12t28.5 -30t11.5 -33q0 -7 -4.5 -13t-16.5 -13l-191 -118q-6 -3 -11 -3z" />
    <glyph glyph-name="acircumflex" unicode="&#xe2;" 
d="M436 -6.5q-8 7.5 -14 31.5q-10 43 -20 98h-14q-57 -70 -108.5 -102.5t-102.5 -32.5q-132 0 -132 193q0 108 35.5 189.5t104.5 127.5t167 46q56 0 105 -14.5t84 -41.5q22 -16 22 -40q0 -7 -1 -11q-2 -14 -4 -21q-12 -71 -23.5 -125t-29.5 -109q12 -27 24.5 -58.5
t17.5 -44.5q10 -27 10 -40q0 -20 -32.5 -36.5t-63.5 -16.5q-17 0 -25 7.5zM234 114q29 0 69 30t84 88q10 35 19 83t17 95q-36 20 -86 20q-73 0 -113.5 -62.5t-40.5 -156.5q0 -97 51 -97zM554 628q0 -13 -21 -28t-39 -15q-10 0 -16 6l-97 113l-134 -113q-6 -5 -17 -5
q-18 0 -36 16t-18 32q0 5 13 18l135 130q11 11 28.5 16.5t37.5 5.5t36 -5.5t23 -16.5l98 -140q7 -10 7 -14z" />
    <glyph glyph-name="atilde" unicode="&#xe3;" 
d="M436 -6.5q-8 7.5 -14 31.5q-10 43 -20 98h-14q-57 -70 -108.5 -102.5t-102.5 -32.5q-132 0 -132 193q0 108 35.5 189.5t104.5 127.5t167 46q56 0 105 -14.5t84 -41.5q22 -16 22 -40q0 -7 -1 -11q-2 -14 -4 -21q-12 -71 -23.5 -125t-29.5 -109q12 -27 24.5 -58.5
t17.5 -44.5q10 -27 10 -40q0 -20 -32.5 -36.5t-63.5 -16.5q-17 0 -25 7.5zM234 114q29 0 69 30t84 88q10 35 19 83t17 95q-36 20 -86 20q-73 0 -113.5 -62.5t-40.5 -156.5q0 -97 51 -97zM394 619.5q-23 17.5 -49 49.5q-15 20 -25.5 29.5t-23.5 9.5q-33 0 -60 -91
q-3 -9 -16 -14t-30 -5q-21 0 -36.5 7t-12.5 19q21 93 62 139.5t96 46.5q38 0 61.5 -17.5t49.5 -50.5q18 -22 27 -30.5t22 -8.5q18 0 32.5 22.5t28.5 68.5q3 10 15.5 15t29.5 5q21 0 36.5 -7.5t13.5 -19.5q-22 -94 -63 -139.5t-97 -45.5q-38 0 -61 17.5z" />
    <glyph glyph-name="adieresis" unicode="&#xe4;" 
d="M436 -6.5q-8 7.5 -14 31.5q-10 43 -20 98h-14q-57 -70 -108.5 -102.5t-102.5 -32.5q-132 0 -132 193q0 108 35.5 189.5t104.5 127.5t167 46q56 0 105 -14.5t84 -41.5q22 -16 22 -40q0 -7 -1 -11q-2 -14 -4 -21q-12 -71 -23.5 -125t-29.5 -109q12 -27 24.5 -58.5
t17.5 -44.5q10 -27 10 -40q0 -20 -32.5 -36.5t-63.5 -16.5q-17 0 -25 7.5zM234 114q29 0 69 30t84 88q10 35 19 83t17 95q-36 20 -86 20q-73 0 -113.5 -62.5t-40.5 -156.5q0 -97 51 -97zM184 630q-17 11 -17 37q0 6 2 20q6 36 27 51.5t69 15.5q41 0 58.5 -11t17.5 -37
q0 -5 -2 -19q-6 -37 -27.5 -52.5t-69.5 -15.5q-41 0 -58 11zM436.5 738.5q21.5 15.5 69.5 15.5q41 0 58 -11t17 -36q0 -6 -2 -20q-6 -37 -27 -52.5t-69 -15.5q-41 0 -58 11t-17 36q0 5 2 21q5 36 26.5 51.5z" />
    <glyph glyph-name="aring" unicode="&#xe5;" 
d="M436 -6.5q-8 7.5 -14 31.5q-10 43 -20 98h-14q-57 -70 -108.5 -102.5t-102.5 -32.5q-132 0 -132 193q0 108 35.5 189.5t104.5 127.5t167 46q56 0 105 -14.5t84 -41.5q22 -16 22 -40q0 -7 -1 -11q-2 -14 -4 -21q-12 -71 -23.5 -125t-29.5 -109q12 -27 24.5 -58.5
t17.5 -44.5q10 -27 10 -40q0 -20 -32.5 -36.5t-63.5 -16.5q-17 0 -25 7.5zM234 114q29 0 69 30t84 88q10 35 19 83t17 95q-36 20 -86 20q-73 0 -113.5 -62.5t-40.5 -156.5q0 -97 51 -97zM284.5 622q-39.5 38 -39.5 97q0 58 39.5 96.5t100.5 38.5t101 -38.5t40 -96.5
q0 -59 -40 -97t-101 -38t-100.5 38zM333 670.5q20 -18.5 52 -18.5t52.5 18.5t20.5 48.5q0 29 -20.5 47.5t-52.5 18.5t-52 -18.5t-20 -47.5q0 -30 20 -48.5z" />
    <glyph glyph-name="ae" unicode="&#xe6;" 
d="M272 50q-71 -61 -140 -61q-56 0 -85 36t-29 102q0 81 44.5 134.5t128.5 53.5q44 0 84 -9l10 58q3 15 3 26q0 22 -11.5 31.5t-38.5 9.5q-23 0 -51 -8t-50 -19q-6 -2 -8 -2q-15 0 -22.5 25t-7.5 51q0 24 19 33q76 34 145 34q36 0 59 -10t35 -32q45 39 106 39q67 0 100 -41
t33 -119q0 -49 -15 -95.5t-44 -50.5q-35 -5 -105 -5q-40 0 -81 3l-12 -71q-2 -12 -2 -17q0 -26 16.5 -39.5t49.5 -13.5q25 0 42 5.5t40 15.5q14 8 21 8q12 0 24 -23.5t12 -48.5q0 -10 -5 -17t-17 -14q-26 -14 -58 -22.5t-63 -8.5q-92 0 -127 62zM179 93q31 0 66 22l19 118
q-23 4 -48 4q-46 0 -64 -23t-18 -63q0 -58 45 -58zM417 313q31 0 59 3q9 32 9 65q0 68 -46 68q-25 0 -41.5 -16.5t-21.5 -45.5l-12 -72q36 -2 53 -2z" />
    <glyph glyph-name="ccedilla" unicode="&#xe7;" 
d="M99 363.5q32 79.5 101 130t174 50.5q58 0 103.5 -12.5t63.5 -33.5q11 -12 16 -49.5t5 -78.5q0 -20 -22.5 -30.5t-58.5 -10.5q-25 0 -37.5 6t-12.5 20l1 56q-24 13 -67 13q-59 0 -95.5 -33t-52.5 -81t-16 -96q0 -54 21 -77t64 -23q76 0 170 72q8 6 16 6q15 0 29.5 -15
t24 -35.5t9.5 -34.5q0 -8 -4.5 -15t-15.5 -15q-90 -67 -192 -85l-3 -9l-55 -160q-4 -12 -19 -18t-35 -6q-25 0 -45 8.5t-20 21.5q0 8 13 29l73 132q-165 16 -165 205q0 89 32 168.5z" />
    <glyph glyph-name="egrave" unicode="&#xe8;" 
d="M114.5 39q-52.5 51 -52.5 157q0 99 38 178t108 124.5t162 45.5q63 0 108 -20t67.5 -53t22.5 -73q0 -49 -36.5 -82.5t-116 -60t-221.5 -55.5q3 -53 27 -75.5t74 -22.5q44 0 86.5 15t93.5 45q10 6 23 -5.5t22.5 -31.5t9.5 -37q0 -11 -4.5 -18.5t-18.5 -16.5
q-48 -30 -106 -47.5t-121 -17.5q-113 0 -165.5 51zM349 317.5q50 16.5 70 31.5t21 36q0 25 -22.5 41.5t-61.5 16.5q-63 0 -103.5 -47t-53.5 -120q100 25 150 41.5zM239.5 726.5q-2.5 4.5 -2.5 10.5q0 12 13 29.5t31.5 30t32.5 12.5q10 0 16 -6l134 -148q9 -11 9 -18
q0 -15 -18.5 -33t-34.5 -18q-6 0 -11 3l-158 127q-9 6 -11.5 10.5z" />
    <glyph glyph-name="eacute" unicode="&#xe9;" 
d="M114.5 39q-52.5 51 -52.5 157q0 99 38 178t108 124.5t162 45.5q63 0 108 -20t67.5 -53t22.5 -73q0 -49 -36.5 -82.5t-116 -60t-221.5 -55.5q3 -53 27 -75.5t74 -22.5q44 0 86.5 15t93.5 45q10 6 23 -5.5t22.5 -31.5t9.5 -37q0 -11 -4.5 -18.5t-18.5 -16.5
q-48 -30 -106 -47.5t-121 -17.5q-113 0 -165.5 51zM349 317.5q50 16.5 70 31.5t21 36q0 25 -22.5 41.5t-61.5 16.5q-63 0 -103.5 -47t-53.5 -120q100 25 150 41.5zM318 586q-17 0 -33 19.5t-16 34.5q0 6 4.5 11.5t12.5 12.5l167 139q6 5 16 5q15 0 32 -12t28.5 -30t11.5 -33
q0 -7 -4.5 -13t-16.5 -13l-191 -118q-6 -3 -11 -3z" />
    <glyph glyph-name="ecircumflex" unicode="&#xea;" 
d="M114.5 39q-52.5 51 -52.5 157q0 99 38 178t108 124.5t162 45.5q63 0 108 -20t67.5 -53t22.5 -73q0 -49 -36.5 -82.5t-116 -60t-221.5 -55.5q3 -53 27 -75.5t74 -22.5q44 0 86.5 15t93.5 45q10 6 23 -5.5t22.5 -31.5t9.5 -37q0 -11 -4.5 -18.5t-18.5 -16.5
q-48 -30 -106 -47.5t-121 -17.5q-113 0 -165.5 51zM349 317.5q50 16.5 70 31.5t21 36q0 25 -22.5 41.5t-61.5 16.5q-63 0 -103.5 -47t-53.5 -120q100 25 150 41.5zM560 628q0 -13 -21 -28t-39 -15q-10 0 -16 6l-97 113l-134 -113q-6 -5 -17 -5q-18 0 -36 16t-18 32
q0 5 13 18l135 130q11 11 28.5 16.5t37.5 5.5t36 -5.5t23 -16.5l98 -140q7 -10 7 -14z" />
    <glyph glyph-name="edieresis" unicode="&#xeb;" 
d="M114.5 39q-52.5 51 -52.5 157q0 99 38 178t108 124.5t162 45.5q63 0 108 -20t67.5 -53t22.5 -73q0 -49 -36.5 -82.5t-116 -60t-221.5 -55.5q3 -53 27 -75.5t74 -22.5q44 0 86.5 15t93.5 45q10 6 23 -5.5t22.5 -31.5t9.5 -37q0 -11 -4.5 -18.5t-18.5 -16.5
q-48 -30 -106 -47.5t-121 -17.5q-113 0 -165.5 51zM349 317.5q50 16.5 70 31.5t21 36q0 25 -22.5 41.5t-61.5 16.5q-63 0 -103.5 -47t-53.5 -120q100 25 150 41.5zM190 630q-17 11 -17 37q0 6 2 20q6 36 27 51.5t69 15.5q41 0 58.5 -11t17.5 -37q0 -5 -2 -19
q-6 -37 -27.5 -52.5t-69.5 -15.5q-41 0 -58 11zM442.5 738.5q21.5 15.5 69.5 15.5q41 0 58 -11t17 -36q0 -6 -2 -20q-6 -37 -27 -52.5t-69 -15.5q-41 0 -58 11t-17 36q0 5 2 21q5 36 26.5 51.5z" />
    <glyph glyph-name="igrave" unicode="&#xec;" 
d="M213.5 22q-33.5 34 -33.5 101q0 47 14 125t35 152q-72 -5 -127 -5q-10 0 -14 7.5t-4 23.5q0 28 10 61.5t29 33.5h220q18 0 26 -6.5t8 -20.5q0 -9 -1 -14q-54 -226 -54 -306q0 -32 8 -45.5t27 -13.5q49 0 117 59q5 4 12 4q17 0 34.5 -26.5t17.5 -48.5q0 -11 -5.5 -19
t-17.5 -18q-43 -36 -96.5 -57t-108.5 -21q-63 0 -96.5 34zM209.5 726.5q-2.5 4.5 -2.5 10.5q0 12 13 29.5t31.5 30t32.5 12.5q10 0 16 -6l134 -148q9 -11 9 -18q0 -15 -18.5 -33t-34.5 -18q-6 0 -11 3l-158 127q-9 6 -11.5 10.5z" />
    <glyph glyph-name="iacute" unicode="&#xed;" 
d="M213.5 22q-33.5 34 -33.5 101q0 47 14 125t35 152q-72 -5 -127 -5q-10 0 -14 7.5t-4 23.5q0 28 10 61.5t29 33.5h220q18 0 26 -6.5t8 -20.5q0 -9 -1 -14q-54 -226 -54 -306q0 -32 8 -45.5t27 -13.5q49 0 117 59q5 4 12 4q17 0 34.5 -26.5t17.5 -48.5q0 -11 -5.5 -19
t-17.5 -18q-43 -36 -96.5 -57t-108.5 -21q-63 0 -96.5 34zM289 586q-17 0 -33 19.5t-16 34.5q0 6 4.5 11.5t12.5 12.5l167 139q6 5 16 5q15 0 32 -12t28.5 -30t11.5 -33q0 -7 -4.5 -13t-16.5 -13l-191 -118q-6 -3 -11 -3z" />
    <glyph glyph-name="icircumflex" unicode="&#xee;" 
d="M213.5 22q-33.5 34 -33.5 101q0 47 14 125t35 152q-72 -5 -127 -5q-10 0 -14 7.5t-4 23.5q0 28 10 61.5t29 33.5h220q18 0 26 -6.5t8 -20.5q0 -9 -1 -14q-54 -226 -54 -306q0 -32 8 -45.5t27 -13.5q49 0 117 59q5 4 12 4q17 0 34.5 -26.5t17.5 -48.5q0 -11 -5.5 -19
t-17.5 -18q-43 -36 -96.5 -57t-108.5 -21q-63 0 -96.5 34zM530 628q0 -13 -21 -28t-39 -15q-10 0 -16 6l-97 113l-134 -113q-6 -5 -17 -5q-18 0 -36 16t-18 32q0 5 13 18l135 130q11 11 28.5 16.5t37.5 5.5t36 -5.5t23 -16.5l98 -140q7 -10 7 -14z" />
    <glyph glyph-name="idieresis" unicode="&#xef;" 
d="M213.5 22q-33.5 34 -33.5 101q0 47 14 125t35 152q-72 -5 -127 -5q-10 0 -14 7.5t-4 23.5q0 28 10 61.5t29 33.5h220q18 0 26 -6.5t8 -20.5q0 -9 -1 -14q-54 -226 -54 -306q0 -32 8 -45.5t27 -13.5q49 0 117 59q5 4 12 4q17 0 34.5 -26.5t17.5 -48.5q0 -11 -5.5 -19
t-17.5 -18q-43 -36 -96.5 -57t-108.5 -21q-63 0 -96.5 34zM160 630q-17 11 -17 37q0 6 2 20q6 36 27 51.5t69 15.5q41 0 58.5 -11t17.5 -37q0 -5 -2 -19q-6 -37 -27.5 -52.5t-69.5 -15.5q-41 0 -58 11zM412.5 738.5q21.5 15.5 69.5 15.5q41 0 58 -11t17 -36q0 -6 -2 -20
q-6 -37 -27 -52.5t-69 -15.5q-41 0 -58 11t-17 36q0 5 2 21q5 36 26.5 51.5z" />
    <glyph glyph-name="ntilde" unicode="&#xf1;" 
d="M378.5 -2q-14.5 6 -14.5 19q0 6 1 9q26 88 41.5 166.5t15.5 128.5q0 45 -12.5 65.5t-38.5 20.5q-35 0 -78 -36.5t-83 -104.5q-14 -118 -36 -246q-2 -15 -17.5 -21.5t-53.5 -6.5q-37 0 -51 6.5t-12 21.5l45 273q13 76 27 181l6 38q2 15 18 21t53 6q38 0 51.5 -6t11.5 -21
q-8 -44 -19 -96h10q51 66 102.5 97t97.5 31q116 0 116 -175q0 -130 -62 -349q-4 -15 -18.5 -21.5t-51.5 -6.5q-34 0 -48.5 6zM399 619.5q-23 17.5 -49 49.5q-15 20 -25.5 29.5t-23.5 9.5q-33 0 -60 -91q-3 -9 -16 -14t-30 -5q-21 0 -36.5 7t-12.5 19q21 93 62 139.5t96 46.5
q38 0 61.5 -17.5t49.5 -50.5q18 -22 27 -30.5t22 -8.5q18 0 32.5 22.5t28.5 68.5q3 10 15.5 15t29.5 5q21 0 36.5 -7.5t13.5 -19.5q-22 -94 -63 -139.5t-97 -45.5q-38 0 -61 17.5z" />
    <glyph glyph-name="ograve" unicode="&#xf2;" 
d="M113 48.5q-58 60.5 -58 179.5q0 91 33.5 162.5t97 112.5t151.5 41q113 0 170.5 -60.5t57.5 -179.5q0 -91 -33.5 -162.5t-97 -112.5t-150.5 -41q-113 0 -171 60.5zM212 132.5q25 -30.5 78 -30.5q72 0 107.5 58t35.5 145q0 65 -25 95t-78 30q-71 0 -107 -58t-36 -145
q0 -64 25 -94.5zM239.5 726.5q-2.5 4.5 -2.5 10.5q0 12 13 29.5t31.5 30t32.5 12.5q10 0 16 -6l134 -148q9 -11 9 -18q0 -15 -18.5 -33t-34.5 -18q-6 0 -11 3l-158 127q-9 6 -11.5 10.5z" />
    <glyph glyph-name="oacute" unicode="&#xf3;" 
d="M113 48.5q-58 60.5 -58 179.5q0 91 33.5 162.5t97 112.5t151.5 41q113 0 170.5 -60.5t57.5 -179.5q0 -91 -33.5 -162.5t-97 -112.5t-150.5 -41q-113 0 -171 60.5zM212 132.5q25 -30.5 78 -30.5q72 0 107.5 58t35.5 145q0 65 -25 95t-78 30q-71 0 -107 -58t-36 -145
q0 -64 25 -94.5zM319 586q-17 0 -33 19.5t-16 34.5q0 6 4.5 11.5t12.5 12.5l167 139q6 5 16 5q15 0 32 -12t28.5 -30t11.5 -33q0 -7 -4.5 -13t-16.5 -13l-191 -118q-6 -3 -11 -3z" />
    <glyph glyph-name="ocircumflex" unicode="&#xf4;" 
d="M113 48.5q-58 60.5 -58 179.5q0 91 33.5 162.5t97 112.5t151.5 41q113 0 170.5 -60.5t57.5 -179.5q0 -91 -33.5 -162.5t-97 -112.5t-150.5 -41q-113 0 -171 60.5zM212 132.5q25 -30.5 78 -30.5q72 0 107.5 58t35.5 145q0 65 -25 95t-78 30q-71 0 -107 -58t-36 -145
q0 -64 25 -94.5zM560 628q0 -13 -21 -28t-39 -15q-10 0 -16 6l-97 113l-134 -113q-6 -5 -17 -5q-18 0 -36 16t-18 32q0 5 13 18l135 130q11 11 28.5 16.5t37.5 5.5t36 -5.5t23 -16.5l98 -140q7 -10 7 -14z" />
    <glyph glyph-name="otilde" unicode="&#xf5;" 
d="M113 48.5q-58 60.5 -58 179.5q0 91 33.5 162.5t97 112.5t151.5 41q113 0 170.5 -60.5t57.5 -179.5q0 -91 -33.5 -162.5t-97 -112.5t-150.5 -41q-113 0 -171 60.5zM212 132.5q25 -30.5 78 -30.5q72 0 107.5 58t35.5 145q0 65 -25 95t-78 30q-71 0 -107 -58t-36 -145
q0 -64 25 -94.5zM400 619.5q-23 17.5 -49 49.5q-15 20 -25.5 29.5t-23.5 9.5q-33 0 -60 -91q-3 -9 -16 -14t-30 -5q-21 0 -36.5 7t-12.5 19q21 93 62 139.5t96 46.5q38 0 61.5 -17.5t49.5 -50.5q18 -22 27 -30.5t22 -8.5q18 0 32.5 22.5t28.5 68.5q3 10 15.5 15t29.5 5
q21 0 36.5 -7.5t13.5 -19.5q-22 -94 -63 -139.5t-97 -45.5q-38 0 -61 17.5z" />
    <glyph glyph-name="odieresis" unicode="&#xf6;" 
d="M113 48.5q-58 60.5 -58 179.5q0 91 33.5 162.5t97 112.5t151.5 41q113 0 170.5 -60.5t57.5 -179.5q0 -91 -33.5 -162.5t-97 -112.5t-150.5 -41q-113 0 -171 60.5zM212 132.5q25 -30.5 78 -30.5q72 0 107.5 58t35.5 145q0 65 -25 95t-78 30q-71 0 -107 -58t-36 -145
q0 -64 25 -94.5zM190 630q-17 11 -17 37q0 6 2 20q6 36 27 51.5t69 15.5q41 0 58.5 -11t17.5 -37q0 -5 -2 -19q-6 -37 -27.5 -52.5t-69.5 -15.5q-41 0 -58 11zM442.5 738.5q21.5 15.5 69.5 15.5q41 0 58 -11t17 -36q0 -6 -2 -20q-6 -37 -27 -52.5t-69 -15.5q-41 0 -58 11
t-17 36q0 5 2 21q5 36 26.5 51.5z" />
    <glyph glyph-name="ugrave" unicode="&#xf9;" 
d="M241.5 534q14.5 -6 14.5 -19q0 -6 -1 -9q-26 -88 -41.5 -166.5t-15.5 -128.5q0 -44 12.5 -65t38.5 -21q35 0 78 36.5t83 104.5q14 118 36 246q2 15 17.5 21.5t53.5 6.5q37 0 51 -6.5t12 -21.5l-45 -273q-13 -76 -27 -181l-6 -38q-2 -15 -18 -21t-53 -6q-38 0 -51.5 6
t-11.5 21q8 44 19 96h-10q-51 -66 -102.5 -97t-97.5 -31q-116 0 -116 175q0 130 62 349q4 15 18.5 21.5t51.5 6.5q34 0 48.5 -6zM233.5 726.5q-2.5 4.5 -2.5 10.5q0 12 13 29.5t31.5 30t32.5 12.5q10 0 16 -6l134 -148q9 -11 9 -18q0 -15 -18.5 -33t-34.5 -18q-6 0 -11 3
l-158 127q-9 6 -11.5 10.5z" />
    <glyph glyph-name="uacute" unicode="&#xfa;" 
d="M241.5 534q14.5 -6 14.5 -19q0 -6 -1 -9q-26 -88 -41.5 -166.5t-15.5 -128.5q0 -44 12.5 -65t38.5 -21q35 0 78 36.5t83 104.5q14 118 36 246q2 15 17.5 21.5t53.5 6.5q37 0 51 -6.5t12 -21.5l-45 -273q-13 -76 -27 -181l-6 -38q-2 -15 -18 -21t-53 -6q-38 0 -51.5 6
t-11.5 21q8 44 19 96h-10q-51 -66 -102.5 -97t-97.5 -31q-116 0 -116 175q0 130 62 349q4 15 18.5 21.5t51.5 6.5q34 0 48.5 -6zM312 586q-17 0 -33 19.5t-16 34.5q0 6 4.5 11.5t12.5 12.5l167 139q6 5 16 5q15 0 32 -12t28.5 -30t11.5 -33q0 -7 -4.5 -13t-16.5 -13
l-191 -118q-6 -3 -11 -3z" />
    <glyph glyph-name="ucircumflex" unicode="&#xfb;" 
d="M241.5 534q14.5 -6 14.5 -19q0 -6 -1 -9q-26 -88 -41.5 -166.5t-15.5 -128.5q0 -44 12.5 -65t38.5 -21q35 0 78 36.5t83 104.5q14 118 36 246q2 15 17.5 21.5t53.5 6.5q37 0 51 -6.5t12 -21.5l-45 -273q-13 -76 -27 -181l-6 -38q-2 -15 -18 -21t-53 -6q-38 0 -51.5 6
t-11.5 21q8 44 19 96h-10q-51 -66 -102.5 -97t-97.5 -31q-116 0 -116 175q0 130 62 349q4 15 18.5 21.5t51.5 6.5q34 0 48.5 -6zM554 628q0 -13 -21 -28t-39 -15q-10 0 -16 6l-97 113l-134 -113q-6 -5 -17 -5q-18 0 -36 16t-18 32q0 5 13 18l135 130q11 11 28.5 16.5
t37.5 5.5t36 -5.5t23 -16.5l98 -140q7 -10 7 -14z" />
    <glyph glyph-name="udieresis" unicode="&#xfc;" 
d="M241.5 534q14.5 -6 14.5 -19q0 -6 -1 -9q-26 -88 -41.5 -166.5t-15.5 -128.5q0 -44 12.5 -65t38.5 -21q35 0 78 36.5t83 104.5q14 118 36 246q2 15 17.5 21.5t53.5 6.5q37 0 51 -6.5t12 -21.5l-45 -273q-13 -76 -27 -181l-6 -38q-2 -15 -18 -21t-53 -6q-38 0 -51.5 6
t-11.5 21q8 44 19 96h-10q-51 -66 -102.5 -97t-97.5 -31q-116 0 -116 175q0 130 62 349q4 15 18.5 21.5t51.5 6.5q34 0 48.5 -6zM184 630q-17 11 -17 37q0 6 2 20q6 36 27 51.5t69 15.5q41 0 58.5 -11t17.5 -37q0 -5 -2 -19q-6 -37 -27.5 -52.5t-69.5 -15.5q-41 0 -58 11z
M436.5 738.5q21.5 15.5 69.5 15.5q41 0 58 -11t17 -36q0 -6 -2 -20q-6 -37 -27 -52.5t-69 -15.5q-41 0 -58 11t-17 36q0 5 2 21q5 36 26.5 51.5z" />
    <glyph glyph-name="yacute" unicode="&#xfd;" 
d="M43.5 -172.5q-19.5 31.5 -19.5 62.5q0 13 8 20.5t29 16.5q99 47 176 101l-3 14l-9 -1q-12 0 -21.5 9t-18.5 33q-31 80 -61 190.5t-40 187.5q-4 25 -4 43q0 16 33 28t69 12q18 0 25 -7.5t9 -28.5q9 -90 33.5 -197.5t57.5 -209.5h19q118 137 118 275q0 42 -17 125
q-4 19 22 31t66 12q22 0 32.5 -6.5t12.5 -22.5q12 -51 12 -114q0 -166 -111 -314.5t-324 -270.5q-36 -20 -53 -20q-21 0 -40.5 31.5zM318 586q-17 0 -33 19.5t-16 34.5q0 6 4.5 11.5t12.5 12.5l167 139q6 5 16 5q15 0 32 -12t28.5 -30t11.5 -33q0 -7 -4.5 -13t-16.5 -13
l-191 -118q-6 -3 -11 -3z" />
    <glyph glyph-name="Amacron" unicode="&#x100;" 
d="M13 -2.5q-16 5.5 -16 16.5q0 10 12 45q100 296 259 606q12 23 35.5 32t79.5 9q57 0 77.5 -9t24.5 -32q53 -292 58 -606q-1 -28 -3 -42q-2 -13 -18.5 -19t-53.5 -6q-34 0 -47 6t-13 23v62q0 58 2 85q-63 -5 -113 -5t-112 5q-24 -82 -47 -145q-7 -19 -22.5 -25t-50.5 -6
q-36 0 -52 5.5zM315 279q49 0 97 -3q-3 40 -11 111q-14 139 -22 208h-18q-41 -86 -85 -187q-13 -29 -27.5 -62t-31.5 -70q50 3 98 3zM215 801.5q-5 9.5 -5 24.5q0 22 10.5 45.5t29.5 23.5h344q21 0 21 -33q0 -22 -10.5 -46t-30.5 -24h-343q-11 0 -16 9.5z" />
    <glyph glyph-name="amacron" unicode="&#x101;" 
d="M436 -6.5q-8 7.5 -14 31.5q-10 43 -20 98h-14q-57 -70 -108.5 -102.5t-102.5 -32.5q-132 0 -132 193q0 108 35.5 189.5t104.5 127.5t167 46q56 0 105 -14.5t84 -41.5q22 -16 22 -40q0 -7 -1 -11q-2 -14 -4 -21q-12 -71 -23.5 -125t-29.5 -109q12 -27 24.5 -58.5
t17.5 -44.5q10 -27 10 -40q0 -20 -32.5 -36.5t-63.5 -16.5q-17 0 -25 7.5zM234 114q29 0 69 30t84 88q10 35 19 83t17 95q-36 20 -86 20q-73 0 -113.5 -62.5t-40.5 -156.5q0 -97 51 -97zM191 671q0 22 9.5 45.5t26.5 23.5h313q19 0 19 -33q0 -22 -9.5 -46t-27.5 -24h-312
q-19 0 -19 34z" />
    <glyph glyph-name="Abreve" unicode="&#x102;" 
d="M13 -2.5q-16 5.5 -16 16.5q0 10 12 45q100 296 259 606q12 23 35.5 32t79.5 9q57 0 77.5 -9t24.5 -32q53 -292 58 -606q-1 -28 -3 -42q-2 -13 -18.5 -19t-53.5 -6q-34 0 -47 6t-13 23v62q0 58 2 85q-63 -5 -113 -5t-112 5q-24 -82 -47 -145q-7 -19 -22.5 -25t-50.5 -6
q-36 0 -52 5.5zM315 279q49 0 97 -3q-3 40 -11 111q-14 139 -22 208h-18q-41 -86 -85 -187q-13 -29 -27.5 -62t-31.5 -70q50 3 98 3zM274.5 793q-44.5 41 -54.5 111q-3 15 24.5 28t50.5 13q19 0 20 -9q7 -44 28 -66t64 -22q42 0 71 22t53 66q5 9 25 9q27 0 53 -13t19 -28
q-38 -71 -97 -111.5t-135 -40.5q-77 0 -121.5 41z" />
    <glyph glyph-name="abreve" unicode="&#x103;" 
d="M436 -6.5q-8 7.5 -14 31.5q-10 43 -20 98h-14q-57 -70 -108.5 -102.5t-102.5 -32.5q-132 0 -132 193q0 108 35.5 189.5t104.5 127.5t167 46q56 0 105 -14.5t84 -41.5q22 -16 22 -40q0 -7 -1 -11q-2 -14 -4 -21q-12 -71 -23.5 -125t-29.5 -109q12 -27 24.5 -58.5
t17.5 -44.5q10 -27 10 -40q0 -20 -32.5 -36.5t-63.5 -16.5q-17 0 -25 7.5zM234 114q29 0 69 30t84 88q10 35 19 83t17 95q-36 20 -86 20q-73 0 -113.5 -62.5t-40.5 -156.5q0 -97 51 -97zM247.5 628q-40.5 41 -49.5 111q-2 15 22.5 28t46.5 13q17 0 18 -9q6 -44 25 -66
t58 -22t65.5 22t47.5 66q5 9 22 9q25 0 48.5 -13t17.5 -28q-34 -70 -87.5 -111t-123.5 -41t-110.5 41z" />
    <glyph glyph-name="Cacute" unicode="&#x106;" 
d="M125.5 53q-62.5 64 -62.5 207q0 105 35 208t112 171.5t196 68.5q72 0 124 -17.5t67 -43.5q10 -17 10 -83q0 -34 -4 -64q-4 -19 -25.5 -28.5t-54.5 -9.5q-28 0 -40 6t-11 21l3 79q-11 8 -34 12.5t-49 4.5q-69 0 -112 -51t-61 -121.5t-18 -134.5q0 -87 30 -124t91 -37
q70 0 157 38q6 3 12 3q20 0 32.5 -26t12.5 -54q0 -16 -5.5 -27t-18.5 -17q-41 -20 -96.5 -32.5t-106.5 -12.5q-121 0 -183.5 64zM321 751q-18 0 -35.5 19.5t-17.5 34.5q0 6 3.5 10t14.5 14l184 139q6 5 17 5q16 0 35 -12t32 -30t13 -33q0 -7 -5 -13t-18 -13l-210 -118
q-6 -3 -13 -3z" />
    <glyph glyph-name="cacute" unicode="&#x107;" 
d="M119 36.5q-52 48.5 -52 158.5q0 89 32 168.5t101 130t174 50.5q58 0 103.5 -12.5t63.5 -33.5q11 -12 16 -49.5t5 -78.5q0 -20 -22.5 -30.5t-58.5 -10.5q-25 0 -37.5 6t-12.5 20l1 56q-24 13 -67 13q-59 0 -95.5 -33t-52.5 -81t-16 -96q0 -54 21 -77t64 -23q76 0 170 72
q8 6 16 6q15 0 29.5 -15t24 -35.5t9.5 -34.5q0 -8 -4.5 -15t-15.5 -15q-55 -41 -118.5 -65t-127.5 -24q-98 0 -150 48.5zM318 586q-17 0 -33 19.5t-16 34.5q0 6 4.5 11.5t12.5 12.5l167 139q6 5 16 5q15 0 32 -12t28.5 -30t11.5 -33q0 -7 -4.5 -13t-16.5 -13l-191 -118
q-6 -3 -11 -3z" />
    <glyph glyph-name="Itilde" unicode="&#x128;" 
d="M70 31q0 30 10 64t30 34q50 0 113 -7q28 212 75 453q-65 -7 -115 -7q-19 0 -19 31q0 29 10.5 63.5t29.5 34.5h356q18 0 18 -31q0 -30 -10 -64t-30 -34q-50 0 -112 7q-29 -219 -75 -453q64 7 114 7q19 0 19 -31q0 -30 -10 -64t-30 -34h-356q-18 0 -18 31zM433.5 779.5
q-25.5 17.5 -53.5 49.5q-18 21 -29 30t-25 9q-36 0 -66 -91q-4 -9 -18 -14t-32 -5q-24 0 -40.5 7t-13.5 19q23 93 68 139.5t105 46.5q42 0 69 -18.5t54 -50.5q18 -20 29 -29t24 -9q20 0 36 22.5t31 68.5q3 10 17 15t33 5q24 0 41 -7.5t14 -19.5q-24 -93 -69.5 -139
t-106.5 -46q-42 0 -67.5 17.5z" />
    <glyph glyph-name="itilde" unicode="&#x129;" 
d="M213.5 22q-33.5 34 -33.5 101q0 47 14 125t35 152q-72 -5 -127 -5q-10 0 -14 7.5t-4 23.5q0 28 10 61.5t29 33.5h220q18 0 26 -6.5t8 -20.5q0 -9 -1 -14q-54 -226 -54 -306q0 -32 8 -45.5t27 -13.5q49 0 117 59q5 4 12 4q17 0 34.5 -26.5t17.5 -48.5q0 -11 -5.5 -19
t-17.5 -18q-43 -36 -96.5 -57t-108.5 -21q-63 0 -96.5 34zM370 619.5q-23 17.5 -49 49.5q-15 20 -25.5 29.5t-23.5 9.5q-33 0 -60 -91q-3 -9 -16 -14t-30 -5q-21 0 -36.5 7t-12.5 19q21 93 62 139.5t96 46.5q38 0 61.5 -17.5t49.5 -50.5q18 -22 27 -30.5t22 -8.5
q18 0 32.5 22.5t28.5 68.5q3 10 15.5 15t29.5 5q21 0 36.5 -7.5t13.5 -19.5q-22 -94 -63 -139.5t-97 -45.5q-38 0 -61 17.5z" />
    <glyph glyph-name="dotlessi" unicode="&#x131;" 
d="M213.5 22q-33.5 34 -33.5 101q0 47 14 125t35 152q-72 -5 -127 -5q-10 0 -14 7.5t-4 23.5q0 28 10 61.5t29 33.5h220q18 0 26 -6.5t8 -20.5q0 -9 -1 -14q-54 -226 -54 -306q0 -32 8 -45.5t27 -13.5q49 0 117 59q5 4 12 4q17 0 34.5 -26.5t17.5 -48.5q0 -11 -5.5 -19
t-17.5 -18q-43 -36 -96.5 -57t-108.5 -21q-63 0 -96.5 34z" />
    <glyph glyph-name="Nacute" unicode="&#x143;" 
d="M32 -1.5q-14 6.5 -12 21.5l109 650q3 19 24 27t68 8q45 0 60.5 -9.5t20.5 -38.5q77 -314 109 -514h15q6 98 26 261.5t38 272.5q3 28 73 28q39 0 53 -6.5t11 -21.5l-108 -650q-3 -19 -24.5 -27t-68.5 -8q-31 0 -46.5 4t-22.5 14t-11 30q-73 297 -109 514h-16
q-6 -97 -25.5 -259t-37.5 -275q-2 -15 -18.5 -21.5t-54.5 -6.5q-39 0 -53 6.5zM321 751q-18 0 -35.5 19.5t-17.5 34.5q0 6 3.5 10t14.5 14l184 139q6 5 17 5q16 0 35 -12t32 -30t13 -33q0 -7 -5 -13t-18 -13l-210 -118q-6 -3 -13 -3z" />
    <glyph glyph-name="nacute" unicode="&#x144;" 
d="M378.5 -2q-14.5 6 -14.5 19q0 6 1 9q26 88 41.5 166.5t15.5 128.5q0 45 -12.5 65.5t-38.5 20.5q-35 0 -78 -36.5t-83 -104.5q-14 -118 -36 -246q-2 -15 -17.5 -21.5t-53.5 -6.5q-37 0 -51 6.5t-12 21.5l45 273q13 76 27 181l6 38q2 15 18 21t53 6q38 0 51.5 -6t11.5 -21
q-8 -44 -19 -96h10q51 66 102.5 97t97.5 31q116 0 116 -175q0 -130 -62 -349q-4 -15 -18.5 -21.5t-51.5 -6.5q-34 0 -48.5 6zM318 586q-17 0 -33 19.5t-16 34.5q0 6 4.5 11.5t12.5 12.5l167 139q6 5 16 5q15 0 32 -12t28.5 -30t11.5 -33q0 -7 -4.5 -13t-16.5 -13l-191 -118
q-6 -3 -11 -3z" />
    <glyph glyph-name="Ncaron" unicode="&#x147;" 
d="M32 -1.5q-14 6.5 -12 21.5l109 650q3 19 24 27t68 8q45 0 60.5 -9.5t20.5 -38.5q77 -314 109 -514h15q6 98 26 261.5t38 272.5q3 28 73 28q39 0 53 -6.5t11 -21.5l-108 -650q-3 -19 -24.5 -27t-68.5 -8q-31 0 -46.5 4t-22.5 14t-11 30q-73 297 -109 514h-16
q-6 -97 -25.5 -259t-37.5 -275q-2 -15 -18.5 -21.5t-54.5 -6.5q-39 0 -53 6.5zM219 926q0 13 23 27.5t43 14.5q12 0 18 -6l106 -112l148 112q8 6 18 6q20 0 40 -16.5t20 -31.5q0 -3 -4.5 -8t-10.5 -10l-148 -131q-12 -10 -31 -15.5t-41 -5.5q-21 0 -39 5.5t-27 15.5
l-107 140q-8 11 -8 15z" />
    <glyph glyph-name="ncaron" unicode="&#x148;" 
d="M378.5 -2q-14.5 6 -14.5 19q0 6 1 9q26 88 41.5 166.5t15.5 128.5q0 45 -12.5 65.5t-38.5 20.5q-35 0 -78 -36.5t-83 -104.5q-14 -118 -36 -246q-2 -15 -17.5 -21.5t-53.5 -6.5q-37 0 -51 6.5t-12 21.5l45 273q13 76 27 181l6 38q2 15 18 21t53 6q38 0 51.5 -6t11.5 -21
q-8 -44 -19 -96h10q51 66 102.5 97t97.5 31q116 0 116 -175q0 -130 -62 -349q-4 -15 -18.5 -21.5t-51.5 -6.5q-34 0 -48.5 6zM203 761q0 13 21 27.5t39 14.5q10 0 16 -6l97 -112l134 112q8 6 17 6q18 0 36 -16.5t18 -31.5q0 -5 -13 -18l-135 -131q-10 -10 -27.5 -15.5
t-37.5 -5.5q-19 0 -35.5 5.5t-24.5 15.5l-98 140q-7 11 -7 15z" />
    <glyph glyph-name="Racute" unicode="&#x154;" 
d="M54 -1.5q-14 6.5 -12 21.5l58 345q15 91 28 131.5t31 63.5l2 16q-20 -5 -36 -5q-11 0 -15.5 5.5t-4.5 19.5q0 12 3 31q5 29 13.5 40.5t30.5 17.5q37 10 88 15t104 5q121 0 183 -53t62 -154q0 -73 -39 -137t-115 -108q33 -42 59.5 -87t42.5 -84q10 -24 10 -37t-19 -25.5
t-45 -20t-43 -7.5q-16 0 -23 8t-16 33q-29 90 -83 180q-46 -3 -111 6q-14 -123 -28 -199q-2 -15 -18 -21.5t-55 -6.5q-38 0 -52 6.5zM313 333q34 0 51 2q89 69 89 159q0 94 -116 94q-35 0 -67 -6q-12 -110 -41 -243q42 -6 84 -6zM321 751q-18 0 -35.5 19.5t-17.5 34.5
q0 6 3.5 10t14.5 14l184 139q6 5 17 5q16 0 35 -12t32 -30t13 -33q0 -7 -5 -13t-18 -13l-210 -118q-6 -3 -13 -3z" />
    <glyph glyph-name="racute" unicode="&#x155;" 
d="M81.5 -1q-13.5 6 -10.5 21l53 323q-20 120 -20 160q0 15 26.5 27t57.5 12q21 0 31 -4t11 -15q4 -25 9 -113h10q102 134 236 134q30 0 55 -7.5t35 -19.5q7 -10 12 -40.5t5 -65.5q0 -40 -6 -73q-3 -20 -24.5 -29t-54.5 -9q-30 0 -41 4.5t-12 15.5q0 41 3 92q-10 3 -23 3
q-108 0 -194 -137q-15 -132 -32 -233l-4 -25q-2 -15 -17.5 -21t-53.5 -6t-51.5 6zM319 586q-17 0 -33 19.5t-16 34.5q0 6 4.5 11.5t12.5 12.5l167 139q6 5 16 5q15 0 32 -12t28.5 -30t11.5 -33q0 -7 -4.5 -13t-16.5 -13l-191 -118q-6 -3 -11 -3z" />
    <glyph glyph-name="Rcaron" unicode="&#x158;" 
d="M54 -1.5q-14 6.5 -12 21.5l58 345q15 91 28 131.5t31 63.5l2 16q-20 -5 -36 -5q-11 0 -15.5 5.5t-4.5 19.5q0 12 3 31q5 29 13.5 40.5t30.5 17.5q37 10 88 15t104 5q121 0 183 -53t62 -154q0 -73 -39 -137t-115 -108q33 -42 59.5 -87t42.5 -84q10 -24 10 -37t-19 -25.5
t-45 -20t-43 -7.5q-16 0 -23 8t-16 33q-29 90 -83 180q-46 -3 -111 6q-14 -123 -28 -199q-2 -15 -18 -21.5t-55 -6.5q-38 0 -52 6.5zM313 333q34 0 51 2q89 69 89 159q0 94 -116 94q-35 0 -67 -6q-12 -110 -41 -243q42 -6 84 -6zM219 926q0 13 23 27.5t43 14.5q12 0 18 -6
l106 -112l148 112q8 6 18 6q20 0 40 -16.5t20 -31.5q0 -3 -4.5 -8t-10.5 -10l-148 -131q-12 -10 -31 -15.5t-41 -5.5q-21 0 -39 5.5t-27 15.5l-107 140q-8 11 -8 15z" />
    <glyph glyph-name="rcaron" unicode="&#x159;" 
d="M81.5 -1q-13.5 6 -10.5 21l53 323q-20 120 -20 160q0 15 26.5 27t57.5 12q21 0 31 -4t11 -15q4 -25 9 -113h10q102 134 236 134q30 0 55 -7.5t35 -19.5q7 -10 12 -40.5t5 -65.5q0 -40 -6 -73q-3 -20 -24.5 -29t-54.5 -9q-30 0 -41 4.5t-12 15.5q0 41 3 92q-10 3 -23 3
q-108 0 -194 -137q-15 -132 -32 -233l-4 -25q-2 -15 -17.5 -21t-53.5 -6t-51.5 6zM203 761q0 13 21 27.5t39 14.5q10 0 16 -6l97 -112l134 112q8 6 17 6q18 0 36 -16.5t18 -31.5q0 -5 -13 -18l-135 -131q-10 -10 -27.5 -15.5t-37.5 -5.5q-19 0 -35.5 5.5t-24.5 15.5l-98 140
q-7 11 -7 15z" />
    <glyph glyph-name="Sacute" unicode="&#x15a;" 
d="M162.5 -6q-46.5 9 -82.5 25q-18 8 -24.5 16t-6.5 20q0 21 9.5 44.5t23 36.5t24.5 7q74 -38 164 -38q59 0 94.5 23t35.5 67q0 31 -22.5 49.5t-79.5 35.5q-56 17 -93.5 38t-61.5 60.5t-24 103.5q0 107 69 168.5t190 61.5q58 0 111 -13.5t65 -29.5q6 -7 9.5 -28t3.5 -46
q0 -26 -3 -44q-7 -37 -82 -37q-25 0 -34 4.5t-9 16.5l1 50q-30 11 -71 11q-58 0 -87 -26.5t-29 -71.5q0 -38 23.5 -56.5t71.5 -32.5q96 -29 141 -75t45 -124q0 -68 -33.5 -119t-95.5 -78.5t-146 -27.5q-50 0 -96.5 9zM321 751q-18 0 -35.5 19.5t-17.5 34.5q0 6 3.5 10
t14.5 14l184 139q6 5 17 5q16 0 35 -12t32 -30t13 -33q0 -7 -5 -13t-18 -13l-210 -118q-6 -3 -13 -3z" />
    <glyph glyph-name="sacute" unicode="&#x15b;" 
d="M88 21q-11 5 -14.5 11t-3.5 17q0 15 7 36.5t18.5 35t23.5 8.5q79 -34 162 -34q103 0 103 56q0 22 -18.5 34.5t-67.5 23.5q-61 14 -97.5 28.5t-60.5 45t-24 83.5q0 88 64 133.5t168 45.5q102 0 173 -31q10 -5 14 -11.5t4 -17.5q0 -25 -13.5 -52.5t-31.5 -27.5q-2 0 -8 2
q-74 33 -143 33q-47 0 -71.5 -14.5t-24.5 -42.5q0 -25 19.5 -35.5t66.5 -20.5q96 -21 139.5 -57.5t43.5 -104.5q0 -87 -65.5 -132t-173.5 -45q-111 0 -189 33zM319 586q-17 0 -33 19.5t-16 34.5q0 6 4.5 11.5t12.5 12.5l167 139q6 5 16 5q15 0 32 -12t28.5 -30t11.5 -33
q0 -7 -4.5 -13t-16.5 -13l-191 -118q-6 -3 -11 -3z" />
    <glyph glyph-name="Scircumflex" unicode="&#x15c;" 
d="M162.5 -6q-46.5 9 -82.5 25q-18 8 -24.5 16t-6.5 20q0 21 9.5 44.5t23 36.5t24.5 7q74 -38 164 -38q59 0 94.5 23t35.5 67q0 31 -22.5 49.5t-79.5 35.5q-56 17 -93.5 38t-61.5 60.5t-24 103.5q0 107 69 168.5t190 61.5q58 0 111 -13.5t65 -29.5q6 -7 9.5 -28t3.5 -46
q0 -26 -3 -44q-7 -37 -82 -37q-25 0 -34 4.5t-9 16.5l1 50q-30 11 -71 11q-58 0 -87 -26.5t-29 -71.5q0 -38 23.5 -56.5t71.5 -32.5q96 -29 141 -75t45 -124q0 -68 -33.5 -119t-95.5 -78.5t-146 -27.5q-50 0 -96.5 9zM606 793q0 -13 -23 -27.5t-43 -14.5q-12 0 -18 6
l-106 112l-148 -112q-7 -6 -18 -6q-20 0 -40 16.5t-20 31.5q0 3 4.5 8t10.5 10l148 131q12 10 31.5 15.5t40.5 5.5q22 0 39.5 -5.5t26.5 -15.5l107 -140q8 -11 8 -15z" />
    <glyph glyph-name="scircumflex" unicode="&#x15d;" 
d="M88 21q-11 5 -14.5 11t-3.5 17q0 15 7 36.5t18.5 35t23.5 8.5q79 -34 162 -34q103 0 103 56q0 22 -18.5 34.5t-67.5 23.5q-61 14 -97.5 28.5t-60.5 45t-24 83.5q0 88 64 133.5t168 45.5q102 0 173 -31q10 -5 14 -11.5t4 -17.5q0 -25 -13.5 -52.5t-31.5 -27.5q-2 0 -8 2
q-74 33 -143 33q-47 0 -71.5 -14.5t-24.5 -42.5q0 -25 19.5 -35.5t66.5 -20.5q96 -21 139.5 -57.5t43.5 -104.5q0 -87 -65.5 -132t-173.5 -45q-111 0 -189 33zM560 628q0 -13 -21 -28t-39 -15q-10 0 -16 6l-97 113l-134 -113q-6 -5 -17 -5q-18 0 -36 16t-18 32q0 5 13 18
l135 130q11 11 28.5 16.5t37.5 5.5t36 -5.5t23 -16.5l98 -140q7 -10 7 -14z" />
    <glyph glyph-name="Scedilla" unicode="&#x15e;" 
d="M58.5 99.5q9.5 23.5 23 36.5t24.5 7q74 -38 164 -38q59 0 94.5 23t35.5 67q0 31 -22.5 49.5t-79.5 35.5q-56 17 -93.5 38t-61.5 60.5t-24 103.5q0 107 69 168.5t190 61.5q58 0 111 -13.5t65 -29.5q6 -7 9.5 -28t3.5 -46q0 -26 -3 -44q-7 -37 -82 -37q-25 0 -34 4.5
t-9 16.5l1 50q-30 11 -71 11q-58 0 -87 -26.5t-29 -71.5q0 -38 23.5 -56.5t71.5 -32.5q96 -29 141 -75t45 -124q0 -94 -62 -153t-170 -70l-1 -4l-55 -160q-4 -12 -19 -18t-35 -6q-25 0 -45 8.5t-20 21.5q0 8 13 29l72 129q-77 8 -132 32q-18 8 -24.5 16t-6.5 20
q0 21 9.5 44.5z" />
    <glyph glyph-name="scedilla" unicode="&#x15f;" 
d="M77 85.5q7 21.5 18.5 35t23.5 8.5q79 -34 162 -34q103 0 103 56q0 22 -18.5 34.5t-67.5 23.5q-61 14 -97.5 28.5t-60.5 45t-24 83.5q0 88 64 133.5t168 45.5q102 0 173 -31q10 -5 14 -11.5t4 -17.5q0 -25 -13.5 -52.5t-31.5 -27.5q-2 0 -8 2q-74 33 -143 33
q-47 0 -71.5 -14.5t-24.5 -42.5q0 -25 19.5 -35.5t66.5 -20.5q96 -21 139.5 -57.5t43.5 -104.5q0 -82 -57.5 -126.5t-154.5 -49.5l-2 -6l-55 -160q-4 -12 -19 -18t-35 -6q-25 0 -45 8.5t-20 21.5q0 8 13 29l74 133q-67 6 -127 30q-11 5 -14.5 11t-3.5 17q0 15 7 36.5z" />
    <glyph glyph-name="Utilde" unicode="&#x168;" 
d="M62 196q0 76 24 212t54 269q4 15 19.5 21.5t53.5 6.5q35 0 49.5 -5.5t14.5 -19.5q0 -6 -1 -9q-25 -103 -52.5 -251t-28.5 -210q0 -51 21.5 -72t65.5 -21q47 0 77 26t47 90q19 67 40.5 200.5t32.5 237.5q2 19 18 26.5t55 7.5t52 -6.5t13 -21.5q-13 -126 -36.5 -272.5
t-50.5 -232.5q-57 -184 -256 -184q-212 0 -212 208zM433.5 779.5q-25.5 17.5 -53.5 49.5q-18 21 -29 30t-25 9q-36 0 -66 -91q-4 -9 -18 -14t-32 -5q-24 0 -40.5 7t-13.5 19q23 93 68 139.5t105 46.5q42 0 69 -18.5t54 -50.5q18 -20 29 -29t24 -9q20 0 36 22.5t31 68.5
q3 10 17 15t33 5q24 0 41 -7.5t14 -19.5q-24 -93 -69.5 -139t-106.5 -46q-42 0 -67.5 17.5z" />
    <glyph glyph-name="utilde" unicode="&#x169;" 
d="M241.5 534q14.5 -6 14.5 -19q0 -6 -1 -9q-26 -88 -41.5 -166.5t-15.5 -128.5q0 -44 12.5 -65t38.5 -21q35 0 78 36.5t83 104.5q14 118 36 246q2 15 17.5 21.5t53.5 6.5q37 0 51 -6.5t12 -21.5l-45 -273q-13 -76 -27 -181l-6 -38q-2 -15 -18 -21t-53 -6q-38 0 -51.5 6
t-11.5 21q8 44 19 96h-10q-51 -66 -102.5 -97t-97.5 -31q-116 0 -116 175q0 130 62 349q4 15 18.5 21.5t51.5 6.5q34 0 48.5 -6zM394 619.5q-23 17.5 -49 49.5q-15 20 -25.5 29.5t-23.5 9.5q-33 0 -60 -91q-3 -9 -16 -14t-30 -5q-21 0 -36.5 7t-12.5 19q21 93 62 139.5
t96 46.5q38 0 61.5 -17.5t49.5 -50.5q18 -22 27 -30.5t22 -8.5q18 0 32.5 22.5t28.5 68.5q3 10 15.5 15t29.5 5q21 0 36.5 -7.5t13.5 -19.5q-22 -94 -63 -139.5t-97 -45.5q-38 0 -61 17.5z" />
    <glyph glyph-name="Wcircumflex" unicode="&#x174;" 
d="M93.5 -2.5q-12.5 4.5 -17.5 16t-6 36.5q-2 56 -2 95q0 130 9.5 289.5t21.5 243.5q2 14 18.5 21t51.5 7q34 0 47.5 -6.5t11.5 -22.5q-48 -299 -60 -557h16q54 109 92 227q6 81 15 144q5 32 61 32t51 -32q-7 -39 -33 -144q0 -117 17 -227h16q80 288 125 557q3 16 19 22.5
t51 6.5t48.5 -7t11.5 -21q-21 -110 -78.5 -310.5t-102.5 -317.5q-13 -36 -27.5 -46.5t-52.5 -10.5q-39 0 -51.5 9.5t-15.5 37.5q-9 83 -9 172q0 29 2 81h-15q-39 -137 -89 -253q-13 -28 -29.5 -37.5t-57.5 -9.5q-26 0 -38.5 4.5zM606 793q0 -13 -23 -27.5t-43 -14.5
q-12 0 -18 6l-106 112l-148 -112q-7 -6 -18 -6q-20 0 -40 16.5t-20 31.5q0 3 4.5 8t10.5 10l148 131q12 10 31.5 15.5t40.5 5.5q22 0 39.5 -5.5t26.5 -15.5l107 -140q8 -11 8 -15z" />
    <glyph glyph-name="wcircumflex" unicode="&#x175;" 
d="M83 4.5q-12 10.5 -13 45.5q-4 48 -4 123q0 139 14 295l5 44q2 14 17.5 21t48.5 7q34 0 46.5 -6.5t9.5 -22.5q-35 -209 -41 -394h16q49 78 81 158q6 81 12 112q3 17 17 25t42 8t39.5 -8t9.5 -25q-21 -92 -26 -112q6 -82 28 -158h16q58 190 92 394q2 16 17.5 22.5t48.5 6.5
q31 0 44 -6t13 -18t-9 -48q-24 -103 -59.5 -219t-69.5 -199q-13 -35 -27.5 -45.5t-52.5 -10.5q-28 0 -41.5 4t-19 13.5t-8.5 30.5q-17 80 -19 171h-15q-29 -86 -75 -171q-15 -29 -31 -38.5t-56 -9.5q-38 0 -50 10.5zM560 628q0 -13 -21 -28t-39 -15q-10 0 -16 6l-97 113
l-134 -113q-6 -5 -17 -5q-18 0 -36 16t-18 32q0 5 13 18l135 130q11 11 28.5 16.5t37.5 5.5t36 -5.5t23 -16.5l98 -140q7 -10 7 -14z" />
    <glyph glyph-name="Ycircumflex" unicode="&#x176;" 
d="M200 20q20 117 48 246q-91 174 -133 371q-3 17 -3 22q0 17 33 32t66 15q18 0 25.5 -8t9.5 -26q10 -67 28.5 -141t41.5 -139h15q88 127 164 280q8 18 18.5 26t28.5 8q38 0 67.5 -12t29.5 -29q0 -11 -10 -29q-112 -205 -256 -369q-18 -149 -35 -247q-4 -28 -73 -28t-65 28z
M606 793q0 -13 -23 -27.5t-43 -14.5q-12 0 -18 6l-106 112l-148 -112q-7 -6 -18 -6q-20 0 -40 16.5t-20 31.5q0 3 4.5 8t10.5 10l148 131q12 10 31.5 15.5t40.5 5.5q22 0 39.5 -5.5t26.5 -15.5l107 -140q8 -11 8 -15z" />
    <glyph glyph-name="Zacute" unicode="&#x179;" 
d="M12 34q0 11 3 26q5 35 15.5 57t35.5 51q188 220 363 392l3 15q-161 -7 -286 -7q-18 0 -18 31q0 30 10 64t30 34h421q25 0 25 -34q0 -12 -3 -27q-5 -34 -15.5 -56t-35.5 -51q-183 -214 -364 -392l-2 -15q175 7 327 7q19 0 19 -31q0 -30 -10 -64t-30 -34h-463q-25 0 -25 34
zM321 751q-18 0 -35.5 19.5t-17.5 34.5q0 6 3.5 10t14.5 14l184 139q6 5 17 5q16 0 35 -12t32 -30t13 -33q0 -7 -5 -13t-18 -13l-210 -118q-6 -3 -13 -3z" />
    <glyph glyph-name="zacute" unicode="&#x17a;" 
d="M281.5 -25.5q-83.5 24.5 -141.5 63.5l-46 -44q-7 -6 -17 -6q-18 0 -35 18t-17 38q0 12 8 22.5t34 35.5l314 302v9h-257q-19 0 -19 30q0 27 10 58t28 31h394q13 0 19 -8t6 -25q0 -38 -12.5 -60.5t-45.5 -53.5l-271 -260v-9q97 -38 211 -43q8 60 9 85q2 24 45 24
q26 0 43.5 -7.5t16.5 -25.5q-2 -26 -13 -71.5t-22 -74.5q-12 -30 -29 -41.5t-55 -11.5q-74 0 -157.5 24.5zM319 586q-17 0 -33 19.5t-16 34.5q0 6 4.5 11.5t12.5 12.5l167 139q6 5 16 5q15 0 32 -12t28.5 -30t11.5 -33q0 -7 -4.5 -13t-16.5 -13l-191 -118q-6 -3 -11 -3z" />
    <glyph glyph-name="Zdotaccent" unicode="&#x17b;" 
d="M12 34q0 11 3 26q5 35 15.5 57t35.5 51q188 220 363 392l3 15q-161 -7 -286 -7q-18 0 -18 31q0 30 10 64t30 34h421q25 0 25 -34q0 -12 -3 -27q-5 -34 -15.5 -56t-35.5 -51q-183 -214 -364 -392l-2 -15q175 7 327 7q19 0 19 -31q0 -30 -10 -64t-30 -34h-463q-25 0 -25 34
zM331 785.5q-20 11.5 -20 37.5q0 5 2 19q6 36 31 51.5t82 15.5q49 0 69 -12t20 -39q0 -10 -1 -16q-7 -37 -32.5 -52.5t-81.5 -15.5q-49 0 -69 11.5z" />
    <glyph glyph-name="zcaron" unicode="&#x17e;" 
d="M281.5 -25.5q-83.5 24.5 -141.5 63.5l-46 -44q-7 -6 -17 -6q-18 0 -35 18t-17 38q0 12 8 22.5t34 35.5l314 302v9h-257q-19 0 -19 30q0 27 10 58t28 31h394q13 0 19 -8t6 -25q0 -38 -12.5 -60.5t-45.5 -53.5l-271 -260v-9q97 -38 211 -43q8 60 9 85q2 24 45 24
q26 0 43.5 -7.5t16.5 -25.5q-2 -26 -13 -71.5t-22 -74.5q-12 -30 -29 -41.5t-55 -11.5q-74 0 -157.5 24.5zM203 761q0 13 21 27.5t39 14.5q10 0 16 -6l97 -112l134 112q8 6 17 6q18 0 36 -16.5t18 -31.5q0 -5 -13 -18l-135 -131q-10 -10 -27.5 -15.5t-37.5 -5.5
q-19 0 -35.5 5.5t-24.5 15.5l-98 140q-7 11 -7 15z" />
    <glyph glyph-name="uni0401" unicode="&#x401;" 
d="M74 11q-9 11 -6 32l53 323q15 90 28 130.5t32 64.5l2 16q-25 -3 -37 -3q-18 0 -18 30q0 28 10 60.5t28 32.5h424q18 0 18 -30q0 -29 -9.5 -61t-28.5 -32q-126 0 -280 7q-5 -75 -28 -172q142 6 242 6q10 0 14 -7t4 -22q0 -27 -9.5 -57.5t-27.5 -30.5q-100 0 -241 5
q-7 -90 -31 -187q157 7 287 7q17 0 17 -30q0 -29 -9.5 -61t-28.5 -32h-375q-21 0 -30 11zM204.5 785q-18.5 11 -18.5 36q0 5 2 21q6 36 29.5 51.5t75.5 15.5q46 0 65 -11.5t19 -36.5q0 -5 -2 -19q-7 -37 -31 -52.5t-76 -15.5q-45 0 -63.5 11zM481.5 893.5
q23.5 15.5 76.5 15.5q45 0 64 -11.5t19 -36.5q0 -5 -2 -19q-7 -37 -30.5 -52.5t-75.5 -15.5q-45 0 -63.5 11t-18.5 36q0 5 2 21q5 36 28.5 51.5z" />
    <glyph glyph-name="uni040E" unicode="&#x40e;" 
d="M44 -6q-10 2 -15 12.5t-5 32.5q0 33 8.5 55.5t23.5 22.5q7 0 20 -2t24 -2q57 0 98 23.5t77 74.5l-2 8q-31 -6 -53 -6q-10 0 -16 7t-11 23q-36 111 -63.5 243t-27.5 174q0 20 30.5 32.5t69.5 12.5q18 0 27 -8.5t10 -27.5q7 -82 26 -178.5t44 -186.5h20q95 179 169 365
q8 21 16 28.5t21 7.5q39 0 73.5 -13.5t34.5 -30.5q0 -9 -11 -33q-33 -74 -87.5 -181.5t-99.5 -189.5q-79 -145 -157.5 -207t-180.5 -62q-39 0 -63 6zM278 794.5q-41 42.5 -45 117.5q-1 13 23.5 24t47.5 11t23 -11q2 -49 18 -72t57 -23t64.5 23t42.5 72q4 11 28 11
q25 0 48.5 -11t17.5 -24q-28 -75 -83.5 -117.5t-127.5 -42.5q-73 0 -114 42.5z" />
    <glyph glyph-name="uni0410" unicode="&#x410;" 
d="M13 -2.5q-16 5.5 -16 16.5q0 10 12 45q100 296 259 606q12 23 35.5 32t79.5 9q57 0 77.5 -9t24.5 -32q53 -292 58 -606q-1 -28 -3 -42q-2 -13 -18.5 -19t-53.5 -6q-34 0 -47 6t-13 23v62q0 58 2 85q-63 -5 -113 -5t-112 5q-24 -82 -47 -145q-7 -19 -22.5 -25t-50.5 -6
q-36 0 -52 5.5zM315 279q49 0 97 -3q-3 40 -11 111q-14 139 -22 208h-18q-41 -86 -85 -187q-13 -29 -27.5 -62t-31.5 -70q50 3 98 3z" />
    <glyph glyph-name="uni0411" unicode="&#x411;" 
d="M164 0.5q-54 8.5 -86 20.5q-14 5 -20 12.5t-6 19.5q0 9 1 14l49 299q15 90 28 130.5t32 64.5l2 16q-25 -3 -37 -3q-9 0 -13.5 6t-4.5 21q0 12 3 31q5 35 13 50t22 15h424q17 0 17 -28q0 -12 -3 -33q-5 -35 -13.5 -51.5t-22.5 -16.5q-138 0 -278 7q-5 -72 -25 -153
q48 6 76 6q236 0 236 -189q0 -64 -29.5 -120t-95 -91.5t-167.5 -35.5q-48 0 -102 8.5zM273 109q80 0 114 37t34 93q0 43 -28.5 63.5t-89.5 20.5q-41 0 -73 -6q-12 -98 -34 -199q38 -9 77 -9z" />
    <glyph glyph-name="uni0412" unicode="&#x412;" 
d="M152.5 0q-54.5 8 -85.5 22q-14 5 -20.5 12.5t-6.5 19.5q0 4 2 14l50 297q15 91 27.5 131.5t30.5 63.5l3 16q-21 -5 -36 -5q-11 0 -16 5t-5 19q0 4 4 32q5 30 13.5 41t29.5 17q37 10 90 15t107 5q238 0 238 -166q0 -117 -112 -178l-3 -15q91 -34 91 -138
q0 -106 -80.5 -161t-206.5 -55q-60 0 -114.5 8zM269 98q66 0 107.5 28t41.5 82q0 44 -29 67.5t-85 23.5q-46 0 -91 -6q-10 -98 -29 -181q30 -14 85 -14zM352 391q41 23 64 56t23 71q0 81 -108 81q-39 0 -67 -4q-9 -92 -36 -209q72 8 124 5z" />
    <glyph glyph-name="uni0413" unicode="&#x413;" 
d="M91 -1.5q-14 6.5 -12 21.5l58 346q15 91 28 131.5t31 63.5l2 16q-25 -3 -37 -3q-18 0 -18 30q0 28 10 60.5t29 32.5h415q18 0 18 -31q0 -30 -10 -64t-30 -34q-130 0 -274 7q-27 -217 -85 -555q-2 -15 -18 -21.5t-55 -6.5q-38 0 -52 6.5z" />
    <glyph glyph-name="uni0414" unicode="&#x414;" 
d="M-28 -152.5q-14 6.5 -12 20.5l36 217q8 44 50 44h5q48 52 83.5 151t67.5 291q-19 -3 -31 -3q-18 0 -18 31q0 30 10 64t30 34h377q21 0 30 -11t6 -32q-33 -197 -57 -313.5t-53 -211.5h32q21 0 30 -11.5t6 -32.5l-36 -217q-2 -14 -18.5 -20.5t-54.5 -6.5q-39 0 -53 6.5
t-11 20.5q6 49 29 137q-88 -5 -155 -5q-65 0 -152 5q-5 -76 -16 -137q-2 -14 -18.5 -20.5t-54.5 -6.5t-52 6.5zM280 129q59 0 106 -4q25 215 76 446q-37 -3 -76 -3q-37 0 -75 3q-4 -42 -8 -63q-24 -148 -58.5 -239t-82.5 -145q65 5 118 5z" />
    <glyph glyph-name="uni0415" unicode="&#x415;" 
d="M74 11q-9 11 -6 32l53 323q15 90 28 130.5t32 64.5l2 16q-25 -3 -37 -3q-18 0 -18 30q0 28 10 60.5t28 32.5h424q18 0 18 -30q0 -29 -9.5 -61t-28.5 -32q-126 0 -280 7q-5 -75 -28 -172q142 6 242 6q10 0 14 -7t4 -22q0 -27 -9.5 -57.5t-27.5 -30.5q-100 0 -241 5
q-7 -90 -31 -187q157 7 287 7q17 0 17 -30q0 -29 -9.5 -61t-28.5 -32h-375q-21 0 -30 11z" />
    <glyph glyph-name="uni0416" unicode="&#x416;" 
d="M447.5 -1.5q-5.5 6.5 -7.5 24.5q-10 146 -46 275q-8 -1 -30 -1q-15 -170 -33 -277q-2 -15 -16.5 -21.5t-47.5 -6.5t-45.5 6.5t-9.5 21.5q12 81 59 277q-22 0 -30 1q-80 -134 -134 -275q-8 -18 -15.5 -24.5t-23.5 -6.5q-29 0 -57.5 12t-28.5 28q0 13 19 54q31 67 76.5 149
t88.5 142q-22 52 -40.5 120.5t-26.5 122.5q-3 25 -3 48q0 17 25.5 27t54.5 10q19 0 26 -7t8 -24q11 -136 46 -259q18 -2 30 -2q14 157 30 264q2 15 16.5 21.5t47.5 6.5q34 0 46 -6.5t10 -21.5q-17 -104 -58 -264q13 0 31 2q74 124 129 259q7 18 16 24.5t27 6.5
q26 0 50.5 -10.5t24.5 -27.5q0 -13 -18 -56q-26 -56 -69 -129t-82 -126q24 -61 43 -138.5t28 -139.5q3 -22 3 -36q0 -11 -1 -16q-3 -16 -32.5 -25t-58.5 -9q-16 0 -21.5 6.5z" />
    <glyph glyph-name="uni0417" unicode="&#x417;" 
d="M158.5 -6q-47.5 9 -82.5 25q-18 8 -25 16t-7 20q0 29 16.5 62.5t33.5 33.5q6 0 28 -10q31 -15 62.5 -24.5t73.5 -9.5q67 0 104.5 24.5t37.5 66.5q0 32 -20 55.5t-63 40.5q-58 -7 -110 -7q-25 0 -25 38q0 28 10.5 57.5t34.5 29.5q20 0 55.5 -4t63.5 -9q46 27 70.5 55
t24.5 61q0 34 -25.5 51t-78.5 17q-37 0 -66 -9l-15 -47q-3 -11 -9.5 -16t-18.5 -5q-40 0 -65.5 9t-25.5 26q0 22 18 69.5t34 60.5q16 14 65.5 24.5t101.5 10.5q105 0 161.5 -40t56.5 -113q0 -58 -34.5 -108t-97.5 -87l-3 -15q47 -22 70 -57t23 -87q0 -64 -35.5 -112.5
t-98 -75t-141.5 -26.5q-51 0 -98.5 9z" />
    <glyph glyph-name="uni0418" unicode="&#x418;" 
d="M256 698.5q14 -6.5 12 -21.5q-20 -113 -54 -275t-60 -259h15q101 207 272 514q17 29 35.5 38.5t63.5 9.5q50 0 70 -8t16 -27l-108 -650q-2 -15 -18 -21.5t-55 -6.5q-35 0 -51 7t-14 21q19 110 53.5 273t61.5 261h-15q-117 -238 -273 -514q-16 -29 -34.5 -38.5t-63.5 -9.5
q-50 0 -70 8t-17 27l108 650q2 15 18.5 21.5t55.5 6.5q38 0 52 -6.5z" />
    <glyph glyph-name="uni0419" unicode="&#x419;" 
d="M256 698.5q14 -6.5 12 -21.5q-20 -113 -54 -275t-60 -259h15q101 207 272 514q17 29 35.5 38.5t63.5 9.5q50 0 70 -8t16 -27l-108 -650q-2 -15 -18 -21.5t-55 -6.5q-35 0 -51 7t-14 21q19 110 53.5 273t61.5 261h-15q-117 -238 -273 -514q-16 -29 -34.5 -38.5t-63.5 -9.5
q-50 0 -70 8t-17 27l108 650q2 15 18.5 21.5t55.5 6.5q38 0 52 -6.5zM278 794.5q-41 42.5 -45 117.5q-1 13 23.5 24t47.5 11t23 -11q2 -49 18 -72t57 -23t64.5 23t42.5 72q4 11 28 11q25 0 48.5 -11t17.5 -24q-28 -75 -83.5 -117.5t-127.5 -42.5q-73 0 -114 42.5z" />
    <glyph glyph-name="uni041A" unicode="&#x41a;" 
d="M409.5 -1.5q-6.5 6.5 -11.5 24.5q-19 68 -51 137.5t-73 131.5q-40 -4 -67 -5q-20 -154 -38 -267q-2 -15 -18 -21.5t-55 -6.5q-38 0 -52 6.5t-12 21.5l109 657q3 15 19 21.5t54 6.5q39 0 52.5 -6.5t11.5 -21.5q-19 -119 -50 -262q31 2 62 6q101 122 180 254
q10 17 18.5 23.5t23.5 6.5q35 0 69.5 -14.5t34.5 -32.5q0 -15 -19 -42q-37 -58 -98 -134t-118 -132q48 -60 89 -134t60 -134q8 -22 8 -37q0 -21 -38.5 -37t-69.5 -16q-14 0 -20.5 6.5z" />
    <glyph glyph-name="uni041B" unicode="&#x41b;" 
d="M31 8q-18 16 -30 38t-12 38q0 19 22 33q47 31 81.5 79t64 137t57.5 238q-19 -3 -31 -3q-18 0 -18 31q0 30 10 64t30 34h377q21 0 30 -11t6 -32l-106 -634q-2 -15 -18 -21.5t-55 -6.5q-38 0 -52 6.5t-12 21.5l12 70q54 320 87 481q-37 -3 -76 -3q-37 0 -75 3
q-5 -43 -12 -86q-23 -144 -55 -238.5t-72.5 -152t-95.5 -94.5q-12 -8 -22 -8q-17 0 -35 16z" />
    <glyph glyph-name="uni041C" unicode="&#x41c;" 
d="M15 -0.5q-13 7.5 -11 21.5q26 155 61.5 334t69.5 311q5 22 27 31t69 9q42 0 58 -9t16 -32q9 -115 9 -238q0 -55 -1 -82h16q53 171 114 320q8 23 28 32t63 9q47 0 66.5 -9t17.5 -31q-11 -136 -34.5 -316t-48.5 -329q-2 -14 -17.5 -21.5t-49.5 -7.5t-47 6.5t-11 21.5
q53 269 94 553h-16q-63 -148 -117 -312q-5 -17 -20.5 -25t-46.5 -8q-30 0 -43 7.5t-13 23.5q0 123 -13 314h-16q-50 -253 -91 -553q-3 -15 -18 -21.5t-48 -6.5q-34 0 -47 7.5z" />
    <glyph glyph-name="uni041D" unicode="&#x41d;" 
d="M37.5 -1.5q-14.5 6.5 -11.5 21.5l109 657q2 15 18.5 21.5t54.5 6.5t52.5 -6.5t12.5 -21.5q-28 -155 -51 -260q65 5 114 5q50 0 112 -5q13 117 32 237l4 23q2 15 18.5 21.5t54.5 6.5q39 0 53 -6.5t12 -21.5l-110 -657q-2 -15 -18 -21.5t-55 -6.5q-38 0 -52 6.5t-12 21.5
q21 131 54 279q-51 -4 -114 -4q-61 0 -112 4q-14 -119 -40 -279q-2 -15 -18 -21.5t-55 -6.5q-38 0 -52.5 6.5z" />
    <glyph glyph-name="uni041E" unicode="&#x41e;" 
d="M107 58q-57 70 -57 220q0 102 29.5 200t100 164.5t185.5 66.5q119 0 176 -70t57 -220q0 -102 -29.5 -200t-100 -164.5t-185.5 -66.5q-119 0 -176 70zM212 148.5q26 -37.5 84 -37.5t95.5 48.5t54.5 120t17 143.5q0 88 -26 125.5t-84 37.5t-95.5 -48.5t-54.5 -120
t-17 -143.5q0 -88 26 -125.5z" />
    <glyph glyph-name="uni041F" unicode="&#x41f;" 
d="M37.5 -1.5q-14.5 6.5 -11.5 21.5l57 346q15 91 28 131.5t31 63.5l3 16q-25 -3 -37 -3q-18 0 -18 30q0 28 10 60.5t28 32.5h454q21 0 30 -11t6 -32l-106 -634q-2 -15 -18 -21.5t-55 -6.5q-38 0 -52 6.5t-12 21.5l13 75q50 299 86 477q-76 -4 -114 -4q-36 0 -112 4
q-28 -215 -85 -552q-2 -15 -18 -21.5t-55 -6.5q-38 0 -52.5 6.5z" />
    <glyph glyph-name="uni0420" unicode="&#x420;" 
d="M57 -1.5q-14 6.5 -12 21.5l55 333q15 90 28 130.5t31 64.5l3 16q-20 -5 -36 -5q-10 0 -15 6t-5 20q0 16 4 36q5 33 13.5 45.5t30.5 18.5q38 9 91.5 14.5t104.5 5.5q124 0 186 -56t62 -166q0 -76 -30 -142t-96.5 -107.5t-170.5 -41.5q-42 0 -94 10q-17 -143 -25 -182
q-2 -15 -18 -21.5t-55 -6.5q-38 0 -52 6.5zM307 309q83 0 118.5 48.5t35.5 120.5q0 57 -28.5 83.5t-89.5 26.5q-38 0 -70 -8q-11 -109 -44 -262q38 -9 78 -9z" />
    <glyph glyph-name="uni0421" unicode="&#x421;" 
d="M125.5 53q-62.5 64 -62.5 207q0 105 35 208t112 171.5t196 68.5q72 0 124 -17.5t67 -43.5q10 -17 10 -83q0 -34 -4 -64q-4 -19 -25.5 -28.5t-54.5 -9.5q-28 0 -40 6t-11 21l3 79q-11 8 -34 12.5t-49 4.5q-69 0 -112 -51t-61 -121.5t-18 -134.5q0 -87 30 -124t91 -37
q70 0 157 38q6 3 12 3q20 0 32.5 -26t12.5 -54q0 -16 -5.5 -27t-18.5 -17q-41 -20 -96.5 -32.5t-106.5 -12.5q-121 0 -183.5 64z" />
    <glyph glyph-name="uni0422" unicode="&#x422;" 
d="M212.5 -1.5q-14.5 6.5 -12.5 21.5l12 71q55 324 88 484q-103 -7 -183 -7q-19 0 -19 31q0 30 10 64t30 34h487q19 0 19 -31q0 -30 -10 -64t-30 -34q-64 0 -181 7q-27 -217 -85 -555q-2 -15 -18 -21.5t-55 -6.5q-38 0 -52.5 6.5z" />
    <glyph glyph-name="uni0423" unicode="&#x423;" 
d="M44 -6q-10 2 -15 12.5t-5 32.5q0 33 8.5 55.5t23.5 22.5q7 0 20 -2t24 -2q57 0 98 23.5t77 74.5l-2 8q-31 -6 -53 -6q-10 0 -16 7t-11 23q-36 111 -63.5 243t-27.5 174q0 20 30.5 32.5t69.5 12.5q18 0 27 -8.5t10 -27.5q7 -82 26 -178.5t44 -186.5h20q95 179 169 365
q8 21 16 28.5t21 7.5q39 0 73.5 -13.5t34.5 -30.5q0 -9 -11 -33q-33 -74 -87.5 -181.5t-99.5 -189.5q-79 -145 -157.5 -207t-180.5 -62q-39 0 -63 6z" />
    <glyph glyph-name="uni0424" unicode="&#x424;" 
d="M211 -8.5q-14 6.5 -12 20.5q5 31 16 66q-89 14 -131 69t-42 156q0 128 60.5 216t202.5 103q2 36 6 63q2 14 18.5 20.5t54.5 6.5q39 0 53 -6.5t12 -20.5q-8 -38 -16 -65q88 -15 130 -69.5t42 -155.5q0 -128 -60.5 -216.5t-202.5 -103.5q0 -37 -6 -63q-2 -14 -18.5 -20.5
t-54.5 -6.5t-52 6.5zM180.5 216q20.5 -28 67.5 -36q23 182 56 337q-83 -14 -113.5 -71.5t-30.5 -144.5q0 -57 20.5 -85zM456.5 253q31.5 58 31.5 143q0 56 -20.5 84t-67.5 36q-25 -186 -56 -335q81 14 112.5 72z" />
    <glyph glyph-name="uni0425" unicode="&#x425;" 
d="M34.5 4q-32.5 16 -32.5 36q0 14 18 43q42 69 102 150.5t115 141.5q-31 57 -61.5 126.5t-47.5 121.5q-6 24 -6 33q0 22 34.5 37.5t65.5 15.5q14 0 20.5 -7.5t10.5 -28.5q33 -123 76 -221h21q82 118 137 221q11 21 20 28.5t22 7.5q35 0 67 -16t32 -37q0 -11 -19 -43
q-36 -56 -90.5 -130t-102.5 -129q36 -62 69 -139t53 -141q6 -27 6 -32q0 -24 -35.5 -39t-67.5 -15q-12 0 -19 7.5t-11 29.5q-29 129 -88 252h-20q-92 -122 -161 -252q-11 -22 -20 -29.5t-21 -7.5q-34 0 -66.5 16z" />
    <glyph glyph-name="uni0426" unicode="&#x426;" 
d="M401 -152.5q-14 6.5 -12 20.5q13 73 31 139q-124 -7 -354 -7q-18 0 -27.5 8.5t-9.5 23.5q0 7 1 11l105 634q2 15 18.5 21.5t54.5 6.5t52.5 -6.5t12.5 -21.5q-7 -45 -13 -74q-50 -299 -86 -477q57 3 113 3q53 0 104 -3q30 219 86 551q2 15 18 21.5t55 6.5q38 0 52 -6.5
t12 -21.5q-37 -224 -61.5 -345.5t-51.5 -204.5q15 2 33 2q35 0 29 -44l-36 -217q-3 -14 -19.5 -20.5t-54.5 -6.5t-52 6.5z" />
    <glyph glyph-name="uni0427" unicode="&#x427;" 
d="M368 -1.5q-14 6.5 -12 21.5q16 103 50 260q-55 -18 -118 -18q-98 0 -149 46.5t-51 136.5q0 35 13 102.5t28 129.5q3 15 18.5 21.5t53.5 6.5q35 0 50 -5.5t15 -19.5q0 -6 -1 -9q-12 -49 -24 -112t-12 -85q0 -43 22.5 -63t69.5 -20q51 0 106 16q20 169 39 270q2 15 18 21.5
t55 6.5q38 0 52 -6.5t12 -21.5l-110 -657q-2 -15 -18 -21.5t-54 -6.5q-39 0 -53 6.5z" />
    <glyph glyph-name="uni0428" unicode="&#x428;" 
d="M23 11q-9 11 -6 32l106 634q2 15 16.5 21.5t46.5 6.5q33 0 45 -6.5t10 -21.5q-62 -370 -99 -553q34 2 102 4q15 120 38 266t46 283q2 15 14.5 21.5t40.5 6.5t38 -6.5t8 -21.5q-48 -303 -98 -549q66 -2 101 -4q13 108 33.5 237t40.5 252l10 64q2 15 16 21.5t47 6.5
t45.5 -6.5t9.5 -21.5l-105 -634q-4 -20 -17 -31.5t-34 -11.5h-425q-21 0 -30 11z" />
    <glyph glyph-name="uni0429" unicode="&#x429;" 
d="M402 -152.5q-14 6.5 -11 20.5q7 50 30 139q-128 -7 -368 -7q-18 0 -27.5 8.5t-9.5 23.5q0 7 1 11l106 634q2 15 16.5 21.5t46.5 6.5q33 0 45 -6.5t10 -21.5l-18 -108q-5 -27 -30 -172.5t-51 -272.5q32 2 96 4q17 131 40 277t28 174l16 98q2 15 14 21.5t38 6.5t36 -6.5
t8 -21.5q-53 -321 -99 -549q48 0 94 -3q16 123 39.5 268.5t46.5 283.5q2 15 16.5 21.5t47.5 6.5q32 0 44 -6.5t10 -21.5q-37 -224 -61.5 -345t-51.5 -204q11 1 24 1q21 0 30 -11.5t6 -32.5l-36 -217q-2 -14 -18.5 -20.5t-54.5 -6.5q-39 0 -53 6.5z" />
    <glyph glyph-name="uni042A" unicode="&#x42a;" 
d="M227.5 -0.5q-41.5 7.5 -70.5 19.5q-14 5 -20 12.5t-6 20.5q0 8 1 13q55 331 92 510q-57 -7 -109 -7q-19 0 -19 31q0 30 10 64t30 34h184q36 0 36 -32q0 -7 -1 -11q-13 -84 -37 -183q20 4 44 4q207 0 207 -200q0 -73 -26 -137.5t-84 -105t-148 -40.5q-42 0 -83.5 7.5z
M322 109q64 0 92.5 45.5t28.5 112.5q0 46 -23 68t-70 22q-25 0 -48 -6q-14 -121 -39 -232q27 -10 59 -10z" />
    <glyph glyph-name="uni042B" unicode="&#x42b;" 
d="M102 -0.5q-36 7.5 -61 19.5q-14 7 -20 14t-6 19q0 8 1 13l102 612q2 15 17 21.5t50 6.5q34 0 47 -6.5t11 -21.5q-8 -47 -18 -100.5t-23 -104.5q18 3 36 3q174 0 174 -200q0 -73 -24 -137.5t-77.5 -105t-136.5 -40.5q-36 0 -72 7.5zM194 109q55 0 79.5 45.5t24.5 112.5
q0 46 -19 68t-58 22q-22 0 -42 -6q-15 -130 -38 -232q24 -10 53 -10zM514 677q2 15 17 21.5t50 6.5t48 -6.5t11 -21.5l-110 -657q-2 -15 -16.5 -21.5t-46.5 -6.5q-33 0 -45.5 6.5t-9.5 21.5z" />
    <glyph glyph-name="uni042C" unicode="&#x42c;" 
d="M165.5 0.5q-54.5 8.5 -87.5 20.5q-14 6 -20 13t-6 19q0 9 1 14l101 610q3 15 19 21.5t54 6.5t52.5 -6.5t12.5 -21.5q-3 -10 -6 -33q-23 -117 -36 -173q42 4 62 4q125 0 187.5 -53t62.5 -158q0 -71 -30 -132.5t-96 -100.5t-168 -39q-48 0 -102.5 8.5zM273 109
q82 0 116.5 43t34.5 108q0 50 -28.5 73.5t-90.5 23.5q-42 0 -71 -7q-10 -101 -38 -231q36 -10 77 -10z" />
    <glyph glyph-name="uni042D" unicode="&#x42d;" 
d="M114.5 1q-46.5 12 -77.5 32q-16 9 -16 24q0 16 8.5 39t22 40t27.5 17l8 -2q65 -34 132 -34q95 0 145 50t69 127q-115 -6 -224 -6q-18 0 -18 29q0 26 10 57t28 31q106 0 217 -6v9q0 88 -33 132.5t-98 44.5q-40 0 -70 -14q-9 -38 -17 -63q-5 -17 -13 -22.5t-27 -5.5
q-37 0 -63.5 11.5t-22.5 34.5q4 27 21.5 73t31.5 61q20 21 67 34.5t102 13.5q124 0 191 -73.5t67 -213.5q0 -109 -34 -206.5t-117 -161.5t-219 -64q-51 0 -97.5 12z" />
    <glyph glyph-name="uni042E" unicode="&#x42e;" 
d="M254.5 29.5q-31.5 41.5 -31.5 130.5q0 53 11 133h-52q-23 -195 -36 -273q-2 -15 -17 -21.5t-50 -6.5q-34 0 -47 6.5t-11 21.5l110 657q2 15 17 21.5t49 6.5q35 0 48 -6.5t11 -21.5q-7 -41 -19 -97.5t-23 -111.5q-5 -19 -10 -47h52q21 103 47.5 165.5t66 92.5t97.5 30
q72 0 106.5 -43.5t34.5 -142.5q0 -62 -16 -168q-23 -136 -54 -215.5t-75 -115.5t-108 -36q-69 0 -100.5 41.5zM332 114.5q10 -15.5 31 -15.5q26 0 43.5 23t33.5 81t34 166q19 115 19 161q0 37 -10 52.5t-32 15.5q-25 0 -43 -23.5t-33.5 -81t-33.5 -164.5q-19 -117 -19 -164
q0 -35 10 -50.5z" />
    <glyph glyph-name="uni042F" unicode="&#x42f;" 
d="M370.5 -1.5q-14.5 6.5 -11.5 21.5q11 75 38 199q-67 -9 -113 -6q-82 -97 -134 -181q-16 -26 -25 -33.5t-25 -7.5q-30 0 -65 17t-35 38q0 10 22 40q28 39 69.5 86.5t85.5 89.5q-79 65 -79 175q0 70 32 131t98 99t163 38q49 0 100 -7t82 -18q15 -5 21 -12t6 -20
q0 -8 -1 -13l-103 -615q-2 -15 -18 -21.5t-55 -6.5q-38 0 -52.5 6.5zM276 335q36 -2 54 -2q42 0 88 6q3 54 13.5 119.5t25.5 120.5q-31 9 -70 9q-77 0 -114 -39.5t-37 -103.5q0 -62 40 -110z" />
    <glyph glyph-name="uni0430" unicode="&#x430;" 
d="M436 -6.5q-8 7.5 -14 31.5q-10 43 -20 98h-14q-57 -70 -108.5 -102.5t-102.5 -32.5q-132 0 -132 193q0 108 35.5 189.5t104.5 127.5t167 46q56 0 105 -14.5t84 -41.5q22 -16 22 -40q0 -7 -1 -11q-2 -14 -4 -21q-12 -71 -23.5 -125t-29.5 -109q12 -27 24.5 -58.5
t17.5 -44.5q10 -27 10 -40q0 -20 -32.5 -36.5t-63.5 -16.5q-17 0 -25 7.5zM234 114q29 0 69 30t84 88q10 35 19 83t17 95q-36 20 -86 20q-73 0 -113.5 -62.5t-40.5 -156.5q0 -97 51 -97z" />
    <glyph glyph-name="uni0431" unicode="&#x431;" 
d="M116.5 47q-57.5 59 -57.5 191q0 71 19 155t63 159t116 109q67 31 158.5 51t163.5 21q17 0 24.5 -13t7.5 -44q0 -71 -34 -74q-207 -11 -285 -52q-31 -16 -54.5 -48t-37.5 -73l13 -6q71 50 158 50q91 0 140 -51.5t49 -150.5q0 -74 -31 -138.5t-93.5 -104.5t-151.5 -40
q-110 0 -167.5 59zM214 135.5q26 -33.5 77 -33.5q43 0 74 23t46.5 60t15.5 78q0 56 -27 85t-78 29q-60 0 -124 -35q-10 -57 -10 -101q0 -72 26 -105.5z" />
    <glyph glyph-name="uni0432" unicode="&#x432;" 
d="M125 45.5q-53 51.5 -53 158.5q0 86 30 162.5t95 125t165 48.5q94 0 144 -37t50 -98q0 -42 -24 -73t-73 -54l-3 -15q89 -32 89 -109q0 -82 -72.5 -121t-183.5 -39t-164 51.5zM226 117q25 -26 77 -26q48 0 79.5 17.5t31.5 53.5q0 31 -31 47t-91 16q-31 0 -91 -2v-21
q0 -59 25 -85zM313 308q33 0 47 -1q25 13 42.5 34t17.5 44q0 27 -19.5 42t-53.5 15q-53 0 -87 -36.5t-49 -100.5q53 3 102 3z" />
    <glyph glyph-name="uni0433" unicode="&#x433;" 
d="M121 25q-54 37 -54 112q0 83 60 124t181 60q39 6 59.5 12t33.5 18.5t13 36.5q0 46 -80 46q-66 0 -148 -32q-6 -2 -9 -2q-18 0 -30.5 24.5t-12.5 51.5q0 14 6 22.5t22 15.5q75 31 172 31q100 0 154 -37.5t54 -111.5q0 -58 -28 -94t-79 -55.5t-130 -31.5q-57 -9 -83 -22
t-26 -45q0 -24 21 -35.5t67 -11.5q81 0 167 33q17 6 31.5 -19.5t14.5 -57.5q0 -15 -6 -22.5t-22 -14.5q-86 -32 -192 -32q-102 0 -156 37z" />
    <glyph glyph-name="uni0434" unicode="&#x434;" 
d="M105 43q-57 55 -57 161q0 73 30 138t90.5 105.5t146.5 40.5q68 0 110 -21l6 6q-44 132 -231 151q-9 1 -13 11t-4 25q0 27 10.5 52.5t25.5 24.5q108 -6 187.5 -51.5t122.5 -128.5t43 -196q0 -102 -30.5 -186t-97.5 -135.5t-172 -51.5q-110 0 -167 55zM204.5 123
q23.5 -28 73.5 -28q95 0 128 74t33 183v20q-45 21 -104 21q-82 0 -118 -55.5t-36 -126.5q0 -60 23.5 -88z" />
    <glyph glyph-name="uni0435" unicode="&#x435;" 
d="M114.5 39q-52.5 51 -52.5 157q0 99 38 178t108 124.5t162 45.5q63 0 108 -20t67.5 -53t22.5 -73q0 -49 -36.5 -82.5t-116 -60t-221.5 -55.5q3 -53 27 -75.5t74 -22.5q44 0 86.5 15t93.5 45q10 6 23 -5.5t22.5 -31.5t9.5 -37q0 -11 -4.5 -18.5t-18.5 -16.5
q-48 -30 -106 -47.5t-121 -17.5q-113 0 -165.5 51zM349 317.5q50 16.5 70 31.5t21 36q0 25 -22.5 41.5t-61.5 16.5q-63 0 -103.5 -47t-53.5 -120q100 25 150 41.5z" />
    <glyph glyph-name="uni0436" unicode="&#x436;" 
d="M450.5 -1q-6.5 5 -8.5 19q-14 106 -54 199q-12 -1 -38 -1q-9 -130 -20 -197q-2 -13 -16.5 -19.5t-46.5 -6.5q-33 0 -44.5 6.5t-9.5 19.5q14 81 46 197q-27 0 -38 1q-73 -100 -118 -199q-6 -14 -13.5 -19t-22.5 -5q-31 0 -58.5 8t-27.5 24q0 12 17 46q26 48 68 110t82 110
q-22 34 -42.5 82.5t-30.5 84.5q-8 33 -5 46q3 17 27 25.5t50 8.5q19 0 26 -5.5t9 -19.5q16 -93 53 -186q11 -1 38 -1q5 112 17 187q2 13 16 19t47 6q32 0 44 -6t10 -19q-9 -58 -43 -187q26 0 37 1q66 92 112 186q6 14 15 19.5t27 5.5q28 0 51.5 -7.5t23.5 -22.5
q0 -16 -18 -50q-24 -41 -62 -94t-73 -91q26 -42 47 -98.5t32 -103.5q4 -16 4 -30q0 -10 -1 -14q-2 -16 -30.5 -25t-57.5 -9q-14 0 -20.5 5z" />
    <glyph glyph-name="uni0437" unicode="&#x437;" 
d="M163 -4.5q-47 7.5 -83 20.5q-17 6 -24.5 12.5t-7.5 16.5q0 20 9.5 43.5t23.5 38t26 8.5q82 -33 161 -33q57 0 93 16t36 45q0 41 -69 59q-61 -7 -119 -7q-25 0 -25 34q0 26 10.5 50t32.5 24q52 0 115 -13q33 17 47.5 32t14.5 33q0 24 -23 37.5t-72 13.5q-38 0 -75.5 -6.5
t-63.5 -17.5q-19 -4 -32 18.5t-13 53.5q0 28 23 37q36 14 85 22t95 8q101 0 155 -34t54 -95q0 -41 -26.5 -74.5t-78.5 -58.5l-3 -15q48 -17 71.5 -45t23.5 -70q0 -53 -37 -89.5t-96.5 -54t-128.5 -17.5q-52 0 -99 7.5z" />
    <glyph glyph-name="uni0438" unicode="&#x438;" 
d="M241.5 534q14.5 -6 14.5 -19q0 -6 -1 -9q-26 -88 -41.5 -166.5t-15.5 -128.5q0 -44 12.5 -65t38.5 -21q35 0 78 36.5t83 104.5q14 118 36 246q2 15 17.5 21.5t53.5 6.5q37 0 51 -6.5t12 -21.5l-45 -273q-13 -76 -27 -181l-6 -38q-2 -15 -18 -21t-53 -6q-38 0 -51.5 6
t-11.5 21q8 44 19 96h-10q-51 -66 -102.5 -97t-97.5 -31q-116 0 -116 175q0 130 62 349q4 15 18.5 21.5t51.5 6.5q34 0 48.5 -6z" />
    <glyph glyph-name="uni0439" unicode="&#x439;" 
d="M241.5 534q14.5 -6 14.5 -19q0 -6 -1 -9q-26 -88 -41.5 -166.5t-15.5 -128.5q0 -44 12.5 -65t38.5 -21q35 0 78 36.5t83 104.5q14 118 36 246q2 15 17.5 21.5t53.5 6.5q37 0 51 -6.5t12 -21.5l-45 -273q-13 -76 -27 -181l-6 -38q-2 -15 -18 -21t-53 -6q-38 0 -51.5 6
t-11.5 21q8 44 19 96h-10q-51 -66 -102.5 -97t-97.5 -31q-116 0 -116 175q0 130 62 349q4 15 18.5 21.5t51.5 6.5q34 0 48.5 -6zM244 629.5q-41 42.5 -45 117.5q-1 13 23.5 24t47.5 11t23 -11q2 -49 18 -72t57 -23t64.5 23t42.5 72q4 11 28 11q25 0 48.5 -11t17.5 -24
q-28 -75 -83.5 -117.5t-127.5 -42.5q-73 0 -114 42.5z" />
    <glyph glyph-name="uni043A" unicode="&#x43a;" 
d="M391 -4q-6 5 -10 19q-46 106 -128 197q-30 -6 -55 -7q-10 -132 -20 -185q-2 -15 -17.5 -21.5t-53.5 -6.5q-37 0 -51 6.5t-12 21.5l82 492q2 15 18 21t53 6q35 0 49 -5t14 -17t-10.5 -60.5t-30.5 -127.5q21 2 55 8q80 79 154 179q10 14 18 19t18 5q40 0 77.5 -14t37.5 -32
q0 -10 -17 -31q-102 -120 -195 -192q47 -43 87 -98.5t64 -105.5q7 -16 7 -26q0 -20 -40 -35t-77 -15q-11 0 -17 5z" />
    <glyph glyph-name="uni043B" unicode="&#x43b;" 
d="M30 7q-18 15 -29.5 36t-11.5 37q0 18 23 31q51 30 81.5 72.5t50 113.5t36.5 195q3 22 13.5 31t32.5 9h317q22 0 29.5 -9t4.5 -31l-79 -472q-2 -15 -18 -21.5t-54 -6.5q-37 0 -50.5 6.5t-11.5 21.5q39 240 72 390q-50 -4 -74 -4t-72 4q-19 -155 -66 -258.5t-138 -152.5
q-14 -7 -21 -7q-17 0 -35 15z" />
    <glyph glyph-name="uni043C" unicode="&#x43c;" 
d="M14.5 -0.5q-12.5 7.5 -10.5 21.5q20 118 48 250t55 229q6 22 27 31t68 9q41 0 57 -9t18 -31q20 -127 21 -240h17q47 129 100 240q8 22 28 31t63 9q47 0 66.5 -9t18.5 -31q-6 -100 -21.5 -234t-34.5 -245q-2 -14 -17 -21.5t-49 -7.5q-33 0 -45.5 6.5t-10.5 21.5
q46 221 63 394h-16q-52 -103 -102 -229q-6 -18 -21 -26t-46 -8t-43.5 8t-12.5 26q-6 114 -27 229h-16q-41 -188 -67 -394q-2 -15 -17 -21.5t-47 -6.5q-34 0 -46.5 7.5z" />
    <glyph glyph-name="uni043D" unicode="&#x43d;" 
d="M50 -1.5q-14 6.5 -12 21.5l82 492q2 15 18 21.5t54 6.5q37 0 50.5 -6.5t11.5 -21.5q-1 -7 -9 -54t-28 -128q44 4 104 4q61 0 104 -4q8 101 23 182q2 15 18 21.5t53 6.5q38 0 51.5 -6.5t11.5 -21.5l-82 -492q-2 -15 -18 -21.5t-54 -6.5q-37 0 -50.5 6.5t-11.5 21.5
q10 67 39 191q-49 -3 -105 -3q-55 0 -103 3q-11 -114 -25 -191q-2 -15 -17.5 -21.5t-53.5 -6.5q-37 0 -51 6.5z" />
    <glyph glyph-name="uni043E" unicode="&#x43e;" 
d="M113 48.5q-58 60.5 -58 179.5q0 91 33.5 162.5t97 112.5t151.5 41q113 0 170.5 -60.5t57.5 -179.5q0 -91 -33.5 -162.5t-97 -112.5t-150.5 -41q-113 0 -171 60.5zM212 132.5q25 -30.5 78 -30.5q72 0 107.5 58t35.5 145q0 65 -25 95t-78 30q-71 0 -107 -58t-36 -145
q0 -64 25 -94.5z" />
    <glyph glyph-name="uni043F" unicode="&#x43f;" 
d="M378.5 -2q-14.5 6 -14.5 19q0 6 1 9q26 88 41.5 166.5t15.5 128.5q0 45 -12.5 65.5t-38.5 20.5q-35 0 -78 -36.5t-83 -104.5q-14 -118 -36 -246q-2 -15 -17.5 -21.5t-53.5 -6.5q-37 0 -51 6.5t-12 21.5l45 273q13 76 27 181l6 38q2 15 18 21t53 6q38 0 51.5 -6t11.5 -21
q-8 -44 -19 -96h10q51 66 102.5 97t97.5 31q116 0 116 -175q0 -130 -62 -349q-4 -15 -18.5 -21.5t-51.5 -6.5q-34 0 -48.5 6z" />
    <glyph glyph-name="uni0440" unicode="&#x440;" 
d="M165 6q-14 -113 -27 -179q-2 -15 -18 -21.5t-54 -6.5q-37 0 -50.5 6.5t-10.5 21.5l41 226l39 236q18 106 31 202l3 25q2 14 18 20.5t54 6.5q37 0 50.5 -6.5t11.5 -20.5q-3 -21 -9.5 -52t-11.5 -47h16q52 66 97 96.5t93 30.5q64 0 98 -48t34 -145q0 -108 -34 -189.5
t-100 -127.5t-159 -46q-59 0 -112 18zM278 102q73 0 113 62.5t40 156.5q0 97 -50 97q-32 0 -75 -37t-93 -110q-10 -80 -25 -149q39 -20 90 -20z" />
    <glyph glyph-name="uni0441" unicode="&#x441;" 
d="M119 36.5q-52 48.5 -52 158.5q0 89 32 168.5t101 130t174 50.5q58 0 103.5 -12.5t63.5 -33.5q11 -12 16 -49.5t5 -78.5q0 -20 -22.5 -30.5t-58.5 -10.5q-25 0 -37.5 6t-12.5 20l1 56q-24 13 -67 13q-59 0 -95.5 -33t-52.5 -81t-16 -96q0 -54 21 -77t64 -23q76 0 170 72
q8 6 16 6q15 0 29.5 -15t24 -35.5t9.5 -34.5q0 -8 -4.5 -15t-15.5 -15q-55 -41 -118.5 -65t-127.5 -24q-98 0 -150 48.5z" />
    <glyph glyph-name="uni0442" unicode="&#x442;" 
d="M17 20l49 298q22 132 28 200q2 11 16.5 16t43.5 5q28 0 41 -4.5t13 -14.5t-9 -44l-6 -24h14q59 92 122 92q30 0 43.5 -21.5t13.5 -72.5h16q56 94 121 94q68 0 68 -99q0 -57 -24.5 -194t-48.5 -231q-3 -15 -17 -21.5t-44 -6.5t-43 7t-11 21q20 75 41.5 189.5t21.5 164.5
q0 24 -5 34t-15 10q-16 0 -35.5 -18t-40.5 -53q-12 -83 -28.5 -173t-32.5 -154q-3 -15 -14.5 -21.5t-34.5 -6.5q-47 0 -41 28q20 83 40.5 194.5t20.5 159.5q0 44 -21 44q-16 0 -36.5 -20.5t-43.5 -61.5q-29 -206 -47 -316q-4 -28 -62 -28q-59 0 -53 28z" />
    <glyph glyph-name="uni0443" unicode="&#x443;" 
d="M43.5 -172.5q-19.5 31.5 -19.5 62.5q0 13 8 20.5t29 16.5q99 47 176 101l-3 14l-9 -1q-12 0 -21.5 9t-18.5 33q-31 80 -61 190.5t-40 187.5q-4 25 -4 43q0 16 33 28t69 12q18 0 25 -7.5t9 -28.5q9 -90 33.5 -197.5t57.5 -209.5h19q118 137 118 275q0 42 -17 125
q-4 19 22 31t66 12q22 0 32.5 -6.5t12.5 -22.5q12 -51 12 -114q0 -166 -111 -314.5t-324 -270.5q-36 -20 -53 -20q-21 0 -40.5 31.5z" />
    <glyph glyph-name="uni0444" unicode="&#x444;" 
d="M181.5 -194.5q-13.5 6.5 -11.5 21.5q14 82 37 169q-174 30 -174 232q0 81 31 147.5t90.5 109t142.5 53.5q8 95 19 168q2 15 18.5 21.5t53.5 6.5t50.5 -6.5t11.5 -21.5q-14 -84 -37 -170q86 -14 130.5 -72.5t44.5 -159.5q0 -81 -31.5 -147.5t-91 -109t-142.5 -53.5
q-7 -95 -20 -167q-2 -15 -17.5 -21.5t-53.5 -6.5q-37 0 -50.5 6.5zM172 140q21 -32 65 -41q18 162 56 333q-71 -15 -106.5 -70.5t-35.5 -130.5q0 -59 21 -91zM434 169.5q35 55.5 35 131.5q0 58 -21 90.5t-65 41.5q-19 -174 -56 -333q72 14 107 69.5z" />
    <glyph glyph-name="uni0445" unicode="&#x445;" 
d="M398 -3.5q-6 5.5 -9 18.5q-27 94 -78 186h-22q-69 -87 -125 -186q-8 -13 -16 -18.5t-18 -5.5q-37 0 -73.5 13t-36.5 29q0 9 15 34q36 52 86.5 113.5t97.5 106.5q-29 43 -57 93.5t-44 88.5q-7 18 -7 26q0 21 39 34.5t70 13.5q12 0 18 -5.5t9 -18.5q30 -90 66 -162h21
q55 74 107 162q8 13 16 18.5t19 5.5q37 0 72.5 -13t35.5 -31q0 -11 -16 -32q-29 -41 -75.5 -98t-86.5 -100q34 -47 65.5 -103t48.5 -102q5 -15 5 -24q0 -23 -38.5 -36t-71.5 -13q-11 0 -17 5.5z" />
    <glyph glyph-name="uni0446" unicode="&#x446;" 
d="M61 163q0 130 62 349q4 15 18.5 21.5t51.5 6.5q34 0 48.5 -6t14.5 -19q0 -6 -1 -9q-26 -88 -41.5 -166.5t-15.5 -128.5q0 -44 12.5 -65t38.5 -21q35 0 78 36.5t83 104.5q14 118 36 246q2 15 17.5 21.5t53.5 6.5q37 0 51 -6.5t12 -21.5q-26 -156 -45 -243.5t-39 -142.5
q18 3 36 3q29 0 29 -30q0 -9 -1 -14l-36 -217q-2 -14 -18.5 -20.5t-53.5 -6.5q-34 0 -48 5.5t-14 17.5q0 6 7 44t22 92h-14q-23 0 -30.5 5t-5.5 17q11 63 18 94h-10q-51 -66 -102.5 -97t-97.5 -31q-116 0 -116 175z" />
    <glyph glyph-name="uni0447" unicode="&#x447;" 
d="M370.5 -0.5q-14.5 6.5 -12.5 19.5q23 128 48 242h-14q-52 -53 -105.5 -78t-100.5 -25q-118 0 -118 152q0 76 31 203q5 14 20 20.5t51 6.5q33 0 48 -5.5t15 -18.5q0 -2 -2 -10q-26 -102 -26 -147q0 -33 12 -48t36 -15q37 0 82.5 24t88.5 68q7 70 17 125q2 14 18 20.5
t54 6.5q37 0 50.5 -6.5t11.5 -20.5l-83 -494q-2 -13 -17.5 -19.5t-52.5 -6.5t-51.5 6.5z" />
    <glyph glyph-name="uni0448" unicode="&#x448;" 
d="M603 512l-49 -298q-22 -132 -28 -200q-2 -11 -16.5 -16t-43.5 -5q-28 0 -41 4.5t-13 14.5t9 44l6 24h-14q-59 -92 -122 -92q-30 0 -43.5 21.5t-13.5 72.5h-16q-56 -94 -121 -94q-68 0 -68 99q0 57 24.5 194t48.5 231q3 15 17 21.5t44 6.5t43 -7t11 -21
q-20 -75 -41.5 -189.5t-21.5 -164.5q0 -24 5 -34t15 -10q16 0 35.5 18t40.5 53q12 83 28.5 173t32.5 154q3 15 14.5 21.5t34.5 6.5q47 0 41 -28q-20 -83 -40.5 -194.5t-20.5 -159.5q0 -44 21 -44q16 0 36.5 20.5t43.5 61.5q29 206 47 316q4 28 62 28q59 0 53 -28z" />
    <glyph glyph-name="uni0449" unicode="&#x449;" 
d="M17 87q0 57 24.5 194t48.5 231q3 15 17 21.5t44 6.5t43 -7t11 -21q-20 -75 -41.5 -189.5t-21.5 -164.5q0 -24 5 -34t15 -10q16 0 35.5 18t40.5 53q12 83 28.5 173t32.5 154q3 15 14.5 21.5t34.5 6.5q47 0 41 -28q-20 -83 -40.5 -194.5t-20.5 -159.5q0 -44 21 -44
q16 0 36.5 20.5t43.5 61.5q29 206 47 316q4 28 62 28q59 0 53 -28q-26 -154 -45 -242t-38 -144q14 3 27 3q35 0 29 -44l-36 -217q-2 -14 -18.5 -20.5t-53.5 -6.5t-50.5 6.5t-11.5 20.5q7 48 29 133q-14 1 -18.5 6t-2.5 15q2 18 13 58h-14q-59 -92 -122 -92q-30 0 -43.5 21.5
t-13.5 72.5h-16q-56 -94 -121 -94q-68 0 -68 99z" />
    <glyph glyph-name="uni044A" unicode="&#x44a;" 
d="M183.5 26.5q-43.5 32.5 -43.5 87.5q0 40 16 128.5t35 171.5q-59 -7 -113 -7q-18 0 -18 29q0 12 3 33q6 35 14.5 49t21.5 14h198q18 0 26.5 -6.5t8.5 -20.5q0 -8 -1 -13q-1 -4 -6.5 -31.5t-18.5 -75.5q40 7 66 7q94 0 142 -43.5t48 -128.5q0 -111 -66 -168.5t-175 -57.5
q-94 0 -137.5 32.5zM329 100q46 0 72.5 28t26.5 84q0 74 -79 74q-28 0 -58 -9l-3 -21q-14 -84 -14 -110q0 -46 55 -46z" />
    <glyph glyph-name="uni044B" unicode="&#x44b;" 
d="M72.5 23q-35.5 29 -35.5 79q0 42 14 127l48 283q2 15 16.5 21t48.5 6t46 -6t10 -21q-11 -67 -27 -127q28 7 49 7q72 0 109 -41t37 -121q0 -116 -55.5 -176t-147.5 -60q-77 0 -112.5 29zM202 100q37 0 58.5 29t21.5 87q0 70 -61 70q-22 0 -49 -9l-3 -21q-14 -86 -14 -112
q0 -44 47 -44zM481 512q2 15 16.5 21t48.5 6t46 -6t10 -21l-82 -492q-2 -15 -15.5 -21.5t-45.5 -6.5t-43.5 6.5t-9.5 21.5z" />
    <glyph glyph-name="uni044C" unicode="&#x44c;" 
d="M121.5 33.5q-50.5 39.5 -50.5 106.5q0 45 16 141l38 231q2 15 18 21t53 6q38 0 51.5 -6t11.5 -21q-15 -80 -29 -132q51 12 101 12q108 0 163.5 -45t55.5 -133q0 -107 -75 -163.5t-195 -56.5q-108 0 -158.5 39.5zM224 116q21 -16 66 -16q58 0 92 26.5t34 79.5q0 42 -28 61
t-84 19q-44 0 -88 -12q-1 -8 -7 -48.5t-6 -61.5q0 -32 21 -48z" />
    <glyph glyph-name="uni044D" unicode="&#x44d;" 
d="M484 488.5q56 -55.5 56 -176.5q0 -82 -31.5 -156t-100 -121t-171.5 -47q-97 0 -173 37q-11 6 -14.5 11.5t-3.5 14.5q0 28 16.5 57t34.5 29q2 0 8 -2q71 -33 132 -33q67 0 105 36.5t55 92.5q-119 -6 -222 -6q-10 0 -14.5 5t-4.5 18t2 22q4 25 11.5 34.5t20.5 9.5
q103 0 218 -6v4q0 63 -27.5 90.5t-84.5 27.5q-62 0 -140 -35q-4 -2 -11 -2q-19 0 -32.5 24t-13.5 52q0 13 5.5 21.5t16.5 13.5q43 18 94.5 29t101.5 11q111 0 167 -55.5z" />
    <glyph glyph-name="uni044E" unicode="&#x44e;" 
d="M24.5 -1.5q-12.5 6.5 -10.5 21.5l82 493q3 14 17.5 20.5t47.5 6.5q34 0 46.5 -6.5t10.5 -20.5q-16 -92 -47 -200h58q25 121 74.5 174.5t132.5 53.5q76 0 113 -43.5t37 -134.5q0 -46 -11 -110q-22 -135 -73.5 -200t-139.5 -65q-77 0 -114 40.5t-37 130.5q0 28 3 59h-58
q-6 -107 -20 -198q-3 -15 -17 -21.5t-48 -6.5t-46.5 6.5zM317.5 110.5q13.5 -18.5 41.5 -18.5q39 0 61 39.5t39 137.5q11 61 11 91q0 40 -14 58.5t-43 18.5q-38 0 -60.5 -40t-38.5 -136q-10 -57 -10 -93q0 -39 13.5 -57.5z" />
    <glyph glyph-name="uni044F" unicode="&#x44f;" 
d="M372 -0.5q-13 6.5 -11 19.5q8 54 30 133q-68 -4 -103 -4q-24 0 -37 1q-60 -65 -104 -122q-16 -21 -24.5 -27.5t-23.5 -6.5q-30 0 -64 16.5t-34 36.5q0 11 20 32q59 65 136 125q-76 49 -76 135q0 95 71 148.5t189 53.5q55 0 109 -7t94 -19q19 -6 24 -14.5t3 -23.5
l-76 -457q-2 -13 -17 -19.5t-54 -6.5t-52 6.5zM253 259q42 -2 64 -2q43 0 89 3q3 79 25 155q-18 5 -46 8.5t-53 3.5q-55 0 -86.5 -23t-31.5 -64q0 -48 39 -81z" />
    <glyph glyph-name="uni0451" unicode="&#x451;" 
d="M114.5 39q-52.5 51 -52.5 157q0 99 38 178t108 124.5t162 45.5q63 0 108 -20t67.5 -53t22.5 -73q0 -49 -36.5 -82.5t-116 -60t-221.5 -55.5q3 -53 27 -75.5t74 -22.5q44 0 86.5 15t93.5 45q10 6 23 -5.5t22.5 -31.5t9.5 -37q0 -11 -4.5 -18.5t-18.5 -16.5
q-48 -30 -106 -47.5t-121 -17.5q-113 0 -165.5 51zM349 317.5q50 16.5 70 31.5t21 36q0 25 -22.5 41.5t-61.5 16.5q-63 0 -103.5 -47t-53.5 -120q100 25 150 41.5zM190 630q-17 11 -17 37q0 6 2 20q6 36 27 51.5t69 15.5q41 0 58.5 -11t17.5 -37q0 -5 -2 -19
q-6 -37 -27.5 -52.5t-69.5 -15.5q-41 0 -58 11zM442.5 738.5q21.5 15.5 69.5 15.5q41 0 58 -11t17 -36q0 -6 -2 -20q-6 -37 -27 -52.5t-69 -15.5q-41 0 -58 11t-17 36q0 5 2 21q5 36 26.5 51.5z" />
    <glyph glyph-name="uni045E" unicode="&#x45e;" 
d="M43.5 -172.5q-19.5 31.5 -19.5 62.5q0 13 8 20.5t29 16.5q99 47 176 101l-3 14l-9 -1q-12 0 -21.5 9t-18.5 33q-31 80 -61 190.5t-40 187.5q-4 25 -4 43q0 16 33 28t69 12q18 0 25 -7.5t9 -28.5q9 -90 33.5 -197.5t57.5 -209.5h19q118 137 118 275q0 42 -17 125
q-4 19 22 31t66 12q22 0 32.5 -6.5t12.5 -22.5q12 -51 12 -114q0 -166 -111 -314.5t-324 -270.5q-36 -20 -53 -20q-21 0 -40.5 31.5zM250 629.5q-41 42.5 -45 117.5q-1 13 23.5 24t47.5 11t23 -11q2 -49 18 -72t57 -23t64.5 23t42.5 72q4 11 28 11q25 0 48.5 -11t17.5 -24
q-28 -75 -83.5 -117.5t-127.5 -42.5q-73 0 -114 42.5z" />
    <glyph glyph-name="uni0490" unicode="&#x490;" 
d="M91 -1.5q-14 6.5 -12 21.5l58 346q15 91 28 131.5t31 63.5l2 16q-25 -3 -37 -3q-18 0 -18 30q0 28 10 60.5t29 32.5q200 0 308 -7q2 62 12 113q2 14 18.5 20.5t54.5 6.5q39 0 53 -6.5t11 -20.5l-31 -191q-4 -21 -17 -32.5t-34 -11.5q-122 0 -256 7q-27 -217 -85 -555
q-2 -15 -18 -21.5t-55 -6.5q-38 0 -52 6.5z" />
    <glyph glyph-name="Wgrave" unicode="&#x1e80;" 
d="M93.5 -2.5q-12.5 4.5 -17.5 16t-6 36.5q-2 56 -2 95q0 130 9.5 289.5t21.5 243.5q2 14 18.5 21t51.5 7q34 0 47.5 -6.5t11.5 -22.5q-48 -299 -60 -557h16q54 109 92 227q6 81 15 144q5 32 61 32t51 -32q-7 -39 -33 -144q0 -117 17 -227h16q80 288 125 557q3 16 19 22.5
t51 6.5t48.5 -7t11.5 -21q-21 -110 -78.5 -310.5t-102.5 -317.5q-13 -36 -27.5 -46.5t-52.5 -10.5q-39 0 -51.5 9.5t-15.5 37.5q-9 83 -9 172q0 29 2 81h-15q-39 -137 -89 -253q-13 -28 -29.5 -37.5t-57.5 -9.5q-26 0 -38.5 4.5zM289.5 891.5q-2.5 4.5 -2.5 10.5
q0 12 14.5 29.5t34.5 30t36 12.5q10 0 17 -6l148 -148q9 -11 9 -18q0 -15 -20 -33t-38 -18q-7 0 -12 3l-174 127q-10 6 -12.5 10.5z" />
    <glyph glyph-name="wgrave" unicode="&#x1e81;" 
d="M83 4.5q-12 10.5 -13 45.5q-4 48 -4 123q0 139 14 295l5 44q2 14 17.5 21t48.5 7q34 0 46.5 -6.5t9.5 -22.5q-35 -209 -41 -394h16q49 78 81 158q6 81 12 112q3 17 17 25t42 8t39.5 -8t9.5 -25q-21 -92 -26 -112q6 -82 28 -158h16q58 190 92 394q2 16 17.5 22.5t48.5 6.5
q31 0 44 -6t13 -18t-9 -48q-24 -103 -59.5 -219t-69.5 -199q-13 -35 -27.5 -45.5t-52.5 -10.5q-28 0 -41.5 4t-19 13.5t-8.5 30.5q-17 80 -19 171h-15q-29 -86 -75 -171q-15 -29 -31 -38.5t-56 -9.5q-38 0 -50 10.5zM239.5 726.5q-2.5 4.5 -2.5 10.5q0 12 13 29.5t31.5 30
t32.5 12.5q10 0 16 -6l134 -148q9 -11 9 -18q0 -15 -18.5 -33t-34.5 -18q-6 0 -11 3l-158 127q-9 6 -11.5 10.5z" />
    <glyph glyph-name="Wacute" unicode="&#x1e82;" 
d="M93.5 -2.5q-12.5 4.5 -17.5 16t-6 36.5q-2 56 -2 95q0 130 9.5 289.5t21.5 243.5q2 14 18.5 21t51.5 7q34 0 47.5 -6.5t11.5 -22.5q-48 -299 -60 -557h16q54 109 92 227q6 81 15 144q5 32 61 32t51 -32q-7 -39 -33 -144q0 -117 17 -227h16q80 288 125 557q3 16 19 22.5
t51 6.5t48.5 -7t11.5 -21q-21 -110 -78.5 -310.5t-102.5 -317.5q-13 -36 -27.5 -46.5t-52.5 -10.5q-39 0 -51.5 9.5t-15.5 37.5q-9 83 -9 172q0 29 2 81h-15q-39 -137 -89 -253q-13 -28 -29.5 -37.5t-57.5 -9.5q-26 0 -38.5 4.5zM321 751q-18 0 -35.5 19.5t-17.5 34.5
q0 6 3.5 10t14.5 14l184 139q6 5 17 5q16 0 35 -12t32 -30t13 -33q0 -7 -5 -13t-18 -13l-210 -118q-6 -3 -13 -3z" />
    <glyph glyph-name="wacute" unicode="&#x1e83;" 
d="M83 4.5q-12 10.5 -13 45.5q-4 48 -4 123q0 139 14 295l5 44q2 14 17.5 21t48.5 7q34 0 46.5 -6.5t9.5 -22.5q-35 -209 -41 -394h16q49 78 81 158q6 81 12 112q3 17 17 25t42 8t39.5 -8t9.5 -25q-21 -92 -26 -112q6 -82 28 -158h16q58 190 92 394q2 16 17.5 22.5t48.5 6.5
q31 0 44 -6t13 -18t-9 -48q-24 -103 -59.5 -219t-69.5 -199q-13 -35 -27.5 -45.5t-52.5 -10.5q-28 0 -41.5 4t-19 13.5t-8.5 30.5q-17 80 -19 171h-15q-29 -86 -75 -171q-15 -29 -31 -38.5t-56 -9.5q-38 0 -50 10.5zM318 586q-17 0 -33 19.5t-16 34.5q0 6 4.5 11.5
t12.5 12.5l167 139q6 5 16 5q15 0 32 -12t28.5 -30t11.5 -33q0 -7 -4.5 -13t-16.5 -13l-191 -118q-6 -3 -11 -3z" />
    <glyph glyph-name="Wdieresis" unicode="&#x1e84;" 
d="M93.5 -2.5q-12.5 4.5 -17.5 16t-6 36.5q-2 56 -2 95q0 130 9.5 289.5t21.5 243.5q2 14 18.5 21t51.5 7q34 0 47.5 -6.5t11.5 -22.5q-48 -299 -60 -557h16q54 109 92 227q6 81 15 144q5 32 61 32t51 -32q-7 -39 -33 -144q0 -117 17 -227h16q80 288 125 557q3 16 19 22.5
t51 6.5t48.5 -7t11.5 -21q-21 -110 -78.5 -310.5t-102.5 -317.5q-13 -36 -27.5 -46.5t-52.5 -10.5q-39 0 -51.5 9.5t-15.5 37.5q-9 83 -9 172q0 29 2 81h-15q-39 -137 -89 -253q-13 -28 -29.5 -37.5t-57.5 -9.5q-26 0 -38.5 4.5zM204.5 785q-18.5 11 -18.5 36q0 5 2 21
q6 36 29.5 51.5t75.5 15.5q46 0 65 -11.5t19 -36.5q0 -5 -2 -19q-7 -37 -31 -52.5t-76 -15.5q-45 0 -63.5 11zM481.5 893.5q23.5 15.5 76.5 15.5q45 0 64 -11.5t19 -36.5q0 -5 -2 -19q-7 -37 -30.5 -52.5t-75.5 -15.5q-45 0 -63.5 11t-18.5 36q0 5 2 21q5 36 28.5 51.5z" />
    <glyph glyph-name="wdieresis" unicode="&#x1e85;" 
d="M83 4.5q-12 10.5 -13 45.5q-4 48 -4 123q0 139 14 295l5 44q2 14 17.5 21t48.5 7q34 0 46.5 -6.5t9.5 -22.5q-35 -209 -41 -394h16q49 78 81 158q6 81 12 112q3 17 17 25t42 8t39.5 -8t9.5 -25q-21 -92 -26 -112q6 -82 28 -158h16q58 190 92 394q2 16 17.5 22.5t48.5 6.5
q31 0 44 -6t13 -18t-9 -48q-24 -103 -59.5 -219t-69.5 -199q-13 -35 -27.5 -45.5t-52.5 -10.5q-28 0 -41.5 4t-19 13.5t-8.5 30.5q-17 80 -19 171h-15q-29 -86 -75 -171q-15 -29 -31 -38.5t-56 -9.5q-38 0 -50 10.5zM190 630q-17 11 -17 37q0 6 2 20q6 36 27 51.5t69 15.5
q41 0 58.5 -11t17.5 -37q0 -5 -2 -19q-6 -37 -27.5 -52.5t-69.5 -15.5q-41 0 -58 11zM442.5 738.5q21.5 15.5 69.5 15.5q41 0 58 -11t17 -36q0 -6 -2 -20q-6 -37 -27 -52.5t-69 -15.5q-41 0 -58 11t-17 36q0 5 2 21q5 36 26.5 51.5z" />
    <glyph glyph-name="ygrave" unicode="&#x1ef3;" 
d="M43.5 -172.5q-19.5 31.5 -19.5 62.5q0 13 8 20.5t29 16.5q99 47 176 101l-3 14l-9 -1q-12 0 -21.5 9t-18.5 33q-31 80 -61 190.5t-40 187.5q-4 25 -4 43q0 16 33 28t69 12q18 0 25 -7.5t9 -28.5q9 -90 33.5 -197.5t57.5 -209.5h19q118 137 118 275q0 42 -17 125
q-4 19 22 31t66 12q22 0 32.5 -6.5t12.5 -22.5q12 -51 12 -114q0 -166 -111 -314.5t-324 -270.5q-36 -20 -53 -20q-21 0 -40.5 31.5zM239.5 726.5q-2.5 4.5 -2.5 10.5q0 12 13 29.5t31.5 30t32.5 12.5q10 0 16 -6l134 -148q9 -11 9 -18q0 -15 -18.5 -33t-34.5 -18
q-6 0 -11 3l-158 127q-9 6 -11.5 10.5z" />
    <glyph glyph-name="endash" unicode="&#x2013;" 
d="M60 278.5q-5 6.5 -5 21.5q0 26 10 56t30 30h469q12 0 17 -6.5t5 -21.5q0 -26 -10 -56t-30 -30h-469q-12 0 -17 6.5z" />
    <glyph glyph-name="glyph31" 
d="M104 2.5q-42 14.5 -68 40.5q-16 16 -16 32q0 14 10.5 35t26.5 36.5t30 15.5q9 0 15 -5q21 -21 45.5 -30.5t56.5 -9.5q56 0 90 27t53 93q15 56 31 154.5t26 183.5q-105 -7 -197 -7q-18 0 -18 31q0 30 10 64t30 34h283q21 0 30.5 -11.5t7.5 -31.5q-39 -339 -81 -469
q-32 -98 -97.5 -147.5t-171.5 -49.5q-54 0 -96 14.5zM321 751q-18 0 -35.5 19.5t-17.5 34.5q0 6 3.5 10t14.5 14l184 139q6 5 17 5q16 0 35 -12t32 -30t13 -33q0 -7 -5 -13t-18 -13l-210 -118q-6 -3 -13 -3z" />
    <glyph glyph-name="Scedilla.locl" 
d="M162.5 -6q-46.5 9 -82.5 25q-18 8 -24.5 16t-6.5 20q0 21 9.5 44.5t23 36.5t24.5 7q74 -38 164 -38q59 0 94.5 23t35.5 67q0 31 -22.5 49.5t-79.5 35.5q-56 17 -93.5 38t-61.5 60.5t-24 103.5q0 107 69 168.5t190 61.5q58 0 111 -13.5t65 -29.5q6 -7 9.5 -28t3.5 -46
q0 -26 -3 -44q-7 -37 -82 -37q-25 0 -34 4.5t-9 16.5l1 50q-30 11 -71 11q-58 0 -87 -26.5t-29 -71.5q0 -38 23.5 -56.5t71.5 -32.5q96 -29 141 -75t45 -124q0 -68 -33.5 -119t-95.5 -78.5t-146 -27.5q-50 0 -96.5 9zM130 -208q-12 17 -12 35q0 14 10 21l107 77q30 22 47 22
q15 0 28 -13t21 -30.5t8 -29.5q0 -9 -7 -15.5t-32 -17.5l-108 -55q-22 -11 -37 -11q-13 0 -25 17z" />
    <glyph glyph-name="i.locl" 
d="M213.5 22q-33.5 34 -33.5 101q0 47 14 125t35 152q-72 -5 -127 -5q-10 0 -14 7.5t-4 23.5q0 28 10 61.5t29 33.5h220q18 0 26 -6.5t8 -20.5q0 -9 -1 -14q-54 -226 -54 -306q0 -32 8 -45.5t27 -13.5q49 0 117 59q5 4 12 4q17 0 34.5 -26.5t17.5 -48.5q0 -11 -5.5 -19
t-17.5 -18q-43 -36 -96.5 -57t-108.5 -21q-63 0 -96.5 34zM270 642q-21 13 -21 42q0 5 2 21q7 41 32.5 58.5t82.5 17.5q49 0 70 -13t21 -42q0 -7 -2 -21q-7 -41 -32.5 -58.5t-82.5 -17.5q-49 0 -70 13z" />
    <glyph glyph-name="glyph107" 
d="M30.5 -183.5q-9.5 20.5 -9.5 53.5q0 28 7 40.5t24 14.5q76 9 122 26.5t73 49t43 86.5q19 70 34 153.5t23 160.5q-116 -6 -216 -6q-18 0 -18 29q0 13 3 34q6 34 14.5 48.5t21.5 14.5h304q19 0 27 -6.5t8 -22.5q0 -44 -24 -194t-52 -253q-32 -119 -118.5 -175t-235.5 -72
q-21 -2 -30.5 18.5z" />
    <glyph glyph-name="glyph108" 
d="M30.5 -183.5q-9.5 20.5 -9.5 53.5q0 28 7 40.5t24 14.5q76 9 122 26.5t73 49t43 86.5q19 70 34 153.5t23 160.5q-116 -6 -216 -6q-18 0 -18 29q0 13 3 34q6 34 14.5 48.5t21.5 14.5h304q19 0 27 -6.5t8 -22.5q0 -44 -24 -194t-52 -253q-32 -119 -118.5 -175t-235.5 -72
q-21 -2 -30.5 18.5zM359 586q-17 0 -33 19.5t-16 34.5q0 6 4.5 11.5t12.5 12.5l167 139q6 5 16 5q15 0 32 -12t28.5 -30t11.5 -33q0 -7 -4.5 -13t-16.5 -13l-191 -118q-6 -3 -11 -3z" />
    <glyph glyph-name="scedilla.locl" 
d="M88 21q-11 5 -14.5 11t-3.5 17q0 15 7 36.5t18.5 35t23.5 8.5q79 -34 162 -34q103 0 103 56q0 22 -18.5 34.5t-67.5 23.5q-61 14 -97.5 28.5t-60.5 45t-24 83.5q0 88 64 133.5t168 45.5q102 0 173 -31q10 -5 14 -11.5t4 -17.5q0 -25 -13.5 -52.5t-31.5 -27.5q-2 0 -8 2
q-74 33 -143 33q-47 0 -71.5 -14.5t-24.5 -42.5q0 -25 19.5 -35.5t66.5 -20.5q96 -21 139.5 -57.5t43.5 -104.5q0 -87 -65.5 -132t-173.5 -45q-111 0 -189 33zM131 -208q-12 17 -12 35q0 14 10 21l107 77q30 22 47 22q15 0 28 -13t21 -30.5t8 -29.5q0 -9 -7 -15.5t-32 -17.5
l-108 -55q-22 -11 -37 -11q-13 0 -25 17z" />
    <glyph glyph-name="glyph239" 
d="M237.5 413q-25.5 17 -25.5 56q0 15 3 33q9 57 40.5 81.5t101.5 24.5q60 0 85.5 -17.5t25.5 -57.5q0 -14 -3 -31q-10 -57 -41.5 -81.5t-101.5 -24.5q-59 0 -84.5 17zM179.5 67q-25.5 17 -25.5 56q0 15 3 33q9 57 40.5 81.5t101.5 24.5q60 0 85.5 -17.5t25.5 -57.5
q0 -14 -3 -31q-10 -57 -41.5 -81.5t-101.5 -24.5q-59 0 -84.5 17z" />
    <glyph glyph-name="glyph240" 
d="M817.5 413q-25.5 17 -25.5 56q0 15 3 33q9 57 40.5 81.5t101.5 24.5q60 0 85.5 -17.5t25.5 -57.5q0 -14 -3 -31q-10 -57 -41.5 -81.5t-101.5 -24.5q-59 0 -84.5 17zM759.5 67q-25.5 17 -25.5 56q0 15 3 33q9 57 40.5 81.5t101.5 24.5q60 0 85.5 -17.5t25.5 -57.5
q0 -14 -3 -31q-10 -57 -41.5 -81.5t-101.5 -24.5q-59 0 -84.5 17zM297.5 413q-25.5 17 -25.5 56q0 15 3 33q9 57 40.5 81.5t101.5 24.5q60 0 85.5 -17.5t25.5 -57.5q0 -14 -3 -31q-10 -57 -41.5 -81.5t-101.5 -24.5q-59 0 -84.5 17zM239.5 67q-25.5 17 -25.5 56q0 15 3 33
q9 57 40.5 81.5t101.5 24.5q60 0 85.5 -17.5t25.5 -57.5q0 -14 -3 -31q-10 -57 -41.5 -81.5t-101.5 -24.5q-59 0 -84.5 17z" />
    <glyph glyph-name="glyph243" 
d="M547 365q0 -32 -11 -69.5t-32 -37.5h-332q-67 0 -103.5 10.5t-52.5 32.5h-20l9 56h20q22 22 62.5 32.5t108.5 10.5h331q20 0 20 -35z" />
    <glyph glyph-name="glyph244" 
d="M94 293q0 32 11 69.5t32 37.5h332q67 0 103.5 -10.5t52.5 -32.5h20l-9 -56h-20q-22 -22 -62.5 -32.5t-108.5 -10.5h-331q-20 0 -20 35z" />
    <glyph glyph-name="glyph245" 
d="M68 268.5q-37 10.5 -52 32.5h-20l9 56h20q22 22 62.5 32.5t108.5 10.5h273q67 0 103.5 -10.5t52.5 -32.5h20l-9 -56h-20q-22 -22 -62.5 -32.5t-108.5 -10.5h-273q-67 0 -104 10.5z" />
    <glyph glyph-name="glyph247" 
d="M406 68q-85 -80 -189 -80q-94 0 -146.5 48t-52.5 133q0 67 37.5 121.5t104.5 90.5q-13 53 -13 103q0 104 61.5 163.5t165.5 59.5q62 0 109.5 -16t61.5 -39q9 -16 9 -70q0 -47 -6 -79q-2 -13 -22 -22t-49 -9q-26 0 -37 5.5t-11 19.5q3 74 4 95q-26 12 -63 12
q-59 0 -83.5 -36t-24.5 -120q0 -38 1 -58q53 -60 135 -144t163 -159q4 -4 4 -11q0 -14 -14 -34.5t-33.5 -35.5t-34.5 -15q-9 0 -15 6q-36 34 -62 71zM236 103q59 0 103 37q-42 39 -78.5 84t-57.5 81q-68 -48 -68 -115q0 -87 101 -87z" />
    <glyph glyph-name="glyph249" 
d="M250 629.5q-41 42.5 -45 117.5q-1 13 23.5 24t47.5 11t23 -11q2 -49 18 -72t57 -23t64.5 23t42.5 72q4 11 28 11q25 0 48.5 -11t17.5 -24q-28 -75 -83.5 -117.5t-127.5 -42.5q-73 0 -114 42.5z" />
    <glyph glyph-name="glyph250" 
d="M190 630q-17 11 -17 37q0 6 2 20q6 36 27 51.5t69 15.5q41 0 58.5 -11t17.5 -37q0 -5 -2 -19q-6 -37 -27.5 -52.5t-69.5 -15.5q-41 0 -58 11zM442.5 738.5q21.5 15.5 69.5 15.5q41 0 58 -11t17 -36q0 -6 -2 -20q-6 -37 -27 -52.5t-69 -15.5q-41 0 -58 11t-17 36q0 5 2 21
q5 36 26.5 51.5z" />
    <glyph glyph-name="glyph251" 
d="M264.5 726.5q-2.5 4.5 -2.5 10.5q0 12 13 29.5t31.5 30t32.5 12.5q10 0 16 -6l134 -148q9 -11 9 -18q0 -15 -18.5 -33t-34.5 -18q-6 0 -11 3l-158 127q-9 6 -11.5 10.5z" />
    <glyph glyph-name="glyph252" 
d="M293 586q-17 0 -33 19.5t-16 34.5q0 6 4.5 11.5t12.5 12.5l167 139q6 5 16 5q15 0 32 -12t28.5 -30t11.5 -33q0 -7 -4.5 -13t-16.5 -13l-191 -118q-6 -3 -11 -3z" />
    <glyph glyph-name="glyph253" 
d="M560 628q0 -13 -21 -28t-39 -15q-10 0 -16 6l-97 113l-134 -113q-6 -5 -17 -5q-18 0 -36 16t-18 32q0 5 13 18l135 130q11 11 28.5 16.5t37.5 5.5t36 -5.5t23 -16.5l98 -140q7 -10 7 -14z" />
    <glyph glyph-name="glyph254" 
d="M203 761q0 13 21 27.5t39 14.5q10 0 16 -6l97 -112l134 112q8 6 17 6q18 0 36 -16.5t18 -31.5q0 -5 -13 -18l-135 -131q-10 -10 -27.5 -15.5t-37.5 -5.5q-19 0 -35.5 5.5t-24.5 15.5l-98 140q-7 11 -7 15z" />
    <glyph glyph-name="glyph255" 
d="M253.5 628q-40.5 41 -49.5 111q-2 15 22.5 28t46.5 13q17 0 18 -9q6 -44 25 -66t58 -22t65.5 22t47.5 66q5 9 22 9q25 0 48.5 -13t17.5 -28q-34 -70 -87.5 -111t-123.5 -41t-110.5 41z" />
    <glyph glyph-name="glyph256" 
d="M290.5 622q-39.5 38 -39.5 97q0 58 39.5 96.5t100.5 38.5t101 -38.5t40 -96.5q0 -59 -40 -97t-101 -38t-100.5 38zM339 670.5q20 -18.5 52 -18.5t52.5 18.5t20.5 48.5q0 29 -20.5 47.5t-52.5 18.5t-52 -18.5t-20 -47.5q0 -30 20 -48.5z" />
    <glyph glyph-name="glyph257" 
d="M400 619.5q-23 17.5 -49 49.5q-15 20 -25.5 29.5t-23.5 9.5q-33 0 -60 -91q-3 -9 -16 -14t-30 -5q-21 0 -36.5 7t-12.5 19q21 93 62 139.5t96 46.5q38 0 61.5 -17.5t49.5 -50.5q18 -22 27 -30.5t22 -8.5q18 0 32.5 22.5t28.5 68.5q3 10 15.5 15t29.5 5q21 0 36.5 -7.5
t13.5 -19.5q-22 -94 -63 -139.5t-97 -45.5q-38 0 -61 17.5z" />
    <glyph glyph-name="glyph258" 
d="M197 671q0 22 9.5 45.5t26.5 23.5h313q19 0 19 -33q0 -22 -9.5 -46t-27.5 -24h-312q-19 0 -19 34z" />
    <glyph glyph-name="glyph259" 
d="M142 -208q-12 17 -12 35q0 14 10 21l107 77q30 22 47 22q15 0 28 -13t21 -30.5t8 -29.5q0 -9 -7 -15.5t-32 -17.5l-108 -55q-22 -11 -37 -11q-13 0 -25 17z" />
    <glyph glyph-name="glyph260" 
d="M198.5 785q-18.5 11 -18.5 36q0 5 2 21q6 36 29.5 51.5t75.5 15.5q46 0 65 -11.5t19 -36.5q0 -5 -2 -19q-7 -37 -31 -52.5t-76 -15.5q-45 0 -63.5 11zM475.5 893.5q23.5 15.5 76.5 15.5q45 0 64 -11.5t19 -36.5q0 -5 -2 -19q-7 -37 -30.5 -52.5t-75.5 -15.5
q-45 0 -63.5 11t-18.5 36q0 5 2 21q5 36 28.5 51.5z" />
    <glyph glyph-name="glyph261" 
d="M325 785.5q-20 11.5 -20 37.5q0 5 2 19q6 36 31 51.5t82 15.5q49 0 69 -12t20 -39q0 -10 -1 -16q-7 -37 -32.5 -52.5t-81.5 -15.5q-49 0 -69 11.5z" />
    <glyph glyph-name="glyph262" 
d="M281.5 891.5q-2.5 4.5 -2.5 10.5q0 12 14.5 29.5t34.5 30t36 12.5q10 0 17 -6l148 -148q9 -11 9 -18q0 -15 -20 -33t-38 -18q-7 0 -12 3l-174 127q-10 6 -12.5 10.5z" />
    <glyph glyph-name="glyph263" 
d="M313 751q-18 0 -35.5 19.5t-17.5 34.5q0 6 3.5 10t14.5 14l184 139q6 5 17 5q16 0 35 -12t32 -30t13 -33q0 -7 -5 -13t-18 -13l-210 -118q-6 -3 -13 -3z" />
    <glyph glyph-name="glyph264" 
d="M606 793q0 -13 -23 -27.5t-43 -14.5q-12 0 -18 6l-106 112l-148 -112q-7 -6 -18 -6q-20 0 -40 16.5t-20 31.5q0 3 4.5 8t10.5 10l148 131q12 10 31.5 15.5t40.5 5.5q22 0 39.5 -5.5t26.5 -15.5l107 -140q8 -11 8 -15z" />
    <glyph glyph-name="glyph265" 
d="M213 926q0 13 23 27.5t43 14.5q12 0 18 -6l106 -112l148 112q8 6 18 6q20 0 40 -16.5t20 -31.5q0 -3 -4.5 -8t-10.5 -10l-148 -131q-12 -10 -31 -15.5t-41 -5.5q-21 0 -39 5.5t-27 15.5l-107 140q-8 11 -8 15z" />
    <glyph glyph-name="glyph266" 
d="M268.5 793q-44.5 41 -54.5 111q-3 15 24.5 28t50.5 13q19 0 20 -9q7 -44 28 -66t64 -22q42 0 71 22t53 66q5 9 25 9q27 0 53 -13t19 -28q-38 -71 -97 -111.5t-135 -40.5q-77 0 -121.5 41z" />
    <glyph glyph-name="glyph267" 
d="M302.5 787q-43.5 38 -43.5 97q0 38 20 69t55 48.5t79 17.5t79.5 -17.5t55.5 -48.5t20 -69q0 -59 -44 -97t-111 -38t-110.5 38zM356 835.5q22 -18.5 57 -18.5t57.5 18.5t22.5 48.5q0 29 -22.5 47.5t-57.5 18.5t-57 -18.5t-22 -47.5q0 -30 22 -48.5z" />
    <glyph glyph-name="glyph268" 
d="M428.5 779.5q-25.5 17.5 -53.5 49.5q-18 21 -29 30t-25 9q-36 0 -66 -91q-4 -9 -18 -14t-32 -5q-24 0 -40.5 7t-13.5 19q23 93 68 139.5t105 46.5q42 0 69 -18.5t54 -50.5q18 -20 29 -29t24 -9q20 0 36 22.5t31 68.5q3 10 17 15t33 5q24 0 41 -7.5t14 -19.5
q-24 -93 -69.5 -139t-106.5 -46q-42 0 -67.5 17.5z" />
    <glyph glyph-name="glyph269" 
d="M210 801.5q-5 9.5 -5 24.5q0 22 10.5 45.5t29.5 23.5h344q21 0 21 -33q0 -22 -10.5 -46t-30.5 -24h-343q-11 0 -16 9.5z" />
    <glyph glyph-name="glyph270" 
d="M300 642q-21 13 -21 42q0 5 2 21q7 41 32.5 58.5t82.5 17.5q49 0 70 -13t21 -42q0 -7 -2 -21q-7 -41 -32.5 -58.5t-82.5 -17.5q-49 0 -70 13z" />
    <glyph glyph-name="glyph271" 
 />
  </font>
</defs>
</svg>
