<?xml version="1.0" standalone="no"?>
<!DOCTYPE svg PUBLIC "-//W3C//DTD SVG 1.1//EN" "http://www.w3.org/Graphics/SVG/1.1/DTD/svg11.dtd" >
<svg xmlns="http://www.w3.org/2000/svg" xmlns:xlink="http://www.w3.org/1999/xlink" version="1.1">
<metadata>
Created by FontForge 20190801 at Wed Mar 24 01:31:56 2021
 By Unknown
</metadata>
<defs>
<font id="Codelia" horiz-adv-x="620" >
  <font-face 
    font-family="Codelia"
    font-weight="400"
    font-style="italic"
    font-stretch="normal"
    units-per-em="1000"
    panose-1="0 0 0 0 0 0 0 0 0 0"
    ascent="800"
    descent="-200"
    x-height="522"
    cap-height="697"
    bbox="-37.3478 -224 665.083 1020"
    underline-thickness="50"
    underline-position="-175"
    slope="-9"
    unicode-range="U+0020-2013"
  />
<missing-glyph 
 />
    <glyph glyph-name=".notdef" 
 />
    <glyph glyph-name=".null" horiz-adv-x="0" 
 />
    <glyph glyph-name="nonmarkingreturn" 
 />
    <glyph glyph-name="space" unicode=" " 
 />
    <glyph glyph-name="exclam" unicode="!" 
d="M206.5 1.5q-17.5 11.5 -17.5 38.5q0 11 1 17q6 36 28 51t69 15q41 0 58.5 -11t17.5 -36q0 -5 -2 -19q-6 -36 -27.5 -51.5t-68.5 -15.5q-41 0 -58.5 11.5zM331 709q2 14 15.5 20.5t42.5 6.5q31 0 41 -6t8 -21l-87 -419q-3 -13 -11.5 -19t-28.5 -6t-27 6t-6 19z" />
    <glyph glyph-name="dollar" unicode="$" 
d="M219 -89q0 12 15 76q-81 3 -149 31q-15 7 -21 13t-6 15q0 14 6.5 28t16 22t17.5 4q66 -34 146 -38q19 145 42 251q-73 25 -112 65t-39 121q0 91 57.5 147.5t162.5 63.5q2 26 4.5 43t2.5 21q3 18 37 18q30 0 30 -15q0 -12 -14 -67q73 -6 132 -36q15 -8 22 -15t7 -17
q0 -11 -7.5 -25t-18 -22.5t-19.5 -3.5q-62 38 -126 44q-13 -108 -44 -256q84 -26 123 -68t39 -114q0 -88 -61.5 -144.5t-166.5 -64.5q-5 -53 -10 -74q-3 -19 -36 -19q-30 0 -30 16zM241.5 432.5q25.5 -24.5 76.5 -40.5q16 131 40 243q-72 -4 -107 -40t-35 -90
q0 -48 25.5 -72.5zM401 102.5q40 33.5 40 89.5q0 41 -25 65t-85 43q-15 -122 -40 -237q70 6 110 39.5z" />
    <glyph glyph-name="ampersand" unicode="&#x26;" 
d="M412 79q-88 -91 -198 -91q-91 0 -141 46.5t-50 129.5q0 67 39 122.5t106 91.5q-12 59 -12 106q0 105 58 164t159 59q57 0 101.5 -14t57.5 -35q7 -13 7 -64q0 -50 -6 -82q-1 -10 -14 -16.5t-31 -6.5q-17 0 -24.5 4.5t-7.5 14.5l3 79l1 30q-34 18 -89 18q-76 0 -108 -41.5
t-32 -138.5q0 -20 2 -70l104 -118l78 -88q51 80 80 142q6 12 26 12q21 0 37 -11t10 -25q-48 -98 -106 -164q33 -27 90 -82q3 -3 3 -8q0 -14 -18.5 -33.5t-33.5 -19.5q-6 0 -10 4q-55 53 -81 85zM130 91.5q30 -27.5 89 -27.5q83 0 148 62q-55 54 -99 107.5t-69 93.5
q-99 -63 -99 -156q0 -52 30 -79.5z" />
    <glyph glyph-name="comma" unicode="," 
d="M124 -203q-15 0 -28 11.5t-13 25.5q0 9 15 23q43 43 130 117q-15 27 -23 59.5t-8 59.5q0 40 24.5 54.5t73.5 14.5q42 0 60.5 -10.5t18.5 -30.5q0 -27 -31.5 -82t-84.5 -119t-115 -116q-8 -7 -19 -7z" />
    <glyph glyph-name="hyphen" unicode="-" 
d="M103 309q0 20 7.5 43t21.5 23h393q8 0 11 -6.5t3 -19.5q0 -20 -7.5 -43t-21.5 -23h-393q-14 0 -14 26z" />
    <glyph glyph-name="period" unicode="." 
d="M193.5 4.5q-21.5 14.5 -21.5 47.5q0 6 2 24q8 45 35.5 65.5t84.5 20.5q49 0 70.5 -15t21.5 -47q0 -6 -2 -24q-8 -46 -35 -66t-84 -20q-50 0 -71.5 14.5z" />
    <glyph glyph-name="zero" unicode="0" 
d="M127.5 54q-47.5 66 -47.5 209q0 100 27 201.5t93 173t174 71.5q101 0 148.5 -66t47.5 -209q0 -100 -27 -201.5t-93 -173t-173 -71.5q-102 0 -149.5 66zM162 216q163 173 319 316q-11 53 -38 77t-73 24q-73 0 -120 -59t-68 -145t-21 -168q0 -31 1 -45zM206 89.5
q28 -25.5 75 -25.5q73 0 119.5 59t67.5 145t21 168q0 21 -2 51q-148 -160 -319 -317q10 -55 38 -80.5z" />
    <glyph glyph-name="one" unicode="1" 
d="M75 17q0 17 6.5 39.5t20.5 22.5q78 0 160 -5q32 242 87 523h-14q-92 -57 -193 -86q-15 -4 -24 14t-9 40q0 10 5.5 16t19.5 10q57 18 119 45.5t112 58.5q14 9 30 9q23 0 37 -6t12 -16q-57 -348 -105 -608q78 5 144 5q13 0 13 -17q0 -18 -6 -40t-20 -22h-381q-14 0 -14 17z
" />
    <glyph glyph-name="two" unicode="2" 
d="M33 22q0 48 33 75q156 118 238 186.5t129.5 130t47.5 116.5q0 48 -30 73t-84 25q-45 0 -90.5 -13t-84.5 -36l-8 -2q-12 0 -21 16t-9 34q0 13 10 19q45 29 100 45t113 16q90 0 140 -44.5t50 -125.5q0 -76 -56 -150.5t-142.5 -143t-219.5 -158.5l-2 -11q118 5 351 5
q13 0 13 -17q0 -18 -6 -40t-20 -22h-439q-13 0 -13 22z" />
    <glyph glyph-name="three" unicode="3" 
d="M156.5 -5.5q-44.5 9.5 -78.5 25.5q-15 7 -21.5 13.5t-6.5 15.5q0 17 11 36.5t22 19.5q4 0 11.5 -3.5t11.5 -5.5q32 -15 65 -24.5t80 -9.5q84 0 135 34t51 90q0 43 -27 73t-84 52q-48 -3 -110 -3q-21 0 -21 26q0 19 7 37t24 18q22 0 56.5 -3t62.5 -7q58 34 91.5 73
t33.5 88q0 88 -125 88q-39 0 -78 -8.5t-69 -22.5q-6 -2 -8 -2q-12 0 -19.5 16.5t-7.5 32.5q0 11 4 16.5t12 8.5q35 16 83 26t93 10q96 0 148 -39t52 -110q0 -121 -143 -205l-2 -11q54 -21 82.5 -58t28.5 -95q0 -61 -35 -107t-96.5 -70.5t-139.5 -24.5q-49 0 -93.5 9.5z" />
    <glyph glyph-name="four" unicode="4" 
d="M342 -2q-9 5 -7 15q13 79 33 178q-105 -5 -315 -5q-15 0 -15 21q0 48 27 83q66 86 160 191.5t185 196.5q16 16 29.5 21.5t38.5 5.5q57 0 53 -23q-41 -254 -75 -423q59 4 100 4q14 0 14 -19q0 -18 -6 -38t-20 -20q-42 0 -99 4q-8 -74 -25 -177q-2 -10 -12.5 -15t-33.5 -5
t-32 5zM257 262q68 0 123 -4q10 78 28.5 181.5t35.5 175.5h-11q-78 -78 -160.5 -171t-145.5 -175l-1 -11q59 4 131 4z" />
    <glyph glyph-name="five" unicode="5" 
d="M160.5 -5.5q-46.5 9.5 -78.5 25.5q-16 8 -23 14.5t-7 15.5q0 14 13 35t23 21q5 0 21 -8q33 -15 67.5 -25t85.5 -10q79 0 128 37.5t49 97.5q0 65 -62.5 100t-204.5 49q-18 2 -26.5 8t-8.5 18q0 10 4 21l91 268q12 35 35 35h303q14 0 14 -21q0 -18 -6.5 -37t-20.5 -19
q-135 0 -258 5q-35 -119 -74 -218q158 -11 228 -61t70 -145q0 -61 -32.5 -110t-93 -77.5t-141.5 -28.5q-49 0 -95.5 9.5z" />
    <glyph glyph-name="six" unicode="6" 
d="M129 43.5q-57 58.5 -57 186.5q0 122 40.5 232t126.5 180t216 70q52 0 95 -8q13 -3 18.5 -8.5t5.5 -17.5q0 -21 -10 -40.5t-23 -15.5q-39 13 -91 13q-107 0 -180.5 -67.5t-107.5 -204.5l7 -1q83 63 177 63q95 0 145.5 -48t50.5 -142q0 -71 -29.5 -127.5t-85.5 -89.5
t-133 -33q-108 0 -165 58.5zM189.5 103q34.5 -42 104.5 -42q77 0 120.5 48.5t43.5 120.5q0 62 -34.5 94t-100.5 32q-41 0 -83 -12.5t-79 -34.5q-6 -49 -6 -76q0 -88 34.5 -130z" />
    <glyph glyph-name="seven" unicode="7" 
d="M168 -3q-11 4 -11 12q0 9 14 37q134 288 336 566l2 11q-120 -5 -358 -5q-13 0 -13 18t7 39.5t19 21.5h436q13 0 13 -21q0 -17 -7 -39t-20 -41q-96 -136 -182.5 -285t-152.5 -297q-6 -12 -16 -16.5t-30 -4.5q-26 0 -37 4z" />
    <glyph glyph-name="eight" unicode="8" 
d="M112.5 30.5q-58.5 45.5 -58.5 128.5q0 120 136 197l2 10q-29 26 -46 65t-17 86q0 92 67.5 143.5t176.5 51.5q103 0 156.5 -41.5t53.5 -118.5q0 -61 -36 -113t-100 -82l-2 -10q91 -61 91 -163q0 -94 -70 -146.5t-182 -52.5q-113 0 -171.5 45.5zM177 90q38 -31 114 -31
q75 0 118.5 32.5t43.5 89.5q0 79 -69 129q-75 7 -136 19q-56 -39 -82.5 -76t-26.5 -78q0 -54 38 -85zM250 400q65 -12 139 -20q49 31 79.5 72.5t30.5 82.5q0 49 -33.5 76t-100.5 27q-74 0 -113.5 -34t-39.5 -89q0 -65 38 -115z" />
    <glyph glyph-name="nine" unicode="9" 
d="M104.5 1.5q-11.5 14.5 -11.5 37.5q0 21 20 28q228 75 323 204l-2 10q-44 -11 -99 -11q-109 0 -168 51.5t-59 150.5q0 67 29.5 121.5t84.5 86.5t129 32q109 0 169.5 -61.5t60.5 -174.5q0 -115 -57.5 -211.5t-159 -165.5t-231.5 -108q-17 -4 -28.5 10.5zM240.5 372.5
q47.5 -35.5 137.5 -35.5q53 0 94 8q25 60 25 124q0 79 -36 123t-109 44q-48 0 -84.5 -21.5t-55.5 -57t-19 -78.5q0 -71 47.5 -106.5z" />
    <glyph glyph-name="colon" unicode=":" 
d="M255.5 374.5q-21.5 14.5 -21.5 47.5q0 6 2 24q8 45 35.5 65.5t84.5 20.5q49 0 70.5 -15t21.5 -47q0 -6 -2 -24q-8 -46 -35 -66t-84 -20q-50 0 -71.5 14.5zM193.5 3.5q-21.5 14.5 -21.5 47.5q0 6 2 24q8 45 35.5 65.5t84.5 20.5q49 0 70.5 -15t21.5 -47q0 -6 -2 -24
q-8 -46 -35 -66t-84 -20q-50 0 -71.5 14.5z" />
    <glyph glyph-name="semicolon" unicode=";" 
d="M124 -203q-15 0 -28 11.5t-13 25.5q0 9 15 23q43 43 130 117q-15 27 -23 59.5t-8 59.5q0 40 24.5 54.5t73.5 14.5q42 0 60.5 -10.5t18.5 -30.5q0 -27 -31.5 -82t-84.5 -119t-115 -116q-8 -7 -19 -7zM255.5 374.5q-21.5 14.5 -21.5 47.5q0 6 2 24q8 45 35.5 65.5
t84.5 20.5q49 0 70.5 -15t21.5 -47q0 -6 -2 -24q-8 -46 -35 -66t-84 -20q-50 0 -71.5 14.5z" />
    <glyph glyph-name="question" unicode="?" 
d="M211 275q-10 15 -10 34q0 15 14 20q102 40 156.5 68.5t77.5 54t23 57.5q0 62 -86 93t-195 35q-19 1 -19 37q0 19 8 38t28 19q65 0 145.5 -20t141 -68t60.5 -125q0 -56 -30.5 -97t-99 -77t-191.5 -80q-13 -4 -23 11zM165 108q22 15 69 15q41 0 58.5 -11t17.5 -36
q0 -5 -2 -19q-6 -35 -28 -51t-68 -16q-41 0 -58.5 12t-17.5 38q0 11 1 17q6 36 28 51z" />
    <glyph glyph-name="A" unicode="A" 
d="M10 10q0 8 11 38q123 327 286 625q10 19 25.5 25.5t51.5 6.5t49 -6.5t17 -25.5q64 -294 78 -625q0 -30 -1 -36q-3 -19 -47 -19q-20 0 -28 4.5t-9 20.5q-4 72 -6 180q-60 -4 -135 -4t-135 4q-41 -120 -66 -180q-6 -16 -16.5 -20.5t-30.5 -4.5q-44 0 -44 17zM314 269
q61 0 122 -3q-3 18 -7 54q-2 17 -16 121t-31 191h-12q-46 -86 -120 -242q-40 -84 -60 -124q62 3 124 3z" />
    <glyph glyph-name="B" unicode="B" 
d="M160.5 -1q-50.5 7 -78.5 21q-15 6 -20 14t-3 23l60 356q17 99 27 135.5t23 56.5l2 12q-27 -6 -37 -6q-16 0 -16 20l2 17q3 19 10 26t24 12q37 8 88.5 13.5t98.5 5.5q220 0 220 -163q0 -117 -118 -184l-3 -11q48 -16 73.5 -53t25.5 -95q0 -101 -76 -154t-199 -53
q-53 0 -103.5 7zM264 64q85 0 137.5 33.5t52.5 100.5q0 114 -147 114q-70 0 -123 -8q-14 -125 -36 -222q39 -18 116 -18zM319 378q18 0 46 -2q109 64 109 157q0 100 -139 100q-44 0 -97 -7q-14 -119 -43 -256q67 8 124 8z" />
    <glyph glyph-name="C" unicode="C" 
d="M131.5 51.5q-57.5 62.5 -57.5 201.5q0 100 32.5 204.5t108 177.5t196.5 73q68 0 118.5 -17.5t62.5 -42.5q8 -13 8 -66q0 -42 -4 -61q-4 -27 -48 -27q-19 0 -26.5 4.5t-6.5 17.5l3 87q-16 12 -46.5 19.5t-66.5 7.5q-89 0 -144 -61.5t-78 -146.5t-23 -161q0 -105 36.5 -149
t112.5 -44q41 0 82.5 10t91.5 32q6 2 9 2q12 0 19.5 -15.5t7.5 -33.5q0 -23 -20 -32q-40 -19 -93.5 -30.5t-103.5 -11.5q-113 0 -170.5 62.5z" />
    <glyph glyph-name="D" unicode="D" 
d="M143 -1q-44 7 -71 18q-15 6 -19.5 14.5t-2.5 23.5l59 354q17 99 27 135.5t23 56.5l2 12q-27 -6 -37 -6q-8 0 -11.5 5t-3.5 16t1 18q4 20 11 28t24 12q79 19 169 19q130 0 195.5 -73.5t65.5 -218.5q0 -106 -33.5 -201.5t-109.5 -157.5t-196 -62q-49 0 -93 7zM235 72
q100 0 156.5 56.5t77 132.5t20.5 149q0 110 -44.5 162.5t-137.5 52.5q-45 0 -80 -6q-35 -251 -89 -534q37 -13 97 -13z" />
    <glyph glyph-name="E" unicode="E" 
d="M84 8q-6 8 -4 26l64 385q16 100 26 136t24 55l2 12l-38 -2q-15 0 -15 22q0 17 7.5 36t20.5 19h414q14 0 14 -22q0 -17 -7 -36t-20 -19q-139 0 -311 4q-10 -104 -40 -234q161 4 274 4q14 0 14 -22q0 -17 -7 -35t-20 -18q-112 0 -272 3q-12 -119 -42 -249q175 4 317 4
q15 0 15 -22q0 -18 -7 -36.5t-21 -18.5h-364q-18 0 -24 8z" />
    <glyph glyph-name="F" unicode="F" 
d="M103.5 -2q-9.5 5 -7.5 15l67 406q16 99 26.5 135.5t24.5 55.5l1 12l-37 -2q-15 0 -15 22q0 17 7 36t20 19h415q15 0 15 -22q0 -18 -7 -38t-21 -20q-148 0 -312 5q-12 -112 -42 -260q151 4 273 4q15 0 15 -22q0 -17 -7.5 -36t-20.5 -19q-122 0 -273 3q-12 -95 -42 -279
q-5 -20 -47 -20q-23 0 -32.5 5z" />
    <glyph glyph-name="G" unicode="G" 
d="M127.5 52.5q-59.5 63.5 -59.5 204.5q0 114 37 217.5t113 168.5t186 65q66 0 114.5 -14.5t63.5 -36.5q9 -13 9 -60q0 -34 -4 -53q-4 -26 -53 -26q-15 0 -21.5 4t-6.5 12l1 73q-16 12 -45 18.5t-64 6.5q-79 0 -134 -54t-82 -139.5t-27 -178.5q0 -106 37 -150.5t113 -44.5
q71 0 129 25q7 85 32 185q-69 -4 -120 -4q-15 0 -15 22q0 16 7 34t20 18h169q18 0 24.5 -8t3.5 -26l-39 -230q-3 -20 -11.5 -32.5t-26.5 -21.5q-87 -38 -177 -38q-114 0 -173.5 63.5z" />
    <glyph glyph-name="H" unicode="H" 
d="M39 13l111 671q5 20 47 20q44 0 41 -20q-17 -112 -53 -290q67 4 147 4q82 0 147 -4q24 166 39 256l5 34q3 20 47 20q43 0 40 -20l-111 -671q-5 -20 -47 -20q-45 0 -40 20q18 116 56 309q-75 -3 -148 -3q-72 0 -146 3q-20 -145 -40 -256l-8 -53q-3 -20 -47 -20
q-43 0 -40 20z" />
    <glyph glyph-name="I" unicode="I" 
d="M82 22q0 18 7 38t21 20q57 0 130 -5q40 285 91 547q-74 -5 -131 -5q-15 0 -15 23q0 18 7 37.5t21 19.5h340q14 0 14 -22q0 -18 -7 -38t-21 -20q-57 0 -130 5q-34 -252 -90 -547q73 5 131 5q7 0 11 -6t4 -17q0 -17 -7.5 -37t-20.5 -20h-340q-15 0 -15 22z" />
    <glyph glyph-name="J" unicode="J" 
d="M53 40q-16 16 -16 28q0 15 15.5 33.5t28.5 18.5q6 0 10 -4q23 -25 48.5 -36.5t63.5 -11.5q68 0 109 33t64 117q17 65 36 182.5t31 221.5q-120 -5 -216 -5q-7 0 -11 6t-4 17q0 17 7.5 37t20.5 20h264q18 0 25 -8.5t5 -25.5q-40 -333 -80 -475q-31 -104 -93 -152t-160 -48
q-99 0 -148 52z" />
    <glyph glyph-name="K" unicode="K" 
d="M439 -1.5q-5 5.5 -12 23.5q-25 73 -66.5 149.5t-94.5 145.5q-17 -2 -42.5 -3.5t-39.5 -2.5l-35 -227l-11 -71q-5 -20 -47 -20q-45 0 -40 20l111 671q3 20 47 20q43 0 40 -20q-13 -83 -53 -294q38 1 79 6q122 126 229 282q11 15 18 20.5t17 5.5q22 0 42 -8.5t20 -20.5
t-19 -38q-47 -66 -116 -145.5t-132 -139.5q54 -64 101 -143t71 -144q11 -27 11 -39t-22.5 -22.5t-40.5 -10.5q-10 0 -15 5.5z" />
    <glyph glyph-name="L" unicode="L" 
d="M66.5 8.5q-6.5 8.5 -4.5 25.5l108 650q5 20 46 20q44 0 41 -20l-14 -84q-58 -348 -92 -525q220 5 272 5q17 46 30 89q5 14 10 18.5t17 4.5q22 0 36.5 -7.5t14.5 -19.5q0 -20 -24.5 -76.5t-40.5 -76.5q-10 -12 -24 -12h-352q-17 0 -23.5 8.5z" />
    <glyph glyph-name="M" unicode="M" 
d="M17 14q26 157 62 335.5t73 325.5q5 17 19 23.5t46 6.5q30 0 41.5 -6.5t13.5 -24.5q31 -195 38 -358h14q70 184 158 358q7 17 21.5 24t45.5 7q32 0 44.5 -6.5t11.5 -23.5q-11 -145 -34 -322.5t-49 -338.5q-4 -21 -45 -21q-43 0 -38 20q57 325 90 605h-12
q-83 -162 -159 -354q-5 -15 -16.5 -21.5t-35.5 -6.5t-34 6.5t-9 21.5q-13 191 -41 354h-12q-55 -253 -111 -605q-3 -20 -44 -20q-42 0 -38 21z" />
    <glyph glyph-name="N" unicode="N" 
d="M37 13l111 665q3 14 17 20t41 6q29 0 40.5 -8t17.5 -32q86 -272 167 -576h10q10 99 36 280.5t48 315.5q3 20 47 20q43 0 40 -20l-111 -665q-2 -14 -16 -20t-42 -6q-29 0 -40 7.5t-18 32.5q-74 235 -167 576h-10q-10 -97 -35.5 -276.5t-47.5 -319.5q-5 -20 -47 -20
q-44 0 -41 20z" />
    <glyph glyph-name="O" unicode="O" 
d="M114 53.5q-51 65.5 -51 209.5q0 100 28.5 201.5t98.5 173t184 71.5q111 0 162 -65.5t51 -209.5q0 -100 -28.5 -201.5t-98.5 -173t-184 -71.5q-111 0 -162 65.5zM180.5 111q31.5 -45 102.5 -45q76 0 125 58.5t71.5 144t22.5 166.5q0 105 -31.5 150.5t-102.5 45.5
q-76 0 -125.5 -58.5t-71.5 -143.5t-22 -167q0 -106 31.5 -151z" />
    <glyph glyph-name="P" unicode="P" 
d="M68 13l65 396q16 98 26.5 135t23.5 57l2 12q-27 -6 -36 -6q-8 0 -12 4.5t-4 15.5q0 3 2 19q3 19 10 27t24 13q38 8 87.5 13.5t94.5 5.5q118 0 178 -52.5t60 -156.5q0 -73 -29 -137t-94.5 -105t-167.5 -41q-62 0 -113 12q-19 -133 -31 -212q-3 -20 -47 -20t-39 20z
M302 288q106 0 153 59.5t47 147.5q0 69 -37.5 101.5t-115.5 32.5q-55 0 -97 -9q-18 -157 -54 -321q48 -11 104 -11z" />
    <glyph glyph-name="Q" unicode="Q" 
d="M127 59.5q-64 66.5 -64 203.5q0 100 28.5 201.5t98.5 173t184 71.5q111 0 162 -65.5t51 -209.5q0 -92 -34 -199.5t-104 -199.5q53 -44 113 -80q10 -7 13.5 -11.5t3.5 -10.5q0 -16 -18.5 -37t-32.5 -21q-6 0 -11.5 3t-13.5 9q-58 43 -113 114q-42 -8 -81 -8
q-118 0 -182 66.5zM193.5 111.5q44.5 -45.5 129.5 -45.5q39 0 67 6q54 79 83 183t29 180q0 105 -31.5 150.5t-101.5 45.5q-77 0 -126.5 -58.5t-71.5 -143.5t-22 -167q0 -105 44.5 -150.5z" />
    <glyph glyph-name="R" unicode="R" 
d="M57 13l67 400q16 100 26 136.5t24 55.5l2 12q-27 -6 -37 -6q-16 0 -16 20l2 17q3 19 10 26t24 12q37 8 85.5 13.5t94.5 5.5q117 0 176 -48t59 -140q0 -78 -43 -142t-124 -108q35 -49 65.5 -104t49.5 -102q9 -24 9 -33q0 -14 -23.5 -24.5t-40.5 -10.5q-11 0 -16.5 7
t-12.5 28q-41 111 -111 219q-30 -2 -44 -2q-43 0 -103 7q-17 -123 -36 -239q-5 -20 -47 -20q-43 0 -40 20zM305 321q37 0 55 1q128 83 128 195t-150 112q-57 0 -96 -7q-16 -126 -49 -294q52 -7 112 -7z" />
    <glyph glyph-name="S" unicode="S" 
d="M85 18q-15 7 -21 13t-6 15q0 14 6.5 28t16 22t17.5 4q76 -38 165 -38q80 0 128 34t48 96q0 43 -28.5 67t-97.5 44q-57 17 -94.5 37t-61 58t-23.5 99q0 98 65 156t182 58q57 0 107.5 -13.5t62.5 -29.5q10 -11 10 -60q0 -24 -4 -52q-4 -26 -50 -26q-17 0 -23.5 4.5
t-5.5 13.5q4 40 2 68q-47 20 -104 20q-81 0 -119.5 -37t-38.5 -94q0 -53 31 -78t96 -43q93 -26 135.5 -69t42.5 -118q0 -63 -32.5 -111t-92.5 -74t-140 -26q-94 0 -173 32z" />
    <glyph glyph-name="T" unicode="T" 
d="M225 13l14 84q58 348 92 525q-114 -5 -207 -5q-7 0 -11 6t-4 17q0 17 7.5 37t20.5 20h491q15 0 15 -22q0 -17 -7.5 -37.5t-20.5 -20.5q-64 0 -207 5q-28 -203 -81 -521q-5 -34 -14 -88q-5 -20 -47 -20q-44 0 -41 20z" />
    <glyph glyph-name="U" unicode="U" 
d="M124.5 35.5q-49.5 47.5 -49.5 151.5q0 72 25 214t55 283q4 10 14.5 15t32.5 5q24 0 33 -5.5t6 -18.5q-27 -115 -54.5 -269t-28.5 -224q0 -66 29 -92.5t89 -26.5q66 0 105.5 33t61.5 119q19 72 42.5 219t32.5 241q2 13 12.5 18.5t34.5 5.5q23 0 32 -5t8 -15
q-14 -130 -36 -271t-48 -230q-29 -102 -89.5 -148.5t-156.5 -46.5q-101 0 -150.5 47.5z" />
    <glyph glyph-name="V" unicode="V" 
d="M216.5 0q-13.5 7 -17.5 25q-72 309 -78 647q0 18 9.5 25.5t38.5 7.5q20 0 28.5 -4.5t8.5 -20.5q1 -154 16.5 -311.5t45.5 -297.5h12q78 139 146.5 296t121.5 313q6 16 16.5 20.5t31.5 4.5q44 0 44 -15q0 -7 -12 -40q-117 -327 -286 -625q-9 -18 -24.5 -25t-51.5 -7
t-49.5 7z" />
    <glyph glyph-name="W" unicode="W" 
d="M104 2q-10 8 -11 35q-10 117 -10 262q0 110 5 214.5t14 172.5q3 19 44 19q21 0 30 -5t8 -18q-29 -229 -29 -481q0 -87 2 -129h12q70 134 122 285q9 96 15 132q4 23 45 23q21 0 30 -5.5t7 -17.5q-7 -35 -29 -132q3 -148 27 -285h12q112 304 177 610q3 13 14 18t32 5
q42 0 39 -19q-25 -123 -89.5 -322.5t-118.5 -326.5q-10 -27 -22.5 -35t-39.5 -8t-36.5 7t-12.5 28q-21 137 -19 271h-10q-48 -150 -108 -271q-10 -21 -22.5 -28t-40.5 -7q-27 0 -37 8z" />
    <glyph glyph-name="X" unicode="X" 
d="M26 1q-19 10 -19 23q0 12 20 40q45 71 112.5 156.5t131.5 151.5q-36 61 -70.5 134.5t-55.5 132.5q-8 24 -8 34q0 13 20.5 23t37.5 10q10 0 15.5 -6t11.5 -24q43 -137 106 -255h16q103 127 182 255q11 18 18.5 24t17.5 6q20 0 38.5 -10.5t18.5 -24.5q0 -6 -5.5 -16
t-13.5 -23q-42 -63 -102 -140t-115 -137q44 -69 83.5 -150.5t60.5 -147.5q8 -27 8 -32q0 -14 -20 -24t-39 -10q-10 0 -16 6t-12 25q-37 138 -123 284h-14q-129 -147 -210 -284q-11 -19 -18.5 -25t-17.5 -6q-20 0 -39 10z" />
    <glyph glyph-name="Y" unicode="Y" 
d="M225 13q15 94 49 266q-93 178 -143 375q-4 18 -4 22q0 11 19.5 20t39.5 9q12 0 18 -6t8 -20q17 -73 45 -157.5t60 -158.5h10q57 73 113.5 157t99.5 159q7 14 14 20t19 6q23 0 40.5 -7.5t17.5 -19.5q0 -8 -10 -25q-116 -198 -269 -376q-22 -155 -39 -264q-5 -20 -47 -20
q-44 0 -41 20z" />
    <glyph glyph-name="Z" unicode="Z" 
d="M15 24q0 4 2 18q3 22 9.5 35t25.5 35q256 297 447 499l2 11q-193 -5 -347 -5q-7 0 -11 6t-4 17q0 17 7.5 37t20.5 20h425q20 0 20 -23q0 -5 -2 -19q-3 -21 -9.5 -35t-25.5 -35q-256 -297 -447 -499l-1 -11q206 5 389 5q7 0 11 -6t4 -17q0 -17 -7.5 -37t-20.5 -20h-468
q-20 0 -20 24z" />
    <glyph glyph-name="a" unicode="a" 
d="M462.5 -8q-5.5 6 -10.5 26q-21 82 -31 126h-10q-64 -79 -119.5 -117.5t-108.5 -38.5q-59 0 -91 47t-32 143q0 103 34 183t100 126t158 46q51 0 95 -13t75 -39q18 -14 18 -32q0 -8 -1 -13l-9 -48q-12 -67 -22 -111.5t-25 -92.5q28 -68 51 -134q7 -21 7 -30
q0 -13 -20.5 -23.5t-40.5 -10.5q-12 0 -17.5 6zM163 96q17 -31 48 -31q39 0 91 40.5t109 116.5q12 42 23 97t20 110q-45 32 -112 32q-94 0 -145 -75.5t-51 -193.5q0 -65 17 -96z" />
    <glyph glyph-name="b" unicode="b" 
d="M93 41q-17 14 -17 32q0 8 1 13l65 392q18 108 31 208l4 27q2 10 13 15t33 5t30.5 -5t6.5 -15q-30 -195 -59 -335h11q61 79 115 117.5t106 38.5q58 0 90.5 -47t32.5 -143q0 -103 -34.5 -183t-100.5 -126t-158 -46q-103 0 -170 52zM274 61q94 0 144.5 75.5t50.5 193.5
q0 65 -17 96t-48 31q-41 0 -96.5 -46.5t-119.5 -137.5q-9 -81 -29 -177q45 -35 115 -35z" />
    <glyph glyph-name="c" unicode="c" 
d="M129.5 32.5q-45.5 44.5 -45.5 143.5q0 90 30.5 171.5t96 134t164.5 52.5q53 0 92.5 -12t56.5 -31q9 -9 13 -44t4 -66q0 -14 -14 -21.5t-36 -7.5q-31 0 -31 18l1 69q-15 9 -40 14.5t-53 5.5q-73 0 -118 -44.5t-63.5 -106t-18.5 -118.5q0 -68 25.5 -96.5t77.5 -28.5
q45 0 93 21.5t102 62.5q5 4 11 4q14 0 26.5 -18t12.5 -33q0 -10 -14 -20q-54 -43 -117 -68.5t-123 -25.5q-87 0 -132.5 44.5z" />
    <glyph glyph-name="d" unicode="d" 
d="M92 35q-32 47 -32 143q0 103 33 183t97 126t153 46q66 0 128 -25q14 100 32 205q3 20 45 20q38 0 38 -17l-6 -36q-15 -79 -33 -191l-48 -292l37 -149q5 -19 5 -29q0 -15 -20.5 -24t-39.5 -9q-12 0 -18.5 6.5t-9.5 26.5l-20 142h-11q-67 -88 -125 -130.5t-114 -42.5
q-59 0 -91 47zM163 96q17 -31 48 -31q41 0 96.5 46t118.5 137q10 80 31 185q-53 28 -115 28q-94 0 -145 -75.5t-51 -193.5q0 -65 17 -96z" />
    <glyph glyph-name="e" unicode="e" 
d="M128 35q-47 47 -47 148q0 97 36.5 177t102 126.5t149.5 46.5q55 0 96.5 -18.5t64 -50.5t22.5 -71q0 -47 -36 -78.5t-115 -58.5t-237 -66q0 -70 28.5 -99.5t93.5 -29.5q47 0 93.5 17.5t96.5 50.5q11 7 25 -10.5t14 -33.5q0 -8 -4 -14.5t-16 -14.5q-107 -68 -218 -68
q-102 0 -149 47zM361.5 302.5q59.5 19.5 85 38.5t26.5 47q0 34 -30.5 57t-79.5 23q-80 0 -131.5 -63.5t-63.5 -158.5q134 37 193.5 56.5z" />
    <glyph glyph-name="f" unicode="f" 
d="M35 -193.5q-7 10.5 -7 30.5q0 19 5 28t18 11q59 13 91 31.5t48 48t24 80.5q13 81 23 261q2 26 3.5 55.5t4.5 61.5q-77 -5 -145 -5q-15 0 -15 22q0 17 7 36t20 19q63 0 132 -4q0 97 26 151.5t93 79.5t192 25q20 0 20 -38q0 -37 -20 -39q-101 -1 -149.5 -15.5t-67 -51
t-20.5 -113.5q125 5 235 5q15 0 15 -22q0 -17 -7 -36t-20 -19q-107 0 -223 4q-2 -256 -23 -390q-16 -103 -71 -154.5t-171 -70.5q-11 -2 -18 8.5z" />
    <glyph glyph-name="g" unicode="g" 
d="M1 -89q0 36 23 69.5t77 76.5q-35 50 -35 139q0 99 35 175.5t101 119t157 42.5q105 0 169 -52q12 -10 15.5 -19.5t1.5 -28.5q-26 -154 -70 -264q27 -93 27 -165q0 -106 -74.5 -157.5t-214.5 -51.5q-212 0 -212 116zM217 -132q103 0 152 35t49 113q0 58 -14 127
q-57 -41 -124.5 -66.5t-134.5 -34.5q-36 -37 -52 -62.5t-16 -45.5q0 -66 140 -66zM168 120q57 4 118.5 25t122.5 61q30 95 51 222q-22 17 -51 25t-61 8q-93 0 -144 -70.5t-51 -181.5q0 -54 15 -89z" />
    <glyph glyph-name="h" unicode="h" 
d="M400 -1.5q-9 5.5 -6 18.5q61 221 61 325q0 56 -15 81t-47 25q-46 0 -103 -48t-111 -138q-14 -117 -36 -249q-2 -10 -12.5 -15t-32.5 -5q-44 0 -39 20l79 476q14 76 30 197l4 27q2 10 12.5 15t32.5 5q44 0 39 -20q-32 -194 -61 -336h10q56 80 113 118.5t106 38.5
q116 0 116 -171q0 -129 -64 -350q-2 -10 -12 -15t-32 -5q-23 0 -32 5.5z" />
    <glyph glyph-name="i" unicode="i" 
d="M237.5 19.5q-28.5 31.5 -28.5 94.5q0 52 17 147t41 185q-86 -4 -156 -4q-14 0 -14 21q0 17 7 36t20 19h206q17 0 23 -7t4 -24q-27 -111 -43.5 -205t-16.5 -142q0 -38 11 -55t36 -17q64 0 143 75q5 3 9 3q12 0 23.5 -16t11.5 -29q0 -8 -3 -13t-11 -13q-43 -40 -94 -63.5
t-102 -23.5q-55 0 -83.5 31.5zM292.5 661.5q-16.5 10.5 -16.5 33.5q0 10 1 16q5 32 25.5 45.5t63.5 13.5q37 0 53.5 -10.5t16.5 -33.5q0 -10 -1 -15q-5 -32 -25.5 -46t-63.5 -14q-37 0 -53.5 10.5z" />
    <glyph glyph-name="j" unicode="j" 
d="M32.5 -191.5q-6.5 12.5 -6.5 32.5q0 32 20 33q81 10 132 29.5t81.5 55.5t47.5 96q23 81 41.5 189.5t28.5 201.5q-125 -4 -233 -4q-14 0 -14 22q0 10 1 16q7 38 26 38h280q16 0 22 -5t6 -18q-1 -49 -26 -205t-53 -261q-21 -77 -63.5 -124.5t-108 -72.5t-162.5 -35
q-13 -1 -19.5 11.5zM360.5 661.5q-16.5 10.5 -16.5 33.5q0 10 1 16q5 32 25.5 45.5t63.5 13.5q37 0 53.5 -10.5t16.5 -33.5q0 -10 -1 -15q-5 -32 -25.5 -46t-63.5 -14q-37 0 -53.5 10.5z" />
    <glyph glyph-name="k" unicode="k" 
d="M350.5 61.5q-63.5 60.5 -116.5 124.5q-4 6 -4 11q0 14 14 30t26 16q5 0 9 -4l33 -35q82 35 117.5 77.5t35.5 94.5q0 35 -14.5 56t-41.5 21q-51 0 -113 -52.5t-119 -149.5q-14 -102 -35 -238q-2 -10 -13 -15t-33 -5q-43 0 -38 20l79 476q3 17 30 194l4 30q3 20 45 20
t39 -20q-28 -174 -62 -343h12q56 83 116.5 123.5t116.5 40.5q49 0 76.5 -38.5t27.5 -102.5q0 -73 -45 -129t-146 -98q87 -82 169 -143q6 -4 6 -13q0 -17 -13.5 -37.5t-27.5 -20.5q-4 0 -9 3q-62 46 -125.5 106.5z" />
    <glyph glyph-name="l" unicode="l" 
d="M240.5 17q-28.5 29 -28.5 86q0 77 27.5 239t61.5 311q-90 -4 -163 -4q-14 0 -14 20q0 18 6.5 37.5t20.5 19.5h213q15 0 21 -4.5t6 -16.5q0 -7 -1 -11q-37 -164 -64.5 -329.5t-27.5 -234.5q1 -33 12 -47.5t36 -14.5q64 0 143 75q5 3 9 3q12 0 24 -16t12 -29q0 -7 -3 -12
t-11 -14q-44 -40 -95 -63.5t-102 -23.5q-54 0 -82.5 29z" />
    <glyph glyph-name="m" unicode="m" 
d="M24 13l53 317q20 122 26 180q1 10 10.5 14t29.5 4q18 0 26 -3.5t8 -11.5q0 -7 -9 -50q-5 -19 -8 -36h9q61 107 133 107q32 0 48 -24.5t17 -76.5h10q30 50 63.5 75.5t67.5 25.5q72 0 72 -104q0 -55 -23 -185.5t-48 -231.5q-5 -20 -41 -20q-39 0 -34 20q21 84 43 205
t22 175q0 36 -6.5 50t-21.5 14q-22 0 -51.5 -27.5t-61.5 -80.5q-11 -76 -29 -174.5t-33 -161.5q-2 -10 -10 -15t-25 -5q-34 0 -29 20q20 83 41.5 205.5t21.5 174.5q0 35 -7 49.5t-22 14.5q-48 0 -115 -116q-14 -92 -41 -267l-10 -61q-3 -20 -41 -20t-35 20z" />
    <glyph glyph-name="n" unicode="n" 
d="M400 -1.5q-9 5.5 -6 18.5q61 221 61 325q0 56 -15 81t-47 25q-46 0 -103 -48t-111 -138q-14 -117 -36 -249q-2 -10 -12.5 -15t-32.5 -5q-44 0 -39 20l47 286q27 167 31 209q2 11 12.5 15.5t32.5 4.5q23 0 32 -4.5t7 -15.5q-6 -45 -25 -131h9q56 80 113 118.5t106 38.5
q116 0 116 -171q0 -129 -64 -350q-2 -10 -12 -15t-32 -5q-23 0 -32 5.5z" />
    <glyph glyph-name="o" unicode="o" 
d="M122 47q-53 59 -53 174q0 89 32.5 160t94.5 112t148 41q103 0 155.5 -59t52.5 -174q0 -89 -32.5 -160t-94.5 -112t-148 -41q-102 0 -155 59zM184 100q32 -39 99 -39q92 0 139.5 68.5t47.5 172.5q0 81 -32 120t-99 39q-92 0 -139.5 -68t-47.5 -172q0 -82 32 -121z" />
    <glyph glyph-name="p" unicode="p" 
d="M144 15q-13 -99 -31 -195q-2 -10 -12.5 -15t-33.5 -5q-37 0 -37 17l10 60l29 167l41 244q19 110 30 194l4 29q2 11 12.5 16t33.5 5q22 0 31 -5t7 -16q-4 -26 -12.5 -68t-14.5 -65h11q61 79 115 117.5t106 38.5q59 0 91 -47t32 -143q0 -103 -33 -183t-97 -126t-154 -46
q-68 0 -128 26zM274 61q94 0 145 75.5t51 193.5q0 65 -17.5 96t-48.5 31q-41 0 -96.5 -46.5t-118.5 -137.5q-12 -88 -32 -184q55 -28 117 -28z" />
    <glyph glyph-name="q" unicode="q" 
d="M367 -195.5q-9 4.5 -7 15.5q32 192 56 314h-11q-60 -74 -113 -110t-104 -36q-59 0 -91.5 47t-32.5 143q0 103 34.5 183t100.5 126t158 46q105 0 170 -52q18 -14 18 -32q0 -8 -1 -13l-66 -392q-24 -148 -30 -194l-5 -30q-2 -11 -12 -15.5t-32 -4.5q-23 0 -32 4.5zM168 96
q17 -31 48 -31q41 0 96.5 46t118.5 136q12 91 30 179q-23 17 -52.5 26t-61.5 9q-94 0 -145 -75.5t-51 -193.5q0 -65 17 -96z" />
    <glyph glyph-name="r" unicode="r" 
d="M101 -1.5q-9 4.5 -7 14.5l53 317q-23 154 -23 176q0 10 15.5 17t35.5 7q15 0 21 -3t7 -11q7 -52 11 -139h9q60 79 123 118t134 39q29 0 53 -7t33 -19q7 -9 11 -38t4 -64q0 -37 -4 -60q-2 -13 -15.5 -19.5t-33.5 -6.5t-27.5 3.5t-7.5 12.5l2 110q-16 8 -40 8
q-62 0 -122 -42.5t-116 -124.5q-10 -81 -32 -219l-8 -55q-2 -10 -12 -14.5t-33 -4.5q-22 0 -31 4.5z" />
    <glyph glyph-name="s" unicode="s" 
d="M178 -2.5q-49 9.5 -87 26.5q-7 4 -10 8.5t-3 11.5q0 18 11.5 37t24.5 14q77 -37 170 -37q65 0 102 20.5t37 63.5q0 33 -25.5 52t-91.5 32q-57 12 -92 24.5t-59 40.5t-24 76q0 82 60.5 125t159.5 43q101 0 170 -34q8 -4 10.5 -8.5t2.5 -11.5q0 -19 -11.5 -37t-25.5 -12
q-74 33 -149 33q-63 0 -99.5 -22t-36.5 -65q0 -25 14.5 -39.5t37.5 -21.5t68 -17q91 -19 132 -52t41 -96q0 -81 -62 -122.5t-163 -41.5q-53 0 -102 9.5z" />
    <glyph glyph-name="t" unicode="t" 
d="M173 120q0 50 13.5 142t35.5 188q-65 -4 -127 -4q-14 0 -14 21q0 17 7 36t20 19q62 0 126 -4q9 67 29 157q3 11 13 15.5t32 4.5q24 0 32.5 -5.5t5.5 -18.5l-5 -24q-5 -21 -12 -53t-18 -76q123 4 246 4q15 0 15 -21q0 -17 -7 -36t-20 -19q-126 0 -248 4q-4 -26 -13 -92
q-10 -64 -17.5 -123.5t-7.5 -86.5q0 -42 14.5 -61t46.5 -19q39 0 81 20.5t80 54.5q5 3 9 3q12 0 24 -16t12 -29q0 -7 -3 -12t-11 -14q-44 -39 -100 -63t-111 -24q-128 0 -128 132z" />
    <glyph glyph-name="u" unicode="u" 
d="M220 523.5q9 -5.5 6 -18.5q-61 -221 -61 -325q0 -56 15 -81t47 -25q46 0 103 48t111 138q14 117 36 249q2 10 12.5 15t32.5 5q44 0 39 -20l-47 -286q-27 -167 -31 -209q-2 -11 -12.5 -15.5t-32.5 -4.5q-23 0 -32 4.5t-7 15.5q6 45 25 131h-9q-56 -80 -113 -118.5
t-106 -38.5q-116 0 -116 171q0 129 64 350q2 10 12 15t32 5q23 0 32 -5.5z" />
    <glyph glyph-name="v" unicode="v" 
d="M222 0.5q-12 5.5 -15 19.5q-32 118 -57.5 250t-36.5 237q-1 22 44 22q21 0 29 -4t9 -17q24 -214 73 -437h12q195 167 195 334q0 28 -18 97q-3 13 13 22t41 9q14 0 20 -5t10 -18q13 -49 13 -91q-1 -106 -60 -207t-164 -193q-15 -14 -28.5 -19t-38.5 -5q-29 0 -41 5.5z" />
    <glyph glyph-name="w" unicode="w" 
d="M104 2q-10 8 -11 35q-13 101 -13 241q0 90 7 193l5 39q1 19 42 19q21 0 29 -5t7 -18q-17 -150 -17 -295q0 -80 4 -141h12q62 97 109 212q6 68 12 98q3 25 43 25q39 0 35 -25q-5 -35 -22 -98q10 -115 40 -212h12q86 220 132 436q2 13 12.5 18t31.5 5q37 0 37 -16
q0 -7 -8 -42q-27 -105 -67.5 -224t-82.5 -210q-11 -27 -23 -35t-39 -8q-28 0 -37 6.5t-13 28.5q-25 97 -30 199h-11q-37 -99 -95 -199q-11 -21 -23.5 -28t-40.5 -7q-27 0 -37 8z" />
    <glyph glyph-name="x" unicode="x" 
d="M437.5 -2.5q-4.5 4.5 -9.5 18.5q-39 100 -116 208h-16q-105 -109 -173 -208q-9 -13 -15.5 -18t-16.5 -5q-21 0 -40.5 8.5t-19.5 20.5q0 9 17 30q41 55 97.5 118t110.5 109q-34 45 -66 98.5t-53 96.5q-9 19 -9 26q0 12 22 21t39 9q10 0 15.5 -4.5t9.5 -17.5
q41 -99 98 -186h16q77 83 149 186q9 13 15.5 17.5t15.5 4.5q21 0 41 -9t20 -21q0 -4 -5 -12t-13 -18q-33 -43 -84 -99.5t-98 -103.5q40 -50 77.5 -110t58.5 -109q7 -17 7 -25q0 -13 -20.5 -21.5t-39.5 -8.5q-10 0 -14.5 4.5z" />
    <glyph glyph-name="y" unicode="y" 
d="M46 -184.5q-13 19.5 -13 39.5q0 8 5.5 13t20.5 13q108 58 199 130l-2 9h-3q-10 0 -16.5 7t-14.5 25q-37 91 -72.5 210t-49.5 204q-5 26 -5 41q0 11 20 18.5t40 7.5q14 0 19 -7.5t7 -28.5q13 -93 46.5 -211.5t76.5 -227.5h11q160 160 160 317q0 22 -5.5 56t-12.5 71
q-3 14 11.5 22.5t39.5 8.5q16 0 23.5 -5.5t9.5 -17.5q13 -56 13 -119q-1 -156 -117 -303.5t-333 -278.5q-22 -13 -33 -13q-12 0 -25 19.5z" />
    <glyph glyph-name="z" unicode="z" 
d="M277.5 -24.5q-85.5 25.5 -147.5 69.5l-53 -52q-4 -4 -10 -4q-12 0 -24 12t-12 26q0 8 5.5 15.5t23.5 24.5l380 376v5h-305q-15 0 -15 21q0 16 6.5 34.5t19.5 18.5h388q20 0 20 -23q0 -24 -8.5 -39.5t-30.5 -35.5l-327 -324v-5q56 -32 126.5 -49t144.5 -18q10 56 13 105
q2 18 31 18q45 0 42 -25q-2 -24 -11.5 -65.5t-20.5 -68.5q-9 -24 -23 -33t-44 -9q-83 0 -168.5 25.5z" />
    <glyph glyph-name="uni00A0" unicode="&#xa0;" 
 />
    <glyph glyph-name="Agrave" unicode="&#xc0;" 
d="M10 10q0 8 11 38q123 327 286 625q10 19 25.5 25.5t51.5 6.5t49 -6.5t17 -25.5q64 -294 78 -625q0 -30 -1 -36q-3 -19 -47 -19q-20 0 -28 4.5t-9 20.5q-4 72 -6 180q-60 -4 -135 -4t-135 4q-41 -120 -66 -180q-6 -16 -16.5 -20.5t-30.5 -4.5q-44 0 -44 17zM314 269
q61 0 122 -3q-3 18 -7 54q-2 17 -16 121t-31 191h-12q-46 -86 -120 -242q-40 -84 -60 -124q62 3 124 3zM306 914q-2 3 -2 7q0 14 21.5 30.5t38.5 16.5q9 0 14 -5l141 -150q4 -5 5.5 -8t1.5 -6q0 -11 -14.5 -23.5t-26.5 -12.5q-6 0 -9 3l-161 140q-7 5 -9 8z" />
    <glyph glyph-name="Aacute" unicode="&#xc1;" 
d="M10 10q0 8 11 38q123 327 286 625q10 19 25.5 25.5t51.5 6.5t49 -6.5t17 -25.5q64 -294 78 -625q0 -30 -1 -36q-3 -19 -47 -19q-20 0 -28 4.5t-9 20.5q-4 72 -6 180q-60 -4 -135 -4t-135 4q-41 -120 -66 -180q-6 -16 -16.5 -20.5t-30.5 -4.5q-44 0 -44 17zM314 269
q61 0 122 -3q-3 18 -7 54q-2 17 -16 121t-31 191h-12q-46 -86 -120 -242q-40 -84 -60 -124q62 3 124 3zM321 763q-13 0 -26.5 14t-13.5 24q0 4 4 8.5t12 10.5l186 143q5 4 14 4q17 0 36 -16t19 -31q0 -10 -18 -21l-203 -133q-4 -3 -10 -3z" />
    <glyph glyph-name="Acircumflex" unicode="&#xc2;" 
d="M10 10q0 8 11 38q123 327 286 625q10 19 25.5 25.5t51.5 6.5t49 -6.5t17 -25.5q64 -294 78 -625q0 -30 -1 -36q-3 -19 -47 -19q-20 0 -28 4.5t-9 20.5q-4 72 -6 180q-60 -4 -135 -4t-135 4q-41 -120 -66 -180q-6 -16 -16.5 -20.5t-30.5 -4.5q-44 0 -44 17zM314 269
q61 0 122 -3q-3 18 -7 54q-2 17 -16 121t-31 191h-12q-46 -86 -120 -242q-40 -84 -60 -124q62 3 124 3zM592 789q0 -9 -14.5 -18t-28.5 -9q-7 0 -12 5l-116 131l-165 -131q-4 -4 -12 -4q-13 0 -26 11t-13 21q0 3 3.5 7t9.5 9l159 141q17 16 50 16t45 -16l112 -148
q8 -11 8 -15z" />
    <glyph glyph-name="Atilde" unicode="&#xc3;" 
d="M10 10q0 8 11 38q123 327 286 625q10 19 25.5 25.5t51.5 6.5t49 -6.5t17 -25.5q64 -294 78 -625q0 -30 -1 -36q-3 -19 -47 -19q-20 0 -28 4.5t-9 20.5q-4 72 -6 180q-60 -4 -135 -4t-135 4q-41 -120 -66 -180q-6 -16 -16.5 -20.5t-30.5 -4.5q-44 0 -44 17zM314 269
q61 0 122 -3q-3 18 -7 54q-2 17 -16 121t-31 191h-12q-46 -86 -120 -242q-40 -84 -60 -124q62 3 124 3zM439 794q-23 18 -51 53q-18 25 -32 37t-34 12q-52 0 -86 -109q-6 -14 -34 -14q-16 0 -27.5 5t-9.5 14q20 81 62 126.5t98 45.5q40 0 65 -18.5t51 -53.5q18 -25 32 -37
t33 -12q27 0 48.5 28t38.5 81q3 7 12.5 11t22.5 4q16 0 27 -5.5t10 -14.5q-22 -82 -64 -126.5t-99 -44.5q-40 0 -63 18z" />
    <glyph glyph-name="Adieresis" unicode="&#xc4;" 
d="M10 10q0 8 11 38q123 327 286 625q10 19 25.5 25.5t51.5 6.5t49 -6.5t17 -25.5q64 -294 78 -625q0 -30 -1 -36q-3 -19 -47 -19q-20 0 -28 4.5t-9 20.5q-4 72 -6 180q-60 -4 -135 -4t-135 4q-41 -120 -66 -180q-6 -16 -16.5 -20.5t-30.5 -4.5q-44 0 -44 17zM314 269
q61 0 122 -3q-3 18 -7 54q-2 17 -16 121t-31 191h-12q-46 -86 -120 -242q-40 -84 -60 -124q62 3 124 3zM225 797.5q-14 8.5 -14 27.5q0 9 1 14q5 27 23 38.5t56 11.5t51.5 -11.5t9.5 -38.5q-5 -27 -23 -38.5t-56 -11.5q-34 0 -48 8.5zM489 877.5q18 11.5 57 11.5
q33 0 47 -8.5t14 -28.5q0 -8 -1 -13q-5 -27 -23 -38.5t-56 -11.5q-34 0 -48 8.5t-14 27.5q0 9 1 14q5 27 23 38.5z" />
    <glyph glyph-name="Aring" unicode="&#xc5;" 
d="M10 10q0 8 11 38q123 327 286 625q10 19 25.5 25.5t51.5 6.5t49 -6.5t17 -25.5q64 -294 78 -625q0 -30 -1 -36q-3 -19 -47 -19q-20 0 -28 4.5t-9 20.5q-4 72 -6 180q-60 -4 -135 -4t-135 4q-41 -120 -66 -180q-6 -16 -16.5 -20.5t-30.5 -4.5q-44 0 -44 17zM314 269
q61 0 122 -3q-3 18 -7 54q-2 17 -16 121t-31 191h-12q-46 -86 -120 -242q-40 -84 -60 -124q62 3 124 3zM315 799q-41 37 -41 92t41 92t103 37q40 0 73 -17t52 -46.5t19 -65.5t-19 -65.5t-52 -46.5t-73 -17q-62 0 -103 37zM353.5 833.5q25.5 -22.5 64.5 -22.5t64.5 22.5
t25.5 57.5t-25.5 57.5t-64.5 22.5t-64.5 -22.5t-25.5 -57.5t25.5 -57.5z" />
    <glyph glyph-name="AE" unicode="&#xc6;" 
d="M-11 10q0 5 11 34q117 293 293 621q9 18 23.5 25t45.5 7h263q14 0 14 -22q0 -17 -7 -35t-20 -18q-94 0 -174 4q-15 -137 -41 -240q72 4 145 4q15 0 15 -22q0 -17 -7 -35t-20 -18q-74 0 -144 3q-11 -117 -41 -247q83 4 181 4q14 0 14 -22q0 -17 -7 -35t-20 -18h-217
q-28 0 -28 20l2 12q11 77 31 164q-39 -3 -79 -3q-39 0 -80 3q-9 -24 -47 -119l-28 -68q-4 -9 -13 -12.5t-28 -3.5q-37 0 -37 17zM241 269q35 0 71 -3q16 110 55 356h-18q-49 -94 -147 -296l-29 -60q35 3 68 3z" />
    <glyph glyph-name="Ccedilla" unicode="&#xc7;" 
d="M106.5 457.5q32.5 104.5 108 177.5t196.5 73q68 0 118.5 -17.5t62.5 -42.5q8 -13 8 -66q0 -42 -4 -61q-4 -27 -48 -27q-19 0 -26.5 4.5t-6.5 17.5l3 87q-16 12 -46.5 19.5t-66.5 7.5q-89 0 -144 -61.5t-78 -146.5t-23 -161q0 -105 36.5 -149t112.5 -44q41 0 82.5 10
t91.5 32q6 2 9 2q12 0 19.5 -15.5t7.5 -33.5q0 -23 -20 -32q-39 -18 -90.5 -29.5t-100.5 -12.5l-3 -9l-60 -160q-4 -9 -15 -13.5t-25 -4.5q-16 0 -28.5 5.5t-12.5 14.5q0 6 9 23l79 147q-89 13 -133.5 75.5t-44.5 185.5q0 100 32.5 204.5z" />
    <glyph glyph-name="Egrave" unicode="&#xc8;" 
d="M84 8q-6 8 -4 26l64 385q16 100 26 136t24 55l2 12l-38 -2q-15 0 -15 22q0 17 7.5 36t20.5 19h414q14 0 14 -22q0 -17 -7 -36t-20 -19q-139 0 -311 4q-10 -104 -40 -234q161 4 274 4q14 0 14 -22q0 -17 -7 -35t-20 -18q-112 0 -272 3q-12 -119 -42 -249q175 4 317 4
q15 0 15 -22q0 -18 -7 -36.5t-21 -18.5h-364q-18 0 -24 8zM306 914q-2 3 -2 7q0 14 21.5 30.5t38.5 16.5q9 0 14 -5l141 -150q4 -5 5.5 -8t1.5 -6q0 -11 -14.5 -23.5t-26.5 -12.5q-6 0 -9 3l-161 140q-7 5 -9 8z" />
    <glyph glyph-name="Eacute" unicode="&#xc9;" 
d="M84 8q-6 8 -4 26l64 385q16 100 26 136t24 55l2 12l-38 -2q-15 0 -15 22q0 17 7.5 36t20.5 19h414q14 0 14 -22q0 -17 -7 -36t-20 -19q-139 0 -311 4q-10 -104 -40 -234q161 4 274 4q14 0 14 -22q0 -17 -7 -35t-20 -18q-112 0 -272 3q-12 -119 -42 -249q175 4 317 4
q15 0 15 -22q0 -18 -7 -36.5t-21 -18.5h-364q-18 0 -24 8zM321 763q-13 0 -26.5 14t-13.5 24q0 4 4 8.5t12 10.5l186 143q5 4 14 4q17 0 36 -16t19 -31q0 -10 -18 -21l-203 -133q-4 -3 -10 -3z" />
    <glyph glyph-name="Ecircumflex" unicode="&#xca;" 
d="M84 8q-6 8 -4 26l64 385q16 100 26 136t24 55l2 12l-38 -2q-15 0 -15 22q0 17 7.5 36t20.5 19h414q14 0 14 -22q0 -17 -7 -36t-20 -19q-139 0 -311 4q-10 -104 -40 -234q161 4 274 4q14 0 14 -22q0 -17 -7 -35t-20 -18q-112 0 -272 3q-12 -119 -42 -249q175 4 317 4
q15 0 15 -22q0 -18 -7 -36.5t-21 -18.5h-364q-18 0 -24 8zM592 789q0 -9 -14.5 -18t-28.5 -9q-7 0 -12 5l-116 131l-165 -131q-4 -4 -12 -4q-13 0 -26 11t-13 21q0 3 3.5 7t9.5 9l159 141q17 16 50 16t45 -16l112 -148q8 -11 8 -15z" />
    <glyph glyph-name="Edieresis" unicode="&#xcb;" 
d="M84 8q-6 8 -4 26l64 385q16 100 26 136t24 55l2 12l-38 -2q-15 0 -15 22q0 17 7.5 36t20.5 19h414q14 0 14 -22q0 -17 -7 -36t-20 -19q-139 0 -311 4q-10 -104 -40 -234q161 4 274 4q14 0 14 -22q0 -17 -7 -35t-20 -18q-112 0 -272 3q-12 -119 -42 -249q175 4 317 4
q15 0 15 -22q0 -18 -7 -36.5t-21 -18.5h-364q-18 0 -24 8zM225 797.5q-14 8.5 -14 27.5q0 9 1 14q5 27 23 38.5t56 11.5t51.5 -11.5t9.5 -38.5q-5 -27 -23 -38.5t-56 -11.5q-34 0 -48 8.5zM489 877.5q18 11.5 57 11.5q33 0 47 -8.5t14 -28.5q0 -8 -1 -13q-5 -27 -23 -38.5
t-56 -11.5q-34 0 -48 8.5t-14 27.5q0 9 1 14q5 27 23 38.5z" />
    <glyph glyph-name="Igrave" unicode="&#xcc;" 
d="M82 22q0 18 7 38t21 20q57 0 130 -5q40 285 91 547q-74 -5 -131 -5q-15 0 -15 23q0 18 7 37.5t21 19.5h340q14 0 14 -22q0 -18 -7 -38t-21 -20q-57 0 -130 5q-34 -252 -90 -547q73 5 131 5q7 0 11 -6t4 -17q0 -17 -7.5 -37t-20.5 -20h-340q-15 0 -15 22zM306 914
q-2 3 -2 7q0 14 21.5 30.5t38.5 16.5q9 0 14 -5l141 -150q4 -5 5.5 -8t1.5 -6q0 -11 -14.5 -23.5t-26.5 -12.5q-6 0 -9 3l-161 140q-7 5 -9 8z" />
    <glyph glyph-name="Iacute" unicode="&#xcd;" 
d="M82 22q0 18 7 38t21 20q57 0 130 -5q40 285 91 547q-74 -5 -131 -5q-15 0 -15 23q0 18 7 37.5t21 19.5h340q14 0 14 -22q0 -18 -7 -38t-21 -20q-57 0 -130 5q-34 -252 -90 -547q73 5 131 5q7 0 11 -6t4 -17q0 -17 -7.5 -37t-20.5 -20h-340q-15 0 -15 22zM321 763
q-13 0 -26.5 14t-13.5 24q0 4 4 8.5t12 10.5l186 143q5 4 14 4q17 0 36 -16t19 -31q0 -10 -18 -21l-203 -133q-4 -3 -10 -3z" />
    <glyph glyph-name="Icircumflex" unicode="&#xce;" 
d="M82 22q0 18 7 38t21 20q57 0 130 -5q40 285 91 547q-74 -5 -131 -5q-15 0 -15 23q0 18 7 37.5t21 19.5h340q14 0 14 -22q0 -18 -7 -38t-21 -20q-57 0 -130 5q-34 -252 -90 -547q73 5 131 5q7 0 11 -6t4 -17q0 -17 -7.5 -37t-20.5 -20h-340q-15 0 -15 22zM592 789
q0 -9 -14.5 -18t-28.5 -9q-7 0 -12 5l-116 131l-165 -131q-4 -4 -12 -4q-13 0 -26 11t-13 21q0 3 3.5 7t9.5 9l159 141q17 16 50 16t45 -16l112 -148q8 -11 8 -15z" />
    <glyph glyph-name="Ntilde" unicode="&#xd1;" 
d="M37 13l111 665q3 14 17 20t41 6q29 0 40.5 -8t17.5 -32q86 -272 167 -576h10q10 99 36 280.5t48 315.5q3 20 47 20q43 0 40 -20l-111 -665q-2 -14 -16 -20t-42 -6q-29 0 -40 7.5t-18 32.5q-74 235 -167 576h-10q-10 -97 -35.5 -276.5t-47.5 -319.5q-5 -20 -47 -20
q-44 0 -41 20zM439 794q-23 18 -51 53q-18 25 -32 37t-34 12q-52 0 -86 -109q-6 -14 -34 -14q-16 0 -27.5 5t-9.5 14q20 81 62 126.5t98 45.5q40 0 65 -18.5t51 -53.5q18 -25 32 -37t33 -12q27 0 48.5 28t38.5 81q3 7 12.5 11t22.5 4q16 0 27 -5.5t10 -14.5
q-22 -82 -64 -126.5t-99 -44.5q-40 0 -63 18z" />
    <glyph glyph-name="Ograve" unicode="&#xd2;" 
d="M114 53.5q-51 65.5 -51 209.5q0 100 28.5 201.5t98.5 173t184 71.5q111 0 162 -65.5t51 -209.5q0 -100 -28.5 -201.5t-98.5 -173t-184 -71.5q-111 0 -162 65.5zM180.5 111q31.5 -45 102.5 -45q76 0 125 58.5t71.5 144t22.5 166.5q0 105 -31.5 150.5t-102.5 45.5
q-76 0 -125.5 -58.5t-71.5 -143.5t-22 -167q0 -106 31.5 -151zM306 914q-2 3 -2 7q0 14 21.5 30.5t38.5 16.5q9 0 14 -5l141 -150q4 -5 5.5 -8t1.5 -6q0 -11 -14.5 -23.5t-26.5 -12.5q-6 0 -9 3l-161 140q-7 5 -9 8z" />
    <glyph glyph-name="Oacute" unicode="&#xd3;" 
d="M114 53.5q-51 65.5 -51 209.5q0 100 28.5 201.5t98.5 173t184 71.5q111 0 162 -65.5t51 -209.5q0 -100 -28.5 -201.5t-98.5 -173t-184 -71.5q-111 0 -162 65.5zM180.5 111q31.5 -45 102.5 -45q76 0 125 58.5t71.5 144t22.5 166.5q0 105 -31.5 150.5t-102.5 45.5
q-76 0 -125.5 -58.5t-71.5 -143.5t-22 -167q0 -106 31.5 -151zM321 763q-13 0 -26.5 14t-13.5 24q0 4 4 8.5t12 10.5l186 143q5 4 14 4q17 0 36 -16t19 -31q0 -10 -18 -21l-203 -133q-4 -3 -10 -3z" />
    <glyph glyph-name="Ocircumflex" unicode="&#xd4;" 
d="M114 53.5q-51 65.5 -51 209.5q0 100 28.5 201.5t98.5 173t184 71.5q111 0 162 -65.5t51 -209.5q0 -100 -28.5 -201.5t-98.5 -173t-184 -71.5q-111 0 -162 65.5zM180.5 111q31.5 -45 102.5 -45q76 0 125 58.5t71.5 144t22.5 166.5q0 105 -31.5 150.5t-102.5 45.5
q-76 0 -125.5 -58.5t-71.5 -143.5t-22 -167q0 -106 31.5 -151zM592 789q0 -9 -14.5 -18t-28.5 -9q-7 0 -12 5l-116 131l-165 -131q-4 -4 -12 -4q-13 0 -26 11t-13 21q0 3 3.5 7t9.5 9l159 141q17 16 50 16t45 -16l112 -148q8 -11 8 -15z" />
    <glyph glyph-name="Otilde" unicode="&#xd5;" 
d="M114 53.5q-51 65.5 -51 209.5q0 100 28.5 201.5t98.5 173t184 71.5q111 0 162 -65.5t51 -209.5q0 -100 -28.5 -201.5t-98.5 -173t-184 -71.5q-111 0 -162 65.5zM180.5 111q31.5 -45 102.5 -45q76 0 125 58.5t71.5 144t22.5 166.5q0 105 -31.5 150.5t-102.5 45.5
q-76 0 -125.5 -58.5t-71.5 -143.5t-22 -167q0 -106 31.5 -151zM439 794q-23 18 -51 53q-18 25 -32 37t-34 12q-52 0 -86 -109q-6 -14 -34 -14q-16 0 -27.5 5t-9.5 14q20 81 62 126.5t98 45.5q40 0 65 -18.5t51 -53.5q18 -25 32 -37t33 -12q27 0 48.5 28t38.5 81q3 7 12.5 11
t22.5 4q16 0 27 -5.5t10 -14.5q-22 -82 -64 -126.5t-99 -44.5q-40 0 -63 18z" />
    <glyph glyph-name="Odieresis" unicode="&#xd6;" 
d="M114 53.5q-51 65.5 -51 209.5q0 100 28.5 201.5t98.5 173t184 71.5q111 0 162 -65.5t51 -209.5q0 -100 -28.5 -201.5t-98.5 -173t-184 -71.5q-111 0 -162 65.5zM180.5 111q31.5 -45 102.5 -45q76 0 125 58.5t71.5 144t22.5 166.5q0 105 -31.5 150.5t-102.5 45.5
q-76 0 -125.5 -58.5t-71.5 -143.5t-22 -167q0 -106 31.5 -151zM225 797.5q-14 8.5 -14 27.5q0 9 1 14q5 27 23 38.5t56 11.5t51.5 -11.5t9.5 -38.5q-5 -27 -23 -38.5t-56 -11.5q-34 0 -48 8.5zM489 877.5q18 11.5 57 11.5q33 0 47 -8.5t14 -28.5q0 -8 -1 -13
q-5 -27 -23 -38.5t-56 -11.5q-34 0 -48 8.5t-14 27.5q0 9 1 14q5 27 23 38.5z" />
    <glyph glyph-name="Ugrave" unicode="&#xd9;" 
d="M124.5 35.5q-49.5 47.5 -49.5 151.5q0 72 25 214t55 283q4 10 14.5 15t32.5 5q24 0 33 -5.5t6 -18.5q-27 -115 -54.5 -269t-28.5 -224q0 -66 29 -92.5t89 -26.5q66 0 105.5 33t61.5 119q19 72 42.5 219t32.5 241q2 13 12.5 18.5t34.5 5.5q23 0 32 -5t8 -15
q-14 -130 -36 -271t-48 -230q-29 -102 -89.5 -148.5t-156.5 -46.5q-101 0 -150.5 47.5zM306 914q-2 3 -2 7q0 14 21.5 30.5t38.5 16.5q9 0 14 -5l141 -150q4 -5 5.5 -8t1.5 -6q0 -11 -14.5 -23.5t-26.5 -12.5q-6 0 -9 3l-161 140q-7 5 -9 8z" />
    <glyph glyph-name="Uacute" unicode="&#xda;" 
d="M124.5 35.5q-49.5 47.5 -49.5 151.5q0 72 25 214t55 283q4 10 14.5 15t32.5 5q24 0 33 -5.5t6 -18.5q-27 -115 -54.5 -269t-28.5 -224q0 -66 29 -92.5t89 -26.5q66 0 105.5 33t61.5 119q19 72 42.5 219t32.5 241q2 13 12.5 18.5t34.5 5.5q23 0 32 -5t8 -15
q-14 -130 -36 -271t-48 -230q-29 -102 -89.5 -148.5t-156.5 -46.5q-101 0 -150.5 47.5zM321 763q-13 0 -26.5 14t-13.5 24q0 4 4 8.5t12 10.5l186 143q5 4 14 4q17 0 36 -16t19 -31q0 -10 -18 -21l-203 -133q-4 -3 -10 -3z" />
    <glyph glyph-name="Ucircumflex" unicode="&#xdb;" 
d="M124.5 35.5q-49.5 47.5 -49.5 151.5q0 72 25 214t55 283q4 10 14.5 15t32.5 5q24 0 33 -5.5t6 -18.5q-27 -115 -54.5 -269t-28.5 -224q0 -66 29 -92.5t89 -26.5q66 0 105.5 33t61.5 119q19 72 42.5 219t32.5 241q2 13 12.5 18.5t34.5 5.5q23 0 32 -5t8 -15
q-14 -130 -36 -271t-48 -230q-29 -102 -89.5 -148.5t-156.5 -46.5q-101 0 -150.5 47.5zM592 789q0 -9 -14.5 -18t-28.5 -9q-7 0 -12 5l-116 131l-165 -131q-4 -4 -12 -4q-13 0 -26 11t-13 21q0 3 3.5 7t9.5 9l159 141q17 16 50 16t45 -16l112 -148q8 -11 8 -15z" />
    <glyph glyph-name="Udieresis" unicode="&#xdc;" 
d="M124.5 35.5q-49.5 47.5 -49.5 151.5q0 72 25 214t55 283q4 10 14.5 15t32.5 5q24 0 33 -5.5t6 -18.5q-27 -115 -54.5 -269t-28.5 -224q0 -66 29 -92.5t89 -26.5q66 0 105.5 33t61.5 119q19 72 42.5 219t32.5 241q2 13 12.5 18.5t34.5 5.5q23 0 32 -5t8 -15
q-14 -130 -36 -271t-48 -230q-29 -102 -89.5 -148.5t-156.5 -46.5q-101 0 -150.5 47.5zM225 797.5q-14 8.5 -14 27.5q0 9 1 14q5 27 23 38.5t56 11.5t51.5 -11.5t9.5 -38.5q-5 -27 -23 -38.5t-56 -11.5q-34 0 -48 8.5zM489 877.5q18 11.5 57 11.5q33 0 47 -8.5t14 -28.5
q0 -8 -1 -13q-5 -27 -23 -38.5t-56 -11.5q-34 0 -48 8.5t-14 27.5q0 9 1 14q5 27 23 38.5z" />
    <glyph glyph-name="Yacute" unicode="&#xdd;" 
d="M225 13q15 94 49 266q-93 178 -143 375q-4 18 -4 22q0 11 19.5 20t39.5 9q12 0 18 -6t8 -20q17 -73 45 -157.5t60 -158.5h10q57 73 113.5 157t99.5 159q7 14 14 20t19 6q23 0 40.5 -7.5t17.5 -19.5q0 -8 -10 -25q-116 -198 -269 -376q-22 -155 -39 -264q-5 -20 -47 -20
q-44 0 -41 20zM321 763q-13 0 -26.5 14t-13.5 24q0 4 4 8.5t12 10.5l186 143q5 4 14 4q17 0 36 -16t19 -31q0 -10 -18 -21l-203 -133q-4 -3 -10 -3z" />
    <glyph glyph-name="germandbls" unicode="&#xdf;" 
d="M245 -1q-8 3 -11.5 7t-3.5 10q0 16 10 36t22 17q30 -8 58 -8q64 0 94.5 34t30.5 82q0 49 -33 81.5t-110 66.5q-11 5 -11 23q0 15 5 30.5t16 23.5q65 45 98.5 82.5t33.5 89.5q0 45 -23 68t-69 23q-58 0 -89 -35t-44 -112l-84 -505q-2 -10 -12 -15t-33 -5q-41 0 -38 20
l86 518q34 207 215 207q82 0 127.5 -40t45.5 -115q0 -66 -42.5 -116.5t-117.5 -96.5l-1 -6q86 -39 123.5 -83t37.5 -106q0 -52 -24 -94.5t-70 -67.5t-109 -25q-47 0 -78 11z" />
    <glyph glyph-name="agrave" unicode="&#xe0;" 
d="M462.5 -8q-5.5 6 -10.5 26q-21 82 -31 126h-10q-64 -79 -119.5 -117.5t-108.5 -38.5q-59 0 -91 47t-32 143q0 103 34 183t100 126t158 46q51 0 95 -13t75 -39q18 -14 18 -32q0 -8 -1 -13l-9 -48q-12 -67 -22 -111.5t-25 -92.5q28 -68 51 -134q7 -21 7 -30
q0 -13 -20.5 -23.5t-40.5 -10.5q-12 0 -17.5 6zM163 96q17 -31 48 -31q39 0 91 40.5t109 116.5q12 42 23 97t20 110q-45 32 -112 32q-94 0 -145 -75.5t-51 -193.5q0 -65 17 -96zM251 739q-2 3 -2 7q0 14 19.5 30.5t35.5 16.5q7 0 12 -5l128 -150q4 -5 5.5 -8t1.5 -6
q0 -11 -13.5 -23.5t-24.5 -12.5q-5 0 -8 3l-146 140q-6 5 -8 8z" />
    <glyph glyph-name="aacute" unicode="&#xe1;" 
d="M462.5 -8q-5.5 6 -10.5 26q-21 82 -31 126h-10q-64 -79 -119.5 -117.5t-108.5 -38.5q-59 0 -91 47t-32 143q0 103 34 183t100 126t158 46q51 0 95 -13t75 -39q18 -14 18 -32q0 -8 -1 -13l-9 -48q-12 -67 -22 -111.5t-25 -92.5q28 -68 51 -134q7 -21 7 -30
q0 -13 -20.5 -23.5t-40.5 -10.5q-12 0 -17.5 6zM163 96q17 -31 48 -31q39 0 91 40.5t109 116.5q12 42 23 97t20 110q-45 32 -112 32q-94 0 -145 -75.5t-51 -193.5q0 -65 17 -96zM313 588q-12 0 -24 13.5t-12 24.5q0 6 14 19l169 143q5 4 13 4q16 0 33 -16t17 -31
q0 -10 -16 -21l-185 -133q-4 -3 -9 -3z" />
    <glyph glyph-name="acircumflex" unicode="&#xe2;" 
d="M462.5 -8q-5.5 6 -10.5 26q-21 82 -31 126h-10q-64 -79 -119.5 -117.5t-108.5 -38.5q-59 0 -91 47t-32 143q0 103 34 183t100 126t158 46q51 0 95 -13t75 -39q18 -14 18 -32q0 -8 -1 -13l-9 -48q-12 -67 -22 -111.5t-25 -92.5q28 -68 51 -134q7 -21 7 -30
q0 -13 -20.5 -23.5t-40.5 -10.5q-12 0 -17.5 6zM163 96q17 -31 48 -31q39 0 91 40.5t109 116.5q12 42 23 97t20 110q-45 32 -112 32q-94 0 -145 -75.5t-51 -193.5q0 -65 17 -96zM540 615q0 -9 -13.5 -18.5t-25.5 -9.5q-6 0 -11 5l-105 131l-150 -131q-4 -4 -11 -4
q-11 0 -23.5 11.5t-12.5 21.5q0 3 4.5 8t7.5 8l145 140q16 16 45 16t41 -16l102 -148q7 -10 7 -14z" />
    <glyph glyph-name="atilde" unicode="&#xe3;" 
d="M462.5 -8q-5.5 6 -10.5 26q-21 82 -31 126h-10q-64 -79 -119.5 -117.5t-108.5 -38.5q-59 0 -91 47t-32 143q0 103 34 183t100 126t158 46q51 0 95 -13t75 -39q18 -14 18 -32q0 -8 -1 -13l-9 -48q-12 -67 -22 -111.5t-25 -92.5q28 -68 51 -134q7 -21 7 -30
q0 -13 -20.5 -23.5t-40.5 -10.5q-12 0 -17.5 6zM163 96q17 -31 48 -31q39 0 91 40.5t109 116.5q12 42 23 97t20 110q-45 32 -112 32q-94 0 -145 -75.5t-51 -193.5q0 -65 17 -96zM400.5 629.5q-21.5 18.5 -45.5 52.5q-17 25 -30 37t-31 12q-24 0 -43.5 -28.5t-34.5 -80.5
q-2 -7 -10.5 -10.5t-20.5 -3.5q-15 0 -25 5t-8 14q18 81 56 126.5t89 45.5q36 0 58 -18.5t47 -53.5q17 -25 30 -37t30 -12q47 0 79 109q2 7 11 11t20 4q15 0 25 -5.5t9 -14.5q-20 -82 -58 -126.5t-90 -44.5q-36 0 -57.5 18.5z" />
    <glyph glyph-name="adieresis" unicode="&#xe4;" 
d="M462.5 -8q-5.5 6 -10.5 26q-21 82 -31 126h-10q-64 -79 -119.5 -117.5t-108.5 -38.5q-59 0 -91 47t-32 143q0 103 34 183t100 126t158 46q51 0 95 -13t75 -39q18 -14 18 -32q0 -8 -1 -13l-9 -48q-12 -67 -22 -111.5t-25 -92.5q28 -68 51 -134q7 -21 7 -30
q0 -13 -20.5 -23.5t-40.5 -10.5q-12 0 -17.5 6zM163 96q17 -31 48 -31q39 0 91 40.5t109 116.5q12 42 23 97t20 110q-45 32 -112 32q-94 0 -145 -75.5t-51 -193.5q0 -65 17 -96zM209 642.5q-13 8.5 -13 27.5q0 9 1 14q4 27 20.5 38.5t51.5 11.5q30 0 43 -8.5t13 -28.5
q0 -8 -1 -13q-5 -27 -21 -38.5t-51 -11.5q-30 0 -43 8.5zM448.5 722.5q16.5 11.5 51.5 11.5q30 0 43 -8.5t13 -28.5q0 -8 -1 -13q-5 -27 -21 -38.5t-51 -11.5q-30 0 -43 8.5t-13 27.5q0 9 1 14q4 27 20.5 38.5z" />
    <glyph glyph-name="aring" unicode="&#xe5;" 
d="M462.5 -8q-5.5 6 -10.5 26q-21 82 -31 126h-10q-64 -79 -119.5 -117.5t-108.5 -38.5q-59 0 -91 47t-32 143q0 103 34 183t100 126t158 46q51 0 95 -13t75 -39q18 -14 18 -32q0 -8 -1 -13l-9 -48q-12 -67 -22 -111.5t-25 -92.5q28 -68 51 -134q7 -21 7 -30
q0 -13 -20.5 -23.5t-40.5 -10.5q-12 0 -17.5 6zM163 96q17 -31 48 -31q39 0 91 40.5t109 116.5q12 42 23 97t20 110q-45 32 -112 32q-94 0 -145 -75.5t-51 -193.5q0 -65 17 -96zM289.5 624q-37.5 37 -37.5 92t37.5 92t93.5 37t93.5 -37t37.5 -92t-37.5 -92t-93.5 -37
t-93.5 37zM324.5 659q23.5 -23 58.5 -23t58.5 23t23.5 57t-23.5 57t-58.5 23t-58.5 -23t-23.5 -57t23.5 -57z" />
    <glyph glyph-name="ae" unicode="&#xe6;" 
d="M276 54q-65 -65 -135 -65q-57 0 -86.5 35t-29.5 100q0 81 43.5 133.5t127.5 52.5q45 0 94 -12l14 85q3 17 3 29q0 27 -13.5 38.5t-43.5 11.5q-27 0 -59 -9.5t-57 -23.5q-14 -6 -22 9.5t-8 34.5t15 25q76 37 143 37q36 0 59 -11t33 -35q44 44 110 44q64 0 95 -38.5
t31 -111.5q0 -42 -13 -88.5t-39 -49.5q-42 -5 -111 -5q-45 0 -87 3l-18 -109q-1 -5 -1 -14q0 -30 21.5 -46t62.5 -16q44 0 87 24q16 7 19 7q9 0 17.5 -15t8.5 -30q0 -8 -4 -13.5t-13 -10.5q-58 -32 -118 -32q-95 0 -126 66zM160 61q47 0 97 41l24 144q-40 8 -71 8
q-63 0 -86 -31.5t-23 -82.5q0 -79 59 -79zM422 298q51 0 85 5q11 39 11 77q0 90 -65 90q-34 0 -58 -20t-30 -56l-15 -93q36 -3 72 -3z" />
    <glyph glyph-name="ccedilla" unicode="&#xe7;" 
d="M114.5 347.5q30.5 81.5 96 134t164.5 52.5q53 0 92.5 -12t56.5 -31q9 -9 13 -44t4 -66q0 -14 -14 -21.5t-36 -7.5q-31 0 -31 18l1 69q-15 9 -40 14.5t-53 5.5q-73 0 -118 -44.5t-63.5 -106t-18.5 -118.5q0 -68 25.5 -96.5t77.5 -28.5q45 0 93 21.5t102 62.5q5 4 11 4
q14 0 26.5 -18t12.5 -33q0 -10 -14 -20q-44 -35 -93.5 -58.5t-98.5 -31.5l-5 -12l-60 -160q-4 -9 -15 -13.5t-25 -4.5q-16 0 -28.5 5.5t-12.5 14.5q0 6 9 23l76 143q-81 3 -123 48t-42 140q0 90 30.5 171.5z" />
    <glyph glyph-name="egrave" unicode="&#xe8;" 
d="M128 35q-47 47 -47 148q0 97 36.5 177t102 126.5t149.5 46.5q55 0 96.5 -18.5t64 -50.5t22.5 -71q0 -47 -36 -78.5t-115 -58.5t-237 -66q0 -70 28.5 -99.5t93.5 -29.5q47 0 93.5 17.5t96.5 50.5q11 7 25 -10.5t14 -33.5q0 -8 -4 -14.5t-16 -14.5q-107 -68 -218 -68
q-102 0 -149 47zM361.5 302.5q59.5 19.5 85 38.5t26.5 47q0 34 -30.5 57t-79.5 23q-80 0 -131.5 -63.5t-63.5 -158.5q134 37 193.5 56.5zM257 739q-2 3 -2 7q0 14 19.5 30.5t35.5 16.5q7 0 12 -5l128 -150q4 -5 5.5 -8t1.5 -6q0 -11 -13.5 -23.5t-24.5 -12.5q-5 0 -8 3
l-146 140q-6 5 -8 8z" />
    <glyph glyph-name="eacute" unicode="&#xe9;" 
d="M128 35q-47 47 -47 148q0 97 36.5 177t102 126.5t149.5 46.5q55 0 96.5 -18.5t64 -50.5t22.5 -71q0 -47 -36 -78.5t-115 -58.5t-237 -66q0 -70 28.5 -99.5t93.5 -29.5q47 0 93.5 17.5t96.5 50.5q11 7 25 -10.5t14 -33.5q0 -8 -4 -14.5t-16 -14.5q-107 -68 -218 -68
q-102 0 -149 47zM361.5 302.5q59.5 19.5 85 38.5t26.5 47q0 34 -30.5 57t-79.5 23q-80 0 -131.5 -63.5t-63.5 -158.5q134 37 193.5 56.5zM319 588q-12 0 -24 13.5t-12 24.5q0 6 14 19l169 143q5 4 13 4q16 0 33 -16t17 -31q0 -10 -16 -21l-185 -133q-4 -3 -9 -3z" />
    <glyph glyph-name="ecircumflex" unicode="&#xea;" 
d="M128 35q-47 47 -47 148q0 97 36.5 177t102 126.5t149.5 46.5q55 0 96.5 -18.5t64 -50.5t22.5 -71q0 -47 -36 -78.5t-115 -58.5t-237 -66q0 -70 28.5 -99.5t93.5 -29.5q47 0 93.5 17.5t96.5 50.5q11 7 25 -10.5t14 -33.5q0 -8 -4 -14.5t-16 -14.5q-107 -68 -218 -68
q-102 0 -149 47zM361.5 302.5q59.5 19.5 85 38.5t26.5 47q0 34 -30.5 57t-79.5 23q-80 0 -131.5 -63.5t-63.5 -158.5q134 37 193.5 56.5zM546 615q0 -9 -13.5 -18.5t-25.5 -9.5q-6 0 -11 5l-105 131l-150 -131q-4 -4 -11 -4q-11 0 -23.5 11.5t-12.5 21.5q0 3 4.5 8t7.5 8
l145 140q16 16 45 16t41 -16l102 -148q7 -10 7 -14z" />
    <glyph glyph-name="edieresis" unicode="&#xeb;" 
d="M128 35q-47 47 -47 148q0 97 36.5 177t102 126.5t149.5 46.5q55 0 96.5 -18.5t64 -50.5t22.5 -71q0 -47 -36 -78.5t-115 -58.5t-237 -66q0 -70 28.5 -99.5t93.5 -29.5q47 0 93.5 17.5t96.5 50.5q11 7 25 -10.5t14 -33.5q0 -8 -4 -14.5t-16 -14.5q-107 -68 -218 -68
q-102 0 -149 47zM361.5 302.5q59.5 19.5 85 38.5t26.5 47q0 34 -30.5 57t-79.5 23q-80 0 -131.5 -63.5t-63.5 -158.5q134 37 193.5 56.5zM215 642.5q-13 8.5 -13 27.5q0 9 1 14q4 27 20.5 38.5t51.5 11.5q30 0 43 -8.5t13 -28.5q0 -8 -1 -13q-5 -27 -21 -38.5t-51 -11.5
q-30 0 -43 8.5zM454.5 722.5q16.5 11.5 51.5 11.5q30 0 43 -8.5t13 -28.5q0 -8 -1 -13q-5 -27 -21 -38.5t-51 -11.5q-30 0 -43 8.5t-13 27.5q0 9 1 14q4 27 20.5 38.5z" />
    <glyph glyph-name="igrave" unicode="&#xec;" 
d="M237.5 19.5q-28.5 31.5 -28.5 94.5q0 52 17 147t41 185q-86 -4 -156 -4q-14 0 -14 21q0 17 7 36t20 19h206q17 0 23 -7t4 -24q-27 -111 -43.5 -205t-16.5 -142q0 -38 11 -55t36 -17q64 0 143 75q5 3 9 3q12 0 23.5 -16t11.5 -29q0 -8 -3 -13t-11 -13q-43 -40 -94 -63.5
t-102 -23.5q-55 0 -83.5 31.5zM227 739q-2 3 -2 7q0 14 19.5 30.5t35.5 16.5q7 0 12 -5l128 -150q4 -5 5.5 -8t1.5 -6q0 -11 -13.5 -23.5t-24.5 -12.5q-5 0 -8 3l-146 140q-6 5 -8 8z" />
    <glyph glyph-name="iacute" unicode="&#xed;" 
d="M237.5 19.5q-28.5 31.5 -28.5 94.5q0 52 17 147t41 185q-86 -4 -156 -4q-14 0 -14 21q0 17 7 36t20 19h206q17 0 23 -7t4 -24q-27 -111 -43.5 -205t-16.5 -142q0 -38 11 -55t36 -17q64 0 143 75q5 3 9 3q12 0 23.5 -16t11.5 -29q0 -8 -3 -13t-11 -13q-43 -40 -94 -63.5
t-102 -23.5q-55 0 -83.5 31.5zM289 588q-12 0 -24 13.5t-12 24.5q0 6 14 19l169 143q5 4 13 4q16 0 33 -16t17 -31q0 -10 -16 -21l-185 -133q-4 -3 -9 -3z" />
    <glyph glyph-name="icircumflex" unicode="&#xee;" 
d="M237.5 19.5q-28.5 31.5 -28.5 94.5q0 52 17 147t41 185q-86 -4 -156 -4q-14 0 -14 21q0 17 7 36t20 19h206q17 0 23 -7t4 -24q-27 -111 -43.5 -205t-16.5 -142q0 -38 11 -55t36 -17q64 0 143 75q5 3 9 3q12 0 23.5 -16t11.5 -29q0 -8 -3 -13t-11 -13q-43 -40 -94 -63.5
t-102 -23.5q-55 0 -83.5 31.5zM516 615q0 -9 -13.5 -18.5t-25.5 -9.5q-6 0 -11 5l-105 131l-150 -131q-4 -4 -11 -4q-11 0 -23.5 11.5t-12.5 21.5q0 3 4.5 8t7.5 8l145 140q16 16 45 16t41 -16l102 -148q7 -10 7 -14z" />
    <glyph glyph-name="idieresis" unicode="&#xef;" 
d="M237.5 19.5q-28.5 31.5 -28.5 94.5q0 52 17 147t41 185q-86 -4 -156 -4q-14 0 -14 21q0 17 7 36t20 19h206q17 0 23 -7t4 -24q-27 -111 -43.5 -205t-16.5 -142q0 -38 11 -55t36 -17q64 0 143 75q5 3 9 3q12 0 23.5 -16t11.5 -29q0 -8 -3 -13t-11 -13q-43 -40 -94 -63.5
t-102 -23.5q-55 0 -83.5 31.5zM185 642.5q-13 8.5 -13 27.5q0 9 1 14q4 27 20.5 38.5t51.5 11.5q30 0 43 -8.5t13 -28.5q0 -8 -1 -13q-5 -27 -21 -38.5t-51 -11.5q-30 0 -43 8.5zM424.5 722.5q16.5 11.5 51.5 11.5q30 0 43 -8.5t13 -28.5q0 -8 -1 -13q-5 -27 -21 -38.5
t-51 -11.5q-30 0 -43 8.5t-13 27.5q0 9 1 14q4 27 20.5 38.5z" />
    <glyph glyph-name="ntilde" unicode="&#xf1;" 
d="M400 -1.5q-9 5.5 -6 18.5q61 221 61 325q0 56 -15 81t-47 25q-46 0 -103 -48t-111 -138q-14 -117 -36 -249q-2 -10 -12.5 -15t-32.5 -5q-44 0 -39 20l47 286q27 167 31 209q2 11 12.5 15.5t32.5 4.5q23 0 32 -4.5t7 -15.5q-6 -45 -25 -131h9q56 80 113 118.5t106 38.5
q116 0 116 -171q0 -129 -64 -350q-2 -10 -12 -15t-32 -5q-23 0 -32 5.5zM406.5 629.5q-21.5 18.5 -45.5 52.5q-17 25 -30 37t-31 12q-24 0 -43.5 -28.5t-34.5 -80.5q-2 -7 -10.5 -10.5t-20.5 -3.5q-15 0 -25 5t-8 14q18 81 56 126.5t89 45.5q36 0 58 -18.5t47 -53.5
q17 -25 30 -37t30 -12q47 0 79 109q2 7 11 11t20 4q15 0 25 -5.5t9 -14.5q-20 -82 -58 -126.5t-90 -44.5q-36 0 -57.5 18.5z" />
    <glyph glyph-name="ograve" unicode="&#xf2;" 
d="M122 47q-53 59 -53 174q0 89 32.5 160t94.5 112t148 41q103 0 155.5 -59t52.5 -174q0 -89 -32.5 -160t-94.5 -112t-148 -41q-102 0 -155 59zM184 100q32 -39 99 -39q92 0 139.5 68.5t47.5 172.5q0 81 -32 120t-99 39q-92 0 -139.5 -68t-47.5 -172q0 -82 32 -121zM257 739
q-2 3 -2 7q0 14 19.5 30.5t35.5 16.5q7 0 12 -5l128 -150q4 -5 5.5 -8t1.5 -6q0 -11 -13.5 -23.5t-24.5 -12.5q-5 0 -8 3l-146 140q-6 5 -8 8z" />
    <glyph glyph-name="oacute" unicode="&#xf3;" 
d="M122 47q-53 59 -53 174q0 89 32.5 160t94.5 112t148 41q103 0 155.5 -59t52.5 -174q0 -89 -32.5 -160t-94.5 -112t-148 -41q-102 0 -155 59zM184 100q32 -39 99 -39q92 0 139.5 68.5t47.5 172.5q0 81 -32 120t-99 39q-92 0 -139.5 -68t-47.5 -172q0 -82 32 -121zM319 588
q-12 0 -24 13.5t-12 24.5q0 6 14 19l169 143q5 4 13 4q16 0 33 -16t17 -31q0 -10 -16 -21l-185 -133q-4 -3 -9 -3z" />
    <glyph glyph-name="ocircumflex" unicode="&#xf4;" 
d="M122 47q-53 59 -53 174q0 89 32.5 160t94.5 112t148 41q103 0 155.5 -59t52.5 -174q0 -89 -32.5 -160t-94.5 -112t-148 -41q-102 0 -155 59zM184 100q32 -39 99 -39q92 0 139.5 68.5t47.5 172.5q0 81 -32 120t-99 39q-92 0 -139.5 -68t-47.5 -172q0 -82 32 -121zM546 615
q0 -9 -13.5 -18.5t-25.5 -9.5q-6 0 -11 5l-105 131l-150 -131q-4 -4 -11 -4q-11 0 -23.5 11.5t-12.5 21.5q0 3 4.5 8t7.5 8l145 140q16 16 45 16t41 -16l102 -148q7 -10 7 -14z" />
    <glyph glyph-name="otilde" unicode="&#xf5;" 
d="M122 47q-53 59 -53 174q0 89 32.5 160t94.5 112t148 41q103 0 155.5 -59t52.5 -174q0 -89 -32.5 -160t-94.5 -112t-148 -41q-102 0 -155 59zM184 100q32 -39 99 -39q92 0 139.5 68.5t47.5 172.5q0 81 -32 120t-99 39q-92 0 -139.5 -68t-47.5 -172q0 -82 32 -121z
M406.5 629.5q-21.5 18.5 -45.5 52.5q-17 25 -30 37t-31 12q-24 0 -43.5 -28.5t-34.5 -80.5q-2 -7 -10.5 -10.5t-20.5 -3.5q-15 0 -25 5t-8 14q18 81 56 126.5t89 45.5q36 0 58 -18.5t47 -53.5q17 -25 30 -37t30 -12q47 0 79 109q2 7 11 11t20 4q15 0 25 -5.5t9 -14.5
q-20 -82 -58 -126.5t-90 -44.5q-36 0 -57.5 18.5z" />
    <glyph glyph-name="odieresis" unicode="&#xf6;" 
d="M122 47q-53 59 -53 174q0 89 32.5 160t94.5 112t148 41q103 0 155.5 -59t52.5 -174q0 -89 -32.5 -160t-94.5 -112t-148 -41q-102 0 -155 59zM184 100q32 -39 99 -39q92 0 139.5 68.5t47.5 172.5q0 81 -32 120t-99 39q-92 0 -139.5 -68t-47.5 -172q0 -82 32 -121z
M215 642.5q-13 8.5 -13 27.5q0 9 1 14q4 27 20.5 38.5t51.5 11.5q30 0 43 -8.5t13 -28.5q0 -8 -1 -13q-5 -27 -21 -38.5t-51 -11.5q-30 0 -43 8.5zM454.5 722.5q16.5 11.5 51.5 11.5q30 0 43 -8.5t13 -28.5q0 -8 -1 -13q-5 -27 -21 -38.5t-51 -11.5q-30 0 -43 8.5t-13 27.5
q0 9 1 14q4 27 20.5 38.5z" />
    <glyph glyph-name="ugrave" unicode="&#xf9;" 
d="M220 523.5q9 -5.5 6 -18.5q-61 -221 -61 -325q0 -56 15 -81t47 -25q46 0 103 48t111 138q14 117 36 249q2 10 12.5 15t32.5 5q44 0 39 -20l-47 -286q-27 -167 -31 -209q-2 -11 -12.5 -15.5t-32.5 -4.5q-23 0 -32 4.5t-7 15.5q6 45 25 131h-9q-56 -80 -113 -118.5
t-106 -38.5q-116 0 -116 171q0 129 64 350q2 10 12 15t32 5q23 0 32 -5.5zM255 739q-2 3 -2 7q0 14 19.5 30.5t35.5 16.5q7 0 12 -5l128 -150q4 -5 5.5 -8t1.5 -6q0 -11 -13.5 -23.5t-24.5 -12.5q-5 0 -8 3l-146 140q-6 5 -8 8z" />
    <glyph glyph-name="uacute" unicode="&#xfa;" 
d="M220 523.5q9 -5.5 6 -18.5q-61 -221 -61 -325q0 -56 15 -81t47 -25q46 0 103 48t111 138q14 117 36 249q2 10 12.5 15t32.5 5q44 0 39 -20l-47 -286q-27 -167 -31 -209q-2 -11 -12.5 -15.5t-32.5 -4.5q-23 0 -32 4.5t-7 15.5q6 45 25 131h-9q-56 -80 -113 -118.5
t-106 -38.5q-116 0 -116 171q0 129 64 350q2 10 12 15t32 5q23 0 32 -5.5zM316 588q-12 0 -24 13.5t-12 24.5q0 6 14 19l169 143q5 4 13 4q16 0 33 -16t17 -31q0 -10 -16 -21l-185 -133q-4 -3 -9 -3z" />
    <glyph glyph-name="ucircumflex" unicode="&#xfb;" 
d="M220 523.5q9 -5.5 6 -18.5q-61 -221 -61 -325q0 -56 15 -81t47 -25q46 0 103 48t111 138q14 117 36 249q2 10 12.5 15t32.5 5q44 0 39 -20l-47 -286q-27 -167 -31 -209q-2 -11 -12.5 -15.5t-32.5 -4.5q-23 0 -32 4.5t-7 15.5q6 45 25 131h-9q-56 -80 -113 -118.5
t-106 -38.5q-116 0 -116 171q0 129 64 350q2 10 12 15t32 5q23 0 32 -5.5zM543 615q0 -9 -13.5 -18.5t-25.5 -9.5q-6 0 -11 5l-105 131l-150 -131q-4 -4 -11 -4q-11 0 -23.5 11.5t-12.5 21.5q0 3 4.5 8t7.5 8l145 140q16 16 45 16t41 -16l102 -148q7 -10 7 -14z" />
    <glyph glyph-name="udieresis" unicode="&#xfc;" 
d="M220 523.5q9 -5.5 6 -18.5q-61 -221 -61 -325q0 -56 15 -81t47 -25q46 0 103 48t111 138q14 117 36 249q2 10 12.5 15t32.5 5q44 0 39 -20l-47 -286q-27 -167 -31 -209q-2 -11 -12.5 -15.5t-32.5 -4.5q-23 0 -32 4.5t-7 15.5q6 45 25 131h-9q-56 -80 -113 -118.5
t-106 -38.5q-116 0 -116 171q0 129 64 350q2 10 12 15t32 5q23 0 32 -5.5zM212 642.5q-13 8.5 -13 27.5q0 9 1 14q4 27 20.5 38.5t51.5 11.5q30 0 43 -8.5t13 -28.5q0 -8 -1 -13q-5 -27 -21 -38.5t-51 -11.5q-30 0 -43 8.5zM451.5 722.5q16.5 11.5 51.5 11.5q30 0 43 -8.5
t13 -28.5q0 -8 -1 -13q-5 -27 -21 -38.5t-51 -11.5q-30 0 -43 8.5t-13 27.5q0 9 1 14q4 27 20.5 38.5z" />
    <glyph glyph-name="yacute" unicode="&#xfd;" 
d="M46 -184.5q-13 19.5 -13 39.5q0 8 5.5 13t20.5 13q108 58 199 130l-2 9h-3q-10 0 -16.5 7t-14.5 25q-37 91 -72.5 210t-49.5 204q-5 26 -5 41q0 11 20 18.5t40 7.5q14 0 19 -7.5t7 -28.5q13 -93 46.5 -211.5t76.5 -227.5h11q160 160 160 317q0 22 -5.5 56t-12.5 71
q-3 14 11.5 22.5t39.5 8.5q16 0 23.5 -5.5t9.5 -17.5q13 -56 13 -119q-1 -156 -117 -303.5t-333 -278.5q-22 -13 -33 -13q-12 0 -25 19.5zM318 588q-12 0 -24 13.5t-12 24.5q0 6 14 19l169 143q5 4 13 4q16 0 33 -16t17 -31q0 -10 -16 -21l-185 -133q-4 -3 -9 -3z" />
    <glyph glyph-name="Amacron" unicode="&#x100;" 
d="M10 10q0 8 11 38q123 327 286 625q10 19 25.5 25.5t51.5 6.5t49 -6.5t17 -25.5q64 -294 78 -625q0 -30 -1 -36q-3 -19 -47 -19q-20 0 -28 4.5t-9 20.5q-4 72 -6 180q-60 -4 -135 -4t-135 4q-41 -120 -66 -180q-6 -16 -16.5 -20.5t-30.5 -4.5q-44 0 -44 17zM314 269
q61 0 122 -3q-3 18 -7 54q-2 17 -16 121t-31 191h-12q-46 -86 -120 -242q-40 -84 -60 -124q62 3 124 3zM215 833q0 15 7 31t20 16h348q16 0 16 -24q0 -15 -8 -31t-21 -16h-348q-14 0 -14 24z" />
    <glyph glyph-name="amacron" unicode="&#x101;" 
d="M462.5 -8q-5.5 6 -10.5 26q-21 82 -31 126h-10q-64 -79 -119.5 -117.5t-108.5 -38.5q-59 0 -91 47t-32 143q0 103 34 183t100 126t158 46q51 0 95 -13t75 -39q18 -14 18 -32q0 -8 -1 -13l-9 -48q-12 -67 -22 -111.5t-25 -92.5q28 -68 51 -134q7 -21 7 -30
q0 -13 -20.5 -23.5t-40.5 -10.5q-12 0 -17.5 6zM163 96q17 -31 48 -31q39 0 91 40.5t109 116.5q12 42 23 97t20 110q-45 32 -112 32q-94 0 -145 -75.5t-51 -193.5q0 -65 17 -96zM202.5 661q-3.5 7 -3.5 17q0 14 7 30.5t18 16.5h316q7 0 11 -6.5t4 -17.5q0 -15 -7 -31
t-20 -16h-316q-6 0 -9.5 7z" />
    <glyph glyph-name="Abreve" unicode="&#x102;" 
d="M10 10q0 8 11 38q123 327 286 625q10 19 25.5 25.5t51.5 6.5t49 -6.5t17 -25.5q64 -294 78 -625q0 -30 -1 -36q-3 -19 -47 -19q-20 0 -28 4.5t-9 20.5q-4 72 -6 180q-60 -4 -135 -4t-135 4q-41 -120 -66 -180q-6 -16 -16.5 -20.5t-30.5 -4.5q-44 0 -44 17zM314 269
q61 0 122 -3q-3 18 -7 54q-2 17 -16 121t-31 191h-12q-46 -86 -120 -242q-40 -84 -60 -124q62 3 124 3zM278 806q-42 40 -50 110q-1 11 17 20.5t34 9.5q14 0 15 -7q6 -52 31.5 -79t76.5 -27q50 0 86 27t63 79q3 7 17 7q18 0 36 -9.5t13 -20.5q-35 -70 -92 -110t-131 -40
t-116 40z" />
    <glyph glyph-name="abreve" unicode="&#x103;" 
d="M462.5 -8q-5.5 6 -10.5 26q-21 82 -31 126h-10q-64 -79 -119.5 -117.5t-108.5 -38.5q-59 0 -91 47t-32 143q0 103 34 183t100 126t158 46q51 0 95 -13t75 -39q18 -14 18 -32q0 -8 -1 -13l-9 -48q-12 -67 -22 -111.5t-25 -92.5q28 -68 51 -134q7 -21 7 -30
q0 -13 -20.5 -23.5t-40.5 -10.5q-12 0 -17.5 6zM163 96q17 -31 48 -31q39 0 91 40.5t109 116.5q12 42 23 97t20 110q-45 32 -112 32q-94 0 -145 -75.5t-51 -193.5q0 -65 17 -96zM254.5 631q-38.5 40 -45.5 110q-1 11 15.5 20.5t31.5 9.5q12 0 13 -7q6 -52 29 -79t69 -27
t79 27t57 79q3 7 16 7q16 0 32 -9.5t12 -20.5q-32 -70 -84 -110t-119 -40t-105.5 40z" />
    <glyph glyph-name="Cacute" unicode="&#x106;" 
d="M131.5 51.5q-57.5 62.5 -57.5 201.5q0 100 32.5 204.5t108 177.5t196.5 73q68 0 118.5 -17.5t62.5 -42.5q8 -13 8 -66q0 -42 -4 -61q-4 -27 -48 -27q-19 0 -26.5 4.5t-6.5 17.5l3 87q-16 12 -46.5 19.5t-66.5 7.5q-89 0 -144 -61.5t-78 -146.5t-23 -161q0 -105 36.5 -149
t112.5 -44q41 0 82.5 10t91.5 32q6 2 9 2q12 0 19.5 -15.5t7.5 -33.5q0 -23 -20 -32q-40 -19 -93.5 -30.5t-103.5 -11.5q-113 0 -170.5 62.5zM321 763q-13 0 -26.5 14t-13.5 24q0 4 4 8.5t12 10.5l186 143q5 4 14 4q17 0 36 -16t19 -31q0 -10 -18 -21l-203 -133
q-4 -3 -10 -3z" />
    <glyph glyph-name="cacute" unicode="&#x107;" 
d="M129.5 32.5q-45.5 44.5 -45.5 143.5q0 90 30.5 171.5t96 134t164.5 52.5q53 0 92.5 -12t56.5 -31q9 -9 13 -44t4 -66q0 -14 -14 -21.5t-36 -7.5q-31 0 -31 18l1 69q-15 9 -40 14.5t-53 5.5q-73 0 -118 -44.5t-63.5 -106t-18.5 -118.5q0 -68 25.5 -96.5t77.5 -28.5
q45 0 93 21.5t102 62.5q5 4 11 4q14 0 26.5 -18t12.5 -33q0 -10 -14 -20q-54 -43 -117 -68.5t-123 -25.5q-87 0 -132.5 44.5zM318 588q-12 0 -24 13.5t-12 24.5q0 6 14 19l169 143q5 4 13 4q16 0 33 -16t17 -31q0 -10 -16 -21l-185 -133q-4 -3 -9 -3z" />
    <glyph glyph-name="Itilde" unicode="&#x128;" 
d="M82 22q0 18 7 38t21 20q57 0 130 -5q40 285 91 547q-74 -5 -131 -5q-15 0 -15 23q0 18 7 37.5t21 19.5h340q14 0 14 -22q0 -18 -7 -38t-21 -20q-57 0 -130 5q-34 -252 -90 -547q73 5 131 5q7 0 11 -6t4 -17q0 -17 -7.5 -37t-20.5 -20h-340q-15 0 -15 22zM439 794
q-23 18 -51 53q-18 25 -32 37t-34 12q-52 0 -86 -109q-6 -14 -34 -14q-16 0 -27.5 5t-9.5 14q20 81 62 126.5t98 45.5q40 0 65 -18.5t51 -53.5q18 -25 32 -37t33 -12q27 0 48.5 28t38.5 81q3 7 12.5 11t22.5 4q16 0 27 -5.5t10 -14.5q-22 -82 -64 -126.5t-99 -44.5
q-40 0 -63 18z" />
    <glyph glyph-name="itilde" unicode="&#x129;" 
d="M237.5 19.5q-28.5 31.5 -28.5 94.5q0 52 17 147t41 185q-86 -4 -156 -4q-14 0 -14 21q0 17 7 36t20 19h206q17 0 23 -7t4 -24q-27 -111 -43.5 -205t-16.5 -142q0 -38 11 -55t36 -17q64 0 143 75q5 3 9 3q12 0 23.5 -16t11.5 -29q0 -8 -3 -13t-11 -13q-43 -40 -94 -63.5
t-102 -23.5q-55 0 -83.5 31.5zM376.5 629.5q-21.5 18.5 -45.5 52.5q-17 25 -30 37t-31 12q-24 0 -43.5 -28.5t-34.5 -80.5q-2 -7 -10.5 -10.5t-20.5 -3.5q-15 0 -25 5t-8 14q18 81 56 126.5t89 45.5q36 0 58 -18.5t47 -53.5q17 -25 30 -37t30 -12q47 0 79 109q2 7 11 11
t20 4q15 0 25 -5.5t9 -14.5q-20 -82 -58 -126.5t-90 -44.5q-36 0 -57.5 18.5z" />
    <glyph glyph-name="dotlessi" unicode="&#x131;" 
d="M237.5 19.5q-28.5 31.5 -28.5 94.5q0 52 17 147t41 185q-86 -4 -156 -4q-14 0 -14 21q0 17 7 36t20 19h206q17 0 23 -7t4 -24q-27 -111 -43.5 -205t-16.5 -142q0 -38 11 -55t36 -17q64 0 143 75q5 3 9 3q12 0 23.5 -16t11.5 -29q0 -8 -3 -13t-11 -13q-43 -40 -94 -63.5
t-102 -23.5q-55 0 -83.5 31.5z" />
    <glyph glyph-name="Nacute" unicode="&#x143;" 
d="M37 13l111 665q3 14 17 20t41 6q29 0 40.5 -8t17.5 -32q86 -272 167 -576h10q10 99 36 280.5t48 315.5q3 20 47 20q43 0 40 -20l-111 -665q-2 -14 -16 -20t-42 -6q-29 0 -40 7.5t-18 32.5q-74 235 -167 576h-10q-10 -97 -35.5 -276.5t-47.5 -319.5q-5 -20 -47 -20
q-44 0 -41 20zM321 763q-13 0 -26.5 14t-13.5 24q0 4 4 8.5t12 10.5l186 143q5 4 14 4q17 0 36 -16t19 -31q0 -10 -18 -21l-203 -133q-4 -3 -10 -3z" />
    <glyph glyph-name="nacute" unicode="&#x144;" 
d="M400 -1.5q-9 5.5 -6 18.5q61 221 61 325q0 56 -15 81t-47 25q-46 0 -103 -48t-111 -138q-14 -117 -36 -249q-2 -10 -12.5 -15t-32.5 -5q-44 0 -39 20l47 286q27 167 31 209q2 11 12.5 15.5t32.5 4.5q23 0 32 -4.5t7 -15.5q-6 -45 -25 -131h9q56 80 113 118.5t106 38.5
q116 0 116 -171q0 -129 -64 -350q-2 -10 -12 -15t-32 -5q-23 0 -32 5.5zM319 588q-12 0 -24 13.5t-12 24.5q0 6 14 19l169 143q5 4 13 4q16 0 33 -16t17 -31q0 -10 -16 -21l-185 -133q-4 -3 -9 -3z" />
    <glyph glyph-name="Ncaron" unicode="&#x147;" 
d="M37 13l111 665q3 14 17 20t41 6q29 0 40.5 -8t17.5 -32q86 -272 167 -576h10q10 99 36 280.5t48 315.5q3 20 47 20q43 0 40 -20l-111 -665q-2 -14 -16 -20t-42 -6q-29 0 -40 7.5t-18 32.5q-74 235 -167 576h-10q-10 -97 -35.5 -276.5t-47.5 -319.5q-5 -20 -47 -20
q-44 0 -41 20zM233 941q0 9 14.5 18t28.5 9q7 0 12 -5l116 -131l165 131q4 4 12 4q13 0 26 -11t13 -21q0 -3 -3.5 -7t-9.5 -9l-159 -141q-17 -16 -50 -16t-45 16l-112 148q-8 11 -8 15z" />
    <glyph glyph-name="ncaron" unicode="&#x148;" 
d="M400 -1.5q-9 5.5 -6 18.5q61 221 61 325q0 56 -15 81t-47 25q-46 0 -103 -48t-111 -138q-14 -117 -36 -249q-2 -10 -12.5 -15t-32.5 -5q-44 0 -39 20l47 286q27 167 31 209q2 11 12.5 15.5t32.5 4.5q23 0 32 -4.5t7 -15.5q-6 -45 -25 -131h9q56 80 113 118.5t106 38.5
q116 0 116 -171q0 -129 -64 -350q-2 -10 -12 -15t-32 -5q-23 0 -32 5.5zM219 766q0 9 13.5 18t25.5 9q6 0 11 -5l105 -131l150 131q4 4 11 4q12 0 24 -10.5t12 -21.5q0 -4 -5 -9l-7 -7l-145 -141q-16 -16 -45 -16t-41 16l-102 148q-7 11 -7 15z" />
    <glyph glyph-name="Racute" unicode="&#x154;" 
d="M57 13l67 400q16 100 26 136.5t24 55.5l2 12q-27 -6 -37 -6q-16 0 -16 20l2 17q3 19 10 26t24 12q37 8 85.5 13.5t94.5 5.5q117 0 176 -48t59 -140q0 -78 -43 -142t-124 -108q35 -49 65.5 -104t49.5 -102q9 -24 9 -33q0 -14 -23.5 -24.5t-40.5 -10.5q-11 0 -16.5 7
t-12.5 28q-41 111 -111 219q-30 -2 -44 -2q-43 0 -103 7q-17 -123 -36 -239q-5 -20 -47 -20q-43 0 -40 20zM305 321q37 0 55 1q128 83 128 195t-150 112q-57 0 -96 -7q-16 -126 -49 -294q52 -7 112 -7zM321 763q-13 0 -26.5 14t-13.5 24q0 4 4 8.5t12 10.5l186 143q5 4 14 4
q17 0 36 -16t19 -31q0 -10 -18 -21l-203 -133q-4 -3 -10 -3z" />
    <glyph glyph-name="racute" unicode="&#x155;" 
d="M101 -1.5q-9 4.5 -7 14.5l53 317q-23 154 -23 176q0 10 15.5 17t35.5 7q15 0 21 -3t7 -11q7 -52 11 -139h9q60 79 123 118t134 39q29 0 53 -7t33 -19q7 -9 11 -38t4 -64q0 -37 -4 -60q-2 -13 -15.5 -19.5t-33.5 -6.5t-27.5 3.5t-7.5 12.5l2 110q-16 8 -40 8
q-62 0 -122 -42.5t-116 -124.5q-10 -81 -32 -219l-8 -55q-2 -10 -12 -14.5t-33 -4.5q-22 0 -31 4.5zM319 588q-12 0 -24 13.5t-12 24.5q0 6 14 19l169 143q5 4 13 4q16 0 33 -16t17 -31q0 -10 -16 -21l-185 -133q-4 -3 -9 -3z" />
    <glyph glyph-name="Rcaron" unicode="&#x158;" 
d="M57 13l67 400q16 100 26 136.5t24 55.5l2 12q-27 -6 -37 -6q-16 0 -16 20l2 17q3 19 10 26t24 12q37 8 85.5 13.5t94.5 5.5q117 0 176 -48t59 -140q0 -78 -43 -142t-124 -108q35 -49 65.5 -104t49.5 -102q9 -24 9 -33q0 -14 -23.5 -24.5t-40.5 -10.5q-11 0 -16.5 7
t-12.5 28q-41 111 -111 219q-30 -2 -44 -2q-43 0 -103 7q-17 -123 -36 -239q-5 -20 -47 -20q-43 0 -40 20zM305 321q37 0 55 1q128 83 128 195t-150 112q-57 0 -96 -7q-16 -126 -49 -294q52 -7 112 -7zM233 941q0 9 14.5 18t28.5 9q7 0 12 -5l116 -131l165 131q4 4 12 4
q13 0 26 -11t13 -21q0 -3 -3.5 -7t-9.5 -9l-159 -141q-17 -16 -50 -16t-45 16l-112 148q-8 11 -8 15z" />
    <glyph glyph-name="rcaron" unicode="&#x159;" 
d="M101 -1.5q-9 4.5 -7 14.5l53 317q-23 154 -23 176q0 10 15.5 17t35.5 7q15 0 21 -3t7 -11q7 -52 11 -139h9q60 79 123 118t134 39q29 0 53 -7t33 -19q7 -9 11 -38t4 -64q0 -37 -4 -60q-2 -13 -15.5 -19.5t-33.5 -6.5t-27.5 3.5t-7.5 12.5l2 110q-16 8 -40 8
q-62 0 -122 -42.5t-116 -124.5q-10 -81 -32 -219l-8 -55q-2 -10 -12 -14.5t-33 -4.5q-22 0 -31 4.5zM219 766q0 9 13.5 18t25.5 9q6 0 11 -5l105 -131l150 131q4 4 11 4q12 0 24 -10.5t12 -21.5q0 -4 -5 -9l-7 -7l-145 -141q-16 -16 -45 -16t-41 16l-102 148q-7 11 -7 15z
" />
    <glyph glyph-name="Sacute" unicode="&#x15a;" 
d="M85 18q-15 7 -21 13t-6 15q0 14 6.5 28t16 22t17.5 4q76 -38 165 -38q80 0 128 34t48 96q0 43 -28.5 67t-97.5 44q-57 17 -94.5 37t-61 58t-23.5 99q0 98 65 156t182 58q57 0 107.5 -13.5t62.5 -29.5q10 -11 10 -60q0 -24 -4 -52q-4 -26 -50 -26q-17 0 -23.5 4.5
t-5.5 13.5q4 40 2 68q-47 20 -104 20q-81 0 -119.5 -37t-38.5 -94q0 -53 31 -78t96 -43q93 -26 135.5 -69t42.5 -118q0 -63 -32.5 -111t-92.5 -74t-140 -26q-94 0 -173 32zM321 763q-13 0 -26.5 14t-13.5 24q0 4 4 8.5t12 10.5l186 143q5 4 14 4q17 0 36 -16t19 -31
q0 -10 -18 -21l-203 -133q-4 -3 -10 -3z" />
    <glyph glyph-name="sacute" unicode="&#x15b;" 
d="M178 -2.5q-49 9.5 -87 26.5q-7 4 -10 8.5t-3 11.5q0 18 11.5 37t24.5 14q77 -37 170 -37q65 0 102 20.5t37 63.5q0 33 -25.5 52t-91.5 32q-57 12 -92 24.5t-59 40.5t-24 76q0 82 60.5 125t159.5 43q101 0 170 -34q8 -4 10.5 -8.5t2.5 -11.5q0 -19 -11.5 -37t-25.5 -12
q-74 33 -149 33q-63 0 -99.5 -22t-36.5 -65q0 -25 14.5 -39.5t37.5 -21.5t68 -17q91 -19 132 -52t41 -96q0 -81 -62 -122.5t-163 -41.5q-53 0 -102 9.5zM319 588q-12 0 -24 13.5t-12 24.5q0 6 14 19l169 143q5 4 13 4q16 0 33 -16t17 -31q0 -10 -16 -21l-185 -133
q-4 -3 -9 -3z" />
    <glyph glyph-name="Scircumflex" unicode="&#x15c;" 
d="M85 18q-15 7 -21 13t-6 15q0 14 6.5 28t16 22t17.5 4q76 -38 165 -38q80 0 128 34t48 96q0 43 -28.5 67t-97.5 44q-57 17 -94.5 37t-61 58t-23.5 99q0 98 65 156t182 58q57 0 107.5 -13.5t62.5 -29.5q10 -11 10 -60q0 -24 -4 -52q-4 -26 -50 -26q-17 0 -23.5 4.5
t-5.5 13.5q4 40 2 68q-47 20 -104 20q-81 0 -119.5 -37t-38.5 -94q0 -53 31 -78t96 -43q93 -26 135.5 -69t42.5 -118q0 -63 -32.5 -111t-92.5 -74t-140 -26q-94 0 -173 32zM592 789q0 -9 -14.5 -18t-28.5 -9q-7 0 -12 5l-116 131l-165 -131q-4 -4 -12 -4q-13 0 -26 11
t-13 21q0 3 3.5 7t9.5 9l159 141q17 16 50 16t45 -16l112 -148q8 -11 8 -15z" />
    <glyph glyph-name="scircumflex" unicode="&#x15d;" 
d="M178 -2.5q-49 9.5 -87 26.5q-7 4 -10 8.5t-3 11.5q0 18 11.5 37t24.5 14q77 -37 170 -37q65 0 102 20.5t37 63.5q0 33 -25.5 52t-91.5 32q-57 12 -92 24.5t-59 40.5t-24 76q0 82 60.5 125t159.5 43q101 0 170 -34q8 -4 10.5 -8.5t2.5 -11.5q0 -19 -11.5 -37t-25.5 -12
q-74 33 -149 33q-63 0 -99.5 -22t-36.5 -65q0 -25 14.5 -39.5t37.5 -21.5t68 -17q91 -19 132 -52t41 -96q0 -81 -62 -122.5t-163 -41.5q-53 0 -102 9.5zM546 615q0 -9 -13.5 -18.5t-25.5 -9.5q-6 0 -11 5l-105 131l-150 -131q-4 -4 -11 -4q-11 0 -23.5 11.5t-12.5 21.5
q0 3 4.5 8t7.5 8l145 140q16 16 45 16t41 -16l102 -148q7 -10 7 -14z" />
    <glyph glyph-name="Scedilla" unicode="&#x15e;" 
d="M64.5 74q6.5 14 16 22t17.5 4q76 -38 165 -38q80 0 128 34t48 96q0 43 -28.5 67t-97.5 44q-57 17 -94.5 37t-61 58t-23.5 99q0 98 65 156t182 58q57 0 107.5 -13.5t62.5 -29.5q10 -11 10 -60q0 -24 -4 -52q-4 -26 -50 -26q-17 0 -23.5 4.5t-5.5 13.5q4 40 2 68
q-47 20 -104 20q-81 0 -119.5 -37t-38.5 -94q0 -53 31 -78t96 -43q93 -26 135.5 -69t42.5 -118q0 -90 -63 -146t-171 -64l-3 -7l-60 -160q-4 -9 -15 -13.5t-25 -4.5q-16 0 -28.5 5.5t-12.5 14.5q0 6 9 23l76 142q-78 4 -145 31q-15 7 -21 13t-6 15q0 14 6.5 28z" />
    <glyph glyph-name="scedilla" unicode="&#x15f;" 
d="M89.5 81q11.5 19 24.5 14q77 -37 170 -37q65 0 102 20.5t37 63.5q0 33 -25.5 52t-91.5 32q-57 12 -92 24.5t-59 40.5t-24 76q0 82 60.5 125t159.5 43q101 0 170 -34q8 -4 10.5 -8.5t2.5 -11.5q0 -19 -11.5 -37t-25.5 -12q-74 33 -149 33q-63 0 -99.5 -22t-36.5 -65
q0 -25 14.5 -39.5t37.5 -21.5t68 -17q91 -19 132 -52t41 -96q0 -79 -59 -120.5t-156 -43.5l-3 -8l-60 -160q-4 -9 -15 -13.5t-25 -4.5q-16 0 -28.5 5.5t-12.5 14.5q0 6 9 23l77 145q-80 8 -141 34q-7 4 -10 8.5t-3 11.5q0 18 11.5 37z" />
    <glyph glyph-name="Utilde" unicode="&#x168;" 
d="M124.5 35.5q-49.5 47.5 -49.5 151.5q0 72 25 214t55 283q4 10 14.5 15t32.5 5q24 0 33 -5.5t6 -18.5q-27 -115 -54.5 -269t-28.5 -224q0 -66 29 -92.5t89 -26.5q66 0 105.5 33t61.5 119q19 72 42.5 219t32.5 241q2 13 12.5 18.5t34.5 5.5q23 0 32 -5t8 -15
q-14 -130 -36 -271t-48 -230q-29 -102 -89.5 -148.5t-156.5 -46.5q-101 0 -150.5 47.5zM439 794q-23 18 -51 53q-18 25 -32 37t-34 12q-52 0 -86 -109q-6 -14 -34 -14q-16 0 -27.5 5t-9.5 14q20 81 62 126.5t98 45.5q40 0 65 -18.5t51 -53.5q18 -25 32 -37t33 -12
q27 0 48.5 28t38.5 81q3 7 12.5 11t22.5 4q16 0 27 -5.5t10 -14.5q-22 -82 -64 -126.5t-99 -44.5q-40 0 -63 18z" />
    <glyph glyph-name="utilde" unicode="&#x169;" 
d="M220 523.5q9 -5.5 6 -18.5q-61 -221 -61 -325q0 -56 15 -81t47 -25q46 0 103 48t111 138q14 117 36 249q2 10 12.5 15t32.5 5q44 0 39 -20l-47 -286q-27 -167 -31 -209q-2 -11 -12.5 -15.5t-32.5 -4.5q-23 0 -32 4.5t-7 15.5q6 45 25 131h-9q-56 -80 -113 -118.5
t-106 -38.5q-116 0 -116 171q0 129 64 350q2 10 12 15t32 5q23 0 32 -5.5zM403.5 629.5q-21.5 18.5 -45.5 52.5q-17 25 -30 37t-31 12q-24 0 -43.5 -28.5t-34.5 -80.5q-2 -7 -10.5 -10.5t-20.5 -3.5q-15 0 -25 5t-8 14q18 81 56 126.5t89 45.5q36 0 58 -18.5t47 -53.5
q17 -25 30 -37t30 -12q47 0 79 109q2 7 11 11t20 4q15 0 25 -5.5t9 -14.5q-20 -82 -58 -126.5t-90 -44.5q-36 0 -57.5 18.5z" />
    <glyph glyph-name="Wcircumflex" unicode="&#x174;" 
d="M104 2q-10 8 -11 35q-10 117 -10 262q0 110 5 214.5t14 172.5q3 19 44 19q21 0 30 -5t8 -18q-29 -229 -29 -481q0 -87 2 -129h12q70 134 122 285q9 96 15 132q4 23 45 23q21 0 30 -5.5t7 -17.5q-7 -35 -29 -132q3 -148 27 -285h12q112 304 177 610q3 13 14 18t32 5
q42 0 39 -19q-25 -123 -89.5 -322.5t-118.5 -326.5q-10 -27 -22.5 -35t-39.5 -8t-36.5 7t-12.5 28q-21 137 -19 271h-10q-48 -150 -108 -271q-10 -21 -22.5 -28t-40.5 -7q-27 0 -37 8zM592 789q0 -9 -14.5 -18t-28.5 -9q-7 0 -12 5l-116 131l-165 -131q-4 -4 -12 -4
q-13 0 -26 11t-13 21q0 3 3.5 7t9.5 9l159 141q17 16 50 16t45 -16l112 -148q8 -11 8 -15z" />
    <glyph glyph-name="wcircumflex" unicode="&#x175;" 
d="M104 2q-10 8 -11 35q-13 101 -13 241q0 90 7 193l5 39q1 19 42 19q21 0 29 -5t7 -18q-17 -150 -17 -295q0 -80 4 -141h12q62 97 109 212q6 68 12 98q3 25 43 25q39 0 35 -25q-5 -35 -22 -98q10 -115 40 -212h12q86 220 132 436q2 13 12.5 18t31.5 5q37 0 37 -16
q0 -7 -8 -42q-27 -105 -67.5 -224t-82.5 -210q-11 -27 -23 -35t-39 -8q-28 0 -37 6.5t-13 28.5q-25 97 -30 199h-11q-37 -99 -95 -199q-11 -21 -23.5 -28t-40.5 -7q-27 0 -37 8zM545 615q0 -9 -13.5 -18.5t-25.5 -9.5q-6 0 -11 5l-105 131l-150 -131q-4 -4 -11 -4
q-11 0 -23.5 11.5t-12.5 21.5q0 3 4.5 8t7.5 8l145 140q16 16 45 16t41 -16l102 -148q7 -10 7 -14z" />
    <glyph glyph-name="Ycircumflex" unicode="&#x176;" 
d="M225 13q15 94 49 266q-93 178 -143 375q-4 18 -4 22q0 11 19.5 20t39.5 9q12 0 18 -6t8 -20q17 -73 45 -157.5t60 -158.5h10q57 73 113.5 157t99.5 159q7 14 14 20t19 6q23 0 40.5 -7.5t17.5 -19.5q0 -8 -10 -25q-116 -198 -269 -376q-22 -155 -39 -264q-5 -20 -47 -20
q-44 0 -41 20zM592 789q0 -9 -14.5 -18t-28.5 -9q-7 0 -12 5l-116 131l-165 -131q-4 -4 -12 -4q-13 0 -26 11t-13 21q0 3 3.5 7t9.5 9l159 141q17 16 50 16t45 -16l112 -148q8 -11 8 -15z" />
    <glyph glyph-name="Zacute" unicode="&#x179;" 
d="M15 24q0 4 2 18q3 22 9.5 35t25.5 35q256 297 447 499l2 11q-193 -5 -347 -5q-7 0 -11 6t-4 17q0 17 7.5 37t20.5 20h425q20 0 20 -23q0 -5 -2 -19q-3 -21 -9.5 -35t-25.5 -35q-256 -297 -447 -499l-1 -11q206 5 389 5q7 0 11 -6t4 -17q0 -17 -7.5 -37t-20.5 -20h-468
q-20 0 -20 24zM321 763q-13 0 -26.5 14t-13.5 24q0 4 4 8.5t12 10.5l186 143q5 4 14 4q17 0 36 -16t19 -31q0 -10 -18 -21l-203 -133q-4 -3 -10 -3z" />
    <glyph glyph-name="zacute" unicode="&#x17a;" 
d="M277.5 -24.5q-85.5 25.5 -147.5 69.5l-53 -52q-4 -4 -10 -4q-12 0 -24 12t-12 26q0 8 5.5 15.5t23.5 24.5l380 376v5h-305q-15 0 -15 21q0 16 6.5 34.5t19.5 18.5h388q20 0 20 -23q0 -24 -8.5 -39.5t-30.5 -35.5l-327 -324v-5q56 -32 126.5 -49t144.5 -18q10 56 13 105
q2 18 31 18q45 0 42 -25q-2 -24 -11.5 -65.5t-20.5 -68.5q-9 -24 -23 -33t-44 -9q-83 0 -168.5 25.5zM319 588q-12 0 -24 13.5t-12 24.5q0 6 14 19l169 143q5 4 13 4q16 0 33 -16t17 -31q0 -10 -16 -21l-185 -133q-4 -3 -9 -3z" />
    <glyph glyph-name="Zdotaccent" unicode="&#x17b;" 
d="M15 24q0 4 2 18q3 22 9.5 35t25.5 35q256 297 447 499l2 11q-193 -5 -347 -5q-7 0 -11 6t-4 17q0 17 7.5 37t20.5 20h425q20 0 20 -23q0 -5 -2 -19q-3 -21 -9.5 -35t-25.5 -35q-256 -297 -447 -499l-1 -11q206 5 389 5q7 0 11 -6t4 -17q0 -17 -7.5 -37t-20.5 -20h-468
q-20 0 -20 24zM350 797.5q-15 8.5 -15 28.5q0 8 1 13q5 26 24 38t58 12q40 0 54 -11.5t10 -38.5q-5 -27 -24 -38.5t-59 -11.5q-34 0 -49 8.5z" />
    <glyph glyph-name="zcaron" unicode="&#x17e;" 
d="M277.5 -24.5q-85.5 25.5 -147.5 69.5l-53 -52q-4 -4 -10 -4q-12 0 -24 12t-12 26q0 8 5.5 15.5t23.5 24.5l380 376v5h-305q-15 0 -15 21q0 16 6.5 34.5t19.5 18.5h388q20 0 20 -23q0 -24 -8.5 -39.5t-30.5 -35.5l-327 -324v-5q56 -32 126.5 -49t144.5 -18q10 56 13 105
q2 18 31 18q45 0 42 -25q-2 -24 -11.5 -65.5t-20.5 -68.5q-9 -24 -23 -33t-44 -9q-83 0 -168.5 25.5zM219 766q0 9 13.5 18t25.5 9q6 0 11 -5l105 -131l150 131q4 4 11 4q12 0 24 -10.5t12 -21.5q0 -4 -5 -9l-7 -7l-145 -141q-16 -16 -45 -16t-41 16l-102 148q-7 11 -7 15z
" />
    <glyph glyph-name="uni0401" unicode="&#x401;" 
d="M84 8q-6 8 -4 26l64 385q16 100 26 136t24 55l2 12l-38 -2q-15 0 -15 22q0 17 7.5 36t20.5 19h414q14 0 14 -22q0 -17 -7 -36t-20 -19q-139 0 -311 4q-10 -104 -40 -234q161 4 274 4q14 0 14 -22q0 -17 -7 -35t-20 -18q-112 0 -272 3q-12 -119 -42 -249q175 4 317 4
q15 0 15 -22q0 -18 -7 -36.5t-21 -18.5h-364q-18 0 -24 8zM225 797.5q-14 8.5 -14 27.5q0 9 1 14q5 27 23 38.5t56 11.5t51.5 -11.5t9.5 -38.5q-5 -27 -23 -38.5t-56 -11.5q-34 0 -48 8.5zM489 877.5q18 11.5 57 11.5q33 0 47 -8.5t14 -28.5q0 -8 -1 -13q-5 -27 -23 -38.5
t-56 -11.5q-34 0 -48 8.5t-14 27.5q0 9 1 14q5 27 23 38.5z" />
    <glyph glyph-name="uni040E" unicode="&#x40e;" 
d="M45 -6q-7 2 -10 8t-3 20q0 20 5.5 34t15.5 14q6 0 20 -2t26 -2q57 0 102 31t90 98l-1 4q-18 -3 -31 -3q-9 0 -15 7t-12 24q-31 81 -57.5 176.5t-43 171.5t-16.5 98q0 14 18 22.5t42 8.5q13 0 18.5 -7t8.5 -28q12 -90 41.5 -204.5t67.5 -215.5h14l15 27q110 196 197 394
q8 20 14.5 27t17.5 7q23 0 43 -8.5t20 -19.5q0 -8 -12 -32q-40 -83 -97 -193t-105 -193q-55 -98 -104 -157t-101 -86t-113 -27q-35 0 -55 6zM286.5 806.5q-38.5 40.5 -43.5 114.5q-1 10 15.5 18t32.5 8t16 -8q2 -55 23.5 -83t70.5 -28t79.5 28t52.5 83q3 8 19 8
q17 0 32.5 -8t11.5 -18q-29 -74 -80.5 -114.5t-121.5 -40.5q-69 0 -107.5 40.5z" />
    <glyph glyph-name="uni0410" unicode="&#x410;" 
d="M10 10q0 8 11 38q123 327 286 625q10 19 25.5 25.5t51.5 6.5t49 -6.5t17 -25.5q64 -294 78 -625q0 -30 -1 -36q-3 -19 -47 -19q-20 0 -28 4.5t-9 20.5q-4 72 -6 180q-60 -4 -135 -4t-135 4q-41 -120 -66 -180q-6 -16 -16.5 -20.5t-30.5 -4.5q-44 0 -44 17zM314 269
q61 0 122 -3q-3 18 -7 54q-2 17 -16 121t-31 191h-12q-46 -86 -120 -242q-40 -84 -60 -124q62 3 124 3z" />
    <glyph glyph-name="uni0411" unicode="&#x411;" 
d="M172 -0.5q-47 7.5 -75 18.5q-15 5 -19.5 13.5t-2.5 23.5l60 364q16 100 26 136t24 55l2 12l-38 -2q-13 0 -13 21q0 23 6 39.5t20 16.5h404q14 0 14 -23q0 -22 -7 -39.5t-20 -17.5q-145 0 -301 5q-12 -111 -35 -209q48 8 94 8q117 0 176.5 -46t59.5 -137q0 -63 -29 -119
t-93 -91.5t-164 -35.5q-42 0 -89 7.5zM266 68q103 0 148.5 49.5t45.5 121.5q0 56 -38.5 83.5t-116.5 27.5q-42 0 -98 -8q-19 -136 -44 -261q51 -13 103 -13z" />
    <glyph glyph-name="uni0412" unicode="&#x412;" 
d="M160.5 -1q-50.5 7 -78.5 21q-15 6 -20 14t-3 23l60 356q17 99 27 135.5t23 56.5l2 12q-27 -6 -37 -6q-16 0 -16 20l2 17q3 19 10 26t24 12q37 8 88.5 13.5t98.5 5.5q220 0 220 -163q0 -117 -118 -184l-3 -11q48 -16 73.5 -53t25.5 -95q0 -101 -76 -154t-199 -53
q-53 0 -103.5 7zM264 64q85 0 137.5 33.5t52.5 100.5q0 114 -147 114q-70 0 -123 -8q-14 -125 -36 -222q39 -18 116 -18zM319 378q18 0 46 -2q109 64 109 157q0 100 -139 100q-44 0 -97 -7q-14 -119 -43 -256q67 8 124 8z" />
    <glyph glyph-name="uni0413" unicode="&#x413;" 
d="M89 13l67 406q16 99 26.5 135.5t24.5 55.5l1 12l-38 -2q-14 0 -14 22q0 17 7 36t20 19h411q15 0 15 -22q0 -18 -7 -38t-21 -20q-147 0 -309 5q-35 -243 -97 -609q-3 -20 -47 -20q-42 0 -39 20z" />
    <glyph glyph-name="uni0414" unicode="&#x414;" 
d="M-29.5 -152q-9.5 5 -7.5 15l30 182q4 18 13 26.5t27 8.5h13q41 41 71.5 100.5t59 164.5t56.5 275l-33 -2q-14 0 -14 22q0 18 7 37.5t21 19.5h360q35 0 29 -34q-42 -246 -64.5 -364t-48.5 -219h37q18 0 24.5 -8.5t3.5 -26.5l-30 -182q-2 -10 -13 -15t-34 -5q-43 0 -40 20
q16 90 27 141q-134 -4 -199 -4q-64 0 -198 4q-8 -85 -18 -141q-5 -20 -47 -20q-23 0 -32.5 5zM272 80q75 0 150 -3q34 245 91 543q-52 -3 -106 -3q-52 0 -105 3q-2 -25 -10 -75q-32 -191 -73.5 -299t-99.5 -169q77 3 153 3z" />
    <glyph glyph-name="uni0415" unicode="&#x415;" 
d="M84 8q-6 8 -4 26l64 385q16 100 26 136t24 55l2 12l-38 -2q-15 0 -15 22q0 17 7.5 36t20.5 19h414q14 0 14 -22q0 -17 -7 -36t-20 -19q-139 0 -311 4q-10 -104 -40 -234q161 4 274 4q14 0 14 -22q0 -17 -7 -35t-20 -18q-112 0 -272 3q-12 -119 -42 -249q175 4 317 4
q15 0 15 -22q0 -18 -7 -36.5t-21 -18.5h-364q-18 0 -24 8z" />
    <glyph glyph-name="uni0416" unicode="&#x416;" 
d="M485 -1.5q-4 5.5 -8 23.5q-28 160 -86 297q-20 -2 -38 -2q-18 -154 -43 -304q-3 -20 -44 -20q-40 0 -37 20q23 136 57 304q-16 0 -36 2q-103 -140 -180 -297q-9 -18 -15 -23.5t-17 -5.5q-18 0 -36.5 8.5t-18.5 19.5q0 7 8 23t11 23q41 76 93.5 159t101.5 145
q-25 57 -49 131t-39 137q-5 26 -5 38q0 11 18 19t37 8q11 0 16 -5.5t8 -21.5q26 -144 78 -283q20 -2 37 -2q18 149 41 292q3 20 44 20q40 0 37 -20q-21 -131 -55 -292q17 0 37 2q87 129 166 283q8 15 14.5 21t17.5 6q19 0 36 -7.5t17 -18.5q0 -13 -17 -44q-39 -70 -88 -147
t-92 -132q30 -64 55.5 -144t40.5 -149q3 -16 4.5 -27t0.5 -17q-1 -11 -20 -18t-37 -7q-11 0 -15 5.5z" />
    <glyph glyph-name="uni0417" unicode="&#x417;" 
d="M156.5 -5.5q-44.5 9.5 -78.5 25.5q-15 7 -21.5 13.5t-6.5 15.5q0 17 11 37t22 20q4 0 11.5 -3.5t11.5 -5.5q30 -15 63.5 -25t81.5 -10q84 0 135 34t51 90q0 43 -27 73t-84 52q-48 -3 -110 -3q-21 0 -21 26q0 19 7 37t24 18q23 0 58 -3t63 -8q133 74 133 162t-127 88
q-59 0 -106 -18q-18 -50 -22 -70q-3 -9 -8 -13t-14 -4q-26 0 -40.5 6.5t-14.5 17.5q0 18 16.5 64t29.5 57q17 15 65.5 26t99.5 11q99 0 152.5 -39t53.5 -110q0 -121 -151 -205l-2 -11q53 -21 81 -58t28 -95q0 -61 -35 -107t-96.5 -70.5t-139.5 -24.5q-49 0 -93.5 9.5z" />
    <glyph glyph-name="uni0418" unicode="&#x418;" 
d="M237 684q-24 -138 -58.5 -318.5t-57.5 -277.5h11q223 376 351 576q16 24 30 32t44 8q29 0 42.5 -6t11.5 -20l-111 -665q-3 -20 -46 -20q-44 0 -41 20q25 144 59 322t56 274h-10q-200 -341 -352 -576q-15 -24 -29.5 -32t-43.5 -8q-30 0 -43.5 6t-10.5 20l110 665
q3 20 47 20q43 0 41 -20z" />
    <glyph glyph-name="uni0419" unicode="&#x419;" 
d="M237 684q-24 -138 -58.5 -318.5t-57.5 -277.5h11q223 376 351 576q16 24 30 32t44 8q29 0 42.5 -6t11.5 -20l-111 -665q-3 -20 -46 -20q-44 0 -41 20q25 144 59 322t56 274h-10q-200 -341 -352 -576q-15 -24 -29.5 -32t-43.5 -8q-30 0 -43.5 6t-10.5 20l110 665
q3 20 47 20q43 0 41 -20zM286.5 806.5q-38.5 40.5 -43.5 114.5q-1 10 15.5 18t32.5 8t16 -8q2 -55 23.5 -83t70.5 -28t79.5 28t52.5 83q3 8 19 8q17 0 32.5 -8t11.5 -18q-29 -74 -80.5 -114.5t-121.5 -40.5q-69 0 -107.5 40.5z" />
    <glyph glyph-name="uni041A" unicode="&#x41a;" 
d="M439 -1.5q-5 5.5 -12 23.5q-25 73 -66.5 149.5t-94.5 145.5q-17 -2 -42.5 -3.5t-39.5 -2.5l-35 -227l-11 -71q-5 -20 -47 -20q-45 0 -40 20l111 671q3 20 47 20q43 0 40 -20q-13 -83 -53 -294q38 1 79 6q122 126 229 282q11 15 18 20.5t17 5.5q22 0 42 -8.5t20 -20.5
t-19 -38q-47 -66 -116 -145.5t-132 -139.5q54 -64 101 -143t71 -144q11 -27 11 -39t-22.5 -22.5t-40.5 -10.5q-10 0 -15 5.5z" />
    <glyph glyph-name="uni041B" unicode="&#x41b;" 
d="M9 12.5q-16 20.5 -16 36.5q0 11 15 21q55 40 93 97t71 164t65 289l-33 -2q-14 0 -14 22q0 18 7 37.5t21 19.5h360q18 0 24.5 -8t4.5 -26l-108 -650q-5 -20 -47 -20q-45 0 -40 20q58 360 105 607q-52 -3 -106 -3q-52 0 -105 3q-5 -49 -12 -92q-26 -156 -60.5 -259
t-76.5 -164.5t-98 -103.5q-12 -9 -18 -9q-16 0 -32 20.5z" />
    <glyph glyph-name="uni041C" unicode="&#x41c;" 
d="M17 14q26 157 62 335.5t73 325.5q5 17 19 23.5t46 6.5q30 0 41.5 -6.5t13.5 -24.5q31 -195 38 -358h14q70 184 158 358q7 17 21.5 24t45.5 7q32 0 44.5 -6.5t11.5 -23.5q-11 -145 -34 -322.5t-49 -338.5q-4 -21 -45 -21q-43 0 -38 20q57 325 90 605h-12
q-83 -162 -159 -354q-5 -15 -16.5 -21.5t-35.5 -6.5t-34 6.5t-9 21.5q-13 191 -41 354h-12q-55 -253 -111 -605q-3 -20 -44 -20q-42 0 -38 21z" />
    <glyph glyph-name="uni041D" unicode="&#x41d;" 
d="M39 13l111 671q5 20 47 20q44 0 41 -20q-17 -112 -53 -290q67 4 147 4q82 0 147 -4q24 166 39 256l5 34q3 20 47 20q43 0 40 -20l-111 -671q-5 -20 -47 -20q-45 0 -40 20q18 116 56 309q-75 -3 -148 -3q-72 0 -146 3q-20 -145 -40 -256l-8 -53q-3 -20 -47 -20
q-43 0 -40 20z" />
    <glyph glyph-name="uni041E" unicode="&#x41e;" 
d="M114 53.5q-51 65.5 -51 209.5q0 100 28.5 201.5t98.5 173t184 71.5q111 0 162 -65.5t51 -209.5q0 -100 -28.5 -201.5t-98.5 -173t-184 -71.5q-111 0 -162 65.5zM180.5 111q31.5 -45 102.5 -45q76 0 125 58.5t71.5 144t22.5 166.5q0 105 -31.5 150.5t-102.5 45.5
q-76 0 -125.5 -58.5t-71.5 -143.5t-22 -167q0 -106 31.5 -151z" />
    <glyph glyph-name="uni041F" unicode="&#x41f;" 
d="M39 13l67 406q16 99 26.5 135.5t24.5 55.5l1 12l-37 -2q-15 0 -15 22q0 17 7 36t20 19h445q18 0 24.5 -8t4.5 -26l-108 -650q-5 -20 -47 -20q-45 0 -40 20q57 350 105 608q-100 -4 -147 -4t-147 4q-36 -243 -97 -608q-3 -20 -47 -20q-43 0 -40 20z" />
    <glyph glyph-name="uni0420" unicode="&#x420;" 
d="M68 13l65 396q16 98 26.5 135t23.5 57l2 12q-27 -6 -36 -6q-8 0 -12 4.5t-4 15.5q0 3 2 19q3 19 10 27t24 13q38 8 87.5 13.5t94.5 5.5q118 0 178 -52.5t60 -156.5q0 -73 -29 -137t-94.5 -105t-167.5 -41q-62 0 -113 12q-19 -133 -31 -212q-3 -20 -47 -20t-39 20z
M302 288q106 0 153 59.5t47 147.5q0 69 -37.5 101.5t-115.5 32.5q-55 0 -97 -9q-18 -157 -54 -321q48 -11 104 -11z" />
    <glyph glyph-name="uni0421" unicode="&#x421;" 
d="M131.5 51.5q-57.5 62.5 -57.5 201.5q0 100 32.5 204.5t108 177.5t196.5 73q68 0 118.5 -17.5t62.5 -42.5q8 -13 8 -66q0 -42 -4 -61q-4 -27 -48 -27q-19 0 -26.5 4.5t-6.5 17.5l3 87q-16 12 -46.5 19.5t-66.5 7.5q-89 0 -144 -61.5t-78 -146.5t-23 -161q0 -105 36.5 -149
t112.5 -44q41 0 82.5 10t91.5 32q6 2 9 2q12 0 19.5 -15.5t7.5 -33.5q0 -23 -20 -32q-40 -19 -93.5 -30.5t-103.5 -11.5q-113 0 -170.5 62.5z" />
    <glyph glyph-name="uni0422" unicode="&#x422;" 
d="M225 13l14 84q58 348 92 525q-114 -5 -207 -5q-7 0 -11 6t-4 17q0 17 7.5 37t20.5 20h491q15 0 15 -22q0 -17 -7.5 -37.5t-20.5 -20.5q-64 0 -207 5q-28 -203 -81 -521q-5 -34 -14 -88q-5 -20 -47 -20q-44 0 -41 20z" />
    <glyph glyph-name="uni0423" unicode="&#x423;" 
d="M45 -6q-7 2 -10 8t-3 20q0 20 5.5 34t15.5 14q6 0 20 -2t26 -2q57 0 102 31t90 98l-1 4q-18 -3 -31 -3q-9 0 -15 7t-12 24q-31 81 -57.5 176.5t-43 171.5t-16.5 98q0 14 18 22.5t42 8.5q13 0 18.5 -7t8.5 -28q12 -90 41.5 -204.5t67.5 -215.5h14l15 27q110 196 197 394
q8 20 14.5 27t17.5 7q23 0 43 -8.5t20 -19.5q0 -8 -12 -32q-40 -83 -97 -193t-105 -193q-55 -98 -104 -157t-101 -86t-113 -27q-35 0 -55 6z" />
    <glyph glyph-name="uni0424" unicode="&#x424;" 
d="M224 1q0 16 16 77q-101 9 -147 61.5t-46 158.5q0 134 64 223.5t220 98.5q1 29 7 72q5 20 47 20q44 0 41 -20q-9 -41 -17 -73q100 -9 146.5 -61.5t46.5 -157.5q0 -135 -64 -225t-220 -98q-1 -46 -7 -72q-2 -11 -13.5 -15.5t-33.5 -4.5q-40 0 -40 16zM156.5 189
q30.5 -34 100.5 -40q27 200 66 399q-113 -10 -155 -78.5t-42 -173.5q0 -73 30.5 -107zM480.5 228q42.5 69 42.5 173q0 72 -31 106.5t-100 40.5q-28 -207 -67 -399q113 10 155.5 79z" />
    <glyph glyph-name="uni0425" unicode="&#x425;" 
d="M26 1q-19 10 -19 23q0 12 20 40q45 71 112.5 156.5t131.5 151.5q-36 61 -70.5 134.5t-55.5 132.5q-8 24 -8 34q0 13 20.5 23t37.5 10q10 0 15.5 -6t11.5 -24q43 -137 106 -255h16q103 127 182 255q11 18 18.5 24t17.5 6q20 0 38.5 -10.5t18.5 -24.5q0 -6 -5.5 -16
t-13.5 -23q-42 -63 -102 -140t-115 -137q44 -69 83.5 -150.5t60.5 -147.5q8 -27 8 -32q0 -14 -20 -24t-39 -10q-10 0 -16 6t-12 25q-37 138 -123 284h-14q-129 -147 -210 -284q-11 -19 -18.5 -25t-17.5 -6q-20 0 -39 10z" />
    <glyph glyph-name="uni0426" unicode="&#x426;" 
d="M443 -152q-9 5 -7 15q16 90 27 141q-134 -4 -392 -4q-29 0 -29 23q0 7 1 11l107 650q5 20 47 20q44 0 41 -20l-16 -95q-48 -293 -89 -512q74 3 148 3q70 0 140 -3q20 137 48.5 311t40.5 249l8 47q2 10 13 15t34 5q43 0 40 -20q-47 -287 -71 -412.5t-44 -193.5q18 2 36 2
q14 0 20.5 -5.5t6.5 -18.5q0 -7 -1 -11l-30 -182q-3 -20 -47 -20q-23 0 -32 5z" />
    <glyph glyph-name="uni0427" unicode="&#x427;" 
d="M384 13q15 93 53 292q-66 -22 -145 -22q-93 0 -141.5 43.5t-48.5 127.5q0 32 11 90.5t29 139.5q3 10 13.5 15t32.5 5q24 0 33.5 -5.5t6.5 -18.5q-13 -53 -25.5 -121t-12.5 -92q0 -105 118 -105q72 0 142 22q26 188 45 300q3 20 47 20q23 0 32.5 -5t7.5 -15l-112 -671
q-2 -10 -12.5 -15t-33.5 -5q-43 0 -40 20z" />
    <glyph glyph-name="uni0428" unicode="&#x428;" 
d="M31.5 8.5q-6.5 8.5 -3.5 25.5l108 650q3 20 43 20t37 -20q-68 -406 -105 -608q44 2 136 4q23 154 67 427q20 118 29 177q5 20 41 20q37 0 34 -20q-59 -361 -104 -604q90 -2 135 -4q35 244 96 608q3 20 43 20t37 -20l-108 -650q-3 -17 -12.5 -25.5t-27.5 -8.5h-421
q-18 0 -24.5 8.5z" />
    <glyph glyph-name="uni0429" unicode="&#x429;" 
d="M438 -137q15 85 28 141q-140 -4 -410 -4q-29 0 -29 23q0 7 1 11l108 650q3 20 43 20t37 -20q-66 -397 -105 -608q42 2 130 4q25 171 57 365.5t39 238.5q3 20 40 20q35 0 32 -20q-54 -341 -104 -604q86 -2 128 -4q37 249 89 561l8 47q5 20 44 20q41 0 36 -20
q-45 -276 -69.5 -405t-45.5 -201q14 2 32 2t24.5 -8.5t3.5 -26.5l-30 -182q-2 -10 -13 -15t-34 -5q-43 0 -40 20z" />
    <glyph glyph-name="uni042A" unicode="&#x42a;" 
d="M232 -1q-40 7 -65 18q-15 6 -19.5 14t-2.5 23l11 65q53 315 88 503q-64 -5 -122 -5q-7 0 -11 6t-4 17q0 17 7.5 37t20.5 20h166q18 0 24.5 -8.5t3.5 -25.5q-29 -159 -40 -215q32 6 64 6q104 0 156.5 -49t52.5 -145q0 -69 -25.5 -130t-82 -99.5t-145.5 -38.5q-37 0 -77 7z
M315 68q88 0 126.5 55t38.5 136q0 61 -32.5 90t-98.5 29q-42 0 -71 -7q-20 -158 -48 -289q41 -14 85 -14z" />
    <glyph glyph-name="uni042B" unicode="&#x42b;" 
d="M115 -1q-37 7 -61 18q-12 5 -17 11.5t-5 15.5q0 6 1 10l104 630q2 10 12.5 15t32.5 5q43 0 38 -20q-21 -131 -44 -236q29 6 57 6q186 0 186 -194q0 -69 -23.5 -130t-76 -99.5t-134.5 -38.5q-33 0 -70 7zM195 68q77 0 111 55t34 136q0 61 -27.5 90t-84.5 29q-38 0 -65 -7
q-20 -158 -48 -289q38 -14 80 -14zM540 684q3 20 45 20q43 0 38 -20l-111 -671q-3 -20 -44 -20q-40 0 -37 20z" />
    <glyph glyph-name="uni042C" unicode="&#x42c;" 
d="M172 -0.5q-47 7.5 -75 18.5q-15 6 -19.5 14t-2.5 23l104 629q3 20 46 20q23 0 32.5 -5t7.5 -15q-10 -68 -43 -237q39 7 87 7q119 0 179.5 -49.5t60.5 -147.5q0 -69 -29 -129t-93.5 -98t-165.5 -38q-42 0 -89 7.5zM266 68q105 0 151 54t46 135q0 62 -38.5 91.5
t-116.5 29.5q-52 0 -97 -8q-18 -140 -48 -288q49 -14 103 -14z" />
    <glyph glyph-name="uni042D" unicode="&#x42d;" 
d="M122.5 0q-44.5 11 -76.5 30q-12 7 -12 20q0 20 14.5 41t27.5 15q67 -38 140 -38q121 0 182.5 71t79.5 174q-132 -4 -262 -4q-14 0 -14 21q0 17 7 35.5t20 18.5q128 0 257 -4q1 13 1 37q0 106 -42.5 159.5t-126.5 53.5q-28 0 -55 -6t-46 -16l-24 -85q-4 -13 -10.5 -18
t-17.5 -5q-23 0 -39 8t-13 23q4 25 20 69t27 57q19 22 65.5 36.5t97.5 14.5q121 0 185.5 -72.5t64.5 -211.5q0 -109 -33.5 -207.5t-114 -163t-212.5 -64.5q-46 0 -90.5 11z" />
    <glyph glyph-name="uni042E" unicode="&#x42e;" 
d="M250 32q-32 44 -32 137q0 66 13 147h-75q-31 -222 -45 -303q-3 -20 -45 -20q-40 0 -37 20l111 671q5 20 44 20q42 0 39 -20q-13 -81 -54 -288h77q21 112 49 180t68.5 100.5t100.5 32.5q71 0 104 -43.5t33 -139.5q0 -62 -16 -164q-24 -139 -53.5 -219.5t-72.5 -117.5
t-107 -37q-70 0 -102 44zM306.5 85.5q15.5 -23.5 49.5 -23.5q38 0 64 29t46 95t40 184q18 107 18 161q0 55 -16.5 79.5t-51.5 24.5q-37 0 -63 -29t-46 -95t-39 -183q-17 -111 -17 -164q0 -55 15.5 -78.5z" />
    <glyph glyph-name="uni042F" unicode="&#x42f;" 
d="M394 13q18 109 44 239q-63 -7 -105 -7q-16 0 -46 2q-98 -105 -173 -222q-14 -21 -21.5 -28t-18.5 -7q-18 0 -40 11.5t-22 25.5q0 9 19 36q33 47 83 106t100 108q-93 68 -93 181q0 71 33 127t95.5 88t148.5 32q44 0 90.5 -6.5t75.5 -17.5q12 -5 17.5 -11t5.5 -16
q0 -6 -1 -10l-105 -631q-5 -20 -47 -20q-43 0 -40 20zM277 323q19 -2 59 -2q59 0 115 7q16 151 47 288q-40 13 -102 13q-95 0 -141 -46t-46 -121q0 -81 68 -139z" />
    <glyph glyph-name="uni0430" unicode="&#x430;" 
d="M462.5 -8q-5.5 6 -10.5 26q-21 82 -31 126h-10q-64 -79 -119.5 -117.5t-108.5 -38.5q-59 0 -91 47t-32 143q0 103 34 183t100 126t158 46q51 0 95 -13t75 -39q18 -14 18 -32q0 -8 -1 -13l-9 -48q-12 -67 -22 -111.5t-25 -92.5q28 -68 51 -134q7 -21 7 -30
q0 -13 -20.5 -23.5t-40.5 -10.5q-12 0 -17.5 6zM163 96q17 -31 48 -31q39 0 91 40.5t109 116.5q12 42 23 97t20 110q-45 32 -112 32q-94 0 -145 -75.5t-51 -193.5q0 -65 17 -96z" />
    <glyph glyph-name="uni0431" unicode="&#x431;" 
d="M70 226q0 72 18.5 159t62.5 163t115 110q62 29 156 50.5t162 23.5q12 0 17 -8.5t5 -28.5q0 -42 -22 -44q-101 -6 -176.5 -24t-116.5 -39q-87 -46 -124 -168l9 -4q84 58 180 58q94 0 143.5 -52t49.5 -152q0 -73 -30 -137.5t-89.5 -104.5t-144.5 -40q-215 0 -215 238z
M287 61q57 0 97.5 29.5t61 77t20.5 100.5q0 70 -35 106t-100 36q-86 0 -167 -55q-13 -65 -13 -127q0 -167 136 -167z" />
    <glyph glyph-name="uni0432" unicode="&#x432;" 
d="M89 199q0 85 28 160t89.5 122.5t155.5 47.5q85 0 131 -34t46 -91q0 -43 -23.5 -76t-71.5 -59l-3 -10q91 -31 91 -108q0 -79 -65.5 -118t-168.5 -39q-209 0 -209 205zM203 92.5q32 -34.5 99 -34.5q63 0 105.5 23t42.5 73q0 39 -39 59.5t-116 20.5q-47 0 -123 -4l-1 -31
q0 -72 32 -106.5zM291 289q48 0 82 -3q35 20 57.5 47.5t22.5 58.5q0 35 -27 54t-73 19q-72 0 -116 -49t-59 -130q60 3 113 3z" />
    <glyph glyph-name="uni0433" unicode="&#x433;" 
d="M126.5 22q-50.5 34 -50.5 101q0 80 57.5 120t169.5 57q54 8 82.5 15.5t47 26t18.5 53.5q0 68 -112 68q-80 0 -159 -35q-15 -6 -25.5 10t-10.5 35q0 10 5 16t16 11q76 35 174 35q92 0 141.5 -34t49.5 -102q0 -56 -26.5 -90t-74.5 -52t-125 -29q-49 -7 -79.5 -16.5t-50 -29
t-19.5 -53.5q0 -69 118 -69q87 0 179 38q13 6 23.5 -11t10.5 -36q0 -10 -5 -15.5t-16 -10.5q-41 -17 -91.5 -27t-101.5 -10q-95 0 -145.5 34z" />
    <glyph glyph-name="uni0434" unicode="&#x434;" 
d="M115 40.5q-54 52.5 -54 155.5q0 72 29 138t90.5 108.5t151.5 42.5q80 0 136 -31l4 4q-24 95 -87 145t-180 62q-12 0 -12 26q0 17 6.5 32.5t15.5 14.5q162 -10 253.5 -106.5t91.5 -277.5q0 -97 -27.5 -179t-91.5 -134.5t-168 -52.5t-158 52.5zM275 57q117 0 160 89t43 215
v29q-58 32 -140 32q-70 0 -114 -34t-63 -85.5t-19 -104.5q0 -141 133 -141z" />
    <glyph glyph-name="uni0435" unicode="&#x435;" 
d="M128 35q-47 47 -47 148q0 97 36.5 177t102 126.5t149.5 46.5q55 0 96.5 -18.5t64 -50.5t22.5 -71q0 -47 -36 -78.5t-115 -58.5t-237 -66q0 -70 28.5 -99.5t93.5 -29.5q47 0 93.5 17.5t96.5 50.5q11 7 25 -10.5t14 -33.5q0 -8 -4 -14.5t-16 -14.5q-107 -68 -218 -68
q-102 0 -149 47zM361.5 302.5q59.5 19.5 85 38.5t26.5 47q0 34 -30.5 57t-79.5 23q-80 0 -131.5 -63.5t-63.5 -158.5q134 37 193.5 56.5z" />
    <glyph glyph-name="uni0436" unicode="&#x436;" 
d="M487.5 -0.5q-4.5 4.5 -8.5 17.5q-29 115 -88 215q-16 -1 -52 -1q-11 -89 -30 -218q-2 -10 -12 -14.5t-31 -4.5t-29 4.5t-6 14.5q18 105 43 218q-37 0 -52 1q-92 -105 -154 -215q-8 -14 -14 -18t-16 -4q-20 0 -37.5 6t-17.5 16t18 38q31 50 78 113.5t93 112.5
q-24 38 -48 90t-42 99q-6 21 -6 30q0 14 17 21t35 7q11 0 16.5 -4.5t8.5 -16.5q30 -106 79 -204q15 -2 52 -2q12 116 27 208q2 10 12 14.5t31 4.5t29 -4.5t6 -14.5q-12 -74 -40 -208q36 0 51 2q80 99 142 204q6 12 13 16.5t18 4.5q20 0 36 -5.5t16 -16.5q0 -12 -17 -36
q-30 -46 -73.5 -103t-82.5 -99q29 -44 55 -102t44 -111q7 -26 5 -36q-2 -11 -19.5 -17.5t-34.5 -6.5q-10 0 -14.5 4.5z" />
    <glyph glyph-name="uni0437" unicode="&#x437;" 
d="M86 16q-15 6 -22 11t-7 13q0 19 13 39.5t24 15.5q88 -34 167 -34q71 0 122 21.5t51 63.5q0 29 -23 50t-72 34l-30 -1q-60 -2 -101 -2q-18 0 -18 23q0 20 7.5 34t22.5 14q61 0 128 -10q51 25 74 49t23 51q0 69 -119 69q-44 0 -85 -8t-72 -22q-12 -3 -21.5 12.5t-9.5 35.5
q0 18 16 25q36 14 83.5 22t93.5 8q94 0 145.5 -33t51.5 -92q0 -84 -117 -137l-2 -11q105 -32 105 -117q0 -74 -75 -112.5t-180 -38.5q-99 0 -173 27z" />
    <glyph glyph-name="uni0438" unicode="&#x438;" 
d="M220 523.5q9 -5.5 6 -18.5q-61 -221 -61 -325q0 -56 15 -81t47 -25q46 0 103 48t111 138q14 117 36 249q2 10 12.5 15t32.5 5q44 0 39 -20l-47 -286q-27 -167 -31 -209q-2 -11 -12.5 -15.5t-32.5 -4.5q-23 0 -32 4.5t-7 15.5q6 45 25 131h-9q-56 -80 -113 -118.5
t-106 -38.5q-116 0 -116 171q0 129 64 350q2 10 12 15t32 5q23 0 32 -5.5z" />
    <glyph glyph-name="uni0439" unicode="&#x439;" 
d="M220 523.5q9 -5.5 6 -18.5q-61 -221 -61 -325q0 -56 15 -81t47 -25q46 0 103 48t111 138q14 117 36 249q2 10 12.5 15t32.5 5q44 0 39 -20l-47 -286q-27 -167 -31 -209q-2 -11 -12.5 -15.5t-32.5 -4.5q-23 0 -32 4.5t-7 15.5q6 45 25 131h-9q-56 -80 -113 -118.5
t-106 -38.5q-116 0 -116 171q0 129 64 350q2 10 12 15t32 5q23 0 32 -5.5zM255.5 631.5q-38.5 40.5 -43.5 114.5q-1 10 15.5 18t32.5 8t16 -8q2 -55 23.5 -83t70.5 -28t79.5 28t52.5 83q3 8 19 8q17 0 32.5 -8t11.5 -18q-29 -74 -80.5 -114.5t-121.5 -40.5
q-69 0 -107.5 40.5z" />
    <glyph glyph-name="uni043A" unicode="&#x43a;" 
d="M425 -3q-5 4 -11 17q-65 118 -172 217q-33 -5 -62 -8q-16 -147 -27 -210q-3 -20 -45 -20q-23 0 -32 5t-7 15l82 495q2 11 12.5 15.5t32.5 4.5q23 0 32 -4.5t7 -15.5q-8 -60 -42 -208q42 4 62 8q107 86 210 201q11 12 17.5 16t14.5 4q23 0 44 -8t21 -19q0 -7 -18 -28
q-46 -49 -107.5 -105.5t-120.5 -102.5q53 -46 101 -105.5t78 -112.5q9 -16 9 -25q0 -11 -22.5 -20.5t-42.5 -9.5q-9 0 -14 4z" />
    <glyph glyph-name="uni043B" unicode="&#x43b;" 
d="M9 12.5q-15 19.5 -15 34.5q0 12 14 20q59 35 96 84.5t61 129.5t42 210q3 17 11 24t25 7h291q17 0 23 -7t3 -24l-79 -478q-5 -20 -46 -20q-43 0 -38 20q40 253 76 436q-68 -4 -100 -4q-31 0 -97 4q-23 -174 -72.5 -285t-146.5 -165q-12 -6 -17 -6q-16 0 -31 19.5z" />
    <glyph glyph-name="uni043C" unicode="&#x43c;" 
d="M17 14q19 114 47 245t59 241q5 17 18.5 23.5t45.5 6.5q28 0 39.5 -6.5t15.5 -24.5q40 -142 53 -270h14q61 137 143 270q8 17 22.5 24t44.5 7q32 0 45 -6.5t12 -23.5q-6 -109 -20.5 -240t-33.5 -246q-2 -11 -12 -16t-31 -5q-40 0 -35 20q46 264 57 439h-12
q-77 -123 -144 -266q-6 -15 -17 -21.5t-35 -6.5t-33 6.5t-10 21.5q-19 138 -56 266h-12q-49 -182 -88 -439q-3 -20 -42 -20t-35 21z" />
    <glyph glyph-name="uni043D" unicode="&#x43d;" 
d="M64 -2q-9 5 -7 15l82 496q2 10 13 15t33 5q43 0 38 -20q-12 -87 -39 -210q59 4 133 4q75 0 131 -4q16 120 31 210q2 10 12 15t33 5q42 0 39 -20l-82 -496q-5 -20 -46 -20q-43 0 -38 20q6 51 40 217q-64 -3 -133 -3q-66 0 -131 3q-12 -87 -28 -190l-4 -27q-2 -10 -12 -15
t-33 -5t-32 5z" />
    <glyph glyph-name="uni043E" unicode="&#x43e;" 
d="M122 47q-53 59 -53 174q0 89 32.5 160t94.5 112t148 41q103 0 155.5 -59t52.5 -174q0 -89 -32.5 -160t-94.5 -112t-148 -41q-102 0 -155 59zM184 100q32 -39 99 -39q92 0 139.5 68.5t47.5 172.5q0 81 -32 120t-99 39q-92 0 -139.5 -68t-47.5 -172q0 -82 32 -121z" />
    <glyph glyph-name="uni043F" unicode="&#x43f;" 
d="M400 -1.5q-9 5.5 -6 18.5q61 221 61 325q0 56 -15 81t-47 25q-46 0 -103 -48t-111 -138q-14 -117 -36 -249q-2 -10 -12.5 -15t-32.5 -5q-44 0 -39 20l47 286q27 167 31 209q2 11 12.5 15.5t32.5 4.5q23 0 32 -4.5t7 -15.5q-6 -45 -25 -131h9q56 80 113 118.5t106 38.5
q116 0 116 -171q0 -129 -64 -350q-2 -10 -12 -15t-32 -5q-23 0 -32 5.5z" />
    <glyph glyph-name="uni0440" unicode="&#x440;" 
d="M144 15q-13 -99 -31 -195q-2 -10 -12.5 -15t-33.5 -5q-37 0 -37 17l10 60l29 167l41 244q19 110 30 194l4 29q2 11 12.5 16t33.5 5q22 0 31 -5t7 -16q-4 -26 -12.5 -68t-14.5 -65h11q61 79 115 117.5t106 38.5q59 0 91 -47t32 -143q0 -103 -33 -183t-97 -126t-154 -46
q-68 0 -128 26zM274 61q94 0 145 75.5t51 193.5q0 65 -17.5 96t-48.5 31q-41 0 -96.5 -46.5t-118.5 -137.5q-12 -88 -32 -184q55 -28 117 -28z" />
    <glyph glyph-name="uni0441" unicode="&#x441;" 
d="M129.5 32.5q-45.5 44.5 -45.5 143.5q0 90 30.5 171.5t96 134t164.5 52.5q53 0 92.5 -12t56.5 -31q9 -9 13 -44t4 -66q0 -14 -14 -21.5t-36 -7.5q-31 0 -31 18l1 69q-15 9 -40 14.5t-53 5.5q-73 0 -118 -44.5t-63.5 -106t-18.5 -118.5q0 -68 25.5 -96.5t77.5 -28.5
q45 0 93 21.5t102 62.5q5 4 11 4q14 0 26.5 -18t12.5 -33q0 -10 -14 -20q-54 -43 -117 -68.5t-123 -25.5q-87 0 -132.5 44.5z" />
    <glyph glyph-name="uni0442" unicode="&#x442;" 
d="M24 13l53 317q20 122 26 180q1 10 10.5 14t29.5 4q18 0 26 -3.5t8 -11.5q0 -7 -9 -50q-5 -19 -8 -36h9q61 107 133 107q32 0 48 -24.5t17 -76.5h10q30 50 63.5 75.5t67.5 25.5q72 0 72 -104q0 -55 -23 -185.5t-48 -231.5q-5 -20 -41 -20q-39 0 -34 20q21 84 43 205
t22 175q0 36 -6.5 50t-21.5 14q-22 0 -51.5 -27.5t-61.5 -80.5q-11 -76 -29 -174.5t-33 -161.5q-2 -10 -10 -15t-25 -5q-34 0 -29 20q20 83 41.5 205.5t21.5 174.5q0 35 -7 49.5t-22 14.5q-48 0 -115 -116q-14 -92 -41 -267l-10 -61q-3 -20 -41 -20t-35 20z" />
    <glyph glyph-name="uni0443" unicode="&#x443;" 
d="M46 -184.5q-13 19.5 -13 39.5q0 8 5.5 13t20.5 13q108 58 199 130l-2 9h-3q-10 0 -16.5 7t-14.5 25q-37 91 -72.5 210t-49.5 204q-5 26 -5 41q0 11 20 18.5t40 7.5q14 0 19 -7.5t7 -28.5q13 -93 46.5 -211.5t76.5 -227.5h11q160 160 160 317q0 22 -5.5 56t-12.5 71
q-3 14 11.5 22.5t39.5 8.5q16 0 23.5 -5.5t9.5 -17.5q13 -56 13 -119q-1 -156 -117 -303.5t-333 -278.5q-22 -13 -33 -13q-12 0 -25 19.5z" />
    <glyph glyph-name="uni0444" unicode="&#x444;" 
d="M195 -180q14 83 34 171q-92 11 -139.5 69t-47.5 161q0 84 32.5 152t95 110t148.5 49q7 59 15 112t10 69q2 10 13 15t33 5q41 0 38 -20q-15 -89 -36 -182q93 -11 140.5 -69t47.5 -161q0 -83 -32.5 -151.5t-95 -111t-149.5 -48.5q-7 -63 -24 -170q-2 -10 -12 -15t-33 -5
q-41 0 -38 20zM150 108q30 -40 93 -48q29 213 68 402q-94 -10 -142.5 -77t-48.5 -163q0 -74 30 -114zM453 136q49 67 49 164q0 74 -31.5 114.5t-95.5 47.5q-23 -190 -67 -403q96 10 145 77z" />
    <glyph glyph-name="uni0445" unicode="&#x445;" 
d="M437.5 -2.5q-4.5 4.5 -9.5 18.5q-39 100 -116 208h-16q-105 -109 -173 -208q-9 -13 -15.5 -18t-16.5 -5q-21 0 -40.5 8.5t-19.5 20.5q0 9 17 30q41 55 97.5 118t110.5 109q-34 45 -66 98.5t-53 96.5q-9 19 -9 26q0 12 22 21t39 9q10 0 15.5 -4.5t9.5 -17.5
q41 -99 98 -186h16q77 83 149 186q9 13 15.5 17.5t15.5 4.5q21 0 41 -9t20 -21q0 -4 -5 -12t-13 -18q-33 -43 -84 -99.5t-98 -103.5q40 -50 77.5 -110t58.5 -109q7 -17 7 -25q0 -13 -20.5 -21.5t-39.5 -8.5q-10 0 -14.5 4.5z" />
    <glyph glyph-name="uni0446" unicode="&#x446;" 
d="M80 159q0 129 64 350q2 10 12 15t32 5q23 0 32 -5.5t6 -18.5q-61 -221 -61 -325q0 -56 15 -81t47 -25q46 0 103 48t111 138q14 117 36 249q2 10 12.5 15t32.5 5q44 0 39 -20q-32 -192 -49.5 -286t-32.5 -146q21 3 46 3q16 0 22.5 -8.5t3.5 -26.5l-30 -182q-2 -10 -13 -15
t-33 -5q-43 0 -38 20q1 7 7.5 43.5t18.5 93.5h-34q-18 0 -24.5 4.5t-4.5 14.5q8 53 24 126h-9q-56 -80 -113 -118.5t-106 -38.5q-116 0 -116 171z" />
    <glyph glyph-name="uni0447" unicode="&#x447;" 
d="M385 12q17 104 52 274h-9q-58 -58 -117.5 -86.5t-110.5 -28.5q-117 0 -117 144q0 67 33 194q3 10 13 15t31 5q23 0 32.5 -5.5t5.5 -18.5q-30 -120 -30 -169q0 -42 15 -60.5t47 -18.5q46 0 103.5 29.5t114.5 85.5q5 44 20 137q3 20 46 20q41 0 38 -20l-83 -497
q-3 -18 -44 -18q-43 0 -40 18z" />
    <glyph glyph-name="uni0448" unicode="&#x448;" 
d="M596 509l-53 -317q-20 -122 -26 -180q-1 -10 -10.5 -14t-29.5 -4q-18 0 -26 3.5t-8 11.5q0 7 9 50q5 19 8 36h-9q-61 -107 -133 -107q-32 0 -48 24.5t-17 76.5h-10q-30 -50 -63.5 -75.5t-67.5 -25.5q-72 0 -72 104q0 55 23 185.5t48 231.5q5 20 41 20q39 0 34 -20
q-21 -84 -43 -205t-22 -175q0 -36 6.5 -50t21.5 -14q22 0 51.5 27.5t61.5 80.5q11 76 29 174.5t33 161.5q2 10 10 15t25 5q34 0 29 -20q-20 -83 -41.5 -205.5t-21.5 -174.5q0 -35 7 -49.5t22 -14.5q48 0 115 116q14 92 41 267l10 61q3 20 41 20t35 -20z" />
    <glyph glyph-name="uni0449" unicode="&#x449;" 
d="M26 92q0 55 23 185.5t48 231.5q5 20 41 20q39 0 34 -20q-21 -84 -43 -205t-22 -175q0 -36 6.5 -50t21.5 -14q22 0 51.5 27.5t61.5 80.5q11 76 29 174.5t33 161.5q2 10 10 15t25 5q34 0 29 -20q-20 -83 -41.5 -205.5t-21.5 -174.5q0 -35 7 -49.5t22 -14.5q48 0 115 116
q14 92 41 267l10 61q3 20 41 20t35 -20q-32 -193 -50 -286t-33 -146q14 3 29 3q17 0 23.5 -8.5t3.5 -26.5l-30 -182q-2 -10 -13 -15t-33 -5q-39 0 -39 16q0 18 27 141h-7q-18 0 -24.5 4.5t-4.5 14.5q1 10 11 55l4 21h-9q-61 -107 -133 -107q-32 0 -48 24.5t-17 76.5h-10
q-30 -50 -63.5 -75.5t-67.5 -25.5q-72 0 -72 104z" />
    <glyph glyph-name="uni044A" unicode="&#x44a;" 
d="M204 25.5q-41 31.5 -41 87.5q0 73 54 338q-68 -5 -129 -5q-14 0 -14 20q0 4 2 18q5 38 25 38h176q17 0 23 -7t4 -24q-18 -92 -28 -134q43 13 89 13q89 0 136 -42.5t47 -122.5q0 -100 -61 -155.5t-161 -55.5q-81 0 -122 31.5zM266.5 79.5q19.5 -16.5 60.5 -16.5
q63 0 100.5 36t37.5 105q0 97 -111 97q-41 0 -89 -15q-7 -48 -12.5 -90t-5.5 -67q0 -33 19.5 -49.5z" />
    <glyph glyph-name="uni044B" unicode="&#x44b;" 
d="M91 23.5q-37 29.5 -37 81.5q0 42 14 127l46 276q2 11 12 15.5t31 4.5q22 0 30 -4.5t6 -15.5q-8 -59 -28 -151q38 13 79 13q75 0 115 -41.5t40 -119.5q0 -103 -54 -159t-143 -56q-74 0 -111 29.5zM150 78.5q18 -15.5 57 -15.5q54 0 86 36.5t32 105.5q0 48 -23.5 72
t-67.5 24q-38 0 -83 -15q-8 -50 -13.5 -93t-5.5 -68q0 -31 18 -46.5zM508 508q2 11 12 15.5t31 4.5q22 0 30 -4.5t6 -15.5l-82 -495q-3 -20 -41 -20q-40 0 -35 20z" />
    <glyph glyph-name="uni044C" unicode="&#x44c;" 
d="M137.5 31q-49.5 37 -49.5 103q0 40 14 132l40 242q2 11 12.5 15.5t32.5 4.5q23 0 32 -4.5t7 -15.5q-11 -64 -30 -155q61 17 128 17q102 0 156.5 -44t54.5 -127q0 -97 -69 -151t-181 -54q-98 0 -147.5 37zM198.5 84q28.5 -21 88.5 -21q76 0 120.5 34.5t44.5 100.5
q0 103 -141 103q-58 0 -126 -18l-4 -31q-1 -7 -6 -44.5t-5 -60.5q0 -42 28.5 -63z" />
    <glyph glyph-name="uni044D" unicode="&#x44d;" 
d="M468.5 483q50.5 -51 50.5 -164q0 -83 -29.5 -158.5t-93.5 -124t-161 -48.5q-92 0 -160 38q-8 5 -10 9t-2 11q0 18 14 37t26 12q68 -34 133 -34q83 0 128.5 50.5t62.5 124.5q-124 -4 -235 -4q-8 0 -11 4t-3 14q0 47 25 47q111 0 233 -4q1 9 1 26q0 76 -32 109t-98 33
q-36 0 -71.5 -9.5t-78.5 -28.5q-14 -6 -25.5 10t-11.5 36q0 18 19 26q38 18 85.5 28.5t91.5 10.5q102 0 152.5 -51z" />
    <glyph glyph-name="uni044E" unicode="&#x44e;" 
d="M32.5 -2q-8.5 5 -6.5 15l83 497q2 10 11.5 15t30.5 5q40 0 37 -20q-22 -123 -42 -210h71q23 118 74 175.5t132 57.5q148 0 148 -181q0 -45 -9 -104q-44 -260 -211 -260q-149 0 -149 179q0 18 4 66h-71q-12 -113 -30 -220q-3 -20 -43 -20q-21 0 -29.5 5zM291 84
q20 -27 61 -27q52 0 84 49t50 155q9 54 9 92q0 57 -20 84t-61 27q-52 0 -84 -49t-50 -155q-9 -54 -9 -93q0 -56 20 -83z" />
    <glyph glyph-name="uni044F" unicode="&#x44f;" 
d="M403 -2q-9 5 -7 15q14 86 32 166q-56 -5 -129 -5q-36 0 -54 1q-74 -76 -135 -153q-14 -19 -20 -24t-16 -5q-19 0 -39.5 11.5t-20.5 23.5q0 4 4 10.5t12 16.5q27 33 68 75t83 80q-79 50 -79 133q0 89 65.5 137.5t176.5 48.5q110 0 189 -22q16 -5 21.5 -12t3.5 -18
l-78 -464q-2 -10 -12 -15t-33 -5t-32 5zM242 244q24 -1 71 -1q67 0 126 4q9 98 33 198q-52 13 -131 13q-72 0 -114 -29t-42 -84q0 -59 57 -101z" />
    <glyph glyph-name="uni0451" unicode="&#x451;" 
d="M128 35q-47 47 -47 148q0 97 36.5 177t102 126.5t149.5 46.5q55 0 96.5 -18.5t64 -50.5t22.5 -71q0 -47 -36 -78.5t-115 -58.5t-237 -66q0 -70 28.5 -99.5t93.5 -29.5q47 0 93.5 17.5t96.5 50.5q11 7 25 -10.5t14 -33.5q0 -8 -4 -14.5t-16 -14.5q-107 -68 -218 -68
q-102 0 -149 47zM361.5 302.5q59.5 19.5 85 38.5t26.5 47q0 34 -30.5 57t-79.5 23q-80 0 -131.5 -63.5t-63.5 -158.5q134 37 193.5 56.5zM215 642.5q-13 8.5 -13 27.5q0 9 1 14q4 27 20.5 38.5t51.5 11.5q30 0 43 -8.5t13 -28.5q0 -8 -1 -13q-5 -27 -21 -38.5t-51 -11.5
q-30 0 -43 8.5zM454.5 722.5q16.5 11.5 51.5 11.5q30 0 43 -8.5t13 -28.5q0 -8 -1 -13q-5 -27 -21 -38.5t-51 -11.5q-30 0 -43 8.5t-13 27.5q0 9 1 14q4 27 20.5 38.5z" />
    <glyph glyph-name="uni045E" unicode="&#x45e;" 
d="M46 -184.5q-13 19.5 -13 39.5q0 8 5.5 13t20.5 13q108 58 199 130l-2 9h-3q-10 0 -16.5 7t-14.5 25q-37 91 -72.5 210t-49.5 204q-5 26 -5 41q0 11 20 18.5t40 7.5q14 0 19 -7.5t7 -28.5q13 -93 46.5 -211.5t76.5 -227.5h11q160 160 160 317q0 22 -5.5 56t-12.5 71
q-3 14 11.5 22.5t39.5 8.5q16 0 23.5 -5.5t9.5 -17.5q13 -56 13 -119q-1 -156 -117 -303.5t-333 -278.5q-22 -13 -33 -13q-12 0 -25 19.5zM257.5 631.5q-38.5 40.5 -43.5 114.5q-1 10 15.5 18t32.5 8t16 -8q2 -55 23.5 -83t70.5 -28t79.5 28t52.5 83q3 8 19 8q17 0 32.5 -8
t11.5 -18q-29 -74 -80.5 -114.5t-121.5 -40.5q-69 0 -107.5 40.5z" />
    <glyph glyph-name="uni0490" unicode="&#x490;" 
d="M89 13l67 406q16 99 26.5 135.5t24.5 55.5l1 12l-38 -2q-14 0 -14 22q0 17 7 36t20 19q228 0 346 -4q8 80 16 120q3 20 47 20q43 0 40 -20l-27 -161q-3 -18 -12.5 -26.5t-27.5 -8.5q-140 0 -293 5q-35 -243 -97 -609q-3 -20 -47 -20q-42 0 -39 20z" />
    <glyph glyph-name="Wgrave" unicode="&#x1e80;" 
d="M104 2q-10 8 -11 35q-10 117 -10 262q0 110 5 214.5t14 172.5q3 19 44 19q21 0 30 -5t8 -18q-29 -229 -29 -481q0 -87 2 -129h12q70 134 122 285q9 96 15 132q4 23 45 23q21 0 30 -5.5t7 -17.5q-7 -35 -29 -132q3 -148 27 -285h12q112 304 177 610q3 13 14 18t32 5
q42 0 39 -19q-25 -123 -89.5 -322.5t-118.5 -326.5q-10 -27 -22.5 -35t-39.5 -8t-36.5 7t-12.5 28q-21 137 -19 271h-10q-48 -150 -108 -271q-10 -21 -22.5 -28t-40.5 -7q-27 0 -37 8zM306 914q-2 3 -2 7q0 14 21.5 30.5t38.5 16.5q9 0 14 -5l141 -150q4 -5 5.5 -8t1.5 -6
q0 -11 -14.5 -23.5t-26.5 -12.5q-6 0 -9 3l-161 140q-7 5 -9 8z" />
    <glyph glyph-name="wgrave" unicode="&#x1e81;" 
d="M104 2q-10 8 -11 35q-13 101 -13 241q0 90 7 193l5 39q1 19 42 19q21 0 29 -5t7 -18q-17 -150 -17 -295q0 -80 4 -141h12q62 97 109 212q6 68 12 98q3 25 43 25q39 0 35 -25q-5 -35 -22 -98q10 -115 40 -212h12q86 220 132 436q2 13 12.5 18t31.5 5q37 0 37 -16
q0 -7 -8 -42q-27 -105 -67.5 -224t-82.5 -210q-11 -27 -23 -35t-39 -8q-28 0 -37 6.5t-13 28.5q-25 97 -30 199h-11q-37 -99 -95 -199q-11 -21 -23.5 -28t-40.5 -7q-27 0 -37 8zM257 739q-2 3 -2 7q0 14 19.5 30.5t35.5 16.5q7 0 12 -5l128 -150q4 -5 5.5 -8t1.5 -6
q0 -11 -13.5 -23.5t-24.5 -12.5q-5 0 -8 3l-146 140q-6 5 -8 8z" />
    <glyph glyph-name="Wacute" unicode="&#x1e82;" 
d="M104 2q-10 8 -11 35q-10 117 -10 262q0 110 5 214.5t14 172.5q3 19 44 19q21 0 30 -5t8 -18q-29 -229 -29 -481q0 -87 2 -129h12q70 134 122 285q9 96 15 132q4 23 45 23q21 0 30 -5.5t7 -17.5q-7 -35 -29 -132q3 -148 27 -285h12q112 304 177 610q3 13 14 18t32 5
q42 0 39 -19q-25 -123 -89.5 -322.5t-118.5 -326.5q-10 -27 -22.5 -35t-39.5 -8t-36.5 7t-12.5 28q-21 137 -19 271h-10q-48 -150 -108 -271q-10 -21 -22.5 -28t-40.5 -7q-27 0 -37 8zM321 763q-13 0 -26.5 14t-13.5 24q0 4 4 8.5t12 10.5l186 143q5 4 14 4q17 0 36 -16
t19 -31q0 -10 -18 -21l-203 -133q-4 -3 -10 -3z" />
    <glyph glyph-name="wacute" unicode="&#x1e83;" 
d="M104 2q-10 8 -11 35q-13 101 -13 241q0 90 7 193l5 39q1 19 42 19q21 0 29 -5t7 -18q-17 -150 -17 -295q0 -80 4 -141h12q62 97 109 212q6 68 12 98q3 25 43 25q39 0 35 -25q-5 -35 -22 -98q10 -115 40 -212h12q86 220 132 436q2 13 12.5 18t31.5 5q37 0 37 -16
q0 -7 -8 -42q-27 -105 -67.5 -224t-82.5 -210q-11 -27 -23 -35t-39 -8q-28 0 -37 6.5t-13 28.5q-25 97 -30 199h-11q-37 -99 -95 -199q-11 -21 -23.5 -28t-40.5 -7q-27 0 -37 8zM318 588q-12 0 -24 13.5t-12 24.5q0 6 14 19l169 143q5 4 13 4q16 0 33 -16t17 -31
q0 -10 -16 -21l-185 -133q-4 -3 -9 -3z" />
    <glyph glyph-name="Wdieresis" unicode="&#x1e84;" 
d="M104 2q-10 8 -11 35q-10 117 -10 262q0 110 5 214.5t14 172.5q3 19 44 19q21 0 30 -5t8 -18q-29 -229 -29 -481q0 -87 2 -129h12q70 134 122 285q9 96 15 132q4 23 45 23q21 0 30 -5.5t7 -17.5q-7 -35 -29 -132q3 -148 27 -285h12q112 304 177 610q3 13 14 18t32 5
q42 0 39 -19q-25 -123 -89.5 -322.5t-118.5 -326.5q-10 -27 -22.5 -35t-39.5 -8t-36.5 7t-12.5 28q-21 137 -19 271h-10q-48 -150 -108 -271q-10 -21 -22.5 -28t-40.5 -7q-27 0 -37 8zM225 797.5q-14 8.5 -14 27.5q0 9 1 14q5 27 23 38.5t56 11.5t51.5 -11.5t9.5 -38.5
q-5 -27 -23 -38.5t-56 -11.5q-34 0 -48 8.5zM489 877.5q18 11.5 57 11.5q33 0 47 -8.5t14 -28.5q0 -8 -1 -13q-5 -27 -23 -38.5t-56 -11.5q-34 0 -48 8.5t-14 27.5q0 9 1 14q5 27 23 38.5z" />
    <glyph glyph-name="wdieresis" unicode="&#x1e85;" 
d="M104 2q-10 8 -11 35q-13 101 -13 241q0 90 7 193l5 39q1 19 42 19q21 0 29 -5t7 -18q-17 -150 -17 -295q0 -80 4 -141h12q62 97 109 212q6 68 12 98q3 25 43 25q39 0 35 -25q-5 -35 -22 -98q10 -115 40 -212h12q86 220 132 436q2 13 12.5 18t31.5 5q37 0 37 -16
q0 -7 -8 -42q-27 -105 -67.5 -224t-82.5 -210q-11 -27 -23 -35t-39 -8q-28 0 -37 6.5t-13 28.5q-25 97 -30 199h-11q-37 -99 -95 -199q-11 -21 -23.5 -28t-40.5 -7q-27 0 -37 8zM214 642.5q-13 8.5 -13 27.5q0 9 1 14q4 27 20.5 38.5t51.5 11.5q30 0 43 -8.5t13 -28.5
q0 -8 -1 -13q-5 -27 -21 -38.5t-51 -11.5q-30 0 -43 8.5zM453.5 722.5q16.5 11.5 51.5 11.5q30 0 43 -8.5t13 -28.5q0 -8 -1 -13q-5 -27 -21 -38.5t-51 -11.5q-30 0 -43 8.5t-13 27.5q0 9 1 14q4 27 20.5 38.5z" />
    <glyph glyph-name="ygrave" unicode="&#x1ef3;" 
d="M46 -184.5q-13 19.5 -13 39.5q0 8 5.5 13t20.5 13q108 58 199 130l-2 9h-3q-10 0 -16.5 7t-14.5 25q-37 91 -72.5 210t-49.5 204q-5 26 -5 41q0 11 20 18.5t40 7.5q14 0 19 -7.5t7 -28.5q13 -93 46.5 -211.5t76.5 -227.5h11q160 160 160 317q0 22 -5.5 56t-12.5 71
q-3 14 11.5 22.5t39.5 8.5q16 0 23.5 -5.5t9.5 -17.5q13 -56 13 -119q-1 -156 -117 -303.5t-333 -278.5q-22 -13 -33 -13q-12 0 -25 19.5zM257 739q-2 3 -2 7q0 14 19.5 30.5t35.5 16.5q7 0 12 -5l128 -150q4 -5 5.5 -8t1.5 -6q0 -11 -13.5 -23.5t-24.5 -12.5q-5 0 -8 3
l-146 140q-6 5 -8 8z" />
    <glyph glyph-name="endash" unicode="&#x2013;" 
d="M64 313q0 16 7.5 34t20.5 18h471q16 0 16 -20q0 -16 -7.5 -34t-20.5 -18h-471q-16 0 -16 20z" />
    <glyph glyph-name="glyph31" 
d="M53 40q-16 16 -16 28q0 15 15.5 33.5t28.5 18.5q6 0 10 -4q23 -25 48.5 -36.5t63.5 -11.5q68 0 109 33t64 117q17 65 36 182.5t31 221.5q-120 -5 -216 -5q-7 0 -11 6t-4 17q0 17 7.5 37t20.5 20h264q18 0 25 -8.5t5 -25.5q-40 -333 -80 -475q-31 -104 -93 -152t-160 -48
q-99 0 -148 52zM321 763q-13 0 -26.5 14t-13.5 24q0 4 4 8.5t12 10.5l186 143q5 4 14 4q17 0 36 -16t19 -31q0 -10 -18 -21l-203 -133q-4 -3 -10 -3z" />
    <glyph glyph-name="Scedilla.locl" 
d="M85 18q-15 7 -21 13t-6 15q0 14 6.5 28t16 22t17.5 4q76 -38 165 -38q80 0 128 34t48 96q0 43 -28.5 67t-97.5 44q-57 17 -94.5 37t-61 58t-23.5 99q0 98 65 156t182 58q57 0 107.5 -13.5t62.5 -29.5q10 -11 10 -60q0 -24 -4 -52q-4 -26 -50 -26q-17 0 -23.5 4.5
t-5.5 13.5q4 40 2 68q-47 20 -104 20q-81 0 -119.5 -37t-38.5 -94q0 -53 31 -78t96 -43q93 -26 135.5 -69t42.5 -118q0 -63 -32.5 -111t-92.5 -74t-140 -26q-94 0 -173 32zM139 -212.5q-10 11.5 -10 23.5q0 8 7 14l107 93q23 19 37 19q19 0 33 -18.5t14 -33.5
q0 -7 -5.5 -12.5t-23.5 -15.5l-111 -72q-15 -9 -28 -9q-10 0 -20 11.5z" />
    <glyph glyph-name="i.locl" 
d="M237.5 19.5q-28.5 31.5 -28.5 94.5q0 52 17 147t41 185q-86 -4 -156 -4q-14 0 -14 21q0 17 7 36t20 19h206q17 0 23 -7t4 -24q-27 -111 -43.5 -205t-16.5 -142q0 -38 11 -55t36 -17q64 0 143 75q5 3 9 3q12 0 23.5 -16t11.5 -29q0 -8 -3 -13t-11 -13q-43 -40 -94 -63.5
t-102 -23.5q-55 0 -83.5 31.5zM292.5 661.5q-16.5 10.5 -16.5 33.5q0 10 1 16q5 32 25.5 45.5t63.5 13.5q37 0 53.5 -10.5t16.5 -33.5q0 -10 -1 -15q-5 -32 -25.5 -46t-63.5 -14q-37 0 -53.5 10.5z" />
    <glyph glyph-name="glyph107" 
d="M32.5 -191.5q-6.5 12.5 -6.5 32.5q0 32 20 33q81 10 132 29.5t81.5 55.5t47.5 96q23 81 41.5 189.5t28.5 201.5q-125 -4 -233 -4q-14 0 -14 22q0 10 1 16q7 38 26 38h280q16 0 22 -5t6 -18q-1 -49 -26 -205t-53 -261q-21 -77 -63.5 -124.5t-108 -72.5t-162.5 -35
q-13 -1 -19.5 11.5z" />
    <glyph glyph-name="glyph108" 
d="M32.5 -191.5q-6.5 12.5 -6.5 32.5q0 32 20 33q81 10 132 29.5t81.5 55.5t47.5 96q23 81 41.5 189.5t28.5 201.5q-125 -4 -233 -4q-14 0 -14 22q0 10 1 16q7 38 26 38h280q16 0 22 -5t6 -18q-1 -49 -26 -205t-53 -261q-21 -77 -63.5 -124.5t-108 -72.5t-162.5 -35
q-13 -1 -19.5 11.5zM357 588q-12 0 -24 13.5t-12 24.5q0 6 14 19l169 143q5 4 13 4q16 0 33 -16t17 -31q0 -10 -16 -21l-185 -133q-4 -3 -9 -3z" />
    <glyph glyph-name="scedilla.locl" 
d="M178 -2.5q-49 9.5 -87 26.5q-7 4 -10 8.5t-3 11.5q0 18 11.5 37t24.5 14q77 -37 170 -37q65 0 102 20.5t37 63.5q0 33 -25.5 52t-91.5 32q-57 12 -92 24.5t-59 40.5t-24 76q0 82 60.5 125t159.5 43q101 0 170 -34q8 -4 10.5 -8.5t2.5 -11.5q0 -19 -11.5 -37t-25.5 -12
q-74 33 -149 33q-63 0 -99.5 -22t-36.5 -65q0 -25 14.5 -39.5t37.5 -21.5t68 -17q91 -19 132 -52t41 -96q0 -81 -62 -122.5t-163 -41.5q-53 0 -102 9.5zM140 -212.5q-10 11.5 -10 23.5q0 8 7 14l107 93q23 19 37 19q19 0 33 -18.5t14 -33.5q0 -7 -5.5 -12.5t-23.5 -15.5
l-111 -72q-15 -9 -28 -9q-10 0 -20 11.5z" />
    <glyph glyph-name="glyph243" 
d="M257.5 631.5q-38.5 40.5 -43.5 114.5q-1 10 15.5 18t32.5 8t16 -8q2 -55 23.5 -83t70.5 -28t79.5 28t52.5 83q3 8 19 8q17 0 32.5 -8t11.5 -18q-29 -74 -80.5 -114.5t-121.5 -40.5q-69 0 -107.5 40.5z" />
    <glyph glyph-name="glyph244" 
d="M214 642.5q-13 8.5 -13 27.5q0 9 1 14q4 27 20.5 38.5t51.5 11.5q30 0 43 -8.5t13 -28.5q0 -8 -1 -13q-5 -27 -21 -38.5t-51 -11.5q-30 0 -43 8.5zM453.5 722.5q16.5 11.5 51.5 11.5q30 0 43 -8.5t13 -28.5q0 -8 -1 -13q-5 -27 -21 -38.5t-51 -11.5q-30 0 -43 8.5
t-13 27.5q0 9 1 14q4 27 20.5 38.5z" />
    <glyph glyph-name="glyph245" 
d="M281 739q-2 3 -2 7q0 14 19.5 30.5t35.5 16.5q7 0 12 -5l128 -150q4 -5 5.5 -8t1.5 -6q0 -11 -13.5 -23.5t-24.5 -12.5q-5 0 -8 3l-146 140q-6 5 -8 8z" />
    <glyph glyph-name="glyph246" 
d="M294 588q-12 0 -24 13.5t-12 24.5q0 6 14 19l169 143q5 4 13 4q16 0 33 -16t17 -31q0 -10 -16 -21l-185 -133q-4 -3 -9 -3z" />
    <glyph glyph-name="glyph247" 
d="M545 615q0 -9 -13.5 -18.5t-25.5 -9.5q-6 0 -11 5l-105 131l-150 -131q-4 -4 -11 -4q-11 0 -23.5 11.5t-12.5 21.5q0 3 4.5 8t7.5 8l145 140q16 16 45 16t41 -16l102 -148q7 -10 7 -14z" />
    <glyph glyph-name="glyph248" 
d="M218 766q0 9 13.5 18t25.5 9q6 0 11 -5l105 -131l150 131q4 4 11 4q12 0 24 -10.5t12 -21.5q0 -4 -5 -9l-7 -7l-145 -141q-16 -16 -45 -16t-41 16l-102 148q-7 11 -7 15z" />
    <glyph glyph-name="glyph249" 
d="M259.5 631q-38.5 40 -45.5 110q-1 11 15.5 20.5t31.5 9.5q12 0 13 -7q6 -52 29 -79t69 -27t79 27t57 79q3 7 16 7q16 0 32 -9.5t12 -20.5q-32 -70 -84 -110t-119 -40t-105.5 40z" />
    <glyph glyph-name="glyph250" 
d="M294.5 624q-37.5 37 -37.5 92t37.5 92t93.5 37t93.5 -37t37.5 -92t-37.5 -92t-93.5 -37t-93.5 37zM329.5 659q23.5 -23 58.5 -23t58.5 23t23.5 57t-23.5 57t-58.5 23t-58.5 -23t-23.5 -57t23.5 -57z" />
    <glyph glyph-name="glyph251" 
d="M406.5 629.5q-21.5 18.5 -45.5 52.5q-17 25 -30 37t-31 12q-24 0 -43.5 -28.5t-34.5 -80.5q-2 -7 -10.5 -10.5t-20.5 -3.5q-15 0 -25 5t-8 14q18 81 56 126.5t89 45.5q36 0 58 -18.5t47 -53.5q17 -25 30 -37t30 -12q47 0 79 109q2 7 11 11t20 4q15 0 25 -5.5t9 -14.5
q-20 -82 -58 -126.5t-90 -44.5q-36 0 -57.5 18.5z" />
    <glyph glyph-name="glyph252" 
d="M207.5 661q-3.5 7 -3.5 17q0 14 7 30.5t18 16.5h316q7 0 11 -6.5t4 -17.5q0 -15 -7 -31t-20 -16h-316q-6 0 -9.5 7z" />
    <glyph glyph-name="glyph253" 
d="M152 -212.5q-10 11.5 -10 23.5q0 8 7 14l107 93q23 19 37 19q19 0 33 -18.5t14 -33.5q0 -7 -5.5 -12.5t-23.5 -15.5l-111 -72q-15 -9 -28 -9q-10 0 -20 11.5z" />
    <glyph glyph-name="glyph254" 
d="M224 797.5q-14 8.5 -14 27.5q0 9 1 14q5 27 23 38.5t56 11.5t51.5 -11.5t9.5 -38.5q-5 -27 -23 -38.5t-56 -11.5q-34 0 -48 8.5zM488 877.5q18 11.5 57 11.5q33 0 47 -8.5t14 -28.5q0 -8 -1 -13q-5 -27 -23 -38.5t-56 -11.5q-34 0 -48 8.5t-14 27.5q0 9 1 14
q5 27 23 38.5z" />
    <glyph glyph-name="glyph255" 
d="M349 797.5q-15 8.5 -15 28.5q0 8 1 13q5 26 24 38t58 12q40 0 54 -11.5t10 -38.5q-5 -27 -24 -38.5t-59 -11.5q-34 0 -49 8.5z" />
    <glyph glyph-name="glyph256" 
d="M301 914q-2 3 -2 7q0 14 21.5 30.5t38.5 16.5q9 0 14 -5l141 -150q4 -5 5.5 -8t1.5 -6q0 -11 -14.5 -23.5t-26.5 -12.5q-6 0 -9 3l-161 140q-7 5 -9 8z" />
    <glyph glyph-name="glyph257" 
d="M316 763q-13 0 -26.5 14t-13.5 24q0 4 4 8.5t12 10.5l186 143q5 4 14 4q17 0 36 -16t19 -31q0 -10 -18 -21l-203 -133q-4 -3 -10 -3z" />
    <glyph glyph-name="glyph258" 
d="M592 789q0 -9 -14.5 -18t-28.5 -9q-7 0 -12 5l-116 131l-165 -131q-4 -4 -12 -4q-13 0 -26 11t-13 21q0 3 3.5 7t9.5 9l159 141q17 16 50 16t45 -16l112 -148q8 -11 8 -15z" />
    <glyph glyph-name="glyph259" 
d="M231 941q0 9 14.5 18t28.5 9q7 0 12 -5l116 -131l165 131q4 4 12 4q13 0 26 -11t13 -21q0 -3 -3.5 -7t-9.5 -9l-159 -141q-17 -16 -50 -16t-45 16l-112 148q-8 11 -8 15z" />
    <glyph glyph-name="glyph260" 
d="M276 806q-42 40 -50 110q-1 11 17 20.5t34 9.5q14 0 15 -7q6 -52 31.5 -79t76.5 -27q50 0 86 27t63 79q3 7 17 7q18 0 36 -9.5t13 -20.5q-35 -70 -92 -110t-131 -40t-116 40z" />
    <glyph glyph-name="glyph261" 
d="M313 799q-41 37 -41 92t41 92t103 37q40 0 73 -17t52 -46.5t19 -65.5t-19 -65.5t-52 -46.5t-73 -17q-62 0 -103 37zM351.5 833.5q25.5 -22.5 64.5 -22.5t64.5 22.5t25.5 57.5t-25.5 57.5t-64.5 22.5t-64.5 -22.5t-25.5 -57.5t25.5 -57.5z" />
    <glyph glyph-name="glyph262" 
d="M437 794q-23 18 -51 53q-18 25 -32 37t-34 12q-52 0 -86 -109q-6 -14 -34 -14q-16 0 -27.5 5t-9.5 14q20 81 62 126.5t98 45.5q40 0 65 -18.5t51 -53.5q18 -25 32 -37t33 -12q27 0 48.5 28t38.5 81q3 7 12.5 11t22.5 4q16 0 27 -5.5t10 -14.5q-22 -82 -64 -126.5
t-99 -44.5q-40 0 -63 18z" />
    <glyph glyph-name="glyph263" 
d="M213 833q0 15 7 31t20 16h348q16 0 16 -24q0 -15 -8 -31t-21 -16h-348q-14 0 -14 24z" />
    <glyph glyph-name="glyph264" 
d="M321.5 661.5q-16.5 10.5 -16.5 33.5q0 10 1 16q5 32 25.5 45.5t63.5 13.5q37 0 53.5 -10.5t16.5 -33.5q0 -10 -1 -15q-5 -32 -25.5 -46t-63.5 -14q-37 0 -53.5 10.5z" />
  </font>
</defs>
</svg>
