<?xml version="1.0" encoding="UTF-8" standalone="no"?>
<!-- Created with Inkscape (http://www.inkscape.org/) -->

<svg
   height="1000"
   width="1000"
   sodipodi:docname="capital_C.svg"
   version="1.1"
   id="svg1"
   inkscape:version="1.3.2 (1:1.3.2+202311252150+091e20ef0f)"
   xmlns:inkscape="http://www.inkscape.org/namespaces/inkscape"
   xmlns:sodipodi="http://sodipodi.sourceforge.net/DTD/sodipodi-0.dtd"
   xmlns="http://www.w3.org/2000/svg"
   xmlns:svg="http://www.w3.org/2000/svg"
   xmlns:rdf="http://www.w3.org/1999/02/22-rdf-syntax-ns#"
   xmlns:cc="http://creativecommons.org/ns#"
   xmlns:dc="http://purl.org/dc/elements/1.1/">
  <sodipodi:namedview
     id="base"
     pagecolor="#ffffff"
     bordercolor="#000000"
     borderopacity="0.3"
     inkscape:pageopacity="0.0"
     inkscape:pageshadow="2"
     inkscape:zoom="0.65921471"
     inkscape:cx="179.75934"
     inkscape:cy="472.53193"
     inkscape:document-units="px"
     inkscape:current-layer="layer1"
     showgrid="false"
     showguides="true"
     inkscape:window-width="1661"
     inkscape:window-height="1236"
     inkscape:window-x="1533"
     inkscape:window-y="721"
     inkscape:window-maximized="0"
     showborder="false"
     inkscape:showpageshadow="false"
     inkscape:pagecheckerboard="0"
     inkscape:deskcolor="#d1d1d1"
     borderlayer="false">
    <sodipodi:guide
       id="guide_baseline"
       inkscape:label="baseline"
       position="0,200"
       orientation="0,1"
       inkscape:locked="false"
       inkscape:color="rgb(0,134,229)" />
    <sodipodi:guide
       id="guide_ascender"
       inkscape:label="ascender"
       position="0,892"
       orientation="0,1"
       inkscape:locked="false"
       inkscape:color="rgb(0,134,229)" />
    <sodipodi:guide
       id="guide_caps"
       inkscape:label="caps"
       position="0,843"
       orientation="0,1"
       inkscape:locked="false"
       inkscape:color="rgb(0,134,229)" />
    <sodipodi:guide
       id="guide_xheight"
       inkscape:label="xheight"
       position="-167.77637,558.71696"
       orientation="0,1"
       inkscape:locked="false"
       inkscape:color="rgb(0,134,229)" />
    <sodipodi:guide
       id="guide_descender"
       inkscape:label="descender"
       position="0,28"
       orientation="0,1"
       inkscape:locked="false" />
    <sodipodi:guide
       position="277.03954,289.51422"
       orientation="-1,0"
       id="guide1"
       inkscape:locked="false"
       inkscape:label=""
       inkscape:color="rgb(0,134,229)" />
    <sodipodi:guide
       position="0,1000"
       orientation="-1,0"
       id="guide2"
       inkscape:locked="false"
       inkscape:label=""
       inkscape:color="rgb(0,134,229)" />
  </sodipodi:namedview>
  <defs
     id="defs4" />
  <metadata
     id="metadata7">
    <rdf:RDF>
      <cc:Work
         rdf:about="">
        <dc:format>image/svg+xml</dc:format>
        <dc:type
           rdf:resource="http://purl.org/dc/dcmitype/StillImage" />
      </cc:Work>
    </rdf:RDF>
  </metadata>
  <g
     id="layer1"
     inkscape:groupmode="layer"
     inkscape:label="Layer 1">
    <path
       id="path6"
       style="color:#000000;fill:#000000;stroke-linecap:round;stroke-linejoin:round;stroke-miterlimit:0;-inkscape-stroke:none;opacity:1"
       d="M 323.76562 156.99219 C 267.80459 155.9727 213.47942 179.37426 167.6582 217.05078 C 94.344272 277.33321 38.263013 372.80284 13.515625 469.76758 C -11.231763 566.73232 -4.8325636 667.50414 56.560547 733.06445 C 117.95366 798.62478 229.77876 821.7307 399.77539 774.10938 A 20.002 20.002 0 0 0 409.79297 767.5957 C 418.61574 756.92722 427.43851 746.25819 436.26172 735.58984 A 20.002 20.002 0 0 0 431.31836 705.80273 C 417.10978 697.07439 402.90086 688.34439 388.69141 679.61523 A 20 20 0 0 0 361.18164 686.1875 A 20 20 0 0 0 367.75391 713.69727 C 375.42527 718.40993 383.09784 723.12293 390.76953 727.83594 C 388.20707 730.93439 385.6444 734.03246 383.08203 737.13086 C 224.29881 780.38758 133.23656 756.42609 85.757812 705.72461 C 37.680911 654.38437 29.595778 568.51337 52.273438 479.6582 C 74.951098 390.80303 128.20663 301.27504 193.0625 247.94727 C 254.02308 197.82239 321.22627 178.50641 390.56445 214.03711 C 386.51304 227.51979 382.4616 241.00383 378.41016 254.48633 A 20 20 0 0 0 391.80859 279.39453 A 20 20 0 0 0 416.7168 265.99609 C 422.30558 247.39762 427.89571 228.79932 433.48438 210.20117 A 20.002 20.002 0 0 0 424.7793 187.39258 C 391.50821 167.00679 357.34225 157.60388 323.76562 156.99219 z " />
  </g>
</svg>
