<?xml version="1.0" encoding="UTF-8" standalone="no"?>
<!-- Created with Inkscape (http://www.inkscape.org/) -->

<svg
   height="1000"
   width="1000"
   sodipodi:docname="capital_D.svg"
   version="1.1"
   id="svg1"
   inkscape:version="1.3.2 (1:1.3.2+202311252150+091e20ef0f)"
   xmlns:inkscape="http://www.inkscape.org/namespaces/inkscape"
   xmlns:sodipodi="http://sodipodi.sourceforge.net/DTD/sodipodi-0.dtd"
   xmlns="http://www.w3.org/2000/svg"
   xmlns:svg="http://www.w3.org/2000/svg"
   xmlns:rdf="http://www.w3.org/1999/02/22-rdf-syntax-ns#"
   xmlns:cc="http://creativecommons.org/ns#"
   xmlns:dc="http://purl.org/dc/elements/1.1/">
  <sodipodi:namedview
     id="base"
     pagecolor="#ffffff"
     bordercolor="#000000"
     borderopacity="0.3"
     inkscape:pageopacity="0.0"
     inkscape:pageshadow="2"
     inkscape:zoom="0.93227038"
     inkscape:cx="603.90205"
     inkscape:cy="372.74594"
     inkscape:document-units="px"
     inkscape:current-layer="layer1"
     showgrid="false"
     showguides="true"
     inkscape:window-width="2484"
     inkscape:window-height="1236"
     inkscape:window-x="710"
     inkscape:window-y="721"
     inkscape:window-maximized="0"
     showborder="false"
     inkscape:showpageshadow="false"
     inkscape:pagecheckerboard="0"
     inkscape:deskcolor="#d1d1d1"
     borderlayer="false">
    <sodipodi:guide
       id="guide_baseline"
       inkscape:label="baseline"
       position="0,200"
       orientation="0,1"
       inkscape:locked="false"
       inkscape:color="rgb(0,134,229)" />
    <sodipodi:guide
       id="guide_ascender"
       inkscape:label="ascender"
       position="0,892"
       orientation="0,1"
       inkscape:locked="false"
       inkscape:color="rgb(0,134,229)" />
    <sodipodi:guide
       id="guide_caps"
       inkscape:label="caps"
       position="0,843"
       orientation="0,1"
       inkscape:locked="false"
       inkscape:color="rgb(0,134,229)" />
    <sodipodi:guide
       id="guide_xheight"
       inkscape:label="xheight"
       position="-167.77637,558.71696"
       orientation="0,1"
       inkscape:locked="false"
       inkscape:color="rgb(0,134,229)" />
    <sodipodi:guide
       id="guide_descender"
       inkscape:label="descender"
       position="0,28"
       orientation="0,1"
       inkscape:locked="false" />
    <sodipodi:guide
       position="277.03954,289.51422"
       orientation="-1,0"
       id="guide1"
       inkscape:locked="false"
       inkscape:label=""
       inkscape:color="rgb(0,134,229)" />
    <sodipodi:guide
       position="0,1000"
       orientation="-1,0"
       id="guide2"
       inkscape:locked="false"
       inkscape:label=""
       inkscape:color="rgb(0,134,229)" />
  </sodipodi:namedview>
  <defs
     id="defs4" />
  <metadata
     id="metadata7">
    <rdf:RDF>
      <cc:Work
         rdf:about="">
        <dc:format>image/svg+xml</dc:format>
        <dc:type
           rdf:resource="http://purl.org/dc/dcmitype/StillImage" />
      </cc:Work>
    </rdf:RDF>
  </metadata>
  <g
     id="layer1"
     inkscape:groupmode="layer"
     inkscape:label="Layer 1">
    <path
       id="path7"
       style="color:#000000;fill:#000000;stroke-linecap:round;stroke-linejoin:round;stroke-miterlimit:0;-inkscape-stroke:none;opacity:1"
       d="M 101.35938 157.08008 C 42.208797 157.7985 -24.889235 163.76639 -100.70703 175.71289 A 20 20 0 0 0 -117.34961 198.58203 A 20 20 0 0 0 -94.480469 215.22656 C -47.652909 207.84801 -4.651685 203.03083 35.109375 200.23828 A 20 20 0 0 0 34.257812 210.19531 C 72.271296 397.44695 65.356553 565.91669 86.417969 726.44531 A 20 20 0 0 0 108.84961 743.67188 A 20 20 0 0 0 126.07812 721.24023 C 105.64569 565.50567 112.58115 394.94923 73.458984 202.23633 A 20 20 0 0 0 71.78125 198.22852 C 203.94423 193.09543 294.51453 213.30616 350.98828 246.83594 C 428.60958 292.9215 447.44454 361.45808 431.14453 439.1582 C 414.84453 516.85834 359.46638 601.35053 285.58203 663.4707 C 211.69769 725.59088 120.16155 765.00706 33.337891 758.67188 A 20 20 0 0 0 11.935547 777.16211 A 20 20 0 0 0 30.427734 798.56445 C 131.08915 805.90932 231.43205 761.2593 311.32422 694.08789 C 391.21639 626.91648 451.51341 536.89095 470.29297 447.37109 C 489.07253 357.85123 462.39267 266.46099 371.4082 212.44141 C 314.54291 178.67916 234.59786 158.55163 126.22461 157.0918 C 118.09662 156.98231 109.80946 156.97745 101.35938 157.08008 z " />
  </g>
</svg>
