<?xml version="1.0" encoding="UTF-8" standalone="no"?>
<!-- Created with Inkscape (http://www.inkscape.org/) -->

<svg
   height="1000"
   width="1000"
   sodipodi:docname="capital_S.svg"
   version="1.1"
   id="svg1"
   inkscape:version="1.3.2 (1:1.3.2+202311252150+091e20ef0f)"
   xmlns:inkscape="http://www.inkscape.org/namespaces/inkscape"
   xmlns:sodipodi="http://sodipodi.sourceforge.net/DTD/sodipodi-0.dtd"
   xmlns="http://www.w3.org/2000/svg"
   xmlns:svg="http://www.w3.org/2000/svg"
   xmlns:rdf="http://www.w3.org/1999/02/22-rdf-syntax-ns#"
   xmlns:cc="http://creativecommons.org/ns#"
   xmlns:dc="http://purl.org/dc/elements/1.1/">
  <sodipodi:namedview
     id="base"
     pagecolor="#ffffff"
     bordercolor="#000000"
     borderopacity="0.3"
     inkscape:pageopacity="0.0"
     inkscape:pageshadow="2"
     inkscape:zoom="0.93227038"
     inkscape:cx="-101.90177"
     inkscape:cy="338.42113"
     inkscape:document-units="px"
     inkscape:current-layer="layer1"
     showgrid="false"
     showguides="true"
     inkscape:window-width="2484"
     inkscape:window-height="1236"
     inkscape:window-x="876"
     inkscape:window-y="681"
     inkscape:window-maximized="0"
     showborder="false"
     inkscape:showpageshadow="false"
     inkscape:pagecheckerboard="0"
     inkscape:deskcolor="#d1d1d1"
     borderlayer="false">
    <sodipodi:guide
       id="guide_baseline"
       inkscape:label="baseline"
       position="0,200"
       orientation="0,1"
       inkscape:locked="false"
       inkscape:color="rgb(0,134,229)" />
    <sodipodi:guide
       id="guide_ascender"
       inkscape:label="ascender"
       position="0,892"
       orientation="0,1"
       inkscape:locked="false"
       inkscape:color="rgb(0,134,229)" />
    <sodipodi:guide
       id="guide_caps"
       inkscape:label="caps"
       position="0,843"
       orientation="0,1"
       inkscape:locked="false"
       inkscape:color="rgb(0,134,229)" />
    <sodipodi:guide
       id="guide_xheight"
       inkscape:label="xheight"
       position="-167.77637,558.71696"
       orientation="0,1"
       inkscape:locked="false"
       inkscape:color="rgb(0,134,229)" />
    <sodipodi:guide
       id="guide_descender"
       inkscape:label="descender"
       position="0,28"
       orientation="0,1"
       inkscape:locked="false" />
    <sodipodi:guide
       position="277.03954,289.51422"
       orientation="-1,0"
       id="guide1"
       inkscape:locked="false"
       inkscape:label=""
       inkscape:color="rgb(0,134,229)" />
    <sodipodi:guide
       position="0,1000"
       orientation="-1,0"
       id="guide2"
       inkscape:locked="false"
       inkscape:label=""
       inkscape:color="rgb(0,134,229)" />
  </sodipodi:namedview>
  <defs
     id="defs4" />
  <metadata
     id="metadata7">
    <rdf:RDF>
      <cc:Work
         rdf:about="">
        <dc:format>image/svg+xml</dc:format>
        <dc:type
           rdf:resource="http://purl.org/dc/dcmitype/StillImage" />
      </cc:Work>
    </rdf:RDF>
  </metadata>
  <g
     id="layer1"
     inkscape:groupmode="layer"
     inkscape:label="Layer 1">
    <path
       style="color:#000000;opacity:1;fill:#000000;stroke-linecap:round;stroke-linejoin:round;stroke-miterlimit:0;-inkscape-stroke:none"
       d="m 327.38086,157 c -27.63431,0.27104 -56.73513,5.29619 -85.72266,13.47461 C 183.68315,186.83145 125.73198,216.5365 80.69336,252.9082 35.65535,289.27941 1.85501,332.52067 0,380.30078 c -1.25662,32.36918 8.49946,60.66092 25.88867,82.74024 17.38921,22.07931 41.56496,38.10228 68.98242,50.49414 54.83492,24.78371 123.82152,35.82618 188.79297,44.94531 64.97145,9.11913 126.51064,16.59699 160.64258,29.2793 17.06597,6.34115 25.23995,13.65602 27.08395,17.77734 1.8441,4.12132 2.417,10.73985 -8.98239,27.26562 -39.37631,57.08403 -146.50142,92.813 -244.64062,109.72852 C 119.62838,759.44677 32.54297,760 32.54297,760 A 20,20 0 0 0 12.66016,780.11719 20,20 0 0 0 32.77734,800 c 0,0 89.88673,-0.48536 191.78516,-18.04883 101.89843,-17.56347 217.87848,-49.75349 270.77339,-126.43555 15.4641,-22.41838 21.5709,-46.18999 12.5665,-66.31445 -9.0045,-20.12445 -28.0632,-30.91132 -49.66411,-38.9375 C 415.03652,534.21132 353.49938,527.89049 289.22461,518.86914 224.94984,509.84779 158.52161,498.40801 111.3457,477.08594 87.75775,466.4249 69.27962,453.48778 57.3125,438.29297 45.34538,423.09816 39.04108,405.79963 39.9707,381.85352 c 1.10633,-28.50948 25.67346,-65.37809 65.85352,-97.82618 40.18006,-32.44808 94.30164,-60.2745 146.69531,-75.05664 52.39367,-14.78213 102.62627,-15.7866 134.80273,-0.70508 32.17647,15.08153 51.41313,43.14004 46.50586,105.24415 a 20,20 0 0 0 18.36329,21.51171 20,20 0 0 0 21.51168,-18.36132 C 479.45149,243.9109 450.53297,193.71742 404.29883,172.04687 381.18176,161.2116 355.01517,156.72896 327.38086,157 Z"
       id="path43" />
  </g>
</svg>
