<?xml version="1.0" encoding="UTF-8" standalone="no"?>
<!-- Created with Inkscape (http://www.inkscape.org/) -->

<svg
   height="1000"
   width="1000"
   sodipodi:docname="capital_Q.svg"
   version="1.1"
   id="svg1"
   inkscape:version="1.3.2 (1:1.3.2+202311252150+091e20ef0f)"
   xmlns:inkscape="http://www.inkscape.org/namespaces/inkscape"
   xmlns:sodipodi="http://sodipodi.sourceforge.net/DTD/sodipodi-0.dtd"
   xmlns="http://www.w3.org/2000/svg"
   xmlns:svg="http://www.w3.org/2000/svg"
   xmlns:rdf="http://www.w3.org/1999/02/22-rdf-syntax-ns#"
   xmlns:cc="http://creativecommons.org/ns#"
   xmlns:dc="http://purl.org/dc/elements/1.1/">
  <sodipodi:namedview
     id="base"
     pagecolor="#ffffff"
     bordercolor="#000000"
     borderopacity="0.3"
     inkscape:pageopacity="0.0"
     inkscape:pageshadow="2"
     inkscape:zoom="0.65921471"
     inkscape:cx="-57.644345"
     inkscape:cy="360.27716"
     inkscape:document-units="px"
     inkscape:current-layer="layer1"
     showgrid="false"
     showguides="true"
     inkscape:window-width="2484"
     inkscape:window-height="1236"
     inkscape:window-x="876"
     inkscape:window-y="681"
     inkscape:window-maximized="0"
     showborder="false"
     inkscape:showpageshadow="false"
     inkscape:pagecheckerboard="0"
     inkscape:deskcolor="#d1d1d1"
     borderlayer="false">
    <sodipodi:guide
       id="guide_baseline"
       inkscape:label="baseline"
       position="0,200"
       orientation="0,1"
       inkscape:locked="false"
       inkscape:color="rgb(0,134,229)" />
    <sodipodi:guide
       id="guide_ascender"
       inkscape:label="ascender"
       position="0,892"
       orientation="0,1"
       inkscape:locked="false"
       inkscape:color="rgb(0,134,229)" />
    <sodipodi:guide
       id="guide_caps"
       inkscape:label="caps"
       position="0,843"
       orientation="0,1"
       inkscape:locked="false"
       inkscape:color="rgb(0,134,229)" />
    <sodipodi:guide
       id="guide_xheight"
       inkscape:label="xheight"
       position="-167.77637,558.71696"
       orientation="0,1"
       inkscape:locked="false"
       inkscape:color="rgb(0,134,229)" />
    <sodipodi:guide
       id="guide_descender"
       inkscape:label="descender"
       position="0,28"
       orientation="0,1"
       inkscape:locked="false" />
    <sodipodi:guide
       position="277.03954,289.51422"
       orientation="-1,0"
       id="guide1"
       inkscape:locked="false"
       inkscape:label=""
       inkscape:color="rgb(0,134,229)" />
    <sodipodi:guide
       position="0,1000"
       orientation="-1,0"
       id="guide2"
       inkscape:locked="false"
       inkscape:label=""
       inkscape:color="rgb(0,134,229)" />
  </sodipodi:namedview>
  <defs
     id="defs4" />
  <metadata
     id="metadata7">
    <rdf:RDF>
      <cc:Work
         rdf:about="">
        <dc:format>image/svg+xml</dc:format>
        <dc:type
           rdf:resource="http://purl.org/dc/dcmitype/StillImage" />
      </cc:Work>
    </rdf:RDF>
  </metadata>
  <g
     id="layer1"
     inkscape:groupmode="layer"
     inkscape:label="Layer 1">
    <path
       id="path36"
       style="color:#000000;opacity:1;fill:#000000;stroke-linecap:round;stroke-linejoin:round;stroke-miterlimit:0;-inkscape-stroke:none"
       d="m 353.26566,157.01172 c -21.57723,0.33174 -43.53675,6.49202 -64.19336,19.24805 a 19.99995,19.99995 0 0 0 -6.50781,27.52539 19.99995,19.99995 0 0 0 11.57422,8.05468 c -11.20914,-0.32505 -21.7578,0.54543 -31.22657,2.87305 C 208.97909,227.97084 159.31949,268.0025 117.28128,319.68164 75.243075,371.36078 40.894315,435.28657 20.375025,499.62109 -0.14426454,563.95563 -7.2572345,628.82936 8.8183855,683.1875 24.894025,737.54564 67.757545,780.20457 135.86527,790.71484 c 103.27438,15.93703 186.04881,9.56787 250.64258,-12.90625 79.82248,43.48869 188.77676,54.68526 309.52348,50.65235 a 19.99995,19.99995 0 0 0 19.3222,-20.65625 19.99995,19.99995 0 0 0 -20.6582,-19.32031 c -101.79246,3.39985 -192.73627,-5.52574 -259.98631,-32.2793 19.62538,-10.98803 37.13053,-23.72097 52.33984,-38.14649 69.23035,-65.66264 91.27784,-160.92203 84.31445,-252.50781 -6.96337,-91.58578 -42.15479,-180.79964 -92.63476,-240.37109 -25.23999,-29.78573 -54.57634,-52.41862 -87.39844,-62.63672 -12.30829,-3.83179 -25.11811,-5.73029 -38.06445,-5.53125 z m 0.48242,39.65039 c 8.53466,-0.0501 17.044,1.38213 25.69141,4.07422 23.05971,7.1789 47.03196,24.64559 68.77343,50.30273 43.48298,51.31429 76.94118,134.36256 83.26563,217.54492 6.32445,83.18238 -13.70175,165.19995 -71.95703,220.45313 -18.62686,17.66695 -41.47,32.87754 -69.09375,44.64453 -64.18428,-41.25593 -96.47283,-105.8926 -80.61524,-219.32617 a 19.99995,19.99995 0 0 0 -17.03711,-22.57617 19.99995,19.99995 0 0 0 -22.57617,17.03711 c -15.2907,109.37847 14.44192,189.09873 73.76563,240.02734 -52.90203,12.77257 -119.20862,15.11404 -202,2.33789 -55.601315,-8.5803 -82.193085,-36.74584 -94.789075,-79.33789 -12.59597,-42.59205 -7.59749,-100.79588 11.30664,-160.06641 18.90415,-59.27052 51.290265,-119.47747 89.828135,-166.85351 38.53787,-47.37604 83.29711,-81.32455 124.15039,-91.36719 10.80603,-2.65635 40.11973,-1.47071 66.55469,6.49414 26.43495,7.96485 50.19783,22.54185 58.75195,36.85742 11.27669,18.88896 13.43555,51.9961 13.43555,51.9961 a 19.99995,19.99995 0 0 0 20.51172,19.47461 19.99995,19.99995 0 0 0 19.47461,-20.51172 c 0,0 0.28752,-39.03231 -19.08204,-71.47071 a 20.00195,20.00195 0 0 0 -0.002,-0.006 c -17.34003,-29.01906 -49.62409,-45.01916 -81.55078,-54.63867 -16.19859,-4.88063 -32.24003,-8.1401 -47.30664,-9.40625 a 19.99995,19.99995 0 0 0 6.8418,-2.05273 c 15.13704,-9.34755 29.43375,-13.54736 43.6582,-13.63086 z" />
  </g>
</svg>
