<?xml version="1.0" encoding="UTF-8" standalone="no"?>
<!-- Created with Inkscape (http://www.inkscape.org/) -->

<svg
   height="1000"
   width="1000"
   sodipodi:docname="capital_W.svg"
   version="1.1"
   id="svg1"
   inkscape:version="1.3.2 (1:1.3.2+202311252150+091e20ef0f)"
   xmlns:inkscape="http://www.inkscape.org/namespaces/inkscape"
   xmlns:sodipodi="http://sodipodi.sourceforge.net/DTD/sodipodi-0.dtd"
   xmlns="http://www.w3.org/2000/svg"
   xmlns:svg="http://www.w3.org/2000/svg"
   xmlns:rdf="http://www.w3.org/1999/02/22-rdf-syntax-ns#"
   xmlns:cc="http://creativecommons.org/ns#"
   xmlns:dc="http://purl.org/dc/elements/1.1/">
  <sodipodi:namedview
     id="base"
     pagecolor="#ffffff"
     bordercolor="#000000"
     borderopacity="0.3"
     inkscape:pageopacity="0.0"
     inkscape:pageshadow="2"
     inkscape:zoom="0.93227038"
     inkscape:cx="539.54305"
     inkscape:cy="393.12629"
     inkscape:document-units="px"
     inkscape:current-layer="layer1"
     showgrid="false"
     showguides="true"
     inkscape:window-width="2484"
     inkscape:window-height="1236"
     inkscape:window-x="876"
     inkscape:window-y="681"
     inkscape:window-maximized="0"
     showborder="false"
     inkscape:showpageshadow="false"
     inkscape:pagecheckerboard="0"
     inkscape:deskcolor="#d1d1d1"
     borderlayer="false">
    <sodipodi:guide
       id="guide_baseline"
       inkscape:label="baseline"
       position="0,200"
       orientation="0,1"
       inkscape:locked="false"
       inkscape:color="rgb(0,134,229)" />
    <sodipodi:guide
       id="guide_ascender"
       inkscape:label="ascender"
       position="0,892"
       orientation="0,1"
       inkscape:locked="false"
       inkscape:color="rgb(0,134,229)" />
    <sodipodi:guide
       id="guide_caps"
       inkscape:label="caps"
       position="0,843"
       orientation="0,1"
       inkscape:locked="false"
       inkscape:color="rgb(0,134,229)" />
    <sodipodi:guide
       id="guide_xheight"
       inkscape:label="xheight"
       position="-167.77637,558.71696"
       orientation="0,1"
       inkscape:locked="false"
       inkscape:color="rgb(0,134,229)" />
    <sodipodi:guide
       id="guide_descender"
       inkscape:label="descender"
       position="0,28"
       orientation="0,1"
       inkscape:locked="false" />
    <sodipodi:guide
       position="277.03954,289.51422"
       orientation="-1,0"
       id="guide1"
       inkscape:locked="false"
       inkscape:label=""
       inkscape:color="rgb(0,134,229)" />
    <sodipodi:guide
       position="0,1000"
       orientation="-1,0"
       id="guide2"
       inkscape:locked="false"
       inkscape:label=""
       inkscape:color="rgb(0,134,229)" />
  </sodipodi:namedview>
  <defs
     id="defs4">
    <inkscape:path-effect
       effect="fillet_chamfer"
       id="path-effect47"
       is_visible="true"
       lpeversion="1"
       nodesatellites_param="F,0,0,1,0,0,0,1 @ F,0,0,1,0,0,0,1 @ F,0,0,1,0,0,0,1"
       radius="0"
       unit="px"
       method="auto"
       mode="F"
       chamfer_steps="1"
       flexible="false"
       use_knot_distance="true"
       apply_no_radius="true"
       apply_with_radius="true"
       only_selected="false"
       hide_knots="false" />
    <inkscape:path-effect
       effect="fillet_chamfer"
       id="path-effect49"
       is_visible="true"
       lpeversion="1"
       nodesatellites_param="F,0,0,1,0,0,0,1 @ F,0,0,1,0,0,0,1 @ F,0,0,1,0,0,0,1"
       radius="0"
       unit="px"
       method="auto"
       mode="F"
       chamfer_steps="1"
       flexible="false"
       use_knot_distance="true"
       apply_no_radius="true"
       apply_with_radius="true"
       only_selected="false"
       hide_knots="false" />
    <inkscape:path-effect
       effect="fillet_chamfer"
       id="path-effect51"
       is_visible="true"
       lpeversion="1"
       nodesatellites_param="F,0,0,1,0,0,0,1 @ F,0,0,1,0,0,0,1 @ F,0,0,1,0,0,0,1"
       radius="0"
       unit="px"
       method="auto"
       mode="F"
       chamfer_steps="1"
       flexible="false"
       use_knot_distance="true"
       apply_no_radius="true"
       apply_with_radius="true"
       only_selected="false"
       hide_knots="false" />
  </defs>
  <metadata
     id="metadata7">
    <rdf:RDF>
      <cc:Work
         rdf:about="">
        <dc:format>image/svg+xml</dc:format>
        <dc:type
           rdf:resource="http://purl.org/dc/dcmitype/StillImage" />
      </cc:Work>
    </rdf:RDF>
  </metadata>
  <g
     id="layer1"
     inkscape:groupmode="layer"
     inkscape:label="Layer 1">
    <path
       id="path48"
       style="color:#000000;opacity:1;fill:#000000;stroke-width:147.39;stroke-linecap:round;stroke-linejoin:round;stroke-miterlimit:0;-inkscape-stroke:none"
       d="m 316.62284,108.06632 0.0102,0.007 a 19.839361,20.16201 0 0 0 -20.56088,19.44361 c -3.19605,125.36567 -4.2268,240.488 -0.867,338.3613 -69.92719,79.24095 -139.21253,155.51173 -200.826467,212.9362 -10.424455,9.70249 -19.462882,15.2699 -25.698548,17.70221 -6.228356,2.43677 -8.422901,2.00587 -10.279712,1.18867 -1.85681,-0.8915 -5.104035,-3.12025 -8.569106,-10.74258 -3.465072,-7.62232 -6.547084,-19.92947 -8.27231,-36.27512 C 34.628905,585.30099 50.682273,456.3307 102.38348,267.621 A 19.839361,20.16201 0 0 0 88.681093,242.66347 19.839361,20.16201 0 0 0 64.12441,256.88289 C 11.776979,447.95803 -6.2808676,578.03675 1.8730154,655.03856 c 2.032257,19.25194 5.8628422,35.28407 11.9888546,48.75463 6.140632,13.47651 15.338423,24.89811 28.270303,30.7612 12.92457,5.86904 27.732267,4.8141 40.835207,-0.29716 13.100017,-5.11127 25.44269,-13.87768 38.26491,-25.82824 55.27447,-51.51531 115.61788,-116.58736 176.58998,-184.99957 2.16092,37.25281 5.12597,71.4017 9.09837,101.78401 7.79276,59.61311 18.61197,104.95478 38.26491,135.23457 9.82502,15.13767 23.12241,27.0273 39.97845,31.04945 16.85603,4.02661 34.51474,-0.59285 50.82835,-10.74108 C 639.16103,654.35953 778.44667,344.58863 822.06709,217.18292 a 19.839361,20.16201 0 0 0 -12.28127,-25.53701 19.839361,20.16201 0 0 0 -25.41344,12.48099 c -41.35717,120.79673 -184.10641,427.10416 -368.94091,542.09574 -10.58528,6.58224 -16.76247,7.132 -21.13109,6.09191 -4.37154,-1.04008 -9.69343,-4.51693 -15.99196,-14.21942 -12.60292,-19.40646 -24.52452,-61.05733 -31.98246,-118.11331 -5.1596,-39.47413 -8.53256,-86.7043 -10.64961,-139.4053 85.75832,-97.46916 170.96252,-197.3721 243.30356,-271.87474 a 19.839361,20.16201 0 0 0 0,-28.73155 l -0.0117,-0.0193 a 19.839361,20.16201 0 0 0 -27.98228,0.29716 C 485.29286,247.9055 409.93414,335.1224 333.90287,421.95893 332.06653,334.96787 333.03295,235.73058 335.7553,128.67038 a 19.839361,20.16201 0 0 0 -19.13246,-20.60405 z" />
  </g>
</svg>
