<?xml version="1.0" encoding="UTF-8" standalone="no"?>
<!-- Created with Inkscape (http://www.inkscape.org/) -->

<svg
   height="1000"
   width="1000"
   sodipodi:docname="capital_U.svg"
   version="1.1"
   id="svg1"
   inkscape:version="1.3.2 (1:1.3.2+202311252150+091e20ef0f)"
   xmlns:inkscape="http://www.inkscape.org/namespaces/inkscape"
   xmlns:sodipodi="http://sodipodi.sourceforge.net/DTD/sodipodi-0.dtd"
   xmlns="http://www.w3.org/2000/svg"
   xmlns:svg="http://www.w3.org/2000/svg"
   xmlns:rdf="http://www.w3.org/1999/02/22-rdf-syntax-ns#"
   xmlns:cc="http://creativecommons.org/ns#"
   xmlns:dc="http://purl.org/dc/elements/1.1/">
  <sodipodi:namedview
     id="base"
     pagecolor="#ffffff"
     bordercolor="#000000"
     borderopacity="0.3"
     inkscape:pageopacity="0.0"
     inkscape:pageshadow="2"
     inkscape:zoom="0.93227038"
     inkscape:cx="539.54305"
     inkscape:cy="453.19471"
     inkscape:document-units="px"
     inkscape:current-layer="layer1"
     showgrid="false"
     showguides="true"
     inkscape:window-width="2484"
     inkscape:window-height="1236"
     inkscape:window-x="876"
     inkscape:window-y="681"
     inkscape:window-maximized="0"
     showborder="false"
     inkscape:showpageshadow="false"
     inkscape:pagecheckerboard="0"
     inkscape:deskcolor="#d1d1d1"
     borderlayer="false">
    <sodipodi:guide
       id="guide_baseline"
       inkscape:label="baseline"
       position="0,200"
       orientation="0,1"
       inkscape:locked="false"
       inkscape:color="rgb(0,134,229)" />
    <sodipodi:guide
       id="guide_ascender"
       inkscape:label="ascender"
       position="0,892"
       orientation="0,1"
       inkscape:locked="false"
       inkscape:color="rgb(0,134,229)" />
    <sodipodi:guide
       id="guide_caps"
       inkscape:label="caps"
       position="0,843"
       orientation="0,1"
       inkscape:locked="false"
       inkscape:color="rgb(0,134,229)" />
    <sodipodi:guide
       id="guide_xheight"
       inkscape:label="xheight"
       position="-167.77637,558.71696"
       orientation="0,1"
       inkscape:locked="false"
       inkscape:color="rgb(0,134,229)" />
    <sodipodi:guide
       id="guide_descender"
       inkscape:label="descender"
       position="0,28"
       orientation="0,1"
       inkscape:locked="false" />
    <sodipodi:guide
       position="277.03954,289.51422"
       orientation="-1,0"
       id="guide1"
       inkscape:locked="false"
       inkscape:label=""
       inkscape:color="rgb(0,134,229)" />
    <sodipodi:guide
       position="0,1000"
       orientation="-1,0"
       id="guide2"
       inkscape:locked="false"
       inkscape:label=""
       inkscape:color="rgb(0,134,229)" />
  </sodipodi:namedview>
  <defs
     id="defs4" />
  <metadata
     id="metadata7">
    <rdf:RDF>
      <cc:Work
         rdf:about="">
        <dc:format>image/svg+xml</dc:format>
        <dc:type
           rdf:resource="http://purl.org/dc/dcmitype/StillImage" />
      </cc:Work>
    </rdf:RDF>
  </metadata>
  <g
     id="layer1"
     inkscape:groupmode="layer"
     inkscape:label="Layer 1">
    <path
       style="color:#000000;opacity:1;fill:#000000;stroke-linecap:round;stroke-linejoin:round;stroke-miterlimit:0;-inkscape-stroke:none"
       d="M 108.72656,157.42578 A 20,20 0 0 0 93.82812,170.76562 C 38.36229,339.86283 6.65136,472.05624 0,572.01953 c -6.65136,99.96329 12.10061,171.33642 64.17187,208.32227 21.56658,15.31922 47.08514,19.93684 72.80079,19.19531 25.71564,-0.74154 52.4321,-6.45423 80.32031,-13.05078 55.77642,-13.19311 116.23748,-29.94407 176.03515,-24.92774 12.23801,1.02609 21.87287,-7.24787 26.46875,-13.95898 4.59589,-6.71111 7.21909,-13.7965 9.67188,-22.07813 4.90559,-16.56325 8.30805,-37.97913 11.04102,-63.64453 5.46593,-51.3308 7.7622,-119.0462 7.66015,-187.51953 -0.10205,-68.47332 -2.62478,-137.51342 -7.03711,-191.10937 -2.20616,-26.79798 -4.8547,-49.6635 -8.08008,-67.2168 -1.61268,-8.77665 -3.31672,-16.17685 -5.55078,-22.6875 -2.23406,-6.51065 -2.6764,-13.01259 -13.84765,-19.80078 a 20,20 0 0 0 -27.47852,6.70703 20,20 0 0 0 6.70703,27.47852 c -2.20947,-1.34259 -3.31946,-2.19153 -4.00195,-2.79493 0.27411,0.37324 0.567,0.75682 0.78516,1.39258 1.1433,3.33189 2.64434,9.31128 4.04492,16.9336 2.80116,15.24463 5.41495,37.25473 7.55664,63.26953 4.28338,52.02959 6.80171,120.36383 6.90234,187.88867 0.10064,67.52484 -2.24006,134.43362 -7.43555,183.22461 -2.59774,24.39549 -6.03341,44.41462 -9.61914,56.52148 -0.84994,2.86976 -1.74088,5.20089 -2.50976,7.03125 -66.18521,-3.7811 -128.18088,13.98482 -180.52149,26.36524 -27.23245,6.44144 -51.85607,11.40371 -72.26367,11.99218 -20.4076,0.58848 -35.7945,-2.8064 -48.48437,-11.82031 a 20.002,20.002 0 0 0 -0.002,-0.002 C 51.58148,722.3357 33.67,668.48773 39.91207,574.67573 c 6.24207,-93.812 36.98209,-223.94989 91.92187,-391.44336 a 20,20 0 0 0 -12.76953,-25.23633 20,20 0 0 0 -10.33789,-0.57031 z"
       id="path46" />
  </g>
</svg>
