<?xml version="1.0" encoding="UTF-8" standalone="no"?>
<!-- Created with Inkscape (http://www.inkscape.org/) -->

<svg
   height="1000"
   width="1000"
   sodipodi:docname="capital_A.svg"
   version="1.1"
   id="svg1"
   inkscape:version="1.3.2 (1:1.3.2+202311252150+091e20ef0f)"
   xmlns:inkscape="http://www.inkscape.org/namespaces/inkscape"
   xmlns:sodipodi="http://sodipodi.sourceforge.net/DTD/sodipodi-0.dtd"
   xmlns="http://www.w3.org/2000/svg"
   xmlns:svg="http://www.w3.org/2000/svg"
   xmlns:rdf="http://www.w3.org/1999/02/22-rdf-syntax-ns#"
   xmlns:cc="http://creativecommons.org/ns#"
   xmlns:dc="http://purl.org/dc/elements/1.1/">
  <sodipodi:namedview
     id="base"
     pagecolor="#ffffff"
     bordercolor="#000000"
     borderopacity="0.3"
     inkscape:pageopacity="0.0"
     inkscape:pageshadow="2"
     inkscape:zoom="1.3184294"
     inkscape:cx="298.46118"
     inkscape:cy="469.87726"
     inkscape:document-units="px"
     inkscape:current-layer="layer1"
     showgrid="false"
     showguides="true"
     inkscape:window-width="1661"
     inkscape:window-height="1236"
     inkscape:window-x="1533"
     inkscape:window-y="721"
     inkscape:window-maximized="0"
     showborder="false"
     inkscape:showpageshadow="false"
     inkscape:pagecheckerboard="0"
     inkscape:deskcolor="#d1d1d1"
     borderlayer="false">
    <sodipodi:guide
       id="guide_baseline"
       inkscape:label="baseline"
       position="0,200"
       orientation="0,1"
       inkscape:locked="false"
       inkscape:color="rgb(0,134,229)" />
    <sodipodi:guide
       id="guide_ascender"
       inkscape:label="ascender"
       position="0,892"
       orientation="0,1"
       inkscape:locked="false"
       inkscape:color="rgb(0,134,229)" />
    <sodipodi:guide
       id="guide_caps"
       inkscape:label="caps"
       position="0,843"
       orientation="0,1"
       inkscape:locked="false"
       inkscape:color="rgb(0,134,229)" />
    <sodipodi:guide
       id="guide_xheight"
       inkscape:label="xheight"
       position="-167.77637,558.71696"
       orientation="0,1"
       inkscape:locked="false"
       inkscape:color="rgb(0,134,229)" />
    <sodipodi:guide
       id="guide_descender"
       inkscape:label="descender"
       position="0,28"
       orientation="0,1"
       inkscape:locked="false" />
    <sodipodi:guide
       position="277.03954,289.51422"
       orientation="-1,0"
       id="guide1"
       inkscape:locked="false"
       inkscape:label=""
       inkscape:color="rgb(0,134,229)" />
    <sodipodi:guide
       position="0,1000"
       orientation="-1,0"
       id="guide2"
       inkscape:locked="false"
       inkscape:label=""
       inkscape:color="rgb(0,134,229)" />
  </sodipodi:namedview>
  <defs
     id="defs4" />
  <metadata
     id="metadata7">
    <rdf:RDF>
      <cc:Work
         rdf:about="">
        <dc:format>image/svg+xml</dc:format>
        <dc:type
           rdf:resource="http://purl.org/dc/dcmitype/StillImage" />
      </cc:Work>
    </rdf:RDF>
  </metadata>
  <g
     id="layer1"
     inkscape:groupmode="layer"
     inkscape:label="Layer 1">
    <path
       id="path1"
       style="color:#000000;fill:#000000;stroke-linecap:round;stroke-linejoin:round;stroke-miterlimit:0;-inkscape-stroke:none;opacity:1"
       d="M 186.8125 157.08594 A 20.002 20.002 0 0 0 169.56055 171.10156 C 134.38795 285.11315 105.79882 394.02753 77.693359 502.02734 C 77.258803 501.77999 76.825779 501.55143 76.390625 501.29688 A 20 20 0 0 0 49.027344 508.46094 A 20 20 0 0 0 56.193359 535.82227 C 59.89702 537.98885 63.600928 539.94544 67.300781 541.72266 C 46.145891 622.94824 24.905637 703.96968 0.80273438 786.44531 A 20 20 0 0 0 14.390625 811.25195 A 20 20 0 0 0 39.197266 797.66602 C 63.2897 715.2262 84.501251 634.58555 105.54688 553.95703 C 145.20549 560.79334 182.77695 550.48326 213.13086 539.84961 C 230.19792 533.87064 245.52698 527.92672 257.92773 524.32031 C 268.25597 611.86874 276.64574 699.75414 298.27539 784.4707 A 20 20 0 0 0 322.60156 798.90234 A 20 20 0 0 0 337.03125 774.57617 C 317.29164 697.26231 309.53805 614.3689 299.83398 529.63281 A 20 20 0 0 0 318.47656 524.04688 A 20 20 0 0 0 317.77734 495.77148 C 310.81627 489.14569 302.7075 485.10143 294.20703 482.93359 C 280.71766 377.35851 260.30865 269.95601 206.36133 167.66602 A 20.002 20.002 0 0 0 186.8125 157.08594 z M 192.85156 232.86914 C 226.71248 313.57403 241.91251 398.46496 252.99609 484.19531 C 235.49167 488.5178 218.07202 495.73574 199.90625 502.09961 C 172.12709 511.83126 144.3816 519.75698 115.67773 515.4375 C 139.92819 422.41328 164.36218 329.09745 192.85156 232.86914 z " />
  </g>
</svg>
