<?xml version="1.0" encoding="UTF-8" standalone="no"?>
<!-- Created with Inkscape (http://www.inkscape.org/) -->

<svg
   height="1000"
   width="1000"
   sodipodi:docname="lower_i.svg"
   version="1.1"
   id="svg1"
   inkscape:version="1.3.2 (1:1.3.2+202311252150+091e20ef0f)"
   xmlns:inkscape="http://www.inkscape.org/namespaces/inkscape"
   xmlns:sodipodi="http://sodipodi.sourceforge.net/DTD/sodipodi-0.dtd"
   xmlns="http://www.w3.org/2000/svg"
   xmlns:svg="http://www.w3.org/2000/svg"
   xmlns:rdf="http://www.w3.org/1999/02/22-rdf-syntax-ns#"
   xmlns:cc="http://creativecommons.org/ns#"
   xmlns:dc="http://purl.org/dc/elements/1.1/">
  <sodipodi:namedview
     id="base"
     pagecolor="#ffffff"
     bordercolor="#000000"
     borderopacity="0.3"
     inkscape:pageopacity="0.0"
     inkscape:pageshadow="2"
     inkscape:zoom="0.93227038"
     inkscape:cx="604.9747"
     inkscape:cy="625.89138"
     inkscape:document-units="px"
     inkscape:current-layer="layer1"
     showgrid="false"
     showguides="true"
     inkscape:window-width="2484"
     inkscape:window-height="1236"
     inkscape:window-x="1142"
     inkscape:window-y="791"
     inkscape:window-maximized="0"
     showborder="false"
     inkscape:showpageshadow="false"
     inkscape:pagecheckerboard="0"
     inkscape:deskcolor="#d1d1d1"
     borderlayer="false">
    <sodipodi:guide
       id="guide_baseline"
       inkscape:label="baseline"
       position="0,200"
       orientation="0,1"
       inkscape:locked="false"
       inkscape:color="rgb(0,134,229)" />
    <sodipodi:guide
       id="guide_ascender"
       inkscape:label="ascender"
       position="0,892"
       orientation="0,1"
       inkscape:locked="false"
       inkscape:color="rgb(0,134,229)" />
    <sodipodi:guide
       id="guide_caps"
       inkscape:label="caps"
       position="0,843"
       orientation="0,1"
       inkscape:locked="false"
       inkscape:color="rgb(0,134,229)" />
    <sodipodi:guide
       id="guide_xheight"
       inkscape:label="xheight"
       position="-167.77637,558.71696"
       orientation="0,1"
       inkscape:locked="false"
       inkscape:color="rgb(0,134,229)" />
    <sodipodi:guide
       id="guide_descender"
       inkscape:label="descender"
       position="0,28"
       orientation="0,1"
       inkscape:locked="false" />
    <sodipodi:guide
       position="277.03954,289.51422"
       orientation="-1,0"
       id="guide1"
       inkscape:locked="false"
       inkscape:label=""
       inkscape:color="rgb(0,134,229)" />
    <sodipodi:guide
       position="0,1000"
       orientation="-1,0"
       id="guide2"
       inkscape:locked="false"
       inkscape:label=""
       inkscape:color="rgb(0,134,229)" />
  </sodipodi:namedview>
  <defs
     id="defs4" />
  <metadata
     id="metadata7">
    <rdf:RDF>
      <cc:Work
         rdf:about="">
        <dc:format>image/svg+xml</dc:format>
        <dc:type
           rdf:resource="http://purl.org/dc/dcmitype/StillImage" />
      </cc:Work>
    </rdf:RDF>
  </metadata>
  <g
     id="layer1"
     inkscape:groupmode="layer"
     inkscape:label="Layer 1">
    <path
       id="path69"
       style="color:#000000;fill:#000000;stroke-linecap:round;stroke-linejoin:round;stroke-miterlimit:0;-inkscape-stroke:none;opacity:1"
       d="M 150.76172 356.56445 A 23.874865 26.718704 0 0 0 126.88672 383.2832 A 23.874865 26.718704 0 0 0 150.76172 410.00195 A 23.874865 26.718704 0 0 0 174.63672 383.2832 A 23.874865 26.718704 0 0 0 150.76172 356.56445 z M 144.57422 441.49609 A 20.002 20.002 0 0 0 122.10156 457.11523 C 114.46526 493.21524 107.91556 524.38768 102.22266 553.20898 C 96.964776 567.23639 90.808824 580.02578 83.623047 591.34961 C 62.835634 624.1078 34.492133 646.09577 -5.6699219 657.9668 A 20 20 0 0 0 -19.179688 682.81641 A 20 20 0 0 0 5.6699219 696.32617 C 37.525905 686.91024 64.623404 671.05062 86.765625 649.9707 C 86.350511 654.33707 85.891959 658.75833 85.613281 662.95312 C 82.162997 714.88857 90.575633 756.17753 117.75 789.93359 C 124.36459 798.15007 136.16223 800.75406 143.7168 799.82227 C 151.27135 798.89046 156.9835 796.23575 162.67578 793.16211 C 174.06035 787.01483 185.11365 778.27261 195.73633 769.12891 C 216.98168 750.84148 235.77344 730.69922 235.77344 730.69922 A 20 20 0 0 0 234.83398 702.43164 A 20 20 0 0 0 206.56445 703.37109 C 206.56445 703.37109 188.68865 722.41649 169.64062 738.8125 C 160.18195 746.95427 150.28149 754.34673 143.83203 757.85742 C 127.78159 734.57182 122.70383 708.07705 125.52539 665.60547 C 127.32628 638.49764 132.98339 604.66763 140.85547 564.36133 C 151.78052 534.26156 158.4657 500.30031 161.59766 462.92383 A 20.002 20.002 0 0 0 144.57422 441.49609 z " />
  </g>
</svg>
