<?xml version="1.0" encoding="UTF-8" standalone="no"?>
<!-- Created with Inkscape (http://www.inkscape.org/) -->

<svg
   height="1000"
   width="1000"
   sodipodi:docname="lower_e.svg"
   version="1.1"
   id="svg1"
   inkscape:version="1.3.2 (1:1.3.2+202311252150+091e20ef0f)"
   xmlns:inkscape="http://www.inkscape.org/namespaces/inkscape"
   xmlns:sodipodi="http://sodipodi.sourceforge.net/DTD/sodipodi-0.dtd"
   xmlns="http://www.w3.org/2000/svg"
   xmlns:svg="http://www.w3.org/2000/svg"
   xmlns:rdf="http://www.w3.org/1999/02/22-rdf-syntax-ns#"
   xmlns:cc="http://creativecommons.org/ns#"
   xmlns:dc="http://purl.org/dc/elements/1.1/">
  <sodipodi:namedview
     id="base"
     pagecolor="#ffffff"
     bordercolor="#000000"
     borderopacity="0.3"
     inkscape:pageopacity="0.0"
     inkscape:pageshadow="2"
     inkscape:zoom="0.93227038"
     inkscape:cx="604.9747"
     inkscape:cy="625.89138"
     inkscape:document-units="px"
     inkscape:current-layer="layer1"
     showgrid="false"
     showguides="true"
     inkscape:window-width="2484"
     inkscape:window-height="1236"
     inkscape:window-x="1142"
     inkscape:window-y="791"
     inkscape:window-maximized="0"
     showborder="false"
     inkscape:showpageshadow="false"
     inkscape:pagecheckerboard="0"
     inkscape:deskcolor="#d1d1d1"
     borderlayer="false">
    <sodipodi:guide
       id="guide_baseline"
       inkscape:label="baseline"
       position="0,200"
       orientation="0,1"
       inkscape:locked="false"
       inkscape:color="rgb(0,134,229)" />
    <sodipodi:guide
       id="guide_ascender"
       inkscape:label="ascender"
       position="0,892"
       orientation="0,1"
       inkscape:locked="false"
       inkscape:color="rgb(0,134,229)" />
    <sodipodi:guide
       id="guide_caps"
       inkscape:label="caps"
       position="0,843"
       orientation="0,1"
       inkscape:locked="false"
       inkscape:color="rgb(0,134,229)" />
    <sodipodi:guide
       id="guide_xheight"
       inkscape:label="xheight"
       position="-167.77637,558.71696"
       orientation="0,1"
       inkscape:locked="false"
       inkscape:color="rgb(0,134,229)" />
    <sodipodi:guide
       id="guide_descender"
       inkscape:label="descender"
       position="0,28"
       orientation="0,1"
       inkscape:locked="false" />
    <sodipodi:guide
       position="277.03954,289.51422"
       orientation="-1,0"
       id="guide1"
       inkscape:locked="false"
       inkscape:label=""
       inkscape:color="rgb(0,134,229)" />
    <sodipodi:guide
       position="0,1000"
       orientation="-1,0"
       id="guide2"
       inkscape:locked="false"
       inkscape:label=""
       inkscape:color="rgb(0,134,229)" />
  </sodipodi:namedview>
  <defs
     id="defs4" />
  <metadata
     id="metadata7">
    <rdf:RDF>
      <cc:Work
         rdf:about="">
        <dc:format>image/svg+xml</dc:format>
        <dc:type
           rdf:resource="http://purl.org/dc/dcmitype/StillImage" />
      </cc:Work>
    </rdf:RDF>
  </metadata>
  <g
     id="layer1"
     inkscape:groupmode="layer"
     inkscape:label="Layer 1">
    <path
       id="path63"
       style="color:#000000;fill:#000000;stroke-linecap:round;stroke-linejoin:round;stroke-miterlimit:0;-inkscape-stroke:none;opacity:1"
       d="M 123.55273 441.38086 C 120.66783 441.26067 117.80786 441.26362 114.97656 441.38867 C 111.7408 441.53159 108.5412 441.83487 105.38281 442.29688 C 80.11571 445.99297 58.645365 459.79023 42.617188 478.46094 C 10.560833 515.80235 -3.0888848 572.06961 0.58203125 627.7207 C 4.2529473 683.37181 26.157353 739.93237 73.128906 773.0293 C 120.10046 806.12621 189.70587 811.77463 277.81445 773.30078 A 20 20 0 0 0 288.13867 746.96875 A 20 20 0 0 0 261.80664 736.64258 C 181.74814 771.60124 130.099 764.24039 96.167969 740.33203 C 92.910682 738.03689 89.83865 735.4974 86.863281 732.83984 C 103.38662 723.16985 154.95607 691.4979 196.20703 648.29883 C 220.86093 622.48062 242.26221 592.70329 245.74219 558.21875 C 249.22216 523.73421 230.11147 487.89583 186.98242 462.11133 C 165.18989 449.08278 143.74705 442.22218 123.55273 441.38086 z M 122.04492 481.3125 C 134.52479 481.79779 149.15152 486.09736 166.45703 496.44336 C 201.36422 517.31247 207.89553 534.85633 205.94336 554.20117 C 203.99119 573.54602 188.88443 598.04632 167.27734 620.67383 C 126.09795 663.79796 67.536768 697.8544 61.962891 701.05664 C 49.582652 678.93484 42.304024 652.49612 40.496094 625.08789 C 37.402722 578.19237 50.775353 530.36573 72.966797 504.51562 C 84.062519 491.59058 96.523217 484.01782 111.17188 481.875 C 113.00295 481.60715 114.88702 481.42326 116.82617 481.33203 C 118.52293 481.25221 120.26208 481.24317 122.04492 481.3125 z " />
  </g>
</svg>
